<?xml version="1.0" encoding="utf-8"?>
<!-- Generator: Adobe Illustrator 20.0.0, SVG Export Plug-In . SVG Version: 6.00 Build 0)  -->
<svg version="1.1" id="Layer_1" xmlns="http://www.w3.org/2000/svg" xmlns:xlink="http://www.w3.org/1999/xlink" x="0px" y="0px"
	 viewBox="0 0 100 50" style="enable-background:new 0 0 100 50;" xml:space="preserve">
<style type="text/css">
	.st0{fill:#131313;}
	.st1{fill:#1C1C1C;}
	.st2{fill:#111111;}
	.st3{fill:#161616;}
	.st4{fill:#1D1D1D;}
	.st5{fill:#191919;}
	.st6{fill:#1B1B1B;}
	.st7{fill:#1F1F1F;}
	.st8{fill:#1E1E1E;}
	.st9{fill:#323232;}
	.st10{fill:#313131;}
	.st11{fill:#141414;}
	.st12{fill:#1A1A1A;}
	.st13{fill:#303030;}
	.st14{fill:#222222;}
	.st15{fill:#808080;}
	.st16{fill:#848484;}
	.st17{fill:#121212;}
	.st18{fill:#292929;}
	.st19{fill:#757575;}
	.st20{fill:#858585;}
	.st21{fill:#2E2E2E;}
	.st22{fill:#202020;}
	.st23{fill:#232323;}
	.st24{fill:#2A2A2A;}
	.st25{fill:#3E3E3E;}
	.st26{fill:#242424;}
	.st27{fill:#2B2B2B;}
	.st28{fill:#414141;}
	.st29{fill:#212121;}
	.st30{fill:#151515;}
	.st31{fill:#2C2C2C;}
	.st32{fill:#333333;}
	.st33{fill:#353535;}
	.st34{fill:#696969;}
	.st35{fill:#272727;}
	.st36{fill:#363636;}
	.st37{fill:#949494;}
	.st38{fill:#404040;}
	.st39{fill:#252525;}
	.st40{fill:#3C3C3C;}
	.st41{fill:#919191;}
	.st42{fill:#393939;}
	.st43{fill:#838383;}
	.st44{fill:#535353;}
	.st45{fill:#2D2D2D;}
	.st46{fill:#A2A2A2;}
	.st47{fill:#8B8B8B;}
	.st48{fill:#181818;}
	.st49{fill:#818181;}
	.st50{fill:#171717;}
	.st51{fill:#262626;}
	.st52{fill:#3F3F3F;}
	.st53{fill:#7D7D7D;}
	.st54{fill:#2F2F2F;}
	.st55{fill:#929292;}
	.st56{fill:#999999;}
	.st57{fill:#8F8F8F;}
	.st58{fill:#4C4C4C;}
	.st59{fill:#8A8A8A;}
	.st60{fill:#525252;}
	.st61{fill:#5B5B5B;}
	.st62{fill:#979797;}
	.st63{fill:#8D8D8D;}
	.st64{fill:#595959;}
	.st65{fill:#939393;}
	.st66{fill:#868686;}
	.st67{fill:#454545;}
</style>
<g id="Layer_1_1_">
	<g id="xrwO6d.tif">
		<g>
			<path class="st0" d="M61,40.7c-0.8,0.5-1.2,0.5-1.8-0.2c-0.4-0.5-0.8-1-0.8-1.6c0.4-0.3,0.6,0.1,0.9,0.3c0.8,0.7,1.1,0.7,1.8,0
				c0.1-0.1,0.2-0.2,0.3-0.3c0.3-0.5,0.7-0.5,1.2-0.2c0.8,0.4,1.6-0.2,1.7-1c0-0.2,0.1-0.4,0.2-0.4c0.9-0.6,1-1.6,1.2-2.5
				c0.1-0.7,0.4-1.4,0.8-2c0.4-0.8,0.8-1.5,1.2-2.3c0.8-0.3,1.1-1.1,1.5-1.8c0.2-0.4,0.5-0.7,0.9-0.9c0.7-0.4,0.7-0.4,1.2,0.3
				c0,0.1,0.1,0.2,0.1,0.3c0.2,0.4,0.1,0.8,0,1.2l0,0c0,0.5-0.5,0.8-0.5,1.3c0,0.1-0.1,0.3-0.2,0.4c-0.4,0.3-0.4,0.8-0.5,1.3
				c0,0.1-0.1,0.3-0.2,0.4c-0.2,0.2-0.2,0.5-0.6,0.5c-0.8-0.6-0.9-0.6-1.5,0.3c-0.5,0.7-0.6,1.6-0.9,2.3c-0.1,0.3-0.2,0.5-0.5,0.7
				c-0.7,0.6-1,1.3-0.9,2.2c0,0.2,0,0.4-0.2,0.5c-0.4,0.2-0.8,0.4-1.2,0.8c-0.4,0.4-1,0.4-1.6,0.4c-0.6-0.4-1,0.2-1.5,0.3
				C61.2,40.8,61.1,40.8,61,40.7z"/>
			<path class="st1" d="M70.5,26.4c0.4,0.3,0.6,0.6,0.8,1c0,0.1,0,0.3,0,0.4c-0.7-0.3-1.2-0.1-1.8,0.7c-0.5,0.7-0.8,1.5-1.6,2
				c-0.3-0.2-0.2-0.5-0.1-0.7s0.3-0.4,0.4-0.7c0.3-1,1-1.7,1.6-2.4C69.9,26.5,70.1,26.1,70.5,26.4z"/>
			<path class="st2" d="M64.4,37.6c0.3,0.3,0.2,0.6-0.1,0.8c-0.5,0.3-0.9,1-1.6,0.6c-0.6-0.4-1-0.2-1.4,0.3
				c-0.2,0.2-0.5,0.4-0.7,0.6c-0.5,0.3-1,0.2-1.4-0.3c-0.2-0.3-0.5-0.6-0.8-0.8c-0.8-1.2-0.8-2.6-0.7-4c0.1-0.6,0.2-1.2,0.3-1.7
				c-0.2-0.7-0.2-1.4,0.3-2c0.2-0.1,0.4-0.1,0.6,0.1c0.3,0.4,0.9,0.6,1.3,1c0.1,0.1,0.2,0.2,0.3,0.4c0,0.4,0.4,0.5,0.5,0.8
				c0.4,1.1-0.3,2.2-0.2,3.4c0.4-0.1,0.4-0.4,0.5-0.7c0.1-0.5,0.1-1,0.5-1.4c0.4-0.2,0.7-0.5,0.9-0.9c0.3-0.6,0.8-1.1,1.3-1.6
				c0.4-0.4,0.8-0.3,1.1,0.3c0.2,0.4,0.2,0.9,0.1,1.3c-0.2,0.7-0.3,1.3-0.5,1.9c-0.2,0.5-0.2,1-0.1,1.6
				C64.3,37.4,64.3,37.5,64.4,37.6z"/>
			<path class="st2" d="M65.4,39.1c-0.3-1.1,0-2,0.8-2.8c0.5-0.5,0.7-1.2,0.8-1.8c0.3-0.9,0.7-1.7,1.4-2.3c0.2-0.2,0.3-0.4,0.6-0.3
				c0.3,0.1,0.2,0.4,0.3,0.6c0,0.2,0,0.3,0,0.5c0.4,0.3,0.3,0.6,0.2,1c-0.2,0.5-0.5,1-0.8,1.5c-0.3,0.7-0.5,1.4-0.7,2.2
				c-0.2,0.5,0,1-0.1,1.5c-0.1,0.3-0.1,0.6,0,0.8c0.1,0.5-0.3,1,0,1.5c0.1-0.1,0.1-0.3,0.2-0.4c0.7-0.4,1.4-0.1,1.4,0.8
				c0,1.4-0.5,2.5-1.7,3.2c-0.5,0.3-1.1,0.1-1.6-0.1c-0.6-0.8-0.8-1.8-1.1-2.8c-0.1-0.3,0.2-0.5,0.1-0.8c0.1-0.5-0.1-0.9-0.1-1.4
				C65.5,39.8,65.1,39.4,65.4,39.1z"/>
			<path class="st3" d="M56.4,32.6L56.4,32.6c0.8,0.1,1,0.5,0.6,1.3c-0.3,0.9-0.9,1.6-1.3,2.4c-0.4,0.8-0.9,1.6-1.1,2.5
				c-0.3,0.9-0.3,0.9-1.1,0.5c-0.4,0.1-0.6-0.2-0.6-0.5c0-0.6,0-1.2,0.3-1.8s0.8-1.1,1-1.8c0-0.1,0.1-0.1,0.1-0.2
				c0.4-0.5,0.7-1,1.1-1.5C55.7,33.1,56.2,33,56.4,32.6z"/>
			<path class="st1" d="M57,34c0.1-0.5-0.1-1-0.5-1.3c0.2-0.4,0.5-0.8,0.9-1c0.3-0.2,0.3-0.9,0.9-0.4c-0.3,0.6,0,1.3-0.4,1.9
				C57.3,33,57.4,33.8,57,34z"/>
			<path class="st4" d="M64.5,40.3c-0.6,0.2-1.2,0.4-1.7-0.3c0.7,0.2,1.3,0.1,1.8-0.4c0.3-0.2,0.5-0.4,0.9-0.5c0,0.3,0,0.7-0.1,1
				C65,39.6,64.9,39.6,64.5,40.3z"/>
			<path class="st0" d="M79.1,32.8c0.4,0.6,0.7,0,1-0.2c0.4,0,0.4,0.3,0.4,0.5s-0.1,0.4,0,0.6c-0.1,0.8-0.8,1.3-0.9,2.1
				c0,0.2,0,0.3-0.1,0.5c-0.4,0.5-0.3,1-0.3,1.5c0,0.8-0.4,1-1.1,0.6c-0.4-0.2-0.7-0.6-1-0.9c-0.1-0.2-0.2-0.5-0.3-0.8
				c0.3-1.3,0.3-2.5,0.5-3.8c0-0.4,0.6-0.7,1.2-0.6C78.6,32.4,78.9,32.6,79.1,32.8z"/>
			<path class="st5" d="M79.1,32.8c-0.5,0.1-1-0.3-1.4,0.1c-0.4,0.3-0.1,0.9-0.2,1.3c-0.2,0.9-0.2,1.8-0.3,2.6
				c-0.5-0.2-0.5-0.2-0.4-1c0,0.5-0.1,0.9-0.2,1.4c-0.4,1.2-0.9,2.3-1.9,3.1c-0.4,0.3-0.9,0.6-1.3,0.2c-0.6-0.4-1.2-0.9-0.9-1.8
				c0.2-0.3,0.5-0.2,0.8,0c0.4,0.3,0.6,0.1,1-0.2c1-0.9,1.2-2.1,1.5-3.3c0.1-0.2-0.1-0.3-0.2-0.5c-0.1-0.4,0-0.7,0.3-0.8
				c0.6-0.3,0.8-0.9,1-1.4s0.3-1.1,1-1C78.3,31.7,79,32,79.1,32.8z"/>
			<path class="st6" d="M83.3,31.4c0.1,0.3,0.3,0.5,0.3,0.9c-0.7,0.4-1.1,1.2-1.5,1.9c-0.1,0.2-0.3,0.5-0.6,0.4
				c-0.1,0-0.1-0.1-0.2-0.2c-0.3-1,0.4-1.8,0.6-2.7c0-0.1,0.1-0.2,0.1-0.4c0.1-0.3-0.1-0.6,0.4-0.6C82.8,31,83,31.2,83.3,31.4z"/>
			<path class="st7" d="M78.8,29.9c-0.4,0.1-0.8,0-1.1-0.2c-0.1-0.1-0.1-0.2,0-0.2c0-0.1,0-0.2,0-0.3c0-0.4-0.1-0.7-0.3-1.1
				c-0.1-0.2-0.2-0.4,0.1-0.6c0.2-0.1,0.5-0.1,0.7,0.1c0.3,0.3,0.2,0.8,0.6,1.1C78.7,29.2,79,29.5,78.8,29.9z"/>
			<path class="st8" d="M80.1,33.8c0-0.4,0.3-0.8,0-1.2c0.5-0.5,1.1-1.1,1.6-1.6c0.2,0,0.3,0.1,0.4,0.3c-0.2,0.9-0.4,1.8-1.2,2.4
				C80.6,33.8,80.4,34,80.1,33.8z"/>
			<path class="st9" d="M77,32.5c0-0.2,0-0.4,0-0.6c-0.1-0.7,0.2-0.9,0.8-0.9c0,0.1,0,0.2,0,0.2C77.4,31.6,77.2,32.1,77,32.5z"/>
			<path class="st10" d="M81.9,31.3c-0.1-0.1-0.1-0.2-0.2-0.3c0.2-0.3,0.4-0.6,0.8-0.3c0,0.2-0.1,0.4-0.1,0.6
				C82.2,31.3,82,31.4,81.9,31.3z"/>
			<path class="st11" d="M81.6,34.6c0.2-0.5,0.5-1,0.7-1.5c0.3-0.6,0.7-0.8,1.4-0.8c0.1,1.2-0.2,2.3-0.4,3.5c0,0.3-0.1,0.7-0.1,1
				s0.1,0.4,0.4,0.3c0.7-0.4,1.5-0.6,1.9-1.4c-0.1-0.7,0-1.3,0.7-1.7c0.4,0.1,0.6-0.3,0.8-0.5c0.1,0,0.1-0.1,0.2-0.1
				c0.3-0.1,0.7-0.4,1,0c0.2,0.3,0.2,0.7,0,1.1c-0.2,0.4-0.3,0.7-0.4,1.1c-0.1,0.2-0.1,0.5,0.3,0.5c0.8-0.3,1.5-0.9,2.2-1.4
				c0.3-0.1,0.6-0.2,0.9-0.4c0.2-0.1,0.4,0,0.5,0.1c0.1,0.2,0.1,0.3,0,0.5C91,36,90.2,37,89.1,37.7c-0.7,0.4-1.4,0.5-2.1,0.3
				s-1.2,0.1-1.7,0.4c-0.3,0.2-0.6,0.4-0.9,0.6c-0.8,0.4-1.1,0.4-1.8-0.2c-0.2-0.2-0.4-0.3-0.6-0.6C81.1,37.1,81,35.9,81.6,34.6z"/>
			<path class="st6" d="M86.3,34.3c-0.5,0.4-0.9,0.8-0.9,1.5c-0.2-1.1-0.2-2.1,0.2-3.1c0.3-0.4,0.5-0.9,1-1.2
				c0.4-0.3,0.7-0.4,1.1-0.2l0,0c0.6,0.5,0,0.7-0.2,1c-0.4,0.4-0.7,0.9-0.7,1.5C86.6,33.9,86.7,34.2,86.3,34.3z"/>
			<path class="st7" d="M87.6,31.1c-0.7,0-1,0.6-1.5,0.9c-0.2,0.1-0.4,0.4-0.6,0.5c0.1-0.3,0.1-0.5,0.2-0.8c0.4-0.8,0.7-1,1.8-0.9
				C87.6,31.1,87.6,31.1,87.6,31.1z"/>
			<path class="st12" d="M82,38.4c0.2,0.1,0.3,0.3,0.5,0.4c0.4,0.4,0.9,0.5,1.5,0.2c0.5-0.3,1-0.7,1.6-1c0.4-0.3,0.9-0.3,1.3-0.1
				c1,0.3,1.7,0,2.5-0.7s1.4-1.5,2-2.5c-0.4,0.3-0.8,0.1-1.3,0.1c0.2-0.2,0.4-0.5,0.6-0.7c0.6-0.2,0.8-0.9,1.3-1.2
				c0.5,0.9,0.2,1.7-0.4,2.4c-0.5,0.7-1,1.3-1.5,2c-0.2,0.2-0.5,0.3-0.7,0.5c-0.3,0.6-0.8,0.7-1.4,0.8c-0.4,0.1-0.8,0-1.2,0
				c-0.8-0.1-1.4,0.1-1.8,0.9c-0.1,0.1-0.1,0.1-0.2,0.1c-0.7,0-1.4,0.2-2.1,0.3c-0.1,0-0.2-0.1-0.3-0.2c-0.3-0.2-0.5-0.6-0.6-0.9
				C81.9,38.6,81.9,38.5,82,38.4z"/>
			<path class="st1" d="M87.9,36.2c-0.4,0.1-0.6,0-0.5-0.5c0.1-0.4,0.2-0.7,0.4-1.1c0.2-0.3,0.4-0.6,0.1-0.9c-0.3-0.4-0.6,0-0.8,0.1
				c-0.2-0.6,0-1.2,0.5-1.5c0.7-0.1,1,0.1,1.1,0.8c-0.3,0.9-0.4,1.9-0.8,2.8C87.8,36,87.9,36.1,87.9,36.2z"/>
			<path class="st7" d="M88.7,33.1c-0.2-0.5-0.7-0.5-1.1-0.6c-0.2-0.1-0.4-0.3-0.4-0.6c0.2-0.2,0.6-0.3,0.4-0.7
				C88.6,31.6,88.8,32.1,88.7,33.1z"/>
			<path class="st5" d="M71,37.2c-0.4,0.5-0.8,0.9-1.2,1.4c-0.1,0.1-0.3,0.3-0.1,0.4c0.2,0.2,0.2,0.5,0.3,0.7c0,0.1,0.1,0.3,0.1,0.4
				c0.7,1.3,0.7,2.7,0.1,4c-0.1,0.3-0.4,0.6-0.7,0.7c-0.5,0.3-0.8,0.9-1.4,0.9c-0.5-0.2-1.2-0.3-1.4-1c1,0.5,2.4-0.3,2.6-1.7
				c0.1-0.5,0.3-1.1-0.1-1.6c-0.3-0.4-0.4-0.2-0.6,0.1c-0.4-0.4-0.3-0.9-0.5-1.3c-0.1-0.3-0.2-0.7-0.4-1c0.1-0.5-0.2-1,0.1-1.5
				c1.1,0.3,1.6-0.6,2.2-1.1c0.1-0.1,0.2-0.2,0.3-0.3C71.3,36.1,71.3,36.2,71,37.2z"/>
			<path class="st12" d="M72.5,37.8L72.5,37.8c-0.5-0.1-0.6-0.5-0.6-0.8c0-0.7-0.1-1.4,0.2-2.2c0.2-0.6,0.2-1.2,0.3-1.8
				c0.1-0.2,0.1-0.4,0.2-0.6c0.1-0.3,0.2-0.5,0.6-0.3c0.3,0,0.5,0.3,0.7,0.5c0.4,0.3,0.7,0.7,0.8,1.2c-0.7,0.1-1.3,0.4-1.6,1.1
				c-0.3,0.7-0.4,1.3-0.2,2C72.9,37.3,73,37.7,72.5,37.8z"/>
			<path class="st13" d="M73.1,32.2c-0.4,0.2-0.3,0.6-0.5,0.9c-0.2,0.4-0.3,0.9-0.5,1.3c-0.1,0.2-0.1,0.5-0.4,0.5
				c-0.2-0.1-0.1-0.3-0.2-0.5c0-0.1,0-0.2,0-0.3l0,0c0.1-0.7,0.5-1.3,0.6-1.9C72.5,31.8,72.8,31.8,73.1,32.2z"/>
			<path class="st14" d="M59,30.9c0.1,0.6,0.5,1.1,0.8,1.6c-0.7-0.3-0.8-1.1-1.5-1.3c-0.4,0-0.6,0.3-0.9,0.4
				C57.8,30.7,58,30.6,59,30.9z"/>
			<path class="st6" d="M62.3,33.1c0.3-0.4,0.5-0.8,0.8-1.2c0.6-0.8,0.8-0.8,1.7-0.4c0.1,0.5,0.4,0.9,0.6,1.3c0,0.4,0.1,0.8-0.2,1.1
				l0,0c-0.4,1-0.5,2.1-1.1,3c-0.2,0.2-0.3,0.5-0.5,0.7c0.3-1.2,0.6-2.5,0.9-3.7c0-0.1,0-0.1,0.1-0.2c0-0.5,0.2-1.1-0.2-1.3
				c-0.5-0.3-0.7,0.4-1,0.7c-0.6,0.6-1,1.4-1.7,1.8c-0.5-0.4-0.1-0.8,0.1-1.2C62,33.4,62.2,33.3,62.3,33.1z"/>
			<path class="st15" d="M68.4,39.8L68.4,39.8"/>
			<path class="st15" d="M67.7,40.2c0-0.3,0-0.7,0-1"/>
			<path class="st16" d="M54.6,35.3c0.2-0.7,0.5-1.2,1.1-1.6C55.4,34.3,55,34.8,54.6,35.3z"/>
			<path class="st4" d="M78.2,39.4c-0.7-0.5-0.8-1.3-0.9-2c0.3,0.3,0.6,0.6,0.9,0.8c0.5,0.3,0.6,0.1,0.7-0.4c0-0.6-0.1-1.2,0.2-1.7
				c0,0.9-0.1,1.7,0,2.6C79.1,39.3,78.8,39.5,78.2,39.4z"/>
			<path class="st17" d="M72.5,37.8c0-0.3,0-0.6-0.1-0.9c-0.3-1.3,0.2-2.4,1-3.3c0.4-0.5,0.8,0,1.2,0.2c0.4,0.5,0.3,1.1,0.1,1.8
				c0.5-0.2,0.6-0.8,0.9-1C76,34.7,76,35,76,35.3c-0.2,1.5-0.9,2.8-1.9,3.9c-0.2,0.3-0.5,0.3-0.8,0c-0.2-0.2-0.5-0.4-0.7-0.7
				C72.6,38.3,72.6,38.1,72.5,37.8z"/>
			<path class="st4" d="M81.9,38.7c-0.3-1.4-0.6-2.9-0.3-4.3c0,0.1,0,0.1,0,0.2c0,1.3,0.1,2.6,0.4,3.8C82,38.5,82,38.6,81.9,38.7
				C82,38.8,81.9,38.8,81.9,38.7z"/>
			<path class="st4" d="M86.8,38.1c-0.4-0.1-0.7,0.1-1,0.4c-0.3,0.3-0.5,0.6-1,0.6c0.3-0.5,0.7-0.8,1.2-1.1
				C86.3,37.9,86.5,37.9,86.8,38.1z"/>
			<path class="st4" d="M84.8,39.1c-0.6,0.6-1.3,0.7-2.1,0.3C83.5,39.5,84.2,39.4,84.8,39.1z"/>
			<path class="st18" d="M71.8,34.8c-0.4,0.8-0.3,1.7-0.7,2.4H71c0-0.1-0.1-0.2-0.1-0.3c0.3-0.7-0.1-0.4-0.4-0.3
				c0.5-0.7,0.8-1.5,1.2-2.2C71.7,34.5,71.7,34.7,71.8,34.8z"/>
			<path class="st19" d="M69.9,39.7c-0.1-0.4-0.9-0.6-0.2-1.1C69.6,39,70.3,39.3,69.9,39.7z"/>
			<path class="st20" d="M65.3,33.8c0-0.4,0-0.8,0-1.2c-0.1-0.2-0.2-0.4,0-0.6l0,0"/>
			<path class="st21" d="M65.3,32c0,0.2,0,0.4,0,0.6c-0.6-0.2-0.4-0.7-0.4-1.2C65,31.6,65.1,31.8,65.3,32z"/>
		</g>
	</g>
	<g id="ujLCnb.tif">
		<g>
			<path class="st5" d="M86.5,11.4c0.2,0.2,0.3,0.5,0.4,0.8c-0.3,0.2-0.4,0-0.6-0.2c-0.4-0.2-0.5-0.2-0.9,0.1
				c-0.4,0.5-0.7,1.1-1.2,1.5c-0.1,0.1-0.1,0.2-0.1,0.4s0,0.3-0.1,0.5c-0.2,0.4-0.3,0.7,0.2,1c0.3,0.1,0.4,0.6,0.2,0.9
				c-0.4,0.6-0.1,1.2,0,1.9c0,0.3,0,0.5-0.1,0.8c-0.2,0.3-0.3,0.6,0,0.9c0.1,0.1,0.1,0.3,0,0.4c-0.1,0.3-0.1,0.6,0.1,0.8
				c0.1,0.1,0.1,0.2,0,0.3c-0.2,0.4-0.1,0.8,0.1,1.2c0.1,0.2,0,0.4-0.1,0.7c0.4-0.1,0.6-0.4,0.5-0.8c-0.1-0.6-0.1-1.2,0-1.8
				c0.1-0.3,0.1-0.5,0.5-0.3c0,1.4,0,2.7,0,4.1c0,0.8-0.2,1.6-0.3,2.4c-0.2,0.3-0.4,0.7-0.8,0.9c-0.2,0.1-0.5,0.2-0.8,0.2
				s-0.5,0-0.8,0.2c-0.2,0.1-0.4,0-0.6-0.1c-0.4-0.4-0.8-0.8-1.2-1.2c-0.3-0.3-0.3-0.6,0.2-0.9c1.1-0.1,1.4-0.4,1.6-1.6
				c0.1-0.5,0.2-1,0.2-1.6c0-0.2,0-0.3,0.2-0.4S83,22.3,83,22.2c0-0.2,0-0.3,0-0.5s0.1-0.4,0.1-0.6c0.3-0.4,0.1-0.6-0.2-0.8
				c-0.1-0.2,0.1-0.4,0-0.6c0.1-0.2,0-0.4,0-0.5c0.1-0.3,0.1-0.6,0.1-0.9s0.1-0.6,0.1-0.9c0-0.2,0-0.4-0.2-0.5
				c-0.2-0.2-0.5-0.2-0.7-0.2S82,16.9,81.9,17c-0.3,0.3-0.6,0.3-0.8,0c-0.4-0.4-0.7-0.9-0.7-1.5c0-0.3,0.3-0.5,0.2-0.8
				c0-0.3,0-0.5,0-0.8c0-0.2,0-0.3,0-0.5c0.2-0.3,0.5-0.4,0.6-0.7c0.2-0.3,0.3-0.7,0.6-0.9l0.1-0.1l0.1-0.1c0.4-0.3,0.7-0.6,1-0.9
				c0.4-0.4,0.8-0.3,1.3-0.2c0.3,0.1,0.4,0.5,0.1,0.6c-0.4,0.2-0.4,0.5-0.5,0.8c-0.5,0.5-0.9,1.1-1.1,1.8c-0.1,0.1-0.2,0.2-0.3,0.2
				c-0.3-0.1-0.3-0.3-0.2-0.5c0-0.3,0.1-0.7,0.2-0.9c-0.3,0.5-0.8,1-1.1,1.7c-0.1,0.3-0.3,0.5,0.1,0.7c0.1,0.1,0.2,0.3,0.1,0.4
				c0,0.3,0.1,0.3,0.3,0.2c0.7-0.2,0.9-0.6,0.7-1.2c0.1-0.4,0.3-0.6,0.5-0.9c0.1-0.1,0.3-0.1,0.3-0.3c0-0.1,0.1-0.2,0.2-0.2
				c0.3,0,0.4-0.2,0.4-0.6c0-0.1,0-0.2,0-0.3c0.1-0.2,0.1-0.5,0.3-0.6c0.1-0.1,0.2-0.1,0.3,0c0.3,0.1,0.3-0.1,0.3-0.3
				c0-0.3,0-0.5,0.3-0.6s0.5,0,0.7,0.3C86,10.9,86.4,11,86.5,11.4z"/>
			<path class="st11" d="M85.5,20.3c-0.5,0.3-0.3,0.8-0.3,1.2c0,0.2-0.1,0.6,0.2,0.9c0.1,0.1-0.3,1-0.5,1.1
				c-0.3,0.2-0.3,0.2-0.4,0.5c-0.2-0.3-0.2-0.6-0.4-0.8C83.8,23,84,23,84.2,23s0.2-0.1,0.2-0.3c-0.1-0.5-0.4-0.9,0-1.4
				c0.1-0.1,0-0.2-0.1-0.2c-0.7,0-0.4-0.4-0.3-0.6c0.1-0.3,0.3-0.5-0.2-0.7c-0.1,0-0.1-0.2,0-0.3c0.1-0.1,0.1-0.2,0.2-0.4
				c0.4-0.5,0.2-1.1,0.1-1.7c-0.1-0.4-0.2-0.8,0.2-1.2c0.2-0.2,0-0.7-0.3-0.7c-0.5-0.1-0.5-0.5-0.3-0.7c0.3-0.5,0.3-0.9,0.3-1.4
				c0-0.1,0-0.4,0.3-0.2c0.3,0.1,0.3-0.2,0.4-0.3c0.3-0.5,0.6-0.9,1-1.3c0.3-0.3,0.4-0.2,0.7,0c0.2,0.2,0.4,0.3,0.6,0.5
				c0.2,0.4,0.1,0.8,0,1.2c-0.2,0.8-0.4,1.6-0.6,2.4c0.1-0.1,0.2-0.2,0.3-0.2c0.4,0.1,0.3,0.3,0.2,0.5c-0.2,0.4-0.5,0.9-0.7,1.3
				c-0.1,0.2-0.2,0.4-0.3,0.6C85.7,18.7,85.6,19.5,85.5,20.3z"/>
			<path class="st3" d="M90.9,10.9c0.3,0.2,0.6,0.4,0.9,0.6c0.1,0.1,0.2,0.1,0.3,0c0.3-0.1,0.5,0.1,0.4,0.4c0,0.2-0.1,0.4-0.1,0.6
				c-0.8,0.7-0.9,1.7-1,2.7c0,1.4-0.2,2.7-0.5,4c-0.3,0.3-0.5,0.3-0.9,0.1c-0.1-0.1-0.1-0.1-0.2-0.2c-0.6-0.2-1-0.6-1.4-1
				c-0.4-0.2-0.8-0.4-0.4-0.9c0.2-0.3,0.2-0.7,0.4-1.1c0-0.2,0.2-0.3,0.2-0.5c0.5-0.4,0.6-1,0.7-1.6c0.1-0.4,0.3-0.9,0.4-1.3
				c0.3-0.7,0.1-1.2-0.2-1.8c-0.1-0.2-0.1-0.4,0-0.6c0.1-0.2,0.2-0.4,0.5-0.2l0,0C90.3,10.6,90.6,10.7,90.9,10.9z"/>
			<path class="st11" d="M95.6,12.4c0.3,0.7,0.1,1.4,0.1,2.2c-0.1,1.6-0.6,3.2-0.7,4.8c0,0.1,0,0.1-0.1,0.2c-0.1,0.6,0,1.1-0.1,1.7
				c0,0.5-0.3,0.7-0.8,0.5c-0.9-0.3-1.4-1-1.3-2v-0.1c-0.4-0.6-0.2-1.2,0-1.8c0.2-0.9,0-2,0.6-2.8c0-0.7,0.4-1.3,0.5-2
				c0-0.6,0.8-1.2,1.3-1C95.5,11.9,95.5,12.2,95.6,12.4z"/>
			<path class="st22" d="M81.2,26c-0.4,0.1-0.2,0.4-0.1,0.5c0.4,0.4,0.9,0.8,1.2,1.3c0.1,0.1,0.2,0.1,0.3,0c0.3-0.2,0.6-0.2,0.9-0.2
				c0.5,0,0.8-0.4,1.2-0.6c0.1-0.1,0.3-0.2,0.4-0.3c0,0.7-0.6,1-1.1,1.3c-0.4,0.1-0.8,0-1.1,0.2c-0.3,0.1-0.4-0.2-0.7-0.2
				c-0.7-0.2-1.1-0.6-1.5-1.1c-0.2-0.2-0.4-0.4-0.6-0.6c-0.2-0.3-0.4-0.6-0.7-0.8c-0.1-0.1-0.2-0.2-0.1-0.3c0.3-0.5,0.5-1,0.8-1.5
				c0.4-0.7,0.8-1.3,1.2-2c0.5-0.7,1-1.4,1.5-2.1c0.1-0.1,0.1-0.3,0.4-0.2c0.3,0.2,0,0.4,0,0.6c0,0.3,0.4,0.5,0.2,0.9
				c0,0.2,0,0.4-0.1,0.6c-0.2,0-0.2,0.1-0.3,0.2c-0.6,0.9-1.2,1.8-1.7,2.8c-0.2,0.5-0.4,1,0,1.4C81.3,25.9,81.2,26,81.2,26z"/>
			<path class="st6" d="M92.6,20.5c-0.1-0.5-0.3-1-0.3-1.6v-0.1c0.1-0.5,0-1,0-1.5c0-0.1,0-0.2,0-0.4c0.2-0.2,0.2-0.5,0.1-0.8
				c0-0.1,0-0.1,0-0.2c0.4-0.5,0.3-1.1,0.5-1.6c0.2-0.6,0.2-1.3,0.6-1.8c0.1-0.1,0.1-0.3,0.1-0.4c-0.1-0.3,0.1-0.5,0.2-0.8
				c0.1-0.2,0.3-0.3,0.6-0.2c0.3,0.1,0.6,0.3,0.9,0.5c0.1,0.2,0.3,0.3,0.4,0.5c0,0.1,0,0.1,0,0.2c-0.2,0-0.3-0.3-0.6-0.3
				c-0.5,0-0.5,0.5-0.9,0.6l0,0c0.4,0.5-0.3,0.8-0.3,1.2c0,0.6-0.4,1.2-0.5,1.8c-0.2,0.8-0.4,1.7-0.3,2.6c0,0.1,0,0.3-0.1,0.4
				s-0.1,0.2,0,0.4c0.2,0.3,0.2,0.6,0.1,0.9s0,0.6,0.2,0.8c0.1,0.1,0.2,0.2,0.2,0.2c0,0.5,0.5,0.4,0.8,0.6c0.1,0.1,0.3-0.1,0.4-0.2
				c0.1-0.3,0.2-0.5,0.2-0.8s-0.1-0.6,0.1-0.9c0.1,0.7,0,1.4,0.2,2.1c0.1,0.3,0.4,0.5,0.3,0.9c-0.6,0.1-1.2,0.1-1.8-0.4l-0.1-0.1
				c-0.2-0.5-0.7-0.7-0.9-1.1C92.6,20.7,92.6,20.6,92.6,20.5z"/>
			<path class="st7" d="M90.1,10.3c-0.3,0.3-0.5,0.5-0.2,0.9c0.2,0.2,0.3,0.4,0.2,0.7c-0.1,0.3,0.1,0.5,0.5,0.6
				c-0.8,0.4-0.8,1.2-1.1,1.8c-0.2,0.5-0.2,1.1-0.8,1.5c-0.1,0.1-0.2,0.2-0.4,0.1c0.3-1.5,0.6-2.9,1-4.4c-0.3-0.1-0.4-0.2-0.2-0.5
				c0.2-0.3-0.1-0.6-0.1-1c0.1-0.2,0.2-0.1,0.4-0.1c0.2,0.1,0.3,0.2,0.5,0.1C90,10.2,90,10.2,90.1,10.3z"/>
			<path class="st4" d="M95.3,11.7c-0.2-0.1-0.5-0.1-0.7-0.2c-0.2,0-0.4-0.3-0.5-0.1s-0.3,0.4-0.1,0.7c0.1,0.1,0,0.2,0,0.3
				c-0.3,0.4-0.4,1-0.6,1.5c-0.1,0.5-0.4,1-0.4,1.5c0,0.3-0.1,0.6-0.5,0.6c0.2-1.3,0.4-2.6,0.7-3.8c0.1-0.2,0.1-0.4-0.1-0.7
				C93,11.3,93,11,93.2,10.8c0.1-0.2,0.3-0.1,0.5-0.1C94.3,10.8,94.8,11.2,95.3,11.7z"/>
			<path class="st4" d="M85.9,17.9c0-0.7,0.3-1.3,0.7-1.8c0.1-0.2,0.2-0.3,0.1-0.6c0.3-0.4,0.6-0.8,0.9-1.2C88,14,88,14,88.1,14.4
				c0.1,0.4-0.4,0.3-0.4,0.6c0.1-0.1,0.1-0.3,0.3-0.2c0.1,0,0.1,0.2,0,0.3C87.5,16.2,86.7,17.1,85.9,17.9z"/>
			<path class="st23" d="M88.5,18.3c0.2,0,0.3,0.1,0.5,0.2s0.4,0.4,0.7,0.2c0.2-0.1,0.3,0.2,0.4,0.3c0.3,0.3,0.6,0.2,0.9,0.3
				c-0.1,0.5-0.4,0.8-0.9,0.6c-0.5-0.2-0.9-0.4-1.2-0.9C88.8,18.8,88.6,18.6,88.5,18.3z"/>
			<path class="st24" d="M93.6,10.7c-0.5,0-0.5,0.4-0.4,0.6c0.1,0.3,0,0.5-0.1,0.8c0-0.1,0-0.2-0.1-0.4c-0.3,0.2-0.4,0.6-0.6,0.9
				c-0.1-0.4,0-0.8-0.3-1.1c0.3-0.3,0.5-0.6,0.8-0.9C93.1,10.4,93.4,10.7,93.6,10.7z"/>
			<path class="st25" d="M89,10c0.2,0.3,0.4,0.7,0.1,1.1c-0.2,0.2,0.3,0.2,0.2,0.4c-0.3,0-0.4,0.2-0.4,0.4c-0.1,0.4-0.3,0.7-0.4,1.1
				c-0.1,0.1-0.1,0.3-0.2,0.3s-0.1-0.1-0.1-0.2c0.1-0.3,0.2-0.7,0.4-1C88.8,11.5,89.1,10.8,89,10z"/>
			<path class="st18" d="M88.1,13.1c0.1,0.1,0.2,0.1,0.2-0.1c0-0.1,0.1-0.1,0.2,0c0,0.5-0.2,0.9-0.4,1.4c0,0.1,0,0.1-0.1,0.1
				c0-0.4-0.3-0.2-0.5-0.2C87.7,14,87.9,13.5,88.1,13.1z"/>
			<path class="st26" d="M88.6,16.4c-0.1,0.4-0.2,0.8-0.5,1c0.1-0.4,0.2-0.9,0.2-1.3c0.1-0.1,0.2-0.1,0.3-0.1
				C88.7,16.1,88.6,16.3,88.6,16.4z"/>
			<path class="st4" d="M92.4,16.2c0.4,0.1,0.3,0.5,0.3,0.7c0,0.3-0.2,0.2-0.4,0C92.3,16.7,92.3,16.4,92.4,16.2z"/>
			<path class="st27" d="M88,14.6l0.1-0.1c0.3,0.3,0,0.5-0.1,0.7c0-0.1-0.1-0.2-0.2-0.1c-0.1,0.2-0.2,0.4-0.5,0.5
				C87.4,15.1,87.8,14.9,88,14.6z"/>
			<path class="st4" d="M92.3,17.3c0.3,0.5,0.2,1.1,0,1.6C92.1,18.4,92.2,17.9,92.3,17.3C92.2,17.3,92.3,17.3,92.3,17.3z"/>
			<path class="st18" d="M82.9,28.3c0.3-0.4,0.8-0.2,1.1-0.2C83.7,28.3,83.3,28.4,82.9,28.3z"/>
			<path class="st28" d="M88.6,16.4c0-0.2,0-0.4-0.3-0.3c0-0.1,0-0.1,0.1-0.2c0.1,0,0.3-0.1,0.4-0.1C88.8,16,88.8,16.2,88.6,16.4z"
				/>
			<path class="st11" d="M9.1,8c0.4,0,0.7,0.3,1,0.4C10.4,8.2,10.6,8,11,7.8c0.2-0.1,0.5-0.2,0.6-0.5c0.2-0.3,0.6-0.4,0.9-0.5
				c0.3-0.1,0.6,0.1,0.7,0.4c0.1,0.4,0.3,0.8,0.2,1.2c0,1.1-0.4,2.1-0.6,3.2c-0.4,1.9-0.7,3.8-0.7,5.7c0,0.1-0.1,0.3,0.1,0.4
				c0.1,0.1,0.3-0.1,0.4-0.2c0.3-0.3,0.8-0.5,0.6-1.1c-0.1-1,0.1-1.8,0.8-2.5l0.1-0.1c0.6-0.1,0.9-0.6,1.3-1
				c0.3-0.3,0.6-0.2,0.8,0.1l0.1,0.1c0,0.3,0.1,0,0.2,0.1c0.2-0.1,0.3,0.1,0.4,0.3c0,0.4,0.1,0.7-0.2,1.1c-0.3,0.4-0.3,0.9-0.6,1.2
				c-0.3,0.5-0.4,1-0.4,1.5c0,0.3,0.1,0.4,0.4,0.3c0.4-0.1,0.7-0.3,1.1-0.5c0.4-0.4,0.5-1,0.6-1.6c0.2-0.8,0.5-1.5,0.5-2.3
				c0-0.2,0.1-0.3,0.2-0.4c0.8-0.3,1.1-1.1,1.3-1.8c0.3-0.7,0.8-1.1,1.1-1.7C21,9.1,21.1,9,21.2,8.9c0.1-0.2,0.2-0.3,0.4-0.2
				c0.2,0,0.2,0.2,0.3,0.3c0.2,0.5,0,1-0.1,1.5c-0.1,0.6-0.2,1.2,0,1.8c-0.1,0.2-0.1,0.3,0.1,0.4c0.3,0.6,0.3,1.2-0.1,1.7
				c-0.3,0.4-0.5,0.8-0.7,1.3c-0.6,0.7-0.7,1.6-0.9,2.4c0.3,0.2,0.3,0.4,0.1,0.7c-0.2,0.2-0.2,0.5-0.1,0.8c-0.1,0.5,0.1,1,0,1.5
				c0,0.1,0,0.1,0,0c0,0,0,0,0.1,0c0.5-0.1,0.9,0.1,0.9,0.6c0,0.3,0,0.6,0.1,0.8c0.1,0.2,0,0.3-0.1,0.5c-0.3,0.3-0.5,0.7-0.7,1
				c-0.1,0.3-0.3,0.5-0.6,0.6c-0.5,0.3-0.9-0.1-1.2-0.3c-0.3-0.3-0.6-0.5-0.9-0.7c-0.5-1.1-0.8-2.2-0.9-3.4c0-0.1,0-0.2-0.1-0.4
				c-0.3-0.8-0.5-0.9-1.2-0.4c-0.3,0.3-0.7,0.2-1.1,0.1c-0.2-0.1-0.4-0.2-0.6,0c0,0,0,0-0.1,0h-0.1c-0.6-0.3-0.8-0.3-1.2,0.2
				c-0.2,0.3-1.2,0.4-1.5,0.2c-0.3-0.2-0.6-0.3-0.9-0.5c-0.3-0.6-0.8-1.2-1-1.8C9.2,17.3,9,17,9,16.7c0-0.2-0.1-0.3-0.2-0.4
				c-0.3,0.1-0.3,0.4-0.5,0.6c-0.4,0.8-0.8,1.7-1.4,2.4c-0.1,0.1-0.2,0.2-0.2,0.3c0,0.6-0.3,0.9-0.8,1.2c-0.3,0.1-0.5,0-0.6-0.3
				c-0.2-0.3-0.6-0.4-0.8-0.7c-0.1,0-0.1-0.1-0.1-0.2c-0.5-1-0.6-2.1-0.7-3.2c-0.3-3,0.8-5.5,2.9-7.6c0.4-0.4,1-0.7,1.5-1
				C8.6,7.9,8.8,8.2,9.1,8z"/>
			<path class="st12" d="M33.6,17.2c0,0.4,0,0.8,0,1.2c0.1,0.2,0,0.3,0,0.5c-0.1,0.6-0.3,0.6-0.8,0.4c-0.7-0.2-1.2-0.8-1.9-1
				c-0.2-0.1-0.2-0.5-0.5-0.4c-0.4-0.2-0.8-0.6-0.9-1c-0.1-0.2,0.1-0.4,0.1-0.6c0-0.4,0.2-0.8,0.4-1.1c-0.4,0.2-0.5,0.7-0.8,1.1
				c-0.7,0.8-1,1.8-1.3,2.8c-0.1,0.3-0.2,0.3-0.5,0.3c-0.4,0-0.9-0.1-1.3-0.1c-0.1,0-0.2-0.1-0.3-0.2c-0.1-0.3-0.3-0.3-0.5-0.4
				c-0.2-0.2-0.4-0.4-0.5-0.7v-0.1c0.4-0.8,0.2-1.6,0.1-2.4c0-0.5,0.3-0.9,0.5-1.3c0.2-0.3,0.3-0.6,0.2-1c-0.1-0.4,0.2-0.6,0.5-0.4
				c0.4,0.3,0.9,0.4,1.3,0.7c0.1,0.2,0,0.3-0.2,0.4c-0.3,0.1-0.5,0.4-0.5,0.7c0,0.1,0,0.3-0.1,0.3c-0.5,0.4-0.4,1-0.3,1.6
				c0.1,0.3,0.1,0.5-0.1,0.8c-0.1,0.2-0.3,0.5,0.1,0.7s0.9,0.1,1-0.2c0.5-0.8,0.9-1.8,1.6-2.5c0.2-0.2,0.3-0.5,0.1-0.7
				c-0.2-0.2,0-0.4-0.1-0.6c0.2-0.4,0.4-0.7,0.6-1.1c0.3-0.1,0.3-0.3,0.3-0.5c0-0.8,0.6-1.3,1.1-1.8c0.1-0.1,0.2-0.1,0.3,0
				c0.2,0.3,0.5,0.2,0.8,0.4c0.4,0.3,0.8,0.4,1.2,0.2c0.3-0.1,0.6,0,0.6,0.4c0,0.2,0.2,0.4,0.2,0.6c0.1,0.5,0.3,1-0.1,1.5
				c0,0,0,0-0.1,0c-0.2,0-0.2-0.2-0.2-0.4c0-0.6-0.4-0.9-0.9-1.1c-0.3-0.1-0.4,0-0.5,0.2c-0.2,0.4-0.2,0.8-0.5,1.2
				c-0.2,0.2,0,0.5,0.3,0.6c0.5,0.2,0.5,0.5,0.5,0.9c-0.1,0.5-0.1,1.1-0.1,1.6c0,0.4,0.2,0.8,0.3,1.1c0,0.1,0.1,0.2,0.3,0.2
				s0.2-0.1,0.2-0.3C33.4,17.3,33.4,17.1,33.6,17.2z"/>
			<path class="st29" d="M52,19.4c-0.4-0.3-0.7-0.6-0.7-1.2c0-0.8-0.2-1.6-0.3-2.4c0-0.5-0.3-0.6-0.7-0.5c-0.7,0.2-1.3-0.3-1.6-0.9
				c-0.2-0.5-0.3-1.1-0.7-1.5s-0.5-1-0.5-1.6c0,0,0,0,0-0.1s0.1-0.2,0.2-0.3c0.5-0.2,1-0.4,1.4-0.8c0.6-0.6,1.3-0.7,2-0.8
				C52,9.6,52,9.5,52.2,8.7c0-0.2,0.1-0.3,0.1-0.5c0-0.5,0.2-0.6,0.7-0.7c0,0,0.1,0,0.1,0.1c0.1,0.2,0.2,0.4,0.4,0.5
				s0.3,0.2,0.3,0.4c0.1,0.4,0.3,0.7,0.3,1.1c0,0.1-0.1,0.2-0.1,0.3c0,0.2-0.1,0.3-0.1,0.4v0.1c-0.1,0.5-0.1,1-0.4,1.4
				c-0.2,0.2-0.4,0.3-0.7,0c-0.2-0.2-0.5-0.3-0.7-0.4c-0.3-0.1-0.5-0.5-0.9-0.4c-0.7,0.2-1.3,0.3-1.9,0.8c0.3,0,0.5-0.3,0.9-0.4
				c0.2,0,0.3-0.1,0.5-0.1c0.4,0.1,0.8,0.1,1.1,0.4c0.2,0.2,0.5,0.3,0.4,0.7s-0.3,0.5-0.7,0.6c-0.1,0-0.1,0-0.2,0
				c-0.1-0.2-0.5-0.4-0.9-0.5c-0.5-0.1-0.8,0.1-1.2,0.6c0.5-0.2,0.8-0.1,1.1,0.2c0.2,0.2,0.4,0,0.5-0.1C51,13,51.2,13,51.4,13
				c0.6,0.1,1.2,0.3,1.6,0.8c0.2,0.2,0.3,0.4,0.2,0.6c-0.3,0.3-0.7,0.5-1,0.8c-0.3,0.2-0.4,0.4-0.4,0.8c0,0.7,0.1,1.4,0.3,2
				C52.5,18.5,52.3,19,52,19.4z"/>
			<path class="st6" d="M37.4,11c0.5,0.6,0.7,1.2,0.7,1.9c-0.3,0.2-0.4-0.1-0.5-0.3s-0.2-0.6-0.5-0.5c-0.3,0-0.4,0.4-0.5,0.6
				c-0.2,0.4-0.3,0.8-0.4,1.2c-0.1,0.5-0.3,0.9,0,1.4c0.1,0.1,0.1,0.3,0,0.4c-0.2,0.3-0.1,0.6,0,0.8c0.2,0.5,0.5,0.9,0.7,1.4
				c0.2,0.4,0.7,0.3,0.9-0.1c0.1-0.2,0.1-0.4,0.2-0.6c0.3-0.3,0.5-0.6,0.8-0.8c0.5-0.2,0.2-0.7,0.2-1.1c0-0.2,0-0.4,0.2-0.5
				c0.2-0.2,0.2-0.3,0.2-0.6c-0.1-0.5,0.3-0.9,0.5-1.4c0.1-0.2,0.3-0.2,0.5-0.2s0.3,0.1,0.3,0.3c0,0.4,0.2,0.7,0.4,1.1
				c0,0.4,0,0.8,0.1,1.2c0.1,0.3,0.2,0.6-0.2,0.9c-0.2,0.2,0.1,0.5,0.1,0.7c0,0.1,0.1,0.2,0.2,0.4c0.1,0.4,0.4,0.6,0.6,0.8
				c0,0.1,0.1,0.2,0.1,0.3c0.1,0.2,0.2,0.4,0,0.6s-0.4,0.1-0.7,0c-0.5-0.2-0.9-0.6-1.4-0.7c-0.6-0.1-1.3,0.2-1.5,0.7
				c-0.1,0.3-0.3,0.4-0.6,0.3c-1-0.3-1.9-0.8-2.2-1.9c-0.1-0.3-0.3-0.6-0.5-0.9c-0.4-0.7-0.3-1.5-0.3-2.2c0-0.5,0.2-1,0.1-1.5
				c0-0.2,0.1-0.3,0.2-0.4c0.3-0.3,0.5-0.6,0.6-1c0.1-0.5,0.8-0.7,1.2-0.4C37.1,10.9,37.2,10.9,37.4,11z"/>
			<path class="st22" d="M37.4,11c-0.1,0-0.3,0.1-0.4,0c-0.3-0.2-0.4-0.2-0.7,0c-0.2,0.2-0.3,0.4-0.4,0.5c-0.2,0.3-0.1,0.9-0.6,0.9
				c0,0-0.1,0.1-0.1,0.2c0,0.7-0.1,1.3,0,2v0.1c-0.6,0.8,0.2,1.3,0.4,2c0.1,0.3,0.2,0.5,0.3,0.8c0.1,0.5,0.6,0.8,1,1.1
				c0.3,0.2,0.7,0.3,1.1,0.4c0.2,0.1,0.4,0,0.4-0.2c0.1-0.4,0.3-0.6,0.7-0.6c0.3,0,0.4-0.4,0.7-0.3c0.2,0,0.3,0.1,0.3,0.3l0.1,0.1
				c-0.4,0.6-0.8,1.1-1.5,1.3c-0.8,0.2-1.4-0.1-2-0.6c-1.1-1.5-2.1-3-2-5c0-0.2,0-0.4,0-0.7c-0.3-0.5-0.1-1-0.1-1.6
				c0-0.1,0-0.2,0-0.3s0-0.2-0.1-0.2s-0.1,0.1-0.2,0.1c-0.1,0.1-0.2,0.3-0.4,0.3c0-0.1-0.1-0.2-0.1-0.3c0-0.3-0.1-0.4-0.5-0.4
				c-0.7-0.1-1.4-0.3-2.1-0.7c-0.1,0.3-0.3,0.4-0.5,0.5c-0.5,0.3-0.7,0.8-0.6,1.4c0,0.4-0.1,0.4-0.4,0.2c0.1-0.4,0.3-0.8,0.3-1.3
				c0-0.4,0.2-0.7,0.2-1.1c0-0.4,0.1-0.4,0.7-0.2s1.2,0.4,1.6,0.8c0.3,0.2,0.5,0.2,0.7-0.1c0.3-0.3,0.6-0.6,0.9-0.8
				c0.2,0.1,0.4,0,0.5-0.3c0.1-0.1,0.1-0.3,0.3-0.2c0.5,0.3,1,0.5,1.5,0.8C36.7,10.3,37,10.7,37.4,11z"/>
			<path class="st30" d="M38,17.3c0.1,0.2,0,0.4-0.1,0.6c-0.3,0.7-1.1,0.7-1.4,0.1c-0.2-0.6-0.7-1-0.8-1.7c0-0.1-0.1-0.1,0-0.2
				c0.3-0.8-0.2-1.6,0.2-2.4c0.2-0.4,0.3-0.9,0.4-1.3c0.1-0.3,0.5-0.4,0.5-0.8c0-0.1,0.2,0,0.3,0c0.2,0.2,0.5,0.4,0.6,0.7
				c0.1,0.2,0.2,0.4,0.4,0.5c0,0.1,0,0.1,0.1,0.2c0.2,0.8,0,1.6,0.1,2.4C38.2,16.1,38.3,16.8,38,17.3z"/>
			<path class="st30" d="M28.9,13.6c0,0.1,0.1,0.2,0.1,0.3c0.4,0.8,0.4,0.8-0.2,1.5c-0.3,0.4-0.6,0.8-0.8,1.3
				c-0.2,0.4-0.5,0.6-0.6,1.1c0,0.2-0.3,0.2-0.4,0.2c-0.4,0.2-0.8,0-1.1-0.1c-0.3-0.1-0.3-0.4-0.1-0.6c0.2-0.3,0.3-0.7,0.2-1.1
				c-0.1-0.5-0.2-1.2,0.3-1.6c0.1,0,0.1-0.1,0.1-0.2c-0.1-0.7,0.4-0.8,0.8-1c0.1,0,0.1-0.1,0.1-0.1c0-0.1,0-0.1,0.1-0.1
				c0.2,0.2,0.4,0.3,0.6,0.5C28.5,14.1,28.5,14.1,28.9,13.6z"/>
			<path class="st14" d="M20.9,18c1.2-0.7,2.1-1.6,2.7-2.9l0.1-0.1c0.2-0.1,0.3-0.5,0.5-0.2c0.2,0.2,0.4,0.5,0.2,0.8
				c-0.1,0.3-0.2,0.5-0.2,0.8c-0.2,0.7-0.8,1.2-1.3,1.7c-0.2,0.2-0.4,0.3-0.7,0.5c-0.1,0-0.2,0.2-0.2,0.4c0,0.3,0.1,0.5,0.2,0.8
				c0.2,0.3,0.4,0.6,0.3,1c0,0.7,0,1.3-0.1,2c-0.1,0.4,0,0.8-0.1,1.1c-0.2,0.6-0.3,1.1-0.8,1.5c-0.4,0.3-0.8,0.4-1.2,0.3
				c-0.3,0-0.6,0-0.9-0.1c-0.3-0.2-0.7-0.4-0.7-0.9c0.2-0.3,0.4-0.2,0.6-0.1c0.1,0.1,0.2,0.2,0.3,0.2c0.3,0,0.6,0.1,0.9-0.4
				s0.6-1.1,0.9-1.6c0.1-0.2,0.2-0.4,0.1-0.6c-0.1-0.6,0.2-1.2-0.3-1.6c0-0.1,0-0.2,0-0.2c0.1-0.4-0.1-0.5-0.5-0.5
				c-0.3,0-0.4-0.1-0.5-0.4c-0.1-0.2,0.1-0.4,0.3-0.5c0.2-0.1,0.3-0.2,0.2-0.4C20.7,18.4,20.8,18.2,20.9,18z"/>
			<path class="st26" d="M40.8,14.2c-0.2-0.3-0.3-0.6-0.3-0.9c0-0.2-0.1-0.3-0.3-0.3S40,13.1,40,13.3c0,0.1,0,0.1-0.1,0.2
				c-0.4,0.5-0.4,1-0.1,1.5c-0.1,0.1-0.2,0.1-0.2,0c-0.3-0.1-0.5,0.1-0.4,0.3c0.1,0.3-0.1,0.5,0.1,0.8c0.1,0.3-0.2,0.4-0.4,0.5
				c0,0-0.1,0-0.1-0.1c0-0.2-0.1-0.5-0.4-0.6c-0.2-0.2-0.1-0.5-0.1-0.7c0-0.3-0.1-0.6,0-0.9c0.1-0.2,0.2-0.3,0.4-0.3
				c0-0.2-0.2-0.3-0.2-0.5c0-0.1,0.1-0.2,0.1-0.2v-0.1c0.3-0.3,0.3-0.7,0.5-1c0.1-0.2,0.2-0.4,0.4-0.5c0.3-0.2,0.4-0.6,0.5-0.9
				c0.3-0.7,1.1-1,1.8-0.6c0.4,0.2,0.4,0.5,0,0.7c-0.3,0.2-0.5,0.5-0.5,0.8c-0.1,0.7-0.3,1.4-0.1,2.1C41.1,14,41,14.1,40.8,14.2z"/>
			<path class="st31" d="M41,11.7c-0.1-0.4,0.1-0.8,0.5-0.9c0.3-0.1,0.3-0.3,0-0.4c-0.5-0.4-1.2-0.1-1.4,0.5
				c-0.1,0.4-0.3,0.8-0.7,1.2c-0.2,0.1-0.5,0.5-0.4,1c0.1,0.2-0.2,0.4-0.3,0.6c-0.3,0,0-0.4-0.3-0.4c0.1-1,0.4-2,0.9-2.8
				c0.1-0.1,0.1-0.2,0.2-0.2c1-0.6,2.4-0.1,2.8,1c0.4,1,0.3,2-0.1,3c-0.2,0.6-0.5,1.1-0.7,1.7c-0.1,0.1-0.1,0.2-0.2,0.3
				c-0.2,0-0.3-0.1-0.3-0.3c0-0.5,0.2-0.9,0.5-1.3c0.3-0.3,0.4-0.7,0.4-1.2c0-0.4-0.1-0.5-0.5-0.4c-0.1,0-0.2,0.1-0.4,0
				c-0.2-0.2-0.1-0.6-0.1-0.8C41.1,12,41.3,11.8,41,11.7z"/>
			<path class="st1" d="M20.9,18c0.1,0.3,0.2,0.6,0.2,0.8c0,0.2-0.1,0.4-0.3,0.4c-0.1,0-0.3,0-0.3,0.2s0.1,0.2,0.3,0.2
				c0.7,0,0.8,0.1,0.7,0.8c0,0.1,0,0.2,0,0.2c0.6,1,0.3,2-0.2,3c-0.2,0.4-0.3,0.8-0.7,1v0.1c0.1,0.1,0.3,0.3,0,0.4
				c-0.2,0.1-0.5,0.1-0.7,0.1c-0.4-0.1-0.7-0.4-1.2-0.4c-0.5-0.1-0.9-0.8-0.6-1.3c0.3,0.3,0.6,0.5,0.9,0.8c0.6,0.5,1.1,0.4,1.4-0.2
				c0.2-0.4,0.3-0.8,0.7-1.1c0,0,0,0,0.1-0.1c0.1-0.2-0.3-1.4-0.5-1.6c-0.1,0-0.2-0.1-0.3,0c-0.2-0.1-0.1-0.3-0.1-0.5
				c0-0.4,0.1-0.7-0.2-1.1c0-0.4,0-0.8,0.2-1.2c0.1-0.1,0-0.3,0-0.4C20.5,18.1,20.7,18.1,20.9,18z"/>
			<path class="st23" d="M41.7,18.3c1.2,0.2,2-0.3,2.5-1.4c0-0.1,0.1-0.2,0.2-0.2c0.2,0.1,0,0.3,0.1,0.4c0,0.2,0.1,0.3,0.1,0.5
				c0.2,0.8-0.2,1.3-0.5,1.9c-0.2,0.4-0.6,0.4-0.9,0.3c-0.6,0-1.2-0.2-1.7-0.4c-0.4-0.2-0.7-0.5-1-0.8c-0.2,0-0.4-0.1-0.4-0.4v-0.1
				c0.5,0.1,0.9,0.4,1.3,0.6c0.2,0.1,0.4,0.3,0.5,0.1C42,18.7,41.9,18.5,41.7,18.3z"/>
			<path class="st7" d="M27.5,13.1C27.5,13.2,27.5,13.2,27.5,13.1C27,13,26.7,13,26.3,13.5c0.1-0.4,0.2-0.7-0.2-0.8
				c-0.2-0.1-0.3,0-0.2,0.1c0.4,0.6,0,1.1-0.3,1.6c-0.4,0.5-0.2,1.1-0.2,1.7c0,0.3,0,0.6,0.1,0.9s-0.3,0.5-0.3,0.8
				c-0.2,0.1-0.3,0-0.4-0.2c0.1-0.4,0.2-0.9-0.1-1.3c-0.1-0.2,0-0.6,0-0.9c0-0.1,0-0.1,0-0.2c-0.2-1,0-2,0.3-3
				c0.1-0.3,0.4-0.2,0.6-0.2c0.6,0.2,1.1,0.6,1.7,0.8C27.3,12.8,27.4,13,27.5,13.1z"/>
			<path class="st29" d="M21.2,15.7c0-0.5,0.1-0.9,0.5-1.3c0.2-0.2,0.2-1.2,0-1.5c0-0.3,0.2-0.5,0.3-0.8c0.5-0.8,1-1.6,1.2-2.5
				c0.1-0.2,0.1-0.5,0.5-0.3c0.1,0.3,0.1,0.7,0,1c-0.1,0.1-0.1,0.3-0.2,0.4c0,0.2,0.2,0.3,0.2,0.6c-0.5,1.4-1.3,2.6-2,3.8
				C21.5,15.4,21.3,15.5,21.2,15.7z"/>
			<path class="st13" d="M25.5,12c-0.3,0-0.4,0.2-0.5,0.5c-0.3,0.9-0.3,1.8-0.3,2.7c-0.2,0.2-0.1,0.6-0.2,0.8
				c-0.1,0.2-0.2,0.5-0.5,0.5c-0.2-0.2,0-0.4,0.1-0.5c0-0.1,0.1-0.3,0.2-0.4c0.1-0.2,0-0.4-0.1-0.6c-0.1-0.2-0.2,0.1-0.3,0.1
				c-0.1,0-0.2,0-0.2,0c0.4-0.9,0.6-1.8,0.8-2.8C24.6,11.6,24.9,11.5,25.5,12z"/>
			<path class="st26" d="M28.1,5.7L28,5.6c-0.1-0.2-0.4-0.4-0.3-0.5c0.1-0.2,0.5,0,0.7,0s0.3,0.1,0.5,0.2l0,0c0.6,0,0.4,0.5,0.6,0.8
				c0.1,0.1,0.2,0.3,0.3,0.4c0,0.4-0.1,0.5-0.5,0.4c-0.3-0.1-0.5-0.4-0.7-0.6C28.4,6.1,28.3,5.9,28.1,5.7z"/>
			<path class="st32" d="M41.4,19.5c0.6,0,1.1,0.2,1.7,0.3c0.6,0.1,0.7-0.3,0.9-0.7c0-0.1,0-0.3,0.1-0.3c0.6-0.2,0.4-0.7,0.5-1.2
				c0.2,0.6,0.1,1.2,0,1.8c-0.1,0.3-0.4,0.4-0.7,0.5C43.8,20,43.6,20,43.5,20C42.8,20,42.1,19.9,41.4,19.5z"/>
			<path class="st21" d="M23.7,10.4c0-0.3,0.1-0.7-0.1-1c-0.2-0.1-0.1-0.4-0.1-0.6c0-0.2,0.1-0.4,0.1-0.6c0.2-0.4,0.1-0.8,0.2-1.2
				c0-0.3,0-0.6,0.1-0.9s0.1-0.6-0.3-0.7c-0.2-0.5-0.2-0.6,0.3-0.8c0.3,0.5,0.3,1.1,0.3,1.6c0.1,1.4-0.4,2.7-0.4,4
				C23.8,10.4,23.7,10.4,23.7,10.4z"/>
			<path class="st32" d="M28.1,5.7c0.3,0.1,0.4,0.4,0.6,0.6c0.4,0.5,0.8,0.5,1.1,0.2C30.1,6.7,30.2,7,30,7.3s-0.5,0.2-0.8,0
				C28.8,6.8,28.5,6.3,28.1,5.7z"/>
			<path class="st10" d="M30.7,9.9c-0.3,0-0.5,0-0.5,0.4s-0.3,0.6-0.4,1c0-0.3,0-0.5,0-0.8s0-0.6,0.2-0.8
				C30.3,9.5,30.5,9.7,30.7,9.9z"/>
			<path class="st33" d="M34.7,9.3c0,0.1-0.1,0.3-0.1,0.4c0.1,0.3-0.1,0.3-0.3,0.4c-0.2,0.1-0.4,0.1-0.4-0.2
				C34.1,9.5,34.2,9,34.7,9.3z"/>
			<path class="st31" d="M38.4,15.2c-0.2-0.6,0-1.2,0-1.8c0,0,0,0,0.1,0c0,0.4,0.2,0.7,0.3,1c0.1,0.1,0.1,0.3,0,0.4l-0.1,0.1
				c-0.2-0.1-0.1-0.2-0.2-0.4c0,0,0-0.1-0.2-0.1C38.4,14.6,38.4,14.9,38.4,15.2z"/>
			<path class="st34" d="M23.7,11.4c-0.2-0.1-0.3-0.3-0.2-0.6C23.9,10.9,23.8,11.1,23.7,11.4z"/>
			<path class="st11" d="M47.1,39.7c0-0.3-0.1-0.7,0.3-0.9c0.1-0.1,0.1-0.3,0.1-0.4c-0.1-0.4-0.2-0.7-0.2-1.1c0-0.9-0.3-1.7-0.1-2.6
				c0-0.2,0-0.3,0-0.4c0-0.3,0-0.7,0.5-0.6c0.1,0,0.2,0,0.2-0.1c0.1-0.1,0.2-0.4,0.4-0.3c0.3,0.1,0.6,0.3,0.8,0.5
				c0.1,0.2,0.3,0.3,0.5,0.3c0.1,0.2,0.2,0.4,0.2,0.6c-0.1,1.7,0.3,3.3,0.4,5c0,0.2,0,0.3,0,0.5c-0.1,0.1-0.1,0.2-0.2,0.4
				c-0.2,0.3-0.5,0.4-0.9,0.2c-0.3-0.2-0.5-0.3-0.9-0.3C47.5,40.5,47.2,40.3,47.1,39.7z"/>
			<path class="st30" d="M48.7,32c-0.7-0.3-1.2-0.8-1.7-1.4c-0.3-0.3-0.6-0.6-0.7-1c0-0.2,0-0.4,0.2-0.6c0.1,0,0.1-0.2,0.1-0.2
				c0.2-0.9,0.4-1.8,0.5-2.7c0-0.2,0-0.4-0.1-0.6c-0.1-0.1-0.2-0.2,0-0.3c0.1-0.1,0.2,0,0.3,0c0.9,0.3,1.5,1,2.1,1.6
				c0.4,0.1,0.4,0.4,0.4,0.7c0.1,0.2,0.1,0.3,0,0.5c-0.1,0.5-0.1,1-0.2,1.4c-0.1,0.1-0.1,0.4-0.3,0.4C49.1,30.6,48.9,31.3,48.7,32z"
				/>
			<path class="st23" d="M45.2,29.2c-0.3,0.2-0.7,0.4-0.8,0.8c0,0.1,0,0.1-0.1,0.1c-0.5-0.1-0.7,0.4-1,0.6c-0.3,0.3-0.6,0.7-0.9,1.1
				c-0.1,0.1-0.2,0.3-0.2,0.5c0.1,0.4-0.1,0.6-0.4,0.8c-0.5-0.5-0.5-1.1,0-1.6c0.6-0.8,1.4-1.4,2.3-1.9c0.2-0.1,0.3-0.3,0.4-0.4
				C44.7,29.2,44.9,29.1,45.2,29.2z"/>
			<path class="st22" d="M48.1,40.6c0.3-0.1,0.6-0.2,0.8,0c0.4,0.3,0.7,0.2,1-0.1c0.1-0.1,0.2-0.1,0.3-0.1c0,0.3,0.1,0.7-0.3,0.8
				c-0.4,0.2-0.8,0.1-1.1-0.1C48.6,40.8,48.4,40.6,48.1,40.6z"/>
			<path class="st31" d="M44.6,35.1c0.1,0,0.2,0,0.2,0.1c0.3,0.6,0.9,0.6,1.5,0.6c-0.5,0.3-1,0.2-1.4-0.2
				C44.8,35.5,44.7,35.3,44.6,35.1z"/>
			<path class="st27" d="M42.7,34.2c0.4-0.3,0.9,0,1.4-0.1c0,0,0,0.1,0.1,0.2c-0.3,0-0.6,0-0.9,0.1C43.1,34.4,42.9,34.3,42.7,34.2z"
				/>
			<path class="st31" d="M44.2,34.3c0.2,0.1,0.2,0.3,0.4,0.4c0.2,0.1,0,0.3-0.1,0.4C44.2,34.9,44.2,34.6,44.2,34.3z"/>
			<path class="st5" d="M21.6,12.5c-0.1-0.8,0-1.5,0.2-2.3c0.1-0.4,0.1-0.8-0.1-1.3c-0.3,0.5-0.8,1-1.1,1.5
				c-0.4,0.6-0.7,1.1-0.8,1.8c0,0.1,0,0.2-0.1,0.2c-0.4,0-0.5,0.6-1,0.6c-0.2,0-0.2,0.2-0.1,0.3c0,0.1,0.1,0.3,0,0.4
				c-0.4,0.9-0.5,1.8-0.8,2.7c-0.1,0.3-0.3,0.5-0.6,0.6c0.3-2.2,0.9-4.3,1.7-6.3c0.1-0.2,0.3-0.3,0.3-0.5c0.2-0.4,0.3-0.8,0.7-1.1
				C20,9,20.1,8.8,20.1,8.7c0.1-0.7,0.7-1.1,1.2-1.5c0.2-0.1,0.3-0.3,0.4-0.5c0.1-0.3,0.3-0.5,0.5-0.6c0.6-0.4,0.8-0.3,1.1,0.3
				c0.1,0.1,0.2,0.2,0.2,0.4c0,0.3-0.3,0.5-0.3,0.7c-0.5,1.5-0.9,2.9-1.3,4.4C21.9,12.1,22,12.5,21.6,12.5z"/>
			<path class="st12" d="M16.2,13.1c-0.5-0.2-0.7-0.2-1,0.4c-0.1,0.2-0.2,0.4-0.4,0.4c-0.6,0-0.9,0.5-1.1,1c-0.3,0.5-0.5,1-0.4,1.6
				c-0.3-1.2-0.1-2.3,0.4-3.4c0.1-0.3,0.3-0.6,0.4-0.9c0.3-0.2,0.6-0.5,0.7-0.8c0.2-0.7,1.3-1.2,2-0.9c0.2,0.1,0.3,0.3,0.3,0.5
				c0,0.7-0.3,1.3-0.5,2C16.5,13.1,16.4,13.1,16.2,13.1z"/>
			<path class="st29" d="M23.4,6.7c-0.1-0.3-0.3-0.6-0.6-0.6c-0.3,0-0.7,0.3-0.7,0.5C22,7.4,21.2,7.5,20.8,8
				c-0.1,0.2-0.2,0.2-0.2,0.5s-0.2,0.8-0.5,0.9c-0.5,0.2-0.6,0.6-0.6,0.9c0,0.3-0.2,0.4-0.5,0.4c0.8-1.8,1.4-3.7,2.6-5.2
				c0-0.1,0.1-0.1,0.2-0.2c0.5-0.1,0.8-0.5,1-0.9c0.4,0.1,0.8-0.1,1.1,0.3c-0.2,0.2-0.3,0.5-0.2,0.8C24,6,23.9,6.6,23.4,6.7z"/>
			<path class="st26" d="M16.9,10.9c-0.3-0.4-0.6-0.4-1-0.2c-0.5,0.2-0.8,0.5-0.9,1c-0.1,0.3-0.4,0.6-0.9,0.5
				c0.3-0.7,0.6-1.3,1.1-1.9c0.5-0.6,1.9-0.6,2.4-0.1c0.1,0.1,0.1,0.1,0.1,0.2c0,0.8,0,1.5-0.3,2.3c0,0.1-0.1,0.3-0.1,0.4
				c0.2,1-0.5,1.7-0.9,2.4c0,0.1-0.1,0.1-0.2,0.2c0.2-0.5,0.2-1,0.5-1.5c0.1-0.3,0.2-0.6-0.1-0.9c-0.2-0.1-0.1-0.3,0-0.4
				c0.1-0.5,0.4-0.9,0.4-1.4C17,11.3,17,11.1,16.9,10.9z"/>
			<path class="st12" d="M13.4,8.4c-0.1-0.3-0.2-0.7-0.3-1c-0.1-0.4-1-0.5-1.2,0c-0.3,0.5-0.8,0.6-1.2,0.8c-0.2,0.1-0.4,0.1-0.5,0.2
				c0.2-0.7,0.4-1.3,0.6-2c-0.1-0.4,0-0.7-0.1-1.1c0.2-0.3,0.3-0.2,0.5,0s0.4,0.3,0.7,0.3C12.2,6,12.7,6.2,13,6.5
				c0.2,0.2,0.3,0.5,0.5,0.7C13.5,7.6,13.7,8,13.4,8.4z"/>
			<path class="st9" d="M22.7,4.4c0.2,0.7,0.2,0.7-0.6,1c-0.1,0-0.3,0-0.4,0C22.1,5,22.3,4.6,22.7,4.4z"/>
			<path class="st11" d="M74.5,10.1c0.3,0.4,0.3,0.8,0.4,1.2c0,0.6,0.2,1.2,0.3,1.8c0.3-0.1,0.3-0.4,0.5-0.5c0.3,0,0.3,0.2,0.3,0.4
				c0.1,0.4,0,0.7-0.2,1s-0.4,0.7-0.1,1.1c0.1,0.9,0.2,1.8,0,2.7c0,0.1-0.1,0.2-0.1,0.3c0,0.3-0.2,0.4-0.3,0.6
				c-0.2,0.2-0.2,0.6-0.4,0.8c-0.3,0.2-0.4,0.6-0.8,0.7H74c-0.4,0-0.5-0.3-0.6-0.6c-0.3-0.5-0.5-1-0.5-1.5c-0.1-0.4-0.3-0.7-0.7-0.9
				c-0.3-0.5-0.3-0.6,0-1c0.6-0.6,0.8-1.4,0.8-2.2c0-0.7,0-1.4-0.1-2.1c0.2-0.5,0.2-1.1,0.3-1.6c0-0.1,0.1-0.3,0.2-0.4
				c0.3-0.4,0.5-0.4,0.9-0.1C74.3,9.9,74.4,9.9,74.5,10.1z"/>
			<path class="st8" d="M75.4,15.1c-0.2-0.5-0.1-0.9,0.2-1.3c0.2-0.4,0.3-0.8,0.1-1.2c0.2-0.4,0.4-0.9,0.7-1.3
				c0.1-0.3,0.3-0.5,0.4-0.8s0.3-0.3,0.5-0.2c0.4,0.2,0.7,0.3,1.1,0.5c0.2,0.3,0.6,0.4,0.8,0.8c0.1,0.2,0.1,0.3,0,0.5
				c-0.6,0.2-0.9,0.6-1.1,1.1c-0.2,0.6-0.3,1.3-0.5,1.9c-0.1,0.2-0.1,0.4-0.3,0.6c-0.1,0.1-0.3,0.1-0.4,0c-0.3-0.2-0.3-0.6-0.3-0.9
				c0-0.3,0-0.6,0-0.9c-0.2,0.3-0.4,0.7-0.6,1C75.8,15,75.7,15.1,75.4,15.1z"/>
			<path class="st30" d="M77.2,14.9c0.4-0.6,0.3-1.3,0.6-1.8c0.2-0.3,0.3-0.6,0.5-0.9c0.3-0.4,0.5-0.4,0.9-0.2
				c0,0.9-0.1,1.7-0.2,2.5c0,0.2-0.1,0.3-0.1,0.5c0,0.3,0.1,0.2,0.3,0.1c0.4,0.2,0.4,0.5,0.2,1c-0.3,0.7-1.3,0.9-1.8,0.3
				c-0.2-0.3-0.1-0.5-0.1-0.8C77.3,15.4,77.3,15.2,77.2,14.9z"/>
			<path class="st12" d="M86.5,11.4c-0.2-0.1-0.3-0.3-0.6-0.2c-0.2,0-0.3-0.1-0.4-0.3c0-0.2-0.2-0.4-0.4-0.3
				C84.9,10.7,85,10.9,85,11c0,0.1,0,0.2,0,0.3c-0.1,0.2-0.2,0.4-0.4,0.4c-0.3,0-0.1-0.3-0.2-0.4l-0.1-0.1c-0.2,0-0.2,0.1-0.3,0.2
				c-0.1,0.1-0.2,0.2-0.3,0.1c0-0.4,0.2-0.7,0.5-0.9c0.2-0.2,0.2-0.3,0-0.3c-0.3-0.1-0.7-0.1-1,0.1c-0.4,0.3-0.7,0.7-1.1,1
				c-0.3-0.6,0.2-0.9,0.5-1.3c0.3-0.4,0.7-0.6,1.2-0.5c0.1,0,0.1,0,0.2,0c0.3,0.1,0.3-0.4,0.6-0.3c0.7,0.2,1.2,0.7,1.6,1.2
				C86.4,10.9,86.5,11.1,86.5,11.4z"/>
			<path class="st12" d="M77.2,14.9c0.3,0.3,0.3,0.7,0.4,1.1c0.1,0.3,0.1,0.6,0.4,0.6c0.4,0,0.8,0,1-0.4c0.2-0.3,0.3-0.7,0.1-1.1
				c0.4-0.4,0.8-0.8,1.2-1.3c0.4,0,0.2,0.4,0.4,0.5c0,0.3-0.1,0.6-0.2,0.9c-0.2,0.2-0.4,0.4-0.5,0.6c-0.1,0.4-0.3,0.7-0.8,0.8
				c-0.4,0.1-0.6,0.5-0.9,0.6h-0.1c-0.3-0.1-0.6-0.3-0.9-0.5c-0.1-0.2-0.4-0.3-0.4-0.6c0-0.3-0.1-0.5,0.1-0.8
				C77.2,15.3,77.2,15.1,77.2,14.9z"/>
			<path class="st22" d="M74.5,10.1c-0.8-0.4-1.1-0.2-1.2,0.7c0,0.4-0.1,0.8-0.2,1.2c-0.3,0-0.3-0.2-0.3-0.3
				c-0.1-0.4-0.2-0.8-0.2-1.3c0-0.3-0.1-0.5-0.3-0.7c-0.1-0.4,0-0.8,0-1.2c0-0.2,0.1-0.3,0.3-0.3c0.5,0.1,0.8,0.6,1.2,0.9
				C74,9.4,74.3,9.7,74.5,10.1z"/>
			<path class="st29" d="M83.8,9.8c-0.9,0.2-1.4,0.9-1.7,1.7l0,0c-0.3,0.1-0.6,0.3-0.7,0.7s-0.4,0.7-0.6,1.1c0,0.1,0,0.3,0,0.4
				c-0.2,0.1-0.3,0.1-0.4-0.1c0.1-0.9,0.4-1.8,0.8-2.6c0.1,0,0.1-0.1,0.2-0.1c0.3-0.5,0.7-0.8,1-1.3c0-0.1,0-0.2,0.1-0.2
				C82.9,9.3,83.4,9.5,83.8,9.8z"/>
			<path class="st35" d="M78.1,4c0.6,0.2,1.1,0.5,1.5,0.9c0.2,0.2,0.3,0.4,0.1,0.6c-0.2,0.3-0.4,0.2-0.6,0.1
				c-0.5-0.2-0.7-0.7-1.1-1.1c-0.1-0.2-0.3-0.3-0.4-0.5C77.8,3.9,78,4,78.1,4z"/>
			<path class="st21" d="M78.4,10.7c-0.3,0-0.6,0-0.9-0.2c-0.2-0.2-0.5-0.3-0.7,0.1c-0.1,0.2-0.3,0.4-0.5,0.6
				c0.2-1.3,0.2-1.3,1.4-0.8C78,10.5,78.2,10.5,78.4,10.7z"/>
			<path class="st21" d="M81.5,10.9c-0.1,0.1,0,0.3-0.2,0.4c-0.1-0.1,0-0.3-0.1-0.4c0.3-0.6,0.7-1.2,1.2-1.6c0,0.1,0.1,0.1,0.1,0.2
				c0,0.2-0.1,0.3-0.2,0.4C82,10.1,81.7,10.5,81.5,10.9z"/>
			<path class="st6" d="M80.4,13.5c0.1,0,0.3,0.1,0.4,0.1c0,0.3-0.1,0.5-0.1,0.8c-0.3,0-0.3-0.3-0.4-0.5
				C80.4,13.8,80.4,13.6,80.4,13.5z"/>
			<path class="st36" d="M84.5,9.5c-0.1,0.2-0.1,0.8-0.6,0.3C84.1,9.6,84.1,9.1,84.5,9.5z"/>
			<path class="st37" d="M91.4,10.8c-0.2-0.1-0.3-0.3-0.1-0.5c0.1-0.1,0.2-0.3,0.2-0.4c0.2,0,0.3,0.1,0.1,0.3
				C91.5,10.4,91.4,10.6,91.4,10.8z"/>
			<path class="st38" d="M78.1,4c-0.1,0-0.3,0-0.4,0.1C77.6,4,77.3,4,77.4,3.8s0.2,0,0.4,0C77.9,3.9,78,4,78.1,4z"/>
			<path class="st11" d="M65.3,7.8c0,0.9-0.2,1.8-0.3,2.7c-0.1,1.4-0.2,2.8-0.1,4.2c0,0.4,0.2,0.3,0.4,0.2c0.2-0.2,0.4-0.3,0.7-0.5
				c0.7,0.2,1,0.7,0.6,1.2c-0.1,0.1-0.2,0.2-0.3,0.2c-0.5,0.1-1,0.3-1.5,0.6c-0.6,0.4-1.1,0.2-1.2-0.5c-0.1-0.4-0.4-0.7-0.7-1
				c-0.6-0.6-0.8-1.4-0.9-2.2c0-0.3,0.1-0.5,0.2-0.7c0.2-0.4,0.1-0.8-0.2-1.2c-0.1-0.2-0.2-0.3-0.2-0.5c0-0.1,0-0.1,0-0.2
				c0-0.4-0.1-0.9,0.4-1.1c0.1-0.1,0.2-0.3,0.2-0.5c0.1-0.4,0.3-0.8,0.3-1.2c0.1-0.8,0.7-1.3,1.2-1.8c0.2-0.3,0.6-0.2,0.9,0.1
				C65.2,6.4,65.4,7,65.3,7.8z"/>
			<path class="st6" d="M65.3,7.8c0-0.7-0.3-1.2-0.6-1.8c-0.1-0.2-0.2-0.3-0.4-0.3c-0.2,0-0.3,0.2-0.4,0.4c-0.1,0.3-0.2,0.5-0.5,0.6
				c-0.2,0-0.2,0.2-0.3,0.4c-0.1,0.6-0.3,1.2-0.5,1.8c-0.1,0.3-0.2,0.5-0.5,0.6s-0.1,0.6-0.3,0.8h-0.1c-0.3-0.1-0.3-0.5-0.7-0.5
				c-0.1,0-0.1,0-0.2,0.1c-0.4,0.3-0.5,0.7-0.7,1.1c-0.4,1.3-0.6,2.6-0.4,4c0.1,0.4,0.2,0.6,0.6,0.6c0.1,0.2,0,1.5-0.2,1.7
				c-0.3,0.2-0.6,0.2-1,0.2c-0.1,0-0.3,0-0.4-0.1c-0.4-0.4-0.8-0.9-1.1-1.3c0-0.5-0.2-0.9-0.3-1.4c-0.1-0.4-0.1-0.8-0.1-1.2
				c0.1-1.2,0.4-2.3,1.1-3.2c0.4-0.5,0.8-1.1,1.4-1.4c0.3-0.2,0.7-0.2,1-0.5c0.1,0,0.2,0.1,0.3,0.1c0.2,0.1,0.4,0.2,0.6,0
				c0.2-0.1,0-0.3,0-0.5c0.1-0.5,0.1-1,0.4-1.5c0.2-0.1,0.4-0.2,0.5-0.4c0.1-0.3,0.3-0.6,0.5-0.8c0.3-0.4,0.5-0.5,1-0.3
				c0.2,0.1,0.5,0.2,0.7,0.4C65.3,6.2,65.5,7,65.3,7.8z"/>
			<path class="st5" d="M61.9,10.3c0.1,0.2,0.2,0.5,0.4,0.7c0.5,0.4,0.1,0.9,0,1.4c-0.1,0.4-0.3,0.7,0.1,1v0.1
				c-0.3,0.9,0.6,1.2,0.9,1.7c0.1,0.2,0.3,0.4,0.4,0.7c0.1,0.5,0.4,0.7,0.8,0.4c0.5-0.3,1.1-0.6,1.7-0.7c0.3-0.1,0.4-0.4,0.2-0.6
				c-0.1-0.2-0.3-0.3-0.4-0.5c0.1-0.1,0.2-0.2,0.3-0.3c0.3-0.7,0.2-1.6,0.6-2.3c0.1-0.1,0.1-0.2,0-0.3c-0.2-0.5,0-0.9,0.3-1.3
				c0.2-0.2,0.4-0.5,0.5-0.8c0.1-0.2,0.2-0.3,0.5-0.3c0.2,0,0.4,0.2,0.4,0.4s0.1,0.3,0.2,0.4c0,0.3-0.1,0.6-0.1,0.8
				c0,0.1,0,0.1,0.2,0c0.3,0,0.5,0.2,0.8,0.4c0.2,0.1,0.3,0.7,0.1,0.9c-0.3,0.3-0.4,0.8-0.6,1.2c0,0.3-0.2,0.5-0.2,0.7
				c0.2,0,0.4-0.2,0.6-0.1c0.2,0.3,0,0.8-0.3,0.9c-0.3,0.1-0.5,0.3-0.6,0.6c-0.1,0.4-0.6,0.6-1,0.5c-0.4-0.2-0.6,0-0.9,0.3
				c-0.4,0.3-0.8,0.7-1.3,1c-0.4,0.2-0.9,0.1-1.3,0c-0.3,0-0.4-0.4-0.6-0.6c-0.1-0.1-0.1-0.4-0.3-0.5c-0.3-0.5-0.6-1.1-0.8-1.6
				c-0.1,0-0.1,0-0.2,0c-0.1,0.1-0.2,0.2-0.4,0.1c-0.1-0.1-0.1-0.2-0.1-0.4c0-0.3,0-0.7,0-1c0-0.2-0.1-0.3-0.2-0.5
				c-0.1-0.1-0.1-0.3,0-0.4c0.2-0.6,0.2-1.2,0.2-1.7C61.7,10.5,61.8,10.4,61.9,10.3z"/>
			<path class="st39" d="M68.2,9.5c-0.4,0.1-0.5,0.5-0.7,0.8c0,0.1,0,0.2-0.1,0.2c-0.1-0.1-0.2,0-0.3,0c-0.1-0.1-0.1-0.2,0-0.4
				c0.4-0.6,0.6-1.2,0.7-1.9C67.8,8,67.9,8,68.1,8c0.1,0,0.3,0,0.4,0c0.3-0.1,0.6,0,0.9,0c0.1,0.1,0.3,0.1,0.4,0.1
				c0.3,0.1,0.4,0.3,0.3,0.5v0.1c0.6,0.4,0.5,1.1,0.5,1.7c0,1.2-0.6,2.3-1.1,3.4c-0.1,0.2-0.4,0.3-0.5,0.6c-0.2,0.2-0.4,0.2-0.5,0.1
				c-0.1-0.2,0-0.4,0.1-0.5c0.5-0.4,0.6-1,0.7-1.6c0-0.1,0-0.2,0.1-0.2c0.4,0,0.3-0.4,0.2-0.5c-0.2-0.3-0.3,0-0.5,0.1H69
				c0-0.2,0.1-0.4-0.1-0.6c-0.2-0.1-0.1-0.3-0.1-0.5s0.1-0.4,0.1-0.6c0.1-0.1-0.1-0.1,0,0l0,0c0,0,0,0.1-0.2,0.1"/>
			<path class="st14" d="M67.2,10.4c0.1,0,0.2,0.1,0.3,0.1c-0.4,0.1-0.3,0.4-0.4,0.7c0,0.2,0.2,0.2,0.4,0.3
				c-0.2,0.2-0.4,0.4-0.3,0.7l0,0c-0.5,0.5-0.4,1.1-0.4,1.7c0,0.1-0.1,0.1-0.1,0.1c-0.2-0.1-0.2,0.1-0.3,0.2
				c-0.3-1.5,0.1-2.9,0.6-4.3c0.2-0.6,0.5-1.1,0.8-1.6c0.3,0,0.4,0.2,0.2,0.4c-0.4,0.5-0.5,1.3-0.9,1.8c0,0,0,0,0,0.1
				C67.1,10.6,67.1,10.5,67.2,10.4C67.1,10.4,67.1,10.4,67.2,10.4z"/>
			<path class="st29" d="M62.4,6.7c0.1-0.4,0.1-0.8,0.2-1.3c0.1-0.2,0-0.3,0-0.5c-0.1-0.7,0-0.8,0.7-0.5c0.6,0.2,1.2,0.5,1.6,1.2
				c-0.4-0.1-0.7-0.2-1.1-0.3c-0.1,0-0.2,0-0.2,0.1c-0.2,0.4-0.6,0.8-0.7,1.3C62.8,7,62.6,6.8,62.4,6.7z"/>
			<path class="st33" d="M67.2,10.4c-0.3,0.2-0.3,0.5-0.4,0.7c0.2-0.8,0.4-1.6,0.9-2.3c0.1-0.2,0.3-0.3,0-0.5
				C67.8,7.9,68.2,8,68.4,8c-0.4,0-0.3,0.3-0.5,0.6C67.6,9.2,67.7,9.9,67.2,10.4C67.2,10.3,67.2,10.4,67.2,10.4z"/>
			<path class="st40" d="M72.1,9.7c0.1-0.6-0.2-1-0.3-1.5c0.3-0.4,0.5-0.3,0.8,0c-0.2,0.5-0.2,1-0.1,1.5v0.1c0,0.1-0.1,0.3-0.3,0.3
				C72.1,10,72.2,9.8,72.1,9.7z"/>
			<path class="st41" d="M74.7,8.2c-0.2-0.1-0.1-0.3,0.1-0.4"/>
			<path class="st42" d="M63.3,4.4c-0.4-0.1-0.5,0.1-0.5,0.4c0,0.2,0,0.4-0.1,0.6c0-0.4-0.3-0.7-0.2-1.1C62.8,3.8,63,4.3,63.3,4.4z"
				/>
			<path class="st37" d="M70.2,8.6C70,8.3,69.7,8.2,69.4,8c0.2,0,0.4,0,0.5,0C70.5,8.1,70.5,8.1,70.2,8.6z"/>
			<path class="st43" d="M4.6,19.8c0,0.1,0.1,0.1,0.1,0.2c-0.2,0.1-0.4,0.2-0.5,0.5c0,0.2-0.1,0.4-0.4,0.3c-0.2-0.1-0.2-0.3,0-0.5
				c0.1-0.1,0.2-0.1,0.3-0.2C4,20,4,20,3.9,20c-0.2,0-0.4,0.1-0.6-0.1c-0.1-0.1-0.1-0.2,0.1-0.3c0.2-0.1,0.5-0.2,0.7-0.1
				C4.3,19.6,4.4,19.8,4.6,19.8z"/>
			<path class="st43" d="M3.3,21.5c0.4-0.1,0.9,0,1,0.3c0,0.1,0.1,0.3-0.1,0.4C4,22.3,4,22.2,4,22C4,21.6,3.5,21.8,3.3,21.5z"/>
			<path class="st43" d="M4.7,21.1c0,0.1,0,0.3-0.2,0.3c-0.1,0-0.1-0.1-0.1-0.2s0.1-0.3,0.2-0.3S4.7,21,4.7,21.1z"/>
			<path class="st41" d="M87.3,7.3c0.1-0.1,0.3-0.3,0.5-0.2C87.7,7.4,87.5,7.4,87.3,7.3L87.3,7.3z"/>
			<path class="st18" d="M10.7,5.4C11,5.5,11.1,5.7,10.9,6c-0.1,0.1-0.1,0.3-0.1,0.4C10.5,6.1,10.4,5.7,10.7,5.4z"/>
			<path class="st18" d="M13,6.5c-0.4-0.2-1-0.2-1.1-0.9C12.3,5.9,12.7,6.1,13,6.5z"/>
			<path class="st7" d="M90.9,10.9c-0.5,0.2-0.6-0.3-0.8-0.6C90.4,10.4,90.7,10.6,90.9,10.9z"/>
			<path class="st42" d="M79.4,24.8c0.2-0.6,0.5-1.2,0.9-1.7c0.1-0.6,0.3-1.2,0.9-1.5c0.1,0,0.2,0.1,0.2,0.2
				c-0.6,1.1-1.4,2.1-1.8,3.3c-0.1,0.1-0.1,0.2-0.3,0.1C79.3,25.1,79.4,25,79.4,24.8z"/>
			<path class="st32" d="M80.1,26.4c0.4,0,0.4,0.3,0.6,0.6C80.4,26.8,80.3,26.6,80.1,26.4z"/>
			<path class="st11" d="M82.7,14.2c0.3,0.1,0.3,0.2,0.3,0.5c-0.1,0.5-0.3,0.7-0.8,0.8c-0.1,0-0.2,0.1-0.3,0.1
				c-0.2,0.1-0.3,0.4-0.5,0.2c-0.2-0.1-0.1-0.4-0.1-0.6c0-0.1,0.2-0.3,0-0.4c-0.2-0.1-0.2,0.2-0.4,0.2c0-0.3,0-0.6,0.1-0.9
				c0.4-0.9,1.1-1.7,1.6-2.5c0.1-0.1,0.1-0.1,0.2-0.1c0.1,0.1,0,0.2,0,0.3c-0.2,0.6-0.5,1.1-0.4,1.8c0.2,0.1,0,0.3,0.2,0.5
				C82.6,14.1,82.7,14.1,82.7,14.2z"/>
			<path class="st6" d="M81.3,17.5c-0.3-0.3-0.6-0.7-0.7-1.1s-0.3-0.3-0.4-0.1c-0.1,0.1-0.2,0.3-0.3,0.4c-0.1,0.1-0.2,0.1-0.3,0.2
				c-0.3,0-0.6,0.1-0.8,0.3c-0.1,0.1-0.4,0.3-0.5-0.1c0.3-0.3,0.6-0.6,1-0.7c0.3-0.1,0.5-0.4,0.5-0.7c0.1-0.3,0.2-0.7,0.7-0.5
				c0.2,0.3,0.4,0.6,0.5,1c0.1,0.2,0.2,0.4,0.4,0.4c0.2,0,0.3-0.2,0.4-0.3c0.1-0.1,0.1-0.5,0.3-0.2c0.2,0.5,0.6,0.2,0.9,0.1
				c0.3,0.2,0.3,0.5,0.2,0.9c-0.5,0.4-1,0.6-1.7,0.5C81.5,17.5,81.4,17.6,81.3,17.5z"/>
			<path class="st44" d="M81.2,21.7c0.6-0.9,1.2-1.9,2-2.8c0.1,0.2,0,0.3-0.1,0.5c-0.6,0.8-1.2,1.6-1.7,2.4
				C81.3,21.8,81.2,21.8,81.2,21.7z"/>
			<path class="st45" d="M81.3,17.5c0.7,0,1.3-0.3,2-0.5c0.1,0.3,0.1,0.6,0,1v-0.1c0-0.6,0-0.6-0.5-0.4S81.8,17.7,81.3,17.5z"/>
			<path class="st6" d="M80.8,13.2c0-0.5,0.4-1,0.5-1.5c0.1-0.3,0.4-0.3,0.7-0.2l-0.1,0.1c-0.1,0.3-0.5,0.6-0.6,1
				C81.2,12.8,81,13,80.8,13.2z"/>
			<path class="st6" d="M83.3,20.9c-0.2-0.3-0.4-0.5-0.2-0.9c0.4,0.1,0.6,0.3,0.5,0.8C83.5,21,83.4,21,83.3,20.9z"/>
			<path class="st46" d="M82.6,13.3c0.1,0.3-0.1,0.6-0.1,1c-0.1,0.1-0.1,0.2-0.3,0.2c0-0.3,0.1-0.6,0.2-0.9
				C82.5,13.5,82.6,13.4,82.6,13.3z"/>
			<path class="st12" d="M83.1,16.2c-0.1,0.1-0.2,0.2-0.3,0.2c-0.5,0.2-0.5,0.2-0.5-0.3C82.5,16.3,82.8,16.2,83.1,16.2z"/>
			<path class="st11" d="M83.2,22.3c0-0.1,0-0.2,0-0.3c0.4,0.2,0.2,0.5,0.1,0.8C83.2,22.6,83.2,22.5,83.2,22.3z"/>
			<path class="st12" d="M81.4,12.6c0-0.4,0.3-0.7,0.6-1C81.9,12,81.5,12.2,81.4,12.6z"/>
			<path class="st47" d="M92.1,19.7c0.1,0,0.2,0.1,0.1,0.1c0,0.2,0,0.3-0.2,0.4c-0.1,0-0.1-0.1-0.1-0.2C92,19.9,91.9,19.8,92.1,19.7
				z"/>
			<path class="st47" d="M92.6,20.5c0.1,0.1,0.1,0.2,0.1,0.3c-0.1,0.1-0.2,0.3-0.3,0.1C92.2,20.7,92.5,20.6,92.6,20.5z"/>
			<path class="st9" d="M89.3,12.6c0-0.3,0-0.5,0.2-0.8C89.7,12.2,89.6,12.4,89.3,12.6z"/>
			<path class="st28" d="M89,14.7c0,0.4-0.1,0.7-0.3,1C88.7,15.3,88.7,15,89,14.7z"/>
			<path class="st0" d="M31.4,37.4c-0.1-0.1-0.2,0-0.2,0.1c-0.2,0.6-0.6,1-0.9,1.5c-0.2,0.3-0.2,0.7-0.2,1.1
				c0.2,1.3,0.5,2.5,0.5,3.8c0,0.4,0,0.7-0.2,1.1c-0.1,0.1-0.2,0.2-0.4,0.1c-0.8-0.2-1.4-0.6-1.6-1.5c-0.1-0.5-0.2-1.1-0.3-1.6
				c0-0.2-0.1-0.4-0.4-0.4c-0.4,0-0.4-0.2-0.3-0.5c0.2-0.4,0.2-0.8,0.1-1.2c-0.1-0.7-0.1-1.4-0.2-2c-0.1-0.9,0.3-1.8,0.5-2.7
				c0.1-0.4,0.6-0.4,0.9-0.2c0.2,0.1,0.3,0.3,0.5,0.4c0,0,0.1,0,0.1,0.1c0.3,0.5,0.4,1.1,0.5,1.6c0.1,0.3,0.1,0.5,0.1,0.9
				c0.3-0.4,0.5-0.7,0.6-1c0-0.4,0.1-0.8,0.4-1.1c0.1-0.1,0.2-0.3,0.2-0.5v-0.1c0.1-0.3,0.4-0.3,0.5-0.7c0.4-0.5,0.6-1.1,0.8-1.7
				c0.1-0.2,0.2-0.3,0.3-0.5c0.3-0.3,0.6-0.6,0.8-0.9c0.3-0.4,0.7-0.3,0.9,0.2c0.2,0.6,0.2,1.2,0.1,1.8c0,0.1,0,0.3,0,0.4
				c0.5,0.3,0.6,0.6,0.4,1.1c-0.1,0.5-0.4,0.9-0.7,1.3c-0.2,1.8-0.1,3.6,0.3,5.4c0,0.1,0.1,0.2,0.1,0.4c0.2,0.3,0,0.5-0.2,0.7
				s-0.4,0-0.6-0.1c-1.6-0.8-2.1-2.3-2.3-3.9c0-0.3-0.1-0.6-0.1-0.8C31.6,37.7,31.5,37.5,31.4,37.4z"/>
			<path class="st4" d="M32.1,31.6c0-0.5,0.3-1,0.2-1.5c0-0.1,0.1-0.2,0.2-0.2c0.9,0.2,1.7,0.5,2.1,1.5c0.2,0.7,0.2,1.4,0,2.1
				c0-0.6,0.1-1.2-0.3-1.7c-0.2-0.3-0.3-0.3-0.6-0.1c-0.6,0.7-1.3,1.3-1.4,2.3c-0.1,0.3-0.4,0.4-0.5,0.8c-0.1-0.3-0.4-0.5-0.2-0.8
				v-0.1c0.2-0.3,0.2-0.7,0.3-1.1C32,32.3,32.1,31.9,32.1,31.6z"/>
			<path class="st12" d="M34.4,36.2c0-0.4,0.2-0.7,0.4-1.1c0.2-0.5,0.2-0.9-0.1-1.3c0.9-0.2,1.8-0.4,2.8-0.5c0.2,0,0.4-0.2,0.5,0.2
				c0.1,0.3-0.1,0.4-0.4,0.5h-0.1c-0.1,0.2-0.5,0.2-0.5,0.6C36.2,35.4,35.2,35.7,34.4,36.2z"/>
			<path class="st1" d="M31.4,37.4c0.3,0.1,0.4,0.3,0.4,0.6c0.2,1.2,0.3,2.5,1.1,3.6c0.3,0.5,0.8,0.7,1.3,1c0.1,0.1,0.3,0,0.4-0.1
				c0.1-0.1,0.2-0.3,0.2-0.4c0.3-0.1,0.4-0.4,0.4-0.7c0.2,0.2,0.4,0.4,0.6,0.4c0.1,0.1,0.2,0.3,0.1,0.4c-0.1,0.3-0.2,0.5,0,0.8
				c0.1,0.2,0,0.4-0.2,0.5c-0.5,0.3-1.3,0.1-1.7-0.3c-0.3-0.2-0.5-0.4-0.8-0.6C31.7,41.1,31.3,39.3,31.4,37.4z"/>
			<path class="st7" d="M33.2,42.4c0.3,0.1,0.6,0.3,0.9,0.5c0.4,0.3,0.8,0.3,1.2,0.2c0.3-0.1,0.6-0.1,0.2-0.5
				c-0.2-0.2-0.1-0.3,0.1-0.5c0.2-0.2,0.3-0.3,0.3-0.6c0.4,0.3,0.7,0.6,1.1,0.9c0.2,0.2,0.1,0.4-0.1,0.6c-0.1,0.1-0.3,0.2-0.4,0.3
				C35.1,43.8,34,43.5,33.2,42.4z"/>
			<path class="st27" d="M36.9,34.7c-0.2-0.2-0.2-0.4,0.1-0.5c0.1,0,0.2-0.1,0.4-0.1C37.4,34.4,37.2,34.6,36.9,34.7z"/>
			<path class="st3" d="M21.9,40.6c-0.4-0.3-0.7-0.7-1-1.2c-0.1-0.1-0.1-0.3-0.3-0.2c-0.5,0.6-1,1.3-1.4,2c-0.2,0.3-0.5,0.5-0.6,0.9
				c-0.1,0.1-0.2,0.2-0.3,0.2c-0.5,0-1,0.1-1.4-0.2c-1.8-0.8-2.4-2.3-2.5-4.1c0-0.5,0-1,0-1.5v-0.1c0.4-0.2,0.7-0.1,0.9,0.2
				c0.1,0.2,0.2,0.5,0.1,0.7c-0.1,0.5-0.1,1-0.1,1.5c0,0.8,0.2,1.5,0.8,2.1c0.2,0.2,0.4,0.5,0.7,0.6c0.4,0.1,0.8,0,1.1-0.3
				c0.2-0.3,0.5-0.5,0.7-0.9c0.1-0.2,0.2-0.5,0.1-0.7c-0.1-0.3,0.2-0.4,0.3-0.6c0.4-0.4,0.8-0.8,1.1-1.3c0.1-0.1,0.3-0.2,0.3-0.5
				c0.1-1,0.2-1.9,0.7-2.8c0-0.1,0.1-0.2,0-0.2c-0.2,0-0.4,0-0.6,0c-0.6,0.5-1.3,0.7-1.9,1.1c-0.1,0.1-0.3,0.1-0.4,0
				c-0.2-0.4-0.2-0.7,0.2-0.9c0.4-0.2,0.7-0.4,0.3-0.9c0,0,0-0.1,0.1-0.2c0.4-0.2,0.9-0.3,1.4-0.3c0.4-0.1,0.8-0.1,1.2-0.4
				c0.5,0,0.9-0.5,0.8-1l0.1-0.1C22.6,31,23,31,23.4,31c0.5,0,0.8,0.3,0.8,0.8c0,0.2,0,0.4,0.1,0.6c0.1,0.6-0.2,1.2-0.4,1.8
				c0,0.1-0.1,0.2-0.2,0.2c-0.3,0-0.3-0.2-0.4-0.4c-0.2-0.3-0.3-0.4-0.6-0.1c-0.6,0.7-1.1,1.3-1.1,2.3c0,0.2,0,0.4-0.1,0.6
				c-0.4,0.6-0.3,1.2,0,1.8c0.1,0.3,0.3,0.6,0.4,0.9c0.1,0.3,0.3,0.5,0.6,0.6c0.5,0.3,0.8,0.3,1.1-0.2c0.3-0.4,0.6-0.7,0.8-1.2
				c0.1-0.3,0.2-0.6-0.2-0.7c-0.1,0-0.2-0.2-0.2-0.3c-0.1-0.2,0.1-0.4,0.2-0.6c0.3-0.4,0.4-0.9,0.9-1.1c0.2,0,0.4,0,0.5-0.1
				c0.4-0.2,0.6,0,0.7,0.4c0,0.2,0,0.3-0.1,0.5c-0.4,0.8-0.5,1.6-0.8,2.4c-0.2,0.4-0.4,0.8-0.6,1.1c-0.1,0.2-0.2,0.3-0.2,0.5
				c-0.2,0.7-0.8,0.9-1.4,0.5C22.6,41.1,22.3,40.8,21.9,40.6z"/>
			<path class="st48" d="M12.1,35.3c0-0.1,0.1-0.2,0.2-0.2c0.7-0.3,1.5-0.5,2.2-0.7h0.1c0.2,0.2,0.2,0.3,0,0.5s-0.4,0.4-0.6,0.6
				c-0.3,0.2-0.3,0.3,0,0.5c0.1,0.1,0.3,0.1,0.3,0.3v0.1c-0.8,0.1-1.5,0-2.3-0.2"/>
			<path class="st48" d="M15.2,42.2"/>
			<path class="st4" d="M16.8,42c0.4,0,0.9,0,1.3,0c0.1,0,0.2,0,0.3-0.2c0.4-0.6,0.9-1.2,1.3-1.9c0.2-0.4,0.5-0.6,0.9-0.8
				c-0.2,0.8-0.7,1.4-1.1,2.1c-0.2,0.4-0.5,0.7-0.8,1.1C18,42.4,17.3,42.6,16.8,42z"/>
			<path class="st48" d="M21.9,40.6c0.4,0.1,0.8,0.3,1.2,0.5c0.5,0.3,0.8,0.2,1.1-0.4c0.2-0.4,0.4-0.7,0.6-1.1
				c0.3-0.5,0.6-0.9,0.5-1.5c0-0.2,0.1-0.3,0.2-0.5c0.2-0.4,0.4-0.8,0.5-1.3c0-0.1,0-0.2-0.1-0.3s-0.1,0.1-0.2,0.1
				c-0.2,0.3-0.5-0.1-0.7,0c-0.2-0.2,0-0.4,0.1-0.6c0.2-0.4,0.5-0.7,0.6-1.1c0-0.1,0.1-0.3,0.2-0.3c0.3-0.1,0.2-0.4,0.2-0.6l0.1-0.1
				c0.4-0.2,0.7,0.1,1.1,0.2c0.4,0.1,0.7,0.3,1.1,0.5c0.3,0.2,0.6,0.4,0.8,0.7c0.2,0.2,0.3,0.5,0.1,0.7c-0.2-0.1-0.3-0.2-0.5-0.3
				c-0.4-0.3-0.5-0.2-0.7,0.2c-0.5,1.4-0.5,2.9-0.2,4.4c0.1,0.4,0.1,0.8-0.2,1.2c-0.2,0.2-0.2,0.4,0.2,0.4c0.3,0,0.4,0.2,0.4,0.4
				c0.1,0.6,0.2,1.2,0.3,1.7c-0.3,0.1-0.7,0-0.7-0.4c0-0.3-0.1-0.6-0.1-0.8c0-0.3-0.2-0.4-0.4-0.6c-0.2-0.1-0.3-0.2-0.3-0.4
				c0.2-0.2,0.3-0.5,0.2-0.8c-0.2-1.2-0.3-2.4-0.4-3.6c0-0.1,0-0.3-0.2-0.4c-0.1,1-0.4,1.9-0.8,2.7c-0.2,0.5-0.6,1-0.8,1.5
				c-0.2,0.6-0.5,1-1.1,1.1c-0.5,0.2-0.9-0.2-1.2-0.5C22.4,41.2,22.1,40.9,21.9,40.6z"/>
			<path class="st12" d="M27.1,41.4C27.1,41.5,27.1,41.5,27.1,41.4c1,0.2,1,1,1,1.6c0,0.3,0.1,0.5,0.4,0.6c0.3,0.6,0.7,1.1,1.5,1.3
				c0.1,0,0.2,0.1,0.4,0c-0.1,0.1-0.1,0.3-0.2,0.4c-0.3,0.2-0.5,0-0.8,0c-0.2,0-0.5,0-0.7,0.1c-0.4-0.1-0.7-0.5-0.9-0.8l0,0
				c-0.3-0.5-0.8-0.8-1.2-1.2c-0.2-0.2-0.3-0.4-0.2-0.7C26.4,42.3,26.6,41.8,27.1,41.4z"/>
			<path class="st31" d="M23.9,42c0.5-0.5,1-0.8,1.2-1.6c0.1-0.4,0.5-0.7,0.8-1.1c-0.3,0.8-0.6,1.5-1,2.2
				C24.6,41.9,24.3,42.1,23.9,42z"/>
			<path class="st49" d="M27.7,44.7c0.4,0.1,0.6,0.5,0.9,0.7c0.2,0,0.4,0,0.7,0c0.2,0,0.3,0,0.4,0.2c-0.4,0.2-1.1,0.2-1.4-0.1
				l-0.1-0.1C27.6,45.3,27.6,45.3,27.7,44.7z"/>
			<path class="st32" d="M29.7,45.6c-0.4-0.1-0.7-0.1-1.1-0.3c0.5-0.3,1-0.2,1.5,0C30,45.5,29.8,45.5,29.7,45.6z"/>
			<path class="st30" d="M33.6,17.2c-0.1,0.2-0.1,0.5-0.2,0.7c-0.1,0.3-0.4,0.4-0.6,0.2c-0.2-0.2-0.4-0.5-0.5-0.8
				c-0.3-0.8-0.1-1.6-0.1-2.4c0-0.4,0-0.7-0.5-0.8s-0.5-0.9-0.2-1.2c0.1-0.1,0.2-0.2,0.2-0.3c0-0.4,0.3-0.7,0.4-1
				c0.1-0.2,0.3-0.2,0.4-0.1c0.2,0.2,0.4,0.4,0.7,0.5c0.6,0.3,0.5,0.9,0.5,1.4C33.8,14.6,33.7,15.9,33.6,17.2z"/>
			<path class="st22" d="M72.5,9.7c-0.1,0.5-0.1,1-0.1,1.5c0.1,0.7,0,1.3-0.5,1.8c-0.1,0.2-0.2,0.4-0.3,0.5c0,0.1,0,0.2-0.2,0.3
				h-0.1c-0.5,0.3-0.6,0.9-1,1.3c0,0,0,0.1-0.1,0.2c-0.5,0.3-0.8,0.8-1.3,1.1c-0.3,0.2-0.7,0.1-1,0c-0.4-0.2-0.7-0.1-1,0.2
				c-0.6,0.6-1.3,1-2.1,1.1c-0.3,0-0.5-0.1-0.7-0.1c-0.6-0.3-0.9-0.8-1.1-1.4c0.3,0,0.4,0.2,0.5,0.4c0.7,0.8,1.4,0.8,2.2,0.1
				c0.4-0.3,0.8-0.7,1.2-1c0.2-0.1,0.3-0.1,0.4,0.1c0.2,0.2,0.4,0.2,0.7,0.1c0.2-0.1,0.3-0.3,0.2-0.6c-0.1-0.2,0.1-0.2,0.2-0.3
				c0.4-0.2,0.9-0.3,0.9-0.9c0.2-0.2,0.4-0.4,0.7-0.6c1.2-0.9,1.7-2.2,1.9-3.7C72.2,10,72.3,9.8,72.5,9.7z"/>
			<path class="st50" d="M53.3,14.5c0.2,0.2,0.3,0.4,0.3,0.7c0,0.4-0.1,0.8,0.2,1.2c0,1,0,2,0.1,3.1c0.1,0.7-0.2,0.9-0.8,0.6
				c-0.4-0.2-0.8-0.3-1.1-0.7l0,0c-0.1-0.3-0.1-0.5,0-0.8c0-0.1,0.1-0.2,0-0.3c-0.3-0.7-0.3-1.4-0.4-2.1c-0.1-0.6,0.1-0.9,0.6-1.2
				c0.1,0,0.1-0.1,0.1-0.1C52.6,14.5,53,14.5,53.3,14.5z"/>
			<path class="st51" d="M58.8,9.1c0.7-0.5,1.4-0.4,2.2-0.4C60.2,9,59.6,9.3,59.1,10c-0.5,0.8-1,1.5-1.1,2.4
				c-0.1,0.5-0.2,0.9-0.3,1.4c0,0.3,0.1,0.5,0.1,0.7c0.1,0.5,0.4,1,0,1.5c-0.1-0.1-0.1-0.1-0.2-0.2c-0.8-2.2-0.6-4.2,0.8-6.1
				C58.6,9.5,58.5,9.2,58.8,9.1c0.1,0.1,0.1,0.1,0.2,0.1l0,0C58.8,9.2,58.7,9.2,58.8,9.1z"/>
			<path class="st7" d="M61.6,12.7c0.4,0.4,0.3,1,0.3,1.5c0,0.1,0,0.1-0.1,0.2l0,0c0.2,0.2,0.3-0.2,0.5,0c-0.3,0.3-0.2,0.7-0.4,1
				c-0.3,0.6-0.6,1.3-1.2,1.8c-0.2,0.2-0.4,0.5-0.7,0.7c-0.3,0.1-0.5-0.1-0.7-0.2s-0.2-0.2,0-0.4c0.2,0,0.3,0,0.5,0
				c0.4,0,0.6-0.2,0.4-0.6c-0.1-0.3-0.1-0.5,0.2-0.7c0.1-0.1,0.1-0.2,0-0.3s-0.1-0.2,0-0.4c0.4-0.7,0.6-1.5,0.9-2.2
				C61.3,13,61.3,12.7,61.6,12.7z"/>
			<path class="st27" d="M64.2,17.5c0.1-0.1,0.1-0.2,0.3-0.1c0.7,0.2,1.3,0,1.8-0.4c0.3-0.3,0.7-0.4,1-0.8c0.2-0.2,0.5-0.1,0.8,0
				c0.8,0.2,0.9,0.2,1.4-0.6c0.1-0.1,0.1-0.3,0.3-0.3c0.6,0,0.9-0.6,1.1-1c0.2-0.3,0.3-0.5,0.6-0.5c-0.4,0.8-1,1.6-1.6,2.3
				c-0.4,0.5-1.1,0.7-1.8,0.5c-0.3-0.4-0.6-0.3-0.9,0c-0.5,0.5-1.1,0.8-1.8,1.1C65,17.9,64.6,17.8,64.2,17.5z"/>
			<path class="st24" d="M32,19.7c-0.7-0.5-1-1.3-1.4-2c0.2-0.1,0.4-0.1,0.5,0.2c0.1,0.3,0.5,0.3,0.7,0.4c0.1,0,0.2-0.2,0.3-0.1
				c0,0.4,0.2,0.6,0.6,0.7c0.1,0,0.2,0.1,0.3,0.1c0.4,0.3,0.6,0.2,0.7-0.3c0-0.1,0-0.2,0-0.3c0.1,0.5,0.3,1-0.1,1.4
				C33.1,20.2,32.5,19.9,32,19.7z"/>
			<path class="st31" d="M59.2,17.3c0.2,0.4,0.9,0.5,1.1,0c0.2-0.3,0.4-0.5,0.6-0.7c0.4-0.3,0.6-0.7,0.8-1.2
				c0.1-0.2,0.1-0.1,0.2-0.1c-0.1,0.7-0.4,1.3-0.8,1.9c-0.1,0.2-0.4,0.4-0.5,0.7c-0.5,0.4-1,0.1-1.4-0.2c-0.2-0.1-0.3-0.2-0.4-0.4
				C59,17.4,59.1,17.4,59.2,17.3z"/>
			<path class="st9" d="M40,18.3c0.1,0.1,0.3,0.3,0.4,0.4c-0.4,0-0.6,0.3-0.8,0.6C38.9,20,38,20,37.2,19.8c-0.3-0.1-0.5-0.5-0.7-0.8
				c0.4,0.2,0.8,0.2,1.1,0.4c0.4,0.2,1.1,0,1.5-0.3C39.4,18.9,39.6,18.5,40,18.3z"/>
			<path class="st26" d="M52,19.4c0.4,0.2,0.9,0.4,1.3,0.6c0.3,0.1,0.6-0.2,0.6-0.5c0.1,0.3,0.1,0.5,0.2,0.8
				c0.1,0.4-0.1,0.7-0.6,0.6c-0.5-0.3-0.9-0.6-1.3-0.9C52.1,19.8,52.1,19.6,52,19.4z"/>
			<path class="st13" d="M52.3,19.9c0.6,0.1,1,0.4,1.3,0.9C52.9,20.9,52.6,20.5,52.3,19.9z"/>
			<path class="st52" d="M60.7,18c0-0.4,0.1-0.6,0.5-0.7C61.2,17.7,60.9,17.8,60.7,18z"/>
			<path class="st17" d="M7.6,14.7c0.7-0.1,0.7,0,0.7,0.6c0.1,1.2-0.5,2.1-1.6,2.6c-0.1,0-0.1,0.1-0.1,0.2c0,0.4-0.2,0.7-0.5,0.9
				c-0.5,0.5-1,0.5-1.4-0.2c-0.1-0.2-0.2-0.5-0.4-0.7L4.2,18c0.1-0.7-0.1-1.3-0.1-2c0-0.4,0-0.8,0-1.1c0-0.7,0.1-1.4,0.5-1.9
				c0.1-0.2,0.2-0.3,0.1-0.5c0-0.5,0.2-0.8,0.5-1.1s0.4-0.7,0.8-0.1c0.1,0.1,0.2-0.1,0.3-0.2c0.3-0.3,0.4-0.7,0.7-1
				c0.2-0.2,0.3-0.3,0.5,0.1c0.1,0.3,0.4,0.4,0.6,0.5c0.3,0.3,0.5,0.6,0.6,0.9c-0.8,1.1-1.3,2.3-1.7,3.5c0,0.2,0,0.1,0,0.1
				C7.1,14.9,7.2,14.6,7.6,14.7z"/>
			<path class="st7" d="M9.1,16c-0.6,1.2-1,2.5-1.5,3.7c-0.2,0.3,0,0.7-0.4,0.9l0,0c-0.3,0.2-0.6,0.4-1,0.2c0.6-1.6,1.7-3,2.3-4.6
				C8.6,16,8.8,15.9,9,15.8C9.1,15.8,9.1,15.9,9.1,16z"/>
			<path class="st1" d="M15.1,20.2c-0.5-0.1-0.7-0.6-1-0.8c0.2-0.3,0.5-0.2,0.7-0.1c0.4,0.2,0.8,0.2,1.1-0.2
				c0.3-0.4,0.8-0.1,1.1-0.4c0.1-0.1,0.2,0.1,0.2,0.3c-0.1,0.3,0,0.5,0.1,0.8C16.5,20.4,15.8,20.5,15.1,20.2z"/>
			<path class="st29" d="M10.7,19.8c-0.1-0.2-0.3-0.3-0.3-0.5c0.5,0.3,1.1,0.6,1.7,0.4c0.1,0,0.3,0,0.4-0.2c0.5-0.7,0.7-0.7,1.4-0.2
				c-0.4,0.3-0.6,0.7-1,1C12.1,20.7,11.3,20.5,10.7,19.8z"/>
			<path class="st53" d="M9,11.4C8.9,10.6,9.2,10,9.3,9.3c0-0.2,0.1-0.4,0.4-0.3C10,9.1,9.9,9.3,9.8,9.5C9.6,10.1,9.3,10.7,9,11.4z"
				/>
			<path class="st54" d="M15.1,20.2c0.7,0,1.4-0.1,2.1-0.4c0,0.1,0.1,0.2,0.1,0.3c-0.3,0.1-0.5,0.2-0.8,0.3
				C16,20.6,15.5,20.6,15.1,20.2z"/>
			<path class="st36" d="M13,20.4c0.2-0.4,0.4-0.9,1-1h0.1C13.7,19.8,13.5,20.3,13,20.4z"/>
			<path class="st8" d="M28.4,19.9c-0.3,0.7-0.9,0.8-1.7,0.3c0-0.3,0.1-0.5-0.3-0.6c-0.2,0-0.5-0.3-0.1-0.6c0.4,0.1,0.9-0.2,1.3,0
				c0.2,0.1,0.3,0,0.3-0.2c-0.1-0.3,0-0.5,0.2-0.7c0.1-0.2,0.1-0.4,0.1-0.6c0-0.3,0.2-0.5,0.3-0.7c0.2-0.6,0.9-0.8,1-1.4
				c0-0.2,0.1-0.4,0.3-0.4c0.3,0,0.4-0.4,0.7-0.4c-0.3,0.6-0.5,1.1-0.7,1.7c-0.2,0.3-0.5,0.5-0.4,1c0,0.1,0,0.1-0.1,0.2
				c-0.4,0.3-0.5,0.8-0.8,1.2C28.3,19,28.3,19.4,28.4,19.9z"/>
			<path class="st27" d="M28.4,19.9c-0.3-0.2-0.4-0.7-0.2-1.1c0.2-0.5,0.3-1.1,0.7-1.4c0.3-0.3,0.4-0.7,0.6-1
				c0.1-0.1,0.2-0.2,0.3-0.1c0,0.2-0.1,0.5-0.1,0.7c-0.4,0.8-0.8,1.4-1.2,2.2C28.3,19.3,28.6,19.6,28.4,19.9z"/>
			<path class="st24" d="M26.3,19c-0.1,0.6,0.5,0.4,0.8,0.6c0.1,0.1,0.2,0,0.3,0.1c0.1,0,0.1,0.1,0.1,0.2S27.4,20,27.3,20
				c-0.2,0-0.4,0.1-0.6,0.2c-0.7-0.5-0.9-1.2-1.2-1.9C25.9,18.4,26,18.8,26.3,19z"/>
			<path class="st4" d="M50.3,13.6c-0.3-0.3-0.6-0.5-0.9,0.1c-0.2-0.3-0.3-0.5-0.1-0.8c0.3-0.4,0.9-0.7,1.2-0.5
				c0.2,0.1,0.3,0.1,0.4,0c0.3-0.3,0.6-0.1,0.8,0.2c0.3,0.4-0.2,0.4-0.3,0.6C51,13.3,50.8,13.6,50.3,13.6z"/>
			<path class="st18" d="M52.1,8.4c0-0.1,0-0.1,0.1-0.2C52.3,8,52,7.7,52.3,7.6s0.6,0,0.9,0.2c-0.3,0-0.4,0.2-0.4,0.5
				c0,0.4-0.2,0.9-0.2,1.3c0,0.2-0.6,0.4-0.8,0.2c-0.1-0.1-0.3-0.1-0.4-0.2c0-0.2,0.1-0.3,0.3-0.2s0.4,0.1,0.4-0.2
				C52,9,52.1,8.8,52,8.5C52,8.5,52,8.4,52.1,8.4z"/>
			<path class="st25" d="M51.5,9.4c-0.1,0-0.2,0.1-0.3,0.2c-0.6,0.1-1.3,0.2-1.8,0.7c-0.2,0.2-0.5,0.4-0.8,0.5
				c-0.4,0.1-0.4,0.5-0.7,0.7c-0.2-0.1,0.1-0.4-0.2-0.4c0.1-0.2,0.2-0.4,0.4-0.5c1-0.4,1.8-1,2.9-1.2C51.2,9.3,51.3,9.3,51.5,9.4z"
				/>
			<path class="st54" d="M53.5,11.8c-0.1,0.5-0.5,0.6-0.9,0.3c-0.2-0.2-0.3-0.4-0.4-0.7c0.4,0.1,0.7,0.1,1,0.4
				C53.3,12,53.4,11.9,53.5,11.8z"/>
			<path class="st18" d="M53.1,7.8c0.4,0.2,0.6,0.5,0.7,0.9C53.5,8.4,53.2,8.2,53.1,7.8z"/>
			<path class="st55" d="M54,10c0.1,0.1,0.4-0.1,0.4,0.2c0,0.2-0.3,0.2-0.5,0.2C53.9,10.2,53.9,10.1,54,10z"/>
			<path class="st14" d="M41.3,12.9c0.3-0.3,0.5-0.6,1-0.3c0.1,0.1,0.1,0.1,0.1,0.2c0,0.6-0.2,1.2-0.5,1.7c-0.3,0.4-0.3,0.8-0.5,1.2
				c-0.1,0.2,0.1,0.3,0.1,0.4l0,0c-0.2,0.3-0.3,0.7-0.6,1c-0.2-0.4-0.2-0.7,0-1.1c0.2-0.2-0.1-0.5-0.1-0.7c-0.2-0.4-0.1-0.7,0-1.1
				c0-0.1,0.1-0.2,0.1-0.3C41,13.5,40.8,13.1,41.3,12.9z"/>
			<path class="st32" d="M40.9,17.1c0-0.4,0.2-0.8,0.6-1c0,0.3-0.1,0.6-0.3,0.8c-0.1,0.2-0.2,0.3-0.2,0.5
				C40.9,17.3,40.9,17.2,40.9,17.1z"/>
			<path class="st54" d="M21.8,19.1c0.8,0.4,1,1.1,1.1,1.9c0.1,1-0.1,1.9-0.4,2.9c-0.1,0.1-0.1,0.1-0.2,0c0.1-0.8,0-1.6,0.1-2.4
				c0-0.7,0-1.3-0.5-1.8C21.8,19.5,21.8,19.2,21.8,19.1z"/>
			<path class="st52" d="M22.3,23.9c0.1,0,0.1,0,0.2,0c-0.1,0.3-0.1,0.7-0.2,1c-0.8,1-1.8,1.1-2.7,0.5c0.4,0,0.8,0.2,1.2,0.2
				c0.6-0.1,1.2-0.5,1.3-1.2C22.1,24.2,22.1,24,22.3,23.9z"/>
			<path class="st31" d="M38.8,16.5c-0.1-0.2-0.2-0.4-0.3-0.6c0.1-0.1,0.1-0.2,0.2-0.3c0.1-0.1,0.2,0,0.2,0.1
				C38.8,16,38.9,16.3,38.8,16.5z"/>
			<path class="st13" d="M24.8,17.5c-0.1-0.7-0.3-1.4-0.1-2.1c0.1,0.2,0.3,0.3,0,0.6c-0.1,0.1-0.1,0.3,0,0.4
				C25.1,16.6,25,17,24.8,17.5z"/>
			<path class="st56" d="M29.7,18.7c0.3,0,0.5,0,0.4-0.5c0.2,0.3,0.3,0.6,0.7,0.6c0.2,0,0.2,0.2,0.2,0.3c0,0.1,0,0.2-0.1,0.2
				c-0.1,0.1-0.2,0-0.3-0.1C30.3,19,30.1,18.9,29.7,18.7z"/>
			<path class="st56" d="M51,29.1c-0.1,0-0.2-0.1-0.2-0.2s0-0.2,0.1-0.2s0.2,0.1,0.2,0.2C51.2,29,51.1,29,51,29.1z"/>
			<path class="st1" d="M45.2,29.2c0.4,0,0.7,0.3,1.1,0.4c0.4,0.1,0.6,0.4,0.7,0.6c0.4,0.6,0.9,1,1.4,1.4c0.1,0.1,0.2,0.2,0.3,0.4
				c-0.2,0.5-0.3,1,0.3,1.3c0.3,0.2,0.5,0.5,0.6,0.8c-0.3,0.3-0.5,0.1-0.7-0.1c-0.4-0.5-1-0.5-1.4,0c0,0-0.1,0.1-0.1,0.2
				c0,0.8-0.2,1.5,0,2.3c0,0.2,0.1,0.3,0.1,0.5c0,0.4,0,0.8,0.2,1.2c0.1,0.3,0.1,0.6-0.2,0.8c-0.2,0.2-0.1,0.6-0.4,0.7
				c0-0.1-0.1-0.3-0.1-0.4c0-1.1,0-2.3,0-3.4c0-0.2,0.1-0.4-0.1-0.5c-0.2-0.1-0.3,0.1-0.4,0.2c-0.1,0.1-0.2,0.1-0.3,0.2
				c-0.8,0.2-1,0.1-1.4-0.5c-0.1-0.1-0.1-0.1-0.2-0.2l0,0c0-0.3-0.4-0.5-0.4-0.9l0,0c-0.3-0.2-0.6-0.1-1-0.1c-0.2,0-0.3,0-0.5,0
				c-0.5-0.2-0.8-0.6-0.9-1.1c0.1-0.6,0-1.2,0.5-1.6c0.4-0.4,0.7-1,1.2-1.3C44.1,29.8,44.5,29.2,45.2,29.2z M43.4,32.6
				c0,0.2,0.1,0.2,0.2,0.1c0.8-0.4,1.7-0.6,2.3-1.3c0.1-0.2,0.3-0.4,0.6-0.4c0.1,0,0.2-0.1,0.1-0.2c-0.2-0.2-0.3-0.5-0.6-0.5"/>
			<path class="st30" d="M47.7,31.6c-0.1,0.2-0.2,0.3-0.4,0.3s-0.2-0.1-0.2-0.3c0-0.2,0.1-0.3,0.2-0.3
				C47.5,31.4,47.6,31.4,47.7,31.6z"/>
			<path class="st57" d="M49.6,27.9c0.3,0.5,0.1,1.1-0.3,1.5C49.6,28.9,49.5,28.4,49.6,27.9z"/>
			<path class="st29" d="M72.8,19.5c-0.6-0.4-0.4-1-0.5-1.5c-0.1-0.3,0-0.7-0.1-1c0.5,0.1,0.8,0.6,0.9,1.1c0.1,0.7,0.3,1.4,0.9,1.9
				C73.5,20,73.1,19.8,72.8,19.5z"/>
			<path class="st6" d="M77,16.3c0-0.3-0.1-0.5-0.1-0.8c0.1,0,0.2,0,0.3,0c0,0.3,0,0.5,0,0.8C77.1,16.4,77.1,16.4,77,16.3L77,16.3z"
				/>
			<path class="st8" d="M77.1,16.3L77.1,16.3c0.1,0.2,0.3,0.3,0.5,0.5c0.1,0.4,0.5,0.4,0.8,0.5c0.1,0,0.2,0,0.3,0
				c0.2-0.4,0.6-0.3,1-0.3c-0.1,0.3-0.3,0.6-0.5,0.9c-0.3,0.4-0.8,0.4-1.2,0c-0.1-0.1-0.2-0.3-0.4-0.4C77.2,17,77.1,16.7,77.1,16.3z
				"/>
			<path class="st6" d="M78.3,17.2c-0.4,0.1-0.7-0.1-0.8-0.5C77.8,16.9,78.1,17.1,78.3,17.2z"/>
			<path class="st6" d="M80.4,14.6c0,0.1-0.1,0.2-0.2,0.2s-0.1,0-0.1-0.1s0.1-0.2,0.2-0.3C80.3,14.4,80.3,14.5,80.4,14.6z"/>
			<path class="st58" d="M81.5,10.9c0.1-0.6,0.7-1,1.1-1.5c0.2,0.1,0.2,0.2,0,0.3C82.1,10,81.8,10.5,81.5,10.9z"/>
			<path class="st9" d="M61.9,10.3c0,0.1,0,0.2-0.1,0.3s-0.2,0.1-0.3,0c-0.3-0.3-0.6-0.6-0.6-1c0.1,0,0.1-0.1,0.2-0.1
				C61.4,9.7,61.6,10,61.9,10.3L61.9,10.3L61.9,10.3z"/>
			<path class="st59" d="M61.2,8.7c0.2-0.3,0.6-0.3,0.9-0.5c0,0.3,0.1,0.7-0.2,0.8C61.7,9.2,61.5,8.9,61.2,8.7z"/>
			<path class="st60" d="M61.8,10.2C61.5,10,61.3,9.7,61,9.4C61.5,9.6,61.7,9.9,61.8,10.2z"/>
			<path class="st61" d="M58.9,9.3c-0.2,0.2-0.3,0.3-0.5,0.5c0-0.3,0.1-0.6,0.4-0.7C58.8,9.2,58.8,9.2,58.9,9.3L58.9,9.3z"/>
			<path class="st55" d="M54.2,9.2c-0.1-0.5-0.1-0.9,0.4-1.1c0.2-0.1,0.2-0.4,0.3-0.6c0,0.2,0.1,0.3,0,0.5
				C54.6,8.3,54.4,8.7,54.2,9.2z"/>
			<path class="st62" d="M58.3,8.3c0,0.1,0,0.2-0.1,0.2s-0.1-0.1-0.1-0.2c0-0.1,0-0.2,0.1-0.2S58.3,8.2,58.3,8.3z"/>
			<path class="st21" d="M77.5,17.3c0.2,0.1,0.4,0.2,0.6,0.3c0.5,0.3,0.7,0.3,1-0.2c0.1-0.2,0.3-0.4,0.5-0.6c0.1,0,0.2-0.1,0.3-0.1
				c-0.2,0.3-0.4,0.6-0.6,1c-0.1,0.5-1.3,0.5-1.6,0C77.6,17.7,77.5,17.5,77.5,17.3z"/>
			<path class="st1" d="M30.8,37c-0.3-0.2-0.6-0.5-0.9-0.7c-0.1-0.1-0.1-0.2,0.1-0.3c0.5-0.3,1-0.5,1.4-0.8
				c-0.1,0.4-0.2,0.8-0.4,1.2C30.8,36.6,30.8,36.8,30.8,37z"/>
			<path class="st27" d="M31.6,33.8c0,0.3,0.3,0.5,0.2,0.8c0.1,0.3-0.2,0.4-0.4,0.6C31.4,34.7,31.5,34.3,31.6,33.8z"/>
			<path class="st27" d="M32.1,31.6c0.4,0.2,0.2,0.5,0.1,0.8c-0.2,0.4-0.2,0.9-0.3,1.3c0,0.2-0.1,0.3-0.3,0.1
				C31.7,33,31.8,32.3,32.1,31.6z"/>
			<path class="st2" d="M18.1,29.9c1.1,0.6,1.4,1.5,0.8,2.9c0,0.1-0.1,0.2-0.1,0.4c0.1,0,0.1,0.1,0.2,0.1c0.5,0.3,0.5,0.6,0,0.9
				c-0.4,0.2-0.6,0.5-0.6,0.9c0.1,0.2,0.1,0.3,0,0.5c-0.2,1-0.2,2.1-0.2,3.1c0,0.5,0,0.5,0.6,0.6c0.1,0,0.1,0,0.2,0.1
				c0.2,0.3,0.1,0.6,0,0.9c-0.2,0.5-0.6,0.8-0.9,1.2c-0.2,0.3-1.3,0.3-1.6,0c-0.5-0.6-1.1-1.2-1.2-2.1c-0.1-0.7-0.3-1.3,0-2
				c0.2-0.6-0.1-1-0.7-1.1c-0.2-0.1-0.5-0.1-0.7-0.2c-0.1,0-0.3-0.1-0.3-0.2c0-0.2,0.1-0.3,0.2-0.3c0.4-0.3,0.8-0.6,1.1-1l0,0
				c0.1-0.1,0.2-0.2,0.2-0.3c0.1-1,0.6-2,0.9-3c0-0.1,0-0.2,0-0.2c0.1-0.2,0.3-0.4,0.4-0.5c0.2-0.1,0.3-0.2,0.4-0.4
				c0.1-0.4,0.3-0.5,0.7-0.3C17.5,29.8,17.8,29.8,18.1,29.9z"/>
			<path class="st2" d="M24,37.8c0.8,0.4,0.8,0.4,0.5,1.2c-0.2,0.6-0.7,1.1-1.1,1.5c-0.3,0.4-0.8,0.1-1.1-0.1
				c-0.8-0.7-1.3-1.6-1.3-2.6c0-0.8,0.3-1.6,0.6-2.4c0.2-0.7,0.6-1.3,1.2-1.8c0.4-0.3,0.5-0.3,0.6,0.2c0.1,0.2,0.2,0.4,0.2,0.7
				c0.2,0.1,0.2,0.3,0.2,0.5c-0.1,0.8-0.2,1.6-0.1,2.4C23.7,37.6,23.8,37.7,24,37.8z"/>
			<path class="st12" d="M20.4,37.6c-0.2-0.6-0.1-1.3-0.1-1.9c0.2-0.4,0.3-0.8,0.4-1.2s0.3-0.7,0.5-1c0.3,0,0.5,0.3,0.3,0.5
				c-0.7,0.8-0.6,1.9-0.9,2.8C20.5,37.1,20.5,37.4,20.4,37.6z"/>
			<path class="st31" d="M21.2,33.5c-0.3,0.6-0.3,1.2-0.6,1.8c-0.1,0.2-0.1,0.3-0.3,0.4c0-0.5,0.1-1,0.3-1.4c0.1-0.1,0.3-0.3,0-0.5
				C20.8,33.6,21.1,33.7,21.2,33.5z"/>
			<path class="st52" d="M21.4,32.5c0.1-0.4,0.5-0.6,0.5-1c0.1,0,0.2,0,0.2-0.1c0.2,0.1,0.3,0.3,0.6,0.3c-0.4,0.3-0.7,0.6-1,0.9
				C21.6,32.8,21.5,32.6,21.4,32.5z"/>
			<path class="st13" d="M25.9,34.5c0-0.3-0.1-0.7,0.2-0.9c0.2,0.2,0.4,0.4,0,0.6C26,34.3,26,34.4,25.9,34.5z"/>
			<path class="st43" d="M7.2,20.6c0.2-0.3,0.1-0.7,0.4-0.9C7.7,20.3,7.7,20.5,7.2,20.6z"/>
			<path class="st63" d="M8.4,22.9c0.1,0.2,0.3,0.3,0.1,0.5c0,0.1-0.2,0.1-0.2,0C8.1,23.2,8.2,23.1,8.4,22.9z"/>
			<path class="st12" d="M18.1,29.9c-0.1,0-0.1,0-0.2,0c-0.4,0.1-1-0.3-1.2,0.5c-0.1,0.3-0.5,0.4-0.8,0.6c-0.4,1-0.7,2-0.9,2.9
				c0,0.2-0.1,0.3-0.1,0.5c-0.1,0-0.2,0.1-0.3,0.1c0-0.3,0.1-0.6,0.1-0.9c0-0.5,0.3-0.9,0.4-1.3c0.2-0.7,0.5-1.5,0.7-2.2
				c0.1-0.2,0.1-0.4,0-0.6c-0.1-0.1-0.1-0.2,0-0.3c0.1-0.1,0.2-0.1,0.3-0.1c0.3,0.1,0.5,0.2,0.8,0.2C17.3,29.7,17.8,29.7,18.1,29.9z
				"/>
			<path class="st64" d="M58.9,9.3c0.2-0.1,0.3-0.2,0.6-0.2c-0.2,0.2-0.4,0.4-0.6,0.6C58.8,9.5,59,9.4,58.9,9.3L58.9,9.3z"/>
			<path class="st65" d="M51.6,8.6c-0.2,0.6-0.6,0.5-1,0.3c0-0.6,0.5-0.6,0.9-0.5C51.7,8.4,51.6,8.5,51.6,8.6z"/>
			<path class="st55" d="M51.6,8.6c0-0.1-0.1-0.1-0.1-0.2c0.2,0,0.3-0.6,0.6-0.1c0,0.1,0,0.1,0,0.2C51.9,8.6,51.7,8.6,51.6,8.6z"/>
			<path class="st66" d="M20.2,30.9c-0.1,0-0.2-0.1-0.2-0.2s0-0.1,0.1-0.1s0.2,0.1,0.2,0.2C20.3,30.8,20.3,30.9,20.2,30.9z"/>
			<path class="st67" d="M14.9,34.4c0-0.1-0.1-0.2-0.1-0.2c0.3-1.1,0.5-2.1,1-3.1C15.6,32.2,15.2,33.3,14.9,34.4z"/>
		</g>
	</g>
	<path class="st17" d="M72.1,38.2c0-0.3,0-0.6-0.1-0.9c-0.3-1.3,0.2-2.4,1-3.3c0.4-0.5,0.8,0,1.2,0.2c0.4,0.5,0.3,1.1,0.1,1.8
		c0.5-0.2,0.6-0.8,0.9-1c0.4,0.1,0.4,0.4,0.4,0.7c-0.2,1.5-0.9,2.8-1.9,3.9c-0.2,0.3-0.5,0.3-0.8,0c-0.2-0.2-0.5-0.4-0.7-0.7
		C72.2,38.7,72.1,38.5,72.1,38.2z"/>
</g>
</svg>
