<?xml version="1.0" encoding="utf-8"?>
<!-- Generator: Adobe Illustrator 20.0.0, SVG Export Plug-In . SVG Version: 6.00 Build 0)  -->
<svg version="1.1" id="Layer_1" xmlns="http://www.w3.org/2000/svg" xmlns:xlink="http://www.w3.org/1999/xlink" x="0px" y="0px"
	 viewBox="0 0 100 60" style="enable-background:new 0 0 100 60;" xml:space="preserve">
<style type="text/css">
	.st0{fill:#141414;}
	.st1{fill:#232323;}
	.st2{fill:#2A2A2A;}
	.st3{fill:#131313;}
	.st4{fill:#121212;}
	.st5{fill:#1A1A1A;}
	.st6{fill:#1E1E1E;}
	.st7{fill:#1C1C1C;}
	.st8{fill:#171717;}
	.st9{fill:#1B1B1B;}
	.st10{fill:#161616;}
	.st11{fill:#212121;}
	.st12{fill:#181818;}
	.st13{fill:#191919;}
	.st14{fill:#111111;}
	.st15{fill:#8E8E8E;}
	.st16{fill:#818181;}
	.st17{fill:#151515;}
	.st18{fill:#1D1D1D;}
	.st19{fill:#2B2B2B;}
	.st20{fill:#101010;}
	.st21{fill:#252525;}
	.st22{fill:#6A6A6A;}
	.st23{fill:#222222;}
	.st24{fill:#1F1F1F;}
	.st25{fill:#393939;}
	.st26{fill:#929292;}
	.st27{fill:#242424;}
	.st28{fill:#8D8D8D;}
	.st29{fill:#292929;}
	.st30{fill:#202020;}
</style>
<g id="_x35_YG8DH.tif">
	<g>
		<path class="st0" d="M37.8,22.9c-0.8,0.3-1.4,0.8-2.3,0.8c-0.7,0-1.1-0.5-1.7-0.8c-0.1,0-0.1,0-0.2,0c-0.4-0.2-0.5-0.6-0.6-0.9
			c-0.1-0.2-0.1-0.3-0.2-0.5c-0.2-0.2-0.6-0.3-0.6-0.7c-0.1-0.6,0-1.2-0.1-1.8c0-0.2-0.3-0.4-0.2-0.7c0.1-0.8,0.4-1.7,0.6-2.5
			c0-0.2,0.1-0.4,0.3-0.5c0.4-0.3,1.7-0.1,2.3,0.4c0.1,0.1,0.3,0.3,0.4,0.4c0.6,0.2,1.1,0.9,1,1.6c-0.1,0.5-0.1,1-0.3,1.5
			c-0.2,0.5-0.4,1.1-0.3,1.7c0.1,0.5,0.3,0.7,0.8,0.5c1.2-0.6,1.5-1.3,1.3-2.6c-0.1-0.8-0.3-1.6,0.2-2.4c0.1-1.9,0.4-3.8,1.2-5.5
			c0.1-0.3,0.3-0.6,0.4-0.9c0.3-0.5,0.7-0.8,1.1-1.1c0.1-0.1,0.3-0.2,0.4-0.4c0.2-0.6,0.7-0.7,1.3-0.6c0.8,0.1,0.8,0.8,1.1,1.4
			c-0.1,0.4,0.1,0.7,0.1,1.1c-0.5,0.2-0.4,0.7-0.5,1c-0.1,0.3,0,0.6-0.3,0.9c-0.2,0.3-0.2,0.8,0,1.1c-0.5,1.2-0.5,2.5-1.1,3.7
			c-0.2,0.3,0,0.5,0.2,0.7c-0.1,0.7-0.5,1.3-0.5,2c0,1.1,0.5,1.5,1.5,1.3c0.5-0.1,1.1-0.3,1.5-0.5c0.2-0.1,0.2-0.4,0.6-0.4
			c-0.1,0.6,0.1,1.2-0.3,1.7c-0.3,0.4-0.5,0.8-0.8,1.2c-0.2,0.2-0.4,0.4-0.5,0.5c-1.5,0.2-2.9-0.1-4-1.2c-0.2-0.2-0.4-0.4-0.3-0.6
			C38.5,21.6,38.1,22.2,37.8,22.9z"/>
		<path class="st1" d="M43.2,15c-0.4,0.7-0.7,1.4-1,2.2c-0.1,0.2-0.2,0.5-0.4,0.6c-0.1-0.3-0.1-0.5,0-0.8c0.4-0.9,0.6-1.9,0.6-2.9
			c0-0.3,0.1-0.5,0.2-0.8c0.6-0.7,0.7-1.5,0.8-2.4c0-0.2,0.1-0.5,0-0.8c-0.1-0.4,0-0.7,0.3-0.9c0.8,1.1,1,2.4,0.4,3.6
			C43.8,13.6,43.5,14.3,43.2,15z"/>
		<path class="st1" d="M42.7,7.9C42.3,8,42,8.1,42.1,8.6c0,0.3-0.2,0.4-0.4,0.5c-0.5,0.4-1.2,0.5-1.7,0.9c0.3-0.8,0.8-1.4,1.3-2
			c0.3-0.4,0.7-0.2,1-0.2C42.4,7.8,42.6,7.9,42.7,7.9z"/>
		<path class="st2" d="M44.3,23c0.1-0.5,0.2-1.1,0.8-1.2C45.1,22.3,44.8,22.7,44.3,23z"/>
		<path class="st3" d="M20,5.7c0.7,0.3,1.5,0.1,2.2,0.4c0.1,0.3,0.3,0.5,0.4,0.8c0.2,0.7-0.4,0.9-0.7,1.3c-1.1-0.4-1.9-0.1-2.7,0.8
			c-0.9,0.9-1.5,1.9-1.9,3.1c-0.1,0.3-0.2,0.6,0.2,0.7c0.4,0.4,0.5,0.8,0,1.2c-0.1,0.1,0,0.2,0,0.3c-0.9,0.5-1,1.4-1,2.4
			c0,1.9,0.5,3.7,0.8,5.6c0.2,1.2,0.3,1.3,1.6,1.4c0.4,0.3,0.7,0.7,0.9,1.2c-0.3,1.4-1.8,2-3,1.2c-0.1-0.1-0.2-0.2-0.1-0.4
			c-0.2-0.1-0.4-0.2-0.5-0.3c-0.6-0.3-1.3-0.6-1.5-1.4c-0.5-0.9-1.1-1.7-1.4-2.7c-0.6-1.9-1-3.7-0.8-5.7c0-0.2,0-0.3,0-0.5
			c-0.1-0.1-0.3-0.1-0.5-0.1c-0.3,0.1-0.6-0.1-0.7-0.4c-0.1,0-0.1,0-0.2-0.1c-0.6-0.4-1.1-0.8-1.5-1.5c-0.1-0.2-0.3-0.5,0.1-0.7
			c0.3-0.2,0.3,0.2,0.4,0.4c0.4,0.8,0.9,1.4,1.9,1.5c0.4,0,0.6-0.1,0.6-0.5c0.2-2,0.7-3.9,1.6-5.7c0.3-0.7,0.8-1.2,1.6-1.3
			c0.4-0.7,1.2-0.9,1.9-1c0,0,0.1,0,0.1,0c0.6-0.3,1.3-0.4,1.9-0.2C19.8,5.7,20,5.6,20,5.7z"/>
		<path class="st4" d="M24.3,12.4c0.4,0,0.7,0.1,1.1,0c0.7-0.1,1.2,0.3,1.6,0.8c0.1,0.2,0.1,0.4,0.4,0.4c0.2,0,0.3-0.1,0.5-0.2
			c0.4,0.1,0.9-0.1,1,0.5c0.6,1.1,0.8,2.2,0.6,3.4c-0.1,0.7,0.1,1.5,0.1,2.2c0,0.5,0.3,0.5,0.7,0.3c0.2-0.1,0.3-0.2,0.5-0.3
			c0.8,0.5,0.8,0.7,0.1,1.4c-0.4,0.4-1,0.7-0.6,1.4c0,0.2-0.1,0.4-0.1,0.6c-0.1,0.5-0.4,0.8-0.9,0.8c-0.7,0.1-1.2-0.3-1.7-0.8
			c-0.4-0.5-0.8-1-1.2-1.5c-0.4-0.4-0.4-0.9-0.6-1.4c0,0.2,0,0.4,0,0.5c-0.2,0.5-0.2,1-0.3,1.5c-0.1,0.6-0.5,1-1.2,1
			c-1.1,0.1-1.9-0.4-2.5-1.3C21.5,21,20.9,20,20.7,19c-0.1-0.3-0.2-0.4-0.4-0.4c-0.2-0.1-0.3-0.3-0.4-0.4c-0.3-0.5-0.6-0.5-1-0.2
			c-0.1,0-0.2,0-0.3,0.1c-0.9,0.1-1.2-0.1-1.4-0.8c-0.1-0.4,0.5-1,1.2-1.1c0.4-0.1,0.9-0.1,1.3,0c0.7,0.1,1.1-0.2,1.4-0.7
			c0.1-0.2,0.2-0.5,0.5-0.7c0.4,0.1,0.6,0,0.8-0.4c0.1-0.3,0.5-0.5,0.7-0.7c0.2-0.3,0.5-0.5,0.6-0.9C23.9,12.4,24.1,12.4,24.3,12.4z
			"/>
		<path class="st5" d="M22.4,11c-0.4,0.9-1.1,1.4-2,1.8c-1.1,0.5-2.1,1.1-3.2,1.3c-0.3-0.1-0.3-0.2,0-0.3c0.3-0.1,0.5-0.3,0.2-0.6
			c-0.2-0.3,0.1-0.4,0.3-0.5c0.6-0.3,1.2-0.6,1.8-0.9c0.7-0.3,1.2-0.9,1.4-1.7c0.1-0.5,0.3-1,0.5-1.6c0.1-0.3,0.2-0.5,0.5-0.7
			c0.3-0.3,0.6-0.6,0.9-1c0.5,0.6,0.7,1.1,0.3,1.9C22.7,9.5,22.6,10.3,22.4,11z"/>
		<path class="st6" d="M21.9,14.9c0.4-1.2,1.5-1.8,2.3-2.6c0,0,0.1,0.1,0.1,0.1c-0.4,1-1.4,1.5-1.9,2.4C22.3,15,22.1,15.1,21.9,14.9
			z"/>
		<path class="st7" d="M33.5,11.3c0.7,0,1.3,0.2,1.8,0.6c0.2,0.1,0.2,0.4,0,0.6c-0.2,0.2-0.4,0.2-0.6,0.1c-0.5-0.4-0.9-0.8-1.3-1.1
			C33.5,11.4,33.5,11.3,33.5,11.3z"/>
		<path class="st4" d="M59.6,56.9c-0.3-0.1-0.4-0.4-0.7-0.5c-0.6-0.3-1-0.8-1.2-1.4c-0.3-0.7-0.6-1.4-0.7-2.2c0-0.3-0.1-0.6-0.1-0.8
			c0-0.1,0.1-0.2,0.2-0.4c0-2,0.1-4,0.6-6c0.1-0.5,0.3-1,0.4-1.5c-0.2-0.1-0.3,0.1-0.4,0.1c0,0-0.1,0-0.1,0.1
			c-0.5,0.6-0.5,0.6-0.9,0c-0.2-0.3-0.4-0.3-0.7-0.2c-0.5-0.3-0.7-0.8-0.8-1.3c0-0.2,0-0.3-0.2-0.4c-0.2-0.1-0.3,0.1-0.4,0.2
			c-0.8,0.8-1.6,1.6-2,2.7c-0.2,0.4-0.3,0.9-0.3,1.3c0,0.4,0.2,0.7,0.6,0.7c0.4,0.1,0.3,0.4,0.4,0.6c0,0.2-0.3,0.3-0.4,0.3
			c-0.5,0.1-1,0.2-1.4,0.4c-0.3,0.1-0.5-0.1-0.6-0.4c0-0.3,0-0.7,0.4-0.9c-0.3,0.3-0.5,0.3-0.7-0.2c-0.2-0.4-0.5-0.8-0.6-1.2
			c-0.1-0.4-0.2-0.7,0-1.1c0.1-0.1,0.1-0.1-0.1-0.4c-0.2-0.5-0.2-0.9,0.1-1.4c0.4-0.5,0.6-1.1,0.7-1.7c0-0.2,0.1-0.3,0.3-0.4
			c0.4-0.1,0.7-0.4,0.9-0.7c0.4-0.7,1-1,1.7-1.3c0.3-0.2,0.7-0.3,0.9-0.7c0.4-0.8,1.6-0.8,2.1,0c0,0.1,0.1,0.1,0.1,0.2
			c0.1,0.2,0.3,0.3,0.5,0.3c0.2,0,0.4,0.1,0.4,0.4c0,0.2-0.2,0.3-0.4,0.4c-0.4,0.2-0.4,0.6,0.1,1.2c0.1-0.1,0.1-0.3,0.1-0.5
			c0-0.3,0.3-0.3,0.4-0.3c0.2,0,0.3,0.1,0.4,0.3c0,0.1,0,0.2,0,0.3c0,0.2,0,0.4,0.2,0.5c0.2,0.1,0.3-0.1,0.4-0.2
			c0.3-0.3,0.3-0.7,0.4-1.1c0-0.1,0-0.2,0.1-0.3c0.4-0.8,0.5-1.8,0.9-2.6c0.1-0.2,0.1-0.5,0.3-0.6c0.3,0.1,0.4,0,0.5-0.4
			c0.4-0.9,0.6-1.8,1.1-2.6c0.1-0.2,0.2-0.4,0.4-0.4c0.6-0.1,1.1-0.5,1.6-0.8c0.5-0.2,1-0.1,1.3,0.4c-0.1,0.4-0.3,0.8-0.6,1.2
			c-0.5,0.8-0.8,1.7-1.1,2.6c-0.1,0.2-0.1,0.4-0.3,0.6c-0.2,0.3-0.1,0.5,0.1,0.8c0,0.1,0,0.1,0,0.2c-0.6,0.3-0.2,0.9-0.4,1.3
			c-0.1,0.1,0.1,0.2,0,0.3c-0.1,0.3-0.1,0.7-0.4,0.9c-0.7,2.3-1.2,4.7-1.9,7.1c-0.4,1.3-0.5,2.6-0.6,3.9c-0.1,1,0,2,0.1,3
			c0,0.3,0.1,0.6,0.4,0.7c0.1,0.2,0.3,0.3,0.5,0.3c0.2-0.1,0.3,0.1,0.3,0.3c0.1,0.5-0.6,1.4-1.2,1.4c-0.1,0-0.1,0-0.2,0
			c-0.2,0-0.3-0.1-0.4-0.3C59.9,56.9,59.8,57,59.6,56.9z"/>
		<path class="st8" d="M55.9,43.8c0.3,0,0.5,0.1,0.7,0.3c0.3,0.4,0.6,0.4,1,0.2c-0.4,0.9-0.6,1.9-1,2.7c-0.7,0.8-1.4,1.8-2.4,2.4
			c-0.4,0.2-0.7,0.5-1.2,0.4c-1.3,0.1-2.1-0.6-2.6-1.7c-0.4-0.8-0.9-1.6-0.9-2.6c-0.2-0.3,0.1-0.7,0.1-1c0-0.1,0.2-0.3,0.4-0.1
			c0.4,0.2,0.6,0.4,0.1,0.8c-0.1,0-0.1,0.2-0.1,0.2c0.6,0.3,0.2,1,0.6,1.4c0.2,0.2,0.2,0.5,0.5,0.4c0.3,0,0.2-0.4,0.4-0.6
			c0.1,0.4,0.1,0.7-0.1,1c-0.1,0.1-0.2,0.4-0.1,0.6c0.1,0.2,0.4,0,0.5,0c0.3,0,0.5-0.1,0.8-0.1c0.1,0,0.4,0,0.2-0.3
			c-0.2-0.4,0.1-0.4,0.3-0.4c1.2-0.2,2-0.9,2.6-1.8c0.3-0.4,0.4-0.8,0.2-1.3C55.8,44,55.7,43.9,55.9,43.8z"/>
		<path class="st9" d="M50,44.4c-0.3,0.3-0.5,0.7-0.5,1.1c-0.3-0.9-0.1-1.8,0-2.7c-0.1-0.2-0.1-0.3,0.1-0.4c0.1-0.3,0.3-0.6,0.4-0.9
			c0.8-1.2,1.7-2.3,2.8-3.1c0.3-0.2,0.6-0.3,0.9-0.5c0.2-0.3,0.7-0.3,1-0.5c0,0,0-0.1,0.1-0.1c0.7-0.4,2.5,0.6,2.5,1.4
			c-0.4,0.4-0.7,0.1-1.1,0c-0.4-0.6-1.2-0.7-1.7,0c-0.1,0.2-0.3,0.4-0.5,0.4c-0.6,0.1-0.9,0.7-1.6,0.9c-0.3,0.1-0.7,0.7-0.8,1.2
			c0,0.1,0,0.3-0.2,0.3c-0.5,0.2-0.7,0.4-0.8,1c0,0.2,0,0.3-0.2,0.4C49.9,43.3,49.8,43.8,50,44.4z"/>
		<path class="st10" d="M38.5,49.6c0.2-0.2,0.4-0.3,0.7-0.4c0.6-0.3,1.3-0.3,2-0.4c0.1,0,0.1,0.1,0.2,0.2c0,0,0,0.1,0,0.1
			c-0.1,0.3-0.2,0.6-0.6,0.8c-0.5,0.3-0.5,0.9-0.1,1.2c0.2,0.1,0.2,0.2,0.1,0.4c-0.1,0.3-0.3,0.7-0.6,0.9c-1.5,0.9-2.4,0.8-3.5-0.2
			c0.1-0.2,0-0.3,0.3-0.4c0.4-0.1,0.5-0.4,0.2-0.8c-0.3-0.4-0.2-0.6,0.3-0.6C38,50.3,38.2,49.9,38.5,49.6z"/>
		<path class="st11" d="M40.8,51.5c-0.3-0.1-0.3,0.4-0.6,0.3c0.1-0.6-0.3-1-0.3-1.6c0-0.3,0-0.4,0.2-0.4c0.5-0.1,0.9-0.3,1.2-0.7
			c0,0,0.1,0.1,0.1,0.1C41.1,50,41,50.8,40.8,51.5z"/>
		<path class="st11" d="M53,49.7c0.5-0.1,0.7-0.5,1.1-0.7c0.3-0.2,0.6-0.4,0.9-0.6c0.4-0.2,0.6-0.5,0.7-0.9c0.1-0.5,0.4-0.7,0.9-0.5
			c-0.7,1.3-1.5,2.5-3.1,2.8C53.3,49.8,53.1,49.8,53,49.7z"/>
		<path class="st3" d="M68,49.6c-0.8-0.2-1.1-0.9-1.3-1.6c-0.6-0.6-0.5-1.5-0.7-2.2c-0.1-0.5,0-1,0-1.5c0-0.3,0-0.5-0.2-0.7
			c-0.2-0.2-0.4-0.1-0.6,0c-0.6-0.1-1.3-0.1-1.9-0.5c0-0.5,0.2-0.7,0.7-0.7c0.4,0,0.8,0.1,1.1-0.2c0-0.1,0.1-0.1,0.1-0.1
			c0.2-0.1,0.4,0,0.6,0c0.2,0,0.3-0.2,0.5,0c0.2,0.2,0.4-0.1,0.6-0.1c0.2,0,0.4-0.1,0.4-0.3c0.2-0.7,0.3-1.4,0.6-2.1
			c0.1-0.2,0.1-0.5,0-0.7c-0.3-0.5-0.3-0.7,0.1-1.3c0.9-0.3,1.2,0.5,1.6,0.9c0.6,0.7,1,1.6,0.7,2.5c-0.1,0.3-0.1,0.7-0.2,1
			c0,0.1,0,0.2,0.1,0.3c0.4,0.4,0.3,0.5-0.1,0.9c-0.2,0.1-0.3,0.3-0.3,0.5c-0.2,0.9-0.4,1.9-0.6,2.9c-0.1,0.7,0.2,0.8,0.8,0.6
			c0.4-0.1,0.8-0.4,1.2-0.5c0.4-0.2,0.6-0.6,0.7-1c0.1-0.7,0.1-1.4,0.3-2.1c0-0.2,0.1-0.3,0-0.5c-0.1-0.2-0.1-0.4-0.4-0.3
			c-0.2,0.1-0.6,0-0.7-0.2c-0.2-0.2,0-0.5,0.2-0.7c0.5,0,1,0.2,1.5,0c0.7,0.2,0.9-0.4,1.2-0.7c0.5-0.3,1-0.7,1-1.4
			c0-0.3,0.3-0.2,0.5-0.2c0.2,0.2,0.4,0.3,0.6,0.5c-0.1,0.4,0,0.7,0,1.1c0.2,0.9,0.1,1.8-0.3,2.6c-0.1,0.3-0.2,0.4,0.1,0.6
			c0,0.6-0.5,0.9-0.6,1.3c-0.1,0.1,0,0.1,0,0.1c0,0,0,0,0,0c0.1-0.1,0.2-0.3,0.3-0.1c0.6,0.4,0.7,1.5,0.2,2
			c-0.2,0.2-0.4,0.5-0.6,0.7C75,48.4,75,48.6,75,48.9c0.1,0.4-0.1,0.7-0.1,1.1c0,0.2-0.2,0.3-0.4,0.3c-0.2,0-0.5,0-0.6,0.3
			c-1-0.4-1.3-1.3-1.5-2.2c0-0.2,0-0.4-0.1-0.5c-0.4-0.1-0.6,0.2-0.9,0.2c-0.5,0.1-1,0.4-1.3,0.9c-0.3,0.5-0.8,0.7-1.5,0.6
			C68.5,49.6,68.3,49.7,68,49.6z"/>
		<path class="st3" d="M80.7,50.9c0,0.4-0.1,0.7-0.1,1.1c0,0.3-0.2,0.5-0.5,0.6c-0.3,0.1-0.7,0-0.9-0.2c-0.5-0.5-0.8-1-0.9-1.7
			c0-0.6-0.2-1.1-0.5-1.6c-0.1-0.2-0.2-0.3,0.1-0.4c0.1-0.3,0.2-0.7,0.2-1.1c0-0.2,0-0.4,0.1-0.5c0.1-0.1,0.2-0.3,0.2-0.4
			c0-0.7,0.3-1.3,0.5-2c0.1-0.3,0.1-0.5,0.3-0.7c0.2-0.3,0.3-0.7,0.2-1.1c0-0.2-0.1-0.4-0.4-0.5C78,42,78,42,78,41.2
			c0-0.2,0.2-0.4,0.2-0.5c0.2-0.3,0.4-0.3,0.7-0.2c1.1,0.5,2,1.2,2.7,2.1c0.2,0.3,0.5,0.7,0.8,0.9c0.2,0.3,0,0.5-0.1,0.7
			c-0.1,0.3-0.4,0.6-0.5,0.9c0,0.3-0.4,0.6,0,0.9c0.1,0.1,0,0.3-0.1,0.4c-0.2,0.6-0.3,1.2-0.3,1.9c0,0.5,0,1-0.4,1.5
			C80.9,50.2,81.1,50.7,80.7,50.9z"/>
		<path class="st6" d="M65.9,43.2c-0.8,0.9-1.1,2.1-1.8,3c-0.5,0.7-1.2,1.1-1.8,1.7c-0.7,0.7-0.7,0.7,0.1,1.3
			c0.1,0.1,0.3,0.2,0.4,0.3c0.3,0,0.5,0.1,0.5,0.5c0,0.5,0.2,1.1,0.3,1.6c0,0.2,0,0.4,0,0.6c0.1,0.4,0.2,0.9,0.3,1.3
			c0,0.4-0.1,0.8-0.2,1.2c-0.3,0.1-0.3,0.4-0.3,0.7c-0.1,0.2-0.2,0.4-0.3,0.6c-0.1,0.1-0.2,0.1-0.3,0.2c-0.2,0.1-0.3,0.1-0.4-0.1
			c-0.1-0.1-0.2-0.3-0.1-0.4c0.4-0.4,0.4-0.9,0.6-1.4c0-0.1,0.1-0.1,0-0.2C62.2,54,62,53.7,62,53.2c0-0.2-0.1-0.4-0.2-0.5
			c-0.3-0.2-0.3-0.4-0.3-0.7c0.1-0.9-0.2-1.7-0.9-2.3c-0.3-0.2-0.2-0.5-0.2-0.7c0.2-0.5,0.4-0.9,0.8-1.2c1.2-1.1,2.4-2.3,3.2-3.8
			c0.2-0.3,0.5-0.5,0.8-0.7C65.5,43.3,65.7,43.2,65.9,43.2z"/>
		<path class="st12" d="M73.9,50.5c-0.1-0.2-0.1-0.4,0.2-0.5c0.7-0.2,0.8-0.7,0.6-1.2c-0.3-0.7,0.2-1,0.5-1.4c0.4-0.5,0.6-1,0.4-1.7
			c-0.2-0.2-0.1-0.4,0.1-0.6c0.6-0.8,1.1-1.8,1.8-2.5c0-0.1,0.1-0.1,0.2-0.1c0.3,0,0.6,0.1,0.8,0.1c0.5-0.1,0.6,0.2,0.7,0.6
			c0.1,0.4-0.1,0.5-0.5,0.6c-0.4,0.1-0.6,0.3-0.4,0.7c0.1,0.3,0.2,0.6-0.1,0.8c-0.5,1-1.1,2.1-1.6,3.1c-0.3,0.5-0.5,1.1-0.8,1.6
			C75.5,50.5,74.7,50.7,73.9,50.5z"/>
		<path class="st13" d="M61.8,52.1c0.1,0.3,0.2,0.6,0.5,0.8c0.1,0,0.2,0.1,0.2,0.2c-0.3,0.9,0.5,0.8,1,0.9c-1,0.2-0.4,1.3-1,1.7
			c-0.2,0.1,0.3,0.2,0.4,0.3c-0.8,1.3-2.4,1.8-3.3,1c0-0.3-0.3-0.4-0.4-0.6c0.4-0.2,0.7-0.2,1,0.3c0.1,0.2,0.4,0.2,0.6,0
			c0.3-0.2,0.4-0.5,0.4-0.7c0-0.3-0.4-0.1-0.6-0.3c-0.1-0.1-0.2-0.3,0-0.4c0.7-0.7,0.7-1.5,0.8-2.4C61.5,52.6,61.4,52.2,61.8,52.1z"
			/>
		<path class="st6" d="M78.1,45.2C78,45,78,44.8,77.9,44.6c-0.3-0.7,0-1.2,0.8-1.4c-0.1-0.3-0.4-0.3-0.6-0.2c-0.5,0.3-0.5,0-0.5-0.3
			c-0.3-0.7-0.1-1.3,0.6-1.5c0,0.5,0.2,0.8,0.7,0.6c0.3-0.1,0.4,0.1,0.5,0.3c0.2,0.7,0.2,1.3-0.1,2c-0.3,0.7-0.7,1.3-0.6,2.1
			c0,0.4,0.1,0.9-0.5,1.1c-0.2,0.1-0.1,0.2-0.1,0.4c0,0.3-0.2,0.6-0.4,0.9C77.9,47.4,78,46.3,78.1,45.2z"/>
		<path class="st11" d="M68,49.6c0.2-0.2,0.4-0.2,0.7-0.2c0.8,0,1.1-0.3,1.3-1c0-0.1,0-0.2,0.1-0.2c0.6-0.5,1.4-0.7,2.2-0.3
			c-0.5,0.3-1,0.7-1.4,1.1c-0.5,0.5-1.2,0.7-1.8,0.9C68.7,49.9,68.4,49.8,68,49.6z"/>
		<path class="st13" d="M63.3,55.3c-0.1-0.3-0.4-0.7,0.3-0.7C63.5,54.9,63.4,55.1,63.3,55.3z"/>
		<path class="st11" d="M89.4,48.5c0.1-0.1,0.2-0.3,0.3-0.4c0.1-0.1-0.2-0.6,0.3-0.4c0.1,0.3-0.2,0.6-0.1,0.9
			c-0.1,0.2-0.2,0.4-0.3,0.6c-0.3,1-1.1,1.5-1.9,2.1c-0.4,0.3-1,0.4-1.3,0.9c-0.1,0.1-0.2,0.1-0.3,0.1c-0.1-0.1-0.2-0.1-0.4,0
			c-0.4,0.2-0.6-0.1-0.7-0.4c0,0-0.1-0.1-0.1-0.1c0-0.3-0.2-0.6-0.1-0.9c0.1-0.1,0.1-0.3,0.3-0.3c0.2,0,0.3,0.1,0.4,0.2
			c0,0.1,0.1,0.1,0.1,0.2c0.2,0.4,0.4,0.5,0.7,0.1c0.3-0.3,0.9-0.4,0.9-1c0-0.2,0.3-0.2,0.4-0.3C88.3,49.4,88.8,48.8,89.4,48.5z"/>
		<path class="st14" d="M10,48c0-0.5,0.1-1.1,0.1-1.6c0.3-1.3,0.6-2.6,1.1-3.9c0.1-0.1,0.1-0.3,0.2-0.4c0.3-0.5,0.2-0.9-0.2-1.3
			c-0.3-0.3-0.5-0.6-0.5-1.1c0.8-0.2,1,0.4,1.3,0.8c0.6,0.1,1.1-0.3,1.4-0.9c0.2-0.5,0.6-1,0.5-1.6c0-0.1,0.1-0.1,0-0.2
			c0.6-0.3,0.7-0.8,1-1.3c0.9-1.3,2.3-2.1,3.3-3.4c0.4-0.5,1-0.6,1.6-0.7c0.2,0,0.5,0,0.5-0.3c0.1-0.4,0.4-0.3,0.7-0.2
			c0.4-0.1,0.7,0.3,1.1,0.3c0.4,0.3,0.9,0.4,1.2,0.9c0.2,0.2,0.2,0.4,0.2,0.7c0,0.2,0,0.4-0.3,0.4c-0.4,0-0.5,0.1-0.6,0.4
			c-1.1,1.2-2,2.5-3.2,3.6c-0.9,0.9-1.5,2.1-2.2,3.2c0,0.1,0,0.2,0,0.2c0.2,0.4-0.2,0.7-0.2,1.1c-1.7,1-2,2.7-2.5,4.4
			c-0.3,0.8-0.3,1.7-0.3,2.6c0,1.3,0.4,2.5,1.2,3.6c0.1,0.2,0.2,0.4,0.5,0.4c0.3,0,0.3-0.3,0.4-0.5c0.1-0.2,0.1-0.5,0.5-0.5
			c0.6,0.1,0.6,0.6,0.7,1c0,0.5,0,0.9,0.2,1.4c0.2,0.6-0.2,1-0.9,1.1c-0.3,0-0.5,0-0.8,0.1c-0.5-0.1-0.9-0.3-1.3-0.5
			c-0.7-0.6-1.5-1.1-2.2-1.8c-0.7-0.7-1.2-1.4-1.6-2.2c-0.4-0.4-0.6-0.9-0.6-1.5c0-0.1-0.1-0.3-0.1-0.4"/>
		<path class="st13" d="M20.5,32.4c0,0.3-0.2,0.4-0.5,0.4c-0.8,0.1-1.5,0.5-1.9,1.2c-0.2,0.4-0.7,0.6-1.1,1c-0.4,0.3-0.6,0.8-0.9,1
			c-0.6,0.3-0.3,1.2-1,1.2c0,0,0,0.1-0.1,0.2c-0.1,0.2-0.1,0.4-0.2,0.4c-0.9,0.7-0.9,1.9-1.6,2.7c-0.4,0.4-0.7,0.5-1.2,0.1
			c0.3-0.4,0.5-0.8,0.7-1.2c0.2,0,0.2-0.1,0.2-0.3c0.7-1.1,1.5-2.2,2.3-3.2c0.8-0.9,1.5-1.9,2.4-2.7c0.2-0.2,0.3-0.6,0.7-0.6
			c0.4,0,0.5-0.5,0.8-0.5c0.3,0,0.5,0.1,0.8-0.2c0.1-0.1,0.3-0.1,0.5,0C20.5,32.1,20.6,32.2,20.5,32.4z"/>
		<path class="st9" d="M20.5,32.4c-0.2-0.1-0.4-0.3-0.6-0.2c-0.3,0.2-0.5,0.1-0.8-0.1c0.2-0.1,0.4-0.1,0.5-0.2
			c0.5-0.3,1-0.3,1.4,0.1C20.9,32.2,20.8,32.4,20.5,32.4z"/>
		<path class="st15" d="M11.2,14.7c0.4,0.2,0.9,0.1,1.2,0.5"/>
		<path class="st0" d="M84.2,49.5c-0.2-1.2-0.2-2.3,0-3.5c0.2-0.6,0.5-1.2,0.8-1.8c0.2-0.2,0.4-0.5,0.3-0.8c-0.1-0.6,0.3-1,0.9-0.9
			c0.1,0.1,0.4,0.1,0.3,0.4c0.1,0.1,0.2,0.2,0.3,0.3c0.4-0.1,0.3,0.3,0.5,0.5c0.5,0.7,0.3,1.4,0.1,2c-0.3,1-0.4,2.1-0.6,3.1
			c-0.1,0.7,0,0.9,0.8,0.8c0.2,0,0.3,0.1,0.3,0.2c-0.4,0.4-0.5,0.9-1,1.1c-0.3,0.1-0.6,0.4-0.6,0.9c-0.5-0.3-0.8-0.6-1.1-1.1
			c-0.3,0.2-0.1,0.5-0.3,0.7c-0.1-0.2-0.3-0.4-0.4-0.6l0,0C84.6,50.5,84.2,50,84.2,49.5z"/>
		<path class="st3" d="M38.7,42c-0.1,0.6-0.6,1.2-0.3,2c-0.6,1.2-0.7,2.5-0.8,3.7c-0.1,0.7,0,1.3,0,2c0,0.2,0,0.4,0.1,0.5
			c0.2,0.1,0.3-0.2,0.4-0.3c0.1-0.1,0.3-0.2,0.4-0.3c-0.2,0.5-0.5,0.9-1,1.1c0.7,0.7,0.3,1.6-0.8,1.6c-0.5-0.3-0.8-0.9-1-1.4
			c-0.3-0.7-0.6-1.4-0.7-2.1c-0.6-0.1-0.6-0.7-0.9-1c0.1-0.3,0.3-0.5,0.3-0.7c0.1-0.6,0.2-1.2,0.2-1.9c0-0.1,0-0.1,0-0.2
			c0.1-0.2,0-0.4,0.2-0.5c0.6,0,0.5-0.4,0.5-0.8c0.1-0.6,0.3-1.1,0.5-1.7c0.2-0.5,0.3-1,0.7-1.4c0.1-0.1,0.1-0.2,0.1-0.3
			c-0.1-0.8,0.3-1.5,0.7-2.2c0.3-0.4,0.3-0.9,0.4-1.3c0.1-0.4,0.2-0.6,0.7-0.6c0.2,0,0.3,0,0.4-0.2c0.3-0.5,0.6-0.5,0.9-0.1
			c0.1,0.1,0.2,0.2,0.3,0.4c-0.2,0.6-0.4,1.2-0.2,1.8c0,0.1,0,0.1-0.1,0.2c-0.3,0.3-0.3,0.6-0.3,0.9c-0.1,0.8,0,1.5-0.3,2.3
			C39,41.6,39,41.9,38.7,42z"/>
		<path class="st4" d="M31.4,50.4c-1.3-1.1-1.7-2.4-1.6-4c0.1-0.2,0-0.4-0.1-0.5c-0.2-0.5,0-0.9,0.3-1.2c0.6-0.4,0.7-1.2,1.1-1.8
			c0.1-0.3,0.1-0.6-0.1-0.8c-0.4-0.5-0.3-0.7,0.3-1c0.3,0.2,0.7,0.1,1,0.3c0.4,0.2,0.7,0.3,0.8,0.7c0,0.1,0.1,0.2,0.2,0.3
			c0.8,0.6,1.1,1.4,0.8,2.4c-0.3,0.9-0.5,1.7-0.8,2.6c-0.1,0.3-0.2,0.5,0,0.8c0.1,0.3,0.6,0.2,0.6,0.5c0.1,0.4,0,0.6-0.3,0.8
			c-0.4,0.3-0.9,0.5-1.4,0.8C32,50.8,31.8,50.5,31.4,50.4z"/>
		<path class="st9" d="M32.4,50.6c-0.1-0.1-0.2-0.1-0.3-0.2c0.6-0.2,0.9-0.8,1.5-0.9c0.1,0,0.1-0.6-0.2-0.8c-0.3-0.3,0-0.5,0.2-0.7
			c0.2-0.2,0.3-0.6,0.8-0.3c0.3,0.3,0.6,0.6,0.6,1c-0.3,0.1-0.4,0.4-0.5,0.6C34,50,33.3,50.5,32.4,50.6z"/>
		<path class="st16" d="M10,48c0.1,0.6,0.1,1.2,0.2,1.8"/>
		<path class="st14" d="M25.9,43.3c0.5,0.3,1.1,0.4,1.6,0.8c0.5,0.5,1.1,1,1.4,1.6c0.1,0.2,0.2,0.2,0.3,0.3c0.2,0.1,0.3,0.4,0.2,0.5
			c-0.2,0.6-0.2,1.2-0.3,1.8l0,0c-0.2,0.4-0.3,0.9-0.8,1.2c-0.2,0.1-0.3,0.4-0.3,0.7c-0.2,0.2-0.5,0.4-0.5,0.7
			c-0.1,0.4-0.2,0.9-0.7,1c-0.6,0.1-1.1-0.2-1.5-0.6c-0.2-0.2-0.2-0.5-0.5-0.6c-0.1-0.4-0.5-0.6-0.6-1c-0.6-0.4-0.5-1.5-0.2-2.2
			c0-0.1,0-0.2,0.1-0.2c0.5-0.4,0.5-1,0.6-1.5c0.1-0.3,0.1-0.5,0.3-0.7c-0.1,0-0.1,0.1-0.2,0.1c-0.8,0.2-1.1,0.7-0.9,1.4
			c0.1,0.3,0.1,0.5-0.1,0.7c-0.3,0.2,0,0.5,0,0.7c0,0.1-0.1,0.1-0.1,0.2c-0.6,0-0.9,0.4-1.1,1.1c-0.1,0.5,0.1,1-0.3,1.4
			c-0.1,0.1,0.1,0.2,0.2,0.4c0,0.2-0.2,0.3-0.3,0.5c-0.9,0.3-1.7,0-2.3-0.9c-0.3-0.5-0.5-1.1-0.9-1.5c-0.3-0.3-0.1-0.7-0.1-1
			c0-0.7-0.1-1.4-0.3-2c0-0.1,0-0.1,0.1-0.2c0-0.1,0.1-0.1,0.1-0.2c0.2-0.4,0.5-0.8,1-1c0.2-0.1,0.3-0.4,0.4-0.6
			c0.2-0.5,0.5-0.9,0.9-1.1c0.5-0.2,0.4-0.4,0.3-0.7c0-0.1-0.1-0.2-0.1-0.3c0-0.3,0.2-0.4,0.4-0.3c0.5,0.1,1,0.1,1.5,0.1
			c0.3,0.1,0.6,0.3,0.8,0.5c0.3,0.4,0.7,0.6,1.2,0.4"/>
		<path class="st11" d="M29.2,48.3c0-0.5-0.2-1.1,0-1.6c0.1-0.2,0-0.4-0.2-0.6c-0.1-0.3-0.2-0.5,0.1-0.8c0.2-0.4,0.4-0.9,0.4-1.3
			c0-0.3,0.3-0.5,0.6-0.3c0.2,0.9-0.3,1.8-0.5,2.7C29.5,47,29.4,47.6,29.2,48.3z"/>
		<path class="st6" d="M28.1,50.1c-0.2-0.4,0-0.8,0.3-1c0.4-0.2,0.6-0.5,0.8-0.8C29.2,49.1,28.7,49.7,28.1,50.1z"/>
		<path class="st13" d="M18.9,46c0,0.6,0.2,1.3,0,1.9c0,0,0,0,0,0.1c0.5,0.4,0.1,0.8,0,1.2c-0.4-0.4-0.1-1-0.4-1.5
			c-0.4,0.5-0.7,1-1,1.5c-0.2,0.2-0.2,0.5,0,0.7c0.3,0.3,0.4,0.5,0.2,0.9c-0.1,0.1,0,0.3,0,0.4c0.6,1.4,0.4,2.8,0.4,4.2
			c0,0.5-0.3,0.8-0.7,0.9c-0.5,0.1-1.1,0.2-1.6-0.1c-0.1-0.4,0.3-0.2,0.4-0.3c1-0.2,1.1-0.3,0.7-1.2C17,54.5,17,54.3,17,54.1
			c0.2-0.5,0-0.9-0.2-1.2c-0.2,0-0.3-0.2-0.3-0.3c-0.1-0.8-0.1-1.7-0.7-2.4c-0.1-0.2,0-0.5,0.1-0.7c0.8-1.1,1.5-2.2,2.4-3.3
			C18.4,46,18.6,45.6,18.9,46z"/>
		<path class="st14" d="M12.9,39.2c0,0.1,0.1,0.1,0.1,0.2c0,0.1,0.2,0.4,0,0.4c-0.3,0.1-0.2-0.2-0.3-0.4
			C12.8,39.3,12.8,39.2,12.9,39.2z"/>
		<path class="st14" d="M84.4,14.7c-0.8,0.1-1.1,0.7-1,1.4c0.1,1.7-0.4,3.2-0.8,4.8c-0.4,0.4-0.3,1-0.5,1.5
			c-0.1,0.3-0.3,0.6-0.5,0.8c-0.5,0.4-1,0.2-1.2-0.3c-0.1-0.2-0.2-0.5-0.4-0.7c-0.6-0.6-0.7-1.4-0.5-2.2c0-0.1,0-0.2,0-0.2
			c-0.1-1.2,0.3-2.3,0.2-3.5c0-0.3-0.1-0.4-0.4-0.5c-0.3-0.1-0.5-0.2-0.8-0.2c-0.2-0.9-0.1-1.1,0.7-1.3c0.5-0.2,1-0.3,1-0.9
			c0-0.1,0-0.1,0.1-0.2c0.4-0.6,0.4-1.3,0.5-1.9c0.1-0.6,0.1-1.3-0.2-1.9c-0.2-0.4-0.2-0.9-0.2-1.3c0-0.4,0.3-0.5,0.6-0.4
			c0.4,0.1,0.7,0.3,1.1,0.3c0.4,0.1,0.6,0.3,0.7,0.7c0.1,0.2,0.3,0.3,0.4,0.5c0.5,0.1,0.8,0.5,0.9,0.9c0.1,0.3,0.3,0.4,0.4,0.5
			c0.4,0.5,0.3,0.9-0.2,1.3c-0.4,0.3-0.5,0.8-0.7,1.2c0,0.4-0.2,0.7,0.5,0.7C84.6,13.7,84.7,14.3,84.4,14.7z"/>
		<path class="st14" d="M74.6,21.4c-0.7-0.3-1.2-1-1.9-1.2c-0.1,0-0.2,0-0.3,0c-0.6-0.4-0.9-1.1-1.2-1.7c0.2-0.6,0.6-0.7,1.2-0.7
			c0.5,0.3,1,0.2,1.6,0c0.2-0.1,0.3-0.3,0.2-0.5c0.2-0.3,0.3-0.6,0.3-1c0.2-0.5,0.1-1,0.1-1.5c-0.1-0.9-0.3-1.8-0.1-2.8
			c0-0.2,0-0.4-0.2-0.6c-0.2-0.2,0-0.4,0-0.6c0-0.6,0.5-0.4,0.8-0.5c0.2,0.1,0.3,0.2,0.5,0.3c0.7,0,0.8,0.6,1,1
			c0.5,1.3,0.7,2.6,0.8,3.9c0.2,1,0.2,1.9,0.2,2.9c-0.1,1.2-0.6,2.1-1.4,2.9C75.7,22,75.3,21.9,74.6,21.4z"/>
		<path class="st17" d="M64.8,5.9c0,1.5-0.7,2.6-1.7,3.6c-0.1,0.6-0.4,1-0.8,1.4c-1,1.1-2.2,2.1-3.6,2.7c-0.2,0.1-0.5,0.3-0.8,0.1
			c-0.1-0.1-0.1-0.2-0.1-0.2c0.2-0.6,0-1.3,0.3-1.8c0.7,0.1,1.1-0.5,1.6-0.9c0.6-0.6,1.1-1.2,1.8-1.7c0.3-0.2,0.2-0.5,0.3-0.7
			c0.2-0.2,0.4-0.3,0.7-0.4c0.2-0.1,0.4-0.2,0.6-0.3c0.2-0.2,0.6-0.4,0.5-0.8c0-0.4-0.5-0.5-0.8-0.6c-1.2-0.6-2.2,0.1-3.2,0.5
			C59.3,6.7,59,7,58.7,7.1c-0.3,0.1-0.7,0.2-0.8-0.3c0-0.3,0.1-0.4,0.3-0.6c1.1-1,2.5-1.1,3.7-1.6c0.3-0.1,0.6,0,0.9,0.1
			C63.2,5,63.6,5.2,64,5.2C64.4,5.3,64.6,5.6,64.8,5.9z"/>
		<path class="st5" d="M78.5,15.1c0.8-0.5,1-1.5,1-2.3c0-1.3,0.3-2.6,0.7-3.8c0.1-0.3,0.2-0.7,0.1-1c-0.1-0.6,0.2-0.8,0.7-0.9
			c0.3,0.4,0.8,0.5,1.3,0.7c0,0,0.1,0,0,0.1c0,0,0,0,0,0c-0.3,0.1-0.5,0.1-0.8,0c-0.5-0.1-0.6,0.1-0.6,0.5c0,0.2,0,0.4,0.1,0.5
			c0.6,0.8,0.4,1.7,0.4,2.5c0,0.7-0.2,1.4-0.8,1.9c-0.1-0.1-0.2-0.1-0.2-0.1c0,0,0.2,0.1,0.2,0.1c0.2,0.7-0.1,1.1-0.7,1.2
			c-0.6,0.1-0.8,0.4-1.1,0.9C78.4,15.5,78.6,15.2,78.5,15.1z"/>
		<path class="st18" d="M84.4,14.7c-0.1-0.3-0.2-0.6-0.6-0.7c-0.4-0.2-0.4-0.6-0.5-1c0.6-0.3,1.1,0.1,1.6,0.2
			c0.4-0.1,0.7-0.1,1.1-0.2c1,0,2.1-0.3,3.1,0c0.1,0,0.2,0,0.3,0c0.5,0.1,0.9,0.3,1.4,0.4c0.1,0.5-0.2,0.4-0.5,0.4
			c-0.7,0.1-1.5,0-2.1,0.4c-0.4,0.2-0.8,0.1-1.3,0.1c-0.6,0.1-1.1,0.2-1.7,0.3C85,14.6,84.7,14.6,84.4,14.7z"/>
		<path class="st9" d="M62.9,4.7c-0.9,0.2-1.8,0.6-2.7,0.7c-0.9,0.2-1.5,0.7-2.1,1.3c-0.1,0.5-0.6,0.6-0.9,0.9
			C57,8,56.7,8.2,56.5,8.5c-0.1,0.1-0.2,0.4-0.4,0.3c-0.2-0.1-0.3-0.3-0.2-0.5c0-0.1,0-0.2,0-0.2c1.5-2,3.5-3.2,6-3.6
			c0.3-0.1,0.5-0.1,0.8-0.1C62.7,4.5,62.8,4.6,62.9,4.7z"/>
		<path class="st19" d="M74.5,10.9c0,0.2,0.1,0.4,0.1,0.6c-0.2,0.2-0.1,0.6-0.2,0.8c-0.1,0.2-0.1,0.5-0.5,0.5
			c-0.1,0-0.1-0.1-0.1-0.2c0.2-0.6,0.4-1.3-0.2-1.8c-0.1-0.1,0-0.2,0-0.4c0.2-0.3,0.3-0.8,0.8-0.5c0.1,0.2,0.2,0.4,0.1,0.5
			C74.2,10.7,74.4,10.8,74.5,10.9z"/>
		<path class="st7" d="M74.5,10.9c-0.8-0.2-0.8-0.2-0.2-1.1c0.2,0.2,0.5,0.4,0.7,0.5C74.8,10.6,74.7,10.8,74.5,10.9z"/>
		<path class="st18" d="M39.7,36.2c-0.1-0.1-0.2-0.2-0.5-0.3c0.1,0.3,0.2,0.5-0.4,0.5c-0.7,0-1,0.4-0.9,1.1c0.1,0.3,0,0.5-0.3,0.7
			c-0.6,0.5-0.8,1.1-0.7,1.9c0,0.2,0.1,0.4,0,0.5c-0.4,0.4-0.6,0.8-0.8,1.3c-0.3,0.6-0.5,1.2-0.6,1.9c0,0.5-0.5,0.8-0.7,1.2
			c-0.1,0-0.2-0.1-0.2-0.2c0-0.6-0.1-1.3,0.2-1.9c0.5-1.1,0.6-2.3,1.1-3.5c0.3-0.7,0.6-1.4,0.7-2.2c0.2-1.1,0.4-2.1,1.1-3
			c0.3-0.3,0.6-0.4,1-0.5c0.4,0,0.8-0.3,1.3-0.4c0.1,0,0.2-0.1,0.3,0.1c0.7,0.3,1.5,0.6,1.9,1.3c0,0.1,0.1,0.2,0.1,0.2
			c0,0.3-0.1,0.6-0.3,0.8c0,0-0.1,0.1-0.1,0.1c-0.2,0-0.3-0.2-0.3-0.3c-0.2-0.4-0.5-0.4-0.8-0.1c-0.2,0.2-0.5,0.4-0.7,0.6
			C40.1,36.2,39.9,36.3,39.7,36.2z"/>
		<path class="st20" d="M55.8,8.1c0.1,0.1,0.3,0.4,0.4,0.1c0.3-0.4,0.7-0.6,0.9-1c0.2-0.4,0.5-0.5,0.9-0.4c0.3,0.1,0.6,0,0.8-0.2
			c0.6-0.5,1.3-0.6,2-1c0.5-0.2,1-0.2,1.5-0.1C62.9,5.7,63.3,6,63.9,6c0.3,0,0.3,0.2,0.3,0.4c-0.2,0.8-0.6,1.5-1.4,1.7
			c-0.2,0.1-0.4,0.2-0.6,0.3C61.8,8.8,61.4,9,61,9.3c-0.7,0.6-1.4,1.1-1.9,1.8c-0.2,0.4-0.6,0.5-0.9,0.8c0.5,0.6,0.1,1.1-0.2,1.5
			c0,0.1,0.1,0.2,0,0.4c-0.4,0.7-0.5,1.6-0.7,2.4c-0.2,0.7-0.3,1.5-0.2,2.2c0.2,1.5,0.4,3,1.2,4.3c0.2,0.3,0.3,0.5,0.5,0.7
			c0.4,0.4,0.7,0.4,1.1,0c0.3-0.3,0.4-0.7,0.4-1.1c0.1-0.3,0.1-0.6,0.6-0.6c0.5,0.1,0.8,0.5,0.9,1.2c0.1,0.8,0,1.6,0.3,2.3
			c0.1,0.4-0.3,1.5-0.7,1.6c-0.5,0.1-1,0.2-1.5,0c-0.2-0.1-0.4-0.1-0.6-0.1C58,26.4,57,24.7,56,24c-1.4-1.7-2.1-3.6-2.4-5.7
			c-0.2-1-0.2-2-0.2-3.1c0.4-1,0-1.6-0.9-2c-0.2-0.1-0.4-0.2-0.3-0.5c0.1-0.2,0.4-0.1,0.5-0.1c0,0,0.1,0,0.1,0
			c0.3,0,0.6,0.4,0.8,0.2c0.3-0.2,0.3-0.7,0.4-1.1c0.3-0.9,0.6-1.8,1.1-2.6C55.5,8.8,55.7,8.6,55.8,8.1C55.8,8.2,55.8,8.1,55.8,8.1z
			"/>
		<path class="st13" d="M79.4,15.6c0.6,0.1,0.8,0.4,0.7,1c-0.3,1.4-0.1,2.9-0.3,4.3c0,0.3,0.2,0.6,0.4,0.9c0.2,0.3,0.4,0.5,0.6,0.8
			c0.1,0.2,0.1,0.5,0.4,0.4c0.3,0,0.4-0.2,0.5-0.4c0.2-0.4,0.4-0.8,0.5-1.2c0.1-0.3,0.2-0.4,0.5-0.5c-0.1,0.8-0.2,1.6-0.2,2.4
			c-0.1,0.9,0,1,0.9,0.9c0.6-0.1,1.2-0.2,1.8-0.3c0.2,0,0.2,0.1,0.1,0.3c-0.9,1-2,1.4-3.3,1.3c-0.6,0.3-0.8,0.1-1.1-0.5
			c-0.2-0.5-0.7-0.7-1.1-1c0,0,0-0.1,0-0.1c-0.5-0.9-0.9-1.8-0.8-2.9c0.1-0.7,0-1.4-0.3-2.1c-0.2-0.6,0.3-1.1,0.5-1.6
			c0.1-0.2,0.2-0.5,0.1-0.7C79,16,79.2,15.8,79.4,15.6z"/>
		<path class="st5" d="M60.8,18.4c0.2,0.5,0.5,1,0.8,1.4c0.1,1.6,0.7,3.1,0.6,4.7c0,0.2,0,0.4,0.1,0.6c0.1,0.2,0.2,0.4,0,0.6
			c-0.5,0.4-0.9,1.7-1.6,1.6c-0.6,0-1-0.3-1.5-0.5c0.5-0.3,1,0.1,1.5,0c0.9-0.1,1-1.1,0.7-1.9c-0.2-0.4,0-0.7,0-1.1
			c0-0.7,0.1-1.4-0.6-1.8c-0.5-0.1-0.4-0.5-0.3-0.8c0.2-0.9-0.2-1.7-0.6-2.5c-0.2-0.5-0.6-0.8-0.9-1.1c-0.2-0.2-0.5-0.5-0.2-0.9
			c0.2-0.2,0.5-0.2,0.7,0c0.5,0.4,0.9,0.9,1.4,1.3C61,18.2,61,18.3,60.8,18.4z"/>
		<path class="st1" d="M78.7,21.6c0-2,0.1-4,0.3-6c-0.3,0.2-0.5,0.5-0.8,0.6c-1,0.3-1.2,1.1-1,2c0,0.1,0,0.2,0,0.3
			c-0.1-0.4-0.1-0.8-0.1-1.2c0-0.6,0-1.1-0.1-1.7c0.1,0.3,0.3,0.4,0.6,0.2c0.4-0.2,0.7-0.4,0.9-0.8c0.1,0.1,0.2,0.2,0.3,0.3
			c0.2,0,0.4,0.1,0.6,0.3c0,0.7,0,1.3,0,2c0,0.3-0.4,0.5-0.4,0.9c0.1,1.1,0.1,2.2,0.1,3.3c0,0.4,0.1,0.8,0.4,1.2
			c0.2,0.3,0.2,0.5,0.1,0.8C79,23.2,78.7,22.5,78.7,21.6z"/>
		<path class="st21" d="M60.8,27.4c0.6-0.1,1-1.4,1.6-1.6C62,26.3,61.5,27.5,60.8,27.4z"/>
		<path class="st11" d="M37.8,22.9c-0.5-0.5,0.4-0.7,0.3-1.2c0.4,0,0.4-0.5,0.7-0.5c0.3,0,0.4,0.3,0.6,0.5c-0.5,0-0.7,0.5-1.1,0.8
			C38.1,22.5,38,22.7,37.8,22.9z"/>
		<path class="st6" d="M30.4,22c-0.1,0.1-0.2,0.3-0.3,0.4c-0.3-0.6,0.3-0.9,0.5-1.3c0.2-0.4,0.9-0.6,0.5-1.2
			c0.5-0.5,0.9-1.2,1.4-1.8c0,0.3,0,0.5,0,0.8c-0.3,0.6-0.1,1.4-0.4,2C31.5,21.4,30.9,21.7,30.4,22z"/>
		<path class="st22" d="M43.5,10.2"/>
		<path class="st22" d="M42.9,13.5c-0.1,0.2-0.2,0-0.2-0.1"/>
		<path class="st9" d="M55.7,8.2c0.2,0.5-0.1,0.7-0.5,0.9c0,0,0-0.1,0-0.1C55.4,8.7,55.6,8.5,55.7,8.2z"/>
		<path class="st23" d="M20.5,22.1c-0.2,0.9-0.4,1.9-1.1,2.6c-0.5-0.1-0.4-0.5-0.5-0.8c0-0.8,0.4-1.6,0.6-2.4
			c0.3-0.8,0.5-1.6,0.6-2.4c0.1-0.8-0.3-1.4-1-1.7c0.4-0.3,0.7-0.1,0.9,0.2c0.1,0.2,0.3,0.4,0.5,0.6c0.7,1.1,0.7,2.3,0.5,3.5
			C20.8,22,20.6,22.1,20.5,22.1z"/>
		<path class="st24" d="M26,19.3c-0.1,0.4,0,0.8-0.3,1.2C25.6,20,25.2,19.5,26,19.3z"/>
		<path class="st6" d="M65.4,34.5c0.3-0.5,0.3-1,0.3-1.5c0-0.4-0.2-0.4-0.5-0.3c-0.7-0.2-1.2,0.2-1.8,0.4c-1.5,0.5-1.6,2-2.2,3.1
			c-0.1,0.3-0.2,0.7-0.6,0.5c0.5-1.5,0.8-3.1,1.6-4.4c0.1-0.1,0.1-0.1,0.2-0.2c0.3,0,0.6-0.1,0.7-0.4c0.1-0.2,0.3-0.3,0.4-0.4
			c0.3-0.2,0.6-0.6,1.1-0.3c0.9,0.5,1.7,1,1.6,2.2c0,0.2,0,0.5-0.1,0.7C66,34,66,34.2,65.9,34.4C65.8,34.7,65.7,34.8,65.4,34.5z"/>
		<path class="st25" d="M63.2,37.8c0.4-0.5,0.9-0.9,1.3-1.4c0,0,0.1,0.1,0.1,0.1c-0.4,0.6-0.9,1.1-1.4,1.5
			C63.2,38,63.2,37.9,63.2,37.8z"/>
		<path class="st26" d="M57.1,52c0.1,0.3,0.1,0.6,0.1,0.9"/>
		<path class="st18" d="M72.8,42.1c0.3-0.6,0.5-1.3,1-2c0.5-0.6,0.9-0.5,1.5-0.3c0,0.4-0.1,0.7-0.5,1c-0.2,0.1-0.4,0.3-0.4,0.6
			c0,0.1-0.1,0.2-0.2,0.2c-0.3,0-0.6,0.2-0.7,0.5C73.3,42.3,73,42.1,72.8,42.1z"/>
		<path class="st1" d="M67.7,37.5c0.1,0.1,0.2,0.2,0.2,0.2c-0.2,0.4-0.2,0.8,0.1,1.2c0.2,0.3,0.2,0.5,0,0.8
			c-0.3,0.5-0.3,1.1-0.5,1.7c-0.1,0.4-0.4,0.7-0.8,0.8c-0.4-0.4-0.1-0.8,0-1.2c0.1-0.5,0.2-1,0.5-1.4c0.1-0.2,0.1-0.4-0.1-0.5
			C66.7,38.6,67,37.7,67.7,37.5z"/>
		<path class="st18" d="M76.4,42.6c0,0.8-0.4,1.4-0.9,1.9c-0.2-0.3-0.2-0.5,0-0.8c0.3-0.6,0.4-1.2,0.4-1.8c0-0.3,0-0.6-0.2-0.8
			c-0.3-0.3-0.2-0.5,0-0.8c0.5,0.2,0.4,0.7,0.5,1.1C76.4,41.7,76.4,42.1,76.4,42.6z"/>
		<path class="st27" d="M72.5,43.6c0-0.8,0-0.8-0.9-0.8c-0.7,0-1.4,0-2.1,0c0.6-0.1,0.1-0.5,0.1-0.7c0.5,0,1.1,0,1.6,0.1
			c0,0.3,0.2,0.3,0.4,0.3C72.7,42.5,72.9,42.4,72.5,43.6z"/>
		<path class="st1" d="M66.7,40.1c-0.3,0.7-0.4,1.5-0.5,2.3c-0.2,0-0.4-0.1-0.5-0.1c0.1-0.6,0.4-1.2,0.6-1.8
			C66.5,40.4,66.4,39.9,66.7,40.1z"/>
		<path class="st6" d="M82.2,43.6c0.6-0.5,1.3-1,1.9-1.5c0.5-0.8,0.6-0.8,1.3-0.2c0.1,0.1,0.4,0.1,0.5,0.3c0.1,0.2,0.4,0.2,0.3,0.5
			c-0.4,0.2-0.7,0.3-0.5,0.8c0.1,0.2,0,0.5-0.2,0.7c-0.4,0.4-0.7,0.9-0.9,1.4c-0.1,0.2-0.5,0.1-0.5,0.4c0-0.5,0.1-0.9,0.2-1.4
			c0.1-0.4,0.2-0.9,0.3-1.5c-1.3,1-2.5,2-3.3,3.2C81.3,45.4,81.7,44.4,82.2,43.6z"/>
		<path class="st2" d="M63.4,31.3c0.1,0.3,0,0.6-0.2,0.8c-0.3,0.4-0.6,0.4-0.9,0C62.5,31.7,63,31.5,63.4,31.3z"/>
		<path class="st28" d="M26.9,43.1"/>
		<path class="st7" d="M23.5,33.2c0,0.1,0,0.1,0,0.2c1.1,2,0.4,4-0.4,5.9c0.1,0.4-0.1,0.7-0.3,0.9c-0.6,0.6-1.1,1.2-2,1.3
			c-0.2-0.1-0.3-0.3-0.5-0.2c-0.3,0.1-0.6,0-0.7-0.4c-0.1-0.3,0.1-0.4,0.3-0.6c2.2-1,2.5-3,2.7-5.1c0-0.3-0.2-0.5-0.2-0.8
			c0-0.4,0.1-0.8,0.5-0.8c0.6,0,0.4-0.3,0.5-0.6C23.4,33.2,23.4,33.2,23.5,33.2z"/>
		<path class="st18" d="M33.6,38.3c-0.2,0.4-0.6,0.3-0.9,0.1c-0.2-0.1-0.3-0.3-0.5-0.5c-0.1-0.3-0.4-0.6-0.6-0.8
			c-0.3-0.2-0.3-0.3,0-0.5c0.3-0.1,0.6-0.1,0.8-0.1c0.1,0,0.2,0.1,0.3,0.2C33,37.3,33.3,37.8,33.6,38.3z"/>
		<path class="st10" d="M16.8,41.8c1-0.3,2-0.6,3-1c0.3,0.4,0.8,0.1,1.1,0.4c-0.1,0.5-0.1,0.6-0.7,0.4c-1.1,0.4-2.2,0.8-3.3,1
			C16.8,42.4,17,42.1,16.8,41.8z"/>
		<path class="st18" d="M34.8,47.1c0-0.7,0-1.4,0.2-2.1c0,0.3,0.1,0.5,0.1,0.8C35.3,46.3,35,46.7,34.8,47.1z"/>
		<path class="st6" d="M30.5,41.7c0.3-0.1,0.4-0.6,0.8-0.4c-0.3,0.3-0.3,0.6,0,1c0.3,0.3,0.4,0.8,0.1,1.1c-0.4,0.5-0.6,1.1-1.1,1.5
			c0-0.2,0-0.4,0-0.6c-0.1-0.7,0-1.3,0.1-2l0,0C30.6,42.1,30.3,41.9,30.5,41.7z"/>
		<path class="st5" d="M24.3,47.3c-0.1-0.5,0.3-0.8,0.1-1.3c-0.3,0.7-0.5,1.4-1.1,2c0.1-0.7,0-1.4,0-2c0-0.4,0.4-0.7,0.4-1.2
			c0-0.2,0.2-0.2,0.3-0.1c0.3,0.2,0.6,0.2,1,0c0.2-0.1,0.4-0.2,0.5,0c0.1,0.2,0,0.4-0.2,0.5c-0.4,0.3-0.6,0.7-0.6,1.1
			C24.9,46.7,24.6,47,24.3,47.3z"/>
		<path class="st6" d="M18.9,46c0.3-0.8,0.6-1.5,1-2.2c0.1-0.2,0.2-0.4,0.2-0.7c0.6-0.1,0.9-0.6,1.4-0.8c0.2,0.5,0.4,0.9-0.4,1
			c-0.2,0-0.5,0.2-0.6,0.4c-0.2,0.8-0.9,1.2-1.3,1.9C19.2,45.8,19,45.9,18.9,46z"/>
		<path class="st5" d="M23.3,48c-0.6,1-0.7,2.1-1.2,3.1c0,0-0.1,0-0.1-0.1c-0.1-0.2,0.2-2.3,0.4-2.4C22.7,48.4,22.7,47.7,23.3,48z"
			/>
		<path class="st20" d="M65.1,19.9c-0.6-0.4-0.9-0.9-1.3-1.5c-0.3-0.5-0.4-1-0.3-1.5c0-0.5,0.1-0.9,0.1-1.4c0.1-0.7,0.6-1.3,1.2-1.7
			c0.4-0.3,0.8-0.7,1.1-1.2c0.5-0.9,1.1-1,1.8-0.2c0.2,0.2,0.4,0.4,0.6,0.5c0.1,0.7,0.4,0.9,1.1,1c1.4,0.1,2,1.5,1.4,2.8
			c-0.1,0.2-0.2,0.3-0.2,0.5c0,0.1,0.1,0.2,0.2,0.1c0.5-0.1,0.5,0.2,0.4,0.5c0,0.5-0.3,0.9-0.5,1.4c-0.2,0.6-0.2,1.3-0.5,1.9l0,0
			c-0.1,0.5-0.6,0.5-0.9,0.4c-0.4-0.2-0.8-0.2-1.2-0.3c-0.3-0.6-0.6-1.2-1.1-1.8c-0.1-0.1,0-0.3,0-0.5c0-0.1,0-0.3-0.2-0.3
			c-0.2,0-0.2,0.2-0.1,0.3c0.2,0.2,0.1,0.3-0.1,0.5C66.2,20.1,66,20.1,65.1,19.9z"/>
		<path class="st0" d="M68.3,13c-0.3,0-0.6-0.2-0.8-0.4c-0.6-0.5-0.9-0.4-1.3,0.2c-0.3,0.6-0.7,1.1-1.3,1.5c-0.5,0.3-1,0.9-0.9,1.8
			c0.1,0.8-0.2,1.6-0.2,2.4c-1-0.6-0.8-1.7-0.9-2.7c-0.4,0.2-0.6,0.5-0.9,0.8c-0.2,0.1-0.2,0.3,0,0.4c0.4,0.4,0.7,0.7,0.3,1.3
			c-0.4,0.6-1,0.4-1.5,0.2c-0.5-0.3-0.8-0.8-1.2-1.1c-0.2-0.2-0.4-0.4-0.8-0.4c-0.5,0.3-0.8,0-1.2-0.3c-0.1-0.1-0.2-0.2-0.3-0.3
			c-0.1-0.9,0.2-1.2,1-1c1.5,0.3,2.6-0.4,3.5-1.4c0.7-0.8,1.5-1.7,2.5-2.2c0.2-0.1,0.2-0.3,0.4-0.4c0.1-0.1,0.2-0.2,0.2-0.2
			c0.8,0.4,1.8,0.4,2.5,0.9C67.9,12.2,68.2,12.5,68.3,13z"/>
		<path class="st13" d="M70.2,21.1c0-1,0.1-1.9,0.5-2.8c0.2-0.4,0.2-0.8-0.1-1.2c0.7-0.3,1-1,1.4-1.5c0.7-0.9,1.2-2,1.7-3.1
			c0,0,0.1,0,0.1,0c0.4,0.2,0.3,0.6,0.2,0.9c-0.4,1-0.8,1.9-1.1,2.9c0,0.1-0.1,0.2,0,0.3c0.4,0,0.8-0.2,1.3-0.3
			c0.3-0.1,0.6-0.3,0.8,0.2c-0.1,0.3-0.2,0.6-0.4,0.9c-0.6,0.1-1,0.6-1.7,0.5c-0.2,0-0.3,0-0.4,0.2c-0.4,0-0.7,0-0.9,0.4
			c-0.1,0.4-0.1,0.8-0.5,1c-0.2,0.4-0.4,0.7-0.4,1.2c0,0.1,0.1,0.3-0.2,0.4C70.4,21.1,70.3,21.1,70.2,21.1z"/>
		<path class="st14" d="M80.5,13.3c-0.1,0-0.1,0-0.2,0c-0.1,0-0.3,0-0.3-0.2c0,0,0-0.1,0.1-0.2c0.2-0.1,0.3,0,0.4,0.2
			C80.5,13.1,80.5,13.2,80.5,13.3C80.5,13.3,80.5,13.3,80.5,13.3z"/>
		<path class="st5" d="M68.9,21.8c-0.2-0.3-0.6-0.5-0.6-0.9c0.3,0.1,0.6,0.2,0.8,0.3c0.4,0.2,0.7,0.2,1.1-0.1c0,0.5-0.2,0.6-0.7,0.6
			C69.4,21.8,69.1,21.8,68.9,21.8z"/>
		<path class="st29" d="M66.7,40.1c-0.1,0.1-0.3,0.2-0.4,0.4c0.3-0.7,0.7-1.4,0.6-2.2c0-0.3,0.2-0.5,0.4-0.8c0.2,0,0.3,0,0.5,0.1
			c-0.2,0.2-0.3,0.5-0.5,0.7C67,38.6,67,38.8,67.4,39C67.1,39.4,66.9,39.7,66.7,40.1z"/>
		<path class="st30" d="M67.4,19.3c0-0.1-0.1-0.1-0.1-0.2c-0.1-0.7-0.3-0.5-0.6-0.2c-0.1,0.1-0.1,0.1-0.2,0.1c0-0.1,0-0.1,0-0.2
			c0.1-0.4,0.4-0.7,0.8-0.5C67.7,18.6,67.5,19,67.4,19.3z"/>
	</g>
</g>
</svg>
