<?xml version="1.0" encoding="utf-8"?>
<!-- Generator: Adobe Illustrator 20.0.0, SVG Export Plug-In . SVG Version: 6.00 Build 0)  -->
<svg version="1.1" id="Layer_1" xmlns="http://www.w3.org/2000/svg" xmlns:xlink="http://www.w3.org/1999/xlink" x="0px" y="0px"
	 viewBox="0 0 100 100" style="enable-background:new 0 0 100 100;" xml:space="preserve">
<style type="text/css">
	.st0{fill:#FFFFFF;}
</style>
<g>
	<g>
		<path class="st0" d="M7.8,102.6c0-33.3,0-66.6,0-99.9c28.4,0,56.8,0,85.2,0c0,33.3,0,66.6,0,99.9C64.6,102.6,36.2,102.6,7.8,102.6
			z M34.5,72.6c-0.7-1.7-1.3-2.9-1.7-4.1c-1.4-4-1.6-7.9,0.5-11.8c1-1.7,2.1-3.4,3.2-5c2-2.8,3.7-5.8,4.7-9.2c0.1-0.5,0.3-1,0.6-1.6
			c2.2,3,2.6,6.2,2.3,9.8c5-5.6,6.8-11.8,6.3-19c7,4.5,11.5,10.5,13.9,18.1c2.4,7.7,1.9,15.2-2.1,22.6c0.6-0.2,0.8-0.3,1-0.4
			c4.9-2.5,9.5-5.6,13.3-9.6c6.9-7.2,9.2-15.6,6.2-25.2c-2.6-8.2-7.6-14.9-14.1-20.5c-0.3-0.3-0.7-0.5-1.2-0.9
			c1.7,6.2,1,10.6-1.8,12.2C61.8,16.6,55.2,7.6,43.6,2.7c-0.1,0.4-0.1,0.5-0.1,0.6c0.5,5.2-0.8,10-3.1,14.7c-2.7,5.2-6,10-9.9,14.3
			c-0.6,0.7-1.2,1.4-2,2.3c-0.5-4-0.7-7.9-3.2-11.1c-0.3,1.1-0.4,2.1-0.8,2.9c-1.4,3.2-2.9,6.4-4.4,9.5c-1.6,3.2-3.6,6.3-4.3,9.9
			c-1.3,6.3-0.3,12,4.4,16.9c3.1,3.3,6.8,5.8,10.7,8C31.9,71.3,33,71.9,34.5,72.6z M60.3,95.2c1.4-3.3,2.8-6.3,4.2-9.4
			c0.1,0,0.2,0,0.3,0c0,3,0,6.1,0,9.1c1.8,0,3.4,0,5.2,0c-0.2-5.4-0.4-10.8-0.6-16.1c-1.7,0-3.2,0-4.6,0c-0.8,0-1.3,0.3-1.7,1
			c-0.8,1.6-1.7,3.2-2.7,5c-0.8-2.3-1.5-4.4-2.2-6.5c-2,0.1-3.9,0.2-5.9,0.4c0,5.7,0,11.3,0,16.9c1.3-0.1,2.6-0.1,3.7-0.2
			c0-3.3,0-6.5,0-9.7c0.1,0,0.1,0,0.2-0.1C57.5,88.8,58.8,91.9,60.3,95.2z M36.1,93.8c1,0,1.7,0.1,2.5,0c0.3-0.1,0.8-0.4,0.9-0.7
			c0.7-2,0.6-2,2.7-2.1c0.5,0,0.9,0.1,1.4,0c1.3-0.3,1.8,0.3,2.1,1.5c0.8,2.9,0.9,2.9,3.8,2.2c0,0,0.1-0.1,0.1-0.1
			c-0.8-5.1-1.7-10.3-2.5-15.8c-3.1,0.2-6.1,0.4-9.2,0.7c-0.3,0-0.6,0.6-0.7,0.9c-0.2,1.6-0.3,3.3-0.5,4.9
			C36.5,88.1,36.3,90.9,36.1,93.8z M73.1,94.8c3.9,0,7.8,0,11.8,0c-0.2-1.5-0.5-2.8-0.7-4.1c-2.2,0.2-4.3,0.4-6.4,0.6
			c-0.1-1-0.2-1.7-0.3-2.6c0.9-0.2,1.7-0.4,2.6-0.5c2.8-0.5,2.8-0.5,2.5-3.3c-0.1-0.9-0.4-1.3-1.3-1.1c-1.4,0.2-2.8,0.1-4.4,0.2
			c0.1-0.7,0.1-1.1,0.2-1.7c2.8-0.2,5.4-0.4,8.1-0.5C85.1,80.8,85,80,85,79c-4,0-7.8,0-11.8,0C73.1,84.2,73.1,89.5,73.1,94.8z
			 M9.6,95.2c1.8,0,3.6,0,5.5,0c-0.1-2.2-0.2-4.3-0.3-6.4c1.3-0.2,2.5-0.4,3.6-0.6C18.2,86,18.2,86,16,85.9
			c-1.7-0.1-1.7-0.1-1.6-1.9c2.3-0.1,4.7-0.3,7.1-0.4c-0.1-1.4-0.3-2.7-0.4-4.2c-3.9,0-7.7,0-11.5,0C9.6,84.7,9.6,89.9,9.6,95.2z
			 M23.8,94.9c3.6-0.2,6.8-0.5,10.2-0.7c-0.1-1.4-0.2-2.6-0.3-4c-1.9,0-3.7,0-5.6,0c0.3-4,0.6-7.8,0.9-11.7
			c-1.8,0.1-3.5,0.2-5.1,0.3C23.8,84.2,23.8,89.4,23.8,94.9z M92.1,78.4c-2,0.2-3.5,0.3-5.2,0.4c0.3,3.8,0.6,7.4,0.9,11
			c2.3,0.1,2.3,0.1,2.7-1.9c0.1-0.5,0.3-1.1,0.4-1.6C91.3,83.8,91.7,81.2,92.1,78.4z M89.6,91.7c-1.2,0-2.3,0.8-2.3,1.7
			c0,0.8,0.9,1.6,1.9,1.6c1,0,2.2-1,2.3-1.9C91.5,92.3,90.7,91.7,89.6,91.7z"/>
		<path d="M34.5,72.6c-1.4-0.8-2.5-1.3-3.6-1.9c-3.9-2.2-7.6-4.7-10.7-8c-4.7-4.9-5.6-10.5-4.4-16.9c0.7-3.6,2.7-6.7,4.3-9.9
			c1.5-3.1,3-6.3,4.4-9.5c0.4-0.9,0.5-1.8,0.8-2.9c2.5,3.3,2.7,7.1,3.2,11.1c0.8-0.9,1.4-1.6,2-2.3c3.9-4.4,7.2-9.1,9.9-14.3
			c2.3-4.6,3.6-9.4,3.1-14.7c0-0.1,0-0.2,0.1-0.6c11.6,4.9,18.2,13.9,21.9,25.4c2.8-1.5,3.5-5.9,1.8-12.2c0.5,0.4,0.9,0.6,1.2,0.9
			c6.5,5.6,11.5,12.3,14.1,20.5c3.1,9.6,0.8,18-6.2,25.2c-3.9,4-8.4,7-13.3,9.6c-0.2,0.1-0.5,0.2-1,0.4c4-7.4,4.5-15,2.1-22.6
			c-2.4-7.6-6.9-13.6-13.9-18.1c0.5,7.2-1.4,13.4-6.3,19c0.3-3.6-0.1-6.8-2.3-9.8c-0.2,0.6-0.4,1.1-0.6,1.6c-1,3.4-2.7,6.4-4.7,9.2
			c-1.2,1.6-2.3,3.3-3.2,5c-2.1,3.8-1.9,7.8-0.5,11.8C33.2,69.8,33.8,71,34.5,72.6z"/>
		<path d="M60.3,95.2c-1.4-3.3-2.8-6.4-4.1-9.6c-0.1,0-0.1,0-0.2,0.1c0,3.2,0,6.4,0,9.7c-1.2,0.1-2.4,0.1-3.7,0.2
			c0-5.6,0-11.2,0-16.9c2.1-0.1,4-0.2,5.9-0.4c0.7,2.1,1.4,4.2,2.2,6.5c1-1.8,1.9-3.3,2.7-5c0.4-0.7,0.9-1,1.7-1c1.5,0,3,0,4.6,0
			c0.2,5.3,0.4,10.7,0.6,16.1c-1.8,0-3.4,0-5.2,0c0-3,0-6.1,0-9.1c-0.1,0-0.2,0-0.3,0C63.1,88.9,61.7,92,60.3,95.2z"/>
		<path d="M36.1,93.8c0.2-3,0.5-5.7,0.7-8.5c0.1-1.6,0.3-3.3,0.5-4.9c0-0.3,0.4-0.9,0.7-0.9c3-0.3,6.1-0.5,9.2-0.7
			c0.9,5.5,1.7,10.6,2.5,15.8c-0.1,0.1-0.1,0.1-0.1,0.1c-2.9,0.7-3,0.7-3.8-2.2c-0.3-1.2-0.8-1.8-2.1-1.5c-0.4,0.1-0.9,0-1.4,0
			c-2.1,0.1-2,0.1-2.7,2.1c-0.1,0.3-0.6,0.7-0.9,0.7C37.8,93.9,37,93.8,36.1,93.8z M40.3,88.1c1.5-0.1,2.7-0.1,4.1-0.2
			c-0.2-1-0.2-1.9-0.6-2.7c-0.2-0.4-0.9-0.7-1.3-0.8c-0.5,0-1.3,0.2-1.4,0.6C40.7,85.9,40.6,86.9,40.3,88.1z"/>
		<path d="M73.1,94.8c0-5.3,0-10.6,0-15.9c4,0,7.9,0,11.8,0c0.1,1,0.2,1.9,0.2,2.8c-2.8,0.2-5.4,0.4-8.1,0.5c-0.1,0.5-0.1,1-0.2,1.7
			c1.5-0.1,3-0.1,4.4-0.2c1-0.1,1.2,0.3,1.3,1.1c0.3,2.8,0.3,2.8-2.5,3.3c-0.8,0.1-1.6,0.3-2.6,0.5c0.1,0.9,0.2,1.6,0.3,2.6
			c2.1-0.2,4.2-0.4,6.4-0.6c0.2,1.4,0.4,2.7,0.7,4.1C80.9,94.8,77,94.8,73.1,94.8z"/>
		<path d="M9.6,95.2c0-5.2,0-10.4,0-15.8c3.9,0,7.6,0,11.5,0c0.1,1.4,0.3,2.8,0.4,4.2c-2.5,0.1-4.8,0.3-7.1,0.4
			c-0.2,1.9-0.2,1.9,1.6,1.9c2.1,0.1,2.1,0.1,2.4,2.3c-1.1,0.2-2.3,0.4-3.6,0.6c0.1,2.1,0.2,4.1,0.3,6.4
			C13.2,95.2,11.5,95.2,9.6,95.2z"/>
		<path d="M23.8,94.9c0-5.5,0-10.8,0-16.1c1.6-0.1,3.4-0.2,5.1-0.3c-0.3,3.9-0.6,7.7-0.9,11.7c2,0,3.8,0,5.6,0
			c0.1,1.4,0.2,2.7,0.3,4C30.6,94.5,27.4,94.7,23.8,94.9z"/>
		<path d="M92.1,78.4c-0.4,2.8-0.8,5.4-1.2,7.9c-0.1,0.5-0.2,1.1-0.4,1.6c-0.4,2-0.4,2-2.7,1.9c-0.3-3.6-0.6-7.3-0.9-11
			C88.6,78.7,90.1,78.6,92.1,78.4z"/>
		<path d="M89.6,91.7c1.1,0,1.9,0.6,1.8,1.5c0,0.9-1.2,1.9-2.3,1.9c-1,0-1.9-0.8-1.9-1.6C87.3,92.4,88.4,91.7,89.6,91.7z"/>
		<path class="st0" d="M40.3,88.1c0.3-1.2,0.4-2.2,0.8-3.1c0.2-0.4,0.9-0.6,1.4-0.6c0.5,0,1.2,0.4,1.3,0.8c0.3,0.8,0.4,1.7,0.6,2.7
			C43.1,88,41.9,88,40.3,88.1z"/>
	</g>
</g>
</svg>
