<?xml version="1.0" encoding="utf-8"?>
<!-- Generator: Adobe Illustrator 20.0.0, SVG Export Plug-In . SVG Version: 6.00 Build 0)  -->
<svg version="1.1" id="Layer_1" xmlns="http://www.w3.org/2000/svg" xmlns:xlink="http://www.w3.org/1999/xlink" x="0px" y="0px"
	 viewBox="0 0 170 110" style="enable-background:new 0 0 170 110;" xml:space="preserve">
<style type="text/css">
	.st0{fill:#171A13;}
	.st1{fill:#A9A9A3;}
	.st2{fill:#A6A7A4;}
	.st3{fill:#141710;}
	.st4{fill:#161812;}
	.st5{fill:#171913;}
	.st6{fill:#161913;}
	.st7{fill:#151711;}
	.st8{fill:#24251F;}
	.st9{fill:#161813;}
	.st10{fill:#444F49;}
	.st11{fill:#2D3228;}
	.st12{fill:#2B2D26;}
	.st13{fill:#26271F;}
	.st14{fill:#2D2D27;}
	.st15{fill:#292C26;}
	.st16{fill:#3C3D34;}
	.st17{fill:#9F9F93;}
	.st18{fill:#303028;}
	.st19{fill:#4D5A52;}
	.st20{fill:#2D342C;}
	.st21{fill:#9F9C96;}
	.st22{fill:#3C4841;}
	.st23{fill:#4A5049;}
	.st24{fill:#303832;}
	.st25{fill:#3C3F3D;}
	.st26{fill:#4F5148;}
	.st27{fill:#606C68;}
	.st28{fill:#A3A39C;}
	.st29{fill:#56615A;}
	.st30{fill:#53554A;}
	.st31{fill:#41473D;}
	.st32{fill:#4D534A;}
	.st33{fill:#3A453B;}
	.st34{fill:#96948D;}
	.st35{fill:#6A6B63;}
	.st36{fill:#888F85;}
	.st37{fill:#5B625B;}
	.st38{fill:#7A8985;}
	.st39{fill:#686963;}
	.st40{fill:#45463F;}
	.st41{fill:#989693;}
	.st42{fill:#A2A19E;}
	.st43{fill:#A9A7A4;}
	.st44{fill:#5B5F58;}
	.st45{fill:#A6A49E;}
	.st46{fill:#5F6059;}
	.st47{fill:#AAA9A6;}
	.st48{fill:#697068;}
	.st49{fill:#64645C;}
	.st50{fill:#999791;}
	.st51{fill:#6E6E66;}
	.st52{fill:#6C6C66;}
	.st53{fill:#696B62;}
	.st54{fill:#E9E9E8;}
	.st55{fill:#A6A39E;}
	.st56{fill:#6F6E69;}
	.st57{fill:#8B8B85;}
	.st58{fill:#9B9995;}
	.st59{fill:#8C8B85;}
	.st60{fill:#A7A79C;}
	.st61{fill:#95968E;}
	.st62{fill:#66665E;}
	.st63{fill:#6B6A62;}
	.st64{fill:#75776E;}
	.st65{fill:#72726A;}
	.st66{fill:#A9A6A1;}
	.st67{fill:#AAA8A5;}
	.st68{fill:#B7B4B0;}
	.st69{fill:#A9A7A1;}
	.st70{fill:#656762;}
	.st71{fill:#44453D;}
	.st72{fill:#808079;}
	.st73{fill:#868681;}
	.st74{fill:#71746B;}
	.st75{fill:#898983;}
	.st76{fill:#5E5F59;}
	.st77{fill:#72736C;}
	.st78{fill:#757670;}
	.st79{fill:#595A54;}
	.st80{fill:#3F403A;}
	.st81{fill:#2C332B;}
	.st82{fill:#181A14;}
	.st83{fill:#807D78;}
	.st84{fill:#7B7B74;}
	.st85{fill:#93928A;}
	.st86{fill:#A2A29B;}
</style>
<g>
	<g>
		<path class="st0" d="M51.3,76.1c-0.6,0.8-0.9,1.6-1.4,2.4c-1.3,2.3-3.5,3.2-6,3c-2-0.2-3-1.9-3.7-3.6c-0.2-0.5-0.3-1-0.5-1.5
			c-0.5-0.4-0.7-1-0.5-1.6c0.5-1.6,0.3-3.1-0.5-4.5c0.3-4.7,1.7-9,3.9-13.2c0.4-0.7,0.5-1.3-0.4-1.5c-0.8-0.2-0.5-0.7-0.2-1
			c0.5-0.6,1.2-1.2,2-1.2c0.9,0,1.3-0.5,1.9-1c0.9-0.9,2-1.5,3.1-2.1c1.5-0.8,3-1.5,4.2-2.6c1-0.8,2-0.7,3,0.1
			c1.9,1.5,3.3,3.4,4.2,5.7c0.7,1.9,1.4,3.8,2,5.7c0.4,1.1-0.1,1.8-1.3,2c-1.7,0.2-2.9-0.4-3.8-1.8c-0.5-0.8-0.8-1.6-1.2-2.5
			c-0.6-1.2-0.9-1.3-2.1-0.7c-2.4,1.2-4.3,3-5.5,5.4c-1.4,2.9-2,5.9-2.1,9c0,0.6,0,1.1,0.7,1.3c0.7,0.2,1.1-0.2,1.4-0.8
			c1.4-3.1,2.6-6.2,2.6-9.7c0-1.3,0-2.7,1.5-3.3s2.5,0.3,3.5,1.2c2.1,2,2.4,4.6,2.8,7.3c0.5,3.4,1,6.9,1.6,10.3
			c0.5,0,0.5-0.4,0.7-0.6c0.3-0.2,0.5-0.2,0.8,0s0.3,0.4,0.2,0.7c-0.8,1.7-0.7,3.6-1.3,5.4c-0.5,1.6,0.2,3.4,0.5,5
			c0.6,3.5,1,7,1.1,10.5c0,2.8-0.8,5.3-2.5,7.6c-0.9,1.2-2,2-3.5,2.2c-0.5,0.2-1-0.1-1.5,0.2c-0.6,0-1.2,0-1.8,0
			c-0.1-0.3,0.4-0.5,0.2-0.8c-0.3-0.3-0.5-0.1-0.8,0.1c-0.8,0.5-0.9-0.3-1.2-0.6c-0.7-1.2-0.3-2.6-0.9-3.8c-0.1-0.2,0.2-0.4,0.3-0.5
			c0.8-0.5,0.9-1.2,0.6-2.1c-0.9-2.3-0.4-4.6,0.5-6.8c0.5-1.2,1.1-2.3,1.7-3.4c0.4-0.7,0.7-1.5,0.3-2.3c-0.3-1.1-0.8-2.1-0.5-3.3
			c-0.3-2.3-0.6-4.6-0.8-6.9c-0.1-0.6-0.5-1-0.7-1.6c-0.2-0.2-0.2-0.5-0.3-0.8C51.5,75.5,51.5,75.8,51.3,76.1z"/>
		<path class="st1" d="M16.3,108c-0.1-0.4-0.4-0.8,0-1.1c0.2-0.2,0.4-0.2,0.7-0.1c0.6,0.2,0.6,0.7,0.5,1.2
			C17.1,108,16.7,108,16.3,108z"/>
		<path class="st2" d="M54.8,108c0.5-0.5,1-0.2,1.5-0.2c0,0.1,0,0.1,0,0.2C55.8,108,55.3,108,54.8,108z"/>
		<path class="st3" d="M68.6,29.8c-0.9,2.4-1.1,4.9-0.8,7.5c0.2,1.1-0.5,1.9-1.5,2.4c-3.1,1.5-6.2,0.1-7.1-3.2
			c-0.3-1.3-1.5-2.2-1.4-3.8c-1.2,0.5-1.7,1.2-1.2,2.4c0.2,0.4,0.2,0.7-0.1,1c-0.9,1.1-1.9,2.1-3.1,2.8c-1.8,1-4,0.5-5.3-1.3
			c-1.4-1.8-2-3.9-2.2-6.1c-0.4-4.2,0-8.3,0.3-12.5c0-0.4,0-0.8,0-1.3c-0.8,0.2-0.8,0.9-0.9,1.4c-0.5,1.6-1.2,3-2.5,4.1
			c-0.5,0.4-1,0.8-1.8,0.5c-0.6-0.3-0.9,0-1,0.6c-0.2,1.3-0.8,2.4-1.2,3.5s-0.6,2.1-0.5,3.3c0.2,2.9-2.5,7.1-5.1,8.4
			c-2.1,1-4.4,0.4-5.8-1.7c-1-1.6-1.7-3.4-2.3-5.2c-0.1-0.3,0-1-0.6-0.9c-0.5,0.1-0.3,0.6-0.3,0.9c0,0.4-0.1,0.8-0.3,1.1
			c-1.6,2.1-3.5,3.9-6.2,4.5c-1.6,0.3-2.9-0.3-3.9-1.6c-2.3-3-3.8-6.3-3.8-10.1c0-3.2,0-6.5,0.5-9.7c0.2-1,0.5-1.8,1.4-2.4
			c0.4-0.3,0.6-0.6,0.7-1c0.3-1.3,1.5-1.8,2.5-2.3c0.8-0.4,1.6,0.8,1.5,1.9c-0.1,0.7-0.3,1.4-0.4,2.1c-0.8,4.4,0.3,8.5,1.5,12.6
			c0.3,1.1,2,1.8,3.5,1.5c1.3-0.2,2.6-1.5,2.5-2.9c-0.2-1.8-0.6-3.6-0.8-5.4c-0.3-1.6-0.2-3.1,1.2-4.3c0.5-0.5,0.7-1.2,1-1.9
			c0.9-2,2.3-2.2,3.7-0.5c0.3,0.4,0.6,0.7,0.9,1c0.5,0.5,0.6,1,0.2,1.6c-0.7,0.8-0.5,1.7-0.3,2.6c0.8,3.2,1.6,6.4,2.4,9.6
			c0.3,1.3,0.7,1.4,1.8,0.7c3.6-2.3,5-5.5,4.1-9.7c-0.3-1.5-0.6-3-0.8-4.5c-0.3-1.8,0.6-2.7,2.3-2.3c1.5,0.3,3.1,0.2,4.4,1.2
			c0.4,0.3,1,0.2,1.3-0.3c0.3-0.6,0.9-0.7,1.5-0.7c2.4-0.2,4.7-0.4,6.6,1.7c1.5,1.7,2,3.6,1.6,5.8c-0.5,2.5-0.8,4.9-0.7,7.4
			c0,0.3-0.2,0.7,0.2,0.7c0.3,0.1,0.4-0.3,0.6-0.6c2-3.6,3.5-7.3,3-11.5c-0.1-1.1,0.5-1.8,1.5-2.1c1.8-0.6,3.6-0.2,5.3-0.2
			c0.6,0,0.9,0.7,1.2,1.2c1.5,2.6,2,5.4,1.3,8.3c-0.3,0.9,0.1,1.7,0.5,2.5c0.4,0.9,0.6,1.9,1.3,2.6C68.8,29.3,68.7,29.6,68.6,29.8z"
			/>
		<path class="st4" d="M95.8,53.3c0.9-1.2,2-1.4,3.4-1.1c0.9,0.2,1.9,0.3,2.8,0c0.7-0.2,1.2,0.3,1.6,0.8c1.2,1.4,2.1,2.9,2.6,4.6
			c0.2,0.6,0.2,1.3,0.1,2c-0.1,0.6-0.3,1.2,0,1.8c0.2,0.1,0,0.5,0.3,0.5c0.5-0.7,1.1-1.2,1.7-1.8c0.3-0.2,0.3-0.6,0.4-0.9
			c2.2-2.5,4.5-5,6.7-7.5c0.2-0.3,0.6-0.5,0.6-0.9c0-1.4,1.1-2,2.2-2.4c1-0.4,1.8,0.4,2.5,1c0.2,0.1,0.2,0.5,0.5,0.2
			c1.2-0.7,2.1-0.2,3,0.5c0.4,0.3,0.6,0.7,1,0.9c2.2,1.1,2.7,3.1,2.9,5.4c0.2,2.7,0.5,5.4,0.5,8.1c0.2,0.3,0.5,0.6,0.4,1
			c-0.1,0.7-0.1,1.3,0.3,1.9c0.2,0.2,0.3,0.5,0,0.8c-1.1,1.9-0.5,4-0.1,5.8c0.8,3.9,1.3,7.8,1.7,11.7c0,1.2,0.7,2.3,0.5,3.5
			c0,1.8-0.1,3.6-0.2,5.4c-0.2,0.7-0.2,1.4-0.5,2.1c-0.2,1.8-0.7,3.4-2.3,4.5c-1.1,0.6-2.2,0.2-3.3,0.2c-2.3,0.2-3.7-1-4-3.3
			c-0.2-1.8-0.6-3.6-0.4-5.4c0.3-0.3,0.8-0.4,1.2-0.2c0.3,0.1,0.5,0.4,0.8,0.6c0.6-3,0.3-6,0.2-8.9c0-2.3-0.3-4.6-0.5-6.8
			c-0.1-0.6,0-1.2,0.1-1.7c-0.1-0.9-0.2-1.8-0.2-2.7c0-0.3,0-0.6-0.3-0.7s-0.5,0.1-0.6,0.3c-1.7,1.8-4.1,2.2-6.4,2.8
			c-1.9,0.5-3.5-0.6-4.2-2.6c-0.3-0.8-0.6-1.6-1.2-2.3c-0.4,0.5-0.5,1-0.7,1.6c-0.4,1.4-0.8,2.8-1.3,4.2c-0.6,1.8-2.5,3.1-4.2,2.9
			c-2.4-0.3-4.1-1.9-4.2-4c0-0.3,0-0.6-0.1-0.9c-1.3-3.4-1.6-6.9-1.9-10.4c0-0.4-0.1-0.7-0.4-1c-1-1-0.2-2.2-0.4-3.2
			c-0.2-0.5,0.1-0.9,0.3-1.3c0.5-1.2,0.3-2.3-0.5-3.3c-0.3-0.4-0.7-0.7-0.6-1.3C95.5,53.4,95.7,53.4,95.8,53.3z"/>
		<path class="st5" d="M143.3,21c-0.6,2.2-1.8,4-3.3,5.7c-0.7,0.7-1.1,1.7-1.4,2.6c-0.2,0.6-0.1,1.1,0.4,1.6c0.5,0.4,0.9,0.1,1.4,0
			c0.7-0.2,1.3-0.9,2.2-0.5c0.6,0.6,0.4,1.1-0.1,1.6c1.4,0.7,1.8,1.7,1.2,3.4c-0.4,1-1.1,1.7-2,2.3c-0.8,0.5-1.6,1.1-1.8,2.1
			c-2.1,1-5.3,0-6.8-2.1c-0.9-1.2-0.9-1.3-2.2-0.3c-1.2,1-2.2,2.1-3.7,2.7c-3.8,1.6-7.4,0.3-9.3-3.3c-1.3-2.4-1.7-5.1-1.5-7.8
			c-0.3-2.3,0-4.5,0.5-6.7c0.6-2.4,2.2-3.2,4.5-2.6c1.2,0.3,2.4,0.7,3.2,1.8c1.3,1.7,1.1,3.5,0.6,5.4c-0.5,1.7-1.3,3.3-1.2,5.1
			c0,1.5,0.2,1.7,1.5,1c2.1-1.1,3.9-2.5,5.6-4.1c0.5-0.5,0.7-1.1,0.9-1.7c0.6-3.2,1.3-6.4,3.6-8.9c0.3-2.9,2.9-3.1,4.8-4
			c2-1,3.5,0,3.9,2.2c0,0.2,0.2,0.4,0.2,0.5C144.8,18.5,144,19.7,143.3,21z"/>
		<path class="st6" d="M83.8,18.7c0-1.6,1.2-2.3,2.2-3.3c0.4-0.4,1-0.2,1.6-0.1c1.1,0.2,2.2,0.6,3.3,0.2c0.3-0.1,0.5,0,0.7,0.2
			c2.1,1.7,3.7,3.7,3.4,6.7c-0.1,1.1,0,2.3,0,3.5c0.6,0.1,0.6-0.3,0.7-0.6c0.7-1.5,1.8-2.4,3.4-2.8c1.5-0.4,3.1-0.3,4.6-0.5
			c0.7-0.1,1.4,0.4,1.9,0.8c2,1.8,3,4,2.7,6.8c-0.1,0.7-0.4,1.6,0.6,2.1c0.7-0.3,0.7,0.3,0.6,0.7c-0.1,0.7,0,1.4,0,2.1
			c0.1,1,0.6,1.4,1.5,1.4c1.6,0.1,1.9,0.7,1.3,2.2c-1.4,3.5-5,4-8.2,2.9c-1.5-1.2-2.2-2.9-2.8-4.6c-0.9-2.9-1.6-5.7-1.9-8.9
			c-2.3,1.2-3.3,3.1-3.6,5.4c-0.2,1.2,0,2.5,0.2,3.7c0.3,1.9-0.1,3.4-1.9,4.4c-1.6,0.9-3.2,0.8-4.4-0.6c-1.9-2.3-3.3-4.9-3.2-8
			c0.1-2.2-0.3-4.4-0.4-6.6c0-0.8-0.2-1.6,0.2-2.3c0.2-0.1,0.4,0.1,0.5,0c0.5-1.4,1.9-1.6,3.1-2.2c0.2-0.1,0.5-0.2,0.5-0.6
			c-0.6-0.4-1.3-0.2-2-0.2c-0.7-0.1-1.4,0.1-2-0.5c-0.2-0.6-0.4-1.1-1.1-0.4c-0.4,0.4-0.9,0.4-1.4,0.1
			C83.6,19.5,83.6,19.1,83.8,18.7z"/>
		<path class="st4" d="M65.1,80.5c-0.7-0.8-1.1-1.7-1.5-2.7s-0.5-2.2-1.3-3c-0.4-0.4-0.3-1.1-0.3-1.7c0.2-4.5,1.2-8.7,3.1-12.8
			c0.7-1.4,2.1-2.5,3.3-3.7c0.4-0.4,0.3-1.3,1.4-1.1c0.8,0.2,1.4,0.5,1.7,1.3c0.3,0.7,0.6,1.5,0.8,2.2c0.5,1.7,1.3,3.2,1.3,5
			c0.1,1.8-0.8,3.3-1.4,4.9c-0.8,2-1.2,4.1-0.5,6.3c0,0.2,0,0.5,0,0.7c0,0.5,0,1,0.5,1.2s0.8-0.1,1.1-0.4c0.3-0.2,0.7-0.5,1-0.7
			c1.1-0.6,1.4-0.5,2.1,0.6c0.1,0.1,0.2,0.3,0.3,0.4c1.1,1.5,1.1,1.6-0.3,2.7c-2.9,2.3-6,3.2-9.6,1.5C66.2,81,65.6,80.9,65.1,80.5z"
			/>
		<path class="st7" d="M84.6,23.5c-0.5,1.7-1.2,3.3-1.4,5c-0.2,1.2-0.1,2.4,0.2,3.6c0.6,2.1,0.3,4.2-0.1,6.3
			c-0.2,0.8-0.8,1.2-1.3,1.8c-0.7,0.2-1.1,0.6-1.2,1.3c-3.3,1.9-7.1,0.6-8.6-2.9C72,37.8,72,37,71.9,36.1c0-0.1,0,0,0,0.1
			s0,0.2-0.1,0.2c-0.5,0.2-0.4-0.2-0.4-0.5c0-0.1-0.1-0.2-0.1-0.2c-0.4-0.4-0.6-0.9-0.6-1.5c-0.1-2.8-0.4-5.5,0.2-8.3
			c0.3-1-0.3-1.8-0.7-2.7c-0.2-0.6-0.7-1.1-0.4-1.9c0.1-0.5,0.5-0.6,0.8-1c0.2-0.2,0.3-0.2,0.5-0.1s0.4,0.3,0.5,0.6
			c0.7,1.9,2.1,2.7,4.1,3c1,0.1,2.1,0.3,3,0.7c0.6,0.3,1.2,0.3,1.7-0.3c0.8-1,1.7-1.7,3-1.5C83.9,23,84.3,23.1,84.6,23.5z"/>
		<path class="st8" d="M73.3,64.1c0.1-1.3-0.6-2.4-0.9-3.7c-0.1-0.5-0.2-1-0.1-1.5c1,0.2,0.7-0.9,1.3-1.2c0.5-0.4,1-1,1.6-1.4
			c0.4-0.3,0.9-0.4,1.4-0.2c1.2,0.3,1.9,1.4,2.9,2c0.4-0.1,0.2-0.7,0.7-0.9c0.1,0.3,0.2,0.5,0.3,0.8c0.7-0.2,1-0.6,1.1-1.2
			c0.7-3.1,1.1-3.2,3.8-1.7c0,0.1,0,0.2,0,0.2c0.1,1.9-0.2,2.2-2.3,1.7c1.1,1.5,1,3,0.9,4.6c-0.2,2.4,0,4.8-0.1,7.2
			c0,0.6,0.1,1.2-0.4,1.6c-0.4-1-0.2-2-0.2-3c0-2.2,0-4.5,0-6.7c0-0.4-0.1-0.9-0.3-1.4c-0.9,1.1-2.2,1.8-1.8,3.7
			c1.1,5.3,0.3,10.5-1.5,15.6c-0.3,0.8-0.7,1.6-1.4,2.2c-2.5,2.6-8.5,3.3-11.5,1.5c-0.8-0.5-1.5-1.1-1.8-2c0.6-0.1,1.2,0.2,1.8,0.4
			c3.6,1.7,6.7,0.7,9.5-1.6c0.2-0.2,0.4-0.4,0.6-0.5c0.7-0.4,0.6-0.7,0-1c-0.4-0.3-0.8-0.6-0.9-1c-0.1-1.2-0.7-1-1.4-0.5
			c-0.4,0.3-0.8,0.5-1.2,0.8c-0.4,0.3-0.8,0.9-1.4,0.6c-0.6-0.4-0.7-1.1-0.7-1.8c0-0.2,0.1-0.4,0.2-0.6c2.8-3,2.7-6.7,2.7-10.5
			C74.3,64.1,73.9,63.9,73.3,64.1z"/>
		<path class="st9" d="M83.5,70.6c0-2.4,0-4.8,0-7.2c0-0.9,0-1.8,0.2-2.7c0.2-1.2-0.1-2.3-0.9-3.2c-0.2-0.2-0.6-0.4-0.3-0.7
			c0.2-0.3,0.6-0.1,0.9,0c0.1,0.1,0.2,0.1,0.3,0.2c1.2,0.6,1.3,0.6,1.3-0.7c0-0.3,0-0.7,0.3-0.9c1,0.2,1.9,0.9,2.9,0.1
			c0.2-0.1,0.4,0,0.4,0.1c0.6,1.1,1.8,1.6,2.3,2.7c0.4,0.1,1,0.2,1,0.8c0,1.5,0.6,2.7,1.3,4c-0.5,1.8-1.2,3.6-1.4,5.5
			c-0.1,1.7-0.1,3.3-0.1,5c0,0.2,0,0.5,0,0.7c-0.1,1.1,0,2.3-1.1,2.8c-1.4,0.7-3,0.7-4.2-0.5C84.7,74.9,83.8,72.9,83.5,70.6z"/>
		<path class="st10" d="M35.6,57.6c-0.8,0.3-1.7,0.4-2.4,1.2c-0.4,0.4-0.9,0-1.2-0.3c-0.9-1.1-2.1-1.2-3.4-0.8
			c-0.7,0.2-1.5,0.2-2.2,0.3c-1.2,0-1.2,0-0.7-1c0.1-0.3,0-0.5-0.2-0.6c-0.3-0.2-0.5,0-0.7,0.3c-0.3,0.6-0.1,1.5-1,1.5
			c-0.9,0.1-1.7-0.4-2.3-1c-1.1-1.1-2.2-1.7-3.9-1c-1,0.4-1.6-0.7-2-1.3c-0.3-0.5,0.1-1.3,0.6-1.6c1.2-0.8,2.2-1.8,3.8-1.9
			c0.8-0.1,1.6-0.2,2.4,0.2c0.3,0.2,0.8,0.4,1.1,0.3c1.6-1,1.8,0.4,2.3,1.2c0.4,0.6,0.5,1.2,0.6,1.8c3.8-0.8,7.5-1.4,11.3-0.4
			c1.5,0.4,0.3,1.1,0.2,1.8C37,56.7,35.9,56.5,35.6,57.6z"/>
		<path class="st11" d="M139.8,39.7c-0.3-0.8,0.1-1.3,0.7-1.7c0.5-0.3,1-0.7,1.6-1c1.4-0.9,1.7-2.2,1.5-3.7
			c-0.1-1.1-1.2-0.6-1.9-0.9c0.3-0.6,1.6-0.8,0.9-1.9c0.8-0.9,1.7-1.7,3-2c0.8-0.4,1.9-0.4,2.3-1.5c2.8-1.4,5.5-2.7,8.7-1.5
			c1.6-0.1,1.9,0.2,2,1.7c0.1,0.6,0.2,1.2,0.3,1.8c0.1,0.9-0.2,1.6-1.2,1.9s-1.7,0.1-2.3-0.8c-1.2-2-1.2-2-3.1-0.4
			c-2.8,2.4-5.4,4.8-8.3,7C142.6,37.8,141.6,39.3,139.8,39.7z"/>
		<path class="st12" d="M104.1,41c2,0,3.9,0.4,5.8-0.5c0.8-0.4,2.4-2.8,2.4-3.6c0-0.4-0.3-0.7-0.8-0.7c-2.2-0.1-3.1-1.2-2.5-3.5
			c0.1-0.3,0.6-0.8-0.2-1c1.5-2.3,3.4-4.3,4.8-6.7c0.9-1.3,1.6-2.6,2.1-4.1c0.1-0.4,0.3-0.7,0.7-0.9c0.7-1.1,1.7-1.4,3-1.1
			c0.8,0.2,1.6,0.4,2.4-0.1c0.3-0.2,0.6-0.1,0.9,0.1c0.8,0.7,1.6,1.4,2,2.5c-1.6-0.9-3.2-1.9-5.2-1.6c-1.2,0.2-1.8,0.9-2.1,2
			c-0.6,2.1-0.8,4.4-0.8,6.6c0,0.2,0,0.4-0.2,0.5c-0.1-0.2,0-0.6-0.3-0.6c-0.3-0.1-0.3,0.3-0.4,0.5c-1.3,2.3-1.6,4.8-2,7.3
			c-0.2,0.9-0.3,1.8-0.6,2.7C111.9,42.7,106.9,43.9,104.1,41z"/>
		<path class="st13" d="M51.2,10.3c-1,0-2-0.8-2.6-1.9c-0.9-1.5-1.1-3.2-1.5-4.8c-0.2-0.7,0.4-1.1,0.9-1.5s0.9-0.2,1.4,0.1
			c1.9,1.3,4.1,2.4,4.7,5.1C54.2,8.8,53.1,10.2,51.2,10.3z"/>
		<path class="st14" d="M119.3,6.9c0,2.1-1.5,3.7-3.2,3.6s-2.9-1.8-2.6-3.7c0.2-1.5,0.2-3,0.8-4.4c0.6-1.2,1.1-1.3,2-0.3
			c0.7,0.8,1.4,1.7,2,2.5C118.9,5.4,119.3,6.2,119.3,6.9z"/>
		<path class="st15" d="M93.3,62.8c-1.1-0.8-1.6-1.9-1.5-3.3c0.1-0.7-0.2-1.2-0.8-1.5c0.7,0,1.1-0.3,1.5-0.8c1-1.2,1.6-2.8,3-3.7
			c0,0.5,0.4,0.7,0.6,1c1.3,1.8,1.3,3,0.1,5c-0.9,0.5-1.4,1.5-2.1,2.3C93.9,62.2,93.6,62.5,93.3,62.8z"/>
		<path class="st16" d="M122.5,75.7c0.5,1.6,0.3,3.2,0.7,4.8c0.3,1.1,0.2,2.5,0,3.8c-0.2,1.5-0.7,3-1.3,4.4
			c-0.5,0.2-0.9,0.7-1.5,0.8c-0.3-0.5-0.4-1.1-0.3-1.5c0.8-2.9-0.1-6.1,1.1-9C121.7,77.9,122.1,76.8,122.5,75.7z"/>
		<path class="st17" d="M32.1,70.3c1.9,0.8,2.3,1.8,1.5,3.7c-0.6,1.3-0.3,2.3,0.6,3.3c0.7,0.8,1.3,1.7,1.3,2.9
			c0,0.3-0.1,0.9-0.5,0.5c-1.1-0.9-1.8-0.4-2.6,0.7c-0.4-2-0.8-3.8-1.2-5.5c-0.1-0.4-0.1-0.9,0.1-1.2c1-1.4,0.6-2.7,0.2-4.1
			C31.7,70.3,31.8,70.1,32.1,70.3z"/>
		<path class="st18" d="M129.5,68.2c-0.4-0.9-1.2-1.6-0.5-2.7c0.1,0,0.1,0,0.2,0c1.1-0.4,1.7-1.3,2.4-2.1c0.7-0.8,1.4-1.6,2.1-2.4
			l0.1-0.1c-0.1,0-0.2,0-0.2,0c-0.1,0-0.2,0-0.3-0.1s-0.2-0.2-0.1-0.4c0.4-0.9,1.3-0.7,2-0.7c0.3,0.4,0.5,1.1,1.2,0.8
			c0.4,0,0.9,0.1,1.3,0.2c0.7,0.2,0.6,0.7,0.5,1.2s-0.6,0.5-1,0.5c-0.9,0.1-1.7,0.2-2.3,1c-0.7,0.7-1.5,1.2-2.2,1.8
			C131.6,66.3,130.5,67.2,129.5,68.2z"/>
		<path class="st19" d="M13.8,90.5c0.3-0.5,0.5-1,0.3-1.5c-0.1-0.6-0.2-1.3,0.5-1.6c0.7-0.4,1.6-0.7,2.2-0.1c0.9,0.7,1.9,1,2.9,1.2
			c0.3,0.1,0.7,0,0.8,0.4c0.1,0.5-0.2,0.7-0.6,1c-0.5,0.3-1.1,0.6-1.6,1c-0.8,0.7-1.9,0.4-2.8,0.9c-0.4,0.1-0.8,0.1-1.2,0
			C13.9,91.4,13.5,91.1,13.8,90.5z"/>
		<path class="st17" d="M27.3,83.3c-0.2-0.4-1-0.3-0.8-1.1c0.2-0.9,1-0.9,1.8-1c-0.7-0.6-1.6-0.5-2.3-0.7c-0.1-0.4-0.4-0.7-0.2-1.2
			c0.4-0.4,0.9-0.2,1.3-0.2c0.6,0,1.2,0,1.6-0.7c0.3-0.7,0.8-0.5,1,0.1c0.5,1.1,0.7,2.2-0.2,3.2c-0.6,0.6-0.6,1.2,0.1,1.8
			c0.6,0.5,0.6,1.1,0.5,1.7s-0.5,1-1.1,0.8s-1.3-0.2-1.9-0.7C26.9,84.5,28,84,27.3,83.3z"/>
		<path class="st20" d="M69.8,21.5c0.1,1.2,1.2,2.1,1.2,3.4c0,0.4,0.2,0.8-0.2,1.1c-0.1-0.3,0.2-0.7-0.2-1.1c-0.6,1.7-1.9,3-2.1,4.9
			c-0.6-1.1-1.1-2.3-1.7-3.4c-0.4-0.8-0.5-1.6-0.1-2.4c0,0.3,0,0.6,0,1.1c0.9-0.6,1.4-1.3,1.6-2.1C68.5,22.2,69,21.7,69.8,21.5z"/>
		<path class="st21" d="M104.4,89.7c0.7,0,1.3,0.4,1.5,1.4c0.1,0.6,0.3,1.2,0.4,1.8c0.1,0.6,0.1,1.4-0.5,1.7
			c-1.1,0.6-0.9,1.4-0.5,2.3c0.1,0.3,0.3,0.8-0.1,1c-0.5,0.2-0.6-0.4-0.7-0.7c-0.6-2-1.2-4-1.7-6C102.5,90.3,103.1,89.7,104.4,89.7z
			"/>
		<path class="st22" d="M84.6,23.5c-1.7-0.6-3.1-0.3-4,1.3c-1,0.1-1.1-0.5-1.1-1.3c1-0.5,2.2-0.9,2.3-2.3c0.5-0.9,0.9-2,2-2.5
			c0.3,1.2,0.7,1.4,1.6,0.7c0.3-0.2,0.4-0.9,0.9-0.7c0.6,0.2,0.3,0.9,0.4,1.3c0.2,0.3,0.3,0.6,0.1,0.9c-0.8,0.2-1.9,0-1.6,1.5
			c0.1,0.2,0.1,0.5,0,0.7C85,23.3,84.9,23.5,84.6,23.5z"/>
		<path class="st23" d="M12.3,91.5c-1.2,0.5-2.6,0.2-3.8,1c-0.4,0.2-0.8,0-1.1-0.4c-0.4-0.6-0.5-1.3-0.2-2c0.1-0.3,0.3-0.5,0.5-0.7
			c1.2-1,4.8-0.1,5.3,1.4C12.9,91.1,12.7,91.4,12.3,91.5z"/>
		<path class="st24" d="M45.2,40.2c-0.5,0-1.1-0.1-1.6-0.1c-1,0-1.6-0.5-1.6-1.5s0.4-1.7,1.5-1.7c0.8,0,1.6-0.1,2.3,0.1
			c0.9,0.2,1.4,0.7,1.2,1.7C46.9,39.6,46.4,40.3,45.2,40.2z"/>
		<path class="st17" d="M12.3,91.5c0.2-0.2,0.5-0.5,0.7-0.7c0.4,0.5,0.5-0.2,0.8-0.2c0,0.4,0.3,0.6,0.5,0.9c0.4,0.7,0.8,0.3,1.2,0
			c0.8-0.7,1.9-0.5,2.8-0.7c0.5,0.6,0.4,1.1-0.3,1.5c-0.7,0.4-1.3,1-2.1,1.1c-0.1,0.5,0.3,0.5,0.5,0.7s0.2,0.5,0.1,0.7
			c-0.2,0.3-0.5,0.3-0.8,0.1c-1.1-0.8-2.2-1.7-3.2-2.6C12.4,92.1,12.4,91.7,12.3,91.5z"/>
		<path class="st25" d="M86.5,21c0-0.4,0-0.7,0-1.1c1.1,0.5,2.2,0.2,3.3,0.3c0.4,0,1-0.1,1.1,0.5s-0.4,0.7-0.9,0.9
			c-1.1,0.5-2.5,0.6-3.1,2c-0.2,0.4-0.4-0.2-0.7-0.2c0-0.1,0-0.2,0-0.2C86.5,22.5,85.9,21.7,86.5,21z"/>
		<path class="st26" d="M13.7,55.1c0.5-0.1,1.1-0.1,1.2,0.6c0.1,0.7-0.5,0.7-1,0.8c-0.6,0.1-1,0.5-1.5,0.9c-0.6,0.6-1.2,0.6-1.7,0
			c-0.6-0.6-0.1-1.2,0.4-1.6C11.9,55.3,12.7,54.9,13.7,55.1z"/>
		<path class="st27" d="M81.8,21.2c0.1,1.8-0.1,2-2.2,2.3h-0.1c-0.9-1.1-2.1-1.8-3.1-2.8c-0.1-0.4-0.3-0.7,0-1.1
			c0.9,0.3,1.7,0.9,2.4,1.5C79.8,22,80.7,22.2,81.8,21.2z"/>
		<path class="st28" d="M53.3,84.5c0.4,1,0.5,2.2,0.5,3.3c-0.5-0.5-0.9-1.2-1-1.9c-0.1-0.7-0.4-1.1-1.2-0.6
			c-0.9,0.6-1.7-0.1-2.5-0.5c-0.4-0.2-0.3-0.7,0-1.1s0.8-0.6,1.2-0.2C51.1,84.3,52.1,84.5,53.3,84.5z"/>
		<path class="st29" d="M76.3,19.7c0.1,0.4,0.1,0.7,0.2,1.1c-1.2-0.4-2.4-0.2-3.6,0c-0.7,0.1-1.3,0.1-1.9-0.3c-0.2,0-0.3,0-0.5,0
			c0-0.2,0-0.4,0.1-0.5C71.7,19.1,75.1,18.9,76.3,19.7z"/>
		<path class="st30" d="M120.5,89.5c0.4-0.2,0.7-0.8,1.3-0.8c1,1.3,1.2,2.6,0.3,4c-0.4,0-0.8,0-1.2,0
			C120.7,91.7,120.3,90.6,120.5,89.5z"/>
		<path class="st31" d="M71.3,35.8c1.2,0.6,1.3,1.7,1,2.8c-0.4-0.5-0.9-0.2-1.4-0.3c-0.6-0.2-1.3-0.3-1.3-1.1c0-0.9,0.6-1.1,1.4-1
			C71.3,36.2,71.3,36,71.3,35.8z"/>
		<path class="st32" d="M19.5,81.4c0,0.5-0.2,0.9,0.1,1.5c0.5,0.9-0.6,0.9-1,1.4c-0.3,0.4-0.6,0-0.9-0.3
			C16.7,82.6,17.2,81.9,19.5,81.4z"/>
		<path class="st33" d="M38.8,70.2c1.1,1.1,1.6,2.2,0.9,3.8c-0.3,0.7-0.2,1.5,0.1,2.3c-0.8-0.2-1-0.6-1-1.4c0.1-1.4,0.2-2.8-0.3-4.2
			C38.4,70.4,38.5,70.3,38.8,70.2z"/>
		<path class="st34" d="M131.1,94.8c-0.1-1.8,0.1-3.7,0.3-5.5c0.5,0,0.3,0.4,0.3,0.6c0.1,0.3-0.2,0.6,0.2,0.9c0.7,0.4,0.8,1,0.5,1.8
			c-0.3,0.6-0.4,1.3-0.6,2C131.6,94.8,131.4,95,131.1,94.8z"/>
		<path class="st35" d="M116.3,20.1c-0.8,1.7-1.1,3.7-2.8,4.9c-0.1-0.8,0.3-1.4,0.6-2.1c0.4-0.7,0.7-1.5,0.8-2.3
			C115.2,19.4,115.3,19.3,116.3,20.1z"/>
		<path class="st36" d="M32.1,70.3c-0.2,0.1-0.4,0.2-0.6,0.2c-0.3-0.3-0.6-0.5-1-0.8c-0.2-0.4-0.2-0.9-0.5-1.3
			c-0.2-0.3-0.3-0.7,0-1.1c0.8,0.1,1.5,0.5,1.7,1.4c0.2,0.8,0.9,0.7,1.4,0.9C32.9,69.9,32.5,70.1,32.1,70.3z"/>
		<path class="st37" d="M30,67.3c0,0.4,0,0.8,0.4,1.1c0.4,0.4,0.5,0.9,0.1,1.3c-0.9,0-1.5-0.3-1.9-1.1c-0.3-0.5,0.2-0.9,0.5-1.3
			C29.4,67,29.7,67,30,67.3z"/>
		<path class="st38" d="M86.5,21c0,0.7,0.2,1.5-0.2,2.2c-0.3-0.7-0.7-0.9-1.2-0.2c-0.1-0.6-0.7-1.1-0.2-1.9
			C85.4,20.4,85.9,20.2,86.5,21z"/>
		<path class="st39" d="M95.6,53.5c-1,1.3-1.7,2.7-3,3.7c-0.1-0.5,0.1-0.9,0.4-1.3c0.6-0.6,1.1-1.3,1.3-2.1c0.3-0.8,0.7-1,1.5-0.6
			C95.7,53.4,95.6,53.4,95.6,53.5z"/>
		<path class="st40" d="M129,65.5c-0.1-0.3-0.1-0.7-0.2-1c0.6,0.4,0.7-0.2,0.9-0.5c0.9-1,1.8-2.2,2.8-3.1c0.2,0.1,0.3,0.2,0.4,0.4
			C131.9,62.9,130.8,64.5,129,65.5L129,65.5z"/>
		<path class="st41" d="M143.3,21c0.1-1.4,1-2.6,1.3-4C145.5,18.8,145.3,19.4,143.3,21z"/>
		<path class="st42" d="M146.8,25.1c0.1-0.2-0.2-0.7-0.5-1.1c-0.2-0.2-0.2-0.5,0.1-0.6c0.3-0.2,0.5,0,0.6,0.2
			c0.3,0.5,0.6,1.1,0.7,1.7c0.1,0.4,0,0.9-0.5,0.9C146.5,26.3,146.6,25.8,146.8,25.1z"/>
		<path class="st43" d="M157,25c0.6-0.6,1.3-0.7,1.9-0.1c0.6,0.7,0.4,1.4-0.2,2c-0.2,0.1-0.3,0-0.3-0.2c-0.1-0.7-0.3-1.3-1.2-1.4
			C157.1,25.4,157,25.2,157,25z"/>
		<path class="st44" d="M23.9,88c-0.2-0.8,0.1-1.5,0.4-2.1c0.2-0.5,0.7-0.4,1-0.1s0.5,0.7,0,0.9C24.7,87.1,24.4,87.6,23.9,88z"/>
		<path class="st45" d="M114.7,82.7c0.6,0.1,0.6,0.6,0.6,1c0,0.5-0.3,0.9-0.8,0.9s-0.5-0.5-0.4-0.9
			C114.1,83.3,114.2,82.8,114.7,82.7z"/>
		<path class="st46" d="M147.8,27c-0.1,1.4-0.3,1.5-2.3,1.5C146.1,27.8,146.8,27.1,147.8,27z"/>
		<path class="st47" d="M131.9,90.7c-0.7-0.3-0.1-1.1-0.5-1.5c0-1.2-0.4-2.3-0.2-3.5C132,87.3,131.7,89,131.9,90.7z"/>
		<path class="st48" d="M35.6,57.6c-0.2-1.8,1.2-1.2,2.2-1.3C37.4,57.2,36.4,57.3,35.6,57.6z"/>
		<path class="st49" d="M137.6,60.7c-0.5,0-1,0-1.5,0c-1.1,0.3-0.9-0.4-0.8-1c0.6-0.2,1.3-0.5,1.5,0.5
			C136.9,60.6,137.4,60.5,137.6,60.7z"/>
		<path class="st50" d="M125.3,101.5c1.1-0.7,2.2,0,3.3-0.2C127.5,102.5,126.4,101.9,125.3,101.5z"/>
		<path class="st51" d="M57.1,43.2c-0.4-0.5-1.1,0.9-1.2,0c-0.1-0.8,1.1-0.5,1.7-0.8c0.3-0.1,0.5,0.2,0.5,0.5
			C58,43.6,57.5,43.3,57.1,43.2z"/>
		<path class="st52" d="M76.6,56.2c-0.6,0-1.1,0.1-1.5,0.7c-0.3,0.5-0.9,0.8-1.5,0.9C74.4,56.1,75,55.8,76.6,56.2z"/>
		<path class="st53" d="M27.3,83.3c0.7,0.1,0.7,0.6,0.4,1.1c-0.2,0.3-0.5,0.6-0.7,0.9C25.9,84.4,27.1,83.9,27.3,83.3z"/>
		<path class="st54" d="M157,25c1.2,0.4,1.2,0.4,1.8,2c-0.1,0.1-0.2,0.2-0.3,0.3c-0.2-1.1-1-1.6-2-1.7C156.7,25.3,156.9,25.2,157,25
			z"/>
		<path class="st42" d="M158.2,34.3c0.1-0.7,0.5-1.1,0.8-1.6c0.1-0.2,0.4-0.5,0.7-0.3c0.2,0.2,0.2,0.6,0,0.8
			C159.3,33.6,158.9,34.1,158.2,34.3z"/>
		<path class="st55" d="M84,105.6c-1.2-0.7-1.3-1.1-0.4-2C84,104.2,84.1,104.9,84,105.6z"/>
		<path class="st56" d="M108.8,59.2c0.3,0.4,0.2,0.8-0.2,1c-0.6,0.1-0.7,0.6-1.1,0.9c-0.3,0.2-0.5,0.3-0.5-0.2
			C107.4,60.2,107.9,59.5,108.8,59.2z"/>
		<path class="st21" d="M131.1,94.8c0.2-0.1,0.5-0.2,0.7-0.2c0,0.9-0.2,1.7-1,2.3C130.8,96.1,130.7,95.4,131.1,94.8z"/>
		<path class="st57" d="M107,61c0.6,0.3,0.6-0.3,0.8-0.5c0.2-0.2,0.4-0.6,0.7-0.2c-0.6,0.7-1.2,1.3-1.8,2c-0.6-0.1-0.3-0.4-0.2-0.7
			C106.9,61.4,106.8,61.1,107,61z"/>
		<path class="st58" d="M132.6,65.3c0.5-0.8,1.3-1.4,2.2-1.8C134.5,64.6,133.6,65,132.6,65.3z"/>
		<path class="st59" d="M43.5,88.6c0.4-0.8,1.1-0.9,1.9-1C45,88.5,44.4,88.7,43.5,88.6z"/>
		<path class="st60" d="M30.1,93.1c-0.4-0.1-0.8-0.3-0.8-0.8c0-0.3,0.1-0.4,0.4-0.4c0.4,0,0.8,0.1,0.9,0.7
			C30.6,92.9,30.4,93.1,30.1,93.1z"/>
		<path class="st61" d="M80.8,41.5c-0.2-1.3,0-1.5,1.2-1.3C81.7,40.7,81.4,41.3,80.8,41.5z"/>
		<path class="st62" d="M22.6,79.9c-0.1,0.4-0.3,0.6-0.7,0.7c-0.4,0-0.5-0.2-0.4-0.6c0.1-0.3,0-0.7,0.5-0.7
			C22.4,79.2,22.5,79.5,22.6,79.9z"/>
		<path class="st63" d="M59.9,42.4c-0.1,0.3-0.1,0.7-0.6,0.7c-0.3,0-0.6-0.1-0.6-0.5s0.2-0.6,0.6-0.6C59.6,42,59.9,42.1,59.9,42.4z"
			/>
		<path class="st64" d="M30.3,66.2c-0.1,0.4-0.4,0.4-0.6,0.4c-0.4,0-0.7-0.3-0.7-0.7c0-0.2,0.1-0.4,0.4-0.4
			C29.9,65.5,30,66,30.3,66.2z"/>
		<path class="st65" d="M25.8,79.3c0.2,0.4,0.7,0.7,0.2,1.2c-0.3,0.1-0.7,0.1-0.7-0.3C25.3,79.7,25.1,79.3,25.8,79.3z"/>
		<path class="st66" d="M96.7,64.9c-0.6,0.1-1.1,0.3-1.5-0.1c0,0,0.1-0.3,0.2-0.4C96,64.1,96.3,64.5,96.7,64.9z"/>
		<path class="st67" d="M163.9,32.3c-0.1,0.5-0.2,0.9-0.6,1.1c0,0-0.3-0.2-0.3-0.3C163,32.5,163.3,32.3,163.9,32.3z"/>
		<path class="st68" d="M90.8,105.9c0.1-0.5,0.3-0.8,0.5-1.1C91.6,105.5,91.6,105.5,90.8,105.9z"/>
		<path class="st69" d="M132.9,97.3c-0.2-0.7-0.1-1.1,0.3-1.5C133.4,96.4,133.2,96.7,132.9,97.3z"/>
		<path class="st70" d="M51.3,76.1c0-0.4,0-0.7,0-1.1c0.4,0.3,0.5,0.7,0.4,1.1C51.6,76.1,51.5,76.1,51.3,76.1z"/>
		<path class="st71" d="M135.3,59.7c0,0.5,0,1.1,0.8,1c-1,0.3-1,0.3-1-1C135.1,59.8,135.2,59.8,135.3,59.7z"/>
		<path class="st72" d="M45.5,87.5c0.4-0.5,0.4-0.5,0.8-0.7c0,0.1,0.1,0.2,0.1,0.2C46.3,87.3,46,87.4,45.5,87.5z"/>
		<path class="st73" d="M106.6,61.5c0,0.3-0.1,0.6,0.2,0.7c0,0.2-0.2,0.5-0.4,0.4c-0.3,0-0.1-0.3-0.1-0.5s0.1-0.5,0.1-0.7
			C106.4,61.4,106.5,61.4,106.6,61.5z"/>
		<path class="st71" d="M132.8,61.3c-0.1-0.1-0.2-0.2-0.3-0.3c0.2-0.2,0.3-0.3,0.5-0.5c0.1,0.1,0.2,0.2,0.3,0.3
			C133.4,61.1,133.2,61.3,132.8,61.3z"/>
		<path class="st74" d="M58.6,26.4c0,0.8,0,1.5,0,2.3c0,0.3-0.1,0.5-0.4,0.5c-0.4,0-0.6-0.2-0.5-0.6c0.2-0.8,0.2-1.6,0.6-2.3
			C58.3,26.3,58.5,26.4,58.6,26.4z"/>
		<path class="st75" d="M119.8,61.6c-0.4,0.7-0.5,1.6-1.5,2c0.7-1.6,1.1-3.1,2.1-4.3c0.2-0.2,0.3-0.9,0.9-0.5
			C121.4,60,120.6,60.8,119.8,61.6z"/>
		<path class="st76" d="M119.8,61.6c0.5-0.9,1-1.9,1.5-2.8C122,60.2,121.3,61.5,119.8,61.6z"/>
		<path class="st77" d="M124.2,51.9c0.2,0.5,0.5,0.9,0.1,1.5C123.8,52.7,123.8,52.7,124.2,51.9z"/>
		<path class="st78" d="M110.8,60.2c0.1-0.3,0.2-0.6,0.6-0.7c0.1,0.5-0.2,0.8-0.4,1.2C110.6,60.8,110.7,60.5,110.8,60.2z"/>
		<path class="st79" d="M110.8,60.2c0,0.2,0,0.4,0.2,0.5c-0.1,0.2-0.3,0.5-0.4,0.3C110.4,60.8,110.5,60.5,110.8,60.2z"/>
		<path class="st80" d="M141.4,19.9c0.1,0.9-0.1,1.7-1,2.3C140.3,21.1,140.8,20.5,141.4,19.9z"/>
		<path class="st81" d="M71,20.5c1.3,0,2.6-0.1,3.9-0.5c0.8-0.2,1.1,0.4,1.6,0.7c1.2,0.7,2.4,1.4,3,2.8c0.2,0.6,0.4,1.1,1,1.3
			c-0.5,0.5-1.1,0.7-1.7,0.4c-1-0.5-2-0.7-3.1-0.8C73.3,24.1,71.7,22.9,71,20.5z"/>
		<path class="st82" d="M146.1,32.3c-0.5,0-1.1,0-0.9-0.6c0.2-0.9,1-1.2,1.8-1.1c0.4,0,0.9,0,0.8,0.5
			C147.6,32,146.8,32.2,146.1,32.3z"/>
		<path class="st83" d="M50.6,5.2c0.1,0.4,0.1,0.8-0.3,0.6c-0.7-0.2-1-0.7-1.1-1.3c0-0.3,0-0.6,0.4-0.6C50.4,3.9,50.6,4.6,50.6,5.2z
			"/>
		<path class="st84" d="M115.8,3.6c1.4,0.8,1.5,1.6,0.9,2.8C116.4,5.5,116.1,4.7,115.8,3.6z"/>
		<path class="st85" d="M132.8,61.3c0.2-0.2,0.3-0.3,0.5-0.5c0.1,0,0.1,0,0.2-0.1c0.3-0.1,0.5-0.1,0.5,0.3c-1.6,1.5-2.8,3.4-4.5,4.8
			c-0.2,0.1-0.3,0.5-0.5,0.2c-0.1-0.1,0-0.3,0.1-0.5C130.4,64.1,131.6,62.7,132.8,61.3z"/>
		<path class="st71" d="M134.1,61c-0.1-0.3-0.3-0.3-0.5-0.3c0.2-0.2,0.5-0.3,0.8-0.1C134.5,60.8,134.2,60.9,134.1,61z"/>
		<path class="st86" d="M15.5,91.4c-0.1,0.4-0.4,0.5-0.7,0.6c-0.2,0.1-0.5,0.2-0.7,0s0.1-0.4,0.1-0.7C14.7,91.4,15.1,91.4,15.5,91.4
			z"/>
	</g>
</g>
</svg>
