<?xml version="1.0" encoding="utf-8"?>
<!-- Generator: Adobe Illustrator 20.0.0, SVG Export Plug-In . SVG Version: 6.00 Build 0)  -->
<svg version="1.1" id="Layer_1" xmlns="http://www.w3.org/2000/svg" xmlns:xlink="http://www.w3.org/1999/xlink" x="0px" y="0px"
	 viewBox="0 0 100 30" style="enable-background:new 0 0 100 30;" xml:space="preserve">
<style type="text/css">
	.st0{fill:#FFFFFF;}
	.st1{clip-path:url(#SVGID_2_);fill:#FFFFFF;}
	.st2{clip-path:url(#SVGID_4_);fill:#FFFFFF;}
</style>
<polygon class="st0" points="31.5,1.1 28.3,22.9 30.9,22.9 34.1,1.1 "/>
<g>
	<defs>
		<rect id="SVGID_1_" x="11.7" y="1.1" width="78.2" height="27.8"/>
	</defs>
	<clipPath id="SVGID_2_">
		<use xlink:href="#SVGID_1_"  style="overflow:visible;"/>
	</clipPath>
	<path class="st1" d="M44.4,22.5c-0.6,4.2-2.9,6.5-6.6,6.5c-2.2,0-4-0.9-5.2-2.4l1.5-1.9c1,1.3,2.2,1.9,3.7,1.9c2.2,0,3.6-1.4,4-4
		l0.2-1.1h-0.1c-1.2,1.2-2.6,1.8-4.1,1.8c-2.8,0-4.2-1.5-4.2-4.4c0-0.5,0.1-1.1,0.1-1.8l1.3-9h2.6l-1.3,9c-0.1,0.5-0.1,0.9-0.1,1.2
		c0,1.6,0.7,2.5,2.2,2.5c1.6,0,3-1,4-2.8l1.5-9.8h2.6L44.4,22.5z"/>
	<path class="st1" d="M74,10.8L74.5,8H72l-2.2,14.9h2.6l1.2-8c0.5-2.9,2.5-4.4,4.7-4.4c0.3,0,0.5,0,0.7,0l0.4-2.6
		C76.8,7.5,74.9,8.9,74,10.8"/>
</g>
<polygon class="st0" points="64.1,8.1 59.7,18.4 58.2,8.1 55.6,8.1 51.2,18.4 49.7,8.1 47.1,8.1 49.3,23 52,23 56.4,12.7 57.9,23 
	60.6,23 66.8,8.1 "/>
<polygon class="st0" points="65,23 67.2,8.1 69.8,8.1 67.6,23 "/>
<g>
	<defs>
		<rect id="SVGID_3_" x="11.7" y="1.1" width="78.2" height="27.8"/>
	</defs>
	<clipPath id="SVGID_4_">
		<use xlink:href="#SVGID_3_"  style="overflow:visible;"/>
	</clipPath>
	<path class="st2" d="M80.7,13.9c0.4-2.5,1.9-3.9,4.1-3.9c1.6,0,2.7,0.8,2.7,2.1c0,1.6-1,2.3-3.3,2.3h-3.6L80.7,13.9z M82.9,20.7
		c-1,0-1.7-0.3-2.2-0.9c-0.5-0.6-0.7-1.7-0.4-3.2h3.8c1.2,0,2.7-0.2,4-1c1.2-0.8,1.9-2,1.9-3.6c0-1.1-0.5-2.2-1.2-3
		c-0.9-0.9-2.2-1.4-3.8-1.4c-5.7,0-6.4,4.3-7,7.8l-0.2,1.3c-0.2,1.9,0.1,3.4,1,4.6c0.8,1.1,2.3,1.8,4.1,1.8c5.7,0,6.3-5.2,6.3-5.2
		h-2.4C86.6,17.9,86.5,20.7,82.9,20.7"/>
	<path class="st2" d="M21.5,12.2l0.3-1.6h-9.4L12.8,8h9.4l0.2-1.2c0.5-3.6,2.8-5.7,6.2-5.7h1.9l-0.4,2.5l-1.8,0c-1.9,0-3,1-3.3,3.3
		L24.8,8h3.6l-0.4,2.6h-3.6l-2,12.5c-0.5,3.6-2.8,5.7-6.3,5.7l-0.2,0l0.4-2.7l0.1,0c1.9,0,3-0.9,3.3-3.1l1.3-8.1h-9.4l0.4-2.6h3.3
		H21.5z"/>
	<path class="st2" d="M70.5,5.1c0,0.9-0.7,1.6-1.5,1.6c-0.8,0-1.5-0.7-1.5-1.6c0-0.9,0.7-1.6,1.5-1.6C69.8,3.5,70.5,4.2,70.5,5.1"/>
</g>
</svg>
