<?xml version="1.0" encoding="utf-8"?>
<!-- Generator: Adobe Illustrator 20.0.0, SVG Export Plug-In . SVG Version: 6.00 Build 0)  -->
<svg version="1.1" id="Layer_1" xmlns="http://www.w3.org/2000/svg" xmlns:xlink="http://www.w3.org/1999/xlink" x="0px" y="0px"
	 viewBox="0 0 100 40" style="enable-background:new 0 0 100 40;" xml:space="preserve">
<style type="text/css">
	.st0{fill:#0F0F0F;}
	.st1{fill:#111111;}
	.st2{fill:#151515;}
	.st3{fill:#252525;}
	.st4{fill:#1C1C1C;}
	.st5{fill:#171717;}
	.st6{fill:#1A1A1A;}
	.st7{fill:#181818;}
	.st8{fill:#242424;}
	.st9{fill:#212121;}
	.st10{fill:#4A4A4A;}
	.st11{fill:#202020;}
	.st12{fill:#141414;}
	.st13{fill:#161616;}
	.st14{fill:#2D2D2D;}
	.st15{fill:#2B2B2B;}
	.st16{fill:#222222;}
	.st17{fill:#323232;}
	.st18{fill:#313131;}
	.st19{fill:#373737;}
	.st20{fill:#191919;}
	.st21{fill:#303030;}
	.st22{fill:#424242;}
	.st23{fill:#3A3A3A;}
	.st24{fill:#1E1E1E;}
	.st25{fill:#0D0D0D;}
	.st26{fill:#333333;}
	.st27{fill:#3C3C3C;}
	.st28{fill:#131313;}
	.st29{fill:#1D1D1D;}
	.st30{fill:#2C2C2C;}
	.st31{fill:#101010;}
	.st32{fill:#1B1B1B;}
	.st33{fill:#292929;}
	.st34{fill:#696969;}
	.st35{fill:#232323;}
	.st36{fill:#121212;}
	.st37{fill:#343434;}
	.st38{fill:#272727;}
	.st39{fill:#0E0E0E;}
	.st40{fill:#262626;}
	.st41{fill:#1F1F1F;}
</style>
<g id="QYB9D5.tif">
	<g>
		<path class="st0" d="M54.3,33.2c-0.1-0.3-0.3-0.5-0.4-0.8c-0.3-0.2-0.5-0.1-0.6,0.3c0,0.2-0.1,0.4-0.1,0.5c-0.2,0.3-0.3,0.7-0.5,1
			c-0.4,0.6-0.9,0.7-1.5,0.2c-0.2-0.2-0.4-0.2-0.6-0.2c-0.3-0.1-0.5-0.3-0.6-0.7c0.3-1.2,0.4-2.3,0.1-3.5c-0.1-0.3-0.1-0.6,0-0.8
			c0.1-0.3,0-0.6-0.3-0.7c-0.3-0.1-0.4-0.4-0.3-0.7c0.1-0.3,0.4-0.3,0.7-0.3c0.3,0,0.5,0.2,0.8,0c0.4,0,0.6,0.4,1,0.3
			c1.1,0.4,1.4,0.9,1.2,2.1c0,0.2-0.2,0.4,0.1,0.6c0.5-0.4,0.9-1,1.2-1.6c0.2-0.4,0.5-0.8,0.8-1.1c0.4-0.4,0.7-0.7,0.8-1.3
			c0-0.2,0.8-0.7,1.1-0.7c0.4,0,0.6,0.2,0.8,0.6c0.1,0.2,0.2,0.3,0.1,0.5c0,0.1,0,0.1,0,0.1c-0.3,0.2-0.2,0.4-0.1,0.6
			c0,0.1,0,0.2,0,0.3c0.1,0.7-0.3,1.4-0.5,2c-0.2,0.5-0.5,1-0.7,1.5c-0.1,0.2-0.2,0.4,0,0.6c0.1,0.4-0.1,0.8-0.3,1.2
			c-0.2,0.5-0.8,0.6-1.3,0.4C54.9,33.6,54.6,33.4,54.3,33.2z"/>
		<path class="st0" d="M49,35.6c0,0.6-0.3,0.8-0.9,0.9c-1.2,0.2-2.3-0.3-3.2-0.9c-0.4-0.3-0.4-0.9,0-1.3c0.4-0.4,0.5-1,0.2-1.5
			c-0.1-0.2-0.1-0.4-0.1-0.6c0.3-0.4,0.2-0.8,0.2-1.3c-0.1-0.8-0.3-1.6,0-2.4c0.1-0.3,0-0.6,0-1c0-1,0-1,0.9-1.4
			c0.7,0.3,1.3,0.7,1.8,1.2c0.3,0.3,0.4,0.7,0.3,1.2c0,0.2,0,0.5-0.1,0.7c-0.1,0.4,0,0.8,0.1,1.2c0.1,0.7,0,1.4,0.3,2
			c0.1,0.6,0.2,1.2,0.4,1.8C49.2,34.7,49.1,35.2,49,35.6z"/>
		<path class="st1" d="M61.1,31.2c0,0.3,0.1,0.6,0.1,0.9C61,33.7,61,35.2,61,36.8c0,0.6,0.1,1.1-0.2,1.6c-0.5,0.4-1,0.8-1.7,0.9
			c-0.9,0.1-1.2-0.3-1-1.1c0.1-0.5,0.4-1,0.5-1.6c0-0.1,0.1-0.2,0.1-0.3c-0.2-1.1,0-2.2,0.1-3.3c0.1-0.9,0.2-1.9,0.6-2.7
			c0.1-0.3,0.2-0.5,0.1-0.7c-0.2-0.3-0.1-0.6,0.2-0.7c0.3-0.1,0.6-0.1,0.8,0.2c0.3,0.5,0.5,0.9,0.7,1.4C61.2,30.6,60.9,31,61.1,31.2
			z"/>
		<path class="st2" d="M61.1,31.2C61,31.1,60.9,31,60.9,31c0.2-0.7-0.5-1.1-0.6-1.7c0-0.2-0.2-0.4-0.4-0.3c-0.1,0-0.2,0-0.2,0.1
			c-0.1,0.1,0,0.2,0.1,0.2c0.4,0.2,0.3,0.6,0.1,0.8c-0.4,0.3-0.4,0.8-0.4,1.2c0,0.4-0.1,0.8-0.3,1c-0.4,0.5-0.2,1-0.1,1.5
			c0.1,0.6-0.1,1-0.2,1.5c0,0.2-0.1,0.3,0,0.5c0.3,0.6,0.1,1.1-0.2,1.7c-0.2,0.3-0.3,0.7-0.3,1.1c0,0.4,0.3,0.5,0.7,0.5
			c0.3,0,0.6-0.1,0.9-0.2c0.3-0.2,0.7-0.3,1-0.4c0,0.2-0.3,0.3-0.3,0.6c-0.6,0.6-1.3,0.9-2.2,0.6c-0.9-0.3-1.1-0.9-0.5-1.8
			c0.4-0.7,0.6-1.4,0.6-2.2c0-0.7,0.1-1.5,0-2.2c0-0.2,0.1-0.4,0.1-0.6c0.1-0.5,0.1-0.9-0.1-1.3c-0.1-0.3-0.1-0.7,0-1.1
			c0.1-0.2,0.1-0.5,0-0.7c0-0.2,0.1-0.4,0.1-0.6c0.4-0.4,0.2-0.9-0.1-1.3c0-0.1,0-0.1,0-0.2c0.3-0.6,1.2-0.8,1.7-0.2
			c0.7,0.8,1.3,1.7,1.2,2.8c0,0.1,0.1,0.3-0.1,0.4C61.1,30.8,61.1,31,61.1,31.2z"/>
		<path class="st3" d="M58.7,29.6c0,1.1,0,2.1-0.2,3.2c0-0.3,0-0.7,0-1c0,0-0.1,0-0.1,0c-0.3,0.5-0.7,1-1,1.5
			c-0.4,0.6-0.9,1-1.6,0.9c-0.1-0.2,0.1-0.3,0.2-0.4c0.4-0.2,0.7-0.5,0.7-0.9c0-0.3,0.4-0.6,0.1-0.9c-0.1-0.4,0.2-0.6,0.4-0.9
			c0.3-0.4,0.8-0.7,0.9-1.2C58.3,29.7,58.5,29.6,58.7,29.6z"/>
		<path class="st4" d="M45.4,32.7c0.2,0.4,0.1,0.9,0.2,1.3c0,0.2-0.1,0.4-0.3,0.5c-0.5,0.3-0.5,0.7,0,1c0.8,0.7,1.8,1,2.9,1.1
			c-0.7,0.3-1.4,0.2-2.1,0c-0.5-0.4-1.2-0.5-1.5-1.1c0-0.1-0.1-0.1-0.2-0.2c-0.2-0.4-0.5-0.8,0.1-1.2c0.3-0.2,0.5-0.5,0.7-0.8
			C45.4,33.1,45.2,32.8,45.4,32.7z"/>
		<path class="st5" d="M57.8,37.8c0,0.1,0,0.1,0,0.2c-0.1,1.2,0.4,1.6,1.6,1.5c0.1,0,0.3,0,0.3-0.1c0.1-0.4,0.5-0.3,0.8-0.4
			c-0.1,0.7-0.9,1-1.7,0.9c-1.1-0.1-1.9-0.7-2.5-1.7c0-0.3,0-0.6,0.4-0.7C57.1,37.9,57.4,38.1,57.8,37.8z"/>
		<path class="st6" d="M56.9,31.9c0.2,0,0.4,0.1,0.5,0.3c0,0.1,0.1,0.2,0.1,0.2c-0.6,0-0.4,0.5-0.5,0.8c-0.2,0.6-0.6,0.8-1.2,1
			c-0.7,0-1.1-0.5-1.5-1c0.3,0.1,0.7,0.3,1,0.4c0.3,0.2,0.6,0.1,0.7-0.1c0.2-0.4,0.4-0.8,0.2-1.2C56.5,32.2,56.5,31.7,56.9,31.9z"/>
		<path class="st7" d="M51.2,34.6c-0.2-0.2-0.3-0.3-0.4-0.6c0.3-0.1,0.4,0,0.6,0.2c0.4,0.3,0.7,0.3,1.1-0.1c0.3-0.3,0.6-0.7,0.7-1
			c0.2,0,0.2,0.1,0.1,0.2c0,0.2-0.1,0.3-0.1,0.5c-0.1,1-0.8,1.4-1.8,0.9C51.3,34.7,51.2,34.7,51.2,34.6z"/>
		<path class="st8" d="M56.8,37.6c-0.1,0.2-0.3,0.5-0.4,0.7c-0.2-0.6-0.3-1.2-0.1-1.8c0-0.1,0.1-0.2,0.2-0.1c0.1,0,0.1,0.1,0,0.2
			C56.4,37,56.8,37.2,56.8,37.6z"/>
		<path class="st9" d="M53.2,33.4c0-0.1-0.1-0.2-0.1-0.2c0-0.3,0-0.6,0-0.9c0-0.2,0-0.4,0.2-0.4c0.2-0.1,0.3,0.1,0.4,0.3
			c0.1,0.1,0.2,0.2,0.2,0.3C53.4,32.5,53.6,33.1,53.2,33.4z"/>
		<path class="st10" d="M56.5,36.5c0-0.1-0.1-0.2-0.2-0.1c0.1-0.4,0.1-0.8,0.5-1.1C56.8,35.8,56.6,36.2,56.5,36.5z"/>
		<path class="st4" d="M39.9,8.2c0-0.1,0-0.1,0.1-0.2c0.6-0.5,1-1.1,1.3-1.9c0.2-0.6,0.7-0.7,1.2-0.7c0.1,0,0.2,0,0.3,0.1
			c0.2,0.3,0.5,0.6,0.9,0.7c0.4,0.1,0.5,0.5,0.7,0.7c0.6,0.8,1.1,0.8,1.6-0.1c0.2-0.5,0.6-0.6,1-0.1c0.3,0.3,0.6,0.5,1.1,0.5
			c0.6,0.5,0.7,1.1,0.6,1.8c0,0.3-0.1,0.5-0.1,0.8c-0.2,0.4-0.3,0.9-0.6,1.3c-0.3,0-0.4-0.2-0.5-0.4c-0.1-0.3-0.1-0.5-0.3-0.8
			c-0.3-0.5-0.6-0.5-1-0.1c-0.3,0.3-0.6,0.5-1.1,0.5c-0.5,0-0.6,0.4-0.2,1c0.2,0.4,0.4,0.7-0.2,0.9c0,0-0.1-0.1-0.1-0.1
			c-0.2-0.2-0.3,0-0.4,0.1c-0.2,0.2-0.3,0.4-0.4,0.7c-0.3,0.9-1.1,1.5-1.8,2.1c-0.8,0.2-1.5-0.2-1.8-1c-0.1-0.2-0.1-0.3-0.2-0.5
			c-0.2-0.4,0-0.8-0.1-1.2c0.1-0.5,0.4-0.4,0.7-0.2c0.1,0.1,0.2,0.2,0.2,0.3c0.1,0.2,0.3,0.6,0.5,0.6c0.4,0.1,0.3-0.4,0.5-0.6
			c0.5-0.5,0.8-1.1,1.2-1.7c0.2-0.4,0.6-1,0.1-1.4c-0.5-0.4-0.9,0.1-1.3,0.4c-0.5,0.4-1.1,0.8-1.4,1.4c-0.1,0.3-0.4,0.4-0.8,0.4
			c-0.4-0.2-0.3-0.6-0.4-0.9C39.1,9.7,39.8,9,39.9,8.2z"/>
		<path class="st11" d="M29.9,11.3c-0.2,1.9-0.3,3.7-0.5,5.6c-0.1,0.7-0.1,1.4-0.2,2.1c0,0.7-0.2,1.3-0.4,1.9
			c-0.3,1-1.3,1.4-1.9,0.6c-0.9-1-1.9-1.9-2.5-3.2c-0.2-0.6,0.2-0.9,0.7-1.1c0.4-0.1,0.5-0.4,0.5-0.8c0.1-0.3,0.1-0.5,0.2-0.8
			c0.6-0.4,1.2-0.3,1.9-0.6c0.5-0.2,0.8-0.4,0.7-1c-0.1-0.4,0-0.9,0-1.4c0-0.7,0.6-1.1,1.1-1.6C29.7,11.1,29.9,11.2,29.9,11.3z"/>
		<path class="st6" d="M33.2,10.3c0.2-1,0.4-2.1,0.8-3.1c0.1-0.1,0.1-0.2,0.1-0.3c0.3-0.3,0.1-0.6-0.1-0.8c-0.1-0.1-0.3-0.2-0.2-0.4
			c0.1-0.2,0.3-0.1,0.4-0.1c0.5,0.1,1,0.4,1.5,0.7c0.4,0.2,0.8,0.5,1.2,0.7c0.8,0.6,0.9,1.4,1,2.3c0,0.2-0.2,0.6,0.3,0.6
			c0.5-0.1,0.9,0.1,0.7,0.5c-0.2,0.5-0.3,1.2-0.9,1.4c-0.3-0.1-0.3-0.3-0.3-0.5c0-0.2,0.3-0.5,0.1-0.7c-0.3-0.3-0.4-0.7-0.9-0.8
			c-0.5-0.1-1.1-0.2-1.5,0.3c-0.3,0.3-0.8,0.4-1.1,0.7c-0.4,0.3-0.8,0.7-0.9,1.2c0,0.2-0.1,0.4-0.4,0.5C33,11.8,33.2,11.1,33.2,10.3
			z"/>
		<path class="st12" d="M44.7,12.2c0.1-0.2,0.1-0.4-0.1-0.6c-0.3-0.2-0.3-0.6-0.4-0.9c-0.1-0.5,0.3-1,0.7-0.9c0.5,0.1,0.7-0.1,1-0.4
			c0.5-0.6,1-0.5,1.4,0.1c0.3,0.5,0.4,1,0.4,1.5c0.1,0,0.1,0,0.2,0c0.3-0.1,0.7-0.3,0.9,0.1c-0.1,0.5-0.1,1-0.7,1.2
			c-0.2,0.1-0.2,0.3-0.3,0.5c-0.1,0.2-0.1,0.5-0.2,0.7c-0.1,0.5-0.3,1-0.9,1c-0.6,0-1.1-0.3-1.4-0.9c-0.2-0.4-0.3-0.8-0.5-1.1
			C44.9,12.6,44.8,12.4,44.7,12.2z"/>
		<path class="st13" d="M33.3,12.5c-0.1-1.3,0.9-1.8,1.7-2.3c0.4-0.3,0.8-0.8,1.4-0.8c0.5,0,1,0,1.3,0.5c0.1,0.2,0.2,0.4,0.5,0.3
			c0.3-0.1,0.2,0.2,0.2,0.4c-0.1,0.4-0.3,0.8-0.4,1.2c0.2,0.4-0.1,0.8-0.2,1.2c-0.1,0.2-0.2,0.3-0.3,0.4c-0.4,0.4-0.7,0.8-0.6,1.4
			c0,0.4-0.7,1.1-1,1.2c-0.4,0.1-0.7-0.3-0.9-0.5c-0.2-0.2-0.5-0.4-0.6-0.7C34,14,33.8,13.2,33.3,12.5z"/>
		<path class="st14" d="M50.1,11.8c-0.4,0.9-1,1.6-1.6,2.4c-0.2,0.2-0.3,0.3-0.4,0.6c-0.2,0.5-0.5,0.8-1.1,0.7
			c-0.2-0.2-0.2-0.4,0-0.5c0.8-0.5,0.8-1.4,1.1-2.2c0-0.1,0.1-0.1,0.1-0.2c0.5-0.2,0.8-0.5,0.8-1.1c0-0.3-0.1-0.5-0.3-0.7
			c-0.1-0.2,0-0.4,0-0.5c0-0.1,0.1-0.1,0.1-0.2C49,10,49.2,10,49.4,10c0.3,0,0.5,0,0.7-0.2c0.3-0.3,0.6-0.3,0.9,0
			c0.1,0.3,0.1,0.7-0.1,1C50.4,10.9,50.2,11.3,50.1,11.8z"/>
		<path class="st9" d="M48.4,12.7c-0.5,0.9-0.5,2-1.4,2.7c-1,0.1-1.3-0.7-1.7-1.4c-0.2-0.4-0.3-0.8-0.3-1.3c0.3,0.2,0.4,0.4,0.5,0.7
			c0.1,0.2,0.2,0.3,0.3,0.5c0.3,0.4,0.7,0.6,1.2,0.5c0.6-0.1,0.5-0.7,0.6-1c0.1-0.6,0.1-1,0.7-1.3c0.2-0.1,0.3-0.6,0.5-0.9
			c0-0.2,0.1-0.2,0.3-0.2c0.2,0.1,0.2,0.2,0.2,0.4C49.4,12.1,48.9,12.4,48.4,12.7z"/>
		<path class="st15" d="M37.5,12.9c0-0.4,0.2-0.8,0.4-1.1c0.4-0.2,0.5-0.7,0.7-1.1c0.1-0.4,0-0.6-0.4-0.7c0.6-0.6,1.2-1.1,1.7-1.7
			c0,0.4,0.2,0.8-0.2,1.2c-0.2,0.3,0.1,0.7-0.1,1c-0.3,0.5-0.6,1-1.1,1.4c-0.1,0.1-0.1,0.1-0.2,0.2C38.1,12.3,38.1,12.9,37.5,12.9z"
			/>
		<path class="st16" d="M34.3,14.7c0.2,0.2,0.5,0.3,0.7,0.5c0.3,0.2,0.5,0.7,0.8,0.4c0.3-0.3,0.9-0.4,0.8-1.1c0-0.5,0.3-1,0.7-1.3
			c0.4,0.4,0,0.7-0.1,1c0,0.3,0,0.6,0,0.9c-0.1,1-0.9,1.5-1.8,1C34.8,15.8,34.4,15.3,34.3,14.7z"/>
		<path class="st17" d="M42.1,15c0.2-0.4,0.6-0.7,0.9-1c0.3-0.3,0.5-0.5-0.2-0.8c0.6,0.1,0.7-0.4,1-0.7c0.2-0.3,0.3-0.8,0.8-0.5
			c-0.3,0.2-0.4,0.6-0.6,1C43.5,13.9,42.8,14.5,42.1,15z"/>
		<path class="st18" d="M25.4,17.5c-0.4,0.1-0.7,0.4-0.8,0.9c-0.1-0.1-0.2-0.2-0.3-0.3c-0.1-0.5,0-1-0.1-1.5c0-0.1,0-0.3,0.2-0.3
			c0.3-0.2,0.5-0.2,0.6,0.2c0.1,0.3,0.2,0.6,0.4,0.8C25.4,17.4,25.5,17.5,25.4,17.5z"/>
		<path class="st19" d="M37.1,14.2c0-0.3,0.1-0.7,0.1-1c0.1-0.1,0.2-0.2,0.3-0.3c0.3-0.3,0.5-0.6,0.8-0.8
			C38.2,12.9,37.7,13.5,37.1,14.2z"/>
		<path class="st20" d="M29.9,11.3c-0.7,0.3-1.1,1.1-1,1.9c0.1,0.5-0.1,1,0,1.5c0.1,0.3-0.2,0.8-0.7,0.8c-0.7,0-1.3,0.6-2.1,0.3
			c-0.4-0.2-0.5-0.6-0.4-1.1c0.1-0.3,0.1-0.6,0-0.9c0-0.7-0.2-1.5,0.3-2.2c0.1,0,0.1-0.1,0.2-0.1c0.8,0.9,1.5,0.4,2.2-0.1
			c0.3-0.2,0.8-0.4,0.5-0.8c-0.3-0.5-0.7-0.2-1.1-0.1c-0.5,0.2-1,0.6-1.6,0.2c-0.3-0.5-0.1-1,0.1-1.4c0.4-0.2,0.8-0.3,1.2-0.7
			c0.5-0.5,1-0.4,1.6,0.1c0.2,0.2,0.4,0.3,0.6,0.5c0,0,0.1,0.1,0.1,0.1c0.1,0.2,0.3,0.1,0.4,0.1c0.4,0.2,0.5,0.6,0.3,0.9
			c-0.2,0.3-0.2,0.6-0.4,0.8C30,11.3,30,11.3,29.9,11.3z"/>
		<path class="st9" d="M20.7,11.5c0-0.6,0-1.2,0-1.8C21,9,20.9,8.3,21.3,7.8c0.4-0.8,1.1-0.9,1.9-1C23.8,6.7,24,6.4,24,5.9
			c-0.1-0.7-0.2-0.9-1-0.6c-0.2,0.1-0.5,0.1-0.6-0.1c0.3-0.7,0.6-1.3,1.1-1.8c0.9-0.3,1.1-0.1,1,0.8c0,0.3-0.1,0.6,0,0.9
			c0.2,0.5,0.4,1,0.6,1.5c0.2,0.6,0.3,1.2-0.2,1.7c-0.2,0.2-0.4,0.6-0.5,0.9c-0.2,0.2-0.5,0.2-0.7,0.1C23.3,8.8,23,9,22.7,9.3
			c-0.5,0.4-0.8,0.9-1.4,1.2c-0.2,0.1-0.1,0.4-0.1,0.6C21.1,11.3,21.1,11.5,20.7,11.5z"/>
		<path class="st13" d="M22.4,5.1c0.3,0,0.5-0.2,0.7-0.4c0.4-0.3,0.8-0.1,1,0.2c0.6,0.7,0.2,2-0.7,2.1c-0.8,0.1-1.5,0.3-2.2,0.6
			C21.5,6.8,21.9,5.9,22.4,5.1z"/>
		<path class="st14" d="M26.4,11.8C26.4,11.8,26.3,11.8,26.4,11.8c-0.4-0.1-0.5,0.2-0.6,0.4c-0.2,0.6-0.5,1.1-1.2,1.2
			c-0.3,0.4-0.2,1-0.6,1.3c-0.2,0-0.4-0.2-0.3-0.4c0.3-0.6,0.1-1.4,0.5-1.9c0.4-0.5,0.7-1,1.2-1.3c0.3-0.3,0.2-0.5,0.3-0.8
			c0.1-0.5-0.1-0.9-0.5-1.2c0.1-0.1,0.2-0.2,0.3-0.3C26.1,8.7,26.6,8,27,7.4c0.5,0.1,0.7,0.5,0.4,0.9c-0.3,0.4-0.3,0.8-0.7,1.1
			c-0.2,0.4-0.3,0.8-0.1,1.3C26.9,11.2,27,11.5,26.4,11.8z"/>
		<path class="st21" d="M24.6,5c-0.2-0.2-0.2-0.5-0.2-0.8c0.1-0.6-0.2-0.9-0.8-0.9c0.4-0.7,1-0.5,1.6-0.5c1,0,1.9,0.2,2.5,1.1
			c0.2,0.2,0.5,0.6,0.1,0.8c-0.3,0.2-0.7,0-0.9-0.4c-0.5-0.8-1.1-1-1.9-0.5C24.6,4.1,24.5,4.5,24.6,5z"/>
		<path class="st5" d="M25.1,9.2c0.8,0,0.8,0.5,0.8,1.2c-0.2,0.2-0.1,0.7-0.6,0.6c-0.3-0.2-0.1-0.4-0.1-0.6c0.1-0.2,0.1-0.3-0.1-0.4
			c-0.2-0.1-0.3-0.1-0.5,0c-0.2,0.3-0.5,0.2-0.8,0.1c-0.7-0.2-1.2-0.1-1.8,0.3c-0.3,0.3-0.6,0.6-1.1,0.5c0-0.4-0.2-0.9,0.6-0.9
			c0.2,0,0.4-0.3,0.6-0.5c0.2-0.2,0.5-0.5,0.7-0.8c0.4-0.3,0.9-0.6,1.3,0.1C24.1,9,24.3,9,24.4,9.1C24.5,9.6,24.8,9.2,25.1,9.2z"/>
		<path class="st8" d="M26.7,9.5c0-0.5,0-0.9,0.4-1.3c0.3-0.3,0.1-0.5-0.1-0.7c0.2-0.4,0.5-0.2,0.7-0.1c0.5,0.2,1,0.4,1.3,0.8
			c0.2,0.4,0.5,0.7,0.7,1.1c-0.5-0.2-0.9-0.9-1.7-0.5c-0.1,0.1-0.2,0.1-0.3,0.2C27.6,9.6,27.1,9.6,26.7,9.5z"/>
		<path class="st22" d="M30,9.7c-0.1-0.1-0.2-0.1-0.3-0.2c0.1,0,0.3,0,0.3-0.1c0.9-1,2-1.9,2.6-3.2c0.2-0.3,0.3-0.7,0.7-0.8
			c0.3,0.3,0.4,0.7,0.8,1c0.2,0.1,0.1,0.5-0.1,0.7c-0.1,0-0.1,0.1-0.2,0.1c0-0.2,0.1-0.4-0.1-0.7C33.3,7,33,7.7,32.5,8.2
			c-0.3-0.1-0.5,0.1-0.7,0.3c-0.3,0.4-0.6,0.7-1,1C30.6,9.7,30.3,9.8,30,9.7z"/>
		<path class="st3" d="M34.2,7.1c0-0.3,0-0.7-0.3-0.8c-0.6-0.1-0.6-0.4-0.4-0.9c1,0,1.8,0.4,2.6,0.9c0.4,0.2,0.7,0.5,1,0.8
			c-0.8-0.1-1.4-0.7-2.2-1c-0.2-0.1-0.4-0.3-0.7-0.2C34.3,6.3,35,6.7,34.2,7.1z"/>
		<path class="st23" d="M28.9,8.2c-0.4-0.2-0.8-0.5-1.2-0.7c-0.3-0.1-0.5-0.2-0.8,0c-0.1,1.1-0.4,1.3-1.6,1.4c0.4-0.5,1-0.9,1.2-1.5
			c0-0.1,0.2-0.2,0.3-0.2C27.5,7,28.6,7.6,28.9,8.2z"/>
		<path class="st14" d="M40.7,6.8c0.1-0.2,0.2-0.3,0.3-0.5c0.5-0.9,0.5-0.9,1.5-0.5c-0.7,0-0.9,0.4-1.1,1c-0.2,0.5-0.7,1-1.3,1.2
			C40.3,7.7,40.5,7.3,40.7,6.8z"/>
		<path class="st1" d="M77.3,16.7c-1.5,0.2-2.5-0.5-2.8-2.1c-0.1-0.5-0.2-1-0.5-1.5c-0.2-0.3-0.1-0.8,0-1.2c0.1-0.3,0.1-0.5,0-0.8
			c0-0.3-0.1-0.6,0.1-0.9c0-0.1,0.1-0.1,0.2-0.1c1-0.9,2-1.7,2.7-2.9c0.2-0.3,0.5-0.3,0.8,0c0.2,0.2,0.4,0.5,0.6,0.6
			c0.1,0.1,0.2,0.2,0.2,0.3c0.2,0.4,0.2,0.8,0.4,1.2c0.2,0.3,0,0.6-0.2,0.9c-0.3,0.5-0.7,0.8-1.2,1.2c-0.2,0.1-0.4,0.3-0.3,0.6
			c0.2,0.2,0.4,0.1,0.6,0c0.2,0,0.4-0.1,0.6-0.2c0.8-0.3,1.6-0.5,2.3-1c0.4-0.3,0.8-0.4,1.3-0.2c0.5,0.1,0.7,0.4,0.6,0.9
			c-0.1,0.4-0.1,0.8-0.3,1.1c-0.6,0.8-0.6,2.1-1.7,2.6c-0.1,0.1-0.1,0.2-0.1,0.4c0,0.2-0.2,0.4-0.4,0.4c-0.5-0.1-0.7,0.5-1.1,0.5
			c-0.2,0-0.3-0.1-0.4-0.1C78.2,16.1,77.8,16.5,77.3,16.7z"/>
		<path class="st24" d="M80.6,15.3c-0.1-0.2-0.1-0.5,0.1-0.5c0.5-0.1,0.6-0.5,0.6-0.8c0.2-0.8,0.8-1.5,1-2.3c0.1-0.6,0-0.9-0.7-0.8
			c-0.7,0.1-1.2,0.5-1.8,0.9c-0.4,0.2-0.7,0.5-1.2,0.5c-0.1-0.3,0.1-0.5,0.3-0.6c0.6-0.3,1.1-0.8,1.6-1.3c0.4-0.4,0.8-0.7,1.4-0.7
			c0.2,0,0.4,0,0.6,0c1.4,0.4,1.4,1.3,0.9,2.4c-0.6,1.3-1.4,2.6-2.7,3.3C80.7,15.3,80.6,15.3,80.6,15.3z"/>
		<path class="st25" d="M33.4,19.6c0.3,0,0.5-0.1,0.8-0.2c0.1-0.3,0.4-0.2,0.6-0.2c0.2,0,0.4,0.1,0.6,0.1c0.2,0,0.3,0.1,0.4,0.1
			c0.3,0.1,0.6,0.2,0.7,0.5c0.3,0.7,0.3,1.3,0.2,2.1c-0.1,1-0.1,2,0.8,2.8c0.1,0,0.1,0.1,0.1,0.2c0.1,0.6,0.1,1.2,0,1.7
			c-0.1,1-0.1,2,0,3c0.1,0.5,0.1,1,0.2,1.4c0.2,0.5,0.3,1,0.3,1.5c0,0.4-0.1,0.7-0.2,1.1c-0.1,0.4-0.6,0.5-1,0.3
			c-0.3-0.2-0.6-0.1-0.9-0.1c-0.4-0.2-0.8-0.3-1.1-0.6c-0.1-0.2-0.2-0.5-0.5-0.5C34,32.6,34,32,33.6,31.7c-0.1-0.5-0.3-0.9-0.3-1.5
			c-0.1,0.7-0.2,1.3-0.1,1.9c0,0.2,0,0.4,0.3,0.5c0.4,0.2,0.6,0.5,0.4,0.9c-0.1,0.3-0.2,0.5-0.1,0.8c0.1,0.6-0.3,0.9-0.9,0.9
			c-0.3,0-0.6,0-0.8-0.1c-0.1,0-0.2,0-0.4-0.1c-0.5-0.4-1-0.8-1.6-1.2c-0.8-0.6-1.1-1.5-1.1-2.5c0-1-0.1-2,0.1-3.1
			c0.3-1.6,1.1-2.8,2.3-3.8c0.3-0.2,0.7-0.2,1.1-0.2c0.8,0,0.9-0.2,0.8-1c-0.1-1-0.1-1.9-0.1-2.9C33.3,20.2,33.2,19.9,33.4,19.6z"/>
		<path class="st9" d="M44.6,29.9c-0.4,1.2-1,2.3-1.5,3.5c-0.1,0.1-0.1,0.3-0.1,0.4c0,0-0.1,0-0.1,0c-0.4-0.4-0.4-1.3-0.1-1.8
			c0.2-0.3,0.3-0.6,0-0.9c0-0.2,0.1-0.4,0.2-0.6c0.6-0.9,1.2-1.8,1.2-2.9c0-0.2,0.1-0.4,0.3-0.4c0.2,0.1,0.3,0.3,0.3,0.4
			c0.1,0.6-0.1,1.2,0,1.8C45,29.7,44.8,29.8,44.6,29.9z"/>
		<path class="st6" d="M43.1,31.1c0.4,0.2,0.4,0.6,0.2,0.9c-0.4,0.6-0.4,1.2-0.3,1.9c-0.4,0.6-0.9,0.4-1.4,0.4c0,0-0.1-0.1-0.1-0.1
			c0-0.1,0-0.3,0.2-0.3c0.7-0.3,0.6-0.8,0.5-1.3c0-0.1-0.1-0.3,0-0.4c0.1-0.3,0.4-0.6,0.6-0.8C42.8,31.1,42.9,31,43.1,31.1z"/>
		<path class="st7" d="M67.2,13.8c0,0.2,0,0.5,0.1,0.7c0.1,0.5,0,0.8-0.5,1.1c-0.4,0.2-0.8,0.2-1.2-0.1c-0.8-0.6-1.1-1.6-1.1-2.6
			c0.4-0.2,0.6,0,0.8,0.4c0.2,0.4,0.1,1,0.6,0.9c0.6-0.1,0.3-0.7,0.5-1.1c0.2-0.7,0-1.4,0.2-2c0.1-0.3-0.2-0.6-0.2-0.9
			c0-0.1,0-0.3,0-0.4c0.3-0.3,0.8-0.3,1-0.7c0.8-0.4,1-1,0.9-1.8c-0.1-0.6,0.3-1,1-0.7c0.5,0.2,0.9,0.4,1.4,0.6
			c0.1,0.2,0.5,0.3,0.6,0.6c0,0.1-0.1,0.2-0.1,0.2c-0.9,0.5-1.3,1.5-2.2,2.1c-0.5,0.3-0.6,1-0.4,1.6c0.1,0.3,0.2,0.7-0.2,1
			c0-0.1-0.1-0.1-0.1-0.2c-0.1-0.5-0.4-0.4-0.5-0.1C67.3,12.8,67,13.3,67.2,13.8z"/>
		<path class="st26" d="M69.1,6.5c-0.6,0-0.8,0.3-0.7,0.9c0.1,0.9-0.4,1.8-1,2c-0.2-0.2-0.1-0.4,0-0.6c0.3-0.7,0.4-1.4,0.6-2
			c0,0,0,0,0,0C68.6,6,68.6,6,69.1,6.5z"/>
		<path class="st19" d="M73,1.2c-0.2-0.2-0.4-0.5-0.6-0.7c-0.1-0.1-0.2-0.2-0.1-0.4c0.1-0.2,0.3,0,0.4,0.1c0.1,0.1,0.3,0.1,0.4,0.1
			c0.2,0.3,0.6,0.4,0.8,0.7C74,1.3,74,1.5,73.7,1.6c-0.2,0.1-0.4-0.1-0.5-0.2C73.1,1.3,73.1,1.3,73,1.2z"/>
		<path class="st11" d="M25.3,10.9c0.2-0.2,0.4-0.4,0.6-0.6c0.1,0.9-0.6,1.4-1.1,1.9c-0.3,0.3-0.6,0.5-0.4,0.9
			c0.2,0.6-0.5,1-0.3,1.6c-0.5,1.1-1,1.3-2.2,0.6c-0.5-0.7-0.9-1.4-0.9-2.2c0.6-0.3,0.8,0.4,1.2,0.6c0.2,0.3,0,0.9,0.7,0.8
			c0.6-0.1,0.4-0.6,0.5-0.9c0.1-0.7,0.2-1.3,0.9-1.7c0.2-0.1,0.4-0.4,0.5-0.7C24.8,11.2,24.9,10.8,25.3,10.9z"/>
		<path class="st27" d="M26.1,13.9c0,0.7-0.1,1.3,0,2c0,0.3,0,0.6-0.2,0.9c-0.5,0-0.3,0.6-0.7,0.7c-0.4-0.2-0.9-0.4-0.7-1.1
			c0-0.1-0.1-0.1-0.2-0.1c0.1-0.4,0.3-0.7,0.5-1.1c0.2-0.4,0.6-0.7,0.8-1.1C25.8,13.9,25.9,13.8,26.1,13.9z"/>
		<path class="st28" d="M68.2,12.6c0-0.8-0.4-1.5-0.2-2.3c0.1-0.4,0.1-0.6,0.5-0.6c0.6-0.1,1.1-0.5,1.2-1.1c0.1-0.5,0.3-0.7,0.8-0.7
			c0.2,0,0.4-0.1,0.5-0.1c0.1,0.1,0.3,0.3,0.4,0.4c0.3,0.1,0.5,0.4,0.7,0.7c0.2,0.5,0.4,0.9,0.1,1.4c-0.4,0.2-0.7,0-0.9-0.3
			c-0.5-0.6-0.7-0.6-1.3-0.1c-1.2,1.2-1.5,2.7-0.9,4.2c0.2,0.4,0.4,0.7,0.4,1.2c0,0.3,0.3,0.5,0.6,0.7c0.2,0.1,0.4,0.2,0.6,0
			c0.2-0.2,0.1-0.4,0-0.6c-0.3-0.8-0.2-0.9,0.5-1.3c0.9-0.4,0.9-0.6,0.6-1.3c0.2-0.7,0.8-0.7,1.4-0.9c0.7,0.3,0.8,0.9,0.4,1.8
			c-0.3,0.6-0.5,1.1-0.6,1.8c-0.1,0.6-0.5,1.1-0.9,1.5c-1.1,0.8-2.6,0.5-3.2-0.7c-0.3-0.5-0.5-1-0.5-1.6
			C68.4,13.8,68.3,13.2,68.2,12.6z"/>
		<path class="st29" d="M78.4,7.8c-0.5,0.1-0.6-0.5-0.9-0.5c-0.5,0-0.1,0.6-0.4,0.8c-0.9,0.7-1.7,1.5-2.5,2.3
			c-0.4-0.5,0.1-1,0.2-1.4c0.2-0.7,0.7-1.3,1-2c0.1-0.4,0.4-0.6,0.8-0.4c0.4,0.1,0.8,0.2,1.1,0.3C78,7.1,78.3,7.3,78.4,7.8z"/>
		<path class="st30" d="M74.4,9.4c0.1-0.4,0.3-0.8,0.4-1.3c0.3-0.4,0.5-0.8,1-1.1c0.2,0.2,0,0.4-0.1,0.6c-0.5,0.9-1,1.8-1.2,2.8
			c-0.1,0-0.1,0-0.2,0C73.9,10,74.2,9.7,74.4,9.4z"/>
		<path class="st17" d="M59.8,0.2c0,0,0,0.1,0,0.1c0.2,0.8,0.1,1.6-0.1,2.4c-0.2,1.3-0.6,2.5-0.4,3.9c-0.1,1-0.1,2,0.2,3
			c0,0.3,0,0.7-0.3,0.9c-0.1,0-0.1,0.1-0.2,0.1c-0.3-0.2-0.7-0.3-1-0.3c-0.1-0.1-0.2-0.2-0.3-0.3c-0.1-0.3-0.4-0.6-0.3-0.9
			c0.2-0.3,0.4-0.7,0.6-1c0.5-0.5,0.3-1.2,0.4-1.8c0.3-1.1,0.2-2.3,0.4-3.5c0.1-0.3,0-0.8,0.5-0.9c0.1-0.3,0.1-0.5-0.1-0.8"/>
		<path class="st2" d="M21.9,14c-0.4-0.2-0.6-0.6-1-0.8c-0.2-0.6-0.2-1.1-0.2-1.7c0.1-0.2,0.2-0.4,0.2-0.6c0.4-0.3,0.8-0.6,1.2-0.9
			c0.5-0.4,1.1-0.6,1.7-0.3c0.2,0.1,0.4,0.2,0.7,0c0.3-0.3,0.7-0.2,1,0c0.3,0.3,0.1,0.6,0,0.8c0,0.1-0.1,0.2-0.1,0.3
			c-0.1,0.2-0.3,0.4-0.4,0.6c-0.3,0.2-0.3,0.7-0.8,0.6c-0.3-0.4,0.1-0.7,0.3-1c0.2-0.4,0.2-0.6-0.3-0.6c-0.7,0-1.5-0.1-2,0.5
			c-0.1,0.2-0.3,0.3-0.4,0.5c-0.1,0.3-0.2,0.5,0.1,0.8c0.3,0.2,0.5,0.1,0.8,0c0.3-0.2,0.6-0.4,1-0.4c0.2,0,0.5,0,0.6,0.2
			c-0.5,0.6-0.6,1.3-0.7,2c-0.1,0.2-0.1,0.5-0.4,0.5c-0.3,0-0.6-0.1-0.7-0.4C22.1,14.1,22,14.1,21.9,14z"/>
		<path class="st0" d="M70.6,29.4c-0.3,1.1-0.4,2.3-0.4,3.4c0,0.4,0.1,0.9-0.5,1.1c-0.4,0.2-1,0.1-1.4-0.3c-0.1-0.2-0.3-0.3-0.5-0.4
			c-0.1-0.2-0.3-0.4-0.4-0.5c0-0.3-0.1-0.5-0.2-0.7c-0.3-0.8-0.2-1.6-0.2-2.4c0-0.4,0.2-0.9,0.4-1.3c0.3-0.7,0.2-1.3-0.4-1.8
			c-0.1-0.1-0.3-0.3-0.1-0.5c0.1-0.2,0.3-0.2,0.5-0.1c0.2,0.1,0.5,0.1,0.8,0.1c0.9,0,1.8,0.3,2.5,0.8c0.5,0.2,0.5,0.6,0.5,1.1
			C71.1,28,71,28.4,71,28.8"/>
		<path class="st31" d="M65.5,26.7c0.2,0.1,0.1,0.4,0.2,0.6c0.2,0.2,0.1,0.4,0,0.6c-0.3,1-0.5,2.1-0.5,3.2c0,0.2-0.1,0.5-0.1,0.7
			c0.1,0.4,0.1,0.8-0.2,1c-0.3,0.2-1.3,0-1.5-0.3c-0.1-0.1-0.2-0.3-0.3-0.4c-0.3-0.7-0.5-1.4-0.3-2.1c0.2-1.2,0.6-2.2,1-3.3
			c0.2-0.7,0.8-0.7,1.2-0.3C65.1,26.5,65.3,26.6,65.5,26.7z"/>
		<path class="st7" d="M65.5,26.7c-0.3,0.1-0.5,0-0.7-0.2c-0.1-0.1-0.3-0.3-0.5-0.2c-0.2,0.1-0.4,0.3-0.3,0.5c0,0.3-0.1,0.5-0.2,0.6
			c-0.4,0.4-0.3,1-0.5,1.5c-0.1,0.3-0.3,0.6-0.5,0.9c0-0.3,0-0.6-0.1-0.9c-0.2-0.1-0.2-0.3-0.3-0.5c0-0.6,0.2-1.1,0.3-1.7
			c0-0.3,0.1-0.5,0-0.8c-0.1-0.6,0-0.6,0.5-0.7c0.1,0,0.1,0,0.2-0.1C64.6,25.2,65.1,25.8,65.5,26.7z"/>
		<path class="st5" d="M67.4,25.7C67,25.8,67,26,67.3,26.2c0.7,0.6,0.9,1.2,0.4,2.1c-0.1,0.2-0.1,0.4-0.1,0.7c0,0.2,0.1,0.4-0.2,0.4
			c-0.1,0-0.1,0.1-0.1,0.2c0.2,0.7-0.1,1.5,0.3,2.3c0.1,0.3,0.1,0.5-0.1,0.8c-0.8-0.8-0.9-1.8-0.8-2.8c0.1-0.8,0.2-1.6,0.3-2.5
			c0.1-0.1,0-0.3,0-0.4c0-0.3,0-0.5-0.4-0.4c-0.1,0-0.1-0.1-0.2-0.2C66.7,25.6,66.8,25.5,67.4,25.7z"/>
		<path class="st5" d="M63.1,32.1c0.4,0,0.7,0.4,1.1,0.4c0.8,0.1,0.9,0,1-0.8c0.1,0.4,0.1,0.7,0.2,1.1c0,0.3,0.2,0.7-0.2,0.9
			c-0.6,0.2-1.1,0.3-1.4-0.2c-0.1-0.1-0.2-0.2-0.3-0.3c-0.6-0.2-0.3-0.6-0.4-1C63.1,32.2,63.1,32.2,63.1,32.1z"/>
		<path class="st32" d="M67.8,33.1c0.2-0.1,0.4,0.1,0.5,0.2c0.8,0.6,1.2,0.5,1.7-0.4c0,0,0.1-0.1,0.1-0.1c0.3,0.4,0.6,0.8,0.2,1.3
			c-0.5,0.3-1,0.3-1.5,0.1C68.5,34,68.1,33.6,67.8,33.1z"/>
		<path class="st33" d="M66.5,26.3c0.6,0.2,0.7,0.3,0.5,1c0-0.2,0-0.4,0-0.7c-0.6,0.3-0.8,0.9-1.2,1.3c0-0.2,0-0.4,0-0.6
			C66.2,27.1,66.3,26.6,66.5,26.3z"/>
		<path class="st34" d="M62.7,28.5c0,0.2,0,0.4,0,0.6c-0.6,0.4-0.9,1.1-1.5,1.6c0-0.1,0-0.2-0.1-0.3c0.2-0.6,0.7-1.1,1-1.6
			C62.3,28.5,62.5,28.4,62.7,28.5z"/>
		<path class="st6" d="M56.5,26c0.4,0,0.7-0.1,1.1,0c0.6,0.2,0.7,0.5,0.4,1c0-0.2-0.1-0.5-0.2-0.7c-0.2-0.3-0.4-0.4-0.7-0.2
			c-0.2,0.1-0.8,0-0.4,0.6c0.1,0.1,0,0.2-0.1,0.2c-0.4,0.5-0.8,1-1.4,1.5c-0.4,0.3-0.2,0.7-0.5,1c-0.5,0.5-0.9,1.1-1.4,1.6
			c0.1-1.9,1.1-3.3,2.2-4.7C55.8,26,56.2,26.3,56.5,26z"/>
		<path class="st12" d="M49,27.8c0.6-0.3,1.3-0.4,1.9-0.1c-0.2,0.2-0.5,0.1-0.7,0c-0.2-0.1-0.4-0.1-0.5,0.2
			c-0.1,0.2,0.1,0.3,0.3,0.4c0.2,0.1,0.4,0.2,0.5,0.3c0.1,0.1,0.2,0.2,0.1,0.3c-0.4,0.4-0.3,1-0.2,1.4c0.3,1.1,0.1,2.2-0.2,3.2
			c-0.4-0.3-0.5-0.7-0.5-1.2c-0.1-0.7-0.1-1.5-0.1-2.2c-0.5-0.3-0.5-0.7-0.4-1.2c0-0.3,0.1-0.5-0.1-0.7C48.9,28.1,48.8,28,49,27.8z"
			/>
		<path class="st6" d="M58,27.1c-0.1,0.2-0.2,0.4-0.2,0.7C57.4,27.3,57.4,27.3,58,27.1z"/>
		<path class="st13" d="M44.6,26c0.5,0.1,1.1,0,1.6,0.3c-0.4,0.1-0.7,0.4-0.6,0.9c0,0.3,0,0.7,0,1c0,0.1,0.1,0.2,0,0.3
			c-0.4,0.9-0.2,1.8-0.1,2.7c0,0.4-0.1,0.7-0.2,1c-0.3-0.5-0.3-1.1-0.4-1.7c0-0.2-0.1-0.4-0.2-0.6c-0.1-0.9,0.3-1.7,0-2.6
			c-0.3-0.1-0.2-0.5-0.4-0.7C44.1,26.2,44.2,26,44.6,26z"/>
		<path class="st8" d="M49,28.1c0.2,0.1,0.4,0.3,0.4,0.6c0,0.5,0.1,1,0.2,1.5c-0.6,0.7-1.3,1.3-1.2,2.3c0-0.2-0.1-0.4-0.1-0.5
			c-0.1-0.7-0.1-1.4-0.3-2c-0.1-0.2,0-0.5,0.1-0.7c0.2,0.1,0.3,0.3,0.5-0.1C48.6,28.8,49,28.5,49,28.1z"/>
		<path class="st5" d="M51.7,23.7c0.1,0.1,0.2,0.1,0.2,0.2c0.3,0.3,0.4,0.7,0,1c-0.1,0.1-0.1,0.2-0.2,0.3c-0.1,0.4-0.4,0.4-0.7,0.3
			c-0.2-0.1-0.5-0.2-0.6-0.3c0,0-0.1-0.1-0.1-0.1c-0.2-0.3-0.7-0.5-0.3-1C50.6,23.7,51.1,23.6,51.7,23.7z"/>
		<path class="st35" d="M50.5,25.1c1,0.3,1,0.3,1.4-0.6c0.1-0.2,0.1-0.4,0-0.7c0.8,0.5,0.8,1.1-0.1,1.7
			C51.3,25.6,50.9,25.6,50.5,25.1z"/>
		<path class="st8" d="M50.1,24c0.1,0.3,0.3,0.6,0.3,1C49.8,24.7,49.7,24.4,50.1,24z"/>
		<path class="st36" d="M50.9,18.7c-0.8-0.8-0.6-1.8-0.5-2.8c0-0.1,0.1-0.2,0.1-0.3c0.1-0.6,0.2-1.2,0.2-1.8c0-0.1,0.1-0.2,0.1-0.3
			c-0.1-1.2,0.7-2.1,1-3.2c0.1-0.2,0.1-0.3,0.2-0.5c0.1-0.7,0.7-0.9,1.3-0.5c0.5,0.3,0.9,0.8,1.2,1.3c0.1,0.3,0.1,0.6,0,0.9
			c-0.1,0.3-0.2,0.5-0.1,0.8c-0.3,1.5-0.2,3.1-0.4,4.7c0,0.5,0,0.9-0.3,1.3c0,0.4-0.1,0.8-0.1,1.2c0.1,0.4,0,0.9,0,1.3
			c0,0.6-0.2,0.9-0.8,0.9c-0.7,0-1.1-0.2-1.2-0.8C51.3,20.1,51.2,19.4,50.9,18.7z"/>
		<path class="st6" d="M54.3,10.6c-0.4-0.4-0.8-0.7-1.3-1.1c-0.3-0.3-0.8-0.3-0.8,0.2c0,0.8-0.5,1.3-0.8,1.9c-0.2,0.5-0.5,1-0.5,1.6
			c0,0.2-0.1,0.4-0.3,0.5c-0.1-0.1,0-0.3-0.2-0.4c0-0.3,0-0.6,0-0.8c0.1-0.1,0.1-0.2,0.1-0.4c0.1-0.5,0.2-1,0.3-1.4
			c0.2-0.7,0.2-1.4,0-2.1C51,8,51.1,7.9,51.7,7.9c0.1,0,0.1,0.1,0.2,0c1.1-0.4,1.7,0.4,2.3,1c0.2,0.3,0.5,0.6,0.6,1
			c0,0.3-0.1,0.5-0.3,0.7C54.5,10.7,54.4,10.7,54.3,10.6z"/>
		<path class="st37" d="M50.8,12.2c-0.1,0.1-0.1,0.2-0.2,0.3c0-0.2,0-0.3,0-0.5c0-0.2,0.1-0.4-0.1-0.5c-0.2-0.1-0.3,0.2-0.4,0.3
			c-0.1-0.5-0.2-0.9,0.4-1.2c0.2-0.1,0.2,0.1,0.2,0.2C51.2,11.2,50.9,11.7,50.8,12.2z"/>
		<path class="st37" d="M50.7,13.3c0.1,0.1,0.1,0.3,0.2,0.4c0,0.6,0,1.3-0.3,1.8C50.6,14.8,50.6,14.1,50.7,13.3z"/>
		<path class="st23" d="M30,9.7c0.5-0.5,1-1,1.6-1.5c0.3-0.3,0.6-0.4,0.9,0c-0.6,0.8-1.2,1.7-1.8,2.5c-0.2,0.2-0.3,0.5-0.6,0.6
			C29.9,10.8,30.5,10.2,30,9.7z"/>
		<path class="st1" d="M40.1,12c-0.1-0.2-0.2-0.5-0.3-0.7c0.6-1,1.6-1.7,2.5-2.5c0.6-0.6,0.9,0,1.3,0.1c0.4,0.1,0.4,0.4,0.3,0.8
			c-0.3,1-0.7,2-1.5,2.8c-0.2,0.2-0.2,0.6-0.4,0.8c-0.1,0.2-0.3,0.5-0.6,0.4c-0.3,0-0.3-0.3-0.4-0.5C40.8,12.8,40.6,12.2,40.1,12z"
			/>
		<path class="st38" d="M45.3,5.9c0.1,0.2,0.4,0.2,0.6,0.2c0.9,0.1,1.6,0.5,2,1.3c-0.3,0-0.5,0-0.7-0.2c-0.4-0.5-0.7-0.5-0.9,0.2
			C46.1,7.7,46,8.1,45.4,8c-0.6-0.1-1.1-0.1-1.1-0.9c0-0.2,0.1-0.3,0.1-0.5c0.1-0.2,0.1-0.5,0.2-0.7C44.8,5.7,45,5.6,45.3,5.9z"/>
		<path class="st14" d="M44.6,6.9C44.5,7,44.4,7,44.3,7.1c-0.3-0.6-1.2-0.6-1.5-1.3c0.3-0.1,0.6,0,0.8,0.2C44.2,6,44.4,6.2,44.6,6.9
			z"/>
		<path class="st5" d="M28.2,17.3c0.3,0,0.6,0.1,0.7,0.4c0.3,1,0.2,1.9-0.3,2.8c-0.4,0.7-1.4,0.7-1.9,0.1c-0.2-0.2-0.3-0.4-0.5-0.7
			c-0.2-0.3-0.3-0.6-0.3-1c-0.1-0.5,0.4-0.4,0.5-0.7C26.7,17.5,27.4,17.4,28.2,17.3z"/>
		<path class="st16" d="M47.8,11.2c0.5,0.2,0.6-0.4,1-0.4c0.3,0.1,0.8,0.1,0.7,0.6c-0.1,0.6-0.2,1.3-1,1.4c0.2-0.3,0.5-0.5,0.7-0.8
			c0.2-0.3,0.4-0.7-0.2-0.7c-0.2,0-0.4,0.1-0.6,0.2C48,11.5,47.8,11.5,47.8,11.2z"/>
		<path class="st0" d="M36.3,10.1c0.3,0.1,0.8,0.2,1.2,0.4c0.5,0.2,0.5,0.7,0.1,1.2c-0.7,0.8-1.6,0.9-2.5,1.1
			c-0.3,0.1-0.9,0.4-1.1-0.1c-0.2-0.4,0-0.8,0.3-1.2c0.3-0.5,0.9-0.8,1.3-1.3C35.7,10,36,10.1,36.3,10.1z"/>
		<path class="st16" d="M50.8,12.2c0-0.5,0-1-0.1-1.4c0.2-0.3,0.1-0.7,0.1-1c-0.2-0.6-0.3-1.2,0-1.8c0.2-0.4,0.5-0.3,0.9-0.2l0,0
			c0.1,0.1,0.1,0.1,0,0.2c-0.5,0.1-0.3,0.5-0.2,0.7c0.5,0.7,0.3,1.3,0,2C51.3,11.2,51.1,11.7,50.8,12.2z"/>
		<path class="st37" d="M51.7,7.8c-0.6,0-0.9,0.3-0.8,1c0.1,0.4-0.1,0.7-0.1,1c-0.5,0.1-0.9,0.6-1.4,0.4c0-0.1,0-0.2,0.1-0.3
			c0.6-0.5,1-1.1,1-1.9C50.9,7.2,51,7.2,51.7,7.8z"/>
		<path class="st28" d="M26.4,11.8c0.2-0.3,0.1-0.7,0.1-1c0.4-0.3,0.9-0.4,1.4-0.6c0.5-0.3,1.1-0.1,1.6,0.2c0.3,0.1,0.1,0.4,0,0.6
			c-0.5,1-1.5,1.3-2.3,1.8c-0.3,0.2-0.7-0.1-0.8-0.5C26.4,12.1,26.4,11.9,26.4,11.8z"/>
		<path class="st1" d="M59.1,10.3c0.1-0.3,0.2-0.6,0.2-0.9c0.2-0.6,0.3-1.2,0.9-1.5c0.6-0.3,0.9-0.2,1.2,0.4
			c0.3,0.6,0.3,1.2,0.3,1.8c0,0.3,0,0.5,0,0.8c0.1,0.9-0.3,1.8-0.1,2.8c0,0,0,0.1,0,0.1c-0.1,1.1-0.6,1.6-1.3,1.2
			c-0.5-0.3-0.6-0.7-0.7-1.2c-0.2-0.8-0.3-1.7-0.4-2.6C59.3,11,59,10.7,59.1,10.3z"/>
		<path class="st39" d="M66.5,10.2c0.3,0.1,0.4,0.3,0.4,0.7c-0.1,1.1,0,2.2-0.3,3.3c-0.1,0.4-0.5,0.5-0.8,0.6
			c-0.4,0.1-0.5-0.2-0.6-0.5c-0.3-0.5-0.1-1.2-0.7-1.4c-0.1-0.2-0.2-0.4-0.3-0.5c-0.3-0.2-0.4-0.5-0.2-0.8c0.2-0.4,0.1-0.8,0.1-1.2
			c0-0.6,0.3-0.9,0.9-0.8C65.5,9.6,66.1,9.7,66.5,10.2z"/>
		<path class="st13" d="M66.5,10.2c-0.5,0-0.9-0.3-1.4-0.3c-0.5,0-0.7,0.1-0.6,0.6c0.2,0.7-0.4,1.2-0.2,1.9c0,0-0.1,0-0.1,0l-0.1,0
			c-0.3,0-0.6-0.1-0.7-0.4c-0.2-0.8,0.2-1.5,0.2-2.3c0.1-0.8,0.1-1.5-0.7-2.1c-0.3-0.2-0.5-0.6-0.6-1c-0.1-0.3-0.1-0.8,0.5-0.6
			C64,6.4,65.1,7,66,8c0.8,0.6,1,1.2,0.5,1.8C66.5,9.9,66.5,10.1,66.5,10.2z"/>
		<path class="st40" d="M63.7,11.9c-0.1-1-0.2-2.1-0.4-3.1c0-0.2,0-0.5-0.3-0.8c-0.6,1.6-1.7,2.9-1.4,4.6c0,0.4,0,0.8,0,1.1
			c-0.3-0.9-0.1-1.9-0.1-2.8c0.2-1.6-0.4-3.3,0-4.9c0.1-0.3,0-0.6,0.4-0.6c0.2,0.3,0.6,0.2,0.8,0.6c-0.4,0.2-0.3,0.5-0.1,0.7
			c0.3,0.3,0.5,0.7,0.8,1c0.4,0.4,0.4,1.1,0.4,1.6C63.8,10.1,63.9,11,63.7,11.9z"/>
		<path class="st7" d="M50.9,18.7c0.4,0.6,0.6,1.3,0.8,1.9c0.2,0.4,0.3,0.8,0.9,0.8c0.5,0,0.6-0.4,0.7-0.7c0.1-0.4,0.2-0.8,0.2-1.2
			c0.3,0.8,0.2,1.6,0.3,2.4c0,0.8-0.9,1.2-1.6,0.7c-0.6-0.4-0.9-0.9-1-1.6c-0.1-0.6,0-1.2-0.2-1.8C50.9,19,50.9,18.9,50.9,18.7z"/>
		<path class="st41" d="M72.3,16.7c0.4-0.7,0.7-1.4,0.6-2.2c0-0.4,0.2-0.6,0.4-0.9c0.6-0.6,0.6-1.3,0.1-1.8c0.1-0.6,0.4-0.9,1-0.9
			c-0.3,1.2,0,2.4,0.1,3.6c-0.1-0.3-0.2-0.7-0.3-1c-0.1,0-0.1-0.1-0.2-0.1C73.8,14.8,73.7,16.2,72.3,16.7z"/>
		<path class="st6" d="M59.1,10.3c0.4,0.9,0.4,2,0.6,2.9c0,0.1,0,0.1,0,0.2c0.1,0.6,0.3,1.2,0.9,1.3c0.6,0.1,0.7-0.6,1-0.9
			c0.2,0.7,0.4,1.3-0.3,1.8c-1.2,0-1.6-0.3-1.8-1.5c-0.1-0.6-0.2-1.3-0.2-2c0-0.6-0.2-1.2-0.3-1.8C59,10.3,59.1,10.3,59.1,10.3z"/>
		<path class="st2" d="M39.9,26.4c0.3,0,0.5-0.1,0.8-0.1c0.7-0.1,1,0.4,1.2,0.9c0.3,0.4,0.5,0.8,0.4,1.3c-0.4,0.3-0.6,0.1-0.8-0.2
			c-0.2-0.3-0.2-0.7-0.5-0.9c-0.2-0.2-0.4-0.3-0.5,0c-0.3,1-1.2,1.7-1.3,2.8c0,0.1-0.1,0.3-0.2,0.4c-0.3,0.4-0.2,0.8,0,1.2
			c0.1,0.2,0.2,0.3,0.1,0.6c-0.5,0.3-0.7,0.6-0.8,1.2c0,0.2-0.1,0.3-0.2,0.5c-0.1,0.1-0.3,0.2-0.4,0.2c-0.4,0.1-0.9,0.1-1.3,0
			c-0.3-0.1-0.4-0.2-0.4-0.5c0.3,0,0.6,0,0.8,0.1c0.3,0.1,0.6,0.2,0.8,0c0.2-0.3,0.3-0.6,0.2-1c-0.1-0.5-0.2-1-0.4-1.5
			c0.2-0.1,0.4-0.2,0.4-0.4c0-0.8,0.2-1.5,0.2-2.3c0.1-0.4,0.3-0.8,0.5-1.2C38.9,26.7,39.2,26.3,39.9,26.4z"/>
		<path class="st12" d="M36.3,20c0.7,0,1.1,0.3,1.2,1.1c0.1,1.1,0,2.1-0.1,3.2c0,0.2,0,0.5-0.1,0.7c-1-0.9-1.2-2.1-0.8-3.4
			C36.6,21.1,36.4,20.6,36.3,20z"/>
		<path class="st20" d="M32.2,35.2C32.2,35.1,32.1,35,32,35c0.2-0.1,0.3,0,0.5,0c0.7,0.2,1-0.1,1-0.8c0-0.2,0-0.5,0.1-0.7
			c0.2-0.3,0.1-0.5-0.2-0.7c-0.2-0.5,0-1.1,0.5-1.3c0.2,0.4,0.4,0.8,0.8,1.1c0,0.3,0.1,0.6,0.1,0.9c-0.1,0.3-0.3,0.7-0.6,0.9
			c-0.2,0.6-0.6,0.8-1.3,0.8C32.7,35.3,32.5,35.2,32.2,35.2z"/>
		<path class="st39" d="M39.1,32.2c-0.2-0.2-0.4-0.5-0.5-0.7c-0.2-0.3-0.2-0.6,0-0.9c0.3-0.4,0.2-0.8,0.3-1.2c0.3-0.8,1-1.3,1.2-2.1
			c0-0.2,0.2-0.3,0.2-0.5c0-0.2,0.1-0.3,0.3-0.4c0.2,0,0.3,0.2,0.3,0.3c0.2,0.4,0.5,0.9,0.7,1.3c0.1,0.2,0.3,0.4,0.5,0.4
			c0.4,0,0.5,0.3,0.4,0.6c-0.3,1-0.4,2-0.5,3c0.3,0.4,0.3,1,0.3,1.5c0,0.2-0.1,0.3-0.3,0.3c-0.3,0-0.5,0.1-0.7,0.3
			c-0.1,0-0.3-0.1-0.4-0.1c-0.1,0-0.1-0.1-0.2-0.1c-0.1-0.1-0.2-0.2-0.4-0.3c-0.6-0.2-1.1-0.5-1.4-1C39.1,32.4,39,32.3,39.1,32.2z"
			/>
		<path class="st9" d="M39.2,32.5c-0.4,0.4-0.7,0.8-0.8,1.3c-0.1,0-0.1,0.1-0.2,0.1c0-0.5-0.1-0.9,0.3-1.3c0.2-0.2,0.4-0.3,0.6-0.3
			C39.1,32.3,39.2,32.4,39.2,32.5z"/>
		<path class="st5" d="M62,5.4c0,1.2-0.4,2.4-0.3,3.6c0.1,0.7,0,1.3-0.2,1.9c-0.1-0.2-0.2-0.4-0.1-0.6c0-0.1,0.1-0.2,0.1-0.3
			c0.1-0.8-0.2-1.7-0.6-1.7c-0.7-0.1-1,0.5-1.3,1c-0.1,0.1-0.2,0.2-0.2,0.3c-0.2-1-0.5-1.9-0.1-3c0.2-0.6,0.2-1.2,0.3-1.8
			c0.2-1.1,0.4-2.2,0.6-3.3c0.1-0.6,0.3-0.6,0.8-0.4c0.5,0.2,0.8,0.7,1.1,1c0.8,0.8,0.5,1.7,0.2,2.6C62,4.9,62,5.1,62,5.4z"/>
		<path class="st38" d="M62,2c-0.4-0.3-0.7-0.5-1.1-0.8c-0.4-0.3-0.6-0.1-0.6,0.3c-0.1,1.6-0.6,3-0.8,4.6c0,0.2-0.1,0.3-0.3,0.4
			c0-1.5,0.1-2.9,0.5-4.3c0.1-0.4,0-0.7,0-1.1c0-0.3,0-0.6,0.2-0.8C60.9,0.5,61.5,1.1,62,2z"/>
		<path class="st5" d="M21.9,14c0.1,0,0.2,0.1,0.3,0.1c0.3,0.1,0.5,0.5,0.8,0.2c0.3-0.2,0.4-0.5,0.3-0.9C23,12.7,23.8,12.5,24,12
			l0,0c0.4-0.1,0.6-0.4,0.8-0.6c-0.1,0.2-0.2,0.5-0.3,0.6c-0.8,0.4-0.9,1.1-1,1.9c-0.1,0.5-0.2,0.9-0.8,1C22,14.9,22,14.4,21.9,14z"
			/>
		<path class="st25" d="M72.1,10.1c-0.2,0.7-0.4,1.4-0.6,2.1c-0.1,0.5,0,0.7,0.5,0.4c0.4,0,0.6,0.3,0.7,0.7c0.1,0.5-0.3,0.5-0.5,0.6
			c-0.2,0.1-0.3,0.2-0.5,0.3c-0.8,0.4-0.8,0.4-0.3,1.2c0.3,0.5,0.1,0.9-0.5,1c-0.8,0.1-1.5-0.6-1.6-1.3c0-0.5-0.4-0.8-0.5-1.2
			c-0.5-1.5-0.2-3.2,1-4.2c0.3-0.3,0.4-0.8,0.9-0.7c0.3,0,0.6,0.2,0.8,0.3C71.8,9.4,71.8,9.9,72.1,10.1z"/>
		<path class="st6" d="M58.1,10.1c-0.2,0.3-0.2,0.5-0.1,0.8c0.2,0.6,0.1,1.2-0.2,1.8c-0.4,0.8-1.1,1.4-1.8,1.8
			c-0.4,0.3-0.8,0.4-1.3,0.1c-0.4-0.3-0.6-0.6-0.6-1.1c0-0.4,0.1-0.9-0.2-1.2c0-0.3,0-0.5,0.1-0.8c0.3-0.1,0.7-0.4,1-0.1
			c0.1,0.2,0,0.4-0.1,0.6c-0.2,0.5,0,1.1,0.5,1.3c0.5,0.2,0.8,0,1.1-0.4c0.5-0.7,0.8-1.4,0.7-2.2c0-0.4-0.1-0.8,0.4-0.9
			c0.1,0,0.1,0,0.2,0.1C58.1,9.9,58.1,10,58.1,10.1z"/>
		<path class="st35" d="M55.2,11.5c-0.3-0.1-0.7,0.3-1,0c0-0.3,0.1-0.6,0.1-0.8c0,0,0.1,0,0.1,0c0.1,0,0.2,0,0.4-0.1
			c0.2-0.1,0.3-0.4,0.4-0.5c0.5-0.7,0.5-1,0-1.7c0-0.1,0,0,0-0.1c0-0.3-0.5-0.6-0.2-0.9c0.4-0.3,0.7,0.1,1,0.2
			c0.4,0.2,0.6,0.7,1,0.9c0.2,0.2,0.4,0.4,0.5,0.7C57.8,9.3,58,9.4,58,9.8c0,0-0.1,0-0.1,0c-0.5-0.1-0.9,0-1.2,0.6
			c-0.2,0.4-0.6,0.7-1,1C55.6,11.6,55.4,11.6,55.2,11.5z"/>
		<path class="st25" d="M24,12c-0.6,0.1-1.2,0.3-1.6,0.7c-0.3,0.3-0.7,0.1-1-0.1c-0.3-0.2-0.5-0.5-0.4-1c0.3-0.9,1.3-1.5,2.2-1.5
			c0.4,0,0.8-0.1,1.3-0.1c0.2,0,0.4,0,0.6,0.2c0.1,0.2,0,0.4-0.1,0.6C24.6,11.3,24.3,11.6,24,12C24,12,24,12,24,12z"/>
		<path class="st30" d="M57,8.4c-0.4-0.1-0.6-0.4-0.8-0.6c-0.3-0.3-0.7-0.6-1-0.3c-0.3,0.2,0.3,0.4,0.3,0.7
			c-0.1,0.1-0.1,0.2-0.2,0.2c-0.7-0.1-1.1,0.3-1.5,0.9c-0.1-0.1-0.3-0.2-0.3-0.3c-0.5-0.7-1.2-0.9-1.9-0.9c0-0.1,0-0.1,0-0.2
			c0.2,0,0.5,0.1,0.7-0.1c0.9-0.7,1.9-0.8,3-0.7c0.3,0.1,0.7,0.3,1,0.4C56.5,7.7,56.9,7.9,57,8.4z"/>
		<path class="st5" d="M55.2,11.5c0.4-0.4,0.8-0.7,1.1-1.1c0.3-0.3,0.4-0.7,0.2-1.1c0-0.1-0.1-0.2,0-0.3c0.1-0.1,0.2-0.1,0.3,0
			c0.3,0.3,0.8,0.3,1.1,0.7c-0.2,0.7,0.1,1.5-0.3,2.2c-0.3,0.6-0.5,1.4-1.3,1.7c-0.8,0.3-1.6-0.2-1.7-1.1
			C54.5,12,54.6,11.7,55.2,11.5z"/>
	</g>
</g>
</svg>
