<?xml version="1.0" encoding="utf-8"?>
<!-- Generator: Adobe Illustrator 20.0.0, SVG Export Plug-In . SVG Version: 6.00 Build 0)  -->
<svg version="1.1" id="Layer_1" xmlns="http://www.w3.org/2000/svg" xmlns:xlink="http://www.w3.org/1999/xlink" x="0px" y="0px"
	 viewBox="0 0 170 107.5" style="enable-background:new 0 0 170 107.5;" xml:space="preserve">
<style type="text/css">
	.st0{fill:#171A13;}
	.st1{fill:#A9A9A3;}
	.st2{fill:#A6A7A4;}
	.st3{fill:#151711;}
	.st4{fill:#161812;}
	.st5{fill:#171913;}
	.st6{fill:#161913;}
	.st7{fill:#24251F;}
	.st8{fill:#161813;}
	.st9{fill:#444F49;}
	.st10{fill:#2D3228;}
	.st11{fill:#2B2D26;}
	.st12{fill:#26271F;}
	.st13{fill:#2D2D27;}
	.st14{fill:#292C26;}
	.st15{fill:#3C3D34;}
	.st16{fill:#9F9F93;}
	.st17{fill:#303028;}
	.st18{fill:#4D5A52;}
	.st19{fill:#2D342C;}
	.st20{fill:#9F9C96;}
	.st21{fill:#3C4841;}
	.st22{fill:#4A5049;}
	.st23{fill:#303832;}
	.st24{fill:#3C3F3D;}
	.st25{fill:#4F5148;}
	.st26{fill:#606C68;}
	.st27{fill:#A3A39C;}
	.st28{fill:#56615A;}
	.st29{fill:#53554A;}
	.st30{fill:#41473D;}
	.st31{fill:#4D534A;}
	.st32{fill:#3A453B;}
	.st33{fill:#96948D;}
	.st34{fill:#6A6B63;}
	.st35{fill:#888F85;}
	.st36{fill:#5B625B;}
	.st37{fill:#7A8985;}
	.st38{fill:#686963;}
	.st39{fill:#45463F;}
	.st40{fill:#989693;}
	.st41{fill:#A2A19E;}
	.st42{fill:#A9A7A4;}
	.st43{fill:#5B5F58;}
	.st44{fill:#A6A49E;}
	.st45{fill:#5F6059;}
	.st46{fill:#AAA9A6;}
	.st47{fill:#697068;}
	.st48{fill:#64645C;}
	.st49{fill:#999791;}
	.st50{fill:#6E6E66;}
	.st51{fill:#6C6C66;}
	.st52{fill:#696B62;}
	.st53{fill:#E9E9E8;}
	.st54{fill:#A6A39E;}
	.st55{fill:#6F6E69;}
	.st56{fill:#8B8B85;}
	.st57{fill:#9B9995;}
	.st58{fill:#8C8B85;}
	.st59{fill:#A7A79C;}
	.st60{fill:#95968E;}
	.st61{fill:#66665E;}
	.st62{fill:#6B6A62;}
	.st63{fill:#75776E;}
	.st64{fill:#72726A;}
	.st65{fill:#A9A6A1;}
	.st66{fill:#AAA8A5;}
	.st67{fill:#B7B4B0;}
	.st68{fill:#A9A7A1;}
	.st69{fill:#656762;}
	.st70{fill:#44453D;}
	.st71{fill:#808079;}
	.st72{fill:#868681;}
	.st73{fill:#71746B;}
	.st74{fill:#FAFAF9;}
	.st75{fill:#72736C;}
	.st76{fill:#757670;}
	.st77{fill:#595A54;}
	.st78{fill:#3F403A;}
	.st79{fill:#2C332B;}
	.st80{fill:#181A14;}
	.st81{fill:#807D78;}
	.st82{fill:#7B7B74;}
	.st83{fill:#93928A;}
	.st84{fill:#A2A29B;}
</style>
<g>
	<path class="st0" d="M54,75.8c-0.6,0.8-0.9,1.6-1.4,2.4c-1.3,2.3-3.5,3.2-6,3c-2-0.2-3-1.9-3.7-3.6c-0.2-0.5-0.3-1-0.5-1.5
		c-0.5-0.4-0.7-1-0.5-1.6c0.5-1.6,0.3-3.1-0.5-4.5c0.3-4.7,1.7-9,3.9-13.2c0.4-0.7,0.5-1.3-0.4-1.5c-0.8-0.2-0.5-0.7-0.2-1
		c0.5-0.6,1.2-1.2,2-1.2c0.9,0,1.3-0.5,1.9-1c0.9-0.9,2-1.5,3.1-2.1c1.5-0.8,3-1.5,4.2-2.6c1-0.8,2-0.7,3,0.1
		c1.9,1.5,3.3,3.4,4.2,5.7c0.7,1.9,1.4,3.8,2,5.7c0.4,1.1-0.1,1.8-1.3,2c-1.7,0.2-2.9-0.4-3.8-1.8c-0.5-0.8-0.8-1.6-1.2-2.5
		c-0.6-1.2-0.9-1.3-2.1-0.7c-2.4,1.2-4.3,3-5.5,5.4c-1.4,2.9-2,5.9-2.1,9c0,0.6,0,1.1,0.7,1.3c0.7,0.2,1.1-0.2,1.4-0.8
		c1.4-3.1,2.6-6.2,2.6-9.7c0-1.3,0-2.7,1.5-3.3s2.5,0.3,3.5,1.2c2.1,2,2.4,4.6,2.8,7.3c0.5,3.4,1,6.9,1.6,10.3
		c0.5,0,0.5-0.4,0.7-0.6c0.3-0.2,0.5-0.2,0.8,0s0.3,0.4,0.2,0.7c-0.8,1.7-0.7,3.6-1.3,5.4c-0.5,1.6,0.2,3.4,0.5,5
		c0.6,3.5,1,7,1.1,10.5c0,2.8-0.8,5.3-2.5,7.6c-0.9,1.2-2,2-3.5,2.2c-0.5,0.2-1-0.1-1.5,0.2c-0.6,0-1.2,0-1.8,0
		c-0.1-0.3,0.4-0.5,0.2-0.8c-0.3-0.3-0.5-0.1-0.8,0.1c-0.8,0.5-0.9-0.3-1.2-0.6c-0.7-1.2-0.3-2.6-0.9-3.8c-0.1-0.2,0.2-0.4,0.3-0.5
		c0.8-0.5,0.9-1.2,0.6-2.1c-0.9-2.3-0.4-4.6,0.5-6.8c0.5-1.2,1.1-2.3,1.7-3.4c0.4-0.7,0.7-1.5,0.3-2.3c-0.3-1.1-0.8-2.1-0.5-3.3
		c-0.3-2.3-0.6-4.6-0.8-6.9c-0.1-0.6-0.5-1-0.7-1.6c-0.2-0.2-0.2-0.5-0.3-0.8C54.2,75.3,54.2,75.6,54,75.8z"/>
	<path class="st1" d="M19,107.8c-0.1-0.4-0.4-0.8,0-1.1c0.2-0.2,0.4-0.2,0.7-0.1c0.6,0.2,0.6,0.7,0.5,1.2
		C19.8,107.8,19.4,107.8,19,107.8z"/>
	<path class="st2" d="M57.5,107.8c0.5-0.5,1-0.2,1.5-0.2c0,0.1,0,0.1,0,0.2C58.5,107.8,58,107.8,57.5,107.8z"/>
	<path class="st3" d="M71.3,29.5c-0.9,2.4-1.1,4.9-0.8,7.5c0.2,1.1-0.5,1.9-1.5,2.4c-3.1,1.5-6.2,0.1-7.1-3.2
		c-0.3-1.3-1.5-2.2-1.4-3.8c-1.2,0.5-1.7,1.2-1.2,2.4c0.2,0.4,0.2,0.7-0.1,1c-1,1.2-1.9,2.2-3.2,3c-1.8,1-4,0.5-5.3-1.3
		c-1.4-1.8-2-3.9-2.2-6.1c-0.4-4.2,0-8.3,0.3-12.5c0-0.4,0-0.8,0-1.3C48,17.8,48,18.5,47.9,19c-0.5,1.6-1.2,3-2.5,4.1
		c-0.5,0.4-1,0.8-1.8,0.5c-0.6-0.3-0.9,0-1,0.6c-0.2,1.3-0.8,2.4-1.2,3.5s-0.6,2.1-0.5,3.3c0.2,2.9-2.5,7.1-5.1,8.4
		c-2.1,1-4.4,0.4-5.8-1.7c-1-1.6-1.7-3.4-2.3-5.2c-0.1-0.3,0-1-0.6-0.9c-0.5,0.1-0.3,0.6-0.3,0.9c0,0.4-0.1,0.8-0.3,1.1
		c-1.6,2.1-3.5,3.9-6.2,4.5c-1.6,0.3-2.9-0.3-3.9-1.6c-2.3-3-3.8-6.3-3.8-10.1c0-3.2,0-6.5,0.5-9.7c0.2-1,0.5-1.8,1.4-2.4
		c0.4-0.3,0.6-0.6,0.7-1c0.3-1.3,1.5-1.8,2.5-2.3c0.8-0.4,1.6,0.8,1.5,1.9c-0.1,0.7-0.3,1.4-0.4,2.1c-0.8,4.4,0.3,8.5,1.5,12.6
		c0.3,1.1,2,1.8,3.5,1.5c1.3-0.2,2.6-1.5,2.5-2.9c-0.2-1.8-0.6-3.6-0.8-5.4c-0.3-1.6-0.2-3.1,1.2-4.3c0.5-0.5,0.7-1.2,1-1.9
		c0.9-2,2.3-2.2,3.7-0.5c0.3,0.4,0.6,0.7,0.9,1c0.5,0.5,0.6,1,0.2,1.6c-0.7,0.8-0.5,1.7-0.3,2.6c0.8,3.2,1.6,6.4,2.4,9.6
		c0.3,1.3,0.7,1.4,1.8,0.7c3.6-2.3,5-5.5,4.1-9.7c-0.3-1.5-0.6-3-0.8-4.5c-0.3-1.8,0.6-2.7,2.3-2.3c1.5,0.3,3.1,0.2,4.4,1.2
		c0.4,0.3,1,0.2,1.3-0.3c0.3-0.6,0.9-0.7,1.5-0.7c2.4-0.2,4.7-0.4,6.6,1.7c1.5,1.7,2,3.6,1.6,5.8c-0.5,2.5-0.8,4.9-0.7,7.4
		c0,0.3-0.2,0.7,0.2,0.7c0.3,0.1,0.4-0.3,0.6-0.6c2-3.6,3.5-7.3,3-11.5C60.4,15.7,61,15,62,14.7c1.8-0.6,3.6-0.2,5.3-0.2
		c0.6,0,0.9,0.7,1.2,1.2c1.5,2.6,2,5.4,1.3,8.3c-0.3,0.9,0.1,1.7,0.5,2.5c0.4,0.9,0.6,1.9,1.3,2.6C71.5,29,71.4,29.3,71.3,29.5z"/>
	<path class="st4" d="M133.6,85.4c-0.4-3.9-0.9-7.8-1.7-11.7c-0.4-1.8-1-3.9,0.1-5.8c0.3-0.3,0.2-0.6,0-0.8
		c-0.4-0.6-0.4-1.2-0.3-1.9c0.1-0.4-0.2-0.7-0.4-1c0-2.7-0.3-5.4-0.5-8.1c-0.2-2.3-0.7-4.3-2.9-5.4c-0.4-0.2-0.6-0.6-1-0.9
		c-0.9-0.7-1.8-1.2-3-0.5c-0.3,0.3-0.3-0.1-0.5-0.2c-0.7-0.6-1.5-1.4-2.5-1c-1.1,0.4-2.2,1-2.2,2.4c0,0.4-0.4,0.6-0.6,0.9
		c-2.2,2.5-4.5,5-6.7,7.5c-0.1,0.3-0.1,0.7-0.4,0.9c-0.6,0.6-1.2,1.1-1.7,1.8c-0.3,0-0.1-0.4-0.3-0.5c-0.3-0.6-0.1-1.2,0-1.8
		c0.1-0.7,0.1-1.4-0.1-2c-0.5-1.7-1.4-3.2-2.6-4.6c-0.4-0.5-0.9-1-1.6-0.8c-0.9,0.3-1.9,0.2-2.8,0c-1.4-0.3-2.5-0.1-3.4,1.1
		c-0.1,0.1-0.3,0.2-0.2,0.5c-0.1,0.6,0.3,0.9,0.6,1.3c0.8,1,1,2.1,0.5,3.3c-0.2,0.4-0.5,0.8-0.3,1.3c0.2,1-0.6,2.2,0.4,3.2
		c0.3,0.3,0.4,0.6,0.4,1c0.3,3.5,0.6,7,1.9,10.4c0.1,0.3,0.1,0.6,0.1,0.9c0.1,2.1,1.8,3.7,4.2,4c1.7,0.2,3.6-1.1,4.2-2.9
		c0.5-1.4,0.9-2.8,1.3-4.2c0.2-0.6,0.3-1.1,0.7-1.6c0.6,0.7,0.9,1.5,1.2,2.3c0.7,2,2.3,3.1,4.2,2.6c2.3-0.6,4.7-1,6.4-2.8
		c0.1-0.2,0.3-0.4,0.6-0.3c0.3,0.1,0.3,0.4,0.3,0.7c0,0.9,0.1,1.8,0.2,2.7c-0.1,0.5-0.2,1.1-0.1,1.7c0.2,2.2,1.5,4.7,1.5,7
		c0.1,2.9-0.3,6.9-0.9,9.9c-0.3-0.2-0.8-1.7-1.1-1.8c-0.4-0.2-0.9-0.1-1.2,0.2c-0.2,1.8,0.2,3.6,0.4,5.4c0.3,2.3,1.7,3.5,4,3.3
		c1.1,0,2.2,0.4,3.3-0.2c1.6-1.1,2.1-2.7,2.3-4.5c0.3-0.7,0.3-1.4,0.5-2.1c0.1-1.8,0.2-3.6,0.2-5.4
		C134.3,87.7,133.6,86.6,133.6,85.4z M122.4,63.7c-3.3,8.8-3.6-8.5,2.1-6.3C125.2,57.7,122.6,63.3,122.4,63.7z"/>
	<path class="st5" d="M146,20.8c-0.6,2.2-1.8,4-3.3,5.7c-0.7,0.7-1.1,1.7-1.4,2.6c-0.2,0.6-0.1,1.1,0.4,1.6c0.5,0.4,0.9,0.1,1.4,0
		c0.7-0.2,1.3-0.9,2.2-0.5c0.6,0.6,0.4,1.1-0.1,1.6c1.4,0.7,1.8,1.7,1.2,3.4c-0.4,1-1.1,1.7-2,2.3c-0.8,0.5-1.6,1.1-1.8,2.1
		c-2.1,1-5.3,0-6.8-2.1c-0.9-1.2-0.9-1.3-2.2-0.3c-1.2,1-2.2,2.1-3.7,2.7c-3.8,1.6-7.4,0.3-9.3-3.3c-1.3-2.4-1.7-5.1-1.5-7.8
		c-0.3-2.3,0-4.5,0.5-6.7c0.6-2.4,2.2-3.2,4.5-2.6c1.2,0.3,2.4,0.7,3.2,1.8c1.3,1.7,1.1,3.5,0.6,5.4c-0.5,1.7-1.3,3.3-1.2,5.1
		c0,1.5,0.2,1.7,1.5,1c2.1-1.1,3.9-2.5,5.6-4.1c0.5-0.5,0.7-1.1,0.9-1.7c0.6-3.2,1.3-6.4,3.6-8.9c0.3-2.9,2.9-3.1,4.8-4
		c2-1,3.5,0,3.9,2.2c0,0.2,0.2,0.4,0.2,0.5C147.5,18.3,146.7,19.5,146,20.8z"/>
	<path class="st6" d="M86.5,18.4c0-1.6,1.2-2.3,2.2-3.3c0.4-0.4,1-0.2,1.6-0.1c1.1,0.2,2.2,0.6,3.3,0.2c0.3-0.1,0.5,0,0.7,0.2
		c2.1,1.7,3.7,3.7,3.4,6.7c-0.1,1.1,0,2.3,0,3.5c0.6,0.1,0.6-0.3,0.7-0.6c0.7-1.5,1.8-2.4,3.4-2.8c1.5-0.4,3.1-0.3,4.6-0.5
		c0.7-0.1,1.4,0.4,1.9,0.8c2,1.8,3,4,2.7,6.8c-0.1,0.7-0.4,1.6,0.6,2.1c0.7-0.3,0.7,0.3,0.6,0.7c-0.1,0.7,0,1.4,0,2.1
		c0.1,1,0.6,1.4,1.5,1.4c1.6,0.1,1.9,0.7,1.3,2.2c-1.4,3.5-5,4-8.2,2.9c-1.5-1.2-2.2-2.9-2.8-4.6c-0.9-2.9-1.6-5.7-1.9-8.9
		c-2.3,1.2-3.3,3.1-3.6,5.4c-0.2,1.2,0,2.5,0.2,3.7c0.3,1.9-0.1,3.4-1.9,4.4c-1.6,0.9-3.2,0.8-4.4-0.6c-1.9-2.3-3.3-4.9-3.2-8
		c0.1-2.2-0.3-4.4-0.4-6.6c0-0.8-0.2-1.6,0.2-2.3c0.2-0.1,0.4,0.1,0.5,0c0.5-1.4,1.9-1.6,3.1-2.2c0.2-0.1,0.5-0.2,0.5-0.6
		c-0.6-0.4-1.3-0.2-2-0.2c-0.7-0.1-1.4,0.1-2-0.5c-0.2-0.6-0.4-1.1-1.1-0.4c-0.4,0.4-0.9,0.4-1.4,0.1C86.3,19.3,86.3,18.9,86.5,18.4
		z"/>
	<path class="st4" d="M67.8,80.2c-0.7-0.8-1.1-1.7-1.5-2.7s-0.5-2.2-1.3-3c-0.4-0.4-0.3-1.1-0.3-1.7c0.2-4.5,1.2-8.7,3.1-12.8
		c0.7-1.4,2.1-2.5,3.3-3.7c0.4-0.4,0.3-1.3,1.4-1.1c0.8,0.2,1.4,0.5,1.7,1.3c0.3,0.7,0.6,1.5,0.8,2.2c0.5,1.7,1.3,3.2,1.3,5
		c0.1,1.8-0.8,3.3-1.4,4.9c-0.8,2-1.2,4.1-0.5,6.3c0,0.2,0,0.5,0,0.7c0,0.5,0,1,0.5,1.2s0.8-0.1,1.1-0.4c0.3-0.2,0.7-0.5,1-0.7
		c1.1-0.6,1.4-0.5,2.1,0.6c0.1,0.1,0.2,0.3,0.3,0.4c1.1,1.5,1.1,1.6-0.3,2.7c-2.9,2.3-6,3.2-9.6,1.5C68.9,80.7,68.3,80.7,67.8,80.2z
		"/>
	<path class="st3" d="M87.3,23.3c-0.5,1.7-1.2,3.3-1.4,5c-0.2,1.2-0.1,2.4,0.2,3.6c0.6,2.1,0.3,4.2-0.1,6.3
		c-0.2,0.8-0.8,1.2-1.3,1.8c-0.7,0.2-1.1,0.6-1.2,1.3c-3.3,1.9-7.1,0.6-8.6-2.9c-0.2-0.8-0.2-1.6-0.3-2.5c0-0.1,0,0,0,0.1
		s0,0.2-0.1,0.2c-0.5,0.2-0.4-0.2-0.4-0.5c0-0.1-0.1-0.2-0.1-0.2c-0.4-0.4-0.6-0.9-0.6-1.5c-0.1-2.8-0.4-5.5,0.2-8.3
		c0.3-1-0.3-1.8-0.7-2.7c-0.2-0.6-0.7-1.1-0.4-1.9c0.1-0.5,0.5-0.6,0.8-1c0.2-0.2,0.3-0.2,0.5-0.1s0.4,0.3,0.5,0.6
		c0.7,1.9,2.1,2.7,4.1,3c1,0.1,2.1,0.3,3,0.7c0.6,0.3,1.2,0.3,1.7-0.3c0.8-1,1.7-1.7,3-1.5C86.6,22.8,87,22.8,87.3,23.3z"/>
	<path class="st7" d="M76,63.8c0.1-1.3-0.6-2.4-0.9-3.7c-0.1-0.5-0.2-1-0.1-1.5c1,0.2,0.7-0.9,1.3-1.2c0.5-0.4,1-1,1.6-1.4
		c0.4-0.3,0.9-0.4,1.4-0.2c1.2,0.3,1.9,1.4,2.9,2c0.4-0.1,0.2-0.7,0.7-0.9c0.1,0.3,0.2,0.5,0.3,0.8c0.7-0.2,1-0.6,1.1-1.2
		c0.7-3.1,1.1-3.2,3.8-1.7c0,0.1,0,0.2,0,0.2c0.1,1.9-0.2,2.2-2.3,1.7c1.1,1.5,1,3,0.9,4.6c-0.2,2.4,0,4.8-0.1,7.2
		c0,0.6,0.1,1.2-0.4,1.6c-0.4-1-0.2-2-0.2-3c0-2.2,0-4.5,0-6.7c0-0.4-0.1-0.9-0.3-1.4c-0.9,1.1-2.2,1.8-1.8,3.7
		c1.1,5.3,0.3,10.5-1.5,15.6c-0.3,0.8-0.7,1.6-1.4,2.2c-2.5,2.6-8.5,3.3-11.5,1.5c-0.8-0.5-1.5-1.1-1.8-2c0.6-0.1,1.2,0.2,1.8,0.4
		c3.6,1.7,6.7,0.7,9.5-1.6c0.2-0.2,0.4-0.4,0.6-0.5c0.7-0.4,0.6-0.7,0-1c-0.4-0.3-0.8-0.6-0.9-1c-0.1-1.2-0.7-1-1.4-0.5
		c-0.4,0.3-0.8,0.5-1.2,0.8c-0.4,0.3-0.8,0.9-1.4,0.6c-0.6-0.2-0.7-1-0.7-1.6c0-0.2,0.1-0.4,0.2-0.6c2.8-3,2.7-6.7,2.7-10.5
		C77,63.8,76.6,63.7,76,63.8z"/>
	<path class="st8" d="M86.2,70.3c0-2.4,0-4.8,0-7.2c0-0.9,0-1.8,0.2-2.7c0.2-1.2-0.1-2.3-0.9-3.2c-0.2-0.2-0.6-0.4-0.3-0.7
		c0.2-0.3,0.6-0.1,0.9,0c0.1,0.1,0.2,0.1,0.3,0.2c1.2,0.6,1.3,0.6,1.3-0.7c0-0.3,0-0.7,0.3-0.9c1,0.2,1.9,0.9,2.9,0.1
		c0.2-0.1,0.4,0,0.4,0.1c0.6,1.1,1.8,1.6,2.3,2.7c0.4,0.1,1,0.2,1,0.8c0,1.5,0.6,2.7,1.3,4c-0.5,1.8-1.2,3.6-1.4,5.5
		c-0.1,1.7-0.1,3.3-0.1,5c0,0.2,0,0.5,0,0.7c-0.1,1.1,0,2.3-1.1,2.8c-1.4,0.7-3,0.7-4.2-0.5C87.4,74.6,86.5,72.6,86.2,70.3z"/>
	<path class="st9" d="M38.3,57.3c-0.8,0.3-1.7,0.4-2.4,1.2c-0.4,0.4-0.9,0-1.2-0.3c-0.9-1.1-2.1-1.2-3.4-0.8
		c-0.7,0.2-1.5,0.2-2.2,0.3c-1.2,0.1-1.2,0.1-0.8-0.9c0.1-0.3,0-0.5-0.2-0.6c-0.3-0.2-0.5,0-0.7,0.3c-0.3,0.6-0.1,1.5-1,1.5
		c-0.9,0.1-1.7-0.4-2.3-1c-1.1-1.1-2.2-1.7-3.9-1c-1,0.4-1.6-0.7-2-1.3c-0.3-0.5,0.1-1.3,0.6-1.6c1.2-0.8,2.2-1.8,3.8-1.9
		c0.8-0.1,1.6-0.2,2.4,0.2c0.3,0.2,0.8,0.4,1.1,0.3c1.6-1,1.8,0.4,2.3,1.2c0.4,0.6,0.5,1.2,0.6,1.8c3.8-0.8,7.5-1.4,11.3-0.4
		c1.5,0.4,0.3,1.1,0.2,1.8C39.7,56.5,38.6,56.2,38.3,57.3z"/>
	<path class="st10" d="M142.5,39.5c-0.3-0.8,0.1-1.3,0.7-1.7c0.5-0.3,1-0.7,1.6-1c1.4-0.9,1.7-2.2,1.5-3.7c-0.1-1.1-1.2-0.6-1.9-0.9
		c0.3-0.6,1.6-0.8,0.9-1.9c0.8-0.9,1.7-1.7,3-2c0.8-0.4,1.9-0.4,2.3-1.5c2.8-1.4,5.5-2.7,8.7-1.5c1.6-0.1,1.9,0.2,2,1.7
		c0.1,0.6,0.2,1.2,0.3,1.8c0.1,0.9-0.2,1.6-1.2,1.9s-1.7,0.1-2.3-0.8c-1.2-2-1.2-2-3.1-0.4c-2.8,2.4-5.4,4.8-8.3,7
		C145.3,37.6,144.3,39.1,142.5,39.5z"/>
	<path class="st11" d="M106.8,40.7c2,0,3.9,0.4,5.8-0.5c0.8-0.4,2.4-2.8,2.4-3.6c0-0.4-0.3-0.7-0.8-0.7c-2.2-0.1-3.1-1.2-2.5-3.5
		c0.1-0.3,0.6-0.8-0.2-1c1.5-2.3,3.4-4.3,4.8-6.7c0.9-1.3,1.6-2.6,2.1-4.1c0.1-0.4,0.3-0.7,0.7-0.9c0.7-1.1,1.7-1.4,3-1.1
		c0.8,0.2,1.6,0.4,2.4-0.1c0.3-0.2,0.6-0.1,0.9,0.1c0.8,0.7,1.6,1.4,2,2.5c-1.6-0.9-3.2-1.9-5.2-1.6c-1.2,0.2-1.8,0.9-2.1,2
		c-0.6,2.1-0.8,4.4-0.8,6.6c0,0.2,0,0.4-0.2,0.5c-0.1-0.2,0-0.6-0.3-0.6c-0.3-0.1-0.3,0.3-0.4,0.5c-1.3,2.3-1.6,4.8-2,7.3
		c-0.2,0.9-0.3,1.8-0.6,2.7C114.6,42.4,109.6,43.6,106.8,40.7z"/>
	<path class="st12" d="M53.9,10c-1,0-2-0.8-2.6-1.9c-0.9-1.5-1.1-3.2-1.5-4.8c-0.2-0.7,0.4-1.1,0.9-1.5s0.9-0.2,1.4,0.1
		C54,3.2,56.2,4.3,56.8,7C56.9,8.5,55.8,10,53.9,10z"/>
	<path class="st13" d="M122,6.6c0,2.1-1.5,3.7-3.2,3.6s-2.9-1.8-2.6-3.7c0.2-1.5,0.2-3,0.8-4.4c0.6-1.2,1.1-1.3,2-0.3
		c0.7,0.8,1.4,1.7,2,2.5C121.6,5.1,122,6,122,6.6z"/>
	<path class="st14" d="M96,62.6c-1.1-0.8-1.6-1.9-1.5-3.3c0.1-0.7-0.2-1.2-0.8-1.5c0.7,0,1.1-0.3,1.5-0.8c1-1.2,1.6-2.8,3-3.7
		c0,0.5,0.4,0.7,0.6,1c1.3,1.8,1.3,3,0.1,5c-0.9,0.5-1.4,1.5-2.1,2.3C96.6,61.9,96.3,62.2,96,62.6z"/>
	<path class="st15" d="M125.2,75.4c0.5,1.6,0.3,3.2,0.7,4.8c0.3,1.1,0.2,2.5,0,3.8c-0.2,1.5-0.7,3-1.3,4.4c-0.5,0.2-0.9,0.7-1.5,0.8
		c-0.3-0.5-0.4-1.1-0.3-1.5c0.8-2.9-0.1-6.1,1.1-9C124.4,77.7,124.8,76.5,125.2,75.4z"/>
	<path class="st16" d="M34.8,70c1.9,0.8,2.3,1.8,1.5,3.7C35.7,75,36,76,36.9,77c0.7,0.8,1.3,1.7,1.3,2.9c0,0.3-0.1,0.9-0.5,0.5
		c-1.1-0.9-1.8-0.4-2.6,0.7c-0.4-2-0.8-3.8-1.2-5.5c-0.1-0.4-0.1-0.9,0.1-1.2c1-1.4,0.6-2.7,0.2-4.1C34.4,70,34.5,69.8,34.8,70z"/>
	<path class="st17" d="M132.2,68c-0.4-0.9-1.2-1.6-0.5-2.7c0.1,0,0.1,0,0.2,0c1.1-0.4,1.7-1.3,2.4-2.1c0.7-0.8,1.4-1.6,2.1-2.4
		l0.1-0.1c-0.1,0-0.2,0-0.2,0c-0.1,0-0.2,0-0.3-0.1s-0.2-0.2-0.1-0.4c0.4-0.9,1.3-0.7,2-0.7c0.3,0.4,0.5,1.1,1.2,0.8
		c0.4,0,0.9,0.1,1.3,0.2c0.7,0.2,0.6,0.7,0.5,1.2s-0.6,0.5-1,0.5c-0.9,0.1-1.7,0.2-2.3,1c-0.7,0.7-1.5,1.2-2.2,1.8
		C134.3,66,133.2,67,132.2,68z"/>
	<path class="st18" d="M16.5,90.3c0.3-0.5,0.5-1,0.3-1.5c-0.1-0.6-0.2-1.3,0.5-1.6c0.7-0.4,1.6-0.7,2.2-0.1c0.9,0.7,1.9,1,2.9,1.2
		c0.3,0.1,0.7,0,0.8,0.4c0.1,0.5-0.2,0.7-0.6,1c-0.5,0.3-1.1,0.6-1.6,1c-0.8,0.7-1.9,0.4-2.8,0.9c-0.4,0.1-0.8,0.1-1.2,0
		C16.6,91.1,16.2,90.9,16.5,90.3z"/>
	<path class="st16" d="M30,83c-0.2-0.4-1-0.3-0.8-1.1c0.2-0.9,1-0.9,1.8-1c-0.7-0.6-1.6-0.5-2.3-0.7c-0.1-0.4-0.4-0.7-0.2-1.2
		c0.4-0.4,0.9-0.2,1.3-0.2c0.6,0,1.2,0,1.6-0.7c0.3-0.7,0.8-0.5,1,0.1c0.5,1.1,0.7,2.2-0.2,3.2c-0.6,0.6-0.6,1.2,0.1,1.8
		c0.6,0.5,0.6,1.1,0.5,1.7s-0.5,1-1.1,0.8s-1.3-0.2-1.9-0.7C29.6,84.3,30.7,83.8,30,83z"/>
	<path class="st19" d="M72.5,21.2c0.1,1.2,1.2,2.1,1.2,3.4c0,0.4,0.2,0.8-0.2,1.1c-0.1-0.3,0.2-0.7-0.2-1.1c-0.6,1.7-1.9,3-2.1,4.9
		c-0.6-1.1-1.1-2.3-1.7-3.4c-0.4-0.8-0.5-1.6-0.1-2.4c0,0.3,0,0.6,0,1.1c0.9-0.6,1.4-1.3,1.6-2.1C71.2,21.9,71.7,21.4,72.5,21.2z"/>
	<path class="st20" d="M107.1,89.5c0.7,0,1.3,0.4,1.5,1.4c0.1,0.6,0.3,1.2,0.4,1.8c0.1,0.6,0.1,1.4-0.5,1.7
		c-1.1,0.6-0.9,1.4-0.5,2.3c0.1,0.3,0.3,0.8-0.1,1c-0.5,0.2-0.6-0.4-0.7-0.7c-0.6-2-1.2-4-1.7-6C105.2,90,105.8,89.5,107.1,89.5z"/>
	<path class="st21" d="M87.3,23.3c-1.7-0.6-3.1-0.3-4,1.3c-1,0.1-1.1-0.5-1.1-1.3c1-0.5,2.2-0.9,2.3-2.3c0.5-0.9,0.9-2,2-2.5
		c0.3,1.2,0.7,1.4,1.6,0.7c0.3-0.2,0.4-0.9,0.9-0.7c0.6,0.2,0.3,0.9,0.4,1.3c0.2,0.3,0.3,0.6,0.1,0.9c-0.8,0.2-1.9,0-1.6,1.5
		c0.1,0.2,0.1,0.5,0,0.7C87.7,23,87.6,23.2,87.3,23.3z"/>
	<path class="st22" d="M15,91.2c-1.2,0.5-2.6,0.2-3.8,1c-0.4,0.2-0.8,0-1.1-0.4c-0.4-0.6-0.5-1.3-0.2-2c0.1-0.3,0.3-0.5,0.5-0.7
		c1.2-1,4.8-0.1,5.3,1.4C15.6,90.9,15.4,91.2,15,91.2z"/>
	<path class="st23" d="M47.9,39.9c-0.5,0-1.1-0.1-1.6-0.1c-1,0-1.6-0.5-1.6-1.5s0.4-1.7,1.5-1.7c0.8,0,1.6-0.1,2.3,0.1
		c0.9,0.2,1.4,0.7,1.2,1.7C49.6,39.3,49.1,40.1,47.9,39.9z"/>
	<path class="st16" d="M15,91.2c0.2-0.2,0.5-0.5,0.7-0.7c0.4,0.5,0.5-0.2,0.8-0.2c0,0.4,0.3,0.6,0.5,0.9c0.4,0.7,0.8,0.3,1.2,0
		c0.8-0.7,1.9-0.5,2.8-0.7c0.5,0.6,0.4,1.1-0.3,1.5c-0.7,0.4-1.3,1-2.1,1.1c-0.1,0.5,0.3,0.5,0.5,0.7s0.2,0.5,0.1,0.7
		c-0.2,0.3-0.5,0.3-0.8,0.1c-1.1-0.8-2.2-1.7-3.2-2.6C15.1,91.9,15.1,91.5,15,91.2z"/>
	<path class="st24" d="M89.2,20.8c0-0.4,0-0.7,0-1.1c1.1,0.5,2.2,0.2,3.3,0.3c0.4,0,1-0.1,1.1,0.5s-0.4,0.7-0.9,0.9
		c-1.1,0.5-2.5,0.6-3.1,2c-0.2,0.4-0.4-0.2-0.7-0.2c0-0.1,0-0.2,0-0.2C89.2,22.3,88.6,21.5,89.2,20.8z"/>
	<path class="st25" d="M16.4,54.8c0.5-0.1,1.1-0.1,1.2,0.6c0.1,0.7-0.5,0.7-1,0.8c-0.6,0.1-1,0.5-1.5,0.9c-0.6,0.6-1.2,0.6-1.7,0
		c-0.6-0.6-0.1-1.2,0.4-1.6C14.6,55.1,15.4,54.6,16.4,54.8z"/>
	<path class="st26" d="M84.5,20.9c0.1,1.8-0.1,2-2.2,2.3h-0.1c-0.9-1.1-2.1-1.8-3.1-2.8c-0.1-0.4-0.3-0.7,0-1.1
		c0.9,0.3,1.7,0.9,2.4,1.5C82.5,21.8,83.4,21.9,84.5,20.9z"/>
	<path class="st27" d="M56,84.2c0.4,1,0.5,2.2,0.5,3.3c-0.5-0.5-0.9-1.2-1-1.9c-0.1-0.7-0.4-1.1-1.2-0.6c-0.9,0.6-1.7-0.1-2.5-0.5
		c-0.4-0.2-0.3-0.7,0-1.1s0.8-0.6,1.2-0.2C53.8,84.1,54.8,84.3,56,84.2z"/>
	<path class="st28" d="M79,19.4c0.1,0.4,0.1,0.7,0.2,1.1c-1.2-0.4-2.4-0.2-3.6,0c-0.7,0.1-1.3,0.1-1.9-0.3c-0.2,0-0.3,0-0.5,0
		c0-0.2,0-0.4,0.1-0.5C74.4,18.8,77.8,18.6,79,19.4z"/>
	<path class="st29" d="M123.2,89.3c0.4-0.2,0.7-0.8,1.3-0.8c1,1.3,1.2,2.6,0.3,4c-0.4,0-0.8,0-1.2,0C123.4,91.4,123,90.4,123.2,89.3
		z"/>
	<path class="st30" d="M74,35.5c1.2,0.6,1.3,1.7,1,2.8c-0.4-0.5-0.9-0.2-1.4-0.3c-0.6-0.2-1.3-0.3-1.3-1.1c0-0.9,0.6-1.1,1.4-1
		C74,36,74,35.8,74,35.5z"/>
	<path class="st31" d="M22.2,81.2c0,0.5-0.2,0.9,0.1,1.5c0.5,0.9-0.6,0.9-1,1.4c-0.3,0.4-0.6,0-0.9-0.3
		C19.4,82.4,19.9,81.7,22.2,81.2z"/>
	<path class="st32" d="M41.5,70c1.1,1.1,1.6,2.2,0.9,3.8c-0.3,0.7-0.2,1.5,0.1,2.3c-0.8-0.2-1-0.6-1-1.4c0.1-1.4,0.2-2.8-0.3-4.2
		C41.1,70.2,41.2,70,41.5,70z"/>
	<path class="st33" d="M133.8,94.5c-0.1-1.8,0.1-3.7,0.3-5.5c0.5,0,0.3,0.4,0.3,0.6c0.1,0.3-0.2,0.6,0.2,0.9c0.7,0.4,0.8,1,0.5,1.8
		c-0.3,0.6-0.4,1.3-0.6,2C134.3,94.5,134.1,94.8,133.8,94.5z"/>
	<path class="st34" d="M119,19.8c-0.8,1.7-1.1,3.7-2.8,4.9c-0.1-0.8,0.3-1.4,0.6-2.1c0.4-0.7,0.7-1.5,0.8-2.3
		C117.9,19.1,118,19.1,119,19.8z"/>
	<path class="st35" d="M34.8,70c-0.2,0.1-0.4,0.2-0.6,0.2c-0.3-0.3-0.6-0.5-1-0.8C33,69,33,68.5,32.7,68.1c-0.2-0.3-0.3-0.7,0-1.1
		c0.8,0.1,1.5,0.5,1.7,1.4c0.2,0.8,0.9,0.7,1.4,0.9C35.6,69.7,35.2,69.9,34.8,70z"/>
	<path class="st36" d="M32.7,67c0,0.4,0,0.8,0.4,1.1c0.4,0.4,0.5,0.9,0.1,1.3c-0.9,0-1.5-0.3-1.9-1.1c-0.3-0.5,0.2-0.9,0.5-1.3
		C32.1,66.7,32.4,66.7,32.7,67z"/>
	<path class="st37" d="M89.2,20.8c0,0.7,0.2,1.5-0.2,2.2c-0.3-0.7-0.7-0.9-1.2-0.2c-0.1-0.6-0.7-1.1-0.2-1.9
		C88.1,20.2,88.6,20,89.2,20.8z"/>
	<path class="st38" d="M98.3,53.3c-1,1.3-1.7,2.7-3,3.7c-0.1-0.5,0.1-0.9,0.4-1.3c0.6-0.6,1.1-1.3,1.3-2.1c0.3-0.8,0.7-1,1.5-0.6
		C98.4,53.1,98.3,53.2,98.3,53.3z"/>
	<path class="st39" d="M131.7,65.2c-0.1-0.3-0.1-0.7-0.2-1c0.6,0.4,0.7-0.2,0.9-0.5c0.9-1,1.8-2.2,2.8-3.1c0.2,0.1,0.3,0.2,0.4,0.4
		C134.6,62.6,133.5,64.2,131.7,65.2L131.7,65.2z"/>
	<path class="st40" d="M146,20.8c0.1-1.4,1-2.6,1.3-4C148.2,18.5,148,19.1,146,20.8z"/>
	<path class="st41" d="M149.5,24.8c0.1-0.2-0.2-0.7-0.5-1.1c-0.2-0.2-0.2-0.5,0.1-0.6c0.3-0.2,0.5,0,0.6,0.2
		c0.3,0.5,0.6,1.1,0.7,1.7c0.1,0.4,0,0.9-0.5,0.9C149.2,26.1,149.3,25.6,149.5,24.8z"/>
	<path class="st42" d="M159.7,24.7c0.6-0.6,1.3-0.7,1.9-0.1c0.6,0.7,0.4,1.4-0.2,2c-0.2,0.1-0.3,0-0.3-0.2c-0.1-0.7-0.3-1.3-1.2-1.4
		C159.8,25.1,159.7,24.9,159.7,24.7z"/>
	<path class="st43" d="M26.6,87.8c-0.2-0.8,0.1-1.5,0.4-2.1c0.2-0.5,0.7-0.4,1-0.1s0.5,0.7,0,0.9C27.4,86.8,27.1,87.4,26.6,87.8z"/>
	<path class="st44" d="M117.4,82.5c0.6,0.1,0.6,0.6,0.6,1c0,0.5-0.3,0.9-0.8,0.9s-0.5-0.5-0.4-0.9C116.8,83,116.9,82.6,117.4,82.5z"
		/>
	<path class="st45" d="M150.5,26.8c-0.1,1.4-0.3,1.5-2.3,1.5C148.8,27.5,149.5,26.9,150.5,26.8z"/>
	<path class="st46" d="M134.6,90.5c-0.7-0.3-0.1-1.1-0.5-1.5c0-1.2-0.4-2.3-0.2-3.5C134.7,87,134.4,88.8,134.6,90.5z"/>
	<path class="st47" d="M38.3,57.3c-0.2-1.8,1.2-1.2,2.2-1.3C40.1,57,39.1,57.1,38.3,57.3z"/>
	<path class="st48" d="M140.3,60.5c-0.5,0-1,0-1.5,0c-1.1,0.3-0.9-0.4-0.8-1c0.6-0.2,1.3-0.5,1.5,0.5
		C139.6,60.4,140.1,60.2,140.3,60.5z"/>
	<path class="st49" d="M128,101.2c1.1-0.7,2.2,0,3.3-0.2C130.2,102.2,129.1,101.7,128,101.2z"/>
	<path class="st50" d="M59.8,43c-0.4-0.5-1.1,0.9-1.2,0c-0.1-0.8,1.1-0.5,1.7-0.8c0.3-0.1,0.5,0.2,0.5,0.5
		C60.7,43.4,60.2,43.1,59.8,43z"/>
	<path class="st51" d="M79.3,56c-0.6,0-1.1,0.1-1.5,0.7c-0.3,0.5-0.9,0.8-1.5,0.9C77.1,55.8,77.7,55.5,79.3,56z"/>
	<path class="st52" d="M30,83c0.7,0.1,0.7,0.6,0.4,1.1c-0.2,0.3-0.5,0.6-0.7,0.9C28.6,84.2,29.8,83.6,30,83z"/>
	<path class="st53" d="M159.7,24.7c1.2,0.4,1.2,0.4,1.8,2c-0.1,0.1-0.2,0.2-0.3,0.3c-0.2-1.1-1-1.6-2-1.7
		C159.4,25.1,159.6,24.9,159.7,24.7z"/>
	<path class="st41" d="M160.9,34c0.1-0.7,0.5-1.1,0.8-1.6c0.1-0.2,0.4-0.5,0.7-0.3c0.2,0.2,0.2,0.6,0,0.8
		C162,33.4,161.6,33.8,160.9,34z"/>
	<path class="st54" d="M86.7,105.3c-1.2-0.7-1.3-1.1-0.4-2C86.7,103.9,86.8,104.6,86.7,105.3z"/>
	<path class="st55" d="M111.5,59c0.3,0.4,0.2,0.8-0.2,1c-0.6,0.1-0.7,0.6-1.1,0.9c-0.3,0.2-0.5,0.3-0.5-0.2
		C110.1,59.9,110.6,59.2,111.5,59z"/>
	<path class="st20" d="M133.8,94.5c0.2-0.1,0.5-0.2,0.7-0.2c0,0.9-0.2,1.7-1,2.3C133.5,95.8,133.4,95.1,133.8,94.5z"/>
	<path class="st56" d="M109.7,60.7c0.6,0.3,0.6-0.3,0.8-0.5c0.2-0.2,0.4-0.6,0.7-0.2c-0.6,0.7-1.2,1.3-1.8,2
		c-0.6-0.1-0.3-0.4-0.2-0.7C109.6,61.2,109.5,60.8,109.7,60.7z"/>
	<path class="st57" d="M135.3,65c0.5-0.8,1.3-1.4,2.2-1.8C137.2,64.3,136.3,64.7,135.3,65z"/>
	<path class="st58" d="M46.2,88.4c0.4-0.8,1.1-0.9,1.9-1C47.7,88.2,47.1,88.4,46.2,88.4z"/>
	<path class="st59" d="M32.8,92.9c-0.4-0.1-0.8-0.3-0.8-0.8c0-0.3,0.1-0.4,0.4-0.4c0.4,0,0.8,0.1,0.9,0.7
		C33.3,92.7,33.1,92.9,32.8,92.9z"/>
	<path class="st60" d="M83.5,41.3c-0.2-1.3,0-1.5,1.2-1.3C84.4,40.5,84.1,41,83.5,41.3z"/>
	<path class="st61" d="M25.3,79.6c-0.1,0.4-0.3,0.6-0.7,0.7c-0.4,0-0.5-0.2-0.4-0.6c0.1-0.3,0-0.7,0.5-0.7
		C25.1,79,25.2,79.3,25.3,79.6z"/>
	<path class="st62" d="M62.6,42.2c-0.1,0.3-0.1,0.7-0.6,0.7c-0.3,0-0.6-0.1-0.6-0.5s0.2-0.6,0.6-0.6C62.3,41.8,62.6,41.8,62.6,42.2z
		"/>
	<path class="st63" d="M33,66c-0.1,0.4-0.4,0.4-0.6,0.4c-0.4,0-0.7-0.3-0.7-0.7c0-0.2,0.1-0.4,0.4-0.4C32.6,65.2,32.7,65.7,33,66z"
		/>
	<path class="st64" d="M28.5,79c0.2,0.4,0.7,0.7,0.2,1.2c-0.3,0.1-0.7,0.1-0.7-0.3C28,79.5,27.8,79,28.5,79z"/>
	<path class="st65" d="M99.4,64.7c-0.6,0.1-1.1,0.3-1.5-0.1c0,0,0.1-0.3,0.2-0.4C98.7,63.8,99,64.2,99.4,64.7z"/>
	<path class="st66" d="M166.6,32c-0.1,0.5-0.2,0.9-0.6,1.1c0,0-0.3-0.2-0.3-0.3C165.7,32.3,166,32,166.6,32z"/>
	<path class="st67" d="M93.5,105.7c0.1-0.5,0.3-0.8,0.5-1.1C94.3,105.2,94.3,105.2,93.5,105.7z"/>
	<path class="st68" d="M135.6,97.1c-0.2-0.7-0.1-1.1,0.3-1.5C136.1,96.1,135.9,96.4,135.6,97.1z"/>
	<path class="st69" d="M54,75.8c0-0.4,0-0.7,0-1.1c0.4,0.3,0.5,0.7,0.4,1.1C54.3,75.8,54.2,75.8,54,75.8z"/>
	<path class="st70" d="M138,59.5c0,0.5,0,1.1,0.8,1c-1,0.3-1,0.3-1-1C137.8,59.5,137.9,59.5,138,59.5z"/>
	<path class="st71" d="M48.2,87.3c0.4-0.5,0.4-0.5,0.8-0.7c0,0.1,0.1,0.2,0.1,0.2C49,87.1,48.7,87.2,48.2,87.3z"/>
	<path class="st72" d="M109.3,61.2c0,0.3-0.1,0.6,0.2,0.7c0,0.2-0.2,0.5-0.4,0.4c-0.3,0-0.1-0.3-0.1-0.5s0.1-0.5,0.1-0.7
		C109.1,61.2,109.2,61.2,109.3,61.2z"/>
	<path class="st70" d="M135.5,61c-0.1-0.1-0.2-0.2-0.3-0.3c0.2-0.2,0.3-0.3,0.5-0.5c0.1,0.1,0.2,0.2,0.3,0.3
		C136.1,60.9,135.9,61.1,135.5,61z"/>
	<path class="st73" d="M61.3,26.1c0,0.8,0,1.5,0,2.3c0,0.3-0.1,0.5-0.4,0.5c-0.4,0-0.6-0.2-0.5-0.6c0.2-0.8,0.2-1.6,0.6-2.3
		C61,26.1,61.2,26.1,61.3,26.1z"/>
	<path class="st74" d="M125.7,94c-0.6-0.4,0.4-0.4-0.9-1.5"/>
	<path class="st74" d="M126,84.1"/>
	<path class="st75" d="M126.9,51.6c0.2,0.5,0.5,0.9,0.1,1.5C126.5,52.5,126.5,52.5,126.9,51.6z"/>
	<path class="st76" d="M113.5,60c0.1-0.3,0.2-0.6,0.6-0.7c0.1,0.5-0.2,0.8-0.4,1.2C113.3,60.5,113.4,60.3,113.5,60z"/>
	<path class="st77" d="M113.5,60c0,0.2,0,0.4,0.2,0.5c-0.1,0.2-0.3,0.5-0.4,0.3C113.1,60.6,113.2,60.2,113.5,60z"/>
	<path class="st78" d="M144.1,19.6c0.1,0.9-0.1,1.7-1,2.3C143,20.9,143.5,20.2,144.1,19.6z"/>
	<path class="st79" d="M73.7,20.3c1.3,0,2.6-0.1,3.9-0.5c0.8-0.2,1.1,0.4,1.6,0.7c1.2,0.7,2.4,1.4,3,2.8c0.2,0.6,0.4,1.1,1,1.3
		c-0.5,0.5-1.1,0.7-1.7,0.4c-1-0.5-2-0.7-3.1-0.8C76,23.9,74.4,22.6,73.7,20.3z"/>
	<path class="st80" d="M148.8,32c-0.5,0-1.1,0-0.9-0.6c0.2-0.9,1-1.2,1.8-1.1c0.4,0,0.9,0,0.8,0.5C150.3,31.8,149.5,31.9,148.8,32z"
		/>
	<path class="st81" d="M53.3,4.9c0.1,0.4,0.1,0.8-0.3,0.6c-0.7-0.2-1-0.7-1.1-1.3c0-0.3,0-0.6,0.4-0.6C53.1,3.7,53.3,4.3,53.3,4.9z"
		/>
	<path class="st82" d="M118.5,3.4c1.4,0.8,1.5,1.6,0.9,2.8C119.1,5.3,118.8,4.5,118.5,3.4z"/>
	<path class="st83" d="M135.5,61c0.2-0.2,0.3-0.3,0.5-0.5c0.1,0,0.1,0,0.2-0.1c0.3-0.1,0.5-0.1,0.5,0.3c-1.6,1.5-2.8,3.4-4.5,4.8
		c-0.2,0.1-0.3,0.5-0.5,0.2c-0.1-0.1,0-0.3,0.1-0.5C133.1,63.9,134.3,62.4,135.5,61z"/>
	<path class="st70" d="M136.8,60.8c-0.1-0.3-0.3-0.3-0.5-0.3c0.2-0.2,0.5-0.3,0.8-0.1C137.2,60.5,136.9,60.7,136.8,60.8z"/>
	<path class="st84" d="M18.2,91.2c-0.1,0.4-0.4,0.5-0.7,0.6c-0.2,0.1-0.5,0.2-0.7,0s0.1-0.4,0.1-0.7C17.4,91.2,17.8,91.2,18.2,91.2z
		"/>
</g>
</svg>
