<?xml version="1.0" encoding="utf-8"?>
<!-- Generator: Adobe Illustrator 20.0.0, SVG Export Plug-In . SVG Version: 6.00 Build 0)  -->
<svg version="1.1" id="Layer_1" xmlns="http://www.w3.org/2000/svg" xmlns:xlink="http://www.w3.org/1999/xlink" x="0px" y="0px"
	 viewBox="0 0 100 30" style="enable-background:new 0 0 100 30;" xml:space="preserve">
<style type="text/css">
	.st0{fill:#101010;}
	.st1{fill:#141414;}
	.st2{fill:#151515;}
	.st3{fill:#1E1E1E;}
	.st4{fill:#1C1C1C;}
	.st5{fill:#1A1A1A;}
	.st6{fill:#282828;}
	.st7{fill:#161616;}
	.st8{fill:#171717;}
	.st9{fill:#505050;}
	.st10{fill:#767676;}
	.st11{fill:#858585;}
	.st12{fill:#898989;}
	.st13{fill:#111111;}
	.st14{fill:#7D7D7D;}
	.st15{fill:#7B7B7B;}
	.st16{fill:#2E2E2E;}
	.st17{fill:#5B5B5B;}
	.st18{fill:#838383;}
	.st19{fill:#878787;}
	.st20{fill:#121212;}
	.st21{fill:#181818;}
	.st22{fill:#1B1B1B;}
	.st23{fill:#525252;}
	.st24{fill:#474747;}
	.st25{fill:#6C6C6C;}
	.st26{fill:#191919;}
	.st27{fill:#2C2C2C;}
	.st28{fill:#292929;}
	.st29{fill:#262626;}
	.st30{fill:#1D1D1D;}
	.st31{fill:#818181;}
	.st32{fill:#202020;}
	.st33{fill:#1F1F1F;}
	.st34{fill:#3C3C3C;}
	.st35{fill:#2F2F2F;}
	.st36{fill:#4B4B4B;}
	.st37{fill:#272727;}
	.st38{fill:#848484;}
	.st39{fill:#6F6F6F;}
	.st40{fill:#323232;}
	.st41{fill:#444444;}
	.st42{fill:#666666;}
	.st43{fill:#4C4C4C;}
	.st44{fill:#5C5C5C;}
	.st45{fill:#7C7C7C;}
</style>
<g id="fRyD9L.tif">
	<g>
		<path class="st0" d="M32.6,28c-0.1,0.2-0.3,0.2-0.5,0.3c-1,0.2-2,0.1-2.8-0.6c-0.2-0.2-0.4-0.3-0.6-0.5c-0.2,0-0.3-0.1-0.4-0.2
			c-0.3-0.3-0.6-0.7-0.7-1.1c-0.3-0.7-0.8-1.3-1.2-1.9c-0.4-0.6-0.7-1.2-0.9-1.9c-0.1-0.6-0.3-1.2-0.4-1.8c0.2-0.2,0.2-0.4,0.1-0.6
			c-0.1-0.6,0-1.2-0.1-1.8c0-0.1,0-0.1,0-0.2c0-0.3,0-0.6,0.1-0.9c0.1-0.3,0.1-0.7,0.2-1c0-0.2,0-0.5,0.3-0.6c0.1,0,0.2-0.1,0.1-0.2
			c-0.1-0.4,0.1-0.8,0.3-1.1c0.1-0.2,0.2-0.4,0.2-0.7c0-0.5,0.3-0.7,0.7-0.6c0.3,0,0.6,0.1,0.8,0.3c0.2,0.1,0.4,0.2,0.6,0.3
			c0.4,0.1,0.7,0.3,1.1,0.5c0.6,0.3,1,0.7,1.2,1.3c0.3,0.7,0.1,1.3-0.1,2c-0.4,2-0.6,4-0.3,6c0.1,0.1,0.1,0,0.1,0
			c0.7-0.7,1.2-1.5,1.8-2.3c0.2-0.2,0.1-0.5,0-0.7c0-0.2-0.2-0.3-0.1-0.6c0.4-0.2,0.5-0.5,0.5-1c0-0.5,0-1,0.2-1.4
			c0.2-0.7,0.5-1.4,0.9-2c0.2-0.3,0.5-0.4,0.9-0.4c0.3-0.1,0.7,0.4,0.7,0.7c0,0.1,0,0.1,0,0.2c0.1,0.4-0.1,0.8-0.1,1.2
			c0,0.3-0.1,0.5,0,0.8c0.4-0.3,0.6-0.7,0.8-1.1c0-0.1,0.1-0.2,0.1-0.3c0.1-0.2,0.1-0.4,0.3-0.4c0.3,0,0.3,0.3,0.4,0.5
			c0.1,0.6-0.2,1.1-0.3,1.7c-0.2,0.7-0.4,1.4-0.9,2c-0.3,0.4-0.2,0.7,0.1,1.1c0.3,0.3,0.6,0.5,0.9,0.8c0.1,0.1,0.3,0.2,0.5,0.2
			c1.2-0.1,2.4-0.3,3-1.5c0.1-0.3,0.3-0.5,0.3-0.8c0.3-0.3,0.5-0.6,0.2-1c-0.4-0.5-0.3-1.1-0.4-1.7c0-0.2-0.1-0.4-0.1-0.6
			c-0.2-0.7-0.3-1.5,0.2-2.2c0.2-0.4,0.3-0.7,0.7-0.9c0.1-0.1,0.2-0.2,0.2-0.4c-0.1-0.5,0.3-0.9,0.2-1.4c0-0.1,0.2-0.2,0.3-0.3
			c0.3-0.2,0.5-0.5,0.5-0.8c0-0.5,0.7-0.9,1.2-0.8c0.2,0,0.3,0.2,0.4,0.3c0.1,0.3,0.3,0.5,0.6,0.5c0.3,0.2,0.7,0.2,0.7,0.7
			c-0.1,0.3,0,0.7,0,1c-0.1,0.4-0.2,0.9-0.2,1.3c-0.4,0.5-0.2,1.1-0.3,1.6c0,0.4-0.1,0.8-0.2,1.2c-0.1,0.6-0.1,1.1-0.2,1.7
			c-0.1,0.3,0,0.6-0.1,0.9c0,0.2,0.1,0.2,0.1,0.2c0.2,0,0.3-0.1,0.5-0.2c0.6-0.5,1.3-1,1.9-1.6c0.2-0.1,0.4-0.3,0.6-0.4
			c0.5-0.3,0.9-1.3,0.8-1.9c0-0.2-0.1-0.4,0.2-0.5c0.1,0,0.1-0.1,0.1-0.2c0-0.3,0.3-0.5,0.6-0.6c0.5-0.2,1-0.1,1.1,0.4
			c0.1,0.4,0.1,0.7,0.4,1c0,0,0,0.1,0,0.2c0.1,0.4-0.3,0.8-0.2,1.2c0.1,0.2,0.1,0.5,0.1,0.7c-0.1,0.4,0.1,0.8,0.2,1.2
			c0.1,0.5,0.3,0.6,0.8,0.4c1.1-0.3,2.1-1,3-1.8c0.2-0.2,0.5-0.5,0.7-0.7c0.1-0.1,0.1-0.1,0.2-0.1c0.2,0,0.3-0.1,0.4-0.3
			c0.3-0.8,0.6-1.6,1.2-2.2c0.1-0.1,0.1-0.1,0.1-0.2c0-0.6,0.5-1,0.8-1.4c0.1-0.2,0.3-0.3,0.5-0.3c0.5,0.2,1.1,0.2,1.4,0.8
			c0.2,0.4,0.6,0.7,0.9,1.1c0,0.2,0,0.3,0.1,0.5c-0.1,0.5-0.2,1-0.6,1.5c-0.3,0.5-0.5,1-0.7,1.5c0,0.1,0,0.1,0.1,0.2
			c0.5,0.2,0.8,0.6,1.2,0.9c0.2,0.1,0.1,0.3,0.1,0.5c-0.2,0.5-0.6,0.8-1,1.2c-0.4,0.3-0.7,0.6-0.7,1.2c0,0.4-0.4,0.6-0.8,0.6
			c-0.7-0.1-1.2-0.4-1.4-1.1c0-0.1,0-0.2-0.1-0.2c-0.4-0.4-0.6-0.8-0.8-1.3c-0.1-0.2-0.3-0.2-0.4-0.1c-0.2,0.1-0.4,0.2-0.4,0.4
			c-0.2,0.7-0.7,1-1.1,1.5c-0.4,0.4-0.8,0.7-1.1,1.2c-0.4,0.7-1.3,1-2.1,0.6c-0.8-0.4-1.5-0.8-2.1-1.4c-0.3-0.3-0.5-0.7-0.7-1.1
			c-0.2-0.4-0.2-0.4-0.6-0.2c-0.2,0.1-0.4,0.3-0.5,0.5c-0.3,0.8-0.8,1.4-1.2,2.1c-0.1,0.2-0.1,0.3-0.1,0.5c0,0.5-0.4,0.9-0.9,0.9
			c-0.4,0-0.7,0-1.1,0.1c-0.2,0-0.3,0-0.5-0.1c-0.5-0.2-0.9-0.1-1.1,0.5c0,0.1-0.1,0.2-0.1,0.4c-0.1,0.5-0.3,0.8-0.7,0.9
			c-0.3,0.1-0.6,0.3-0.8,0.5c-0.5,0.3-0.9,0.5-1.5,0.3c-0.8-0.2-1.7-0.2-2.4-0.7c-0.1-0.1-0.2-0.1-0.3-0.2c-0.5-0.5-1-0.9-1.5-1.3
			c-0.2-0.2-0.4-0.4-0.5-0.5c-0.2-0.1-0.3-0.1-0.3,0.1c0,0.6-0.2,1.1-0.3,1.6c-0.2,0.7-0.1,1.5-0.8,2C32.8,27.6,32.8,27.9,32.6,28z"
			/>
		<path class="st1" d="M51.4,23.2c-0.1,0-0.1,0-0.2,0C51,23,50.8,22.9,50.6,23c-0.5-0.1-0.8-0.5-1.1-0.8c-0.4-0.5-0.9-1-1.2-1.6
			c-0.1-0.1-0.1-0.3-0.1-0.4c-0.2-0.2-0.2,0.1-0.3,0.2c-0.3,0.6-0.5,1.2-0.7,1.8c-0.2,0.8-0.7,1.4-1.4,1.9c-0.5,0.4-1,0.3-1.6,0.3
			c-0.2-0.1-0.5-0.1-0.7-0.1c-0.2,0-0.3,0.1-0.4,0.3c-0.1,0.1-0.2,0.3-0.3,0.3c-0.9,0.9-2,1.6-3.3,1.8c-0.2,0.1-0.4,0.1-0.6,0
			c-0.2,0-0.3,0-0.5-0.1c-0.2-0.2-0.5,0.1-0.7-0.2c0,0,0,0-0.1,0c-1.1-0.4-1.9-1.2-2.6-2.1c0.4,0.1,0.8,0.3,1.1,0.6
			c0.4,0.4,0.9,0.8,1.4,1.1c0.2,0.1,0.5,0.2,0.8,0.2c0.3,0,0.5,0,0.8,0.1c0.6,0.2,1.1,0.1,1.6-0.3c0.3-0.2,0.5-0.4,0.8-0.5
			c0.3-0.1,0.4-0.4,0.5-0.7c0.1-0.2,0.1-0.5,0.2-0.7c0.3-0.7,0.6-0.8,1.3-0.5c0.2,0.1,0.4,0.1,0.6,0.1c0.3-0.1,0.7,0,1,0
			c0.4,0,0.6-0.2,0.5-0.7c-0.1-0.4,0.2-0.8,0.4-1c0.6-0.5,0.7-1.2,1.1-1.8c0.1-0.1,0.2-0.3,0.3-0.4c0.5-0.3,0.8-0.3,1,0.3
			c0.6,1.3,1.7,1.9,2.8,2.4c0.6,0.3,1.4-0.1,1.7-0.8c0.2-0.5,0.7-0.8,1.1-1.2c0.4-0.3,0.8-0.7,1-1.2c0.1-0.3,0.1-0.7,0.5-0.7
			c0.4,0,0.7,0.3,0.9,0.7c0.1,0.2,0.2,0.4,0.4,0.5c0.2,0.2,0.4,0.4,0.5,0.7c0.2,0.6,0.7,0.9,1.3,0.9c0.3,0,0.4-0.2,0.3-0.4
			c-0.2-0.3,0-0.4,0.1-0.6c0.5-0.5,1-1,1.5-1.5c0.3-0.3,0.2-0.5-0.1-0.7c-0.3-0.2-0.5-0.6-0.9-0.7c-0.2-0.2,0-0.3,0.1-0.4
			c0.3-0.4,0.6-0.7,1-1c0.3-0.3,0.6-0.6,0.9-0.9c0.7,0.3,0.8,0.7,0.2,1.2c-0.2,0.2-0.1,0.4-0.1,0.5c0,0.1,0,0.3,0,0.4
			c0,0,0,0.1,0,0.1c0.3,0.4-0.2,0.7-0.2,1.2c0,0.4-0.3,0.8-0.4,1.1c-0.2,0.5-0.5,1-0.6,1.5c0,0,0,0.1,0,0.1
			c-0.1,0.1-0.2,0.2-0.4,0.2c-0.3,0-0.1,0.2-0.1,0.3c-0.1,0.1-0.1,0.3-0.3,0.3c-0.6,0.2-1.3,0.6-2,0.2c-0.1-0.1-0.3-0.1-0.4-0.1
			c-0.2-0.2-0.4-0.3-0.5-0.6c0.1-0.5-0.1-0.9-0.4-1.2c0,0-0.1-0.1-0.1-0.1c-0.1-0.2,0-0.4-0.2-0.6c-0.1-0.2,0.1-0.5-0.2-0.6
			c-0.2,0-0.3,0.2-0.3,0.3c0,0.3-0.1,0.5-0.3,0.7c-0.3,0.3-0.4,0.7-0.5,1.1c0,0-0.1,0.1-0.1,0.1c-0.3,0.1-0.5,0.5-0.9,0.6
			c-0.3,0.1-0.5,0.2-0.7,0.5c-0.1,0-0.1,0.1-0.2,0.1C52.4,23.1,51.8,23.1,51.4,23.2z"/>
		<path class="st2" d="M83.7,12.1c-0.8,0.3-1.6,0.6-2.4,0.9c-0.3,0.2-0.6,0.3-0.9,0.4c-0.7,0.3-1.5,0.4-2.2,0.7
			c-0.8,0.2-1.5,0.5-2.3,0.7c-0.6,0.2-1.3,0.3-1.9,0.5c-0.5-0.1-0.9,0-1.3-0.3c-0.4-0.1-0.4-0.5-0.6-0.7c-0.1-0.1,0-0.2,0.2-0.2
			c0.3,0,0.6-0.1,0.8-0.3c0.2-0.1,0.4,0,0.5-0.1c2.7-0.9,5.4-1.8,8.1-2.5c0.7-0.2,1.4-0.4,2.2-0.6c0.9-0.2,1.9-0.3,2.8-0.5
			c0.9-0.2,1.7-0.3,2.6-0.3c0.3,0,0.6,0,0.9-0.1c0.1,0,0.1-0.1,0.2-0.1c0.1,0,0.2,0,0.3,0c0.1,0,0.1,0.1,0.1,0.2
			c0,0.1-0.1,0.1-0.2,0.1c-0.4,0-0.7,0.3-1.1,0.2c-0.1,0-0.2,0.1-0.3,0.2c-0.2,0.2-0.4,0.3-0.7,0.4c-0.4,0.2-0.7,0.4-1.1,0.5
			c-0.5,0.1-0.9,0.2-1.4,0.1c-0.4,0.1-0.8,0.3-1.3,0.3c-0.1,0.2-0.3,0.3-0.5,0.2"/>
		<path class="st3" d="M32.6,28c0.4-0.7,0.7-1.4,0.9-2.2c0.1-0.6,0.3-1.2,0.5-1.7c0.1-0.2,0.1-0.5,0.5-0.3c-0.4,0.1-0.3,0.4-0.3,0.6
			c0,0.5-0.1,0.9-0.2,1.3c-0.1,0.6,0,1.2-0.5,1.6c-0.2,0.1-0.3,0.3-0.4,0.5C32.8,27.8,32.7,27.9,32.6,28z"/>
		<path class="st4" d="M62.8,11c0.5-0.1,0.7-0.6,1-1c1-1.1,2.1-2.2,3.4-2.9c1.2-0.7,2.3-0.9,3.5-0.2c0.2,0.2,0.4,0.5,0.6,0.8
			c0.2,0.5,0.3,0.9,0,1.4c-0.2,0.4-0.3,0.8-0.8,1c-0.2-0.1,0-0.3-0.1-0.4c-0.3-0.3-0.2-0.6-0.2-0.9C70.1,8.1,70,8,69.4,8.2
			c-1.1,0.3-2,1-2.6,1.9c-0.2,0.3-0.4,0.5-0.7,0.5c-0.5,0.6-1,1.1-1.6,1.7c-0.1,0.1-0.3,0.2-0.5,0.4c0,0,0,0,0,0
			c-0.3-0.6-0.9-0.9-1.3-1.4c0-0.1-0.1-0.1,0-0.2C62.7,11,62.7,11,62.8,11z"/>
		<path class="st5" d="M62.8,11c0,0,0,0.1,0,0.1c-0.2,0.5,0.1,1,0.3,1.4c0.2,0.3,0.4,0.5,0.8,0.5c0.1,0.3-0.1,0.7,0,1
			c-0.4,0.3-0.5,0.7-0.6,1.2c-0.1,0.5-0.2,1-0.6,1.3c-0.2,0.2-0.2,0.5-0.3,0.7c-0.1,0.2-0.1,0.5-0.4,0.6c-0.3,0-0.3-0.3-0.4-0.5
			c0,0,0-0.1,0-0.1c0.1-0.7,0.6-1.2,0.5-1.9c0-0.1,0.1-0.2,0.1-0.3c0.2-0.2,0.1-0.4-0.2-0.5c0,0,0,0,0,0c-0.2-0.1,0.1-0.4-0.1-0.5
			c-0.3-0.1-0.6,0-0.9,0c-0.1,0-0.3,0.3-0.4,0c0-0.2,0-0.4,0-0.5c0.1-0.3-0.1-0.6-0.4-0.8c-0.3-0.2-0.6-0.4-0.5-0.8
			c0.2-0.2,0.4-0.2,0.7-0.2c0.3,0,0.6,0,0.9-0.1c0.1-0.1,0.3-0.1,0.3-0.3c0-0.2-0.2-0.2-0.3-0.2c-0.4,0-0.7-0.1-1.1-0.1
			c-0.1,0-0.2,0-0.3-0.2c0-0.2-0.2-0.4-0.2-0.6C60.7,10.3,61.8,10.3,62.8,11z"/>
		<path class="st6" d="M61.9,17.8c0.2-0.2,0.2-0.4,0.3-0.6c0.1-0.4,0.2-0.6,0.5-0.9c0.4-0.3,0.5-0.7,0.3-1.2
			c-0.1-0.3-0.1-0.5,0.2-0.7c0.2-0.1,0.3-0.5,0.6-0.4c0,0.1,0.2,0.3-0.1,0.3c-0.1,0-0.1,0-0.1,0.1c-0.1,0.7-0.5,1.2-0.6,1.9
			c-0.4,0.7-0.7,1.5-0.9,2.3c0,0.1,0,0.2,0.1,0.3c0.1,0.1,0.1,0.2,0.1,0.3c-0.3,0.7-0.4,1.5-1.2,2c0,0.1-0.1,0.1-0.1,0.2
			c-0.2,0-0.4-0.2-0.3-0.3c0.1-0.4,0.2-0.8,0.4-1.1c0.2-0.1,0.3-0.1,0.3-0.4c0-0.3-0.1-0.7,0.2-1C61.8,18.4,61.7,18.1,61.9,17.8
			C61.8,17.8,61.8,17.8,61.9,17.8z"/>
		<path class="st7" d="M63.9,13c-0.2,0.2-0.1,0.5-0.4,0.5c-0.3,0-0.3-0.3-0.4-0.5c-0.1-0.3-0.3-0.5-0.4-0.8
			c-0.4-0.6-0.4-0.6,0.1-1.1c0.4,0.3,0.8,0.5,1.2,0.8c0.2,0.2,0.2,0.4,0.1,0.7C64,12.8,63.9,12.9,63.9,13z"/>
		<path class="st8" d="M21.9,2c0.2,0.1,0.5,0.3,0.7,0.4c1.5,0.6,3.1,2.8,3.3,4.4c0.1,0.6-0.2,1.1-0.2,1.6c0.2,0.5,0,0.9-0.3,1.3
			c-0.6,0.8-1.4,1.6-2.1,2.3c-0.4,0.5-0.9,0.8-1.4,1c-0.1,0.1-0.3,0.2-0.4,0c-0.2-0.3,0-0.5,0.2-0.7c0.2-0.3,0.4-0.7,0.5-1.1
			c0-0.1,0.1-0.3-0.1-0.4c-0.2-0.2,0.1-0.3,0.2-0.4c0.8-0.6,1.4-1.3,2-2c0.4-0.5,0.6-1.1,0.7-1.7c0.1-0.4,0-0.8-0.3-1.1
			c-0.3-0.5-0.7-1-1.2-1.4c-0.3-0.2-0.6-0.4-0.9-0.2c-0.4,0.2-0.7,0.7-0.7,1.1c0,0.1,0.1,0.3-0.1,0.4c-0.3,0.2-0.5,0-0.7-0.2
			C21,5,20.9,4.9,20.8,4.8c-0.2-0.1-0.2-0.4-0.4-0.3c-0.2,0.1-0.5,0.2-0.6,0.5c-0.1,0.2-0.2,0.4-0.3,0.6c-0.2,0.5-0.4,0.5-0.8,0.1
			c0.2-0.6,0.4-1.2,0.7-1.8C19.6,3.3,19.9,2.6,20,2C20.7,1.5,21.3,1.5,21.9,2z"/>
		<path class="st9" d="M41.3,6.3c0.1,0.1,0.2,0.2,0.4,0.3c0,0.2,0,0.3-0.1,0.5c0,0.2-0.3,0.3-0.4,0.5c0,0.2-0.1,0.3,0,0.5
			c0.1,0.2-0.1,0.5-0.1,0.7c-0.2,0.7-0.3,1.4-0.5,2.1c-0.1,0.3-0.1,0.6-0.4,0.7c-0.1,0-0.2-0.1-0.3-0.2c0-0.2-0.1-0.4,0.1-0.5
			c0.2-0.8,0.4-1.6,0.6-2.4c0-0.3-0.1-0.6,0.2-0.8c0-0.1,0.1-0.1,0.1-0.2c0-0.4,0.3-0.7,0.2-1.1c0,0,0.1-0.1,0.1-0.1c0,0,0,0,0-0.1
			C41.2,6.3,41.2,6.3,41.3,6.3z"/>
		<path class="st10" d="M48.5,5.2c0-0.1-0.1-0.2-0.1-0.3c0.2-0.3,0.3-0.6,0.4-0.9c0.1-0.1,0.2-0.2,0.3-0.3c0.1-0.2,0.2-0.3,0.4-0.3
			c0.1,0,0.4,0.1,0.3,0.3c0,0.3-0.3,0.4-0.5,0.6C49.1,4.5,49,4.7,48.9,5C48.8,5.1,48.8,5.2,48.5,5.2C48.6,5.2,48.6,5.2,48.5,5.2z"/>
		<path class="st11" d="M45,5.9c0.1,0,0.1,0,0.1,0.1c0,0.1,0,0.2-0.1,0.2c-0.3,0.1-0.4,0.3-0.6,0.6C44.4,7,44.3,7.1,44.2,7
			c-0.2-0.1,0-0.2,0.1-0.3c0.1-0.2,0.2-0.4,0.4-0.5C44.7,6,44.8,5.9,45,5.9z"/>
		<path class="st12" d="M46.3,2.1c0,0.1,0,0.2-0.1,0.2c-0.1,0-0.1-0.1-0.1-0.2c0-0.1,0-0.2,0.1-0.2C46.2,2,46.3,2.1,46.3,2.1z"/>
		<path class="st13" d="M22.2,10.7c0.4,0.6,0,1.1-0.2,1.6c-0.1,0.2-0.3,0.4-0.4,0.7c0.1,0.1,0.1,0.2,0,0.3c-0.4,0.3-0.5,0.7-0.6,1.1
			c0,0.3-0.1,0.6-0.1,1c0,0.2,0,0.3,0.1,0.3c0.1,0.1,0.2-0.1,0.2-0.1c0.1-0.1,0.2-0.2,0.3-0.3c0.4-0.3,0.5-0.3,0.8,0.1
			c0,0.3-0.3,0.5-0.4,0.7c-0.4,0.8-0.6,1.5-0.4,2.4c0.3,1.6,0.5,3.2,0.8,4.9c0.1,0.5,0.2,0.9,0.3,1.4c0.1,0.2,0.1,0.5,0,0.7
			c0,0.4,0.3,0.8,0.2,1.3c-0.1,0.4-0.5,0.7-1,0.7c-1.4,0.1-1.9-1-2.4-2c-0.4-1-1-2-1.5-3c-0.1-0.1-0.2-0.3-0.1-0.4
			c-0.2-0.4-0.2-0.8-0.3-1.2C17.3,19.4,17,18.3,17,17c0-0.7,0-1.4-0.2-2.1c-0.1-0.2,0.1-0.4,0-0.6c-0.1-0.1-0.2-0.1-0.3-0.1
			c-0.3-0.1-0.5-0.2-0.6-0.5c0-0.1,0-0.3-0.1-0.4c-0.1-0.4,0-0.5,0.4-0.6c0.5,0,0.7-0.3,0.6-0.7c0-0.4,0.2-0.8,0.2-1.2
			c0.1-1,0.6-1.9,0.8-2.9c0.1-0.3,0.3-0.6,0.3-0.9c0.2-0.4,0.3-0.8,0.5-1.2c0.6,0,0.6-0.5,0.8-0.9c0.2-0.4,0.7-0.6,1-0.9
			c0.1-0.1,0.4,0,0.4,0.2c-0.1,0.6,0.4,0.8,0.7,1C22,4.9,22,5.2,22,5.4c0.1,0.9,0.4,1.8,0.1,2.8c-0.2,0.8-0.4,1.6-0.3,2.5
			C21.9,10.7,22.1,10.5,22.2,10.7z"/>
		<path class="st14" d="M17.3,25.4c0,0.2-0.2,0.2-0.3,0.2c-0.2,0-0.4-0.1-0.4-0.3c0-0.2,0.1-0.3,0.2-0.3
			C17.1,25,17.1,25.3,17.3,25.4z"/>
		<path class="st12" d="M18.3,5.8c0,0.4-0.1,0.6-0.3,0.7c0,0-0.1-0.1-0.1-0.1C17.9,6.2,18.1,6.1,18.3,5.8z"/>
		<path class="st12" d="M18.6,4.7c0,0.1-0.1,0.2-0.1,0.2c-0.1,0-0.2,0-0.3-0.2c0-0.1,0-0.2,0.1-0.2C18.4,4.5,18.5,4.6,18.6,4.7z"/>
		<path class="st12" d="M17.8,5.7"/>
		<path class="st15" d="M82.9,13.6"/>
		<path class="st15" d="M84.6,11.7c0.1-0.1,0.2,0,0.3,0"/>
		<path class="st15" d="M83.7,12.1"/>
		<path class="st16" d="M90.5,9.8c0.2-0.1,0.4-0.1,0.8,0.1c-0.6,0.2-1.1,0.3-1.6,0.4c0,0-0.1,0-0.1,0c-0.3,0.1-0.7,0.1-1,0.2
			c0.6-0.3,1.3-0.3,1.9-0.5C90.7,9.9,90.6,9.9,90.5,9.8z"/>
		<path class="st17" d="M85,11.6C85,11.6,85,11.6,85,11.6"/>
		<path class="st15" d="M80.4,13.4c0.3-0.1,0.6-0.3,0.9-0.4C81.1,13.3,80.8,13.5,80.4,13.4z"/>
		<path class="st2" d="M17,14.3c-0.2,0-0.4-0.1-0.6-0.1c-0.4-0.1-0.8-0.1-1.2-0.2c-1-0.2-2-0.5-2.5-1.4c-0.2-0.4-0.2-0.8-0.4-1.2
			c0.2-0.2,0.3-0.4,0.6-0.3c0.3,0.1,0.4,0.3,0.4,0.6c0,0.5,0.4,0.6,0.8,0.7c0.7,0.3,1.5,0.3,2.3,0.2c-0.3,0.5-0.1,1.2,0.4,1.4
			C16.8,14.1,16.9,14.1,17,14.3z"/>
		<path class="st18" d="M10.9,13.7c0.1,0,0.3,0,0.2,0.2c0,0.1-0.2,0.2-0.3,0.1C10.7,13.9,10.9,13.8,10.9,13.7L10.9,13.7z"/>
		<path class="st18" d="M10.9,13.7c-0.2,0-0.3,0-0.6-0.1C10.6,13.4,10.8,13.5,10.9,13.7C10.9,13.7,10.9,13.7,10.9,13.7z"/>
		<path class="st18" d="M11.9,13.3c0,0.2,0,0.3-0.2,0.3C11.6,13.4,11.7,13.4,11.9,13.3z"/>
		<path class="st19" d="M13.4,10c-0.2-0.1-0.4,0.1-0.6,0.1c-0.1,0-0.2,0-0.3-0.1c0-0.2,0.1-0.2,0.2-0.2c0.2-0.1,0.4-0.1,0.6-0.1
			c0.1,0,0.4-0.2,0.4,0.2C13.8,10.1,13.6,10.1,13.4,10z"/>
		<path class="st20" d="M46.7,12.2c0-0.1,0.1-0.1,0.1-0.2c0-0.2,0.1-0.4,0.3-0.6c0.4-0.4,0.5-0.9,0.7-1.4c0.1-0.3,0.3-0.6,0.5-0.9
			c0.2-0.3,0.4-0.6,0.5-0.9C49,7.5,49.5,7,49.9,6.5c0.3-0.4,0.5-0.3,0.8,0c0.2,0.3,0.3,0.6,0.4,0.9c0.4,0.7,0.5,1.3,0.2,2.1
			c-0.3,0.9-0.6,1.8-0.6,2.8c0,0.1-0.1,0.3-0.1,0.4c0,0.2-0.1,0.4,0.1,0.6c0.2-0.2,0.4-0.2,0.5,0.2c0,0.2,0.2,0.4,0.1,0.6
			c-0.2,0.3-0.3,0.7-0.5,1c-0.1,0.1-0.2,0.3-0.3,0.2c-0.1-0.4-0.4-0.7-0.4-1.2c0-0.3-0.3-0.4-0.6-0.3C49.1,14,48.8,14,49,14.4
			c0.1,0.2,0.1,0.4-0.2,0.3c-0.1,0-0.2,0-0.2,0.1c0,0.1,0.1,0.1,0.1,0.2c0.3,0.1,0.3,0.3,0,0.5c-0.1,0.1-0.2,0.2-0.2,0.3
			c-0.2,0.9-0.8,1.4-1.5,1.8c-0.3-0.5-0.4-1.1-0.5-1.7c0-0.3,0-0.7-0.1-1c0-0.4-0.1-0.7,0.3-0.9c0.2-0.1,0.1-0.4-0.1-0.6
			c-0.2-0.2-0.1-0.3,0-0.5C46.6,12.6,46.6,12.4,46.7,12.2z"/>
		<path class="st21" d="M32.6,19.8c-0.3-0.5-0.6-0.9-0.5-1.6c0.1-1.7,0.4-3.4,1.4-4.8c0.1-0.1,0.2-0.3,0.2-0.4
			c-0.1-0.2-0.1-0.4,0.1-0.5c0.3-0.2,0.6-0.5,0.9-0.7c0.2-0.1,0.4-0.2,0.5-0.1c0.4,0.3,0.9,0.5,1.2,0.9c0.2,0.2,0.2,0.5-0.2,0.7
			c-0.3,0.2-0.4,0.4-0.4,0.7c0,0.6-0.2,1.2-0.6,1.7c0,0,0,0-0.1,0c0-0.3,0-0.7-0.3-0.7c-0.4-0.1-0.8,0.1-0.9,0.5
			c-0.4,1-0.9,1.9-0.9,2.9c0,0.3,0,0.5,0.1,0.8c0.2,0.3,0.1,0.4-0.3,0.4C32.8,19.6,32.7,19.7,32.6,19.8z"/>
		<path class="st2" d="M40.8,19.9c-0.2-0.2-0.2-0.4-0.3-0.6c-0.6-1.7-0.9-3.5-0.7-5.3c0.1-0.4-0.1-0.8,0.1-1.2
			c0.3-0.2,0.6-0.4,0.8-0.8c0.1-0.2,0.4-0.3,0.5-0.6c0-0.2,0.1-0.4,0-0.6c-0.1-0.3,0-0.4,0.4-0.4c0,0,0.1,0,0.1-0.1
			c0.3-0.2,0.6-0.9,0.4-1.3C42,8.8,42.1,8.6,42,8.4c0-0.2,0.1-0.3,0.3-0.3c0.2,0,0.5-0.1,0.5,0.2c0.1,0.4,0.4,0.5,0.7,0.5
			c0.2,0,0.3,0.1,0.4,0.3c0.3,0.4,0.5,0.8,0.6,1.3c0,0.1,0,0.1-0.1,0.2c-0.2-0.1-0.5-0.2-0.6-0.4c-0.1-0.2-0.3-0.4-0.5-0.3
			c-0.2,0.1-0.5,0.4-0.6,0.7c-0.1,0.5-0.4,0.7-0.7,1.1c-0.3,0.3-0.3,0.8-0.3,1.3c0,0.5,0,0.8-0.5,0.9c-0.1,0-0.2,0.1-0.2,0.1
			c0,0.5-0.5,0.8-0.5,1.3c-0.1,0.5,0,0.9,0.2,1.4c0.2,0.4,0,0.7,0,1.1c0.1,0.4,0.1,0.8,0.4,1.2C41.5,19.2,41,19.5,40.8,19.9z"/>
		<path class="st21" d="M59.5,10.6c0.2,0,0.4,0,0.7,0.1c-0.1,0.1-0.2,0.3-0.4,0.4c0.1,0.4,0,0.7-0.1,1.1c0,0.2,0.1,0.4,0.4,0.5
			c0.7,0.2,0.7,0.4,0.4,1.1c-0.3-0.4-0.6-0.6-0.8-1.1c-0.1-0.1-0.2-0.2-0.4-0.2c-0.1,0-0.2,0-0.3,0c-0.4-0.2-0.7-0.4-1,0.1
			c-0.2,0.3-0.6,0.5-0.5,1c0,0.1,0,0.2-0.1,0.3c-0.6,0.7-1,1.5-1.3,2.3c-0.2,0.3-0.4,0.5-0.7,0.7c-0.3-0.3,0-0.5,0-0.7
			c0.3-1,0.5-2.1,0.9-3.1c0.1-0.4,0.3-0.8,0.5-1.1l0,0c0.1-0.2,0.1-0.4,0.2-0.5c0.2-0.2,0.2-0.6,0.2-0.9c-0.1-0.5,0.1-0.7,0.5-0.7
			c0.1,0.1,0.2,0.2,0.3,0.3c0.1,0.1,0.2,0.2,0.3,0.2c0.3,0,0.4,0.2,0.5,0.4c0,0.2,0.2,0.1,0.3,0.2C59.2,10.6,59.4,10.6,59.5,10.6z"
			/>
		<path class="st2" d="M29.2,13.6c0.1,0.1,0.2,0.2,0.2,0.4c-0.3-0.3-0.6-0.4-1.1-0.5c-0.2,0-0.5-0.1-0.7-0.3
			c-0.2-0.2-0.4-0.2-0.7-0.2c-0.3,0-0.5,0.1-0.3,0.4c0.1,0.3,0,0.4-0.2,0.6c-0.4,0.3-0.6,0.7-0.5,1.2c0,0.2,0,0.3-0.2,0.4
			c-0.1,0-0.2,0.2-0.2,0.3c-0.1,0-0.1,0-0.1-0.1c0-0.4-0.1-0.8-0.2-1.1c0-0.4,0.2-0.7,0.3-1.1c0.1-0.2,0.1-0.4,0-0.5
			c-0.2-0.2-0.3,0-0.5,0c-0.7,0.3-1.3,0.9-1.8,1.4c-0.3,0.3-0.5,0.6-0.7,0.9c-0.1,0.1-0.3,0.2-0.4,0.1c-0.2-0.2-0.3,0-0.4,0.1
			c-0.1,0.1-0.2,0.2-0.4,0.3c-0.3,0.2-0.5,0.1-0.6-0.3c0-0.5-0.1-0.9,0.1-1.4c0.3,0,0.2,0.3,0.2,0.5c0,0.2,0,0.3-0.1,0.4
			c0.2-0.5,0.6-0.8,0.9-1.1c0.2-0.2,0.5-0.4,0.7-0.6c0.3-0.3,0.7-0.6,1.2-0.8c0.4-0.1,0.7-0.3,1-0.6c0.1-0.1,0.3-0.2,0.4-0.3
			c0.7-0.4,1.3-0.4,2,0.1c0.6,0.4,1.3,0.8,1.9,1.3C29.1,13.2,29.4,13.3,29.2,13.6z"/>
		<path class="st22" d="M44.4,10.6c0-0.1,0-0.1,0-0.2c0.1-0.5-0.1-0.9-0.5-1.3c-0.1-0.2-0.3-0.3-0.4-0.5c0.1,0,0.1,0.1,0.1,0.2
			c0,0.1,0,0.1-0.1,0.2c-0.3,0-0.5-0.2-0.7-0.4c-0.2-0.1-0.3-0.3-0.5-0.3c-0.3-0.1-0.4,0-0.4,0.3c0,0.1,0,0.2,0,0.3
			c0.2,0.4,0.1,0.8-0.2,1.2c-0.1,0.2-0.1,0.3-0.4,0.3c-0.3,0-0.4,0.2-0.4,0.5c0.1,0.6-0.2,1.1-0.7,1.2c-0.2,0-0.3,0-0.4-0.2
			c0-0.1,0-0.2,0.1-0.3c0.3-0.9,0.5-1.9,0.6-2.9c0.1-0.6,0.3-1.2,0.6-1.8c0.1-0.1,0.1-0.2,0.2-0.3c1.1-0.1,1.7,0.7,2.4,1.3
			c1,1,1,2.1,0.9,3.3C44.9,10.9,44.7,10.7,44.4,10.6z"/>
		<path class="st5" d="M45,13.5c0.2,1.2,0,2.5-0.3,3.7c-0.2,0.7-0.1,1.4-0.4,2.1c-0.1,0.3,0.1,0.3,0.3,0.3c-0.1,0.1-0.2,0.2-0.3,0.1
			c-0.1-0.1-0.1-0.2-0.1-0.3c0-1.4,0.2-2.7,0.5-4.1c0-0.2,0.1-0.5,0.1-0.7C44.6,14.1,44.7,13.8,45,13.5z"/>
		<path class="st9" d="M25.6,14.4c0.2,0.5,0,0.9,0,1.4c-0.1,0.4-0.1,0.7-0.2,1.1C25.4,17,25.3,17,25.2,17c-0.2-0.5-0.4-1-0.1-1.5
			c0.1-0.3,0.2-0.6,0.2-0.9C25.3,14.4,25.4,14.3,25.6,14.4z"/>
		<path class="st23" d="M25.4,20.5c0,0-0.1-0.1-0.1-0.1c-0.1-0.8-0.3-1.7,0-2.5C25.3,18.7,25.3,19.6,25.4,20.5z"/>
		<path class="st24" d="M25.2,16.9c0.1,0,0.1,0,0.2,0c0,0.3,0,0.6-0.1,0.9c-0.1,0-0.1-0.1-0.2-0.1c-0.4-0.2-0.4-0.6-0.1-0.9
			C25.1,16.8,25.2,16.9,25.2,16.9z"/>
		<path class="st25" d="M30.3,23.3c0.2,0.2,0.4,0.1,0.5,0c0,0.1,0,0.1-0.1,0.2c-0.1,0.1-0.2,0.3-0.3,0.3
			C30.2,23.7,30.3,23.5,30.3,23.3z"/>
		<path class="st26" d="M61.2,20.2c0,0.2,0,0.4-0.2,0.6c-0.2,0.2-0.1,0.4-0.1,0.7c0,0,0,0.1,0,0.1c0,0,0,0.1,0,0.1
			c-0.4,0.1-0.6,0.5-1,0.6c-0.2,0.1-0.4,0.2-0.6,0.3c-0.3,0.3-0.7,0.3-1.1,0.2c-0.4-0.1-0.7-0.2-1-0.5c0.2-0.1,0.4-0.1,0.6,0
			c0.5,0.1,1,0,1.5-0.2c0.3-0.1,0.3-0.3,0.2-0.5c-0.1-0.1-0.2-0.3-0.1-0.4c0.1-0.1,0.2,0,0.3,0.1c0.2,0.1,0.3,0,0.3-0.2
			c0-0.3,0.1-0.4,0.2-0.6c0.2-0.4,0.4-0.8,0.6-1.2c0.3-0.6,0.5-1.2,0.5-1.9c0.2,0,0.3,0.2,0.4,0.4c0,0,0,0,0,0
			c0,0.3-0.1,0.5-0.3,0.8c-0.2,0.4-0.2,0.8-0.2,1.2C61.4,20,61.4,20.1,61.2,20.2z"/>
		<path class="st27" d="M58.3,22.9c0.4,0.1,0.7-0.2,1-0.4c0.2-0.1,0.4-0.2,0.6-0.3c0.2,0,0.4-0.2,0.6-0.2C60,22.7,59,23.1,58.3,22.9
			z"/>
		<path class="st26" d="M56.4,21.4c0-0.3-0.1-0.6-0.1-0.8c0.1-0.1,0.2-0.2,0.2-0.1c0.1,0.4,0.3,0.7,0.3,1.1c0,0.1-0.1,0.2-0.2,0.3
			C56.6,21.7,56.5,21.6,56.4,21.4z"/>
		<path class="st26" d="M54.5,21.6c-0.1,0.3-0.3,0.5-0.5,0.7c-0.3,0-0.4,0.2-0.6,0.3c-0.2,0.1-0.4,0.1-0.5,0.2
			c0.1-0.1,0.1-0.3,0.2-0.3C53.6,22.2,54,21.8,54.5,21.6z"/>
		<path class="st28" d="M60.5,22.1c-0.2,0.1-0.4,0.2-0.6,0.2c0.3-0.2,0.6-0.6,1-0.6C61,21.9,60.7,21.9,60.5,22.1z"/>
		<path class="st11" d="M72.2,14.9C72.2,14.9,72.2,15,72.2,14.9c-0.6,0.5-0.2-0.1-0.4-0.2C72.1,14.6,72.1,14.8,72.2,14.9z"/>
		<path class="st11" d="M70.9,15c0.2,0,0.4,0,0.5,0.2C71.3,15.3,71.1,15.2,70.9,15L70.9,15z"/>
		<path class="st22" d="M44.1,24.4c0.6-0.1,1.2-0.1,1.6-0.5c0.3-0.3,0.6-0.5,0.7-0.9c0.1-0.2,0.2-0.4,0.3-0.5
			c0.1-0.1,0.2-0.2,0.2-0.3c0-0.1-0.3-0.3-0.1-0.4c0.5-0.4,0.4-1.3,1-1.6c0.1,0,0.2,0,0.2,0.1c-0.2,0.3-0.3,0.7-0.4,1.1
			c-0.2,0.5-0.5,1-0.6,1.6c0,0.3-0.3,0.6-0.6,0.7c-0.2,0.1-0.4,0.3-0.6,0.5c-0.1,0.3-0.4,0.3-0.7,0.5C44.9,24.5,44.5,24.5,44.1,24.4
			z"/>
		<path class="st26" d="M51.4,23.2c0.4-0.3,0.9-0.3,1.4-0.3C52.4,23.3,51.9,23.3,51.4,23.2z"/>
		<path class="st29" d="M42.8,24.9c0.1-0.2,0.2-0.4,0.2-0.5c0.1-0.2,0.2-0.2,0.4-0.1C43.3,24.5,43.1,24.8,42.8,24.9z"/>
		<path class="st26" d="M50.6,23c0.3-0.2,0.5,0,0.6,0.2C51,23.2,50.8,23.1,50.6,23z"/>
		<path class="st26" d="M61.5,15.4c0.2-0.3,0.3-0.5,0.5-0.8c0.1-0.1,0.2-0.1,0.4-0.2c0.1,0,0.2-0.1,0.3,0c0.1,0.1,0.1,0.2,0,0.3
			c-0.6,0.6-0.5,1.5-0.9,2.2c-0.1,0.2-0.2,0.3-0.3,0.4c-0.2-0.3-0.1-0.6-0.4-0.8c-0.1-0.1-0.1-0.2,0.1-0.2c0.1,0,0.2-0.1,0.3-0.2
			C61.9,15.9,61.9,15.7,61.5,15.4z"/>
		<path class="st26" d="M54.8,21.5c-0.1,0-0.2,0.1-0.3,0.1c0-0.4,0.1-0.7,0.4-1c0.2-0.2,0.3-0.5,0.4-0.8c0.1-0.2,0.2-0.6,0.6-0.5
			c0.1,0.5-0.1,0.8-0.2,1.2c-0.1,0.2-0.3,0.2-0.4,0.3C55.1,21,55,21.3,54.8,21.5z"/>
		<path class="st30" d="M54.8,21.5c0.2-0.4,0.3-0.8,0.7-1.1c0.2-0.1,0.3-0.4,0.2-0.7c0-0.2,0-0.4,0.2-0.5c0.2,0.1,0.3,0.3,0.4,0.6
			c-0.2,0.1,0,0.4-0.3,0.4c-0.2,0.3-0.4,0.6-0.7,0.8l0,0C55.1,21.1,55.1,21.4,54.8,21.5z"/>
		<path class="st31" d="M56,20.2c0.1-0.1,0.1-0.3,0.3-0.4c0,0.3,0,0.5,0.1,0.7c0,0.1-0.1,0.2-0.1,0.2c0,0.1-0.1,0.1-0.1,0.1
			c-0.1,0-0.1-0.1-0.1-0.2C56,20.6,56,20.4,56,20.2z"/>
		<path class="st5" d="M51.1,7.5c-0.9-1.3-0.9-1.2-1.6,0c-0.6,1-1.3,2-1.6,3.2c-0.1,0.5-0.2,1-0.8,1.1c-0.1,0-0.2,0.2-0.2,0.3
			c0.1-1.4,0.3-2.8,0.7-4.1c0-0.2,0.1-0.3,0.1-0.5c0-0.3,0.1-0.6,0.3-0.8C48,6.4,48.1,6.2,48.2,6c0-0.1,0-0.2,0.1-0.3
			c0.3,0,0.4,0.3,0.5,0.6C49,6.1,49,6,49,5.8c0-0.3,0.1-0.5,0.4-0.6c0.2-0.1,0.4-0.2,0.5-0.4c0.3-0.3,0.6-0.5,1-0.6c0,0,0.1,0,0.1,0
			c0.3,0.4,0.3,1,0.6,1.4c0.1,0.2,0,0.3-0.1,0.5c-0.1,0.2-0.2,0.3-0.3,0.5C51.1,6.8,51.1,7.1,51.1,7.5z"/>
		<path class="st32" d="M51.9,12c-0.1,0.4-0.2,0.7-0.4,1.1c-0.1,0.1-0.1,0.3-0.1,0.5l0,0c-0.1,0.2-0.3,0.5-0.4,0.7
			c0-0.3,0.2-0.6-0.2-0.8c0.3-0.7,0.7-1.3,0.9-1.9C52.1,11.4,51.8,11.8,51.9,12z"/>
		<path class="st33" d="M51.2,6.5c0-0.2-0.1-0.4-0.1-0.6c0-0.1,0-0.2,0.1-0.2c0.6,0,0.2-0.3,0.1-0.5c-0.1-0.3-0.3-0.7-0.3-1
			c0.1,0,0.2,0.1,0.2,0.1c0.1,0.5,0.5,1,0.5,1.5c0.1,0.3,0.1,0.5,0.2,0.8c0,0.2,0.1,0.3-0.1,0.4c-0.2,0.1-0.2-0.1-0.3-0.2
			C51.4,6.7,51.4,6.6,51.2,6.5C51.3,6.5,51.2,6.5,51.2,6.5z"/>
		<path class="st34" d="M57.7,9.7c-0.3,0.2-0.5,0.6-0.4,1c0,0.4-0.3,0.8-0.5,1.1c-0.2-0.4,0.3-0.6,0.2-1c0.2-0.2,0.1-0.5,0.1-0.7
			C57.1,9.6,57.4,9.5,57.7,9.7z"/>
		<path class="st35" d="M51.3,6.5c0.1,0.1,0.2,0.1,0.2,0.2c0.2,0.2,0.3,0.1,0.3-0.1c0-0.3-0.1-0.5-0.1-0.8c0.3,0.6,0.3,1.3,0.1,2
			C51.6,7.3,51.5,6.9,51.3,6.5z"/>
		<path class="st36" d="M51.9,12c0-0.2-0.1-0.4-0.2-0.5c0.1-0.4,0.2-0.9,0.3-1.4c0.2,0.3,0,0.5,0.1,0.6C51.9,11.1,52,11.6,51.9,12z"
			/>
		<path class="st37" d="M59,10.7c-0.5,0-0.7-0.5-1-0.7C58.5,10,58.8,10.3,59,10.7z"/>
		<path class="st38" d="M59.8,11.1"/>
		<path class="st38" d="M59.7,12.1c-0.1-0.1-0.1-0.2-0.2-0.4"/>
		<path class="st11" d="M67.1,10.2c0.1-0.2,0.3-0.2,0.4-0.1c0.2,0.1,0.3,0.3,0.3,0.5v0"/>
		<path class="st5" d="M61.2,20.2c0.1-0.8,0.1-1.7,0.6-2.4c0.1,0.3,0.1,0.5-0.1,0.8c-0.2,0.4-0.2,0.8-0.3,1.3
			C61.5,20.1,61.4,20.2,61.2,20.2z"/>
		<path class="st11" d="M41.1,6.4c0,0.4-0.1,0.8-0.3,1.2c-0.1-0.4,0.2-0.7-0.1-1.1C40.6,6.3,41,6.4,41.1,6.4z"/>
		<path class="st18" d="M40.7,7.7c0,0.3-0.1,0.6-0.2,0.8C40.2,8.1,40.2,8,40.7,7.7z"/>
		<path class="st12" d="M40.1,5.9c0,0.1,0.1,0.1,0.1,0.2c0,0.1,0.2,0.2,0.1,0.3c-0.1,0.1-0.2,0-0.3-0.1c-0.1-0.1-0.1-0.2,0-0.3
			C40,6,40.1,5.9,40.1,5.9C40.1,5.9,40.1,5.9,40.1,5.9z"/>
		<path class="st31" d="M46.7,12.2c0,0.4,0,0.7,0,1.1c0,0,0,0-0.1,0c-0.1-0.1-0.4,0-0.4-0.2c-0.1-0.2,0.1-0.3,0.2-0.5
			C46.5,12.6,46.6,12.4,46.7,12.2z"/>
		<path class="st5" d="M46.6,13.3C46.7,13.3,46.7,13.3,46.6,13.3c0.4,0,0.4,0.3,0.3,0.5c-0.2,0.3-0.2,0.6-0.2,1
			C46.6,14.4,46.7,13.9,46.6,13.3C46.6,13.4,46.6,13.4,46.6,13.3z"/>
		<path class="st10" d="M48.3,5.8c-0.1,0.1-0.1,0.1-0.2,0.2c-0.1-0.4,0.1-0.6,0.3-0.9c0,0,0,0,0,0c0.3,0.2-0.1,0.4-0.1,0.6
			C48.4,5.8,48.4,5.8,48.3,5.8z"/>
		<path class="st10" d="M47.9,6.6c0,0.3-0.2,0.6-0.3,0.8C47.6,7.1,47.6,6.8,47.9,6.6z"/>
		<path class="st9" d="M39.6,13.8c0-0.8,0.1-1.6,0.4-2.4c0.1,0,0.1,0.1,0.2,0.1c0,0.1,0,0.2,0,0.3c0.3,0.4,0.1,0.7-0.2,1
			c-0.1,0.4,0,0.8-0.2,1.1C39.8,13.8,39.8,13.7,39.6,13.8z"/>
		<path class="st39" d="M41.4,6.8C41.2,7.4,41,8,40.8,8.6C40.9,8,40.9,7.3,41.4,6.8z"/>
		<path class="st33" d="M50.8,4.1c-0.5,0.4-0.8,1.1-1.5,1.3c-0.2,0.1-0.2,0.3-0.1,0.4c0.1,0.6-0.1,0.7-0.7,0.8
			c-0.2,0-0.3-0.1-0.2-0.2c0.1-0.2,0.1-0.5-0.1-0.7c0,0,0,0,0,0c0.4-0.4,0.6-1,0.8-1.6c0.1-0.2,0.2-0.4,0.4-0.5
			C49.9,4.1,50.4,4,50.8,4.1z"/>
		<path class="st40" d="M49.2,4.2c0,0,0.1,0.1,0.1,0.1c-0.2,0.5-0.3,1.1-0.9,1.4c0.1-0.2,0.2-0.4,0.2-0.6
			C48.8,4.9,48.9,4.5,49.2,4.2z"/>
		<path class="st0" d="M49,12.6c-0.1,0-0.2,0.1-0.4,0.2c-0.1,0.1-0.1,0.4-0.3,0.2c-0.2-0.1-0.2-0.4,0-0.5c0.3-0.3,1.3-0.2,1.5,0.2
			c0.1,0.1,0.1,0.2,0,0.3c-0.1,0.1-0.3,0.1-0.4-0.1C49.4,12.8,49.3,12.6,49,12.6z"/>
		<path class="st41" d="M55.5,16.1c0-0.5,0.1-1,0.1-1.5c0.3-0.8,0.4-1.6,0.8-2.4c0.1-0.2,0.2-0.4,0.4-0.4c-0.2,0.9-0.6,1.7-0.8,2.6
			C55.8,14.9,55.8,15.5,55.5,16.1z"/>
		<path class="st42" d="M34.1,13c-1.2,1.4-1.6,3-1.8,4.8c0,0.2,0,0.3-0.1,0.4c-0.2,0-0.3-0.1-0.2-0.4c0.2-0.8,0.4-1.6,0.5-2.3
			c0.1-0.4,0.2-0.8,0.4-1.2c0.3-0.4,0.5-0.9,0.9-1.3C33.8,12.9,33.9,12.7,34.1,13z"/>
		<path class="st43" d="M34.1,13c-0.4,0-0.5,0.5-0.7,0.7c-0.2,0.2-0.2,0.5-0.5,0.6c0.1-0.2,0.1-0.3,0.2-0.5c0.3-0.5,0.6-1,1-1.3
			C34,12.7,34,12.8,34.1,13z"/>
		<path class="st7" d="M40,12.8c0-0.3,0.1-0.7,0.2-1c0.7,0,0.7-0.6,0.9-1.1c0.1-0.3,0.2-0.5,0.5-0.7C41.9,9.8,42,9.4,42,8.9
			c-0.1-0.4-0.2-0.8-0.1-1.2c0.1-0.3,0.2-0.4,0.4-0.1c0.4,0.5,0.8,0.9,1.3,1.2c0.4,0,0.5,0.1,0.3,0.5c-0.4-0.2-0.8-0.4-1.1-0.8
			c-0.1-0.1-0.2-0.2-0.4-0.1c-0.1,0.1-0.2,0.2-0.1,0.4c0.2,0.4,0,0.7-0.1,1c-0.1,0.3-0.3,0.6-0.2,0.9c0,0,0,0.1-0.1,0.2
			c-0.1,0.1-0.1,0-0.2-0.1c0-0.1-0.1-0.3-0.3-0.2c-0.1,0.1,0,0.2,0,0.3c0.1,0.4-0.1,0.9-0.5,1.1c-0.1,0.1-0.2,0.2-0.2,0.3
			C40.6,12.7,40.4,12.8,40,12.8z"/>
		<path class="st18" d="M43.8,9.3c0-0.2-0.2-0.3-0.3-0.5c0-0.1,0-0.1,0-0.2c0-0.1-0.1-0.2,0.1-0.2C43.8,8.6,44,8.8,44.2,9
			c0.4,0.3,0.5,0.8,0.4,1.3c0,0.1-0.1,0.2-0.2,0.1C44.3,10,44.1,9.6,43.8,9.3z"/>
		<path class="st38" d="M53.4,16.3c0,0.3,0,0.4-0.2,0.6"/>
		<path class="st38" d="M55.4,15.8c0,0.1,0,0.1-0.1,0.1c0,0-0.1-0.1-0.1-0.1c0-0.1,0-0.1,0.1-0.1C55.3,15.6,55.3,15.7,55.4,15.8z"/>
		<path class="st44" d="M43.6,8.5c0,0.1-0.1,0.1-0.1,0.2c0,0-0.1-0.1-0.1-0.1c0-0.2-0.3-0.3-0.1-0.4C43.4,8,43.6,8.3,43.6,8.5z"/>
		<path class="st45" d="M25.1,16.9c-0.3-0.5,0-0.9,0.2-1.4C25.3,16,25.3,16.5,25.1,16.9C25.2,16.9,25.2,16.9,25.1,16.9z"/>
		<path class="st31" d="M55.6,21.2c0,0-0.1,0.1-0.1,0.1c-0.2,0-0.2-0.2-0.2-0.3"/>
	</g>
</g>
</svg>
