<?xml version="1.0" encoding="utf-8"?>
<!-- Generator: Adobe Illustrator 20.0.0, SVG Export Plug-In . SVG Version: 6.00 Build 0)  -->
<svg version="1.1" id="Layer_1" xmlns="http://www.w3.org/2000/svg" xmlns:xlink="http://www.w3.org/1999/xlink" x="0px" y="0px"
	 viewBox="0 0 100 30" style="enable-background:new 0 0 100 30;" xml:space="preserve">
<style type="text/css">
	.st0{fill:#1D1D1D;}
	.st1{fill:#1E1E1E;}
	.st2{fill:#1B1B1B;}
	.st3{fill:#2C2C2C;}
	.st4{fill:#272727;}
	.st5{fill:#262626;}
	.st6{fill:#313131;}
	.st7{fill:#2F2F2F;}
	.st8{fill:#252525;}
	.st9{fill:#383838;}
	.st10{fill:#232323;}
	.st11{fill:#303030;}
	.st12{fill:#2A2A2A;}
	.st13{fill:#2B2B2B;}
	.st14{fill:#333333;}
	.st15{fill:#464646;}
	.st16{fill:#363636;}
	.st17{fill:#4C4C4C;}
	.st18{fill:#373737;}
	.st19{fill:#404040;}
	.st20{fill:#3F3F3F;}
	.st21{fill:#1C1C1C;}
	.st22{fill:#222222;}
	.st23{fill:#292929;}
	.st24{fill:#323232;}
	.st25{fill:#343434;}
	.st26{fill:#282828;}
	.st27{fill:#2E2E2E;}
	.st28{fill:#3E3E3E;}
	.st29{fill:#353535;}
	.st30{fill:#6D6D6D;}
	.st31{fill:#1F1F1F;}
	.st32{fill:#2D2D2D;}
	.st33{fill:#C2C2C2;}
	.st34{fill:#3C3C3C;}
	.st35{fill:#6E6E6E;}
	.st36{fill:#393939;}
	.st37{fill:#242424;}
	.st38{fill:#CACACA;}
	.st39{fill:#C6C6C6;}
	.st40{fill:#454545;}
</style>
<g id="ukvoZn.tif">
	<g>
		<path class="st0" d="M11.2,16.5c0.2-0.3,0.1-0.6,0.1-0.9c0.3-0.9,0.6-1.8,0.4-2.8c-0.2-0.8,0.4-1.4,0.5-2.2c0.1-0.5,0.3-1,0.6-1.4
			c0.2-0.3,0.4-0.7,0.8-0.6c0.4,0.1,0.5,0.5,0.6,1c0.1,0.8,0.1,1.6,0,2.3c-0.1,0.6,0,1.1,0,1.6c0,0.3,0,0.6,0,0.9
			c-0.2,0.9,0,1.8,0.2,2.7c0.2,0.1-0.1,0.7,0.4,0.4c0.5-0.4,1-0.8,1.5-1.2c0.2-0.7,0.5-1.4,1.1-1.9c0.2-0.1,0.3-0.2,0.3-0.3
			c0.3-1.3,1-2.5,1.4-3.7c0.2-0.6,0.7-1.2,1.2-1.7c0.2-0.2,0.4-0.1,0.6,0.1c0.7,0.6,0.9,1.2,0.6,2.1c-0.6,1.6-0.8,3.2-1.3,4.8
			c-0.1,0.4-0.1,0.8-0.2,1.2c0,0.2-0.1,0.4,0.2,0.4c0.4-0.3,0.8-0.5,1.2-0.7c0.5,0.1,0.8,1.1,0.4,1.6c-0.1,0.1-0.1,0.2-0.2,0.2
			c-1,0.8-1.1,1.8-0.7,2.9c0,0.1,0,0.2,0,0.3c-0.1,0.2-0.2,0.4-0.4,0.5c-1,0.1-1.7-0.4-2.3-1.2c-0.1-0.2-0.3-0.4-0.5-0.4
			c-0.4-0.4-0.7-0.2-0.9,0.2c-0.4,0.8-1.1,1.3-2,1.2c-0.4,0-0.7-0.3-1.1-0.1c-0.5-0.4-0.8-0.9-1-1.5c-0.2-0.6-0.5-1.3-0.8-1.8
			c-0.3-0.1-0.5,0.2-0.5,0.4c-0.3,1.1-0.5,2.2-0.6,3.3c-0.1,0.8-0.2,0.9-0.9,0.8c-0.2,0-0.4,0-0.6,0c-0.2,0-0.4,0-0.5-0.3
			c0-0.4-0.4-0.5-0.6-0.7c-0.3-0.3-0.3-0.7-0.5-1c0,0,0-0.1,0-0.1c0.4-0.3,0.9-0.3,1.4,0.1c0.5,0.4,0.6,0.4,0.8-0.2
			c0.2-0.5,0.2-1,0.4-1.5c0.1-0.2,0.1-0.5-0.2-0.7c-0.2-0.1-0.5,0-0.7,0.1c-0.4,0.3-0.8,0.7-1,1.2c-0.2,0.4-0.4,0.6-0.8,0.5
			c-0.1-0.2-0.3-0.3-0.4-0.5c-0.2-0.6,0.3-1,0.4-1.6c0.2-0.9,0.4-1.8,0.6-2.7c0-0.1,0-0.2,0-0.3c0.2-0.3,0.4-0.8,0.9-0.8
			c0.5,0,0.6,0.3,0.8,0.8C9.9,15.6,10,15.8,10,16c0.1,0.2,0,0.4,0,0.7c0,0.2-0.1,0.5,0.3,0.6c0,0,0.1,0,0.1-0.1
			C10.7,16.9,11.1,16.8,11.2,16.5z"/>
		<path class="st1" d="M48,18.9c0,0.1-0.1,0.2-0.1,0.3c-0.1,0.1-0.3,0.2-0.4,0.1c-0.2-0.1-0.2-0.2-0.1-0.4c0.1-0.2,0.3-0.4,0.4-0.7
			c0.2-0.3,0.1-0.4-0.1-0.6c-0.1-0.2-0.2-0.4-0.1-0.7c0-0.1,0.1-0.1,0.1-0.2c-0.2-0.4,0.1-0.8,0-1.3c0-0.2,0.2-0.3,0.4-0.2
			c1,0.3,1.8,1.1,2.7,1.7c0.4,0.3,0.9,0.7,1,1.3c0.1,0.5,0.4,0.5,0.8,0.3c0.2-0.1,0.5-0.2,0.7-0.3c0.3,0,0.6-0.1,0.8-0.5
			c0.3-0.5,0.7-1,0.8-1.6c0-0.3,0.4-0.5,0.5-0.8c0.4-0.6,0.6-1.3,0.9-1.8c0.2-0.2,0.3-0.4,0.7-0.4c0.2,0,0.4,0,0.5,0.3
			c0.1,0.5,0.2,0.9,0.1,1.4c-0.1,0.2-0.1,0.3-0.2,0.5c-0.3,0.3-0.1,0.5,0,0.8c0.3,0.6,0.2,1-0.1,1.6c-0.4,0.5-0.9,1-0.4,1.8
			c-0.1,0.7-0.4,1.4-0.5,2.1c-0.1,0.6-0.6,0.6-1,0.7c-0.5,0.1-0.7-0.2-0.8-0.6c-0.1-0.4-0.3-0.9-0.5-1.3c0-0.2-0.2-0.4-0.2-0.7
			c-0.2-0.3-0.4-0.1-0.6,0.1c-0.7,0.5-0.9,1.3-1.2,2.1c-0.1,0.2-0.1,0.3-0.1,0.5c0,0.3,0,0.7-0.4,0.8c-0.4,0.1-0.8,0.1-1.2-0.3
			c-0.4-0.4-0.6-1-1-1.5c-0.2-0.4-0.4-0.8-0.7-1.2c-0.1-0.2,0-0.5,0-0.7C48.7,19.1,48.5,18.8,48,18.9z"/>
		<path class="st0" d="M42.3,23.3c-0.1-0.2-0.1-0.4-0.2-0.7c-0.3,0-0.4-0.2-0.5-0.4c-0.6-1.1-0.5-2.4-0.8-3.6
			c-0.2-0.8-0.2-1.7-0.3-2.6c0-0.4-0.1-0.7-0.4-1c-0.6-0.6-0.2-1.1,0.1-1.7c0.1-0.1,0.3-0.2,0.4-0.3c0.3-0.1,0.4-0.4,0.7-0.6
			c0.9-0.7,1.4-0.7,2.1,0.2l0.1,0c0.6,0.2,0.4,0.6,0.2,0.9c-0.2,0.3-0.3,0.6-0.2,1c0.3,2,0.8,4,1,6.1c0,0.5,0.2,0.6,0.6,0.3
			c0.3-0.2,0.6-0.4,0.9-0.6c0.3-0.1,0.5,0.1,0.5,0.4c0,0.2,0,0.5,0,0.7c0,0.2-0.2,0.4-0.3,0.5c-0.5,0.8-1.1,1.5-1.3,2.4
			c-0.2,0.6-1.4,0.6-1.9,0c-0.1-0.2-0.2-0.4-0.5-0.4C42.2,23.7,42.3,23.5,42.3,23.3z"/>
		<path class="st2" d="M65.8,11.4c0.3,0.2,0.3,0.7,0.8,0.8c0.3-0.1,0.4,0.1,0.3,0.4c0,0.3-0.1,0.5-0.1,0.8c-0.2,0.4-0.3,0.9-0.3,1.4
			c0,0.8-0.1,1.5-0.2,2.2c0,0.3-0.1,0.6,0.2,0.9c0.6,0.5,0.6,0.5,0.1,1.2c-0.1,0.2,0,0.3-0.1,0.5c0,0.1,0,0.1,0,0.2
			c-0.5,0.4-0.8,0.8-0.8,1.5c0,0.4-0.2,0.9-0.8,0.9c-0.5,0-1-0.3-1.2-0.7c-0.2-0.7-0.5-1.4-0.8-2l0,0c-0.1-0.2-0.1-0.4-0.1-0.6
			c0.3-1.1,0.2-2.1-0.1-3.2c-0.1-0.3,0.1-0.5,0.1-0.8c0.1-0.4,0.1-0.7-0.4-0.7c-0.6-0.1-0.8-0.5-0.4-1c0.1-0.2,0.3-0.3,0.4-0.5
			c0,0,0.1,0,0.1,0c0.2-0.1,0.2-0.2,0.4-0.3c0.4,0.1,0.7,0,0.8-0.4c0.5-1,0.5-1,1.6-0.7C65.5,11.3,65.7,11.3,65.8,11.4z"/>
		<path class="st0" d="M34.7,20.4c0.6-0.7,0.7-1.5,0.7-2.4c0-0.9-0.3-1.7-0.5-2.5c-0.2-0.5-0.6-1-0.6-1.6c0-0.1-0.1-0.1-0.1-0.2
			c0.1-0.4,0.4-0.3,0.6-0.2c0.3,0.3,0.7,0.4,1.1,0.5c0.1,0.1,0.3,0.1,0.4,0.1c0.6,0.1,1.2,0.1,1.6,0.8c-0.1,0.6,0,1.1,0.3,1.6
			c0.6,1.4,1.2,2.8,1.3,4.3c0,0.9,0.2,1.9-0.7,2.6c-0.3-0.1-0.6-0.2-1,0c-0.4,0.2-0.8,0.1-1.2-0.3c-0.7-0.7-1.2-1.5-1.8-2.3
			C34.6,20.7,34.5,20.5,34.7,20.4z"/>
		<path class="st1" d="M28,17.3c0,0.2,0.1,0.3,0.1,0.5c0.2-0.2,0.4-0.3,0.5-0.4c0.1,0,0.3,0,0.3,0.1c-0.1,0.7-0.1,1.4-0.4,2.1
			c-0.6,0.3-0.7,0.8-0.6,1.4c0,0.3-0.3,1-0.7,1.1c-0.6,0.3-1,0.2-1.3-0.3c-0.2-0.2-0.3-0.5-0.6-0.6c-0.2-0.2-0.4-0.5-0.5-0.8
			c0,0,0-0.1,0-0.1c0.8-0.3,0.6-1.1,0.7-1.7c0-0.2,0.1-0.5,0-0.7c-0.1-0.7,0.1-1.4,0.2-2c0.1-0.3,0.1-0.7,0.1-1
			c0-0.2,0.1-0.4,0.3-0.5c0.2-0.1,0.4,0,0.6,0.1c0.7,0.5,1.1,1.1,1.1,2C27.8,16.6,27.8,17,28,17.3z"/>
		<path class="st3" d="M24,18.2c0-0.3,0-0.7,0-1c-0.4-0.4-0.5,0.1-0.6,0.3c-0.4,0.8-0.7,1.6-1.1,2.4c-0.2,0.3-0.3,0.8-0.7,0.9
			c-0.4-0.1-0.4-0.3-0.4-0.7c0.1-0.8,0.2-1.4,0.8-2c0.3-0.3,0.2-0.8,0.1-1.1c-0.1-0.4,0.1-0.6,0.3-0.9c0.4-0.3,0.8-0.6,1.2-0.8
			c0.4-0.3,0.7-0.6,0.7-1.1c0.1-0.5-0.1-0.9-0.2-1.3c-0.1-0.4,0-0.6,0.4-0.4c0.8,0.2,1.5,0.6,2.2,1.1c0.2,0.2,0.4,0.3,0.5,0.6
			c-0.1,0.4-0.2,0.7-0.6,0.2c-0.1-0.1-0.4-0.2-0.6-0.1c-0.2,0.1-0.3,0.4-0.2,0.6c0.1,0.7-0.2,1.3-0.3,1.9c0,0.2-0.1,0.5-0.1,0.7
			c0,0.7,0,1.3-0.1,1.9c-0.2,0.8-0.2,0.9-1,0.7c0,0-0.1-0.1-0.1-0.1C24.1,19.4,23.9,18.8,24,18.2z"/>
		<path class="st4" d="M30.4,20.2c-0.1-0.3-0.3-0.7-0.4-1c-0.2-0.2-0.4-0.4-0.6-0.6c-0.5-0.4-0.2-1-0.2-1.6c0-0.1,0-0.3,0-0.4
			c0.2-0.2,0.3-0.4,0.5-0.7c0.3-0.4,0.7-0.9,0.8-1.5c0.1-0.4,0.8-0.4,1-0.1c0.3,0.5,0.7,0.7,0.9,1.3c0,0.2,0,0.4,0,0.6
			c0.5,0.6,0.2,1.2,0.2,1.8c0,0.1,0,0.1-0.1,0.2c-0.4,0.6-0.2,1.3-0.4,2c-0.1,0.3-0.1,0.5-0.4,0.6c-0.4,0.1-0.6,0-0.9-0.3
			C30.7,20.5,30.6,20.3,30.4,20.2z"/>
		<path class="st5" d="M56.5,19.4c-0.1-0.7,0.2-1.2,0.5-1.8c0.3-0.5,0.4-1-0.1-1.5c-0.2-0.2-0.2-0.4,0-0.6c0.2-0.2,0.3-0.3,0.6-0.1
			c0.6,0,0.7-0.5,0.7-0.9c0.1-0.9,0-0.9,0.9-0.5c1,0,1.4,0.7,1.8,1.4c0.2,0.5,0,1-0.5,1c-0.5,0-0.6,0.3-0.6,0.7
			c0,0.7-0.3,1.2-0.6,1.8c-0.2,0.3-0.4,0.7-0.9,0.5c-0.1,0-0.3-0.1-0.4-0.2c-0.3-0.3-0.6-0.3-0.8,0.1C56.9,19.6,56.8,19.7,56.5,19.4
			z"/>
		<path class="st6" d="M17.6,14.6c-0.4,0.6-0.8,1.2-1.2,1.7c0-3.6,1.5-6.6,3-9.7c0.2-0.3,0.7-0.4,1.1,0c0.3,0.3,0.5,0.6,0.5,1
			c0,0.3,0.1,0.6,0.3,0.9c0,0.1,0,0.2,0,0.2c-0.2,0.4-0.4,0-0.5-0.1c-0.6-0.5-0.7-0.5-0.9,0.3c0,0.2,0,0.3-0.1,0.4
			c-0.6,0.6-0.8,1.5-1.1,2.2C18.3,12.5,17.8,13.5,17.6,14.6z"/>
		<path class="st5" d="M17.6,14.6c-0.3-0.5-0.2-1.1,0.1-1.6c0.4-0.7,0.6-1.5,0.9-2.3c0.1-0.4,0.3-0.7,0.5-1c0.4-0.4,0.5-1,0.6-1.6
			c0.1-0.7,0.3-0.7,0.8-0.3c0.4,0.2,0.5,0.6,0.9,0.9c0.6,0.7,0.7,1.5,0.4,2.4c-0.6,1.7-1,3.5-1.4,5.3c-0.1,0.3-0.2,0.6,0.1,0.8
			c-0.4,0-0.3-0.3-0.3-0.5c0-1.2,0.4-2.4,0.7-3.6c0.1-0.4,0.2-0.8,0.2-1.2c0-0.6,0.5-1.1,0.6-1.8c0-0.3-0.4-1.1-0.8-1.2
			c-0.1,0-0.3,0-0.4,0.1c-0.3,0.6-0.9,1-1.1,1.7C18.9,12.2,18.5,13.5,17.6,14.6z"/>
		<path class="st7" d="M43.5,14.5c-0.3-0.6,0.2-1.3,0-1.9c2.8-0.7,9.3-1.7,10.8-1.2c-2,0.1-3.7,0.6-5.5,0.8
			c-0.5,0.2-1.1,0.3-1.6,0.5c-1,0.3-2,0.6-3,0.8C43.6,13.7,43.4,13.9,43.5,14.5z"/>
		<path class="st8" d="M24.4,20c0.5-0.2,0.8-0.6,0.7-1.1c-0.1-1.3,0.3-2.6,0.3-4c0-0.4,0.3-0.8,0-1.3c-0.1-0.2,0.2-0.2,0.3-0.2
			c0.3,0.1,0.7,0.2,1,0.4c0.2,0.1,0.4,0.2,0.6,0.1c0.8,0.9,0.7,2.1,0.7,3.2c-0.4-0.3-0.5-0.8-0.5-1.3c0-0.6-0.4-1-0.9-1.3
			c-0.1-0.1-0.2-0.1-0.3-0.1c-0.2,0.1-0.1,0.2-0.1,0.3c0.1,0.4,0,0.7-0.2,1.1c-0.2,0.5-0.3,1-0.2,1.5c0.1,0.8-0.1,1.5-0.2,2.3
			c-0.1,0.4-0.5,0.5-0.8,0.7c0,0.1-0.1,0.1-0.1,0C24.6,20.3,24.4,20.2,24.4,20z"/>
		<path class="st9" d="M53.4,18.2c0.1-2,0.7-3.7,1.8-5.4c0.4-0.6,0.9-0.3,1.3-0.1c0.2,0.3,0.2,0.6-0.1,0.9c-0.5,0.5-0.5,1.3-0.9,1.8
			c-0.7,0.8-0.8,1.9-1.5,2.7C53.8,18.2,53.7,18.5,53.4,18.2z"/>
		<path class="st10" d="M43.4,12.6c-0.7-0.4-1.4-0.4-2,0.2C41.2,13,41,13.1,40.7,13c0,0,0-0.1,0-0.1c-0.2-1.2,0.3-2.3,0.9-3.2
			c0.3-0.4,0.5-0.4,0.8,0c0.2,0.3,0.4,0.4,0.6,0.6C43.6,11,43.3,11.8,43.4,12.6z"/>
		<path class="st8" d="M22.5,16c0,0.1-0.1,0.2,0,0.3c0.5,0.8,0,1.4-0.3,1.9c-0.5,0.8-0.4,1.6-0.5,2.4c0,0,0,0.1,0,0.1
			c-0.3,0.2-0.2,0.9-0.8,0.7c-0.5-1-0.5-1.9,0.2-2.8c0.7-1,0.7-1,0.6-2.1C21.8,16.4,22.2,16.2,22.5,16z"/>
		<path class="st11" d="M29.3,16.6c0.4,0.1,0.3,0.4,0.3,0.6c0.1,0.5-0.1,1,0.5,1.3c0.3,0.1,0,0.4,0,0.6c-0.4-0.2-0.7,0-0.8,0.4
			c-0.2,0.7-0.6,1.3-1.1,1.8c-0.5-0.4-0.3-0.9-0.2-1.3c0.1-0.2,0.2-0.5,0.3-0.7c0.1-0.7,0.1-1.4,0.4-2.1
			C28.8,17.1,29.1,16.8,29.3,16.6z"/>
		<path class="st8" d="M37.6,15c-0.6-0.1-0.9-0.5-1.4-0.8c1.3-0.4,2.7-0.6,4-0.9c0.2,0.2,0.2,0.5,0.1,0.7c-0.1,0.2-0.1,0.4,0.2,0.5
			c0,0.2,0,0.3-0.2,0.4c-0.8,0.2-1.6,0.4-2.3,0.4C37.8,15.3,37.6,15.2,37.6,15z"/>
		<path class="st12" d="M53.4,18.2c0.5-0.5,0.9-1,1.1-1.7c0.4-1,0.9-2,1.6-2.8c0.3-0.3,0.1-0.8,0.4-1c0,0,0.1,0,0.1,0
			c0.3,0.2,0.9,0,1.1,0.5c0,0.5,0,1.1-0.1,1.6c-0.2-0.4-0.3-0.8-0.4-1.2c-0.1-0.2-0.2-0.2-0.3-0.1c-0.3,0.1-0.4,0.3-0.4,0.5
			c-0.2,0.7-0.8,1.3-1.1,2c-0.4,0.7-0.7,1.5-1.1,2.2c-0.3,0.5-0.5,0.5-0.9,0.1C53.3,18.3,53.3,18.3,53.4,18.2z"/>
		<path class="st8" d="M71.2,7.3c0.3-0.1,0.5,0,0.7,0.3c0.3,0.5,0.6,0.9,1,1.4c0.3,0.4,0.3,0.8-0.1,1.2c-0.3,0.3-1,0.1-1.3-0.3
			c-0.3-0.4-0.3-0.8-0.3-1.3c0-0.1-0.1-0.2-0.1-0.2c0,0,0-0.1-0.1-0.1C70.5,7.5,70.5,7.5,71.2,7.3z"/>
		<path class="st6" d="M43,10.3c-0.5,0.2-0.7-0.2-1-0.6c-0.5,1.1-1.4,1.9-1.3,3.2c-0.2-1.1-0.1-2.1,0.2-3.2c0-0.2,0.1-0.3,0.1-0.4
			c0.1-0.2-0.1-0.8,0.2-0.7c0.4,0.1,1,0.1,1.2,0.6C42.6,9.6,42.8,9.9,43,10.3z"/>
		<path class="st13" d="M63,12.6c-0.1,0-0.3,0.1-0.4,0.1c0.3-0.3,0.2-0.7,0.3-1.1c0.1-0.7,0.1-1.4,0-2.2c0-0.3-0.2-0.7,0.4-0.6
			c0.7,0.5,1.4,0.9,1.8,1.6c0,0,0,0.1,0,0.1c0,0.2,0,0.4-0.3,0.4c-0.7-0.1-0.8,0.4-1,0.9C63.7,12.2,63.5,12.5,63,12.6z"/>
		<path class="st12" d="M62.4,14.9c0.2-0.9,0.1-1-0.8-0.9c-0.7,0.1-1.4,0.3-2-0.2c-0.2-0.2-0.4-0.4-0.5-0.7c1.2,0.3,2.2-0.3,3.3-0.3
			c0,0.2,0,0.3-0.1,0.4c-0.3,0.4-0.1,0.6,0.4,0.7C63.1,14.6,63,14.8,62.4,14.9z"/>
		<path class="st14" d="M32.4,15.7c-0.3-0.4-0.8-0.5-1.1-1c-0.1-0.2-0.4-0.2-0.4,0.1c-0.1,0.7-0.7,0.9-1.2,1.2
			c0.1-0.6,0.2-1.2,0.3-1.8c0-0.3,0.2-0.3,0.5-0.3C31.5,13.8,32.3,14.6,32.4,15.7z"/>
		<path class="st15" d="M34.3,13.8c0,0,0,0.1,0,0.1c-0.6-0.2-0.6,0.2-0.6,0.6c0,1.6-0.6,3-1.2,4.3c-0.3-0.2-0.1-0.5,0-0.7l0,0
			c0.3-0.3,0.1-0.7,0.1-1c0-0.5,0.4-0.8,0.4-1.3c0.2-0.9,0.6-1.7,0.3-2.7c-0.1-0.3,0.1-0.7,0.6-0.4c-0.1,0.2,0,0.4,0.2,0.5
			C34.3,13.4,34.4,13.6,34.3,13.8z"/>
		<path class="st3" d="M47.9,17.1c0,0.2-0.1,0.4-0.3,0.5c-0.3-0.1-0.6-0.3-0.8-0.5c-0.4-0.4-0.4-0.9,0-1.3c0.4-0.4,0.7-0.9,1.4-0.4
			c-0.1,0.3-0.2,0.7,0,1C48.2,16.7,48.2,16.9,47.9,17.1c0-0.2-0.1-0.3-0.2-0.4c-0.1-0.1-0.1,0-0.1,0c0,0,0.1,0,0.1,0
			C47.8,16.8,48,16.9,47.9,17.1z"/>
		<path class="st16" d="M46,21.7c0.1-0.1,0.2-0.2,0.3-0.3c0.1-0.3,0.2-0.5,0.2-0.8c-0.1-0.5,0.1-0.9,0.4-1.2
			c0.2-0.2,0.3-0.3,0.5-0.5c0.1,0.2,0.3,0.2,0.5,0.2c-0.4,1.2-1.1,2.2-1.8,3.3C45.8,22.2,46,21.9,46,21.7z"/>
		<path class="st11" d="M34.3,13.8c-0.3-0.2-0.9-0.4-0.4-0.9c0.7,0.3,1.4,0.6,2,1.2c-0.5,0.2-0.9,0.3-1.2-0.2
			C34.6,13.8,34.4,13.8,34.3,13.8z"/>
		<path class="st13" d="M46.9,19.4c0,0.7,0,1.4-0.6,2c0-0.4,0-0.9-0.3-1.2C46.3,19.9,46.6,19.7,46.9,19.4z"/>
		<path class="st17" d="M63.3,8.8C63,9.1,63,9.5,63,9.9c0,0.6,0.1,1.2-0.1,1.8c0-0.8,0.2-1.5-0.2-2.3c-0.1-0.2,0-0.5,0.2-0.6
			C63,8.6,63.2,8.7,63.3,8.8z"/>
		<path class="st18" d="M32.9,15.9c-0.1,0.8-0.1,1.6-0.5,2.3c0-0.6,0-1.3,0-1.9C32.8,16.5,32.8,16.1,32.9,15.9z"/>
		<path class="st19" d="M24.6,12.3c-0.4,0.2-0.3,0.5-0.2,0.8c0.1,0.3,0.2,0.6,0,0.9c-0.2-0.4-0.1-1-0.4-1.4c-0.1-0.1,0-0.3,0.1-0.5
			C24.3,12.1,24.5,12.2,24.6,12.3z"/>
		<path class="st20" d="M47.1,12.7c0.4-0.5,1-0.5,1.6-0.5C48.3,12.6,47.7,12.7,47.1,12.7z"/>
		<path class="st9" d="M57.7,13.3c-0.4-0.2-0.7-0.4-1.1-0.5C57,12.8,57.5,12.6,57.7,13.3z"/>
		<path class="st21" d="M81.5,14.7c0.2,0.1,0.3,0.2,0.5,0.3c1-0.2,1.2-0.1,1.2,1.1c0,0.1,0,0.2-0.1,0.3c-0.4,1.3-0.1,2.8-0.4,4.1
			c-0.1,0.6-0.2,1.1-0.4,1.6c-0.1,0.2-0.3,0.4-0.5,0.4c-0.5,0-1.3-0.6-1.4-1.1c-0.2-0.8-0.7-1.6-1.2-2.2c-0.2-0.3-0.2-0.6-0.6-0.8
			l0,0c0.2-0.6,0.4-1.3,0.8-1.8c0.4-0.5,0.3-1.1,0-1.7c-0.2-0.3-0.2-0.7,0.1-0.9c0.3-0.2,0.6-0.1,0.9,0.1
			C80.7,14.3,81,14.7,81.5,14.7z"/>
		<path class="st2" d="M87.1,15.8c0.7,0.3,0.8,0.9,0.9,1.6c0,0.6,0,1.2,0,1.9c0.1,0.2,0.2,0.2,0.4,0.2c0.1,0,0.3,0.1,0.2,0.3
			c-0.1,0.6,0.1,1.3-0.2,1.9c-0.2,0.3-0.2,0.7-0.2,1.1c-0.1,1-0.7,1.4-1.6,0.9c-0.2-0.1-0.3-0.2-0.6-0.2c-0.4-0.2-0.3-0.6-0.6-0.9
			c-0.1-0.4,0-0.8-0.3-1.2c-0.1-0.1,0-0.2,0-0.3c0.2-1,0.4-1.9,0.3-2.9c0-0.6,0.2-1.2,0.4-1.8C85.8,15.8,86.3,15.7,87.1,15.8z"/>
		<path class="st3" d="M77.6,18.4c-0.1,1.1-0.8,1.8-1.6,2.5c-0.2,0.2-0.4,0.3-0.6,0.5c-0.5,0.5-1,0.4-1.5,0
			c-0.6-0.5-0.4-1.2-0.5-1.8c0.1-0.3,0.3-0.4,0.5-0.1c0.1,0.1,0.1,0.3,0.2,0.5c0.1,0.2,0.2,0.5,0.6,0.5c0.3,0,0.4-0.3,0.5-0.5
			c0.3-1.1,0.9-2.1,1.1-3.3c0.1-0.3,0.2-0.4,0.5-0.4c0.5-0.1,0.8,0.2,0.8,0.7C77.6,17.4,77.7,17.9,77.6,18.4z"/>
		<path class="st13" d="M90.8,22c-0.8,1.2-1.9,1.9-3.3,2.1c0,0-0.1,0-0.1,0c-0.2-0.3,0.1-0.3,0.2-0.5c0.3-0.2,0.6-0.4,0.9-0.5
			c1.1-0.6,1.5-1.7,1.8-2.8c0.1-0.3-0.1-0.5-0.4-0.7c-0.4-0.1-0.7-0.3-0.7-0.8c0.7-0.6,1.4-1.2,2-1.8c0.1-0.1,0.3-0.3,0.5-0.2
			c0.2,0.1,0.2,0.3,0.2,0.6c-0.1,0.8,0.1,1.5,0.1,2.2c0,0.6-0.4,1.1-0.6,1.6C91.2,21.4,91,21.7,90.8,22z"/>
		<path class="st5" d="M81.5,14.7c-0.5,0.2-0.8-0.1-1.2-0.3c-0.2-0.1-0.4-0.3-0.6-0.1c-0.3,0.2,0,0.4,0,0.6c0.3,0.8,0.3,1.5-0.3,2.2
			c-0.4,0.4-0.6,0.9-0.9,1.4c-0.1-0.6,0.1-1.1,0.2-1.7c0.1-0.9,0.2-1.7,0.1-2.6c-0.1,0-0.1-0.1-0.2-0.1c-0.2-0.1-0.6-0.2-0.5-0.6
			c0.1-0.4,0.3-0.5,0.7-0.5C79.8,13.5,80.7,13.9,81.5,14.7z"/>
		<path class="st22" d="M87.1,15.8c-1.3,0.6-1.7,1.4-1.4,2.8c0.1,0.5,0,1.1-0.1,1.6c-0.3,0.8-0.1,1.4,0.1,2.1
			c-0.2,0.2-0.3,0.2-0.4,0c-0.2-0.5-0.6-0.8-0.8-1.3c0.3-0.5,0.1-1.1,0.2-1.6c0.2-1.2,0.2-2.4,0.4-3.7c0-0.2-0.1-0.4-0.2-0.6
			c-0.1-0.2-0.3-0.5,0-0.7c0.2-0.2,0.5-0.1,0.7,0.1c0.1,0,0.1,0.1,0.2,0.1C86.1,15.2,86.7,15.3,87.1,15.8z"/>
		<path class="st3" d="M83.1,16.4c-0.1-0.2-0.2-0.4-0.2-0.5c0-0.6-0.3-0.8-0.9-0.8c0.4-0.1,0.7-0.4,0.9-0.6c0.3-0.1,0.5-0.3,0.7-0.6
			c0.2-0.3,0.4-0.3,0.7,0c0,0.3,0.1,0.5,0.3,0.8c0.5,0.8,0.5,1.7,0.3,2.5c-0.1,0.5-0.2,1,0.1,1.5c0.1,0.2,0.1,0.3-0.1,0.5
			c-0.3,0.3-0.3,0.7-0.3,1.1c0,0.3,0.1,0.6-0.4,0.7C83.8,20.3,84,19.6,84,19c0-1,0.1-2,0.3-3c0-0.2,0-0.4-0.1-0.7
			c0-0.2-0.2-0.2-0.3,0C83.6,15.6,83.4,16,83.1,16.4z"/>
		<path class="st8" d="M62.4,14.9c0.2-0.3,0.3-0.6,0.3-0.9c0.5,0.3,0.7,0.7,0.4,1.2c0,0.1-0.1,0.3-0.1,0.4c0.6,0.8,0,1.6,0.3,2.4
			c0.2,0.6-0.5,0.9-0.6,1.4c-0.1-0.3-0.3-0.5-0.4-0.8c0-0.1,0-0.1-0.1-0.2c0-0.4,0-0.8-0.3-1.3c-0.3-0.4-0.4-1.1,0-1.6
			c0.1-0.2,0.2-0.3,0.3-0.5C62.4,15,62.4,14.9,62.4,14.9z"/>
		<path class="st23" d="M84.3,20.8c0.2-0.6-0.2-1.4,0.4-2c0,0,0,0,0-0.1c-0.8-1.1,0.2-2.1,0-3.1c0-0.2,0-0.5-0.3-0.6
			c-0.4-0.3-0.4-0.7-0.2-1.2c0.5,0.2,1.1,0.4,1.4,1c-0.7-0.1-0.7,0-0.5,0.7c0.1,0.2,0.1,0.3,0.1,0.5c-0.1,1.5-0.3,3.1-0.5,4.6
			c0,0.2-0.2,0.4-0.3,0.6c0,0,0,0-0.1,0.1C84.3,21.1,84.2,21,84.3,20.8z"/>
		<path class="st24" d="M68.7,18.8c-0.3-0.2-0.2-0.5-0.3-0.9c-0.6,0.8-1.2,1.5-1.7,2.4c-0.3,0.6-0.9,1.2-0.8,2
			c0,0.2-0.3,0.5-0.6,0.5c-0.5-0.3-0.5-0.4-0.1-0.8c0.2-0.2,0.4-0.3,0.4-0.5c0-0.8,0.4-1.4,0.8-2v0c0.2-0.1,0.1-0.4,0.3-0.5
			c0.6-0.6,0.5-0.7-0.3-1c-0.2-0.4,0.1-0.6,0.3-0.7c0.5-0.5,0.9-1,1.2-1.6c0.2-0.4,0.5-0.4,0.8-0.3c0.2,0.1,0.2,0.3,0.2,0.5
			c-0.2,0.9,0,1.8,0,2.7C68.9,18.7,68.9,18.8,68.7,18.8z"/>
		<path class="st23" d="M78.5,18.5c0.6,0.4,1,1,1.4,1.5c0.3,0.4,0.9,0.7,0.7,1.4c-0.1,0.3,0.5,0.7,0.9,0.7c0.4,0.1,0.4-0.4,0.6-0.6
			c0.2-0.3,0.4-0.7,0.5-1.1c0,0.5,0,1-0.1,1.5c0,0.5-0.3,0.8-0.7,1c-0.4,0.2-0.8,0-1.2-0.3c-0.4-0.3-0.6-0.8-0.8-1.4
			C79.6,20.3,79.1,19.3,78.5,18.5z"/>
		<path class="st25" d="M90.8,22c0-0.3,0.1-0.7,0.3-0.9c0.6-0.7,0.6-1.5,0.5-2.3c-0.1-0.4-0.1-0.9,0-1.3c0-0.1,0.1-0.3-0.1-0.4
			c-0.2-0.1-0.3,0.1-0.4,0.2c-0.6,0.5-1.2,1.1-1.8,1.6c0,0.5-0.4,0.6-0.8,0.7c-0.1,0-0.3-0.1-0.4,0c0-0.1-0.1-0.2-0.1-0.3
			c0.4,0.1,0.6-0.1,0.8-0.3c0.9-0.7,1.8-1.5,2.6-2.4c0.4-0.4,0.6-0.3,0.7,0.1c0.2,1.1,0.4,2.3,0,3.4C91.7,20.7,91.5,21.5,90.8,22z"
			/>
		<path class="st26" d="M66.4,19.5c-0.4,0.9-0.3,2-1,2.8c-0.1,0.2-0.2,0.4-0.1,0.6c-0.6,0.2-1-0.1-1.4-0.5c-0.5-0.7-0.6-1.4-0.8-2.2
			c-0.1-0.3-0.2-0.5-0.3-0.8c0.5,0.5,0.7,1,1,1.6c0.2,0.5,0.5,0.8,1.1,0.7c0.5,0,0.6-0.5,0.6-0.9C65.6,20.3,66,20,66.4,19.5z"/>
		<path class="st27" d="M60.7,22.3c-0.7,0.2-1.3,0-1.7-0.7c-0.3-0.5-0.5-1.1-0.6-1.7c0.2-0.5,0.4-0.5,0.6-0.1
			c0.2,0.3,0.3,0.6,0.5,0.8c0.3,0.4,0.5,0.4,0.7-0.1c0.1-0.3,0.3-0.7,0.4-1c0.1-0.3,0.3-0.4,0.6-0.3c0.1,0.1,0,0.3,0.1,0.4
			c-0.3,0.6-0.4,1.2-0.3,1.8C61.1,21.9,61,22.1,60.7,22.3z"/>
		<path class="st28" d="M78.8,13c-0.5,0.4-0.4,0.8,0,1.2c-0.7-0.1-1.3,0.1-1.9,0.5c-0.4,0.2-0.7-0.2-1.1-0.2
			c-0.2-0.3-0.8-0.2-0.5-0.7c1,0.1,1.9-0.6,2.8-0.8C78.4,12.9,78.6,12.8,78.8,13z"/>
		<path class="st29" d="M61.3,19.7c-0.1-0.1-0.1-0.2-0.2-0.3c-0.3-0.1-0.5-0.2-0.4-0.5c0.1-0.4,0.1-0.9,0.3-1.3
			c0.3-0.4,0.4-0.9,0.3-1.4c0.3-0.4,0.6-0.8,1-1.2c-0.3,0.9-0.2,1.8,0.1,2.6c0.1,0.3,0,0.7,0,1c-0.2-0.3,0-0.7-0.2-1.1
			c-0.4,0.5-0.6,1-0.7,1.5C61.5,19.3,61.5,19.5,61.3,19.7z"/>
		<path class="st14" d="M76,14.2c0.4,0,0.7,0.2,0.9,0.5c0.8,1.1,1,2.3,0.7,3.7c0-0.3,0-0.5,0-0.8c0-0.7-0.3-1.1-0.9-1.1
			c-0.1,0-0.1,0-0.2,0C76.4,15.7,75.7,15,76,14.2z"/>
		<path class="st29" d="M73.6,19.5c0,0.7,0.1,1.3,0.4,1.9c-0.4-0.1-0.5-0.4-0.5-0.7c-0.1-0.5-0.1-1-0.2-1.5c0-0.2-0.1-0.5-0.4-0.2
			c-0.6,0.8-1.2,1.7-1.4,2.8c-0.1,0.1-0.1,0.1-0.2,0c-0.2-0.2-0.2-0.4-0.2-0.6c0-0.1,0-0.1,0-0.2c0.2-0.7,0.3-1.3,0.6-2
			c0.1-0.1,0.3-0.2,0.4-0.3c0.5-0.6,0.9-0.6,1.5-0.1C73.9,18.9,74,19.2,73.6,19.5z"/>
		<path class="st8" d="M71.4,21c0,0,0,0.1,0,0.1c-0.8,1.1-1.5,0.6-2-0.5c-0.2-0.5-0.3-1.1-0.6-1.6c0-0.1-0.1-0.2-0.1-0.2
			c0-0.1,0-0.2,0-0.3c0.2-0.5,0.5-0.8,1-0.9c0.4,0.2,0.4,0.6,0.2,0.9c-0.2,0.5-0.2,0.9,0,1.3c0.2,0.4,0.4,0.7,0.9,0.4
			c0.2-0.1,0.4-0.2,0.5,0.1C71.4,20.6,71.6,20.8,71.4,21z"/>
		<path class="st23" d="M84.5,21.1c0.4,0.4,0.5,1,1.1,1.2c0.1,0.3,0.3,0.5,0.4,0.8c0.3,0.4,0.7,0.7,1.2,0.7c0.2,0,0.2,0.1,0.3,0.2
			c0,0,0,0,0,0c-0.9,0.4-1.6,0.1-2.1-0.8c-0.3-0.6-0.5-1.3-0.9-1.9C84.5,21.3,84.4,21.2,84.5,21.1L84.5,21.1z"/>
		<path class="st14" d="M68.9,19c0.4,0.4,0.4,1,0.7,1.5c0.1,0.2,0.2,0.4,0.3,0.7c0.2,0.5,0.5,0.6,1,0.5c0.3-0.1,0.5-0.1,0.6,0.2
			c0,0,0.1,0,0.1,0c-0.2,0.7-0.9,0.9-1.5,0.4c-0.4-0.3-0.6-0.7-0.7-1.2C69.2,20.3,69,19.7,68.9,19z"/>
		<path class="st30" d="M84.5,21.2c0,0.1,0,0.2,0,0.3c-0.5-0.4-0.7-1-0.7-1.6c0-1.1,0.2-2.2,0.2-3.3c0-0.4,0.2-0.8-0.2-1.2
			c0.4,0,0.5,0.1,0.4,0.7c-0.1,1-0.2,1.9-0.2,2.9c0,0.6,0,1.3,0.2,1.9C84.4,20.9,84.4,21,84.5,21.2z"/>
		<path class="st31" d="M9.9,16.2c-0.1-0.2-0.2-0.5-0.4-0.7C9.5,15.3,9.3,15,9,15.1c-0.3,0.1-0.5,0.3-0.4,0.6
			c0.1,0.8-0.4,1.5-0.4,2.3c0,0.7-0.5,1.5-1,2.1c-0.5-0.8-0.8-1.6-0.8-2.5c0-0.7,0-1.4,0-2.2c0-0.3,0-0.5,0-0.8
			c0.2-0.5,0-1.2,0.3-1.7c0.2-0.8,0.7-0.9,1.3-0.3C8.2,13,8.5,13.1,8.9,13c0.1,0.1,0.2,0.2,0.4,0.3c0.4,0.2,0.6,0.5,0.5,1
			c0,0.2,0.1,0.5,0.2,0.7C10.3,15.4,10.3,15.8,9.9,16.2z"/>
		<path class="st31" d="M61.4,16.2c0.7,0.5,0.3,1.1,0.1,1.6c-0.3,0.5-0.4,1.1-0.3,1.6c-0.2,0.5-0.5,0.9-0.5,1.5
			c0,0.3-0.1,0.5-0.4,0.6c-0.3,0.1-0.5-0.1-0.7-0.3c-0.2-0.3-0.5-0.7-0.7-1c-0.1-0.1-0.2-0.3-0.4-0.2c-0.1-0.1-0.1-0.3-0.2-0.4
			c-0.1-0.1-0.2-0.2,0-0.4c0.9-0.4,1-1.3,1.2-2.1c0-0.2,0-0.4,0-0.7c0-0.5,0-0.9,0.7-0.5c0.4,0.2,0.4-0.1,0.3-0.3
			c0.2,0.1,0.3,0.3,0.4,0.5C61,16.3,61.2,16.3,61.4,16.2z"/>
		<path class="st2" d="M7.5,20.6C8.2,20,8.4,19,9.3,18.5c0.5-0.3,0.8-0.2,1.2,0c0.4,0.2,0.2,0.5,0.1,0.8c-0.1,0.8-0.5,1.5-0.5,2.3
			c0,0.2-0.1,0.3-0.3,0.4c-0.3,0.1-0.6,0-0.7-0.2c-0.4-0.5-0.9-0.7-1.4-0.8C7.6,20.9,7.6,20.7,7.5,20.6z"/>
		<path class="st7" d="M58.2,19.1c0,0.1,0,0.2,0,0.4c-0.4-0.4-0.7-0.5-0.9,0.2c-0.3,0.8-0.8,1.6-0.9,2.5c0,0.4-0.5,0.6-1,0.5
			c-0.6-0.1-1-0.5-1.2-1c-0.1-0.5-0.3-0.9-0.3-1.4c0.5,0.2,0.5,0.7,0.7,1c0.2,0.3,0.3,0.6,0.8,0.5c0.4,0,0.6-0.2,0.7-0.6
			c0.2-0.6,0.2-1.2,0.3-1.8c0.3-0.3,0.5-0.7,0.7-1.1c0.1-0.1,0.2-0.3,0.4-0.3c0.2,0,0.3,0.2,0.2,0.4C57.8,18.8,58,19,58.2,19.1z"/>
		<path class="st5" d="M12.1,18.4c-0.2,0.1-0.3,0.2-0.3,0.4c-0.3,1-0.6,2.1-0.7,3.1c0,0.1,0,0.3,0,0.4c0.2,0.9-0.5,1.5-1.4,1.2
			c-0.2-0.1-0.4-0.2-0.5-0.2c-0.4,0-0.7-0.2-0.7-0.6c0-0.2-0.4-0.3-0.2-0.6c0.4,0.1,0.7,0.2,0.8,0.6c0.1,0.2,0.3,0.3,0.6,0.3
			c0.9,0,1-0.2,1.2-1.2c0.1-0.8,0.2-1.6,0.4-2.3C11.2,18.9,11.4,18.3,12.1,18.4z"/>
		<path class="st4" d="M38.5,23.1c0,0.2-0.3,0.2-0.4,0.4c-0.8,0.3-1.5,0.2-2.1-0.5c-0.5-0.6-1.1-1.1-1.5-1.8
			c-0.2-0.3-0.3-0.6,0.1-0.9c0.3,0.2,0.6,0.4,0.7,0.7c0.3,0.8,1,1.2,1.5,1.9c0.2,0.3,0.6,0.1,0.9,0C38,22.9,38.3,22.8,38.5,23.1z"/>
		<path class="st12" d="M46,21.7c0,0.2,0,0.5,0,0.7c-0.3,0.8-0.8,1.4-1.2,2.2c-0.3,0.7-1.2,0.6-2,0c-0.3-0.2-0.5-0.5-0.3-0.9
			c0.3,0,0.5,0.2,0.7,0.4c0.6,0.5,1.4,0.3,1.6-0.4C45.1,22.9,45.6,22.3,46,21.7z"/>
		<path class="st23" d="M49.4,21.4c0.4,0.2,0.6,0.6,0.9,0.9c0.7,0.8,1.1,0.7,1.5-0.3c0-0.1,0.1-0.2,0.2-0.4c0.2,0,0.2,0.1,0.1,0.3
			c0,0.2,0.1,0.4,0.1,0.6c0.1,0.6-0.1,1-0.6,1.2c-0.5,0.2-0.9,0.2-1.2-0.3C49.8,22.8,49.4,22.2,49.4,21.4z"/>
		<path class="st16" d="M21.6,20.6c0.6-0.8,0.8-1.8,1.2-2.7c0.2-0.4,0.4-0.7,0.6-1.1c0.1-0.2,0.3-0.5,0.6-0.3c0.3,0.2,0.2,0.4,0,0.6
			c-0.2,0.1-0.3,0.2-0.4,0.4c-0.4,1.3-1,2.3-1.9,3.3C21.5,20.9,21.5,20.8,21.6,20.6L21.6,20.6z"/>
		<path class="st23" d="M28.3,19.4c0.1,0.3-0.1,0.6-0.2,0.9c-0.1,0.4-0.1,0.7,0,1.1l0,0C28,21.5,28,21.7,28,21.8
			c-0.2,0.9-0.3,1-1.3,0.8c-0.1,0-0.2-0.1-0.3-0.1c-0.2-0.2-0.5-0.4-0.7-0.7c-0.4-0.2-0.5-0.5-0.4-0.9c0.4-0.1,0.6,0.2,0.8,0.5
			c0.3,0.5,0.7,0.5,1.1,0.3c0.4-0.2,0.5-0.4,0.4-0.9C27.4,20.3,27.8,19.8,28.3,19.4z"/>
		<path class="st32" d="M20.4,22.8c-1.3,0.1-1.8-0.8-2.3-1.7c0.2-0.3,0.4,0,0.5,0c0.2,0.1,0.4,0.3,0.5,0.5c0.4,0.5,0.9,0.5,1.4,0.3
			c0.1-0.1,0.2-0.3,0.3-0.4c0.3-0.3,0.5-0.5,0.8-0.8c0,0.1,0.1,0.2,0.1,0.3C21.2,21.5,21.1,22.3,20.4,22.8z"/>
		<path class="st23" d="M17.8,20.5c-0.1-0.1-0.2-0.3-0.4-0.1c-0.5,0.6-0.9,1.3-1.6,1.6c-0.8,0.2-1.4,0-1.9-0.5c0.2,0,0.4,0,0.7,0
			c0.9,0.2,1.7-0.1,2.2-0.9c0.1-0.2,0.2-0.3,0.3-0.5c0.1-0.2,0.2-0.4,0.5-0.4c0.3,0,0.2,0.3,0.3,0.5C17.9,20.4,17.9,20.5,17.8,20.5z
			"/>
		<path class="st18" d="M32.4,18.2c0,0.2,0,0.5,0,0.7c-0.2,0.5-0.1,1-0.1,1.4c0,0.3,0.1,0.7-0.3,0.8c-0.5,0.1-0.9,0.1-1.3-0.3
			c-0.1-0.2-0.2-0.4-0.3-0.6c0.2,0,0.4,0.1,0.6,0.2c0.5,0.3,0.8,0.3,1-0.3c0.1-0.3,0.1-0.6,0.1-0.9C32.1,18.8,32.1,18.5,32.4,18.2z"
			/>
		<path class="st25" d="M52.1,22c0-0.1-0.1-0.2-0.1-0.3c-0.1-1,0.4-1.6,1.1-2.1c0.3-0.2,0.6-0.3,0.8,0.1c-0.7-0.1-0.8,0.6-1,1
			C52.5,21.1,52.4,21.6,52.1,22z"/>
		<path class="st13" d="M48,18.9c0.2-0.2,0.3-0.6,0.7-0.4c0.3,0.1,0.4,0.5,0.4,0.8c0.1,0.4-0.1,0.7-0.4,1
			C48.2,19.9,48.3,19.3,48,18.9z"/>
		<path class="st28" d="M26.4,22.6c0.9,0.1,1.4-0.4,1.7-1.2c0,0.1,0,0.3,0,0.4c0.1,0.4,0.2,0.9-0.4,1.1
			C27.3,23.1,26.8,23.1,26.4,22.6z"/>
		<path class="st33" d="M55.1,23c0.1,0,0.2,0.1,0.2,0.2c0,0.1-0.1,0.2-0.2,0.2c-0.1,0-0.1-0.1-0.1-0.2C54.9,23.1,55,23,55.1,23z"/>
		<path class="st33" d="M24,18.2c0.1,0.6,0.2,1.2,0.3,1.7C24,19.4,23.8,18.8,24,18.2z"/>
		<path class="st0" d="M71.3,20.3c-0.2,0.2-0.4,0.7-0.8,0.6c-0.4-0.1-0.6-0.5-0.8-0.9c-0.2-0.6-0.4-1.1,0-1.7c0.1-0.1,0-0.3,0-0.5
			c-0.1,0-0.2-0.1-0.3-0.2c0.2-0.6,0.3-1.2,0.4-1.9c0.3-0.9,0.7-1.2,1.6-0.7c0.7,0.7,0.6,1.6,0.5,2.5c0,0.2,0,0.4-0.1,0.5
			c0.4,0.3,0.3,0.6,0.2,0.9C71.5,19.3,71.6,19.9,71.3,20.3z"/>
		<path class="st32" d="M69.6,17.7c0,0,0.1,0.1,0.1,0.1c-0.4,0.1-0.4,0.7-0.9,0.7c-0.4-1-0.4-1.9-0.1-2.9c-0.3-0.2-0.2-0.4-0.2-0.6
			c0.1-0.4,0.1-0.8,0.1-1.2c0-0.3-0.1-0.4-0.3-0.4c-0.4,0-0.8,0.1-1.2,0.2c-0.2,0.1-0.5,0.1-0.6-0.3c0-0.4,0.1-0.7,0.1-1.1
			c1.7-0.4,4.9-0.5,5.6-0.1c-0.4,0.4-0.9,0.2-1.3,0.3c-0.5,0.1-1.2-0.1-1.3,0.3c-0.2,0.4,0.6,0.5,0.8,0.9c0.2,0.2,0.5,0.4,0.5,0.8
			c-0.1,0.1-0.1,0.3-0.2,0.4c-0.8,0.2-0.9,0.9-1,1.5C69.6,16.7,69.4,17.2,69.6,17.7z"/>
		<path class="st4" d="M71.8,19c0-0.3,0-0.6,0-1c0.4-0.1,0.7-0.4,1-0.6c0.6-1.1,1.1-2.3,1.3-3.5c0-0.2-0.1-0.6,0.4-0.6
			c0.2,0.2,0.5,0.3,0.7,0.5c0.2,0.1,0.4,0.3,0.7,0.4c0.6,0.6,0.4,1.4,0.7,2.1c-0.2,0.2-0.4,0.1-0.6,0c-0.4-0.3-0.7-0.2-1,0.2
			c-0.3,0.4-0.5,0.8-0.6,1.3c-0.1,0.6-0.4,0.9-1,0.9c-0.3-0.3-0.7-0.2-1,0.1c-0.2,0.2-0.4,0.3-0.6,0.3C71.8,19.1,71.8,19.1,71.8,19
			C71.8,19,71.8,19,71.8,19z"/>
		<path class="st10" d="M63,12.6c0.4-0.5,0.6-1.1,0.8-1.7c0.1-0.5,0.3-0.6,0.7-0.3c0.2,0.1,0.4,0.1,0.6,0.1c0.3,0.2,0.5,0.5,0.6,0.8
			c-0.2,0.3-0.4,0.4-0.7,0.2c-0.5-0.3-0.7-0.1-0.9,0.4C64,12.5,63.6,12.7,63,12.6z"/>
		<path class="st34" d="M74.6,13.3c-0.1,0.2-0.2,0.4-0.2,0.6c0.1,1.4-0.7,2.5-1.6,3.6c0.3-1.3,0.8-2.6,1.2-3.9
			C74.2,13.1,74.2,13.1,74.6,13.3z"/>
		<path class="st8" d="M69.6,17.7c-0.3,0-0.3-0.2-0.3-0.4c0.1-0.7,0.2-1.3,0.3-1.9c0.1-0.7,0.5-1.1,1.3-1c0.2,0.2,0.3,0.4,0.5,0.7
			c-0.8,0-1.3,0.4-1.5,1.2C69.9,16.7,69.8,17.2,69.6,17.7z"/>
		<path class="st35" d="M72.7,12.1c0.5-0.4,0.9-0.2,1.2-0.1C73.6,12.2,73.3,12.2,72.7,12.1z"/>
		<path class="st23" d="M14.1,13.7c-0.2-1.2,0.1-2.4,0-3.6c0-0.1,0-0.3,0-0.4C14,9.4,13.9,9.1,13.6,9c-0.3,0-0.4,0.3-0.5,0.5
			c-0.4,0.9-0.4,1.9-0.9,2.8c0,0.1-0.1,0.2,0,0.3c0.4,0.7,0,1.5-0.1,2.2c-0.1,0.4-0.2,0.7-0.7,0.8c-0.3-2-0.3-4,0.3-6
			c0.3-0.3,0.4-0.6,0.6-1c0.3-0.6,0.8-1.2,1.4-1.6c0.3-0.3,0.6-0.1,0.7,0.2c0.1,0.2,0.1,0.4,0.1,0.6c0.2,1.3,0.1,2.6,0,4
			c-0.1,0.6-0.1,1.1-0.1,1.7C14.3,13.4,14.4,13.7,14.1,13.7z"/>
		<path class="st36" d="M14.1,13.7c0.2-1.4,0.4-2.9,0.4-4.3c0-0.6-0.1-1.2-0.1-1.9c-0.1-0.1,0-0.3-0.1-0.4C14,6.8,13.8,6.6,13.5,7
			c-0.2,0.2-0.3,0.4-0.5,0.5c-0.3,0.4-0.4,0.4-0.6-0.2c0.1-0.5,0.3-1,0.7-1.5c0.3-0.3,0.6-0.5,1-0.3c0.3,0.3,0.9,0.6,0.6,1.2
			c-0.1,0.3-0.1,0.6,0,1l0,0c0,0.9,0,1.9,0,2.8l0,0c-0.3,2.2-0.5,4.4,0,6.6c0,0.2,0,0.4,0.3,0.4c-0.4,0.4-0.4-0.1-0.5-0.3
			c-0.3-0.9-0.3-1.9-0.3-2.8C14.1,14.2,14.1,13.9,14.1,13.7z"/>
		<path class="st37" d="M10.1,9.1C9.9,8.8,9.7,8.5,9.7,8.1c0.1-0.6,0.1-1.2-0.6-1.5c0.4-0.3,0.7-0.2,1-0.1c0.6,0.2,0.9,0.7,1.2,1.2
			l0,0c0.3,0.5,0.1,1,0,1.4C10.9,9.3,10.5,9.4,10.1,9.1z"/>
		<path class="st6" d="M12.3,7.4c0.5,0.1,0.8-0.3,1.1-0.6c0.2-0.2,0.3-0.5,0.7-0.6c-0.2,0.5,0.4,0.9,0.2,1.4c-0.4-0.6-0.7-0.6-1,0
			c-0.3,0.5-0.8,0.9-0.9,1.6c-0.1,0.3-0.4,0.3-0.7,0.4C11.8,8.8,12,8.1,12.3,7.4z"/>
		<path class="st32" d="M9.1,13.4c0.4,0.3,0.6,0.7,0.9,1.1c0.3,0.6,0.2,1.3,0.2,2c0,0.3-0.1,0.6,0.1,0.8c-0.4,0.1-0.5-0.2-0.5-0.5
			c0-0.2,0-0.4,0.1-0.6c0.3-0.7,0-1.3-0.4-1.9C9.4,14,9.2,13.8,9.1,13.4z"/>
		<path class="st38" d="M14.6,10.6c0.2-0.1,0.4-0.1,0.4,0.1c0.1,0.7,0,1.3-0.4,2C14.6,11.9,14.6,11.2,14.6,10.6
			C14.6,10.6,14.6,10.6,14.6,10.6z"/>
		<path class="st39" d="M6.1,11.7c0.1,0,0.3,0,0.4,0c0.3,0.4,0.5,0.8,0.2,1.3c-0.2,0.5,0,1.1-0.3,1.6C6.3,13.6,6.6,12.6,6.1,11.7z"
			/>
		<path class="st6" d="M11.3,7.6c-0.5-0.3-0.8-0.8-1.2-1.2C10.9,6.4,11.1,7,11.3,7.6z"/>
		<path class="st2" d="M11.2,16.5c0,0.5-0.3,0.8-0.8,0.8C10.4,16.7,11,16.7,11.2,16.5z"/>
		<path class="st38" d="M10.1,9.1c0.4,0.1,0.7,0.2,1-0.1c0.1-0.1,0.1-0.1,0.2-0.1C11.1,9.5,10.5,9.5,10.1,9.1z"/>
		<path class="st6" d="M11.4,9c-0.1,0-0.1,0-0.2,0.1c0.2-0.4,0.2-0.9,0.1-1.4C11.7,8.1,11.6,8.5,11.4,9z"/>
		<path class="st8" d="M17.8,20.5c0-0.1,0-0.1,0-0.2c0.5,0,0.7,0.4,0.9,0.7c0.5,0.6,1,0.9,1.8,0.8c-0.5,0.5-1,0.4-1.5-0.1
			c-0.3-0.3-0.6-0.6-1-0.7C18,20.9,17.9,20.7,17.8,20.5z"/>
		<path class="st23" d="M14.1,14.5c0.2,0.9,0.1,1.9,0.3,2.8C13.9,16.4,13.8,15.4,14.1,14.5z"/>
		<path class="st26" d="M66.3,18.2c0,0,0.1-0.1,0.1-0.1c0.4,0,0.8-0.6,1.1,0c0.3,0.5-0.3,0.7-0.5,1c-0.2,0.2-0.4,0.3-0.6,0.5
			c-0.1-0.3-0.2-0.5,0.1-0.8C66.7,18.5,66.6,18.3,66.3,18.2z"/>
		<path class="st22" d="M87.5,24.1c-0.6-0.1-1.3-0.1-1.5-0.9c0.1,0,0.2,0.1,0.3,0.1c1.1,0.5,1.3,0.4,1.4-0.8
			c0.1-0.9,0.5-1.7,0.4-2.6c0-0.1,0-0.2-0.1-0.3c0.4-0.2,0.8-0.5,1.2-0.7c0.3,0.1,0.6,0.3,1,0.3c0.4-0.1,0.4,0.3,0.4,0.6
			c0,1.5-0.6,2.9-2.1,3.7C88.2,23.6,87.8,23.7,87.5,24.1z"/>
		<path class="st31" d="M73.4,18.7c0.6-0.5,0.7-1.3,1.1-1.9c0.7-1.4,1-1.5,2.2-0.5c0,0,0,0.1,0,0.1c-0.3,0.9-0.2,2-0.9,2.8
			c-0.3,0.4-0.2,0.9-0.4,1.3c-0.3,0.6-0.7,0.7-1.2,0.2c-0.3-0.3-0.3-0.8-0.6-1.2C73.5,19.3,73.5,19,73.4,18.7z"/>
		<path class="st40" d="M68.2,16.1c0.4-1,0.3-2.1,0.1-3.2c0.4,0,0.5,0.2,0.5,0.6c0,0.7,0,1.4-0.2,2.1C68.5,15.7,68.3,15.9,68.2,16.1
			z"/>
		<path class="st5" d="M71.4,21.8c-0.1,0-0.2,0-0.3,0c-1.2,0-1.4-0.1-1.5-1.3c0.7,1,0.7,1,1.9,0.7C71.4,21.4,71.4,21.6,71.4,21.8z"
			/>
		<path class="st5" d="M71.8,19c0,0,0,0.1,0,0.1c-0.2,0.6-0.1,1.3-0.4,1.9c0-0.2-0.1-0.4-0.1-0.7C71.3,19.8,71.4,19.4,71.8,19z"/>
		<path class="st32" d="M6.7,13c0-0.3,0-0.6-0.2-0.8c-0.1-0.2-0.2-0.4,0-0.5c0.8,0.5,1.8,0.8,2.4,1.6c-0.4,0.1-0.8,0-1-0.4
			C7.4,12.4,7,12.4,6.7,13z"/>
	</g>
</g>
</svg>
