<?xml version="1.0" encoding="utf-8"?>
<!-- Generator: Adobe Illustrator 20.0.0, SVG Export Plug-In . SVG Version: 6.00 Build 0)  -->
<svg version="1.1" id="Layer_1" xmlns="http://www.w3.org/2000/svg" xmlns:xlink="http://www.w3.org/1999/xlink" x="0px" y="0px"
	 viewBox="0 0 100 30" style="enable-background:new 0 0 100 30;" xml:space="preserve">
<style type="text/css">
	.st0{fill:#919191;}
	.st1{fill:#141414;}
	.st2{fill:#151515;}
	.st3{fill:#181818;}
	.st4{fill:#1D1D1D;}
	.st5{fill:#262626;}
	.st6{fill:#323232;}
	.st7{fill:#292929;}
	.st8{fill:#2B2B2B;}
	.st9{fill:#9B9B9B;}
	.st10{fill:#373737;}
	.st11{fill:#8E8E8E;}
	.st12{fill:#2F2F2F;}
	.st13{fill:#8F8F8F;}
	.st14{fill:#979797;}
	.st15{fill:#A0A0A0;}
	.st16{fill:#626262;}
	.st17{fill:#898989;}
	.st18{fill:#1A1A1A;}
	.st19{fill:#1B1B1B;}
	.st20{fill:#1F1F1F;}
	.st21{fill:#232323;}
	.st22{fill:#252525;}
	.st23{fill:#2A2A2A;}
	.st24{fill:#272727;}
	.st25{fill:#9E9E9E;}
	.st26{fill:#A4A4A4;}
	.st27{fill:#787878;}
	.st28{fill:#363636;}
	.st29{fill:#4A4A4A;}
	.st30{fill:#171717;}
	.st31{fill:#9A9A9A;}
	.st32{fill:#A2A2A2;}
	.st33{fill:#818181;}
	.st34{fill:#A8A8A8;}
	.st35{fill:#9C9C9C;}
	.st36{fill:#A1A1A1;}
	.st37{fill:#949494;}
	.st38{fill:#222222;}
	.st39{fill:#7C7C7C;}
	.st40{fill:#696969;}
</style>
<g id="OexxxI.tif">
	<g>
		<path class="st0" d="M71.2,28.7c0-0.1-0.1-0.2,0-0.2c0.1-0.1,0.2,0,0.2,0c0.1,0.1,0.2,0.1,0.2,0.2C71.5,28.7,71.3,28.7,71.2,28.7z
			"/>
		<path class="st1" d="M28.4,14.4c0.2-0.3,0.2-0.7,0.2-1c0-0.7,0.1-1.4,0.2-2.2c0.3-2,0.9-4,1.9-5.8c0.5-0.8,1-1.7,1.7-2.4
			c0,0,0.1-0.1,0.1,0C33,3.3,33.6,3.4,33.8,4c0.1,0.4,0.3,0.5,0.7,0.4c0.5-0.1,0.7-0.1,0.7,0.5c0,0.1,0,0.1,0,0.2
			c0,0.1,0,0.2,0.1,0.3c0.1,0,0.2,0,0.3,0.1c0.6,0.2,0.7,0.3,0.7,1c0,0.1,0,0.3-0.1,0.4c-0.2,0.3,0.1,0.6,0,0.9
			c-0.3,0.8-0.5,1.7-0.9,2.5c-0.2,0.5-0.3,1-0.3,1.6c-0.1,0.3,0,0.6-0.2,0.8c-0.1,0.5-0.2,0.9-0.3,1.5c0.3-0.2,0.6-0.4,0.8-0.6
			c0.2-0.1,0.4,0,0.5,0.1c0.1,0.2,0.1,0.4-0.1,0.5c-0.1,0.1-0.1,0.2-0.1,0.3c0.1,0.2-0.1,0.3-0.3,0.4c-0.2,0.2-0.6,0.3-0.8,0.7
			c0.4-0.2,0.7-0.5,1-0.7c0.4-0.4,1-0.6,1.3-1.1c0-0.1,0.1-0.2,0.2-0.2c0.2,0,0.4,0.1,0.5,0.2c0.1,0.1,0.2,0.1,0.4,0.1
			c0.4,0.1,0.6,0.3,0.7,0.6c0,0.2,0.1,0.2,0.3,0.2c0.3,0,0.5,0.2,0.6,0.4c0.1,0.2,0.3,0.4,0.5,0.6c0.5,1.7,0.4,3.3-0.9,4.7
			C39,20.6,39,20.7,39,20.8c0.1,0.1,0.2,0.1,0.3,0c0.4-0.2,0.8-0.3,1.1-0.7c1-1.2,2.3-2.1,3.5-3c0.3-0.2,0.6-0.5,0.7-0.9
			c0.2-0.6,0.2-0.6,0.7-0.3c0.1,0.1,0.2,0.1,0.3,0.1c0.5,0.1,0.5,0.1,0.4,0.6c0,0,0,0.1,0,0.1c0.1-0.6,0.3-1.2,0.8-1.7
			c0.2-0.3,0.4-0.3,0.7,0c0.1,0.1,0.2,0.2,0.4,0.2c0,0,0.1,0,0.2,0c0.2,0.4,0.7,0.4,1,0.7c0,0,0.1,0,0.1,0c0.1,0,0.1,0.1,0.1,0.2
			c0.1,0.2,0.2,0.5,0.6,0.4c0,0,0.1,0.1,0.1,0.1c0.5,0.7,0.7,1.4,0.5,2.2c-0.1,0.5-0.3,1.1-0.2,1.8c0.8-0.7,1.7-1.3,1.7-2.5
			c0-0.3,0.1-0.5,0.2-0.8c0.3-0.2,0.6-0.1,0.7,0.3c0.1,0.3,0.5,0.4,0.3,0.7c0,0,0.2,0.2,0.3,0.2c0.2,0,0.2,0,0.3-0.1
			c0.1-0.1,0.1-0.2,0.1-0.2c-0.1,0.3-0.3,0.4-0.6,0.3c0,0-0.1,0-0.1-0.1c0-0.3-0.3-0.6-0.1-0.9c0.2-0.3,0.4-0.7,0.4-1.1
			c0-0.2,0.2-0.4,0.4-0.5c0.3-0.1,0.5-0.3,0.7-0.5c0.3-0.2,0.5-0.5,0.5-0.9c0-0.1,0-0.3,0.1-0.4c0.1-0.6,0.2-0.6,0.8-0.7
			c0,0,0.1,0,0.1,0c0.5-0.4,0.9,0,1.4,0.1c0.2,0.1,0.4,0.1,0.6,0.2c0.1-0.5,0.1-1,0.2-1.5c0.1-0.2,0.1-0.5,0.3-0.5
			c0.1,0,0.2,0,0.2,0c0.1-0.5,0.6-0.8,0.5-1.3c0-0.5,0.3-0.9,0.8-1C60.6,9.3,60.8,9,61,8.7c0.3-0.6,0.4-0.6,0.9-0.1
			c0,0.1,0.1,0.1,0.2,0.2c0.5,0.1,0.8,0.5,1.3,0.7c0.7,0.9,0.8,1.9,0.3,3c0,0.1,0,0.3-0.1,0.4c-0.3,0.7-0.4,1.5-0.5,2.3
			c-0.1,1.1-0.1,2.1-0.4,3.2c0,0.3-0.1,0.5-0.1,0.8c0.1,0.3,0,0.6,0.1,1c0,0.1,0,0.1,0.1,0.2c1.5-1.1,3.1-2.1,4.3-3.5
			c0.1-0.1,0.2-0.1,0.3,0c0.1,0.2,0.3,0.4,0.4,0.7c-0.2,0.4-0.5,0.7-0.6,1c-0.4,0.9-1.1,1.7-1.5,2.6c-0.1,0.4-0.5,0.7-0.6,1.1
			c-0.7,0.2-0.8,0.9-1.1,1.5c-0.1,0.2,0.2,0.4,0,0.6c-0.2,0.3-0.3,0.6-0.7,0.7c-0.1,0.2-0.3,0.4-0.5,0.6c-0.6,0.2-1.2,0.1-1.8,0
			c-0.3-0.1-0.5-0.4-0.6-0.7c-0.4-0.8-0.6-1.7-0.8-2.6c-0.1-0.5-0.2-0.9-0.5-1.2c-0.3-0.4-0.4-0.8-0.5-1.3c0-0.1,0-0.3-0.2-0.4
			c-0.2,0-0.2,0.2-0.3,0.3c-0.4,0.4-0.6,0.9-0.7,1.5c-0.2,0.4-0.5,0.8-0.7,1.3c-0.3,0.7-0.8,1.1-1.6,1.3c-0.1,0-0.3,0.1-0.4,0
			c-0.3-0.3-0.7-0.5-1-0.7c0,0-0.1-0.1-0.1-0.1c-0.1-0.7-0.3-1.3-0.8-1.8c-0.3-0.3-0.3-0.8-0.5-1.3c-0.1,0.5-0.4,0.8-0.3,1.3
			c-0.1,0.5-0.5,0.8-0.6,1.3c-0.1,0.2,0,0.5-0.3,0.6c-0.2,0.1-0.1,0.3-0.2,0.5c-0.2,0.3-0.4,0.5-0.3,0.9c0.1,0.4-0.1,0.9-0.3,1.2
			c-0.2,0.3-0.8,0.4-1,0.2c-0.2-0.1-0.3-0.2-0.6-0.2c-0.1,0-0.2,0-0.2,0c-0.3-0.3-0.8-0.4-1.1-0.8c-0.2-0.3-0.3-0.6-0.7-0.5
			c-0.1,0-0.1-0.1-0.2-0.2c-0.2-0.8-0.5-1.5-1.2-2.1c-0.2-0.2-0.3-0.5-0.4-0.8c0-0.1,0.1,0,0,0c0,0.2,0.2,0.4,0.1,0.6
			c-0.2,0.4-0.2,0.8-0.2,1.1c0,0.3,0,0.6-0.2,0.8c0,0.1-0.1,0.1-0.1,0.2c-0.1,0.5-0.3,0.9-0.7,1.2c-0.1,0.1-0.1,0.2-0.2,0.1
			c-0.3,0.2-0.5,0.5-0.8,0.7c-0.5,0.5-1.7,0.6-2.5,0c-0.4-0.1-0.7-0.4-0.9-0.8c-0.4-0.6-0.8-1.2-1-1.9c-0.1-0.5-0.6-0.9-0.9-1.3
			c-0.1-0.4-0.2-0.7,0.1-1c0.1-0.2-0.1-0.4-0.3-0.4c-0.2,0-0.4,0.1-0.5,0.3c-0.2,0.2-0.5,0.2-0.7,0.1c-0.2-0.1-0.3-0.2-0.3-0.4
			c0.1-0.3-0.1-0.6-0.3-0.7c-0.2-0.2-0.5-0.3-0.7-0.6c0-0.1-0.2,0-0.2-0.1c-0.1-0.1-0.2-0.3-0.3-0.4c0.1,0.5,0.1,1,0.2,1.6
			c0.1,0.4,0,0.9,0,1.3c0,0.1,0,0.2-0.1,0.2c-0.1,0.1-0.3,0.2,0,0.4c0.1,0.1,0.1,0.2,0,0.3c-0.2,0.3-0.2,0.6,0,0.9
			c0.1,0.1,0.2,0.2,0.1,0.4c-0.3,0.4-0.6,0.7-0.9,1.1c-0.1,0.1-0.3,0.2-0.4,0.1c-0.5-0.4-0.9-0.2-1.4-0.1c-0.2,0.1-0.3-0.1-0.4-0.3
			c-0.1-0.2-0.1-0.4,0-0.6c0-0.3,0-0.5-0.2-0.6c0,0.2,0,0.4-0.2,0.5c-0.2,0.1-0.4-0.1-0.4-0.3c0-0.3-0.2-0.4-0.3-0.6
			c-0.2-0.2-0.4-0.5-0.2-0.9c0.1-0.3,0.3-0.7,0-0.9c-0.2-0.3-0.6-0.4-1-0.2c-0.2,0.1-0.3,0-0.3-0.2c0-0.2-0.1-0.4,0-0.5
			c0-0.1-0.1-0.2-0.1-0.3c-0.2-0.1-0.2-0.3-0.3-0.5c-0.1-0.7-0.2-1.5-0.2-2.2c0-0.5-0.1-0.9-0.5-1.3c0-0.2,0.1-0.4-0.1-0.6
			c-0.3-0.4-0.2-0.6,0.3-0.7C28.2,14.4,28.3,14.4,28.4,14.4z"/>
		<path class="st2" d="M72.4,18.1c0,0.3,0.2,0.5,0.1,0.8c-0.1,0.2-0.1,0.3,0.2,0.3c0.1,0,0.3,0,0.4-0.1c0.2-0.1,0.4-0.3,0.6-0.1
			c0.2,0.2,0.4,0.5,0.2,0.8c-0.2,0.3-0.2,0.6-0.7,0.5c-0.2-0.1-0.2,0.2-0.3,0.3c0.3,1,0.5,2,0.5,3.1c0.1,0.7,0,1.3-0.2,1.9
			c-0.2,0.6-0.6,1-1.2,1.1c-0.6,0-1,0.3-1.6,0.4c-0.3,0-0.7,0-1,0.1c-0.2,0-0.4-0.2-0.6-0.3c-0.3-0.2-0.7-0.2-0.6-0.7
			c0-0.1,0-0.1-0.1-0.1c-0.3,0-0.5-0.2-0.7-0.4c-0.2-0.2-0.4-0.4-0.8-0.4c-0.2,0-0.4-0.2-0.4-0.4c-0.1-0.5-0.3-0.9-0.4-1.4
			c0.4-0.5,0.7-1,1-1.6c0.3-0.6,0.8-0.9,1.3-1.2c0.4-0.2,0.7-0.3,1.1-0.5c0.6-0.2,0.6-0.4,0.4-1c-0.2-0.6-0.5-1.3-0.4-2
			c0-0.3,0.1-0.5,0.2-0.8c0.2-0.4,0.1-0.8,0-1.2c0-0.2-0.1-0.4-0.1-0.5c0-0.1,0-0.2,0.1-0.2c0.1,0,0.2,0,0.2,0.1
			c0.3,0.6,0.9,0.9,1.2,1.4c0.3,0.4,0.6,0.8,0.9,1.2C72.2,17.5,72.2,17.8,72.4,18.1z"/>
		<path class="st1" d="M45.7,6.1C46,6.1,46,6.4,46,6.6c0.1,0.3,0.3,0.6,0.5,0.8c0.1,0.1,0.2,0.1,0.2,0.2c0.2,0.5,0.2,0.5,0.7,0.3
			c0.3,0,0.6-0.2,0.9-0.1c0.2-0.2,0.3-0.6,0.7-0.2c0.1,0.1,0.3-0.1,0.5-0.1c1-0.3,1.5-0.1,2,0.8c0,0,0.1,0.1,0.1,0.1
			c0.1,0.7,0,1.3-0.3,1.8c-0.2,0.6-0.8,0.7-1.3,1c-0.2,0.1-0.4,0.3-0.7,0.1c-0.1,0-0.3,0.1-0.4,0.1c-0.5,0.3-1.1,0.3-1.5-0.1
			c-0.3-0.3-0.7-0.1-1-0.3c-0.1-0.1-0.3-0.1-0.5-0.2c-0.4-0.3-0.8-0.1-1.1-0.1c-0.1,0.1-0.2,0.1-0.2,0c0-0.3-0.3-0.1-0.4-0.2
			c-0.5-0.1-0.6-0.4-0.3-0.9c0-0.1,0.1-0.2,0.1-0.3"/>
		<path class="st3" d="M72.9,20.6c-0.1-0.2-0.2-0.4,0-0.6c0.2-0.2,0.3-0.1,0.5,0.1c0.1,0.1,0.1,0.1,0.2,0c0.1-0.2,0.2-0.4,0-0.6
			c-0.1-0.2-0.3-0.2-0.5-0.2c-0.2,0-0.6,0.3-0.6-0.3c0.1,0.3,0.2,0.2,0.4,0.1c0.6-0.6,1.3-1.1,1.7-1.9c0.5-1,1-2.1,1.1-3.2
			c0-0.2,0.1-0.3,0.2-0.4c0.2,0.2,0.3,0.4,0.6,0.5c0.2,0.1,0.4,0.4,0.4,0.7c0.1,0.6,0.2,1.2,0.3,1.9c0,0.1,0,0.2-0.2,0.3
			c0,0.3-0.1,0.6-0.2,0.8c-0.1,0.2-0.3,0.4-0.6,0.4c-0.5,0.1-0.9,0.2-1.2,0.6c-0.2,0.3-0.5,0.6-0.8,0.9C74,20.2,73.4,20.4,72.9,20.6
			z"/>
		<path class="st4" d="M58.8,11.9c-0.1-0.6,0.1-1.1,0.2-1.6c0-0.2,0.1-0.3,0.1-0.5c0.2-0.5,0.3-1.1,0.5-1.6c0-0.2,0.1-0.4,0.1-0.6
			c0-0.1,0-0.2,0-0.3c0.2-0.1,0.2-0.3,0.1-0.5c0-0.1-0.1-0.3,0.1-0.4c0,0,0.1,0,0.1,0c0.4-0.1,0.7,0.1,0.9,0.5
			c0.3,0.2,0.4,0.5,0.6,0.7c0.1,0.1,0.3,0.3,0.4,0.4c0.4,0.1,0.5,0.5,0.7,0.8c0.2,0.2,0.3,0.4,0.5,0.6c0,0.1,0.1,0.1,0.1,0.2
			c-0.3,0-0.6-0.1-0.9-0.3c-0.3-0.2-0.7-0.1-0.9-0.5c-0.1-0.2-0.3,0-0.3,0.1c-0.1,0.6-0.6,0.7-1,0.9c-0.4,0.2-0.6,0.4-0.6,0.8
			c0,0.3,0,0.6-0.3,0.8c-0.1,0.1-0.2,0.3-0.2,0.4C59.2,12.2,59,12.2,58.8,11.9z"/>
		<path class="st4" d="M69.5,17.4c0-0.7-0.1-1.5-0.1-2.2c0-0.3-0.3-0.5-0.5-0.7c-0.2-0.2-0.1-0.4,0-0.6c0.1-0.2,0.2-0.2,0.4-0.1
			c0.1,0.2,0.3,0.3,0.4,0.4c0.3,0.3,0.6,0.6,0.9,0.9l0,0c0.2,0.3,0.4,0.6,0.6,0.9c0.4,0.7,1,1.3,1.2,2.1c-0.2-0.3-0.5-0.5-0.7-0.8
			c-0.2-0.3-0.4-0.6-0.8-0.7c-0.1,0-0.2-0.1-0.2-0.1c0-0.8-0.8-1-1.1-1.6C69.9,15.8,69.7,16.6,69.5,17.4z"/>
		<path class="st5" d="M68.4,15.3c-0.1,0.9-0.5,1.6-1.1,2.2c-0.1-0.3-0.3-0.5-0.3-0.8c0.3-0.5,0.3-1.1,0.5-1.6
			c0.2-0.4,0.4-0.6,0.8-0.8c0.1,0,0.1,0.1,0.2,0.1C68.6,14.8,68.3,15,68.4,15.3z"/>
		<path class="st6" d="M68.2,14.5c-0.1,0.4-0.5,0.4-0.7,0.7c0.3-0.7,0.5-1.5,1.4-1.7c0.2,0.2,0.1,0.5,0.1,0.8c0,0.1-0.1,0.2-0.2,0.2
			C68.5,14.4,68.3,14.4,68.2,14.5z"/>
		<path class="st7" d="M63.1,9.3c-0.2-0.1-0.4-0.3-0.5-0.5c-0.1-0.1-0.1-0.3-0.4-0.1c-0.1,0.1-0.2,0-0.2-0.1
			c0.1-0.4-0.2-0.5-0.5-0.6c-0.1,0-0.1-0.1-0.1-0.2c-0.1-0.1-0.2-0.3,0-0.4c0.2-0.1,0.3,0,0.4,0.2c0.1,0.1,0.3,0.2,0.4,0.4
			C62.5,8.3,62.8,8.8,63.1,9.3z"/>
		<path class="st8" d="M68.2,14.5c0,0,0-0.1,0.1-0.1c0.4-0.2,0.5-0.6,0.6-0.9c0.2,0,0.4,0.1,0.5,0.3C69,14,69,14.4,69.2,14.7
			c0.1,0.2,0.3,0.3,0.2,0.6c-0.2-0.3-0.3-0.5-0.7-0.6C68.6,14.5,68.4,14.7,68.2,14.5C68.3,14.6,68.2,14.5,68.2,14.5z"/>
		<path class="st9" d="M62.6,18.3c0.1-1.1,0.1-2.1,0.4-3.2c0.1,0.3,0,0.6,0,0.8c0,0.6-0.2,1.2-0.2,1.8C62.8,18,62.7,18.2,62.6,18.3z
			"/>
		<path class="st10" d="M62.2,7.8c-0.1-0.1-0.3-0.1-0.4-0.2c-0.2-0.2-0.3-0.1-0.4,0.1c-0.3-0.2-0.3-0.6-0.6-0.8c0-0.1-0.3,0-0.2-0.2
			c0.6,0,1,0.4,1.4,0.8C62.1,7.7,62.2,7.7,62.2,7.8z"/>
		<path class="st11" d="M65.9,4.3C65.9,4.4,65.9,4.4,65.9,4.3c-0.1,0.3-0.3,0.4-0.5,0.4c-0.1,0-0.2-0.1-0.1-0.2
			C65.4,4.3,65.6,4.3,65.9,4.3C65.9,4.3,65.9,4.3,65.9,4.3C65.9,4.3,65.9,4.3,65.9,4.3z"/>
		<path class="st12" d="M70.6,15.1c-0.4-0.1-0.6-0.6-0.9-0.9C70.1,14.4,70.4,14.7,70.6,15.1z"/>
		<path class="st13" d="M63.5,12.8c0-0.1,0.1-0.3,0.1-0.4c0,0.1,0.1,0.2,0.1,0.2c0.1,0.1,0.4,0.1,0.2,0.3
			C63.8,13.1,63.6,13.1,63.5,12.8z"/>
		<path class="st14" d="M58.9,8C58.9,8,58.9,8,58.9,8c0.1-0.2,0-0.4,0.2-0.4c0.1,0,0.1,0,0.1,0.1C59.2,7.9,59,8,58.9,8
			C58.9,8,58.9,8,58.9,8z"/>
		<path class="st15" d="M62.7,20.3c-0.1,0.1-0.2,0-0.2-0.1c-0.1-0.3,0-0.7,0-1C62.7,19.5,62.6,19.9,62.7,20.3z"/>
		<path class="st12" d="M71.2,15.9c-0.2-0.3-0.6-0.5-0.6-0.9C70.9,15.3,71.1,15.6,71.2,15.9z"/>
		<path class="st16" d="M48.3,7.7c-0.3,0-0.6,0.2-0.9,0.1C47.7,7.6,48,7.5,48.3,7.7z"/>
		<path class="st17" d="M78.3,26.5c0.1-0.2,0.2-0.2,0.4-0.2C78.6,26.5,78.5,26.6,78.3,26.5z"/>
		<path class="st18" d="M55.3,12.5c0.3,0.2,0.7,0.3,1.1,0.4c0.7,0.2,1.3,0.5,1.8,1.1c0,0.1,0,0.4-0.2,0.1c-0.4-0.4-0.9-0.5-1.4-0.6
			c-0.2-0.1-0.3,0.1-0.4,0.2c-0.1,0.1-0.2,0.4-0.3,0c-0.1-0.2-0.3,0-0.3,0.1c-0.1,0.2-0.1,0.5-0.1,0.7c0,0.5-0.2,0.8-0.6,1.1
			c-0.1,0.1-0.2,0.1-0.2,0.2c0,0.3-0.2,0.3-0.3,0.2c-0.3-0.1-0.5,0.1-0.5,0.4c0,0.3-0.1,0.6-0.3,0.9c-0.1,0.1-0.2,0.2-0.2,0.4
			c0,0.2,0,0.4,0.2,0.4c0.2,0,0.2-0.2,0.2-0.4c0-0.1,0-0.2,0.1-0.2c0.1,0,0.2,0.1,0.4,0.2c0.1,0.1,0.1,0.2,0.1,0.3
			c-0.1,0.2-0.3,0.4-0.4,0.7c0,0.1-0.1,0.1-0.2,0.1c-0.2-0.3-0.6-0.3-0.6-0.7c0,0,0-0.1,0-0.1c-0.4,0-0.4-0.4-0.5-0.6
			c0,0-0.1,0-0.1,0c-0.2,0-0.3-0.1-0.2-0.2c0.1-0.5,0.1-1.1,0.6-1.5c0.1-0.2,0.2-0.4,0.3-0.7c0.3-0.2,0.3-0.6,0.5-0.9
			c0.3-0.4,0.5-0.9,0.8-1.3c0.2-0.1,0.3-0.3,0.5-0.4C54.9,12.3,55.1,12.3,55.3,12.5z"/>
		<path class="st18" d="M49,16c-0.6,0-1-0.5-1.5-0.7c-0.3-0.1-0.7,0.1-0.8,0.4c0,0,0,0.1,0,0.1c-0.2,0.4-0.5,0.8-0.4,1.3
			c0,0.1-0.2,0.2-0.4,0.2c-0.3,0-0.3-0.3-0.3-0.5c-0.1-0.2,0.1-0.3,0.4-0.5c-0.5,0-0.8-0.1-1.1-0.3c-0.1-0.1-0.2,0.1-0.3,0.2
			c0-0.5,0.2-1.1,0.3-1.6c0.1-0.3,0.2-0.6,0-0.9c-0.1-0.1,0.1-0.2,0.2-0.3c0.2-0.2,0.4,0.1,0.5,0.1c0.3,0,0.6,0.1,0.8,0.3
			c0.2,0.2,0.5,0.2,0.7,0.5c0.2,0.4,0.5,0.5,0.9,0.6l0,0c0.2,0.2,0.4,0.4,0.6,0.6C48.7,15.7,48.8,15.9,49,16z"/>
		<path class="st19" d="M35.1,5C35,4.9,35,4.3,34.6,4.8c-0.1,0.1-0.3-0.1-0.4-0.1c-0.5,0-0.8-0.2-0.7-0.7c0-0.2-0.2-0.4-0.3-0.4
			c-0.5,0.1-0.6-0.3-0.7-0.6c0.2-0.4,0.5-0.5,1-0.3c0.4,0.2,0.9,0.2,1.3,0.4c0.6,0.2,1.1,0.3,1.2,1.1c0,0.4-0.1,0.8-0.6,0.9
			C35.2,5.1,35.2,5.1,35.1,5z"/>
		<path class="st20" d="M40,15.8c-0.3-0.1-0.5-0.3-0.7-0.5c-0.2-0.1-0.4-0.4-0.6,0c-0.1,0.1-0.2,0.1-0.3-0.1c0-0.2-0.1-0.3-0.1-0.5
			c0-0.2-0.1-0.4-0.3-0.4c-0.4-0.1-0.6-0.4-0.9-0.6c-0.1,0-0.2,0-0.2-0.2c0-0.1,0.1-0.1,0.2-0.2c0.4-0.1,0.7,0.1,1,0.2
			c0.2,0,0.4,0.1,0.5,0.2c0.1,0.3,0.3,0.4,0.5,0.6C39.5,14.8,39.8,15.3,40,15.8z"/>
		<path class="st21" d="M35.2,5c0.2-0.3,0.4-0.6,0.6-0.9c0.3,0.4,0.4,0.9,0.5,1.3c0,0.2,0,0.5,0.1,0.7c0,0.1,0,0.2-0.2,0.2
			C36.1,6,36,5.7,35.5,5.8c-0.2,0.1-0.3-0.1-0.3-0.3C35.4,5.3,35.1,5.1,35.2,5z"/>
		<path class="st22" d="M55.3,12.5c-0.5,0-0.6,0.4-0.9,0.6c-0.3,0-0.3,0.3-0.4,0.5c-0.2,0.2-0.3,0.5-0.4,0.8
			c-0.1,0.2-0.2,0.4-0.2,0.7c0,0.1,0,0.3-0.1,0.3c-0.2,0-0.2-0.2-0.3-0.3c0.2-0.9,0.8-1.6,1.2-2.3c0.1-0.1,0.2-0.2,0.3-0.3
			C54.7,12.2,55,12.2,55.3,12.5z"/>
		<path class="st23" d="M38.2,13.7c-0.2,0-0.4,0.1-0.6-0.1c-0.2-0.1-0.3,0-0.4,0.2c0,0.1-0.1,0.1-0.1,0.2c-0.2,0-0.4,0.2-0.5,0.2
			c-0.1,0.1-0.2,0.2-0.4,0.1C36,14.1,35.9,14,36,13.9c0.1-0.2,0-0.4-0.1-0.6C36.7,13,37.5,13.3,38.2,13.7z"/>
		<path class="st19" d="M35.9,13.2c0.2,0,0.4,0.1,0.7,0.1c-0.2,0.2-0.4,0.5-0.4,0.8c0.2,0.3-0.1,0.4-0.3,0.5c-0.2,0.1-0.3,0.2-0.5,0
			c0-0.1,0.1-0.3,0.1-0.4c0.2-0.3,0.1-0.5-0.2-0.6C35.5,13.4,35.7,13.3,35.9,13.2z"/>
		<path class="st24" d="M48,14.9c-0.4,0.2-0.8-0.2-0.9-0.6C47.4,14.5,47.7,14.7,48,14.9z"/>
		<path class="st25" d="M34.8,12.6c0-0.3,0-0.6,0.2-0.8c0.2,0.4-0.1,0.7,0.1,1.1C34.9,12.9,34.9,12.7,34.8,12.6z"/>
		<path class="st18" d="M49.3,16.2c0.2,0.2,0.3,0.5,0.5,0.7c-0.7,0.1-0.6-0.5-0.7-0.8C49.1,16.1,49.2,16.1,49.3,16.2z"/>
		<path class="st26" d="M36.2,6.4c0.2-0.3-0.1-0.6,0.1-0.9c0.1,0.5,0.3,0.9-0.1,1.3C36.2,6.6,36.2,6.5,36.2,6.4z"/>
		<path class="st27" d="M44.4,10.3c0.3-0.1,0.4,0.2,0.6,0.2c0,0.1,0,0.3-0.1,0.4C44.7,10.7,44.7,10.5,44.4,10.3z"/>
		<path class="st28" d="M39.2,14.4c-0.4,0-0.6-0.2-0.5-0.6C39,13.9,39.1,14.1,39.2,14.4z"/>
		<path class="st24" d="M48.6,15.5c-0.3,0-0.5-0.3-0.6-0.6C48.2,15.1,48.4,15.3,48.6,15.5z"/>
		<path class="st0" d="M56.9,2.4C57,2.6,57,2.7,56.9,2.7c-0.1,0-0.1,0-0.1,0C56.7,2.6,56.8,2.5,56.9,2.4z"/>
		<path class="st29" d="M46.4,13.8c-0.3,0-0.6-0.2-0.8-0.3C45.9,13.6,46.2,13.5,46.4,13.8z"/>
		<path class="st30" d="M29,19.9c0,0.3-0.1,0.6,0.5,0.3c0.4-0.3,1.1,0.4,1.1,1c0,0.2,0,0.4-0.1,0.6c-0.1,0.3,0,0.6,0.3,0.8
			c0.3,0.2,0.2,0.5,0.3,0.9c0.1-0.3,0.2-0.5,0.3-0.7c0-0.1,0.1-0.1,0.2-0.1c0.1,0,0.1,0.1,0.1,0.2c0,0,0,0.1,0,0.1
			c0.5,0.3,0.3,0.8,0.2,1.2c0,0.1,0,0.3,0.1,0.3c0.2,0.1,0.2-0.1,0.3-0.2c0.1-0.2,0.2-0.1,0.4,0c0.1,0.2,0.3,0.2,0.4,0
			c0.1-0.1,0.1-0.3,0.3-0.3c0.2,0,0.2,0.3,0.2,0.4c0,0,0,0.1,0.1,0.2c0.4-0.3,0.6-0.6,0.9-1c0-0.1,0.1-0.1,0-0.2
			c-0.4-0.4-0.1-0.7,0-1.1c-0.1-0.1-0.4,0.1-0.4-0.1c0-0.3,0.2-0.5,0.5-0.6c0.3,0.1,0.3,0.4,0.3,0.7c0,0.2,0,0.4,0.1,0.6
			c0,0.8,0,1.6,0,2.3c0,0.3-0.2,0.5-0.3,0.7c-0.3,0.1-0.5,0.3-0.8,0.4c-0.3-0.2-0.6-0.2-0.9-0.2c-0.3,0-0.5-0.1-0.7-0.3
			c-0.2-0.3-0.6-0.4-0.8-0.6c-0.8-0.5-1.1-1.4-1.7-2.1c-0.1-0.1-0.1-0.3-0.2-0.3c-0.5-0.3-0.4-0.8-0.3-1.3c0.2,0,0.2-0.1,0.1-0.2
			c-0.1-0.2-0.1-0.5-0.2-0.7c0-0.1-0.1-0.2-0.1-0.3C28.9,20.3,28.9,20.1,29,19.9z"/>
		<path class="st19" d="M28.1,15.6c-0.7-0.2-1.1-0.8-1.5-1.3c0,0-0.1-0.1-0.1-0.1c0-0.2-0.2-0.4-0.3-0.6c-0.1-0.2-0.2-0.5,0-0.7
			c0.3-0.2,0.5,0.1,0.7,0.2c0.1,0.1,0.2,0.2,0.3,0.3c0.3,0,0.3,0.2,0.2,0.4c0.2,0.3,0.5,0.7,1,0.6c-0.3,0.2-0.6,0.3-0.2,0.7
			C28.3,15.2,28.1,15.4,28.1,15.6z"/>
		<path class="st31" d="M26.3,15.6c0,0.1-0.1,0.1-0.2,0.1c-0.1,0-0.2,0-0.1-0.1c0-0.1,0.1-0.1,0.2-0.1
			C26.2,15.5,26.3,15.5,26.3,15.6z"/>
		<path class="st5" d="M31.4,25.4c0.4-0.1,0.6,0.2,0.9,0.4c0.2,0.2,0.5,0.4,0.8,0.3c0.4,0,0.6,0.1,0.7,0.5
			C32.8,26.8,31.9,26.3,31.4,25.4z"/>
		<path class="st32" d="M34.8,23.2c0,0.3,0,0.5,0.2,0.8c0,0.6,0,1.1-0.1,1.6c0,0.2-0.1,0.4-0.3,0.5c0.3-0.7,0.3-1.5,0.2-2.3
			c0-0.3-0.1-0.5,0-0.8C34.9,23,34.9,23.1,34.8,23.2z"/>
		<path class="st1" d="M29,20.8c0.4,0.2,0.3,0.6,0.4,0.9c0,0.1,0,0.2-0.1,0.3c-0.2,0-0.1-0.2-0.2-0.3C29,21.4,29,21.1,29,20.8z"/>
		<path class="st25" d="M27.8,22.8c0-0.1,0-0.2,0.1-0.3c0.1-0.1,0.2-0.1,0.4,0c0.1,0,0.2,0.1,0.1,0.2c0,0.2-0.2,0.1-0.3,0.1
			C28,22.8,27.9,22.8,27.8,22.8C27.8,22.8,27.8,22.8,27.8,22.8z"/>
		<path class="st18" d="M49.5,26.6c-0.5-0.1-0.9-0.1-1.2-0.5c0-0.2-0.2-0.3-0.4-0.3c-0.2-0.1-0.3-0.2-0.4-0.3c0-0.1,0-0.2-0.1-0.2
			c-0.3-0.4-0.6-0.8-0.7-1.4c0.4,0.1,0.8,0.3,0.9,0.8c0,0,0,0,0,0c0.5-0.1,0.6,0.6,1.1,0.6c0.2,0,0.5,0,0.7,0.3
			c0.2,0.2,0.5,0.1,0.6-0.2c0.2-0.4,0.4-0.8,0.1-1.3c-0.1-0.2-0.1-0.3,0.2-0.4c0.2-0.1,0.4-0.1,0.6-0.2c0,0.3,0,0.7,0,1
			c0,0.2,0.1,0.3,0.2,0.4c0,0.2,0.3,0.4-0.1,0.6c0,0,0,0.1,0,0.1c0,0.2,0.1,0.4-0.2,0.5c-0.1,0-0.1,0.1-0.2,0.1
			C50.2,26.5,49.9,26.6,49.5,26.6z"/>
		<path class="st4" d="M53.6,23c0.2-0.1,0.4-0.1,0.6,0.1c0.7,0.7,1.7,0.5,2.1-0.4c0.2-0.5,0.5-1,0.9-1.4c0,0,0,0,0.1,0
			c0.1,0.4-0.3,0.6-0.3,0.9c-0.1,0.2-0.1,0.5-0.3,0.7c-0.3,0.4-0.4,0.7-0.4,1.2c0,0.2,0,0.3-0.2,0.3c-0.2,0.1-0.3,0.2-0.5,0.3
			c-0.3,0.2-0.6,0-0.9,0.1c-0.4-0.3-0.8-0.6-0.9-1.1C53.5,23.5,53.5,23.3,53.6,23z"/>
		<path class="st23" d="M54.6,24.8c0.1-0.1,0.1-0.2,0.2-0.2c0.4,0,0.6-0.4,1-0.5c0.2,0,0.2-0.2,0.3-0.4c0.1-0.3,0.2-0.7,0.6-0.9
			c-0.1,0.5-0.3,0.9-0.3,1.4c0,0.4-0.4,0.6-1,0.6C55.1,25,54.8,25,54.6,24.8z"/>
		<path class="st20" d="M60.9,25.6c0.6-0.2,1.2-0.3,1.8,0C62.1,26.1,61.5,25.9,60.9,25.6z"/>
		<path class="st25" d="M51.3,22.4c0.1-0.5,0.5-0.8,0.7-1.2c0.1,0.2,0,0.4-0.1,0.5c-0.2,0.3-0.3,0.7-0.4,1
			C51.2,22.7,51.3,22.5,51.3,22.4z"/>
		<path class="st4" d="M57.2,21.2c0.2-0.5,0.3-1.1,0.8-1.4c-0.2,0.4-0.4,0.7-0.5,1.1C57.3,21,57.4,21.3,57.2,21.2L57.2,21.2z"/>
		<path class="st14" d="M51,25.6c0-0.2-0.1-0.4,0.1-0.6c0.1,0,0.2,0.2,0.2,0.2c0.1,0.1,0.2,0.2,0.1,0.4C51.2,25.7,51.1,25.6,51,25.6
			z"/>
		<path class="st22" d="M57.2,21.2c0.1-0.1,0.2-0.2,0.2-0.3c-0.1,0.4-0.1,0.9-0.5,1.2C56.9,21.8,57.2,21.6,57.2,21.2z"/>
		<path class="st33" d="M53.6,23c0.1,0.2,0.1,0.5,0.2,0.7c-0.1,0-0.3,0.2-0.4,0.1c-0.1-0.2,0.1-0.3,0.1-0.4
			C53.4,23.3,53.5,23.1,53.6,23C53.5,23,53.5,23,53.6,23z"/>
		<path class="st14" d="M53.2,24.5c0,0.2,0,0.4-0.2,0.5c-0.1,0-0.1,0-0.1-0.1C52.9,24.8,52.9,24.6,53.2,24.5z"/>
		<path class="st34" d="M51.3,22.4c0,0.1,0.1,0.2,0.1,0.4c0,0.2-0.1,0.4-0.3,0.3C51.1,22.8,51.2,22.6,51.3,22.4z"/>
		<path class="st14" d="M52.6,25.7c0-0.2,0.1-0.2,0.2-0.3c0,0,0.1,0,0.1,0.1C52.8,25.6,52.7,25.7,52.6,25.7z"/>
		<path class="st14" d="M50.7,26.1c0.1-0.2,0.2-0.3,0.2-0.5c0,0.1,0.1,0.3,0.1,0.4C50.9,26.2,50.8,26.3,50.7,26.1z"/>
		<path class="st35" d="M44.7,21.5c0.2,0.2,0.3,0.5,0.2,0.8c0,0.3,0.1,0.7,0.1,1c-0.1,0.1-0.2,0.3-0.3,0.3c0-0.5,0-1,0-1.4
			C44.8,22,44.5,21.8,44.7,21.5z"/>
		<path class="st36" d="M43.7,25.2c0.3-0.4,0.7-0.7,0.8-1.2c0,0,0.1-0.1,0.1-0.1c0,0.3-0.1,0.6-0.2,0.8c0,0,0,0,0,0.1c0,0,0,0,0,0
			C44.2,24.9,44.1,25.3,43.7,25.2z"/>
		<path class="st37" d="M44.4,24.8C44.4,24.8,44.4,24.8,44.4,24.8c0.1-0.1,0.1-0.2,0.2-0.2c0.1-0.1,0.2-0.2,0.3-0.2
			c0,0,0.1,0.1,0.1,0.1c0,0.2-0.1,0.2-0.3,0.3C44.6,24.8,44.5,24.8,44.4,24.8z"/>
		<path class="st31" d="M42.2,27.2c0.3-0.1,0.4,0.1,0.5,0.2c0,0,0,0.1,0,0.1C42.4,27.5,42.4,27.4,42.2,27.2z"/>
		<path class="st25" d="M24.4,12.1c0.1,0.2,0.1,0.4-0.1,0.5c-0.1,0.1-0.2,0.1-0.3,0c-0.1-0.1,0-0.2,0.1-0.2
			C24.3,12.4,24.2,12.2,24.4,12.1z"/>
		<path class="st34" d="M27.4,13.7c-0.1-0.1-0.2-0.2-0.2-0.4c0.1-0.1,0.2-0.2,0.3,0C27.6,13.4,27.5,13.6,27.4,13.7z"/>
		<path class="st25" d="M24.1,13.8c0.2-0.1,0.2-0.4,0.5-0.4C24.4,13.6,24.5,14,24.1,13.8L24.1,13.8z"/>
		<path class="st19" d="M38,21.9c-0.1-0.1-0.2-0.2-0.4-0.1c-1.8,0.5-2.2-0.5-2.5-1.7c-0.1-0.3-0.2-0.7-0.2-1
			c0.6,0.2,1.1,0.6,1.6,0.9c0.1,0.1,0,0.2,0,0.4c0,0.2-0.2,0.3,0,0.4c0.2,0.1,0.3,0,0.4-0.1c0.1-0.1,0.3-0.2,0.4-0.3
			c0.2-0.1,0.4-0.1,0.5,0c0.2,0.2,0.4,0.3,0.6,0.4c0.2,0.1,0.2,0.2,0,0.3C37.9,21.1,37.9,21.5,38,21.9z"/>
		<path class="st20" d="M64.7,22.1c-0.3,0.8-0.4,1.6-1.2,2.2C63.6,23.4,63.9,22.6,64.7,22.1z"/>
		<path class="st36" d="M34.5,18.2c0.1,0.9,0.1,1.8,0.3,2.6c0.1,0.2,0,0.5-0.1,0.7c0,0-0.1,0-0.1,0c-0.1-1.1-0.2-2.2-0.3-3.3
			c0-0.1-0.1-0.2,0.1-0.2C34.4,18,34.5,18.1,34.5,18.2z"/>
		<path class="st31" d="M34.6,21.6C34.6,21.5,34.7,21.5,34.6,21.6c0.2,0.6,0.4,1.1,0.3,1.7c0-0.1-0.1-0.1-0.1-0.2
			c-0.1-0.4,0-0.9-0.2-1.3C34.6,21.7,34.6,21.6,34.6,21.6z"/>
		<path class="st14" d="M35.2,5c0.1,0.1,0.2,0.2,0.2,0.3c0,0.2-0.1,0.3-0.3,0.1C35.2,5.3,35.1,5.2,35.2,5C35.2,5,35.2,5,35.2,5z"/>
		<path class="st38" d="M69,26.8c-0.2,0-0.4,0-0.5-0.2c-0.4-0.4-0.9-0.5-1.3-0.6c-0.8-0.2-1.4-0.9-1.5-1.8c0-0.3,0.2-0.5,0.4-0.8
			c0.1,0.4,0.4,0.7,0.4,1.2c0,0.1,0.1,0.3,0.2,0.3c0.5,0,0.7,0.4,1.1,0.6C68.3,25.9,68.5,26.5,69,26.8z"/>
		<path class="st39" d="M68,23.3c0.2,0,0.3,0,0.4,0.2c-0.2-0.1-0.3-0.2-0.4,0.1c-0.1,0.2-0.4,0.3-0.7,0.3
			C67.4,23.6,67.7,23.4,68,23.3z"/>
		<path class="st6" d="M68.3,14.6c0.2-0.1,0.3-0.2,0.5,0c-0.2,0.2-0.3,0.5-0.4,0.7C68.3,15.1,68.3,14.8,68.3,14.6z"/>
		<path class="st14" d="M58.4,9.1c0-0.2-0.1-0.4-0.1-0.5c0.3,0,0.3,0.3,0.4,0.4c0,0,0,0,0,0C58.5,9,58.4,9,58.4,9.1z"/>
		<path class="st14" d="M55.6,11.9c0.1,0,0.1,0.1,0.1,0.1c0,0.1,0,0.1-0.1,0.1c-0.1,0-0.1,0-0.1-0.1C55.5,12,55.6,12,55.6,11.9z"/>
		<path class="st0" d="M50.7,6.3c0,0.1-0.1,0.2-0.2,0.1c-0.2,0-0.4-0.1-0.4-0.3c-0.1-0.1-0.1-0.3,0-0.3c0.1-0.1,0.2,0,0.3,0.1
			C50.4,6.2,50.6,6.2,50.7,6.3z"/>
		<path class="st23" d="M59.8,7.3c-0.2-0.3,0-0.6,0.2-0.8c0,0.2,0,0.3,0,0.5C60.1,7.2,60,7.3,59.8,7.3z"/>
		<path class="st23" d="M60.1,6.5c0,0,0.1-0.1,0.1-0.1c0.1,0.1,0.3,0.3,0.4,0.4c0.1,0.1,0.1,0.1,0.2,0.2C60.5,6.9,60.4,6.6,60.1,6.5
			z"/>
		<path class="st40" d="M53.5,14.4c0.1-0.4,0.3-0.7,0.5-1c0.1-0.1,0.2-0.3,0.3-0.2C54.1,13.5,53.9,14,53.5,14.4z"/>
		<path class="st1" d="M30.3,21.3c0,0.1,0,0.2-0.1,0.3c-0.1,0-0.1-0.1-0.1-0.1c0-0.1,0-0.2,0.1-0.3C30.2,21.1,30.3,21.2,30.3,21.3z"
			/>
		<path class="st14" d="M49.5,26.6c0.3-0.2,0.7-0.1,1-0.3C50.3,26.7,49.9,26.7,49.5,26.6z"/>
		<path class="st1" d="M47.9,25.8c0.3-0.1,0.4-0.1,0.4,0.3C48.2,26,48.1,25.9,47.9,25.8z"/>
		<path class="st1" d="M47.5,25.3c0.1-0.1,0.2-0.2,0.3,0c0.1,0.2-0.1,0.2-0.2,0.2C47.5,25.4,47.5,25.3,47.5,25.3z"/>
	</g>
</g>
</svg>
