<?xml version="1.0" encoding="utf-8"?>
<!-- Generator: Adobe Illustrator 20.0.0, SVG Export Plug-In . SVG Version: 6.00 Build 0)  -->
<svg version="1.1" id="Layer_1" xmlns="http://www.w3.org/2000/svg" xmlns:xlink="http://www.w3.org/1999/xlink" x="0px" y="0px"
	 viewBox="0 0 100 30" style="enable-background:new 0 0 100 30;" xml:space="preserve">
<style type="text/css">
	.st0{fill:#181818;}
	.st1{fill:#212121;}
	.st2{fill:#202020;}
	.st3{fill:#222222;}
	.st4{fill:#1E1E1E;}
	.st5{fill:#2C2C2C;}
	.st6{fill:#292929;}
	.st7{fill:#393939;}
	.st8{fill:#313131;}
	.st9{fill:#363636;}
	.st10{fill:#878787;}
	.st11{fill:#787878;}
	.st12{fill:#484848;}
	.st13{fill:#4C4C4C;}
	.st14{fill:#747474;}
	.st15{fill:#8D8D8D;}
	.st16{fill:#171717;}
	.st17{fill:#1C1C1C;}
	.st18{fill:#242424;}
	.st19{fill:#1F1F1F;}
	.st20{fill:#1D1D1D;}
	.st21{fill:#252525;}
	.st22{fill:#232323;}
	.st23{fill:#333333;}
	.st24{fill:#3B3B3B;}
	.st25{fill:#3F3F3F;}
	.st26{fill:#323232;}
	.st27{fill:#343434;}
	.st28{fill:#272727;}
	.st29{fill:#2F2F2F;}
	.st30{fill:#424242;}
	.st31{fill:#2E2E2E;}
	.st32{fill:#464646;}
	.st33{fill:#4B4B4B;}
	.st34{fill:#3E3E3E;}
	.st35{fill:#8B8B8B;}
	.st36{fill:#151515;}
	.st37{fill:#979797;}
	.st38{fill:#969696;}
	.st39{fill:#9C9C9C;}
	.st40{fill:#454545;}
	.st41{fill:#555555;}
	.st42{fill:#6E6E6E;}
	.st43{fill:#191919;}
	.st44{fill:#9F9F9F;}
	.st45{fill:#303030;}
	.st46{fill:#282828;}
	.st47{fill:#5C5C5C;}
	.st48{fill:#9B9B9B;}
	.st49{fill:#2D2D2D;}
	.st50{fill:#2A2A2A;}
	.st51{fill:#161616;}
	.st52{fill:#6F6F6F;}
	.st53{fill:#3A3A3A;}
	.st54{fill:#9D9D9D;}
	.st55{fill:#414141;}
	.st56{fill:#5D5D5D;}
	.st57{fill:#868686;}
	.st58{fill:#9A9A9A;}
	.st59{fill:#262626;}
	.st60{fill:#353535;}
	.st61{fill:#434343;}
</style>
<g id="q72gjD.tif">
	<g>
		<path class="st0" d="M62.1,9.7c0.3,0.5,0.7,1.1,0.4,1.7c-0.3,0.9-0.3,1.9-0.2,2.8c0,0.3,0.1,0.6,0.1,0.9c0,0.1,0,0.2,0.1,0.3
			c0.1,0,0.2-0.1,0.3-0.1c0.4-0.5,0.8-1,1.1-1.6c0.1-0.2,0.2-0.3,0.2-0.5c0.2-0.1,0.3,0,0.3,0.2c0,0.1,0,0.2,0,0.2
			c0.4,0.9-0.2,1.5-0.5,2.3c-0.1,0.2-0.2,0.3-0.3,0.4c-0.1,0.2,0,0.2,0.1,0.3c0.1,0.1,0,0.2-0.1,0.3c-0.3,0.4-0.5,0.8-0.6,1.2
			c-0.1,0.2-0.2,0.4-0.3,0.5c-0.1,0.1-0.2,0.2-0.3,0.1c-0.4-0.2-0.9-0.2-1.2-0.6c-0.1-0.2-0.3-0.5-0.6-0.4c-0.1,0-0.2-0.2-0.3-0.3
			c-0.1-0.3-0.4-0.5-0.6-0.9c0.3-0.7,0.4-1.2-0.3-1.8c-0.1-0.1-0.2-0.2-0.1-0.2c0.2-0.3-0.1-0.6-0.2-0.9c0-0.1-0.1-0.2-0.1-0.2
			c0.2-0.2,0-0.3-0.1-0.4c-0.2-0.2-0.2-0.4,0-0.6c0.3-0.3,0.4-0.8,0.2-1.2c0-0.1,0-0.2,0-0.4c0.3-0.4,0.4-0.9,0.4-1.5
			c0-0.4,0.1-0.5,0.5-0.4c0.1,0,0.3,0,0.4,0c0.5-0.1,0.9-0.1,1.2,0.4C61.9,9.7,62,9.6,62.1,9.7z"/>
		<path class="st0" d="M75.7,11.3c0.3,0.4,0.3,0.8,0.2,1.2c-0.1,0.9-0.3,1.7-0.4,2.6c-0.1,0.7-0.1,1.3,0,2c0,0.3,0.1,0.3,0.3,0.1
			c0.4-0.3,0.7-0.6,1.1-0.9c0.2-0.1,0.3,0,0.3,0.2c0,0.7-0.4,1.3-0.8,1.8c-0.1,0.1-0.2,0.2-0.3,0.3c-0.1,0-0.1,0-0.2,0
			c-0.2,0.1-0.4,0.3-0.4,0.6c-0.1,0.3-0.5,0.4-0.6,0.7c0,0.1-0.2,0-0.2,0c-0.4-0.1-0.7-0.4-1.1-0.6c-0.1-0.1-0.1-0.4-0.4-0.3
			c-0.3-0.4-0.7-0.8-1-1.3c0.3-0.7,0.2-1.4,0-2.1c0-0.1-0.1-0.3-0.1-0.4c0.1-0.2,0-0.5-0.1-0.7c-0.1-0.2,0-0.3,0.1-0.5
			c0.2-0.4,0.5-0.8,0.4-1.3c0-0.3,0.1-0.5,0.5-0.5c0,0,0,0,0,0c-0.1-0.4,0.1-0.9,0.1-1.3c0-0.2,0.3-0.3,0.5-0.3
			c0.5-0.1,1-0.1,1.5,0.2C75.3,11,75.6,11.1,75.7,11.3z"/>
		<path class="st0" d="M69.5,10.6c0.2,0.3,0.2,0.6,0.1,0.9c-0.1,0.5,0.1,1,0,1.5c0.3-0.3,0.3-0.7,0.6-0.9c0.4-0.1,0.5,0.2,0.7,0.4
			c0.1,0.1,0.1,0.3,0,0.4c-0.1,0.1-0.1,0.3-0.2,0.4c-0.4,0.6-0.7,1.3-1,1.9c0,0.3-0.2,0.5-0.2,0.8c0,0.1-0.1,0.2-0.1,0.2
			c-0.4,0.1-0.2,0.4-0.1,0.6c0,0.1,0.1,0.2,0.1,0.3c0.1,0.2-0.1,0.5-0.3,0.4c-0.5-0.1-0.7,0.2-0.9,0.4c-0.2,0.2-0.4,0.2-0.6,0
			c0-0.1-0.1-0.1-0.2-0.1c-0.6-0.2-0.7-0.6-0.3-1.1c0.1-0.2,0.2-0.4,0.1-0.6c-0.1-0.2-0.1-0.4,0-0.6c0.1-0.3,0.1-0.7,0.1-1
			c0-0.1,0-0.3-0.1-0.3C67,14,67,13.7,66.9,13.4c0,0,0-0.1,0-0.1c0.2-0.2,0.1-0.4,0-0.5c0-0.3,0.1-0.4,0.1-0.7
			c0-0.2,0.1-0.3,0.1-0.4c0.1-0.2,0.2-0.5,0.1-0.7c-0.1-0.3,0.3-1,0.5-1.1c0.2-0.1,0.9,0,1.2,0.3C69.1,10.3,69.3,10.5,69.5,10.6z"/>
		<path class="st1" d="M70.7,13.4c0.4-0.6,0-0.9-0.4-1.2c0.3-0.6,0.6-1.2,0.9-1.7c0.4-0.1,0.6-0.5,0.9-0.8c0.1-0.1,0-0.4,0.3-0.2
			l0,0c0.2,0.2,0.4,0.3,0.7,0.3c0.1,0,0.2,0,0.2,0.1c0.3,0.3,0.6,0.3,1,0.4c0.2,0.2,0.5,0.3,0.7,0.4c0.1,0.1,0.3,0,0.2,0.2
			c-0.2,0-0.4,0-0.5-0.1c0,0-0.1,0-0.1,0c-0.2,0.4-0.5,0-0.8,0.1c-0.3,0-0.5,0.2-0.5,0.5c0,0.5-0.1,0.9-0.1,1.4
			c-0.1,0-0.1-0.1-0.1-0.1c0-0.1-0.1-0.2-0.2-0.1c-0.1,0-0.1,0.1-0.1,0.2c0,0.1,0.2,0.2,0.1,0.4c-0.2,0.3-0.4,0.5-0.3,0.8
			c0,0,0,0.1-0.1,0.1c-0.5,0.2-0.2,0.6-0.1,0.9c0,0.1,0.1,0.3,0,0.4c-0.1,0.1,0,0.1,0,0.2c0.4,0.4,0.2,0.9,0.3,1.4
			c0.1,0.3-0.1,0.6-0.3,0.9c-0.3,0.1-0.4-0.2-0.5-0.4c-0.3-0.9-0.6-1.8-0.5-2.7c0-0.5,0-0.9,0-1.4c0-0.2,0.1-0.5,0.1-0.7
			c-0.1,0-0.2,0-0.1,0.2c0.1,0.1,0.1,0.3,0,0.4c0,0,0,0.1,0,0.1c-0.2,0.1-0.4,0.3-0.6,0.3C70.7,13.5,70.7,13.4,70.7,13.4z"/>
		<path class="st2" d="M62.1,9.7c-0.2,0.1-0.3,0.1-0.5-0.1c-0.3-0.3-0.6-0.4-1-0.2c-0.1,0.1-0.3,0.2-0.4,0.1c-0.3-0.2-0.3,0-0.3,0.2
			c0,0.3,0,0.5-0.1,0.7c0,0.1-0.1,0.2,0,0.3c0.1,0.2,0.1,0.3-0.2,0.4c-0.1,0.1-0.2,0.2-0.1,0.3c0.2,0.4,0,0.8-0.2,1.1
			c-0.2,0.4-0.2,0.5,0.2,0.7c0.1,0.1,0.2,0.1,0.2,0.3c0,0.1-0.1,0.1-0.4,0.1c0.1,0.1,0,0.4,0.3,0.4c0.2,0,0.1,0.3,0,0.4
			c-0.1,0.2-0.1,0.3,0.1,0.5c0.6,0.4,0.6,0.9,0.3,1.6c0,0.1-0.1,0.1-0.1,0.2c-0.1,0.2-0.2,0.1-0.3,0c-0.3-0.3-0.4-0.7-0.6-1
			c-0.2-0.4-0.3-0.7-0.4-1.1c0-0.2-0.1-0.4-0.2-0.7c-0.1-0.3,0-0.6,0-0.9c0.1-0.8,0-1.6-0.1-2.5c0-0.3,0.1-0.6,0.5-0.6
			c0.1,0,0.1-0.1,0.1-0.2c-0.1-0.2-0.2-0.5-0.3-0.7c-0.1-0.2-0.1-0.4,0-0.6c0.1-0.2,0.2-0.4,0.3-0.5c0.1,0,0.2-0.1,0.3,0
			c0.4,0.3,0.9,0.3,1.3,0.5c0.1,0,0.2,0.1,0.3,0.1C61.4,8.8,61.8,9.2,62.1,9.7z"/>
		<path class="st3" d="M84.2,16.8c0,0.1,0,0.2,0,0.4c0.2,0.2,0.1,0.4,0,0.6c-0.1,0.1-0.3,0.1-0.3,0c-0.1-0.3-0.3-0.5-0.2-0.9
			c0.1-0.4-0.3-0.8-0.4-1.2c0-0.1-0.2-0.3-0.1-0.4c-0.6,0.2-0.7,0.8-0.5,1.4c0,0.2,0.1,0.4-0.2,0.6c-0.1,0.1-0.1,0.2-0.1,0.3
			c0,0.2-0.1,0.3-0.3,0.3C81.8,17.6,82,17.3,82,17c0-0.2,0-0.3-0.1-0.4c-0.1-0.1-0.2-0.2-0.2-0.4c0-0.1,0-0.2,0-0.3
			c0-0.1,0.1-0.1,0.1-0.1c0.1,0,0.2,0.1,0.3-0.1c0-0.1-0.1-0.2-0.2-0.2c0,0-0.1-0.1-0.1-0.1c0-0.1,0-0.3,0.1-0.4
			c0.1-0.2,0.3,0,0.3-0.3c0-0.3,0-0.5-0.3-0.6c-0.2-0.1-0.4-0.2-0.6-0.3c-0.1,0-0.2-0.1-0.2-0.2c0-0.1-0.1-0.4,0.2-0.4
			c0.2-0.1,0.5-0.1,0.5-0.4c0-0.2-0.2-0.4-0.4-0.6c0,0,0,0,0,0c0-0.2,0.1-0.4,0.1-0.6c0-0.2,0.1-0.4,0.2-0.6
			c0.1-0.1,0.2-0.2,0.4-0.1c0.2,0.1,0.3,0.2,0.2,0.4c0.5-0.3,0.7-0.2,1,0.2c0.1,0.2,0.3,0.3,0.5,0.3c0.4,0.5,0.3,1.1,0.4,1.7
			c0,0.2,0,0.3,0,0.5c-0.1,0.6-0.1,1.3,0.1,1.9C84.3,16.2,84.3,16.5,84.2,16.8z"/>
		<path class="st1" d="M69.5,10.6c-0.1,0.1-0.2,0.1-0.3,0.2c-0.2-0.3-0.3-0.7-0.8-0.6c0,0-0.1,0-0.1,0c-0.1-0.2-0.3-0.3-0.4-0.1
			c-0.2,0.2-0.5,0.4-0.4,0.7c0,0.2,0,0.3,0.1,0.5c0,0,0,0.2,0,0.2c-0.5,0.2-0.2,0.8-0.5,1.1c-0.1,0.2-0.2,0.4,0.1,0.4
			c0.1,0,0.1,0.1,0.2,0.2c0,0.1-0.1,0.1-0.1,0.1c-0.1,0-0.1,0.1-0.1,0.2c0.2,0.7,0.5,1.4,0.2,2.1c-0.1,0.2,0,0.3,0,0.5
			c-0.1,0.4-0.3,0.7-0.6,1c-0.1,0.1-0.2,0.2-0.4,0.2c-0.1-0.1-0.2-0.2-0.2-0.3c0-0.4-0.1-0.8-0.1-1.2c0-0.1,0.1-0.2,0.2-0.2
			c0.1,0,0.1,0.2,0.1,0.3c-0.1-0.2-0.1-0.5-0.1-0.7c0-0.1,0-0.3-0.1-0.3c-0.2-0.2-0.2-0.4-0.2-0.6c0,0,0.1-0.1,0.1-0.1
			c-0.2-0.5,0.3-0.9,0.3-1.4c-0.3,0.1-0.4-0.1-0.4-0.3c-0.1-0.3,0.1-0.6,0.1-0.8c0-0.2,0.2-0.2,0.3-0.3c0.2-0.1,0.1,0.2,0.2,0.1
			c-0.1-0.1-0.1-0.2,0-0.4c0.2-0.4,0.3-0.7,0.1-1.1c0.1,0.4-0.2,0.8-0.4,1.3c-0.1,0.1-0.3,0.2-0.3,0.4c0,0,0,0.1-0.1,0.1
			c-0.3,0-0.5-0.3-0.5-0.6c0-0.4-0.2-0.7,0.1-1.1c0,0,0-0.1,0-0.2c0-0.3,0.1-0.5,0.3-0.6c0.1,0,0.1-0.1,0.1-0.1
			c0.2-0.3,0.3-0.3,0.5-0.1C66.8,9,66.9,9.1,67.1,9c0.1,0,0.2,0,0.2,0.1c0,0.1,0.1,0.1,0.2,0.1c0.4,0,0.6,0.3,1,0.3
			c0.2,0,0.3,0.2,0.5,0.3C69.2,10,69.4,10.3,69.5,10.6z"/>
		<path class="st3" d="M77.2,16.6c-0.1-0.1-0.1-0.2-0.2-0.3c0.1-0.2,0.4-0.3,0.3-0.6c-0.1-0.8,0-1.5,0-2.3c0-0.2,0.1-0.4,0.1-0.6
			c0.2-0.2,0.4-0.5,0.4-0.9c0-0.2,0.1-0.2,0.3-0.3c0.5-0.2,0.7-0.6,0.8-1.1c0,0,0-0.1,0.1-0.1c0.4-0.3,0.8-0.7,1.2-1.1
			c0.3-0.2,0.9-0.2,1.2,0.2l0,0c0,0.2,0.1,0.4,0.2,0.6c0.1,0.4,0.1,0.8-0.1,1.2c-0.1,0.1,0,0.3-0.1,0.3c-0.3,0-0.3-0.2-0.3-0.4
			c0-0.2,0-0.3-0.1-0.5c-0.1-0.3-0.2-0.4-0.5-0.4c-0.3,0-0.5,0.1-0.6,0.3c-0.1,0.5-0.5,0.9-0.7,1.4c0,0.2-0.2,0.2-0.3,0.3
			c-0.2,0.1-0.3,0.3-0.1,0.5c0,0,0.1,0.1,0.1,0.2c-0.1,0.3-0.1,0.7-0.2,1c-0.1,0.2-0.2,0.4-0.3,0.6c-0.1,0.3-0.1,0.7-0.2,1
			c0,0.1,0,0.2,0,0.3c0.2,0.2,0.2,0.5,0.1,0.7c0,0.1-0.1,0.2,0,0.3c0,0.3-0.1,0.4-0.3,0.5c-0.4-0.1-0.5-0.4-0.6-0.7
			C77.2,16.8,77.3,16.7,77.2,16.6z"/>
		<path class="st4" d="M63.6,16.7c-0.2-0.4-0.1-0.7,0.2-0.9c0.2-0.1,0.3-0.3,0.3-0.5c0.1-0.4,0.1-0.8,0.3-1.1c0,0,0-0.1,0-0.1
			c-0.3-0.2-0.2-0.6-0.3-0.9c0.2-0.6,0.6-1.1,0.7-1.8c0.4-0.1,0.5,0.2,0.7,0.4c0.2,0.2,0.2,0.4,0,0.6c-0.2,0.4-0.2,0.9-0.4,1.4
			c-0.2,0.6-0.4,1.1-0.7,1.7c0,0.1-0.1,0.2,0,0.3c0,0-0.4,0.8-0.4,0.7c-0.1,0-0.2,0-0.2,0.1C63.8,16.7,63.7,16.7,63.6,16.7z"/>
		<path class="st5" d="M81.4,9.7c-0.5-0.2-1-0.3-1.4,0.2c-0.2,0.2-0.4,0.4-0.7,0.6c-0.1,0.1-0.4,0.1-0.2,0.4c0,0,0,0.1,0,0.1
			c-0.4,0.2-0.4,0.7-0.6,1c-0.1,0.1-0.2,0.1-0.3,0.1C78,12,78,12.1,78,12.3c0,0.4-0.2,0.5-0.5,0.5c-0.1,0,0-0.1,0-0.1
			c0-0.1,0-0.1,0-0.2c0-0.3,0-0.5,0.1-0.8c0.2-0.1,0.4-0.2,0.4-0.5c0,0,0-0.1,0.1-0.1c0.4-0.3,0.4-0.7,0.5-1.1
			c0.1-0.3,0.2-0.5,0.3-0.7C79,9,79.3,9.1,79.6,9.2c0.3,0,0.5,0,0.8,0C80.9,9.1,81.2,9.3,81.4,9.7z"/>
		<path class="st6" d="M81.4,11.4c0.3-0.4-0.1-0.8-0.1-1.2c0-0.2,0-0.3,0.1-0.4c0.3,0.5,0.6,0.8,1.2,0.8c0.2,0,0.3,0.1,0.4,0.3
			c0.2,0.3,0.4,0.7,0.7,1c-0.3,0.2-0.6,0.1-0.7-0.2c-0.1-0.2-0.1-0.2-0.3-0.1c-0.1,0.1-0.4,0-0.5,0.1c-0.2,0-0.4,0-0.2-0.3
			c0-0.1,0.1-0.1,0-0.2c-0.1,0-0.1,0-0.2,0.1c-0.1,0.1-0.1,0.3-0.2,0.4C81.4,11.5,81.4,11.4,81.4,11.4z"/>
		<path class="st7" d="M79.6,9.2c-0.5,0-0.6,0.2-0.3,0.7c-0.2,0-0.5,0.1-0.3,0.4c0,0,0,0.1,0,0.1c-0.4,0-0.2,0.4-0.3,0.6
			c-0.3,0.3-0.5,0.7-0.9,0.9c-0.1,0-0.1-0.1-0.1-0.2c0.2-0.3,0.1-0.6,0.3-0.9c0.2-0.3,0.3-0.7,0.5-0.9c0.1-0.1,0.2-0.2,0.3-0.3
			C78.9,8.8,78.9,8.8,79.6,9.2z"/>
		<path class="st8" d="M68.9,9.8c-0.6-0.1-1.2-0.3-1.7-0.6c-0.6-0.4-1.2-0.1-1.3,0.7c-0.1,0.1-0.1,0.2-0.2,0.3
			c-0.1,0.2-0.3,0.3-0.5,0.2c0-0.3,0.1-0.5,0.2-0.7c0.2-0.3,0.4-0.5,0.6-0.9c0.1-0.1,0.1-0.3,0.3-0.2c0.5,0.4,1.1,0.6,1.8,0.7
			C68.3,9.3,68.6,9.5,68.9,9.8z"/>
		<path class="st6" d="M65.1,10.3c0.3-0.1,0.4-0.4,0.7-0.4c-0.1,0.4-0.1,0.8,0,1.3c0,0.2,0.1,0.4,0.3,0.4c0.1,0.1,0,0.2,0,0.3
			c-0.2,0.1-0.4,0.2-0.6,0.1c-0.2-0.2-0.4-0.3-0.6-0.5C65,11.1,65,10.7,65.1,10.3z"/>
		<path class="st9" d="M72.3,9.3c-0.2,0.3-0.4,0.5-0.5,0.9c-0.1,0.4-0.3,0.4-0.7,0.2c0-0.2,0.1-0.5,0.2-0.7c0.2,0,0.2-0.2,0.4-0.4
			C72,8.9,72.2,9.2,72.3,9.3z"/>
		<path class="st10" d="M77.4,12.7c0,0,0,0.1,0,0.1c-0.1,1-0.2,1.9-0.2,2.9c-0.1-0.9-0.1-1.8,0-2.7C77.2,12.9,77.3,12.8,77.4,12.7z"
			/>
		<path class="st10" d="M78,10.7c-0.1,0.4-0.2,0.7-0.3,1.1c-0.1,0.2-0.1,0.5-0.2,0.7c-0.1-0.4,0.1-0.8,0.1-1.2
			c0.1-0.3,0.1-0.5,0.3-0.8C78,10.5,78,10.6,78,10.7z"/>
		<path class="st9" d="M74.2,10.2c-0.3,0-0.6-0.1-0.9-0.3c-0.2-0.1-0.4-0.2-0.6-0.2c-0.3,0-0.3-0.2-0.4-0.4c0.5,0.2,1,0.4,1.6,0.7
			C74,10.1,74.2,10.1,74.2,10.2z"/>
		<path class="st11" d="M78,10.7c0-0.1-0.1-0.1-0.1-0.2c0.1-0.3,0.2-0.6,0.4-0.9c0.1-0.2,0.2-0.3,0.4-0.2
			C78.4,9.8,78.2,10.2,78,10.7z"/>
		<path class="st12" d="M65.9,8.7c0,0.4-0.4,0.8-0.6,0.8c0-0.2,0.1-0.4,0.3-0.5C65.7,9,65.7,8.7,65.9,8.7z"/>
		<path class="st13" d="M71.8,9.3C71.8,9.3,71.8,9.3,71.8,9.3c0.1,0.2,0.2,0.3,0,0.4c-0.2,0.1-0.3,0-0.4-0.1
			C71.5,9.5,71.6,9.4,71.8,9.3z"/>
		<path class="st14" d="M65.9,8.7C65.8,8.9,65.7,9,65.6,9c0.1-0.2,0.2-0.3,0.2-0.5c0.1-0.2,0.2-0.2,0.4-0.1C66,8.5,66,8.6,65.9,8.7z
			"/>
		<path class="st15" d="M75.1,10.9c-0.1-0.1-0.1-0.1-0.2-0.2c0.3,0.1,0.7,0.3,0.7,0.7C75.5,11.2,75.3,11,75.1,10.9z"/>
		<path class="st0" d="M42,10.2c0.1,0.8-0.1,1.6-0.1,2.5c0,1,0,1.9-0.2,2.9c-0.1,0.6,0,1.3,0,1.9c0,0.1,0,0.2,0.1,0.2
			c0.1,0,0.1-0.1,0.2-0.1c0.6-0.5,1-1.2,1.5-1.7c0.2-0.2,0.3-0.3,0.5-0.5c0.2-0.1,0.3,0.1,0.2,0.2c-0.2,0.3-0.3,0.5,0.1,0.8
			c0.1,0.1,0.1,0.2,0,0.3c-0.2,0.2-0.2,0.4-0.2,0.5c-0.1,0.6-0.4,1.1-0.7,1.6c-0.2,0.3-0.5,0.5-0.6,0.9c-0.1,0.5-0.5,0.9-0.9,1.2
			c-0.2,0.2-0.5,0.3-0.7,0.6c-0.1,0.2-0.3,0.1-0.4,0.1c-0.6-0.4-1.2-0.8-1.4-1.6c-0.2-0.6-0.5-1.3-0.9-1.8c-0.5-0.7-0.7-1.6-0.6-2.5
			c0-0.1,0-0.1,0-0.2c0,0.1,0,0.1,0,0.2c0.1,0.8-0.1,1.5-0.4,2.2c-0.3,0.1-0.5-0.1-0.4-0.4c0.1-0.4,0.1-0.8,0.3-1.1c0,0,0,0,0,0
			c0,0,0,0,0,0c-0.1,0-0.1,0.1-0.2,0.2c-0.2,0.1-0.3,0.1-0.4-0.1c-0.1-0.3-0.3-0.6,0-0.9c0,0,0-0.1,0-0.2c0-0.2,0.1-0.4,0.2-0.6
			c0.2-0.4,0.3-0.9,0.5-1.2c0.1,0,0.3,0.1,0.3-0.1c0-0.2,0.2-0.4,0-0.6c-0.1-0.1-0.2-0.2-0.1-0.4c0,0,0-0.1,0-0.1
			c0.1-0.3,0.1-0.5,0.2-0.8c0-0.2,0.1-0.3,0.3-0.3c0.1,0,0.1-0.1,0.2-0.1c0.3-0.4,0.2-0.8-0.1-1.2c-0.1-0.2-0.1-0.4-0.2-0.6
			c-0.1-0.1,0.1-0.2,0.2-0.2c0.1,0,0.2,0,0.2-0.1c0-0.2,0.1-0.3,0.3-0.2c0.4,0.1,0.7,0,1-0.3c0.1-0.1,0.2-0.1,0.3,0
			c0.2,0.2,0.5,0.2,0.7,0.2c0.2,0,0.3,0.1,0.4,0.3c0,0.1,0.2,0.2,0.3,0.3c0.3,0.1,0.5,0.1,0.8,0.1c0.1,0,0.2,0,0.2,0.1
			c0,0.1-0.1,0.1-0.1,0.1C42.2,9.9,42,10,42,10.2z"/>
		<path class="st16" d="M54.7,11.3c0.2,1.1,0.1,2.3,0.2,3.4c0,0.2,0,0.3,0.1,0.5c0.1,0.7,0.1,0.7,0.7,0.5c0.5-0.2,0.8-0.5,1-1
			c0.1-0.3,0.2-0.5,0.3-0.8c0.2-0.3,0.4-0.1,0.5,0c0.1,0.2,0.2,0.4,0.4,0.5c0.1,0,0,0.1,0,0.2c-0.2,0.4-0.1,0.8-0.4,1.2
			c-0.2,0.4-0.5,0.7-0.9,1c-0.3,0.2-0.6,0.5-0.8,0.9C55.5,17.9,55.3,18,55,18c-0.2-0.1-0.4,0-0.6,0.1c-0.3,0.2-0.5,0.1-0.8-0.1
			c-0.3-0.2-0.6-0.6-0.7-0.9c-0.1-0.2-0.2-0.4-0.4-0.4c-0.2,0-0.2-0.2-0.2-0.3c-0.2-0.8-0.4-1.6-0.8-2.4c-0.1-0.3-0.2-0.7-0.2-1
			c0-0.4,0-0.8,0.1-1.2c0.1-0.2,0.1-0.5,0-0.7c-0.1-0.3-0.1-0.6,0-0.9c0-0.3,0.3-0.4,0.5-0.2c0.1,0.1,0.2,0.1,0.3,0.1
			c0.2,0,0.4,0,0.5,0.2c0,0,0,0,0,0c0,0,0,0,0,0c0,0,0,0,0,0c0.1-0.2,0.3-0.3,0.5-0.2c0.1,0,0.2,0,0.3,0c0.5-0.1,0.5-0.1,0.8,0.3
			C54.3,10.7,54.4,11,54.7,11.3z"/>
		<path class="st17" d="M30.8,8.8C30.8,8.8,30.9,8.8,30.8,8.8c0.2-0.1,0.3-0.1,0.3-0.3c0.2-0.4,0.5-0.7,0.7-1.1
			C32,7.3,32,7.2,32.2,7.1c0.1-0.1,0.2-0.2,0.2-0.3c0-0.3,0.2-0.5,0.5-0.4c0.1,0,0.1,0,0.2-0.1c0.2-0.1,0.3-0.1,0.5,0.1
			c0.2,0.1,0.3,0.3,0.5,0.4c0.6,0.6,0.8,1.3,1,2.1c0,0,0,0.1,0,0.1c-0.5,0.3-0.7,0.2-1-0.3c-0.1,0-0.1,0.1-0.2,0.1
			c-0.2,0.2-0.5,0.2-0.6-0.1c-0.1-0.2-0.2-0.2-0.3,0C32.7,9,32.3,9,32.1,9.2c0.3-0.1,0.5,0.2,0.9,0.3c0.2,0.1,0.3,0.8,0.1,1
			c-0.2,0.3-0.5,0.5-0.8,0.7c-0.2,0.1-0.4,0.2-0.5,0.1c-0.2-0.1-0.2-0.3-0.1-0.5c0-0.1,0-0.2,0.1-0.3c0,0,0,0,0,0c0,0,0,0,0,0
			c-0.1,0.3-0.1,0.5,0,0.8c0.2,0.3,0.3,0.7,0.4,1.1c0.1,0.2,0,0.5-0.3,0.7c-0.1,0-0.1,0-0.2,0.2c-0.3,1-0.7,2-0.9,3.1
			c-0.1,0.6-0.2,1.1-0.3,1.7c-0.1,0.5-0.9,1.3-1.4,1.4c-0.2,0-0.4,0.1-0.5-0.2c-1-0.1-1.5-0.8-2-1.6c-0.1-0.2-0.3-0.4-0.4-0.7
			c0.1-0.2,0.3-0.1,0.4,0c0.1,0.1,0.2,0.2,0.3,0.3c0.1,0.2,0.3,0.3,0.5,0.3c0.2,0,0.3,0.1,0.3,0.3c0.1,0.5,0.3,0.6,0.8,0.6
			c0.2,0,0.5-0.1,0.7,0.2c0-0.1,0-0.1,0.1-0.2c0.4-0.4,0.4-0.9,0.4-1.4c0-0.1,0-0.2,0.1-0.3c0.3-0.1,0.3-0.4,0.3-0.7
			c0-0.2,0.1-0.4,0.2-0.6c0.1-0.3,0.2-0.6,0.1-0.9c0-0.4-0.1-0.8,0-1.3c0-0.1,0-0.2-0.1-0.2c-0.3,0.1-0.4-0.1-0.6-0.4
			c0.1-0.5,0.4-0.8,0.5-1.2c0.1-0.4,0.3-0.8,0.4-1.3c0,0,0-0.1,0-0.1c0-0.1,0.2-0.3,0.1-0.4c0,0,0-0.1,0-0.1
			c-0.1-0.2-0.1-0.4-0.1-0.5C30.4,8.8,30.8,9,30.8,8.8z"/>
		<path class="st0" d="M45,13.4c-0.1-0.1-0.1-0.2-0.2-0.4c0-0.3,0-0.7,0-1c0-0.1,0.1-0.2,0-0.2c-0.1-0.5,0.2-0.7,0.5-0.9
			c0.3-0.2,0.6-0.1,0.9,0.2c0.5,0.6,0.4,1.2,0.4,1.9c0,0.1,0,0.3,0.2,0.3c0.1,0,0.2-0.1,0.2-0.2c0.3-0.5,0.5-0.9,0.8-1.4
			c0.3-0.1,0.5-0.1,0.6,0.2c0.1,0.2,0.4,0.2,0.4,0.5c0,0,0,0,0,0c0.2-0.2,0.3,0,0.5,0.1c0.2,0.3,0.2,0.6,0.2,0.9
			c0,0.2-0.3,0.2-0.2,0.4c0.1,0.1,0.3,0.2,0.3,0.4c0,0,0,0.1-0.1,0.1c-0.4,0.1-0.5,0.3-0.4,0.7c0.1,0.3,0,0.5-0.1,0.7
			c-0.1,0.2-0.2,0.4-0.3,0.6c0,0.3-0.2,0.4-0.4,0.7c-0.1,0.1,0,0.4-0.2,0.4c-0.2,0-0.3-0.1-0.4-0.1c-0.1,0-0.1,0-0.2,0
			c-0.2,0-0.3,0-0.4-0.2c0-0.1-0.1-0.1-0.2-0.1c-0.3-0.1-0.4-0.3-0.6-0.6c-0.3-0.3-0.6-0.6-0.7-1.1c0-0.1-0.1-0.1-0.2-0.1
			c-0.5-0.1-0.6-0.3-0.5-0.7C45.2,14.1,45.1,13.7,45,13.4z"/>
		<path class="st18" d="M46.6,13c0-0.2-0.1-0.4,0-0.6c0-0.5-0.4-0.7-0.5-1.2c0-0.2-0.5-0.2-0.7-0.1c-0.2,0.1-0.6,0.2-0.3,0.6
			c0,0,0.1,0.1,0.1,0.1c-0.4,0.3-0.1,0.9-0.5,1.3c-0.2-0.3-0.4-0.7-0.4-1.1c0.1-0.6-0.2-1.1,0.1-1.7c0.1-0.2,0.4-0.4,0.2-0.7
			c0,0,0-0.1,0.1-0.1c0.4-0.4,0.5-1,0.6-1.5c0-0.3,0.3-0.4,0.5-0.5c0.2-0.1,0.5,0,0.6,0.2c0,0,0,0.1,0,0.1c-0.3,0.2,0,0.4-0.1,0.6
			c0,0.6,0,1.1-0.1,1.7c0,0.1,0,0.2,0.1,0.3c0.1,0.3,0.5,0.4,0.6,0.7c0,0.1,0,0.2-0.1,0.3C46.8,11.9,46.8,12.4,46.6,13z"/>
		<path class="st4" d="M49.6,14.2c-0.1-0.1-0.2-0.2-0.3-0.3c-0.1-0.1-0.1-0.2,0-0.4c0.2-0.2,0.1-0.8-0.2-0.9
			c-0.2-0.1-0.3,0.2-0.5,0.3c0.2-0.4,0-0.6-0.3-0.7c0,0-0.1-0.1-0.1-0.1c0.1-0.3-0.1-0.3-0.3-0.4c0.4-0.8,0.9-1.5,1.3-2.3
			c0-0.1,0.1-0.1,0.2-0.1c0.2,0,0.2,0,0.3-0.2c0-0.2,0.2-0.3,0.4-0.2c0.1,0,0.2,0.1,0.3,0.1c0.2,0,0.4,0.1,0.4,0.3
			c0,0.2,0.1,0.5-0.2,0.6c-0.1,0-0.2,0.1-0.2,0.2c-0.1,0.4-0.3,0.8-0.2,1.3c0,0.1,0,0.2,0.1,0.2c0.2,0,0.2,0.2,0.2,0.3
			c0,0.2-0.2,0.3-0.4,0.3c0,0-0.1,0-0.1-0.1c0,0,0,0.1,0,0.1c0.2,0.5,0.1,0.9-0.1,1.3c0,0.1-0.1,0.1,0,0.2c0.2,0.1,0.1,0.3,0,0.4
			C49.7,14.2,49.7,14.2,49.6,14.2z"/>
		<path class="st19" d="M45,13.4c0.3,0.2,0.4,0.6,0.3,0.9c0,0.2,0.2,0.4,0.1,0.6c0,0.1,0.2,0.1,0.3,0c0.3-0.1,0.5,0,0.5,0.3
			c0,0.3,0.1,0.5,0.4,0.5c0.1,0,0.1,0.1,0.1,0.2c0.1,0.3,0.2,0.6,0.6,0.7c0.2,0,0.2,0.3,0.4,0.4c0,0.2-0.3,0.4-0.6,0.3
			c-0.1,0-0.1-0.1-0.1-0.1c-0.5-0.4-0.9-0.9-1.2-1.5c0-0.1-0.1-0.2-0.2-0.1c-0.6,0.2-0.9,0.6-0.9,1.2c0,0.1,0,0.2-0.1,0.3
			c0,0.1-0.1,0.1-0.1,0.2c-0.1,0.1-0.1,0.3-0.1,0.4c0,0.2-0.1,0.5-0.3,0.6c-0.2,0.1-0.4,0.3-0.3,0.5c0,0.1,0,0.1-0.1,0.2
			c-0.2,0.1-0.3,0.2-0.4,0.3c-0.1,0.2-0.2,0.3-0.4,0.1c0,0,0-0.1-0.1-0.1c0.1-0.2,0.2-0.4,0.4-0.6c0.4-0.4,0.6-0.9,0.7-1.3
			c0.1-0.4,0.2-0.7,0.3-1c0.1-0.2-0.1-0.3-0.3-0.4c-0.2-0.1-0.1-0.2,0-0.3c0.1-0.2,0.3-0.3,0.3-0.5c0.3-0.3,0.6-0.7,0.8-1
			C45.1,14,45,13.7,45,13.4z"/>
		<path class="st20" d="M54.7,11.3c-0.2,0.1-0.4,0-0.4-0.2c0-0.4-0.5-0.4-0.6-0.8c0-0.1-0.1,0-0.2,0c-0.1,0-0.2,0.1-0.2,0.1
			c-0.4-0.1-0.7-0.1-0.6,0.4c0,0,0,0.1-0.1,0.1c-0.1,0-0.1-0.1-0.1-0.2c0-0.4-0.1-0.4-0.4-0.2c-0.3,0.2-0.3-0.2-0.4-0.3
			c0,1,0,1.9,0,2.9c-0.2,0.1-0.2-0.1-0.2-0.2c0-0.3-0.1-0.6,0-0.9c0.1-0.9,0-1.8,0.1-2.7c0-0.3-0.1-0.6-0.4-0.8
			c-0.1,0-0.1-0.4-0.1-0.5c0.1-0.2,0.3-0.2,0.4-0.1c0.2,0,0.3,0.1,0.5,0.2c0.3,0.4,0.7,0.5,1,0.7c0.1,0.3,0.3,0.4,0.5,0.5
			c0.4,0.4,0.9,0.8,1.1,1.3C54.6,10.9,54.7,11.1,54.7,11.3z"/>
		<path class="st21" d="M51.3,7.9c-0.3,0.2-0.3,0.3,0,0.6c0.2,0.2,0.2,0.5,0.2,0.8c-0.1,0.1-0.2,0-0.2-0.1C51.1,9.1,51,9,51,9.3
			c0,0.3-0.1,0.6-0.2,1c-0.1,0.3-0.1,0.6,0,0.9c0,0.1,0,0.1,0,0.2c0,0.1-0.1,0.2-0.1,0.4c0,0.3-0.1,0.5-0.4,0.6
			c-0.3,0.1-0.1,0.3-0.2,0.4c0.2,0.3,0.2,0.5,0,0.8c-0.1,0.1-0.2,0.3-0.2,0.4c0,0.1-0.1,0.2-0.3,0.1c-0.1-0.2-0.2-0.4,0-0.6
			c0.1-0.2,0.2-0.5,0.2-0.8c0-0.2-0.1-0.4-0.4-0.5c-0.1,0-0.2-0.1-0.1-0.2c0-0.1,0.1,0,0.2,0c0.1,0.1,0.2,0.1,0.4,0.1
			c0.1,0,0.2-0.1,0.2-0.1c0-0.1-0.1-0.1-0.2-0.1c-0.2,0-0.2-0.1-0.2-0.2c0.1-0.5,0.1-1.1,0.2-1.6c0-0.2,0.1-0.4,0.3-0.3
			c0.1,0,0.2,0,0.2-0.1c0-0.1,0-0.2-0.1-0.2c-0.3-0.2-0.5-0.1-0.7,0.2c0,0.1-0.1,0.1-0.1,0.2c-0.1,0.1-0.2,0.2-0.3,0.1
			c-0.1,0,0-0.2-0.1-0.3c0,0-0.1,0-0.1-0.1c0,0,0-0.1,0-0.1c0.2-0.2,0.4-0.5,0.3-0.9c0.1-0.1,0.1-0.3,0.2-0.4c0.1-0.1,0.2-0.1,0.3,0
			c0.2,0.1,0.4,0.2,0.6-0.1c0.1-0.2,0.3-0.2,0.4-0.1C51.1,7.8,51.2,7.8,51.3,7.9z"/>
		<path class="st22" d="M38.5,9.2c-0.2,0.1-0.1,0.6,0.1,0.7c0.2,0.1,0.2,0.2,0.2,0.4c-0.1,0.2,0.1,0.4,0.2,0.6
			c0.1,0.2,0.2,0.3-0.2,0.3c-0.3,0,0,0.2-0.1,0.3c-0.2,0-0.4-0.2-0.5,0.1c0,0-0.1,0-0.1,0c-0.2-0.1-0.1-0.2-0.1-0.3
			c0-0.2,0.1-0.4,0.1-0.6c0-0.4-0.1-0.6-0.5-0.6c-0.5,0-1-0.1-1.4-0.2c-0.6-0.1-0.7-0.1-0.9,0.5c-0.2,0.1-0.3,0-0.4-0.2
			c-0.1-0.4,0-0.8,0.2-1.2l0,0C36.2,9,37.3,9.1,38.5,9.2C38.4,9.1,38.5,9.2,38.5,9.2z"/>
		<path class="st23" d="M46.1,7.7c-0.2-0.2-0.5-0.1-0.7,0.1c-0.2,0.1-0.1,0.3,0,0.4c0.1,0.1,0,0.1-0.1,0.2c-0.1,0.1-0.2,0.3-0.1,0.5
			c0,0.1,0,0.1,0,0.2c-0.2,0-0.2,0.2-0.3,0.3c-0.3,0.2-0.1,0.6-0.4,0.8c0,0,0,0.1,0,0.2c0.1,0.2,0,0.2-0.1,0.3
			c-0.2,0.1-0.2,0.3-0.1,0.5c0.2,0.2,0.1,0.4,0,0.6c-0.1,0.1-0.1,0.2-0.2,0.3c-0.1-0.2-0.1-0.4-0.2-0.6c-0.1-0.6-0.1-1.2,0.1-1.8
			l0,0c0.2-0.1,0.2-0.3,0.2-0.5l0,0c0.4-0.4,0.4-1,0.7-1.5c0.3-0.4,0.5-0.6,1-0.4c0.1,0.2,0.4,0.3,0.2,0.6
			C46.3,7.8,46.3,7.8,46.1,7.7z"/>
		<path class="st24" d="M60.5,8.4c-0.4,0.1-0.7-0.2-1-0.3C59.4,8,59.2,7.9,59,7.9c-0.3,0.3-0.4,0.6-0.4,1c0.1,0.4,0,0.9-0.4,1.2
			c-0.3,0.3-0.3,0.3,0,0.7c-0.1,0.5-0.2,0.9-0.3,1.3c0,0.2-0.1,0.3-0.3,0.3c-0.3-0.2-0.2-0.5-0.3-0.7c0.1-0.3,0.1-0.7,0.1-1
			c0-0.6,0.3-1.1,0.6-1.5c0.1-0.2,0.2-0.4,0.3-0.7c0-0.3,0.2-0.5,0.3-0.8c0.1-0.2,0.3-0.2,0.5-0.1C59.4,7.9,59.7,8,60,8
			C60.2,8,60.4,8.2,60.5,8.4z"/>
		<path class="st1" d="M41.5,9.5c-0.1,0-0.2-0.1-0.2-0.1C41,9,40.7,8.9,40.2,9.1c-0.1,0-0.1,0-0.1-0.1c0-0.3-0.2-0.2-0.3-0.1
			c-0.3,0.3-0.7,0.3-1.1,0.2c-0.1-0.2,0-0.5,0.1-0.7c0.1-0.2,0-0.4,0-0.6c0-0.1-0.1-0.2,0-0.3c0.1-0.1,0.3,0,0.4,0.1
			c0.3,0.2,0.6,0.5,1,0.6c0.2,0.1,0.4,0.2,0.5,0.4c0,0,0.1,0.1,0.1,0.1c0.2,0.2,0.6,0.2,0.7,0.6C41.5,9.3,41.5,9.4,41.5,9.5
			C41.6,9.4,41.6,9.5,41.5,9.5z"/>
		<path class="st25" d="M46.1,7.7c0.2-0.2,0.2-0.5,0-0.7c0,0,0.1,0,0.1,0c0.3,0.4,0.6,0.8,0.9,1.2c0.3,0.6,0.1,1.2-0.1,1.8
			c-0.3,0.2-0.4,0.2-0.5-0.2c0-0.1-0.1-0.1-0.2-0.2c-0.1-0.2,0-0.3,0-0.5c0-0.3,0.1-0.6-0.2-0.8C46.1,8.1,46,7.9,46.1,7.7z"/>
		<path class="st26" d="M40.7,8.6c-0.6-0.2-1.1-0.4-1.5-0.9c-0.1-0.1-0.2-0.2-0.3-0.1c-0.1,0.1,0,0.2,0.1,0.3c0.2,0.2,0.2,0.5,0,0.7
			c-0.2,0.2-0.1,0.4-0.2,0.6c-0.1-0.1-0.2,0-0.2,0.1c0,0-0.1,0-0.1,0c0.2-0.5,0.3-1,0.2-1.5c0-0.2,0-0.3,0.2-0.3
			C39.3,7.4,40.5,8.1,40.7,8.6z"/>
		<path class="st27" d="M46.4,9.6c0.2,0,0.5-0.1,0.3,0.3c0,0.1,0.2,0,0.2,0.1c0,0.1,0,0.2-0.1,0.2c-0.1,0.2,0,0.5,0,0.7
			c0,0.1,0.1,0.2-0.1,0.2c-0.1-0.1-0.2-0.3-0.4-0.1c-0.1,0-0.3-0.2-0.3-0.5c0.1-0.2,0.1-0.5,0.2-0.7C46.3,9.6,46.3,9.6,46.4,9.6z"/>
		<path class="st28" d="M57.5,14.6c-0.3-0.2-0.2-0.7-0.7-0.7c0.1-0.3,0.1-0.6,0.2-0.9c0.1,0,0.1-0.1,0.2-0.2c0.1-0.2,0.3-0.2,0.4,0
			c0.1,0.2,0.4,0.4,0.3,0.7c0,0.3,0,0.7-0.1,1C57.7,14.6,57.7,14.7,57.5,14.6z"/>
		<path class="st29" d="M51,7.7c-0.1,0.1-0.2,0.1-0.3,0.3c-0.1,0.3-0.3,0.4-0.6,0.2c-0.1-0.1-0.3-0.2-0.4-0.3c0,0,0,0,0-0.1
			c0.2-0.2,0.4-0.6,0.8-0.4C50.6,7.5,50.8,7.6,51,7.7z"/>
		<path class="st30" d="M46.2,7C46.2,7,46.2,7,46.2,7c-0.7,0-1.1,0.5-1.2,1.2c0,0.4-0.2,0.6-0.5,0.8c0.2-0.5,0.3-1,0.5-1.4
			c0.3-0.6,0.3-0.7,1-0.6C46,6.9,46.1,7,46.2,7z"/>
		<path class="st29" d="M57.7,13.4c0-0.2-0.3-0.3-0.2-0.5c-0.2,0-0.2,0.3-0.4,0.1c0.1-0.4,0.2-0.8,0.3-1.2c0.1,0.2,0.2,0.4,0.3,0.6
			c0.1,0,0.2,0.1,0.3,0.2c0,0.3,0,0.5-0.1,0.7C57.9,13.5,57.8,13.5,57.7,13.4z"/>
		<path class="st7" d="M41.5,9.5C41.5,9.5,41.5,9.4,41.5,9.5c0.5,0.1,1,0,1.5,0.1c-0.4,0.2-0.8,0.3-1.1,0.6
			c-0.1-0.1-0.1-0.3,0.1-0.3c0.1,0,0.2-0.1,0.3-0.2C42.1,9.6,41.8,9.7,41.5,9.5z"/>
		<path class="st6" d="M52.8,8.8c-0.2,0.1-0.4,0.2-0.5-0.2c0-0.1-0.3-0.2-0.4-0.3c-0.1-0.1-0.1-0.2-0.1-0.3
			C52.1,8.3,52.5,8.4,52.8,8.8C52.8,8.8,52.8,8.8,52.8,8.8z"/>
		<path class="st31" d="M34.1,6.8c-0.3-0.1-0.5-0.4-0.9-0.3c-0.3,0.1-0.5-0.1-0.5-0.5c0.1-0.2,0.3-0.2,0.4-0.1
			c0.1,0.1,0.2,0.1,0.3,0.2C33.7,6.3,33.9,6.6,34.1,6.8z"/>
		<path class="st32" d="M44.2,9.5c0,0.1,0,0.2,0.1,0.2c0.1,0,0.1,0.1,0,0.1c-0.4,0.2-0.2,0.6-0.2,0.9c0,0.2,0,0.3,0,0.5
			C44,10.7,44,10.1,44.2,9.5z"/>
		<path class="st33" d="M50.5,7.4c-0.3,0.1-0.5,0.4-0.8,0.4C49.9,7.4,50.1,7.3,50.5,7.4z"/>
		<path class="st4" d="M49.5,8.4c0.2,0.4,0.1,0.6-0.3,0.9C49.3,9,49.4,8.7,49.5,8.4z"/>
		<path class="st7" d="M52.8,8.8C52.8,8.8,52.8,8.8,52.8,8.8c0.2,0.1,0.4,0.2,0.5,0.5C53,9.3,52.8,9.2,52.8,8.8z"/>
		<path class="st34" d="M33.5,6.1c-0.2,0-0.4-0.1-0.6-0.1c0,0,0,0-0.1,0c-0.1,0-0.1-0.1-0.1-0.2c0-0.1,0.1-0.1,0.1-0.1
			c0.1,0,0.1,0,0.2,0C33.2,5.8,33.3,6,33.5,6.1z"/>
		<path class="st35" d="M41.5,9.3c-0.2-0.2-0.4-0.4-0.7-0.6C41.1,8.8,41.5,8.8,41.5,9.3z"/>
		<path class="st25" d="M46.8,11.1c0.1-0.2,0.1-0.3,0-0.5c0-0.1,0-0.3,0.1-0.4c0,0.4,0.1,0.8-0.1,1.1C46.8,11.2,46.8,11.2,46.8,11.1
			z"/>
		<path class="st32" d="M44.5,9c0.1,0.2,0.1,0.4-0.2,0.5C44.3,9.3,44.4,9.1,44.5,9z"/>
		<path class="st36" d="M29.6,12.8c0.2,0.3,0.5,0.1,0.8,0.1c0.3,0,0.3,0.1,0.1,0.3c-0.3,0.3-0.2,0.8-0.1,1.1c0.1,0.4,0,0.8-0.1,1.1
			c-0.1,0.3-0.2,0.7-0.2,1c0,0.2-0.1,0.3-0.2,0.4c-0.3,0.1-0.2,0.2,0,0.3c0.1,0,0.2,0.1,0.1,0.2c-0.5,0.2-0.4,0.6-0.3,0.9
			c0,0,0,0,0,0.1c-0.3,0-0.5,0.1-0.4,0.5c0,0,0,0.1,0,0.1c-0.1,0-0.1,0-0.2,0c-0.2-0.3-0.6-0.3-0.9-0.3c-0.3,0-0.7-0.3-0.8-0.7
			c0-0.1-0.1-0.2-0.2-0.2c-0.3,0-0.5-0.2-0.6-0.4c-0.1-0.2-0.3-0.3-0.5-0.3c0,0,0,0,0-0.1c-0.1-0.2-0.2-0.4-0.4-0.4
			c-0.3,0-0.4,0.3-0.5,0.5c-0.1,0.2-0.3,0.4-0.4,0.6c-0.3,0.2-0.5,0.6-0.6,1c-0.2,0.3-0.4,0.6-0.5,0.9c-0.1,0.4-0.8,0.6-1.4,0.4
			c-0.6-0.2-0.9-0.6-1.3-1c-0.6-0.8-1.2-1.6-1.8-2.5c-0.3-0.5-0.5-1.1-0.8-1.6c-0.4-0.7-0.4-1.4-0.7-2.1c0.2-0.6-0.2-1.1-0.1-1.6
			c0-0.3-0.1-0.7,0-1c-0.2-0.3-0.6-0.5-0.8-0.8c-0.1-0.1-0.1-0.2,0-0.4c0.1-0.1,0.3-0.2,0.4,0c0.1,0.1,0.2,0.2,0.4,0.1
			c0.1-0.1,0.2-0.3,0.1-0.5c0,0,0-0.1,0-0.1l0,0c0.2-0.3,0.1-0.5,0.1-0.8c0,0,0-0.1,0-0.1c0.2-0.2,0.1-0.5,0.2-0.7
			c0.1-0.4,0.2-0.7,0.3-1.1c0-0.1,0-0.1,0.1-0.2c0-0.2,0.1-0.3,0.2-0.5c0,0,0,0,0-0.1c0,0-0.1,0-0.1,0c0-0.1-0.1-0.1,0-0.2
			c0.1-0.3,0.2-0.6,0.3-0.9c0.2-0.1,0.3-0.2,0.3-0.4C18.8,3.2,18.9,3,19,3c0.2-0.1,0.2-0.2,0.3-0.3c0.1-0.2,0.2-0.4,0.5-0.3
			c0.2,0,0.3,0,0.3-0.2c0-0.2,0.1-0.3,0.3-0.3c0.2,0,0.4-0.2,0.4-0.4c0-0.3,0.2-0.3,0.4-0.2c0.3,0.1,0.6,0.2,0.5,0.6
			c0,0.1,0,0.1,0.1,0.2C22,2.3,22,2.5,21.7,2.8c-0.2,0.2-0.4,0.5-0.3,0.8c0.1,0.4,0,0.7,0.1,1.1c0,0.1,0.1,0.1,0.2,0.2
			c0.2,0.1,0.2,0.2,0.2,0.4c0,0.1-0.1,0.3,0.1,0.4c0.6,0.4,0.5,1,0.4,1.6c0,0.2-0.1,0.3-0.2,0.5l0,0C21.8,8,21.7,8.5,21.6,9
			c-0.1,0.3,0.1,0.6,0,0.8c0.1,0.8,0,1.6,0.1,2.4c0.1,1.3,0.3,2.7,0.7,4c0.1,0.3,0.2,0.3,0.4,0.1c0.3-0.3,0.7-0.5,0.9-0.8
			c0-0.2,0.2-0.1,0.3-0.2c0,0,0-0.1,0.1-0.1c0.4-0.2,0.4-0.6,0.2-0.9c0-0.3-0.1-0.7-0.2-1c-0.1-0.5,0.1-0.7,0.6-0.6
			c0.2,0.1,0.3,0,0.3-0.3c0,0,0-0.1,0.1-0.1c0.1-0.2,0-0.4,0.3-0.5c0.2-0.1,0.1-0.3,0-0.5c-0.1-0.3-0.1-0.4,0.2-0.4
			c0.2,0,0.4-0.1,0.5-0.3c0-0.1,0.1-0.2,0.3-0.2c0.2,0,0.2,0.1,0.2,0.3c0,0.1,0.1,0.2,0.1,0.3c0.2,0.2,0.3,0.5,0.2,0.8
			c-0.1,0.3,0.2,0.4,0.2,0.7c0,0.1,0.1,0.2,0.1,0.3c-0.1,0.3,0.2,0.5,0.1,0.7c0,0.1,0.2,0,0.2,0.1c0.2,0.2,0.1,0.4,0.2,0.6
			c0.1,0.4,0.2,0.4,0.5,0.2c0.2-0.1,0-0.4,0.2-0.5c0.1-0.1,0.1-0.1,0.2-0.1c0.1,0,0.2-0.1,0.2-0.2C29.1,13.1,29.3,12.9,29.6,12.8
			C29.6,12.7,29.6,12.7,29.6,12.8z"/>
		<path class="st21" d="M24,18.6c-0.1-0.4,0.2-0.8,0.6-1C24.4,18,24.3,18.3,24,18.6z"/>
		<path class="st37" d="M25.6,17.4c-0.1,0-0.2,0-0.2-0.2c0-0.1,0.1-0.2,0.2-0.2c0.1,0,0.2,0.1,0.2,0.2
			C25.8,17.4,25.7,17.4,25.6,17.4z"/>
		<path class="st4" d="M21.7,5c-0.1,0-0.2-0.1-0.2-0.1c0-0.4-0.4-0.7-0.2-1.1c0.1-0.2-0.1-0.4-0.3-0.6c0.2-0.1,0.4-0.2,0.5-0.4
			c0.2-0.2,0.4-0.3,0-0.5c-0.1-0.1-0.1-0.2,0-0.3c0.1-0.3-0.1-0.4-0.4-0.4c0,0.3-0.3,0.7-0.6,0.7c-0.2,0-0.2,0-0.2,0.2
			c0,0.4-0.1,0.5-0.5,0.3c-0.2-0.1-0.3,0-0.4,0.1c-0.2,0.2,0,0.6-0.5,0.6c0,0,0,0.1,0,0.2c0,0.1,0.1,0.3-0.1,0.4
			c-0.2,0.1-0.3,0-0.5-0.1c0.2-0.5,0.3-1,0.5-1.5c0.4-1.1,1.3-1.6,2.2-2.2c0.7,0.1,1.4,0.4,2.1,0.7l0,0c0.1,0.2,0.2,0.5-0.2,0.5
			c-0.1,0-0.2,0.2-0.3,0.2c-0.3,0.2-0.4,0.5-0.5,0.8C22.1,2.6,22,3,21.8,3.4c-0.1,0.3-0.2,0.6-0.1,0.9c0.1,0.1,0.1,0.3,0.1,0.5
			C21.9,4.9,21.8,5,21.7,5z"/>
		<path class="st8" d="M22.6,1.3c0.2-0.2,0.5-0.2,0.7-0.5c0.5,0.4,0.5,1,0.6,1.5c0,0.4,0.1,0.7,0.1,1.1c0,0.4,0.1,0.8,0,1.2
			c-0.1,0.3-0.1,0.6-0.4,0.8c0,0-0.1-0.1-0.1-0.1c-0.1-0.1-0.1-0.3,0-0.4c0-0.2,0.3-0.3,0.2-0.5c-0.1-0.4-0.2-0.7-0.2-1.1
			c0-0.3-0.1-0.2-0.2-0.2c-0.1,0-0.2,0-0.3-0.1c-0.2-0.2-0.1-0.5-0.1-0.8C22.9,1.9,22.9,1.6,22.6,1.3z"/>
		<path class="st19" d="M17.5,8.3c0.2,0.3,0.1,0.7-0.2,0.9c-0.2,0.1-0.2,0-0.3-0.1C17,9,17,8.9,16.8,9c-0.1,0-0.1,0.1-0.1,0.2
			c0.1,0.2,0.2,0.3,0.4,0.5c0.2,0.1,0.2,0.3,0.2,0.5c-0.6-0.3-1.1-0.9-1.5-1.4c-0.1-0.1-0.1-0.2,0-0.3c0.1-0.1,0.2,0,0.2,0
			c0.3,0.1,0.6,0.2,0.9,0.3c0.4,0.1,0.4,0.1,0.4-0.3C17.4,8.4,17.4,8.4,17.5,8.3z"/>
		<path class="st23" d="M17.8,6.7c0,0.2,0,0.4-0.1,0.5c0,0.1-0.1,0.2-0.2,0.1c0.1-0.9,0.3-1.8,0.6-2.7c0,0,0,0.1,0.1,0.1
			c0.1,0.2-0.2,0.4-0.1,0.6c0,0,0,0.1,0,0.1C17.9,5.9,17.9,6.3,17.8,6.7z"/>
		<path class="st8" d="M23.3,0.8c-0.2,0-0.3,0-0.4-0.1c-0.4-0.2-0.8-0.3-1.2-0.4c-0.2-0.1-0.2,0.1-0.4,0.2c0-0.1,0-0.2,0-0.3
			c0,0,0.1-0.1,0.1,0C22,0.3,22.7,0.3,23.3,0.8z"/>
		<path class="st38" d="M16.2,15.7c-0.1,0-0.2-0.1-0.2-0.2c0-0.1,0.2-0.2,0.3-0.3c0.1,0,0.1,0.1,0.1,0.1
			C16.4,15.6,16.4,15.7,16.2,15.7z"/>
		<path class="st23" d="M17.5,7.5c0.2,0.3,0.2,0.6-0.1,0.8C17.4,8,17.5,7.8,17.5,7.5z"/>
		<path class="st38" d="M16.4,16.5c0-0.2,0-0.3,0.2-0.3c0,0,0.1,0,0.1,0.1C16.7,16.4,16.6,16.5,16.4,16.5z"/>
		<path class="st17" d="M27.2,11.1c0,0.9,0.2,1.7,0.4,2.6c-0.4-0.2-0.3-0.6-0.3-0.9c0-0.3-0.1-0.4-0.3-0.6c-0.3-0.2-0.3-0.4,0-0.6
			c0.1-0.1,0.2-0.2,0-0.3c-0.2-0.1-0.3-0.3-0.4-0.7c-0.1,0.4-0.3,0.6-0.6,0.5c-0.1,0-0.2,0.1-0.2,0.2c0.2,0.5-0.2,0.8-0.3,1.1
			c0,0-0.1-0.1-0.1-0.1c0,0,0.1,0.1,0.1,0.1c-0.1,0.3-0.2,0.6-0.7,0.4c-0.2-0.1-0.4,0.3-0.2,0.5c0.3,0.3,0.1,0.6,0,0.9
			c-0.3-0.5-0.4-1.1-0.4-1.6c0-0.3,0-0.6,0-0.9c0-0.2,0-0.4,0.2-0.6c0.1-0.1,0.2-0.1,0.2-0.2c0.3-0.6,0.7-1,1.2-1.3
			c0.4-0.3,0.5-0.2,0.8,0.2c0,0,0.1,0.1,0.1,0.1c0.4,0,0.5,0.2,0.5,0.6C27.1,10.7,27.2,10.9,27.2,11.1z"/>
		<path class="st2" d="M23.6,5.3c0,0,0,0.1,0,0.1c-0.3,0.9-0.8,1.6-1.4,2.3c0-0.1-0.1-0.2-0.1-0.2c0.2-0.4,0-0.8,0.1-1.2
			c0.1-0.3-0.2-0.4-0.4-0.6c-0.1-0.1-0.1-0.2,0-0.3c0.2-0.4,0.5-0.7,0.6-1.1c0-0.1,0.1-0.2,0.2-0.2c0.2,0,0.5,0,0.7-0.1
			c0.2,0,0.4,0,0.3,0.3c0.1,0.2-0.1,0.3-0.1,0.5c-0.1,0.2-0.2,0.2-0.3,0.1C23.5,5,23.5,5.1,23.6,5.3z"/>
		<path class="st18" d="M26.5,10c0,0-0.1,0-0.1,0c-0.2,0-0.1-0.4-0.3-0.3c-0.2,0.1-0.5,0.2-0.7,0.4c-0.2,0.3-0.6,0.5-0.7,0.9
			c-0.1,0.3-0.5,0.3-0.6,0.5c0.1,0.1,0.4,0,0.1,0.2c-0.2,0.2-0.2,0.4-0.1,0.6c0.1,0.1,0.1,0.2-0.1,0.3c-0.1-0.7-0.1-1.3,0.1-2
			c0.1-0.2,0.2-0.3,0.3-0.5c0.2-0.4,0.5-0.7,0.9-0.9c0,0,0.1,0,0.1,0c0.2,0,0.3-0.2,0.5-0.3c0.2,0.1,0.5,0,0.7,0.2
			c0.1,0.1,0.3,0.2,0.2,0.3C26.8,9.6,26.8,9.9,26.5,10z"/>
		<path class="st3" d="M32.9,6c0.1,0.2,0.1,0.4,0.4,0.5c0,0.1-0.1,0.3-0.3,0.2c-0.3-0.1-0.4,0-0.3,0.3c0.1,0.2,0,0.2-0.2,0.3
			C32,7.6,31.6,8,31.4,8.5c-0.1,0.2-0.2,0.3-0.5,0.3C31,8.7,31,8.5,31.1,8.3c0.3-0.4,0.3-0.9,0.4-1.3c0-0.1,0-0.1,0.1-0.2
			c0.2-0.2,0.3-0.4,0.1-0.7c0,0,0-0.1,0-0.1C31.8,6,32,6,31.9,5.8c0-0.1,0-0.2,0.1-0.3c0.1,0,0.1,0,0.2,0.1
			C32.5,5.7,32.6,5.9,32.9,6L32.9,6z"/>
		<path class="st29" d="M26.5,10c0-0.2,0.1-0.3,0.1-0.5c0-0.3-0.1-0.5-0.4-0.4C26,9.2,25.9,9.1,25.9,9c-0.2,0-0.3,0.2-0.5,0.3l0,0
			c-0.1,0-0.3,0-0.4,0.2c-0.1,0.1-0.3,0.3-0.4,0c0.1-0.1,0.2-0.3,0.2-0.4c0-0.1,0.1-0.2,0.2-0.2c0.5,0,1.1-0.2,1.6,0.2
			c0.5,0.3,0.7,0.8,0.7,1.4c0,0.2,0,0.4,0,0.5c0,0.1,0,0.1-0.1,0.2C27,10.7,27,10.2,26.5,10z"/>
		<path class="st39" d="M30.2,7.7C30.2,7.7,30.2,7.7,30.2,7.7c0.2,0.2,0.2,0.6,0.6,0.4c0,0,0.1,0.1,0,0.2c-0.1,0.3-0.8,0.5-1,0.3
			c-0.1-0.2-0.2-0.2-0.4-0.1c-0.1,0.1-0.2,0.1-0.3-0.1c-0.1-0.2,0.1-0.3,0.2-0.4c0-0.1,0.1-0.1,0.2,0c0.1,0.1,0.2,0.1,0.3,0.2
			c0.1,0,0.2,0,0.2-0.1C29.9,7.9,30.1,7.8,30.2,7.7C30.2,7.7,30.2,7.7,30.2,7.7z"/>
		<path class="st31" d="M31.8,6.1c0.1,0.1,0.2,0.2,0.3,0.1c0.1,0,0.2-0.1,0.2,0c0,0.1,0,0.1-0.1,0.2c-0.1,0.1-0.2,0.2-0.3,0.2
			c-0.2,0.1-0.2,0.3-0.2,0.4c-0.2,0.4-0.1,1-0.6,1.3c0.1-0.6,0.3-1.1,0.4-1.7c0.1-0.1,0-0.3,0.1-0.4C31.7,6.2,31.7,6,31.8,6.1z"/>
		<path class="st31" d="M24.6,9.4c0.1-0.1,0.2-0.1,0.3-0.2c0.2-0.2,0.3-0.1,0.5,0c-0.3,0.4-0.7,0.7-0.9,1.1
			c-0.1,0.1-0.2,0.2-0.3,0.2C24.1,10.2,24.3,9.8,24.6,9.4z"/>
		<path class="st40" d="M31.8,6.1c-0.1,0.2-0.2,0.3-0.3,0.5c0-0.3,0-0.6-0.1-0.9c-0.1-0.2,0.1-0.5,0.3-0.4c0.3,0.2,0.7,0.1,1,0.3
			c0,0.1,0,0.1,0,0.2c-0.1,0.1-0.2,0-0.3,0c-0.1-0.1-0.2-0.1-0.3-0.1c0,0-0.1,0-0.1-0.1c-0.2,0-0.1,0.2-0.1,0.3
			C31.9,6,32,6.1,31.8,6.1L31.8,6.1z"/>
		<path class="st23" d="M30.2,9.3C30.2,9.3,30.2,9.3,30.2,9.3C30.1,9.2,30,9.2,30,9.2c-0.1,0-0.3,0.1-0.3-0.1C29.7,9,29.9,9,30,8.9
			c0.1-0.1,0.3,0,0.5-0.1c0.1,0,0.2,0,0.4-0.1c-0.2,0.2-0.3,0.3,0,0.5c0.2,0.1,0,0.3-0.1,0.5C30.5,9.7,30.4,9.5,30.2,9.3z"/>
		<path class="st2" d="M21.6,9.8c-0.2-0.6-0.1-1.2,0.2-1.7c0.1-0.2,0.2-0.3,0.4-0.4C21.7,8.3,21.7,9,21.6,9.8z"/>
		<path class="st41" d="M30.5,8.9c-0.2,0.1-0.4,0-0.6,0.2c0.1,0.1,0.2,0.1,0.3,0.2c-0.2,0-0.3,0-0.5,0c-0.1-0.2,0-0.3,0.2-0.3
			C30,8.9,30.2,8.9,30.5,8.9z"/>
		<path class="st42" d="M24.1,15.3c-0.1,0.1-0.2,0.2-0.3,0.2c0-0.1-0.1-0.2,0-0.3C23.9,15.1,24,15.2,24.1,15.3z"/>
		<path class="st43" d="M82.2,17.7c0-0.2,0-0.4,0-0.5c0-0.1,0-0.2,0-0.2c0.5,0,0.2-0.2,0.2-0.4c0-0.6,0-1.2,0.7-1.6c0,0,0,0,0.1,0
			c0.1-0.1,0.1-0.3,0.3-0.2c0.2,0.1,0,0.3,0,0.4c0,0.1-0.1,0.2,0,0.3c0.5,0.7,0.5,1.4,0.6,2.2c0.1,0,0.1,0.1,0.1,0.2
			c-0.1,1-0.1,2-0.1,3.1c0,0.3,0.1,0.5,0,0.8c0,0.7,0,1.4,0.1,2.1c0.1,0.1,0.1,0.2,0.1,0.3c0,0.4-0.1,0.7,0,1.1c0,0,0,0.1-0.1,0.1
			c0,0.5-0.1,1-0.1,1.5c0,0.2,0,0.4-0.2,0.5c-0.1,0.1-0.2,0.3-0.2,0.5c-0.2,0.7-0.4,1.3-0.9,1.8c-0.1,0-0.2,0.1-0.2,0.1
			c-0.4,0-0.8,0-1.2,0c-0.7-0.1-1.1-0.4-1.3-1.1c-0.1-0.2-0.2-0.4-0.3-0.5c-0.1-0.2-0.2-0.4-0.2-0.6c0-0.3-0.1-0.5-0.2-0.8
			c-0.1-0.2-0.2-0.4-0.1-0.7c0-0.1,0-0.2,0-0.2c-0.2-0.3-0.2-0.6-0.1-0.9c0,0,0,0,0-0.1c-0.5-0.5-0.4-1.3,0.2-1.6
			c0.1-0.1,0.3-0.1,0.4,0c0,0.1,0,0.2,0,0.2c-0.1,0-0.1,0.1-0.2,0.1c0,0,0.1-0.1,0.1-0.1c0.2-0.1,0.2,0.1,0.2,0.2
			c0.2,0.5,0.4,0.9,0.6,1.4c0.2,0.4,0.4,0.7,0.7,1c0.2,0.2,0.4,0.4,0.7,0.3c0.3-0.1,0.4-0.3,0.5-0.6c0.1-0.6,0.1-1.2,0.1-1.7
			c0-0.8-0.2-1.6-0.2-2.4c0-0.3,0.1-0.6-0.1-0.8c0-0.1-0.1-0.1-0.1-0.2c0.1-0.8,0-1.6-0.1-2.5C82,18.2,81.9,17.9,82.2,17.7z"/>
		<path class="st18" d="M78.9,23.1c0-0.6,0.4-1.1,0.4-1.8c0-0.3,0.5-0.6,0.7-0.8c0.1,0,0.2,0,0.3-0.1c0,0,0.2-0.1,0.3,0.1
			c0.1,0.1,0,0.2-0.1,0.3c-0.3,0.1-0.2,0.4-0.1,0.6c-0.3,0.6-0.5,1.3-0.6,1.9c0,0.1,0,0.2-0.2,0.2c-0.4,0.3-0.6,0.7-0.5,1.2
			c0.1,0.3,0.3,0.1,0.4,0.1c0.1,0.1,0,0.2-0.1,0.2c-0.2,0.3-0.3,0.5,0,0.8c0.1,0.1,0.1,0.3,0,0.5c-0.1,0.2-0.1,0.3,0,0.5
			c0.2,0.3,0.4,0.7,0.3,1.1c0,0,0,0.1,0,0.1c0.3,0.3,0.4,0.8,0.7,1.1c0,0,0,0.1,0.1,0.1c0.4,0.1,0.5,0.4,0.8,0.5c-0.2,0-0.3,0-0.5,0
			c-0.5-0.2-0.8-0.5-1-1c-0.2-0.5-0.4-1-0.7-1.6c-0.4-1-0.4-2-0.6-3C78.7,23.9,78.8,23.5,78.9,23.1C78.8,23.1,78.8,23.1,78.9,23.1
			C78.8,23.1,78.8,23.1,78.9,23.1z"/>
		<path class="st44" d="M88,27.4c-0.2,0-0.4,0-0.3-0.3c0-0.3-0.1-0.5-0.4-0.3c-0.1,0-0.2,0-0.2,0c-0.1,0-0.1,0-0.2-0.1
			c0-0.1,0.1-0.1,0.1-0.1c0.3-0.2,0.7-0.4,1.1-0.5C88,26.6,88,27,88,27.4z"/>
		<path class="st18" d="M82.9,29.7c0-0.1,0-0.2,0-0.2c0.3-0.5,0.5-1.1,0.7-1.7c0.1-0.2,0.2-0.3,0.4-0.4c0,0.7-0.2,1.4-0.6,2
			C83.2,29.5,83.1,29.7,82.9,29.7z"/>
		<path class="st44" d="M84.2,25.4c-0.1-0.5,0-1,0-1.4c0-0.1,0-0.3,0-0.4c0,0,0.1,0,0.1,0c0,0.8,0,1.6,0,2.4
			C84.2,25.8,84.3,25.6,84.2,25.4z"/>
		<path class="st44" d="M84.2,17.9c0-0.1,0-0.1-0.1-0.2c0.1-0.2,0.1-0.4,0.1-0.6c0.3,0.2,0.3,0.6,0.1,0.8C84.3,18,84.2,18,84.2,17.9
			z"/>
		<path class="st44" d="M84.2,16.8c0-0.3,0-0.6,0-0.9c0,0,0-0.2,0.1-0.1c0.1,0.1,0.2,0.9,0,1C84.2,16.9,84.2,16.8,84.2,16.8z"/>
		<path class="st44" d="M85.2,17.5c0.1,0,0.1,0.1,0.1,0.1c0,0.1,0,0.1-0.1,0.1c-0.1,0-0.1,0-0.1-0.1C85.2,17.6,85.2,17.6,85.2,17.5z
			"/>
		<path class="st44" d="M84.8,18.9c-0.1,0-0.1,0-0.1-0.1c0-0.1,0.1-0.1,0.1-0.1c0.1,0,0.1,0,0.1,0.1C84.9,18.9,84.8,18.9,84.8,18.9z
			"/>
		<path class="st44" d="M84.7,19.8C84.7,20,84.6,20,84.5,20C84.5,19.9,84.6,19.9,84.7,19.8z"/>
		<path class="st44" d="M84.1,21.8c0-0.3-0.1-0.5,0-0.8C84.3,21.3,84.2,21.6,84.1,21.8z"/>
		<path class="st3" d="M62,19.4c-0.5-0.1-0.7-0.5-1-0.9c-0.2-0.2-0.2-0.5-0.4-0.8c0.3,0.1,0.7,0.3,0.9,0.6c0.1,0.1,0.9,0.4,1,0.4
			c0.2-0.1,0.3-0.2,0.3-0.4c0-0.5,0.4-0.7,0.5-1.1c0.1-0.2,0.2-0.3,0.2-0.5c0.1-0.1,0.1-0.1,0.2-0.2c0.2,0.1,0.3,0.2,0.1,0.4
			c-0.1,0.1,0,0.2-0.1,0.3c0,0.1,0,0.1-0.1,0.2c0,0.1,0,0.2-0.1,0.2c-0.2,0.1-0.2,0.3,0,0.4c0,0,0,0.1,0,0.1l0,0
			c-0.1,0.1-0.2,0.3-0.2,0.5c0,0.7-0.6,1.1-1.3,0.9C62.1,19.5,62,19.4,62,19.4z"/>
		<path class="st3" d="M74.1,20.3c-0.4-0.4-0.7-0.9-0.8-1.4c0.1-0.1,0.3-0.1,0.3,0.1c0,0.2,0.2,0.3,0.4,0.4c0.1,0,0.2,0.1,0.3,0.1
			c0.5,0.4,1,0.3,1.3-0.3c0.1-0.2,0.1-0.5,0.4-0.6c0,0.3-0.2,0.6-0.2,0.9c0,0.2,0.1,0.5-0.2,0.6c-0.3,0.2-0.6,0.3-1,0.3
			C74.4,20.4,74.2,20.3,74.1,20.3z"/>
		<path class="st26" d="M75.6,19.4c0.1-0.3,0.1-0.6,0.3-0.9c0,0,0.1,0,0.1-0.1c0,0.4-0.3,0.7-0.2,1C75.7,19.6,75.7,19.5,75.6,19.4z"
			/>
		<path class="st20" d="M69.9,16.6c0.2,0.4,0.1,0.9,0.2,1.3c0.1,0.3,0.1,0.7,0.1,1c-0.1,0.6-0.2,0.9-0.9,0.7c-0.2,0-0.4,0-0.6,0
			c-0.3,0.1-0.4,0-0.4-0.3c0-0.3-0.1-0.4-0.3-0.5c-0.2-0.1-0.3-0.3-0.4-0.4c-0.1-0.2-0.3-0.3-0.4-0.4c-0.2-0.2-0.4-0.4-0.6-0.5
			c-0.1-0.1-0.2-0.1-0.2-0.3c0.2-0.4,0.6-0.7,1-1c0.2,0.3,0.1,0.5-0.1,0.8c-0.1,0.1-0.2,0.4-0.1,0.5c0.2,0.2,0.5,0.3,0.8,0.5
			c0.1-0.2,0.4-0.2,0.5-0.4c0.1-0.3,0.3-0.3,0.5-0.3c0.1,0,0.2-0.1,0.2,0.1c0,0.1,0.1,0.1,0.1,0.1c0.1,0,0.1-0.1,0-0.2
			c-0.1-0.2-0.2-0.5-0.4-0.7c-0.1-0.1-0.2-0.2-0.1-0.3c0.1-0.1,0.2-0.1,0.3,0c0.3,0.1,0.4,0,0.4-0.3c0-0.2,0-0.4,0.1-0.6
			c0.1,0.1,0.1,0,0.2,0c0.1-0.1,0.2,0,0.3,0.1c0,0.1,0.1,0.3,0,0.4C69.8,16,69.8,16.3,69.9,16.6z"/>
		<path class="st1" d="M69.9,16.6c-0.2-0.1-0.3-0.3-0.1-0.5c0.1-0.1,0.1-0.2,0.1-0.3c0.1-0.2,0.1-0.4-0.2-0.4
			c-0.1,0-0.1-0.1-0.1-0.1c0.2-0.3,0.3-0.6,0.5-0.9c0.2-0.4,0.3-0.7,0.6-0.9c0,0,0.1,0.1,0.1,0.1c0.2,0.1,0.1,0.2,0.1,0.4l0,0
			c-0.2,0.1-0.3,0.3-0.3,0.5c-0.2,0.5-0.4,1-0.6,1.5C70,16,70,16.3,69.9,16.6z"/>
		<path class="st45" d="M71.5,13.1c0-0.1,0-0.3,0-0.4c-0.2,0-0.1,0.2-0.3,0.3c-0.1-0.4,0-0.6,0.4-0.8c0.1,0,0.2,0,0.2,0.1
			c0,0.1,0.2,0.3,0,0.3C71.5,12.7,71.6,12.9,71.5,13.1z"/>
		<path class="st45" d="M70.9,13.8c0-0.1-0.1-0.2-0.1-0.4C71,13.3,71,13,71.3,13C71.1,13.3,71,13.5,70.9,13.8z"/>
		<path class="st46" d="M58.3,10.8c-0.1-0.1-0.2,0-0.2,0.1c-0.2,0-0.4,0-0.4-0.2c0-0.3,0-0.6,0.3-0.7c0.3-0.1,0.3-0.3,0.4-0.5
			c0.2-0.5,0.1-1.1,0.4-1.6c0-0.1,0.1-0.2,0.2-0.1c0,0,0,0.1,0,0.2c0,0.2,0,0.3-0.2,0.5c-0.2,0.1-0.3,0.4-0.1,0.5
			c0.3,0.2,0.3,0.5,0.5,0.8c0.1,0.1,0.2,0.3,0,0.4c-0.1,0.1-0.2,0.2-0.4,0.1c-0.1-0.1-0.1-0.1-0.2,0.2c-0.1,0.1,0,0.2,0,0.3
			C58.5,10.7,58.5,10.9,58.3,10.8z"/>
		<path class="st47" d="M58.3,10.8c0.2-0.1,0.2-0.3,0.3-0.4c0,0.5-0.1,1,0,1.6c0.1,0.7,0,1.5,0.3,2.2c0,0.1,0,0.2,0,0.4
			C58.4,13.3,58.4,12.1,58.3,10.8z"/>
		<path class="st43" d="M77.9,17.5c0.1-0.3,0.1-0.6,0.2-0.8c0-0.1,0.1-0.2,0-0.2c-0.3-0.2-0.2-0.5-0.1-0.7c0.1-0.3,0.1-0.6,0.1-0.9
			c0-0.3,0.1-0.6,0.3-0.9c0.2-0.2,0-0.5,0.2-0.7c0,0,0,0,0-0.1c-0.4-0.4-0.3-0.6,0.2-0.9c0.1,0,0.1-0.1,0.1-0.1
			c0.1-0.5,0.5-0.8,0.7-1.3c0.2-0.8,1-1,1.5-0.4c0.2,0.2,0.1,0.5,0.2,0.8c0,0.1,0,0.2,0,0.4c0.1,0,0.1,0.1,0.1,0.2
			c-0.1,0.3-0.1,0.6-0.4,0.9c-0.2,0.2-0.2,0.4-0.3,0.6c0,0.2-0.1,0.4-0.2,0.6c0.2-0.5,0.5-1.1,0.7-1.6c0-0.1,0.1-0.2,0.2-0.2
			c0.3,0.1,0.3,0.3,0.5,0.5c0.1,0.1,0,0.1,0,0.2c0,0-0.1,0.1-0.1,0.2c0.1,0.2,0.1,0.2-0.1,0.2c-0.1,0-0.2,0-0.3,0
			c-0.1,0-0.3,0-0.3,0.2c0,0.2,0.2,0,0.2,0.1c0.1,0.1,0.2,0.2,0.4,0.2c0.1,0.1,0.2,0.2,0.4,0.2c0.3,0.1,0.3,0.1,0.2,0.5
			c0,0,0,0.1,0,0.1c0.2,0.5-0.2,0.4-0.4,0.4c-0.2,0-0.2,0.1-0.2,0.3c0,0.2-0.1,0.5-0.1,0.7c0,0.1-0.1,0.2-0.2,0.2c0,0-0.1,0-0.1,0
			c0.2,0.3,0.1,0.6-0.2,0.7c-0.1,0.1-0.1,0.1-0.1,0.2c0,0.3-0.1,0.6-0.4,0.8c-0.2,0.1-0.2,0.2-0.1,0.4c0.1,0.1,0.1,0.3-0.1,0.4
			c-0.1,0.1-0.1,0.1-0.1,0.3c0,0.2-0.1,0.3-0.2,0.4c-0.2,0.1-0.3,0.3-0.4,0.5c-0.2,0.3-0.5,0.3-0.7,0c-0.1-0.2-0.4-0.3-0.6-0.4
			c-0.2-0.1-0.2-0.3-0.2-0.5c0.1-0.2,0-0.4-0.1-0.5C78.1,18.1,78.1,17.7,77.9,17.5L77.9,17.5z"/>
		<path class="st3" d="M80.5,19.4c-0.1,0.3-0.4,0.6-0.6,0.9c-0.5,0.2-1,0.1-1.4-0.3c-0.4-0.5-0.5-1-0.5-1.6c0-0.3-0.1-0.6-0.1-0.9
			c0.5,0.4,0.9,0.8,0.8,1.5c0,0.3,0.1,0.4,0.3,0.4c0.2,0,0.4,0,0.4,0.3c0,0.1,0,0.1,0.1,0.1c0.1,0,0.2,0,0.2-0.1
			c0-0.3,0.2-0.3,0.4-0.5c0.2-0.2,0.2-0.5,0.3-0.7c0-0.1,0-0.1-0.1-0.2c-0.3-0.2-0.2-0.3,0-0.5c0.4-0.2,0.6-0.5,0.6-1
			c0-0.2,0.1-0.3,0.3-0.2c0,0,0.1,0,0.1,0c0.1-0.1,0.1-0.2,0-0.3c-0.1-0.2-0.3-0.2-0.3-0.5c0.4,0.2,0.4,0,0.4-0.3
			c0-0.2,0.1-0.5,0.2-0.7c0.1-0.1,0.2-0.3,0.3,0c0,0.1,0,0.2,0,0.3c0.2,0.2,0.2,0.4-0.1,0.7c0,0.1,0,0.1-0.1,0.2
			c0.2,0.2,0,0.5-0.1,0.6c-0.2,0.2-0.3,0.4-0.2,0.7"/>
		<path class="st48" d="M81.5,12.2c-0.2,0.7-0.5,1.4-0.8,2c0,0.1-0.1,0.3-0.2,0.2c-0.1-0.1-0.1-0.2,0-0.3c0.1-0.3,0.1-0.6,0.2-0.9
			c0.1-0.3,0.1-0.5,0.4-0.8c0.2-0.2,0.2-0.5,0.3-0.8c0-0.1,0.1-0.2,0.1-0.3c0.1,0,0.1,0.1,0.2,0.2C81.5,11.7,81.5,12,81.5,12.2z"/>
		<path class="st49" d="M81.5,17.4c-0.2-0.2-0.2-0.3,0-0.5c0.2-0.2,0.3-0.4,0.4-0.7c0.1,0,0.2,0.1,0.3,0.2c-0.3,0.1-0.1,0.4-0.3,0.5
			c-0.1,0.1-0.2,0.3-0.2,0.4C81.6,17.4,81.5,17.5,81.5,17.4z"/>
		<path class="st43" d="M81.9,16c0.1-0.2,0.2-0.5,0.1-0.7c0.2-0.1,0.3,0.1,0.4,0.2c0.1,0.1-0.1,0.2-0.1,0.2
			C82.2,15.8,82.1,15.9,81.9,16z"/>
		<path class="st43" d="M83,14.5c0-0.1,0.1-0.2,0.2-0.2c0.1,0,0.1,0,0.1,0.1c0,0.1-0.1,0.2-0.2,0.2C83.1,14.6,83.1,14.5,83,14.5z"/>
		<path class="st50" d="M63.7,17.1c-0.1-0.2,0.2-0.4,0.1-0.7c0.3-0.3,0.5-0.6,0.5-1c0,0,0-0.1,0-0.1c0.5-0.9,0.9-1.8,1-2.8
			c0-0.2,0.3-0.4,0.2-0.7c0.2-0.2,0.4-0.2,0.7-0.4c0,0,0,0,0,0c0-0.1,0.1-0.1,0.1,0c0.2,0.2-0.1,0.5,0,0.7c-0.1,0.1-0.2,0.2-0.3,0.1
			c-0.3-0.1-0.2,0.2-0.3,0.3c-0.2,0.9-0.5,1.7-0.8,2.5c-0.1,0.3-0.3,0.6-0.4,0.9c-0.1,0.4-0.3,0.7-0.6,1.1
			C63.8,17.1,63.8,17.3,63.7,17.1z"/>
		<path class="st6" d="M66,12.3c0.1,0,0.2,0,0.3-0.1c0.1,0.3,0.3,0,0.4,0c0.2,0.5-0.1,0.8-0.2,1.2c-0.1,0.2-0.2,0.3-0.1,0.5
			c0,0.1,0,0.2-0.2,0.1c0,0.1,0,0.1-0.1,0C66,13.5,65.9,12.9,66,12.3z"/>
		<path class="st6" d="M66.4,11.1c0-0.3,0.2-0.6,0.3-0.9c0-0.1,0.2-0.3-0.1-0.3c-0.1,0-0.1-0.1,0-0.1c0.1-0.1,0.3-0.2,0.5-0.1
			c0.2,0.2,0.3,0.7,0.1,0.9c-0.1,0.3-0.3,0.5-0.1,0.9c0,0.1,0,0.2-0.1,0.2c-0.2,0-0.1-0.1-0.1-0.2c0-0.2-0.2-0.2-0.3-0.3
			C66.5,11.3,66.4,11.2,66.4,11.1z"/>
		<path class="st49" d="M66.1,14.2C66.1,14.2,66.1,14.2,66.1,14.2c0.1,0.1,0.1,0.2,0.2,0.3c0.4,0.5,0.2,1.1,0.3,1.6c0,0,0,0-0.1,0.1
			c-0.1-0.2-0.1-0.4-0.2-0.6C66.1,15.1,66.1,14.6,66.1,14.2z"/>
		<path class="st6" d="M66.4,11.1c0.1,0.1,0.1,0.1,0.2,0.2c-0.1,0-0.2,0.1-0.3,0.2c0,0-0.1,0-0.1,0C66.1,11.3,66.2,11.2,66.4,11.1z"
			/>
		<path class="st51" d="M34.2,19.3c-0.3-0.4-0.5-0.9-0.7-1.3c-0.2-0.4-0.5-0.8-0.7-1.3c-0.6-1.1-0.9-2.3-1-3.5c0,0,0-0.1,0-0.1
			c0.2-0.7-0.2-1.3-0.3-1.9c0-0.2-0.1-0.3,0-0.4c0.1-0.1,0.2-0.3,0.3-0.4c0.1-0.1,0-0.2,0.2-0.2c0.1,0.1,0,0.2,0,0.3
			c0,0.1-0.1,0.1-0.1,0.2c0.1,0.2,0.2,0,0.3,0.1c0,0.1-0.1,0.1-0.2,0.2c-0.1,0.1-0.1,0.1-0.1,0.2c0.1,0.1,0.2,0.1,0.2,0
			c0.3-0.2,0.6-0.3,0.8-0.6c0.2-0.3,0.1-0.7-0.3-0.7c-0.1,0-0.1,0-0.1-0.1c-0.1-0.2-0.2-0.2-0.4-0.2c-0.2,0-0.3,0-0.4-0.1
			c-0.1-0.1-0.2-0.1-0.2-0.3c0-0.1,0.2-0.2,0.3-0.2c0.5,0,0.9-0.1,1.1-0.5c0.1-0.1,0.2-0.3,0.4-0.2c0.2,0,0.2,0.2,0.2,0.3
			c0,0.3,0.2,0.3,0.3,0.1c0,0,0.1-0.1,0.1-0.1C34,8.4,34,8.3,34.2,8.3c0.1,0,0.1,0.2,0.1,0.3C34.4,8.9,34.5,9,35,8.9
			c0.2,0.2,0,0.4,0,0.6C35,9.7,35,10,35.1,10.2c0.3,0.1,0.3,0.4,0.3,0.6c-0.1,1.6,0.2,3.2,0.4,4.8c0,0.3,0.1,0.6,0.2,0.9
			c0,0.1,0.1,0,0,0c0,0,0,0,0,0c0.2-0.4,0.4-0.7,0.4-1.1c0-0.2,0.2-0.3,0.4-0.2c0.1,0,0.2,0,0.2,0.1c0,0.1-0.1,0.1-0.1,0.2
			c-0.2,0.1-0.3,0.3,0,0.3c0.3,0.1,0,0.3,0.1,0.4c0.2,0,0.2-0.2,0.3-0.3c0-0.1,0.1-0.1,0.2-0.1c0.1,0,0,0.1,0,0.2
			c0.1,0.4-0.2,0.8-0.3,1.2c0,0.2,0,0.3,0,0.5c0,0.2-0.1,0.3-0.2,0.4c-0.1,0.4-0.4,0.7-0.6,1c-0.1,0.2-0.3,0.4-0.4,0.7
			c0,0,0,0.1-0.1,0.1c-0.3,0.3-1.1,0.2-1.3-0.1C34.5,19.7,34.4,19.4,34.2,19.3z"/>
		<path class="st3" d="M42.5,20.6c-0.5,0.7-1,0.9-1.6,0.7c0.5-0.2,0.9-0.6,1.2-1c0.2-0.2,0.5-0.5,0.5-0.8c0,0,0,0,0.1,0
			c0.2,0.2,0.1,0.5,0.1,0.7C42.7,20.4,42.6,20.5,42.5,20.6z"/>
		<path class="st28" d="M37.5,13.6c0.1-0.4,0.2-0.7,0.4-1.1c0.1,0.3,0.1,0.7,0,1C37.8,13.6,37.7,13.8,37.5,13.6z"/>
		<path class="st52" d="M38,15.5c0,0-0.1,0-0.1,0c0-0.2-0.1-0.3,0.1-0.5C38.1,15.2,38,15.4,38,15.5z"/>
		<path class="st28" d="M37.9,12.5c0-0.3,0.1-0.6,0.2-1c0,0,0,0.1,0,0.1C38.1,11.9,38.1,12.2,37.9,12.5z"/>
		<path class="st2" d="M54.8,18.5c-0.5,0.2-0.9-0.1-1.2-0.3c-0.7-0.5-1.1-1.1-1.2-1.9c0.2,0.3,0.7,0.4,0.7,0.8
			c0.1,0.4,0.5,0.6,0.8,0.8c0.1,0.1,0.2,0,0.3-0.1c0.2-0.2,0.4-0.2,0.7-0.1C55.1,18.1,55,18.3,54.8,18.5z"/>
		<path class="st50" d="M54.8,18.5c-0.1-0.3,0-0.5,0.1-0.7c0.3,0.1,0.4-0.2,0.5-0.4C55.4,17.9,55.4,18.4,54.8,18.5z"/>
		<path class="st38" d="M30.2,9.3c0.5,0,0.5,0.1,0.4,0.5c0,0.1-0.1,0.2-0.1,0.4c-0.1-0.5-0.1-0.5-0.6-0.6C30,9.5,30.2,9.5,30.2,9.3z
			"/>
		<path class="st51" d="M33,7.4c0.1,0.3,0,0.4-0.1,0.5C32.8,7.7,32.8,7.6,33,7.4z"/>
		<path class="st2" d="M49.5,15c-0.1,0.7-0.2,1.4-0.6,1.9c-0.3,0.4-1.1,0.5-1.5,0.4C47.2,17.3,47,17.2,47,17
			c0.2,0.1,0.4,0.3,0.7,0.1c0.2,0,0.5-0.3,0.7-0.4c0.3-0.2,0.4-0.5,0.4-0.9c0-0.1,0-0.1,0.1-0.2c0.4-0.2,0.3-0.6,0.3-0.9
			c0-0.3,0.1-0.5,0.5-0.5c0,0.2,0.1,0.3,0.1,0.5C49.5,14.7,49.6,14.9,49.5,15z"/>
		<path class="st27" d="M42.5,20.6c0-0.1,0.1-0.2,0.1-0.4c0.2-0.4,0.4-0.8,0.7-1.2c0.2-0.6,0.6-1.1,0.9-1.7c0,0.1,0,0.1,0,0.2
			c-0.2,0.3-0.3,0.6-0.3,0.9c0,0,0,0.1-0.1,0.1c-0.2,0.2-0.3,0.4-0.4,0.7C43.2,19.8,43,20.4,42.5,20.6z"/>
		<path class="st53" d="M45.6,15.4c-0.4,0.3-0.5,0.7-0.8,1.1c-0.2,0.2-0.3,0.6-0.5,0.8c0-0.4,0.3-0.8,0.3-1.2c0-0.1,0.2-0.1,0.3-0.1
			c0.2-0.1,0.2-0.2,0.3-0.4C45.3,15.4,45.4,15.2,45.6,15.4z"/>
		<path class="st26" d="M43.4,19.1c-0.1,0.5-0.4,0.9-0.7,1.2c0-0.2,0-0.5,0.1-0.7c0.2,0,0.2,0,0.3-0.2
			C43.1,19.3,43.2,19.2,43.4,19.1z"/>
		<path class="st16" d="M52.6,9.9c0,0.1-0.1,0.2-0.1,0.2C52.3,10,52.2,9.8,52,9.6c0-0.1,0-0.2,0.1-0.1C52.4,9.6,52.5,9.7,52.6,9.9z"
			/>
		<path class="st8" d="M51.4,9.1c-0.3,0.1-0.2,0.3-0.3,0.5C51,10,51,10.5,50.8,11c-0.1,0.1-0.1,0.2-0.2,0.3c-0.1-0.1,0-0.2,0-0.3
			c0-0.1,0.1-0.2,0-0.3c-0.4-0.2-0.1-0.4,0-0.6c0.2-0.3,0.3-0.6,0.2-0.9C50.7,9,50.7,8.8,51,8.7C51.4,8.6,51.3,8.9,51.4,9.1z"/>
		<path class="st34" d="M50.5,11.7c0,0.3-0.2,0.5-0.4,0.8c0,0.1,0,0.2-0.1,0.1C49.9,12.2,50.3,11.9,50.5,11.7z"/>
		<path class="st14" d="M50,12.6c0,0,0.1-0.1,0.1-0.1c0.1,0.3,0,0.6-0.2,0.9C50,13.1,50,12.9,50,12.6z"/>
		<path class="st4" d="M50.1,11.2c0,0.2,0,0.2-0.2,0.3C50,11.3,50,11.2,50.1,11.2z"/>
		<path class="st31" d="M32.2,5.7c0.2,0,0.5,0,0.7,0.2c0,0,0,0.1,0,0.1C32.6,6.1,32.4,5.8,32.2,5.7z"/>
		<path class="st21" d="M34.2,19.3c0.3,0.1,0.5,0.2,0.6,0.5c0.2,0.3,1,0.3,1.1,0c0.2-0.4,0.5-0.6,0.7-0.9c0.2-0.2,0.2-0.5,0.5-0.6
			c0,0.2,0,0.4-0.2,0.6c-0.2,0.3-0.5,0.7-0.3,1.1c0,0.1-0.1,0.1-0.1,0.2c-0.2,0.2-0.4,0.3-0.6,0.4c-0.7,0.2-1.1-0.2-1.5-0.7
			C34.4,19.7,34.3,19.5,34.2,19.3z"/>
		<path class="st38" d="M23.7,22.8c0.2,0.3-0.1,0.6,0.1,0.8c0,0-0.1,0.1-0.2,0.1c-0.1,0-0.2-0.1-0.2-0.2
			C23.4,23.3,23.5,23,23.7,22.8z"/>
		<path class="st54" d="M38.3,20.5c0-0.3-0.2-0.3-0.4-0.3c0.2-0.2,0.3-0.3,0.5-0.2C38.6,20.1,38.5,20.4,38.3,20.5z"/>
		<path class="st38" d="M22.8,22.9c0.5,0.1,0.1,0.4,0.1,0.6C22.7,23.4,22.7,23.1,22.8,22.9C22.8,22.9,22.8,22.9,22.8,22.9z"/>
		<path class="st54" d="M38.7,20.5c0-0.1,0-0.2,0.1-0.3c0.1,0,0.1,0.1,0.1,0.2c0,0.1,0,0.2-0.1,0.3C38.7,20.7,38.8,20.6,38.7,20.5z"
			/>
		<path class="st54" d="M38.8,19.7c-0.2,0-0.4,0.1-0.5,0c0,0,0-0.1,0.1-0.1C38.6,19.4,38.7,19.5,38.8,19.7z"/>
		<path class="st55" d="M36.7,19.8c-0.2-0.4-0.1-0.7,0.3-1.1C36.8,19.1,36.6,19.4,36.7,19.8z"/>
		<path class="st54" d="M43.9,18.6C43.9,18.6,43.9,18.6,43.9,18.6c0.2,0,0.3,0.1,0.5,0.2C44.1,19,44,18.8,43.9,18.6z"/>
		<path class="st55" d="M36,20.5c0.1-0.2,0.3-0.4,0.6-0.4C36.5,20.4,36.3,20.4,36,20.5z"/>
		<path class="st38" d="M23.3,21.2c-0.2,0-0.3-0.1-0.4-0.3c0-0.1-0.1-0.1,0-0.2c0.1,0,0.1,0,0.2,0.1C23.2,20.9,23.2,21,23.3,21.2
			L23.3,21.2z"/>
		<path class="st54" d="M38.3,20.5c0.1,0.1,0.2,0.3,0,0.4h0C38.3,20.8,38,20.7,38.3,20.5z"/>
		<path class="st54" d="M37,20.3c0.1,0.2-0.1,0.4-0.3,0.5C36.8,20.5,36.9,20.4,37,20.3z"/>
		<path class="st54" d="M37.5,19.5c0,0.1-0.1,0.1-0.1,0.1c-0.1,0-0.1,0-0.1-0.1C37.3,19.5,37.4,19.4,37.5,19.5
			C37.5,19.4,37.5,19.5,37.5,19.5z"/>
		<path class="st41" d="M17.8,6.7c0-0.4,0-0.8,0.3-1.2C18,5.9,17.9,6.3,17.8,6.7z"/>
		<path class="st56" d="M18.2,5.4c-0.1-0.2,0-0.4,0.1-0.6c0.1-0.2,0.1-0.3,0.2-0.5C18.4,4.7,18.3,5.1,18.2,5.4z"/>
		<path class="st57" d="M28.5,14.4c-0.1-0.3,0.1-0.4,0.3-0.5C28.7,14.1,28.6,14.2,28.5,14.4z"/>
		<path class="st58" d="M24.4,19.9c0,0.1-0.1,0.1-0.1,0.1c-0.1,0-0.1-0.1,0-0.1C24.2,19.8,24.3,19.8,24.4,19.9
			C24.4,19.8,24.4,19.8,24.4,19.9z"/>
		<path class="st28" d="M22.8,4.2c0.1-0.4,0.2-0.9,0.3-1.3c0.1-0.2,0.5,0,0.5-0.3c0,0,0.2,0,0.1,0.1c-0.2,0.6,0.1,1.1,0.1,1.7
			c-0.1-0.2-0.2-0.2-0.3-0.1C23.2,4.4,23,4.3,22.8,4.2z"/>
		<path class="st28" d="M23.6,5.3c-0.2,0-0.4,0-0.4-0.3c0-0.2,0.2-0.4,0.3-0.6c0.1-0.1,0.1,0,0.1,0.1c0,0.1-0.1,0.2,0,0.3
			C23.8,5,23.6,5.1,23.6,5.3z"/>
		<path class="st39" d="M29.3,11.1C29.4,11.2,29.4,11.2,29.3,11.1c0.1,0.1,0,0.2,0,0.2c0,0-0.1,0-0.1-0.1
			C29.2,11.2,29.3,11.2,29.3,11.1z"/>
		<path class="st36" d="M25.3,12.4C25.3,12.4,25.3,12.4,25.3,12.4c-0.2,0.1-0.4,0.1-0.5-0.1c0-0.1,0-0.1,0.1-0.1
			C25.1,12.1,25.2,12.2,25.3,12.4C25.3,12.4,25.3,12.4,25.3,12.4z"/>
		<path class="st36" d="M24.9,11.3c0.2,0,0.4-0.1,0.5,0.1c0,0,0,0.1,0,0.1C25.1,11.6,25,11.4,24.9,11.3z"/>
		<path class="st31" d="M25.3,9.3C25.4,9,25.6,8.9,25.9,9C25.7,9.1,25.7,9.4,25.3,9.3z"/>
		<path class="st31" d="M31.8,6.1c0-0.1,0-0.2,0-0.4c0-0.2,0.1-0.3,0.3-0.2C32,5.8,32.2,6.1,31.8,6.1z"/>
		<path class="st59" d="M67.2,17.9c0.3,0.1,0.5,0.4,0.8,0.5c0,0,0,0.1,0,0.1c0.4,0.1,0.5,0.4,0.5,0.8c0,0.1,0.1,0.1,0.2,0.1
			c0.2-0.2,0.4-0.1,0.7,0c0.3,0.1,0.5,0,0.5-0.3c0-0.3,0.3,0,0.3-0.2c0.1,0.2,0.1,0.5,0.1,0.8c0,0.2-0.1,0.4-0.4,0.6
			c-0.6,0.3-1.6,0.1-1.9-0.8C67.8,18.9,67.6,18.3,67.2,17.9z"/>
		<path class="st8" d="M75.6,19.4c0.1,0,0.1,0,0.2,0.1c0.2,0.3,0.1,0.8-0.3,1c-0.5,0.2-1,0.2-1.4-0.2c0.5,0,0.8-0.2,1.2-0.4
			C75.5,19.8,75.6,19.6,75.6,19.4z"/>
		<path class="st60" d="M62,19.4c0.2,0,0.4,0.1,0.5,0c0.4-0.1,0.6-0.3,0.7-0.7c0-0.2,0.1-0.5,0.4-0.5c0,0.2,0,0.4,0,0.6
			c0,0.4-0.3,0.6-0.5,0.8C62.7,19.7,62.3,19.7,62,19.4z"/>
		<path class="st61" d="M63.7,17.1c0.2-0.3,0.5-0.5,0.6-0.9c0-0.1,0.1-0.2,0.2-0.3c0,0.3-0.1,0.5-0.3,0.7c-0.2,0.3-0.3,0.7-0.5,1.1
			c0,0.1-0.1,0.3-0.2,0.4c0,0,0-0.1,0-0.1c-0.2-0.3-0.1-0.5,0-0.7C63.6,17.2,63.6,17.2,63.7,17.1z"/>
		<path class="st60" d="M49.5,15c-0.1-0.1-0.2-0.1-0.2-0.3c0.1-0.1,0.2-0.1,0.3-0.1C49.7,14.8,49.6,14.9,49.5,15z"/>
		<path class="st26" d="M70.6,14.3c-0.1-0.3,0-0.4,0.3-0.5C70.8,14,70.7,14.2,70.6,14.3z"/>
		<path class="st18" d="M79.7,23.7c0,0.2,0,0.4-0.2,0.5C79.5,24,79.6,23.8,79.7,23.7C79.7,23.7,79.7,23.7,79.7,23.7z"/>
		<path class="st5" d="M81.1,20.3c-0.3,0.3-0.6,0.7-0.9,1c-0.1-0.4-0.1-0.4,0.2-0.7c-0.1,0-0.4,0.1-0.4-0.1c0.1,0,0.1-0.1,0.2-0.1
			c0.5-0.3,0.9-0.5,1.5-0.7C81.6,20,81.3,20.1,81.1,20.3z"/>
		<path class="st54" d="M78.9,23.1C78.9,23.1,78.8,23.1,78.9,23.1c-0.1,0.2-0.2,0.3-0.3,0.3c-0.1,0-0.2,0.1-0.3,0
			c0-0.1,0-0.2,0.1-0.3C78.6,23,78.7,23,78.9,23.1z"/>
		<path class="st54" d="M78.4,24.3c-0.1,0.1-0.1,0.2-0.3,0.2c-0.1,0-0.1,0-0.1-0.1c0-0.1,0.1-0.2,0.2-0.2
			C78.4,24.3,78.4,24.3,78.4,24.3z"/>
		<path class="st54" d="M78.2,25.2C78.2,25.2,78.2,25.3,78.2,25.2c-0.1,0.1-0.2,0.1-0.2,0c0-0.1,0-0.1,0.1-0.1
			C78.2,25.1,78.2,25.1,78.2,25.2z"/>
		<path class="st60" d="M63.6,17.3c0,0.2,0,0.5,0,0.7C63.2,17.8,63.5,17.5,63.6,17.3z"/>
		<path class="st0" d="M69.9,17c0,0.1-0.1,0.1-0.2,0.1c0,0-0.1,0-0.1-0.1C69.6,16.9,69.7,16.9,69.9,17C69.8,16.9,69.9,17,69.9,17z"
			/>
	</g>
</g>
</svg>
