<?xml version="1.0" encoding="utf-8"?>
<!-- Generator: Adobe Illustrator 20.0.0, SVG Export Plug-In . SVG Version: 6.00 Build 0)  -->
<svg version="1.1" id="Layer_1" xmlns="http://www.w3.org/2000/svg" xmlns:xlink="http://www.w3.org/1999/xlink" x="0px" y="0px"
	 viewBox="0 0 100 30" style="enable-background:new 0 0 100 30;" xml:space="preserve">
<style type="text/css">
	.st0{fill:#222222;}
	.st1{fill:#303030;}
	.st2{fill:#131313;}
	.st3{fill:#1F1F1F;}
	.st4{fill:#1B1B1B;}
	.st5{fill:#1C1C1C;}
	.st6{fill:#242424;}
	.st7{fill:#707070;}
	.st8{fill:#282828;}
	.st9{fill:#929292;}
	.st10{fill:#2F2F2F;}
	.st11{fill:#B0B0B0;}
	.st12{fill:#898989;}
	.st13{fill:#999999;}
	.st14{fill:#989898;}
	.st15{fill:#2E2E2E;}
	.st16{fill:#777777;}
	.st17{fill:#141414;}
	.st18{fill:#252525;}
	.st19{fill:#1D1D1D;}
	.st20{fill:#202020;}
	.st21{fill:#939393;}
	.st22{fill:#383838;}
	.st23{fill:#757575;}
	.st24{fill:#888888;}
	.st25{fill:#A2A2A2;}
	.st26{fill:#171717;}
	.st27{fill:#AAAAAA;}
	.st28{fill:#969696;}
	.st29{fill:#909090;}
	.st30{fill:#919191;}
	.st31{fill:#9B9B9B;}
	.st32{fill:#9E9E9E;}
	.st33{fill:#2C2C2C;}
	.st34{fill:#9D9D9D;}
	.st35{fill:#9A9A9A;}
	.st36{fill:#8A8A8A;}
	.st37{fill:#8B8B8B;}
	.st38{fill:#363636;}
	.st39{fill:#A0A0A0;}
	.st40{fill:#696969;}
	.st41{fill:#666666;}
	.st42{fill:#828282;}
</style>
<g id="lopjch.tif">
	<g>
		<path class="st0" d="M73.2,13.1c-0.2,0.6-0.6,1.1-1,1.6c-0.3,0.4-0.7,0.6-1.2,0.7c-0.2,0.1-0.5,0.1-0.8,0.2
			c-0.2-0.1-0.1-0.2,0-0.2c0.3-0.1,0.6-0.3,0.9-0.5c0.4-0.2,0.6-0.5,0.8-0.9c0.2-0.3,0.4-0.7,0.6-1c0.1,0,0,0,0,0
			c-0.1,0.1-0.2,0-0.3,0c0-0.4,0.1-0.8,0-1.2c0.2-0.1,0.2-0.2,0.1-0.4c0-0.2-0.1-0.3-0.1-0.4c0-0.2,0.1-0.3,0.3-0.2
			c0.2,0.3,0.4,0.6,0.5,1C73.2,12.1,73.2,12.6,73.2,13.1z"/>
		<path class="st1" d="M73.2,11.7c-0.3-0.2-0.4-0.6-0.6-0.9c0,0,0,0,0-0.1c0.2-0.1,0.2,0,0.3,0.1c0.1,0.1,0.1,0.3,0.3,0.3
			C73.2,11.4,73.2,11.5,73.2,11.7z"/>
		<path class="st2" d="M48.4,28.6c-0.2-0.2-0.4-0.3-0.3-0.6c-0.1-0.4-0.1-0.8-0.1-1.2c-0.1-0.4-0.1-0.9,0.1-1.3
			c0.2-0.6,0.4-1.2,0.7-1.8c0-0.1,0.1-0.2,0.1-0.3c-0.1-1.1-0.1-2.1-0.3-3.2c0-0.1,0-0.2-0.1-0.2c-0.4,0.1-0.7,0.3-0.9,0.7
			c0,0.1-0.1,0.2-0.2,0.2c-0.5,0-0.7,0.4-1,0.6c-0.1,0.1-0.1,0.2-0.2,0.1c-0.9,0.1-1.4-0.5-2-1.1c0,0,0-0.1,0-0.1
			c-0.1-0.3-0.2-0.5-0.3-0.8c-0.2-0.6-0.2-1.2-0.1-1.8c0-0.2,0-0.5,0.1-0.7c0.1-0.7,0.2-1.5,0.4-2.2c0.2-0.9,0.4-1.8,0.8-2.6
			c0.1-0.1,0.1-0.3,0.3-0.4c0.1-0.1,0.2-0.2,0.1-0.4c0.1-0.2,0.2-0.4,0.4-0.6c0.3-0.3,0.6-0.3,0.9-0.2c0.2,0,0.2-0.1,0.2-0.2
			c0-0.1,0.1-0.1,0.2-0.1c0.1,0,0.2,0.1,0.3,0c0.3-0.2,0.6,0,0.9,0.2c0.3,0.1,0.3,0.4,0.2,0.7c0,0,0,0,0,0.1c0,0.3-0.2,0.6-0.3,1
			c-0.5,1-1.2,1.8-1.3,3c0,0,0,0.1-0.1,0.1c-0.1,0.4-0.3,0.7-0.2,1.1c0.2,0.1,0.3,0,0.4-0.1c0.4-0.3,0.7-0.6,1-1
			c0.3-0.4,0.4-0.8,0.4-1.3c0-0.6,0-1.1,0.2-1.6c0-0.1,0-0.2,0.2-0.2c0.1-0.2,0-0.5,0.2-0.7c0.2-0.1,0.5-0.2,0.7-0.2
			c0.3,0,0.4,0.1,0.4,0.4c0,0.4,0.1,0.7,0.4,0.8c0.2,0.1,0.2,0.3,0.1,0.5c-0.1,0.2-0.1,0.3-0.1,0.5c0,0.4-0.1,0.8,0,1.2
			c0,0.6,0,1.1,0,1.7c0.2,0.4,0.1,0.8,0.2,1.2c0.1,0.3,0.1,0.6,0.2,0.9c0.1,0,0.1,0.1,0.2,0.2c0,0.4,0,0.8,0.1,1.1
			c0.4-0.4,0.6-0.9,0.5-1.5c-0.1-1-0.1-2-0.1-3c0-0.4-0.1-0.7,0-1.1c0.1-0.6,0.2-1.2,0.5-1.8c0.3-0.5,0.7-0.9,1.2-1.2
			c0.1,0,0.2,0,0.3,0.1c0.1,0.3,0.4,0.3,0.6,0.2c0.1,0,0.2-0.1,0.2-0.1c0.2,0,0.4-0.3,0.5-0.1c0.2,0.2,0.3,0.5,0.2,0.8
			c-0.1,0.2-0.3,0.4-0.4,0.6c0,0.3-0.1,0.5,0,0.8c0.1,0.2,0,0.5,0,0.8c-0.1,0.1-0.2,0.3-0.2,0.5c0,0.1,0,0.1,0,0.2
			c-0.1,0.4,0,0.8,0.1,1.2c0.1,0.1,0.1,0.3,0.1,0.4c0.1,0.7,0.7,1,1.4,0.8c1-0.3,1.7-0.9,2.5-1.6c0.1-0.1,0.2-0.2,0.3-0.3
			c0.2,0.1,0.4,0.2,0.4,0.5c0,0.2,0.1,0.3,0.3,0.5c0.1,0.1,0.1,0.2,0.1,0.4c-0.1,0.1,0,0.3,0,0.4c0,0.1,0.1,0.1,0,0.2
			c0,0-0.1,0-0.2,0c-0.4,0.7-0.7,1.3-1.2,1.9c-0.5,0.5-0.9,1.1-1.6,1.5c-1,0.6-2,0.9-3.1,0.4c-0.1,0-0.1,0-0.2-0.1
			c-0.6-0.3-1-0.7-1.3-1.2c-0.1-0.2-0.3-0.3-0.5,0c0,0.1-0.1,0.2-0.2,0.3c-0.2,0.5-0.1,1-0.1,1.5c0,0,0,0,0,0.1c0,0.2,0,0.4,0.1,0.6
			c0,0.1,0.2,0.3,0,0.4c0,0.9-0.1,1.8-0.2,2.7c0,0.4,0,0.8-0.2,1.2c0,0,0,0.1,0,0.1c-0.4,0.4-0.6,1-1,1.3c-0.3,0.3-0.5,0.3-0.8,0.1
			C48.8,28.6,48.6,28.6,48.4,28.6z"/>
		<path class="st2" d="M30,15.4C30,15.4,30,15.5,30,15.4c-0.2,0.1-0.3,0-0.3-0.1c0-0.2-0.1-0.3-0.4-0.4c-0.3-0.1-0.1-0.3,0-0.4
			c0-0.1,0.1-0.2,0.2-0.2c0.4-0.1,0.6-0.4,0.9-0.6c0.3-0.1,0.2-0.4,0.1-0.6c-0.1-0.2-0.1-0.4,0-0.7c0-0.1,0-0.2,0-0.3
			c-0.3-0.7-0.2-1.4-0.2-2.2c0-0.3,0-0.6-0.1-0.8c-0.3-0.6-0.1-1.2,0.3-1.7c0.2-0.3,0.3-0.6,0.4-1c0.3-1,0.8-1.9,1.7-2.6
			c0.4,0.1,0.8-0.1,1-0.4c0.1-0.2,0.2-0.2,0.4-0.1c0.2,0.2,0.5,0.2,0.7,0.5c0.2,0.2,0.1,0.3,0,0.5c-0.1,0.1-0.2,0.3-0.4,0.2
			c0.2,0.4,0.1,0.6-0.3,0.6c-0.3,0-0.3,0.1-0.2,0.4c0.2,0.4,0.2,0.7,0.2,1.1c0,0.1,0,0.1,0,0.2c-0.1,0.6-0.4,1.2-0.4,1.9
			c0,0.1,0,0.3,0,0.4c0,0.2,0,0.5,0.1,0.7c0,0.3,0,0.7,0,1c0,0.3-0.1,0.5-0.1,0.8c0,0.1,0,0.3,0.2,0.2c0.3,0.2,0.4,0.5,0.2,0.8
			c-0.1,0.1-0.2,0.2,0,0.4c0.1,0.1,0,0.2-0.1,0.3c-0.5,0.4-0.4,0.9-0.3,1.4c0,0.3,0.2,0.5,0.2,0.7c0.1,0.4-0.1,0.8,0.2,1.2
			c0,0.1,0.1,0.1,0.2,0.1c0.4,0.6,1.2,0.8,1.8,0.4c0.2-0.1,0.2-0.3,0.3-0.5c0.1-0.3,0.2-0.6,0.3-0.9c0.3-0.9,0.9-1.6,1.4-2.4
			c0.2-0.3,0.5-0.5,0.6-0.9c0-0.1,0.1-0.1,0.2-0.2c0.2-0.1,0.4-0.2,0.5-0.4c0.1-0.1,0.2-0.2,0.3-0.3c0-0.1,0.2-0.1,0.3-0.1
			c0.1-0.1,0.1-0.1,0.2-0.2c0-0.2,0.1-0.3,0.2-0.4c0.2-0.1,0.3-0.1,0.3-0.4c0-0.1,0.1-0.2,0.2-0.2c0.1,0,0.3,0,0.3,0.2
			c0,0.3,0.1,0.6,0.3,0.8c0.1,0.1,0.1,0.2,0,0.3c-0.1,0.3,0,0.4,0.2,0.6c0.3,0.3,0.3,0.4,0.1,0.7c-0.1,0.1-0.1,0.3-0.1,0.5
			c0,0.2-0.1,0.3-0.1,0.5c0,0.1,0,0.1,0,0.2c-0.2,0.4-0.5,0.7-0.7,1c-0.3,0.2-0.3,0.5-0.6,0.7c-0.1,0-0.2,0.1-0.3,0.2
			c-0.1,0.3-0.5,0.5-0.5,0.9c-0.1,0.2-0.2,0.4-0.3,0.5c-0.1,0.2-0.1,0.3,0.2,0.3c0.3,0,0.6,0,0.9-0.1c0.2-0.1,0.4-0.3,0.5-0.5
			c0.1-0.2,0.2-0.5,0.3-0.7c0.5-0.7,0.6-1.5,0.7-2.3c0-0.4,0.1-0.7,0.2-1.1c0.5-0.5,0.8-0.4,1,0.3c0.1,0.2,0.2,0.4,0.3,0.6
			c0,0.1,0.2,0.1,0.3,0.1c0.1,0.1,0.2,0,0.3,0.2c0,0.2,0.1,0.3,0.1,0.4c0,0,0,0.1,0,0.1c0,0.5,0,1.1,0.1,1.6
			c-0.1,0.5-0.1,0.9-0.2,1.4c-0.1,0.4-0.2,0.8-0.3,1.3c0,0.1-0.1,0.3,0,0.4c0,0.2-0.2,0.3-0.2,0.4c-0.2,0.2-0.5,0.2-0.5,0.5
			c-0.1,0.2-0.3,0.3-0.5,0.5c-0.1,0.1-0.2,0.3-0.2,0.4c0,0.1,0,0.1-0.1,0.2c-0.1,0.2-0.3,0.3-0.5,0.3c-0.3,0.1-0.5,0.2-0.7,0.3
			c-0.1,0-0.2,0.1-0.4,0.1c-0.1,0-0.2,0-0.3,0c-0.5,0.2-1,0.2-1.5-0.1c-0.1-0.1-0.3-0.1-0.4-0.2c-0.3-0.2-0.7-0.2-0.9-0.6
			c-0.1-0.2-0.3-0.3-0.4,0c-0.1,0-0.2,0.1-0.3,0c-0.2-0.1-0.3,0-0.5,0c-0.2,0-0.3,0-0.5,0c-0.1,0-0.2,0-0.3,0c0,0-0.1,0-0.1,0
			c-0.1-0.1-0.3-0.1-0.4-0.3c-0.6-0.4-1.1-0.8-1.6-1.4c-0.3-0.4-0.6-0.7-0.9-1.1c-0.3-0.4-0.5-0.8-0.6-1.3c-0.2-0.6-0.3-1.3-0.5-1.9
			c-0.1-0.2-0.2-0.3-0.4-0.2C30.3,15.2,30.1,15.3,30,15.4z"/>
		<path class="st3" d="M35.8,10.5c-0.6,0.7-1,1.7-1.8,2.3c-0.2,0.2-0.2,0.5-0.5,0.6c0.1-0.2,0.2-0.5,0.3-0.7
			c0.1-0.2,0.1-0.4-0.2-0.5c-0.1,0-0.1-0.1,0-0.1c0.1-0.1,0.2-0.3,0.4-0.4c1-0.8,1.7-1.9,2.3-3c0.1-0.1,0.1-0.3,0.1-0.5
			c0.1-0.3,0.2-0.5,0.2-0.8c0-0.3,0-0.6,0-1c0-0.5-0.1-0.9-0.2-1.3c-0.1-0.3-0.2-0.5-0.1-0.8c0.1,0,0.1-0.1,0.2-0.1
			c0.2,0,0.3-0.1,0.3-0.3c0-0.2,0.1-0.3,0.3-0.2c0.1,0.5,0.1,1.1,0,1.6c0,0.1,0,0.2,0,0.3c0,0,0,0,0,0c0,0-0.1,0-0.1,0
			c0,0,0.1,0,0.1,0c0.1,0.8,0.1,1.6,0,2.3c0.1,0.4,0.1,0.7-0.2,0.8c0,0,0,0.1-0.1,0.1c0,0.1,0.1,0.2-0.1,0.3
			C36.4,9.5,36.1,10,35.8,10.5z"/>
		<path class="st4" d="M50.4,16.6c-0.1-0.5-0.1-1-0.1-1.5c0-0.5,0.1-1,0-1.5c0-0.2,0.1-0.3,0.2-0.4c0.1-0.1,0.1-0.2-0.1-0.2
			c-0.3,0-0.4-0.3-0.6-0.4c-0.2-0.1,0-0.3,0-0.5c-0.1-0.4-0.1-0.5-0.6-0.4c-0.1,0-0.1,0.1-0.2,0.1c0,0-0.1-0.1-0.1-0.1
			c-0.5,0-0.5-0.1-0.4-0.6c0.1-0.4,0.3-0.6,0.6-0.8c0.2-0.1,0.3-0.1,0.5,0.1c0.1,0.1,0.1,0.3,0.2,0.4c0.1,0.1,0.2,0.2,0.4,0.2
			c0.4,0.4,0.5,0.8,0.5,1.4C50.6,13.9,50.3,15.2,50.4,16.6z"/>
		<path class="st4" d="M41.2,13.4c0-0.1,0-0.3,0.1-0.4c0.2-0.4,0.1-0.7-0.4-0.9c-0.3-0.1-0.3-0.2-0.1-0.3c0.2-0.1,0.3-0.3,0-0.4
			c-0.1-0.1-0.1-0.2-0.1-0.3c0-0.1,0-0.2,0-0.2c0-0.1,0-0.3-0.2-0.4c-0.2,0-0.1,0.2-0.1,0.3c0,0.1-0.1,0.3-0.2,0.4
			c-0.2-0.2-0.1-0.3,0.1-0.3c0-0.3,0.1-0.5,0.4-0.5c0.1,0,0.1-0.2,0.3-0.2c0.3,0.5,0.7,1,0.7,1.6c0.1,0.1,0.1,0.2,0.3,0.2
			c0.4,0.1,0.7,0.3,1,0.5c0.1,0,0.1,0.1,0,0.2c-0.1,0.3,0,0.6,0.2,0.7c0.1,0.1,0.2,0.6,0.1,0.7c0,0-0.1,0-0.1,0
			c-0.1,0.1-0.2,0.1-0.3-0.1c-0.1-0.2-0.3-0.4-0.3-0.6c-0.2-0.6-0.3-0.6-0.8-0.3c-0.1,0-0.1,0.1-0.2,0.2
			C41.4,13.4,41.3,13.5,41.2,13.4z"/>
		<path class="st5" d="M48.3,11.4c-0.1-0.3-0.2-0.6-0.6-0.5c0,0-0.1,0-0.1,0c-0.1-0.4-0.5-0.1-0.7-0.3c0-0.1-0.1-0.1-0.2-0.1
			c-0.1,0-0.1,0-0.2,0c-0.2,0-0.3-0.1-0.2-0.2c0-0.2,0-0.3,0.1-0.5c0.1-0.5,0.6-0.9,1-0.9c0.2,0,0.4,0.1,0.4,0.3
			c0,0.4,0.2,0.6,0.5,0.8c0.2,0.2,0.3,0.6,0.2,0.9C48.4,11.2,48.3,11.3,48.3,11.4z"/>
		<path class="st6" d="M43.1,14.1c0-0.4-0.3-0.7-0.5-1c0-0.1-0.1-0.2-0.1-0.3c0.2-0.4,0-0.4-0.3-0.5c-0.2-0.1-0.4-0.2-0.6-0.3
			c-0.2-0.1-0.2-0.2-0.1-0.4c0.3,0.1,0.5,0.2,0.8,0.3c0.1,0,0.2,0.1,0.2,0.1c0.1,0.3,0.4,0.3,0.7,0.2c0.7-0.2,1.4-0.5,2-1
			c0.2-0.1,0.3-0.3,0.5-0.3c0.2,0,0.1,0.1,0.1,0.1c-0.1,0.2-0.1,0.4-0.2,0.6c0,0-0.1,0-0.1,0c-0.5,0.5-1.1,0.7-1.7,0.9
			c-0.4,0.1-0.5,0.2-0.3,0.6c0.1,0.2,0.1,0.5,0.1,0.7c0,0.1,0,0.3-0.2,0.3C43.2,14.2,43.1,14.2,43.1,14.1z"/>
		<path class="st5" d="M55.1,12.5c0-0.1,0-0.1-0.1-0.2c-0.1-0.2-0.2-0.5-0.6-0.3c-0.1,0.1-0.3,0.1-0.4,0.1c-0.1,0-0.2,0.1-0.4,0.3
			c-0.1-0.2-0.1-0.4-0.4-0.3c-0.2,0-0.2-0.1-0.1-0.2c0.1-0.1,0.1-0.2,0-0.3c0.2-0.1,0.5-0.3,0.7-0.4c0.2-0.1,0.3-0.1,0.5,0
			C55.1,11.4,55.5,11.8,55.1,12.5z"/>
		<path class="st7" d="M72.6,11.8c0-0.1,0-0.1-0.1-0.2c-0.1-0.6-0.5-1-0.8-1.4c-0.1-0.2-0.4-0.4-0.2-0.6c0.2-0.1,0.3,0.2,0.5,0.4
			c0,0,0,0.1,0.1,0.1c-0.1,0.1,0,0.1,0.1,0.2c0.3,0.3,0.4,0.7,0.4,1C72.6,11.4,72.6,11.6,72.6,11.8z"/>
		<path class="st8" d="M46.4,9.8c0,0.5,0,0.5,0.6,0.6c0,0.2-0.2,0.3-0.2,0.5c-0.4,0-0.7,0.1-1.1,0C46,10.5,46.3,10.3,46.4,9.8z"/>
		<path class="st9" d="M36.8,8.6C36.9,8.3,37,8,37,7.8"/>
		<path class="st1" d="M72.6,11.3c-0.1-0.3-0.2-0.6-0.4-0.8c-0.1-0.1-0.2-0.3,0-0.4c0.2,0.1,0.3,0.3,0.5,0.4
			c0.1,0.1,0.3,0.1,0.1,0.3c0,0,0,0,0,0C72.5,10.9,72.7,11.1,72.6,11.3z"/>
		<path class="st10" d="M48.5,11.3c0,0.2,0,0.4,0.4,0.4c0.2,0,0.2,0.1,0.2,0.3c-0.2,0.2-0.3,0.4-0.3,0.6c0-0.1,0-0.1-0.1-0.2
			c0-0.2,0-0.3-0.1-0.4C48.5,11.7,48.4,11.5,48.5,11.3z"/>
		<path class="st5" d="M45.7,10.9c0.3-0.1,0.7-0.1,1-0.1c0-0.1,0.1-0.2,0.2-0.1c0.1,0.3,0,0.3-0.2,0.3c-0.3,0-0.7-0.1-0.9,0.1
			c0,0-0.1-0.1-0.1-0.1C45.6,10.9,45.6,10.9,45.7,10.9z"/>
		<path class="st11" d="M51.1,20.1c-0.1,0-0.1-0.1-0.1-0.2c0-0.3-0.1-0.6-0.1-0.9c0-0.1,0-0.2,0.1-0.2c0.1,0,0.1,0.1,0.2,0.2
			c0,0.1,0,0.2,0,0.2C51.1,19.5,51.1,19.8,51.1,20.1z"/>
		<path class="st12" d="M39.2,12.1C39.1,11.9,39,12,38.8,12c0.1-0.2,0.3-0.3,0.4-0.5c0.1-0.2,0.3,0,0.4,0.1
			C39.5,11.7,39.3,11.9,39.2,12.1z"/>
		<path class="st13" d="M48.2,12.2c-0.1,0.1-0.1,0.5-0.4,0.1c0.2-0.3,0.2-0.6,0.4-0.9C48.4,11.7,48.2,12,48.2,12.2z"/>
		<path class="st14" d="M51.1,19.2c-0.1-0.1,0-0.4-0.3-0.2c0-0.1,0-0.1-0.1-0.2c0-0.1-0.1-0.4,0.1-0.4c0.2,0,0.2,0.3,0.2,0.4
			C51.1,18.9,51.2,19,51.1,19.2z"/>
		<path class="st15" d="M50.1,11.1c-0.2,0.1-0.3-0.1-0.5-0.2c-0.3,0,0-0.3-0.1-0.4C49.7,10.7,49.9,10.9,50.1,11.1z"/>
		<path class="st16" d="M72.7,10.8c0-0.1-0.1-0.2-0.1-0.3c0.3,0,0.3,0.2,0.4,0.4C72.9,10.8,72.8,10.8,72.7,10.8z"/>
		<path class="st9" d="M36.7,9c0-0.1,0.1-0.2,0.1-0.3C36.9,8.8,37,8.9,36.9,9C36.8,9.1,36.7,9.1,36.7,9z"/>
		<path class="st17" d="M64.7,9.4c0.3,0.2,0.6,0.5,0.7,0.8c0.3,0.9,0.8,1.6,1.2,2.5c0.1,0,0.1,0.1,0.1,0.2c0.2,0.6,0.5,1.2,0.7,1.8
			c0,0.1,0.1,0.2,0.1,0.3c0,0.2,0.1,0.3,0.2,0.4c0.2,0.1,0.3,0.3,0.4,0.5c0.1,0.1,0.1,0.3-0.1,0.4c-0.1,0.1-0.1,0.2-0.1,0.3
			c0,0.4,0,0.7,0,1.1c0,1.2-0.3,2.3-1.1,3.2c0,0.1,0,0.3-0.2,0.2c-0.5,0.3-1,0.7-1.6,0.9c-0.6,0.2-1.4-0.4-1.3-1
			c0-0.3,0.1-0.6,0.2-0.8c0.2-0.1,0.2-0.3,0.1-0.5c-0.1-0.2,0-0.3,0.2-0.4c0.3-0.1,0.5-0.3,0.6-0.6c0.1-0.2,0.3-0.2,0.4-0.3
			c0.1-0.1,0.1-0.3,0.2-0.4c0.1-0.2,0.1-0.4-0.1-0.6c-0.2-0.2,0-0.4,0-0.6c0.1-0.2,0.1-0.3,0.1-0.5c-0.3-0.5-0.3-1-0.5-1.5
			c-0.1-0.2-0.2-0.3-0.2-0.5c-0.2-0.1-0.2-0.3-0.2-0.5c-0.3-0.7-0.6-1.4-1-2c-0.3-0.4-0.2-0.8-0.3-1.1c0-0.1,0-0.2-0.1-0.3
			c-0.1-0.2-0.3-0.5-0.4-0.7c-0.2-0.2-0.1-0.3,0.1-0.4c0.4-0.1,0.9,0,1.3,0C64.4,9.1,64.6,9.3,64.7,9.4z"/>
		<path class="st18" d="M59.3,12.2c0.6-0.5,1.1-1.2,1.5-1.9c0.1-0.1,0.1-0.2,0.2-0.3c0.1-0.1,0.2,0,0.3,0c-0.2-0.4,0-0.7,0-1.1
			c0-0.1,0-0.3,0.1-0.4c0.2,0,0.3-0.2,0.5-0.1c0.1,0.1,0.2,0.1,0.2,0.2c0,0.5,0.3,0.6,0.6,0.8C63,9.7,63,9.7,63,9.9
			c-0.2,0-0.4,0-0.5,0.2c-0.9,0.9-1.7,1.8-2.4,2.8c-0.2,0.2-0.2,0.3,0,0.5c0.5,0.4,0.5,0.4,0.3,1c-0.1,0.2,0,0.5-0.1,0.7
			c-0.3,0.1-0.4,0-0.3-0.3c0-0.3-0.2-0.6-0.1-0.9c-0.1,0-0.3,0.1-0.4,0c-0.1-0.1,0-0.3,0-0.4c0-0.2-0.1-0.3-0.2-0.4
			c-0.2-0.1-0.4-0.2-0.4-0.5C58.9,12.5,59.1,12.4,59.3,12.2C59.2,12.3,59.2,12.2,59.3,12.2z"/>
		<path class="st5" d="M67.8,17.6c0-0.5-0.1-1,0-1.5c0.1-0.2-0.1-0.3-0.2-0.5c-0.1-0.2-0.3-0.4-0.3-0.7c0.1,0.2,0.2,0.2,0.4,0.2
			c1-0.2,2-0.5,3-0.8c0.7-0.2,1.3-0.7,1.6-1.4c0.1-0.1,0.2-0.2,0.3-0.4c0.1,0.2,0.1,0.4-0.1,0.6c-0.1,0.2-0.2,0.4-0.3,0.6
			c-0.1,0.5-0.5,0.8-0.8,1.1c-0.2,0.3-0.6,0.3-0.9,0.5c-0.1,0.1-0.2,0.1-0.4,0.2c-0.7,0.3-1.4,0.5-2.1,0.7c-0.3,0.1-0.4,0.2-0.4,0.5
			C67.9,17,67.9,17.3,67.8,17.6z"/>
		<path class="st19" d="M58.8,12.6c0.2,0.1,0.4,0.2,0.7,0.4c0.3,0.2,0.2,0.4,0.2,0.6c0,0,0.1,0,0.1,0c0.1,0,0.2-0.2,0.3-0.1
			c0.1,0.1,0.2,0.3,0.1,0.4c-0.1,0.2-0.1,0.3,0.1,0.5c0.1,0,0,0.2,0,0.2c-0.1,0.2,0,0.3,0.1,0.4c0,0.7-0.2,1.3-0.4,1.9
			c0,0.2-0.1,0.4-0.1,0.6c0,0.1-0.1,0.3-0.3,0.2c0-0.2-0.3-0.5,0-0.7c0,0,0-0.1,0-0.1c-0.3-0.2-0.3-0.7-0.5-0.9
			c0.1-0.1,0.2-0.2,0.3-0.3c0.2-0.3,0.3-0.7,0-1c-0.1-0.2-0.1-0.3-0.2-0.5c-0.2-0.3-0.6-0.4-0.9-0.6c-0.2-0.1-0.4-0.5-0.3-0.6
			c0.1-0.2,0.3-0.3,0.6-0.3C58.5,12.7,58.6,12.7,58.8,12.6z"/>
		<path class="st20" d="M65.5,16.1c-0.1,0.6,0.3,1.2,0.1,1.9c-0.1,0-0.2-0.1-0.2-0.2c0,0.2-0.2,0.3-0.1,0.5c-0.4,0.3-0.5,0.9-1.1,1
			c-0.1,0-0.1,0.1-0.1,0.2c0,0.2-0.1,0.4-0.3,0.5c0-0.1,0-0.2,0-0.3c-0.2-0.7,0.2-1.3,0.5-1.9c0.2-0.3,0.4-0.7,0.6-1
			C65.2,16.7,65.4,16.4,65.5,16.1z"/>
		<path class="st4" d="M63,9.9c-0.3-0.2-0.6-0.3-0.8-0.5c-0.2-0.1-0.3-0.2-0.2-0.5c0-0.1,0-0.2-0.1-0.2c-0.1,0,0,0.1-0.1,0.1
			c-0.2,0-0.2-0.1-0.3-0.2c0.3-0.4,0.6-0.6,1.1-0.4c0.3,0.1,0.6,0.3,1,0.2c0.2,0,0.4,0.1,0.6,0.2c0.2,0.2,0.5,0.4,0.6,0.6
			c-0.3-0.1-0.6-0.2-1-0.1c-0.2,0.1-0.5-0.2-0.8-0.1c0.1,0.3,0.1,0.6,0.2,0.9C63.1,10.1,63.1,10,63,9.9z"/>
		<path class="st21" d="M59.4,17.7c0.3-0.2,0.2-0.5,0.4-0.8c0.1,0.3,0,0.6-0.1,0.9c-0.1,0.2-0.2,0.3-0.3,0
			C59.4,17.8,59.4,17.8,59.4,17.7z"/>
		<path class="st22" d="M65,16.9c0,0.4-0.3,0.7-0.6,1C64.5,17.6,64.7,17.2,65,16.9z"/>
		<path class="st23" d="M64.6,13.7c0.1,0.2,0.1,0.3,0.2,0.5C64.4,14.1,64.5,13.9,64.6,13.7z"/>
		<path class="st24" d="M56,22C56,22,56.1,22.1,56,22c0.1,0.1,0,0.2,0,0.2c-0.1,0-0.1,0-0.1-0.1C55.9,22.1,55.9,22.1,56,22z"/>
		<path class="st25" d="M66.6,21c0.1-0.1,0.1-0.1,0.2-0.2c0,0.1,0.1,0.2,0,0.3C66.7,21.1,66.6,21.1,66.6,21z"/>
		<path class="st26" d="M29.4,14.5c0,0.1-0.1,0.2,0,0.2c0.1,0.1,0.1,0,0.2,0c0.2-0.2,0.3-0.1,0.3,0.2c0,0.2,0,0.4,0.1,0.7
			c-0.9,0.5-1.8,0.9-2.8,0.9c-0.6,0-1-0.6-1-1.1c0.1-0.1,0.1-0.2,0.3-0.3c0.2-0.1,0.3-0.2,0.3,0.1c0,0.3,0.2,0.3,0.4,0.2
			c0.7-0.1,1.4-0.5,2.1-0.9C29.3,14.4,29.3,14.4,29.4,14.5z"/>
		<path class="st26" d="M30,15.4c0.2-0.3,0.5-0.3,0.7-0.5c0.1-0.1,0.2,0,0.2,0.1c0,0.1,0,0.2-0.1,0.3C30.5,15,30.3,15.3,30,15.4z"/>
		<path class="st27" d="M50.8,27.1c-0.1-0.2,0-0.4,0.1-0.6c0-0.2,0.1-0.5,0.2-0.7c0.2,0.5,0,1,0,1.5C50.9,27.4,50.9,27.2,50.8,27.1z
			"/>
		<path class="st28" d="M51.2,22.2c0-0.2,0-0.4-0.1-0.6c-0.1-0.3,0-0.6,0.2-0.9c0.1,0,0.1,0.1,0.1,0.2c-0.2,0.3-0.1,0.6-0.1,0.9
			C51.3,21.9,51.3,22.1,51.2,22.2z"/>
		<path class="st29" d="M51.3,23.2c0-0.1,0-0.3,0-0.4c0.1,0,0.2,0.1,0.2,0.2c0.1,0.4,0,0.7,0,1.1C51.3,23.8,51.4,23.5,51.3,23.2z"/>
		<path class="st30" d="M25.3,15.3c0,0.2-0.1,0.3-0.2,0.4c-0.1,0-0.1-0.1-0.1-0.1C25,15.4,25.2,15.4,25.3,15.3z"/>
		<path class="st30" d="M25.7,17.5c0.3,0.1,0.5,0.2,0.4,0.5c0,0.1-0.1,0.2-0.2,0.1C25.6,18,25.8,17.7,25.7,17.5z"/>
		<path class="st31" d="M46.5,15.5c0.1,0.1,0.1,0.2,0.1,0.3c-0.1,0.3-0.1,0.5-0.1,0.8c0,0.2-0.1,0.2-0.2,0.2
			C46.2,16.4,46.4,16,46.5,15.5z"/>
		<path class="st14" d="M54.4,15.3c0.2,0.4,0.3,0.9,0.1,1.3C54.4,16.1,54.3,15.7,54.4,15.3z"/>
		<path class="st14" d="M54.5,14.6c0.1,0.2,0.1,0.4-0.1,0.5C54.4,14.9,54.4,14.7,54.5,14.6z"/>
		<path class="st16" d="M46.9,10.7c-0.1,0-0.1,0-0.2,0.1c0-0.2,0.2-0.3,0.3-0.4c0.1,0.1,0.1,0.2,0,0.3
			C46.9,10.7,46.9,10.7,46.9,10.7z"/>
		<path class="st26" d="M36.4,4.2c0-0.1,0-0.2-0.1-0.3c-0.1-0.4-0.5-0.6-0.9-0.4c-0.2,0.2-0.5,0.3-0.6,0.6c-0.3,0.5-0.5,1.1-0.9,1.6
			C33.9,6,34,6.3,33.8,6.6c0-0.5-0.1-0.9-0.5-1.3c-0.1-0.1,0-0.2,0.1-0.3c0.1-0.1,0.2-0.1,0.3-0.1c0.4,0,0.5-0.1,0.3-0.5
			c0,0,0-0.1,0-0.1c0-0.1-0.1-0.2,0.1-0.2c0.1-0.1,0.2,0,0.2,0.1c0,0.1,0.1,0.2,0.2,0.1c0.1,0,0.1-0.1,0.1-0.2
			c0-0.1-0.1-0.3-0.3-0.3c-0.2,0-0.3,0-0.4-0.2c0-0.1-0.1,0-0.2,0C33.6,4.3,33,4,32.6,4.1c0.4-0.7,1.1-1.1,1.9-1.5
			c0.3-0.2,0.7-0.2,1.1-0.1c0,0,0.1,0,0.1,0c0.6-0.3,0.9,0.2,1.2,0.5c0,0.2,0,0.4,0,0.7c0,0.1,0,0.3,0,0.4c0,0.2,0,0.4-0.2,0.4
			C36.5,4.5,36.5,4.3,36.4,4.2z"/>
		<path class="st28" d="M43.3,14.6c0-0.1,0-0.1,0-0.2c0,0,0.1,0,0.1,0c0.1,1.1,0.2,2.1-0.1,3.2c0,0.1,0,0.1-0.1,0.1
			c0.1-0.5,0.1-0.9,0.2-1.4c-0.1-0.5,0-0.9,0-1.4C43.4,14.9,43.4,14.7,43.3,14.6L43.3,14.6z"/>
		<path class="st14" d="M33.5,15.6c0-0.1,0-0.3,0-0.4c0.2,0.2,0.4,1.4,0.3,1.7C33.4,16.5,33.6,16,33.5,15.6z"/>
		<path class="st21" d="M43.2,17.7c0,0,0.1,0,0.1-0.1c-0.1,0.5-0.1,1-0.3,1.5c0,0.1-0.1,0.2-0.3,0.2C42.9,18.8,43.1,18.3,43.2,17.7z
			"/>
		<path class="st32" d="M33.5,9.8c0.1,0.6,0.1,1.3,0,1.9c0,0-0.1,0-0.1,0c0-0.3,0-0.6,0-0.8C33.4,10.6,33.4,10.2,33.5,9.8
			C33.4,9.8,33.4,9.8,33.5,9.8z"/>
		<path class="st33" d="M41.8,21c-0.1,0.1-0.2,0.2-0.3,0.2c0-0.3,0.2-0.5,0.4-0.7c0.1-0.1,0.2-0.2,0.3-0.3c0.1-0.1,0.2-0.1,0.2,0
			C42.4,20.7,42.3,20.9,41.8,21z"/>
		<path class="st34" d="M41,14c0.1,0.1,0.1,0.2,0,0.3c-0.1,0.2-0.3,0.4-0.4,0.6c-0.1,0.2-0.3,0.1-0.4-0.1C40.6,14.7,40.8,14.4,41,14
			z"/>
		<path class="st6" d="M42.3,20.3c-0.1,0-0.1,0-0.2-0.1c0-0.1,0.1-0.2,0.1-0.3c-0.1-0.4,0.1-0.4,0.4-0.3c-0.2,0.1-0.1,0.4-0.2,0.5
			C42.5,20.4,42.4,20.4,42.3,20.3z"/>
		<path class="st13" d="M33.5,9.8C33.5,9.9,33.5,9.9,33.5,9.8c-0.3-0.1-0.1-0.4-0.2-0.7c0.2,0,0.2,0.2,0.2,0.3
			C33.6,9.6,33.5,9.7,33.5,9.8z"/>
		<path class="st14" d="M41.3,13c0,0.3,0.1,0.7-0.3,0.8c0-0.2,0.1-0.3,0.1-0.5C41.3,13.3,41.2,13.1,41.3,13z"/>
		<path class="st35" d="M38.9,16.8C39,16.8,39,16.9,38.9,16.8c0.1,0.3,0,0.4-0.1,0.6c-0.1,0.1-0.1,0.1-0.2,0
			C38.8,17.2,38.8,17,38.9,16.8z"/>
		<path class="st30" d="M39.9,22c0.1,0.2-0.1,0.2-0.2,0.2c-0.1,0-0.2,0.1-0.2,0c-0.1-0.1,0.1-0.1,0.1-0.2C39.7,22,39.8,22,39.9,22z"
			/>
		<path class="st36" d="M43.3,14.6c0.2,0.6,0.1,1.2,0.1,1.7C43.3,15.8,43.4,15.2,43.3,14.6z"/>
		<path class="st30" d="M34.9,21.2c-0.1,0.2-0.2,0.2-0.4,0.3C34.6,21.2,34.7,21.2,34.9,21.2C34.9,21.2,34.9,21.2,34.9,21.2z"/>
		<path class="st0" d="M58.3,12.6c-0.1,0.1-0.2,0.1-0.3,0.2c-0.2,0.2-0.2,0.4,0.1,0.5c0.4,0.2,0.7,0.5,1.1,0.7
			c0.2,0.1,0.2,0.2,0.1,0.3c-0.1,0.1-0.1,0.2,0,0.4c0.2,0.4,0.1,0.7-0.1,1c0.2-0.6,0-1.1-0.4-1.6c-0.1-0.1-0.3-0.2-0.4-0.1
			c-0.4,0.1-0.8,0.3-1.2,0.3c-0.6,0.3-1,0.1-1.4-0.5c-0.3-0.3-0.4-0.7-0.3-1.2c0,0,0,0,0.1-0.1c0.2-0.2,0.4-0.4,0.8-0.4
			c0,0,0.1,0,0.1,0c0.1-0.1,0.2,0,0.3,0c0.1,0.1,0.1,0.2,0,0.2c-0.1,0-0.2,0.2-0.3,0.2c-0.3,0-0.1,0.1-0.1,0.2
			c0,0.1,0.1,0.2,0.1,0.2c0.2,0.1,0.4,0.1,0.6,0.1c0.1,0,0.2,0,0.3,0c0.2,0,0.3,0,0.2-0.2c0-0.1-0.1-0.2-0.3-0.2
			c-0.1,0.1-0.3,0.2-0.4-0.1c0,0,0-0.1,0-0.1c0-0.3,0.2-0.4,0.4-0.3c0.2,0.1,0.3,0.1,0.5,0.1C57.9,12.4,58.1,12.4,58.3,12.6z"/>
		<path class="st37" d="M59.3,12.2C59.3,12.3,59.3,12.3,59.3,12.2c-0.7-0.2-1.1-0.6-0.9-1.4c0.1-0.4,0-0.4,0.4-0.2
			c0.1,0.1,0.3,0.1,0.5,0c0.2-0.1,0.3-0.1,0.3,0.2c0.1,0.5-0.1,0.6-0.5,0.7c-0.1,0-0.1,0.1-0.1,0.1c0,0.1,0.1,0.1,0.2,0
			c0.1,0,0.1-0.1,0.2,0C59.4,11.9,59.3,12.1,59.3,12.2z"/>
		<path class="st1" d="M61.4,9c0,0.1,0,0.3,0,0.4c0,0.2-0.1,0.4,0.2,0.5c0.2,0.1,0.1,0.4,0.1,0.5c0,0.2-0.2,0-0.3,0
			c-0.3,0-0.4-0.1-0.4-0.3c0.1-0.2,0.2-0.4,0.2-0.7C61.2,9.2,61.3,9.1,61.4,9z"/>
		<path class="st37" d="M72.3,12.2c-0.1,0.3-0.2,0.6-0.2,1c0,0.2-0.2,0.2-0.4,0.1c-0.2-0.1-0.1-0.2,0-0.3c0.2-0.3,0.3-0.5,0.4-0.9
			c0-0.1,0-0.1,0.1-0.1C72.2,12.1,72.3,12.2,72.3,12.2z"/>
		<path class="st38" d="M57.7,12.4c-0.1,0-0.3,0-0.4,0c-0.2-0.1-0.3,0-0.4,0.2c-0.1,0.3-0.3,0.1-0.5,0.2c-0.1,0-0.2,0.1-0.3,0.2
			c-0.1-0.3-0.1-0.5,0.2-0.5c0.1,0,0.3-0.1,0.1-0.2C56.9,12,57.3,12.2,57.7,12.4z"/>
		<path class="st37" d="M56.4,10.7c0-0.2,0.1-0.3,0.2-0.3c0.2,0,0.3,0,0.5,0.1c0,0,0,0.1,0,0.1c-0.1,0.1-0.1,0.2-0.2,0.1
			C56.7,10.6,56.5,10.7,56.4,10.7z"/>
		<path class="st37" d="M70.6,12.5c-0.2,0.1-0.3,0.2-0.3,0.5c-0.2-0.2-0.1-0.3,0-0.4C70.4,12.4,70.5,12.3,70.6,12.5L70.6,12.5z"/>
		<path class="st37" d="M70.3,13.5c-0.2-0.1-0.4-0.1-0.4-0.3c0,0,0-0.1,0.1-0.1C70.1,13.2,70.2,13.3,70.3,13.5z"/>
		<path class="st38" d="M56.3,12.2c-0.3,0.1-0.5,0.3-0.8,0.4C55.7,12.2,55.9,12.1,56.3,12.2z"/>
		<path class="st39" d="M66.7,12.9c0-0.1,0-0.1-0.1-0.2c0-0.1,0-0.2,0.1-0.2c0.1,0,0.1,0.1,0.1,0.2C66.8,12.7,66.8,12.8,66.7,12.9z"
			/>
		<path class="st37" d="M58.1,12.3c0-0.1,0.1-0.2,0.3-0.3C58.3,12.2,58.3,12.2,58.1,12.3z"/>
		<path class="st37" d="M70.7,11.8c0,0.1,0,0.1-0.1,0.1c-0.1,0-0.1-0.1-0.1-0.1c0-0.1,0.1-0.1,0.2-0.1
			C70.6,11.7,70.7,11.7,70.7,11.8z"/>
		<path class="st37" d="M63.4,7.1c0-0.1,0-0.2,0.1-0.3C63.6,6.9,63.4,7,63.4,7.1z"/>
		<path class="st37" d="M58.5,12.4c0-0.1,0.1-0.1,0.1-0.1c0.1,0,0.1,0,0.1,0.1C58.7,12.4,58.6,12.4,58.5,12.4
			C58.5,12.5,58.5,12.4,58.5,12.4z"/>
		<path class="st40" d="M55.7,13.8c0.4,0.4,0.8,0.6,1.4,0.5C56.6,14.7,56,14.4,55.7,13.8z"/>
		<path class="st41" d="M36.6,8.3c0.1-0.6,0.2-1.3,0.3-1.9C36.8,7,36.9,7.6,36.6,8.3z"/>
		<path class="st26" d="M37,5.4c0,0.1,0,0.2-0.2,0.3c0-0.2,0-0.4-0.1-0.6c0,0,0-0.1,0-0.1c0.1,0,0.1,0,0.1,0.1C37,5.2,37,5.3,37,5.4
			C37,5.4,37,5.4,37,5.4z"/>
		<path class="st42" d="M65.4,18.3c-0.2-0.3-0.2-0.7,0.1-0.9c0.1-0.1,0.2-0.1,0.2,0.1c0,0.2,0,0.3,0,0.5
			C65.6,18.1,65.5,18.2,65.4,18.3z"/>
		<path class="st38" d="M57.6,13c0-0.1-0.2-0.2-0.3-0.3c-0.1-0.1-0.2-0.2-0.4-0.2c0.3,0.1,0.6-0.1,0.8,0.2c0.1,0.3,0.1,0.4-0.2,0.5
			c-0.2,0.1-0.4,0-0.6,0"/>
	</g>
</g>
</svg>
