<?xml version="1.0" encoding="utf-8"?>
<!-- Generator: Adobe Illustrator 20.0.0, SVG Export Plug-In . SVG Version: 6.00 Build 0)  -->
<svg version="1.1" id="Layer_1" xmlns="http://www.w3.org/2000/svg" xmlns:xlink="http://www.w3.org/1999/xlink" x="0px" y="0px"
	 viewBox="0 0 100 30" style="enable-background:new 0 0 100 30;" xml:space="preserve">
<style type="text/css">
	.st0{fill:#272727;}
	.st1{fill:#2F2F2F;}
	.st2{fill:#333333;}
	.st3{fill:#494949;}
	.st4{fill:#232323;}
	.st5{fill:#383838;}
	.st6{fill:#3B3B3B;}
	.st7{fill:#454545;}
	.st8{fill:#D0D0D0;}
	.st9{fill:#222222;}
	.st10{fill:#2E2E2E;}
	.st11{fill:#3F3F3F;}
	.st12{fill:#5A5A5A;}
	.st13{fill:#353535;}
	.st14{fill:#303030;}
	.st15{fill:#1A1A1A;}
	.st16{fill:#242424;}
	.st17{fill:#323232;}
	.st18{fill:#343434;}
	.st19{fill:#292929;}
	.st20{fill:#393939;}
	.st21{fill:#363636;}
	.st22{fill:#2D2D2D;}
	.st23{fill:#2B2B2B;}
	.st24{fill:#252525;}
	.st25{fill:#171717;}
	.st26{fill:#131313;}
	.st27{fill:#1B1B1B;}
	.st28{fill:#2A2A2A;}
	.st29{fill:#1E1E1E;}
	.st30{fill:#616161;}
	.st31{fill:#1F1F1F;}
	.st32{fill:#121212;}
	.st33{fill:#202020;}
	.st34{fill:#565656;}
	.st35{fill:#A9A9A9;}
	.st36{fill:#212121;}
	.st37{fill:#D2D2D2;}
	.st38{fill:#464646;}
	.st39{fill:#181818;}
	.st40{fill:#262626;}
	.st41{fill:#373737;}
	.st42{fill:#3E3E3E;}
	.st43{fill:#3A3A3A;}
	.st44{fill:#4F4F4F;}
	.st45{fill:#515151;}
	.st46{fill:#282828;}
	.st47{fill:#B4B4B4;}
	.st48{fill:#2C2C2C;}
	.st49{fill:#1D1D1D;}
</style>
<g id="HzQdRP.tif">
	<g>
		<path class="st0" d="M14.8,9.5c0.3,0.3,0.4,0.8,0.9,1c0.4,0.6-0.1,1.1-0.1,1.6c0,0.2-0.1,0.4-0.2,0.6c-0.2,0.8-0.4,1.5-0.6,2.4
			c0.6-0.7,1.1-1.4,1.4-2.1c0.3-0.5,0-0.9-0.1-1.3c0-0.2-0.1-0.3-0.1-0.5c0-0.5,0.4-0.5,0.7-0.6c0.5-0.2,0.8,0.2,1.3,0.3
			c0.2,0.1,0.4,0.2,0.4,0.3c0,1.2,0.5,2.2,0.6,3.3c0.1,1.4-0.3,2.5-1.3,3.4c-0.2,0.2-0.4,0.5-0.6,0.7c-1,1.4-1.1,1.5-2.8,1
			c-0.1,0-0.1,0-0.2,0.1c-0.2,0.2-0.3,0.5-0.2,0.8c0.2,1.8-0.2,3.6-0.3,5.4c0,0.2,0,0.5-0.3,0.6c-0.4,0.1-0.7,0-0.9-0.2
			c-0.5-0.7-1.4-1.2-1.2-2.2c0-0.2-0.1-0.4-0.2-0.5c-0.3-2.1-0.5-4.3-0.6-6.4c0-1.5,0.2-2.9,0.8-4.2c0-0.1,0.1-0.1,0.1-0.2
			c0.8-0.6,1-1.5,1.1-2.4c0.1-0.5,0.2-1,0.7-1.3C13.7,8.6,14.3,8.8,14.8,9.5z"/>
		<path class="st1" d="M11.1,25.4c0-0.6,0-1.1,0-1.7c0.1,1,0.8,1.5,1.4,2.1c0.1,0.1,0.2,0.3,0.4,0.2c0.2-0.1,0.2-0.3,0.3-0.5
			c0.5-2,0.5-4.1,0.5-6.1c0-0.3-0.1-0.6,0.1-0.9c0.3,0.1,0.2,0.3,0.2,0.5c-0.1,2-0.1,4.1-0.1,6.1c0,0.3-0.1,0.6,0.1,0.9
			c0.2,1.1-0.2,1.4-1.7,1.3C11.5,27,11.4,26.2,11.1,25.4z"/>
		<path class="st2" d="M14.8,9.5c-1.1-0.6-1.9-0.2-2,1.1c0,0.7-0.4,1.2-0.7,1.8c-0.2,0.4-0.5,0.4-0.9,0.3c0-0.3,0.1-0.6,0.2-0.9
			c0.1-0.1,0.1-0.3,0.1-0.4c-0.6-1.2,0.5-2.2,0.6-3.3c0-0.3,0.4-0.6,0.9-0.4c0.7,0,1.1,0.4,1.5,0.9C14.6,9,14.7,9.2,14.8,9.5z"/>
		<path class="st3" d="M13,7.8c-1,0.4-0.9,1.5-1.2,2.3c-0.3,0.6,0,1.2-0.3,1.8c0-0.6-0.2-0.5-0.5-0.2c-0.8,0.8-1.7,1.1-2.9,0.8
			c-0.1,0-0.2-0.1-0.3-0.1c0,0,0-0.1-0.1-0.1c2.2,0,3.8-1.5,4.1-3.8C11.9,7.5,12.2,7.3,13,7.8z"/>
		<path class="st4" d="M50.6,12.1c0,0-0.1-0.1-0.1-0.1c-0.2-0.3-1-0.6,0-0.9c0.1-0.1,0.1-0.1,0.2-0.2c0,0,0.1,0,0.1,0
			c0.3-0.5,0.1-1,0.1-1.5c0.4-0.5,0.1-1.2,0.3-1.8c0.1-0.2,0.1-0.6,0.3-0.8c0.1-0.1,0.3-0.2,0.5-0.2c0.5,0.4,0.5,1,0.4,1.6
			c-0.2,2.3-0.5,4.6-0.3,6.9c0,0.6-0.1,1.1-0.7,1.3c-0.4-0.1-0.5-0.5-0.7-0.8c-0.1-1-0.2-2,0-3.1C50.7,12.5,50.7,12.2,50.6,12.1z"/>
		<path class="st5" d="M38.2,10.1c0,0,0,0.1,0,0.1c-0.2,0.5-0.5,0.9-1,1.1c-0.6,0.2-1,0.5-1.5,0.9c-1,0.4-1.7,0.5-2.2,0.1
			c0-0.1-0.1-0.1-0.1-0.2c0.4-0.5,0.9-0.9,1.4-1.3c0.8-0.3,1.5-0.9,2.4-0.7C37.6,10,37.9,10.1,38.2,10.1z"/>
		<path class="st6" d="M50.4,11c-0.2,0.3,0.3,0.6,0,0.9c-1.1,0.1-1.6-0.8-2.4-1.3c0-0.4,0.2-0.5,0.5-0.2
			C49.1,10.9,49.7,11.2,50.4,11z"/>
		<path class="st5" d="M31,12.5c0.3-0.1,0.5-0.2,0.8-0.3c0.6-0.1,1.1,0.1,1.7-0.2c0,0,0,0,0,0c0.2,0.2,0.1,0.4-0.1,0.6
			c-0.4,0.4-0.8,0.9-1.4,0.9c-0.3,0-0.5,0.2-0.8,0.1c-0.3-0.2-0.5-0.5-0.5-0.9C30.8,12.6,30.9,12.6,31,12.5z"/>
		<path class="st7" d="M37.2,10c-0.5,0-0.9,0.2-1.3,0.5c-0.3,0.2-0.7,0.4-1.1,0.2C35.4,9.9,36.3,9.7,37.2,10z"/>
		<path class="st8" d="M37.5,8c-0.2,0-0.3-0.1-0.3-0.3c0-0.2,0.1-0.3,0.3-0.3c0.2,0,0.3,0.1,0.3,0.3C37.7,7.9,37.6,7.9,37.5,8z"/>
		<path class="st9" d="M22.1,18.5C22,18.4,22,18.2,21.9,18c0.3-1.2,0-2.3,0.2-3.5c-0.2-1.3,0.2-2.6,0.2-3.8c0-0.3-0.4-0.6-0.1-0.8
			c0.3-0.2,0.6,0.1,0.8,0.2c0.7,0.5,1.4,0.9,1.8,1.6c0.5,0.5,0.6,1.2,0.6,1.9c0.2,0.9,0,1.7-0.1,2.6c-0.1,0.4-0.1,0.9,0,1.3
			c0.7-0.4,0.8-1.2,1.2-1.8c0.3-0.2,0.6-0.1,0.8,0.2c0.2,0.4,0.4,0.8,0.1,1.3c-0.1,0.2-0.3,0.4-0.3,0.7c-0.5,0.7-1,1.4-1.8,1.7
			c-0.5,0.2-0.3,0.6-0.4,1c-0.4,1.1-1.6,1.5-2.5,0.7c-0.2-0.1-0.3-0.2-0.4-0.4C21.8,20.1,22.1,19.3,22.1,18.5z"/>
		<path class="st10" d="M26.8,18c0.1-0.8,0.4-1.6-0.4-2.2c0-0.5,0.2-0.9,0.3-1.3c0.7-0.9,0.9-2,1.3-3.1c0.2-0.3,0.4-0.4,0.7-0.1
			c0.7,0.4,1.6,0.6,2.1,1.3c0,0-0.1,0-0.1,0.1c-0.1,0.2-0.3,0.3-0.5,0.4c-0.4,0.1-0.6,0.4-0.7,0.8c-0.3,1.1-0.9,2.2-0.9,3.4
			c0,0.5-0.2,0.9-0.6,1.2c-0.1,0-0.2,0.1-0.2,0.1c-0.3-0.2-0.7,0.1-1,0c-0.1,0-0.1-0.1-0.2-0.2C26.8,18.1,26.8,18.1,26.8,18z"/>
		<path class="st11" d="M28.4,11.5c-0.2,0.7-0.4,1.4-0.6,2.1c-0.1,0.5-0.7,0.5-1,0.8c0-1,0.6-1.9,0.8-2.9
			C27.9,11.3,28.1,11.2,28.4,11.5z"/>
		<path class="st12" d="M28.4,11.5c-0.2,0-0.5,0-0.7,0c0.3-0.6,0.6-1,1.2-0.3C28.7,11.3,28.5,11.4,28.4,11.5z"/>
		<path class="st13" d="M21.8,9.5c0.3,0.1,0.5,0.1,0.8,0.2c0.9,0.5,1.9,0.9,2.2,2c-0.6-0.5-1.2-0.9-1.8-1.4
			c-0.5-0.4-0.8-0.4-0.8,0.4c-0.1-0.2-0.2-0.3-0.3-0.5c-0.1-0.2-0.4-0.1-0.6-0.2c-0.1-0.1-0.1-0.2,0-0.4C21.4,9.4,21.6,9.4,21.8,9.5
			z"/>
		<path class="st14" d="M16.2,10.5c0.2,0.1,0.3,0.2,0.5,0.3c-0.3,0.1-0.4,0.3-0.5,0.6c-0.2,0.5-0.6,0.8-0.8,1.2
			c-0.1,0.2-0.3,0.2-0.5,0.1c-0.2-0.5,0.2-0.9,0.4-1.3c0.2-0.3,0.3-0.7,0.4-1C15.8,10.5,16,10.5,16.2,10.5z"/>
		<path class="st15" d="M51.4,16.3c0.2-0.6,0.2-1.2,0.2-1.8c-0.1-2.1,0-4.2,0.3-6.3c0.1-0.5,0-0.9,0-1.4c-0.2-0.3,0-0.7,0.1-1
			c0.2-0.5,0.5-1.1,0.8-1.6c0.4-0.7,0.6-0.8,1.3-0.2c0.1,0.1,0.2,0.2,0.3,0.2c0.3,0.6,0.5,1.2,0.8,1.9c0.1,0.2,0,0.3,0,0.5
			c-0.7,1.2-0.8,2.6-1.1,3.9c0,0,0.1,0.1,0.2,0.1c0.3-0.1,0.6,0,0.4,0.3c-0.2,0.4,0,0.7,0,1.1c-0.4,1.6-0.2,3.3,0.2,4.9
			c0,0.1,0,0.1,0,0.2c0,0,0,0,0,0.1c0.8-1.2,1.9-2.2,2.5-3.5c0.3-0.6,0.6-0.5,1-0.1c0.6,0.6,0,1-0.2,1.5c-0.4,0.8-0.8,1.6-1.2,2.4
			c0.8-0.1,1-0.8,1.4-1.2c0.4-0.3,0.6-0.8,1-1.2c0.5-0.7,0.4-1.1-0.5-1.3c-0.3,0-0.5-0.1-0.7-0.3c-0.5-0.6-0.1-1.2,0.3-1.6
			c0.3-0.3,0.7-0.4,1,0c0.2,0.3,0.6,0.2,0.7,0.6c0.3,0.6,0.6,1.2,0.5,1.9c0.3,0.3,0.8,0.5,0.4,1.1c-0.2,0.7-0.6,1.2-1,1.7
			c-0.6,0.6-0.9,1.5-1.4,2.1c-0.4,0.1-0.7,0.1-1.1,0.4c-0.5,0.4-1.2,0.1-1.8,0.5c-0.3,0.3,0,0.6-0.1,1c0,0.1-0.1,0.1-0.1,0.2
			c-0.9,1-1.4,1-2.3-0.1c-0.2-0.2-0.4-0.2-0.7-0.2c-1-1.2-1.6-2.5-1.7-4.1C51.1,16.5,51.3,16.4,51.4,16.3z"/>
		<path class="st16" d="M58.4,13.6c-0.9,0.2-1.1,1-1.4,1.6c-0.1,0.3-0.2,0.5-0.5,0.7c-0.7,0.5-1.3,1-1.5,2c0,0.2-0.1,0.5-0.4,0.4
			c-0.3-0.1-0.3-0.4-0.3-0.6c0-0.2,0.1-0.4,0.1-0.6c0-0.6,0.2-1.2,0.5-1.7c0.6-1,1.3-2,1.9-3c0.3-0.6,0.5-1.1,0.6-1.7
			c0.1-0.4,0.4-0.4,0.7-0.2c0.9,0.5,1.7,1,2,2c-0.1,0-0.3,0-0.4,0C58.5,12.2,58.5,12.3,58.4,13.6L58.4,13.6z"/>
		<path class="st17" d="M61.9,12.4c0.4-0.9,1.2-1.6,0.9-2.7c-0.1-0.3,0.2-0.4,0.4-0.2c0,0.6,0.9,0.8,0.6,1.5
			c-0.4,0.3-0.6,0.7-0.6,1.1c0,0.8-0.4,1.3-0.8,1.8c-0.3,0.4-0.6,0.7-1,0.1c0,0,0-0.1,0-0.1C61.6,13.4,61.8,12.9,61.9,12.4z"/>
		<path class="st18" d="M51.6,7c-0.3,0.8,0.1,1.7-0.7,2.4c-0.2-0.4-0.2-0.8-0.1-1.2c0.2-0.8,0.3-1.5,0.4-2.3
			c-0.1-0.4,0.1-0.8,0.3-1.1c0.2-0.2,0.4-0.3,0.5-0.6c0.1-0.2,0.3-0.3,0.5-0.1c0.2,0.4,0.1,0.8-0.1,1.2C52.1,5.8,51.9,6.4,51.6,7z"
			/>
		<path class="st19" d="M51.6,7c-0.1-0.7,0.3-1.2,0.7-1.7c0.5-0.5,0.4-1,0.4-1.6c0-0.3,0-0.7,0.4-0.8C53.6,2.6,53.8,3,54,3.4
			c0.2,0.3,0.3,0.6,0.5,0.9c-0.9-0.4-1.4-0.1-1.7,0.8c-0.2,0.6-0.6,1.1-0.9,1.7C51.8,6.9,51.7,6.9,51.6,7z"/>
		<path class="st20" d="M58.2,10.4c-0.2,0-0.4,0.1-0.3,0.3c0,0.1-0.1,0.2-0.1,0.2c-0.9-0.1-1.8,0.3-2.6,0.2
			c-0.3-0.3-0.1-0.6-0.1-0.9C56.1,9.6,57.1,9.9,58.2,10.4z"/>
		<path class="st21" d="M53.1,3.1C53,3.3,53,3.6,53,3.9c-0.1,0.2-0.3,0.2-0.5,0.2c-0.2,0.4-0.4,0.7-0.9,0.7c0.3-0.6,0.6-1.2,0.9-1.8
			c0.3-0.8,0.7-0.9,1.4-0.6C53.8,2.8,53.3,2.8,53.1,3.1z"/>
		<path class="st21" d="M51.2,5.9c0.3,1.2-0.5,2.3-0.3,3.5c0,0.5,0.1,1-0.2,1.5C50.8,9.2,50.7,7.5,51.2,5.9z"/>
		<path class="st17" d="M60.9,15.3c0.1-0.4,0-0.7-0.2-1c0.4,0.3,0.5-0.2,0.7-0.3l0,0.1c0.6,0.5,0.7,1,0.3,1.7
			c-0.3,0.4,0.2,0.9-0.3,1.3c-0.7,0.1-0.6-0.5-0.6-0.9C60.9,15.8,61,15.6,60.9,15.3z"/>
		<path class="st22" d="M53.1,3.1c-0.4-0.8,0.3-0.6,0.7-0.7c0.5,0.3,0.5,0.6,0.1,1C53.7,3.3,53.4,3.2,53.1,3.1z"/>
		<path class="st23" d="M55,10.2c0.3,0.2,0.2,0.4,0.2,0.7c0.1,1-0.1,1.2-0.8,1c-0.3-0.4,0.3-0.8,0-1.2C54.5,10.5,54.7,10.4,55,10.2z
			"/>
		<path class="st24" d="M95.7,14.3c0,0.1-0.1,0.1-0.1,0.2c-0.2,0.2-0.3,0.6-0.6,0.5c-0.3-0.1-0.3-0.4-0.4-0.7c0-0.2,0-0.4-0.1-0.7
			c-0.1-1-0.4-1.2-1.4-0.9c-0.2,0.1-0.4,0.1-0.6,0.2c-0.3-0.2-0.6-0.1-0.9,0c-1.1,0.6-2.1,1.2-3.2,1.7c-0.6,0.2-1,0.2-1.4-0.3
			c0-0.1-0.1-0.2-0.1-0.2c0.2-0.1,0.5-0.2,0.7-0.3c1.2-0.3,2-1.1,3-1.7c0.4-0.1,0.7-0.3,1.1-0.4c1.3-0.3,2.4-0.1,3.4,0.8
			C95.6,13,95.7,13.6,95.7,14.3z"/>
		<path class="st25" d="M73.2,12c0,0,0.1,0,0.1,0c0.7-0.1,0.9,0.2,0.9,0.9c0,0.3,0.1,0.6,0.2,0.8c-0.1,0.6-0.4,1.2-0.6,1.8
			c-0.3,1-0.4,2-0.2,3c0,0.1,0,0.2-0.1,0.3c-0.2,0.2-0.4,0.4-0.6,0.7c-0.3,0.6-0.9,0.7-1.2,0.1c-0.5-1.2-1.2-2.3-1.3-3.6
			c0-0.4-0.2-0.7-0.1-1c0-0.1,0-0.2,0.1-0.3c0.3-0.5,0.7-1,0.7-1.7c0-0.4-0.4-0.8-0.2-1.2c0.2-0.7,1-0.8,1.6-0.2
			C72.8,11.8,72.9,12,73.2,12z"/>
		<path class="st5" d="M66.5,11.9c0.1,0,0.1,0,0.2,0c1.8,0.4,2.1,0.3,3.1-1.3c0.3,0,0.7-0.5,1,0c-0.1,0.3,0.1,0.7-0.2,1
			c0,0.1-0.1,0.1-0.1,0.2c-0.9,0.4-1.2,0.8-1.1,1.7c0.2,1,0.4,2-0.4,2.9c-0.2,0.7-0.5,1.3-1,1.9c-0.1,0.1-0.2,0.3-0.3,0.4
			c-0.4,0.4-0.8,0.7-1.4,0.6c-0.1-0.3-0.3-0.6-0.1-0.9c0.1-0.2,0.3-0.5,0.4-0.7c0.7-0.6,1.4-1.4,1.6-2.4c0.1-0.5,0-0.9-0.5-1.1
			c-0.2-0.2-0.4-0.5-0.5-0.8c0.2-0.6-0.7-0.5-0.6-1C66.4,12,66.5,11.9,66.5,11.9z"/>
		<path class="st19" d="M74,13.8c-0.4-0.5-0.1-1.3-0.7-1.7c0.5-0.4,1.1-0.6,1.5-1.2c0.5-0.1,1-0.3,1.5,0c0.1,0.3,0.2,0.7,0.1,1
			c0,0.1-0.1,0.2-0.2,0.3c-0.4,0.4-0.6,0.8-1.1,1.1C74.8,13.6,74.6,14.2,74,13.8z"/>
		<path class="st9" d="M70.3,11.4c0-0.4,0.1-0.7,0.5-0.8c0.5,0.2,1,0.3,1.5,0.5c0.5,0.2,0.8,0.4,0.9,1c-0.5,0.2-0.8-0.3-1.3-0.3
			c-0.3,0-0.5-0.3-0.6,0.2c0,0,0,0.1-0.1,0.1C70.5,12.4,70.6,11.6,70.3,11.4z"/>
		<path class="st26" d="M79,12.7c0.5,0.5,0.6,1.1,0.5,1.7c-0.1,1.4-0.1,2.7,0,4.1c0.4-0.1,0.4-0.4,0.7-0.5c0.2-0.1,0.3-0.3,0.5-0.2
			c0.2,0.1,0.2,0.3,0.2,0.4c-0.3,0.3,0.1,0.7-0.1,1c0,0.1,0,0.2,0,0.3c-0.2,0.4-0.7,0.5-0.8,0.9c-0.1,0.3-0.5,0.5-0.4,0.9
			c0,0.4-0.1,0.7-0.5,0.8c-0.4,0.1-1,0-1.2-0.4c-0.3-0.5-0.7-0.8-1.1-1.1c-0.2-0.3-0.5-0.6-0.4-1.1c0.4-0.4,0.3-0.9,0.3-1.4
			c0-0.3-0.1-0.5,0-0.8c0.2-0.4,0.3-0.9,0.3-1.4c0.1-0.2,0.2-0.4,0.2-0.7c0.2-0.7,0.1-1.4,0.4-2.1C77.7,12.5,78,12.3,79,12.7z"/>
		<path class="st27" d="M79,12.7c-1.1,0.2-1.3,0.4-1.4,1.6c0,0.4,0.1,1-0.3,1.3c-0.5,0-0.4-0.3-0.3-0.6c0.1-0.5,0.2-0.9,0.1-1.4
			c0-0.7-0.4-1.2-0.5-1.8c0.2-0.5,0.5-0.5,0.9-0.3c0.4,0.2,0.9,0.5,1.3,0.7C78.8,12.4,78.9,12.6,79,12.7z"/>
		<path class="st28" d="M80.5,19.4c-0.2-0.5,0.4-1-0.3-1.4c0.4-0.6,0.8-1.2,1.2-1.9c0.4-0.1,0.4,0.3,0.6,0.5c0,0.5-0.2,1-0.2,1.5
			c-0.6,0.3-0.5,1.1-1,1.4C80.7,19.5,80.6,19.5,80.5,19.4z"/>
		<path class="st29" d="M78.7,12.2c-0.5,0-0.9-0.1-1.3-0.4c-0.3-0.2-0.5-0.2-0.7,0.1c-0.1,0.1-0.2,0.2-0.3,0.2
			c-0.1,0-0.1-0.1-0.2-0.2c-0.1-0.3-0.1-0.7,0.2-1C77.2,11.3,78.1,11.5,78.7,12.2z"/>
		<path class="st30" d="M81.7,16.8c-0.1-0.2-0.2-0.4-0.3-0.7c0-0.1,0-0.2,0-0.3c0.3-0.3,0.5-0.6,0.8-0.9c0.2,0,0.2,0.2,0.3,0.3
			C82.4,15.8,82.6,16.6,81.7,16.8z"/>
		<path class="st22" d="M82.3,15.3c0-0.1,0-0.2,0-0.4c0-0.6,0.2-1.1,0.5-1.6c0.3-0.3,0.4-0.7,0.5-1.1c0.2-0.2,0.3-0.5,0.5-0.7
			c0.4-0.4,0.7-0.1,1,0.1c0.3,0.2,0.1,0.5-0.1,0.8c-0.2,0.4-0.4,0.7-0.7,1c-0.3,0.3-0.6,0.7-0.7,1.2C83.2,15,82.9,15.4,82.3,15.3z"
			/>
		<path class="st31" d="M66.5,11.9c0,0,0,0.1,0,0.1c-0.1,0.4-0.4,0.5-0.6,0.7c-0.2,0.1-0.3,0.1-0.5,0c-0.5-0.5-0.8-0.3-1.2,0.3
			c-0.6,0.9-0.9,1.8-1,2.8c0,0.5-0.1,1.1-0.3,1.6c-0.1,0.3-0.2,0.7,0.2,0.9c0.3,0.2,0.6-0.2,0.8-0.3c0.2-0.2,0.3-0.4,0.5-0.7
			c0.5-0.3,0.7-1.2,1.6-1.1c0.5,0.2,0.6,0.5,0.4,1c-0.3,1-1,1.6-1.7,2.3c-0.5,0.6-1.2,0.6-1.9,0.4c-0.6-0.7-1.6-1.3-1.5-2.3
			c0-0.8,0.2-1.6,0.4-2.3c0.5-1.5,1.4-2.9,1.8-4.5c0.1-0.5-0.7-0.8-0.4-1.3c0.1,0,0.2,0.1,0.4,0.1c0.5,0.3,0.9,0.8,1.4,1.2
			C65.3,11.5,66,11.6,66.5,11.9z"/>
		<path class="st19" d="M65,10.9c-0.8,0-1.1-0.6-1.4-1.2C64.4,9.8,64.7,10.3,65,10.9z"/>
		<path class="st32" d="M86.1,12.7c0.3,0.4-0.1,1.2,0.7,1.3c0,0,0,0,0,0c0.3,0.5-0.4,0.6-0.3,1c0.1,0.3,0,0.7-0.2,0.9
			c-0.4,0.5-0.7,1.2-1,1.7c-0.2,0.4-0.1,0.7,0.2,0.9c0.7,0.6,0.7,1.1,0.1,1.8c-0.4,0.5-0.9,0.8-1.1,1.4c-0.3,0.7-1.5,0.2-1.9-0.4
			c-0.3-0.5-0.5-0.9-0.7-1.4c0-0.2,0-0.5,0-0.7c0-0.4,0.1-0.8,0.1-1.3c0-1.2,0.4-2.2,1.1-3.2c0.5-0.7,1-1.4,1.4-2.2
			C85.2,11.5,85.4,11.5,86.1,12.7z"/>
		<path class="st33" d="M86.1,12.7c-0.9-0.8-1-0.7-1.6,0.3c-0.2,0.4-0.5,0.8-0.8,1.1c-1.2,1.5-1.4,3.4-1.7,5.2
			c-0.1,0.1-0.2,0.1-0.3,0.1c-0.8-0.3-0.4-1-0.4-1.5c0-0.4,0.1-0.8,0.3-1.2c0.2-0.5,0.4-1,0.5-1.5c0.8-0.8,1.2-1.9,2-2.6
			c0.6-0.6,0-0.9-0.5-1.1c-0.1-0.3-0.1-0.6,0.2-0.7c0.3-0.2,0.4,0.2,0.6,0.3C85.2,11.5,86,11.8,86.1,12.7z"/>
		<path class="st17" d="M17.5,11.4c0.8,0.2,1.2,1,1.2,2.1c0,0.5-0.3,1.1,0.3,1.5c0.4-0.3,0.6-0.2,0.5,0.3c-0.1,0.6-0.2,1.3-0.6,1.8
			c-0.9,1-1.7,2.1-2.6,3.1c-0.8,0.8-1.4,0.8-2.1,0.1c-0.3-0.2-0.2-0.5-0.1-0.8c1.2,0.3,2.2,0.3,2.9-1c0.3-0.6,0.8-1.1,1.2-1.7
			c0.6-0.9,0.3-2,0.2-3C18.3,12.9,18.3,12,17.5,11.4z"/>
		<path class="st34" d="M18.9,17c0.1-0.6,0.4-1,0.4-1.6c0-0.2,0-0.4-0.3-0.4c0.6-1.7,0.9-3.4,1.7-5c0.3-0.5,0.5-0.8,1.1-0.4
			c-0.5,0.3,0,0.5,0.1,0.7c-0.7,0-1.1,0.4-1.3,1.1c-0.4,1.2-0.7,2.4-0.8,3.7C19.7,15.7,19.6,16.5,18.9,17z"/>
		<path class="st35" d="M14.1,19.4c0,0.3,0,0.5,0.1,0.8c-0.3,0.5-0.2,1-0.2,1.5c0,1.5,0,3,0,4.5c-0.3-0.6-0.2-1.3-0.2-1.9
			c0-1.5,0-2.9,0-4.4c0-0.3,0-0.5,0.2-0.7C14,19.2,14.1,19.3,14.1,19.4z"/>
		<path class="st14" d="M22.1,14.5c0.1,0.8-0.1,1.7,0.3,2.5c0.2,0.4-0.5,0.5-0.5,1C21.9,16.9,21.9,15.7,22.1,14.5z"/>
		<path class="st14" d="M16.5,13.4c0-0.6,0.1-1.2-0.1-1.9c0.1,0.2,0.3,0.5,0.4,0.7C17.1,12.8,17,13.2,16.5,13.4z"/>
		<path class="st19" d="M38,11.7c-1.3,0.5-2.2,1.5-3.2,2.4c-0.7,0.8-1.7,1-2.7,0.5c-0.2-0.1-0.3-0.2-0.5-0.3c-0.3-0.3-0.5-0.6-0.2-1
			c0.2,0,0.3,0,0.5,0c0.5,0.4,0.8,0,1.1-0.2c0.3-0.3,0.6-0.5,1.1-0.5c0.5,0,0.9-0.5,1.4-0.8c0.9-0.5,1.7-1.3,2.7-1.5
			c0.8,0,1.2,0.6,1.7,1c0,0.1-0.1,0.1-0.1,0.2C39.2,11.7,38.5,11.2,38,11.7z"/>
		<path class="st2" d="M35.5,11.7c-0.5,0.6-0.8,1.4-1.9,1.2c-0.2,0-0.5,0.3-0.7,0.5c-0.4,0.2-0.7,0.4-0.9-0.2c0.8,0,0.9-0.9,1.5-1.2
			C34.2,12.4,34.8,11.9,35.5,11.7z"/>
		<path class="st36" d="M31.4,13.3c0.2,0.3,0.3,0.5,0.3,0.8c0.3,0.2,0.2,0.6,0.3,0.9c-0.1,0.8-0.7,1.6-0.6,2.5
			c0.3,0.1,0.3-0.2,0.5-0.3c0.3-0.3,0.7-0.2,1-0.1c0.3,0.2,0.3,0.6,0.2,0.9c-0.1,0.7-0.4,1.4-0.8,2c-0.2,0.3-0.5,0.5-0.5,0.9
			c-0.2,0.8-0.7,1.1-1.4,1.2c-0.1,0-0.2,0-0.3,0c-0.8-0.5-1.4-1.1-1.5-2.1c0-0.2-0.1-0.4-0.3-0.6c-0.1-0.4-0.2-0.9-0.4-1.3
			c0.3-1.6,0.6-3.1,1.2-4.6c0.3-0.8,0.8-1.2,1.7-1C31.1,12.8,31.2,13,31.4,13.3z"/>
		<path class="st28" d="M25.3,20.5c-0.2,0.6-0.2,1.3-0.7,1.8c-0.8,0.3-1.7,0.1-2.1-0.6c-0.1-0.2-0.1-0.4,0.1-0.5l1.1,0
			c0.3,0.1,0.4-0.1,0.5-0.3c0.4-1.4,1.7-2,2.6-2.9c0,0.1,0,0.1,0,0.2c0,0.7-0.8,1-1.1,1.6C25.6,20,25.5,20.2,25.3,20.5z"/>
		<path class="st37" d="M22.6,21.2c0.2,1,0.7,1.3,2,1.1c-0.7,0.5-1.3,0.2-1.9-0.2c-0.5-0.3-0.6-0.7-0.4-1.2
			C22.5,21,22.6,21.1,22.6,21.2z"/>
		<path class="st21" d="M28.3,14.9c-0.3-0.8,0.1-1.5,0.3-2.2c0-0.1,0.2-0.3,0.3-0.2c0.1,0.1,0.2,0.2,0.2,0.4
			C29.1,13.7,28.4,14.2,28.3,14.9z"/>
		<path class="st38" d="M25.3,20.5c0-1.1,1-1.6,1.5-2.4c0.1,0,0.1,0,0.2,0C26.7,19.1,25.9,19.8,25.3,20.5z"/>
		<path class="st39" d="M58.4,13.6c0.1-0.1,0.3-0.1,0.4-0.2c0.4-0.1,0.9-0.5,1.2,0.1c0.3,0.5,0.4,1.1,0,1.6c-0.9,1-1.6,2.2-2.6,3.1
			c-0.2,0.1-0.3,0.4-0.5,0.3c-0.3-0.1-0.4-0.4-0.5-0.7c0-0.4,0.1-0.7,0.3-0.9C57.4,15.8,57.9,14.7,58.4,13.6
			C58.4,13.6,58.4,13.6,58.4,13.6z"/>
		<path class="st28" d="M54.5,22.7c-1.1-0.3-1.4-1.2-1.6-2.2c0.4-0.1,0.6,0.3,0.9,0.5c0.8,0.6,1.2,0.5,1.5-0.4
			c0.1,0.2,0.2,0.5,0.2,0.7C55.8,22.5,55.7,22.7,54.5,22.7z"/>
		<path class="st40" d="M58.6,18.7c-0.6,1.6-1.9,1.9-3.2,0.7C56.6,19.8,57.5,19.1,58.6,18.7z"/>
		<path class="st19" d="M62.9,20.7c-0.6-0.8-1.1-1.7-1.1-2.7c0-0.4-0.3-0.8-0.4-1.2c-0.2-1,0.5-1.9,0.1-2.9c0.9,0,1.1-0.9,1.3-1.5
			c0.2-0.6,0.3-1.2,0.8-1.6c0.1,0.4,0.2,0.8,0,1.1c-0.6,0.9-0.8,1.9-1.3,2.8c-0.9,1.7-0.6,3.4,0.6,4.8c0.2,0.4,0.9,0.1,1,0.7
			C63.7,20.8,63.4,20.8,62.9,20.7z"/>
		<path class="st22" d="M52.5,4.1C52.6,4,52.8,4,53,3.9c-0.2,0.5-0.2,1-0.7,1.4C52.4,4.9,52.5,4.5,52.5,4.1z"/>
		<path class="st31" d="M89.9,14.6c-0.7,0.2-1.3,0.6-2.1,0.6c-0.1,0-0.1,0.1-0.2,0.1c-0.1,0.1-0.2,0.1-0.3,0.1
			c-0.5,0.2-0.8-0.4-1.2-0.3c-0.1-0.7,0.6-0.6,0.8-1c1,0.3,1.8,0,2.6-0.5c0.7-0.4,1.4-0.7,2.1-1c0.4-0.2,0.7-0.1,0.9,0.3
			C91.6,13.4,90.7,13.9,89.9,14.6z"/>
		<path class="st33" d="M73.1,18.5c0.1,0.8,0.5,1.6,0,2.4c-1.2,0.4-1.8,0-2.1-1.3c-0.1-0.7-0.1-1.5-0.4-2.1c-0.2-0.4-0.4-0.8-0.7-1
			C69.8,16.3,70,16.2,70,16c0.2-0.4,0.1-1,0.7-1.2c0.1,0,0.2,0.1,0.2,0.1c-0.4,1.4,0.3,2.5,0.9,3.7c0.2,0.3,0.2,0.9,0.6,0.8
			C72.9,19.4,73,18.9,73.1,18.5z"/>
		<path class="st9" d="M70.9,14.9c-0.1,0-0.1,0-0.2,0c-0.6-0.8-0.4-2.2,0.5-3c0,0,0,0,0,0c0.2,0.3,0.3,0.6,0.2,1
			c-0.2,0.6-0.4,1.2-0.5,1.9C70.9,14.8,70.9,14.9,70.9,14.9z"/>
		<path class="st33" d="M73.3,15.3c-0.1,1.1-0.1,2.1-0.2,3.2C72.8,17.4,72.8,16.3,73.3,15.3z"/>
		<path class="st33" d="M70.9,14.8c0-0.7,0-1.3,0.5-1.9C71.5,13.6,71.2,14.2,70.9,14.8z"/>
		<path class="st4" d="M66,16.4c0.3-0.4,0.6-0.8,1-1.2c0.2-0.1,0.4-0.5,0.8-0.2c0.3,0.3,0.1,0.5,0,0.8c-0.3,0.6-0.8,1.1-0.9,1.8
			c-0.1,0.2-0.2,0.3-0.3,0.5c-0.4,0.9-0.7,1.7-1.7,2.1c-0.3,0.1-0.7,0.4-1-0.1c-0.3-0.1-0.7,0-0.8-0.5c1.2,0.2,1.7-0.1,2.2-1.2
			c0.1-0.3,0.3-0.4,0.5-0.6C66.1,17.5,66.4,17,66,16.4z"/>
		<path class="st19" d="M66.9,17.7c-0.4-0.7,0-1.3,0.4-1.9c0.2-0.4,0.3-0.6-0.3-0.5c0.3-0.5,0.5-1,0.8-1.5c0.2-0.1,0.4-0.3,0.5-0.1
			c0.3,0.4,0.4,0.8,0.3,1.3C68.2,16,67.6,16.9,66.9,17.7z"/>
		<path class="st41" d="M71.3,11.9c-0.2,1-0.6,2-0.5,3c-0.2,0.4-0.4,0.8-0.7,1.2c-0.2-0.7,0-1.4-0.1-2.2c0-0.4,0.1-0.8-0.1-1.2
			c-0.2-0.5,0-0.8,0.3-1.1c0-0.1,0-0.2,0-0.2C70.6,11.5,70.9,11.7,71.3,11.9z"/>
		<path class="st18" d="M63.8,20.2c1,0,1.6-0.6,2.1-1.3c0.2-0.3,0.4-0.5,0.6-0.7c-0.1,0.3-0.1,0.6-0.2,0.9c0,0.6-0.3,1-0.8,1.2
			c-0.5,0.2-1.1,0.5-1.6,0.7c-0.4,0.2-0.7,0.1-1-0.2C63.2,20.5,63.5,20.4,63.8,20.2z"/>
		<path class="st3" d="M65.5,20.2c0.3-0.4,0.6-0.8,0.8-1.2c0.3-0.3,0.4-0.8,1-0.9C66.7,18.9,66.6,19.9,65.5,20.2z"/>
		<path class="st3" d="M68.6,16.5c-0.3,0.5-0.6,1-1,1.3c0.2-0.6,0.7-1.1,1-1.7C68.6,16.2,68.6,16.4,68.6,16.5z"/>
		<path class="st2" d="M76.2,17.7c-0.3-1.5,0.1-2.9,0.1-4.4c0-0.4,0.1-0.8-0.2-1.2c0.1-0.1,0.1-0.1,0.2-0.2c0.1,0,0.1,0,0.2,0
			c0.4,0.6,0.7,1.2,0.4,2c-0.1,0.4-0.1,0.7,0.1,1.1c0,0.1,0,0.2-0.1,0.3c-0.2,0.7-0.5,1.3-0.4,2C76.5,17.5,76.4,17.6,76.2,17.7z"/>
		<path class="st36" d="M79.8,20.8c-0.3,0.8,0.3,1.6-0.2,2.3c-0.4,0-0.7,0.4-1.2,0.2c-1.1-0.7-1.1-1.8-1.4-2.9
			c0.4,0.3,0.5,0.7,0.9,1c0.6,0.6,1.1,0.4,1.3-0.3c0.1-0.3,0.3-0.7,0.5-0.9C79.9,20.4,79.8,20.6,79.8,20.8z"/>
		<path class="st23" d="M76.2,17.7c0.1-0.9,0-1.8,0.5-2.6c0.4-0.1,0.2,0.2,0.2,0.4c0,0.4-0.1,0.8-0.1,1.2c0,0.3,0,0.6,0,0.9
			c-0.2,0.7,0.3,1.5-0.4,2.1C76.2,19.1,76.2,18.4,76.2,17.7z"/>
		<path class="st29" d="M76.7,16.8c-0.2-0.6,0.3-1.1,0-1.7c0-0.1,0-0.1,0-0.2c0-0.5-0.2-1.1,0.5-1.4c0.3,0.7-0.2,1.4,0,2
			c-0.1,0.2-0.1,0.3-0.2,0.5C76.8,16.3,77.1,16.7,76.7,16.8z"/>
		<path class="st28" d="M79.8,20.8c0-0.2,0-0.4,0-0.6c0.3-0.3,0.3-0.7,0.7-0.8C80.5,20,80.3,20.4,79.8,20.8z"/>
		<path class="st27" d="M76.7,16.8c0.1-0.2,0.2-0.5,0.3-0.7c0,0.5,0.1,1-0.2,1.5C76.7,17.4,76.6,17.1,76.7,16.8z"/>
		<path class="st23" d="M77.2,13.6c-0.2,0.5-0.3,0.9-0.5,1.4c-0.3-0.2-0.3-0.5-0.3-0.8c0.3-0.8,0-1.5-0.1-2.2c0.1,0,0.2,0,0.3,0
			C77,12.4,77.1,13,77.2,13.6z"/>
		<path class="st39" d="M64.5,16.9c-0.1,0.2-0.3,0.5,0.2,0.6c0.1,0.1,0.2,0.2,0.2,0.2c-0.3,0.5-0.8,1-1.2,1.5
			c-0.2,0.3-1.4-0.8-1.2-1.3c0.5-1.9,0.4-4,1.7-5.7c0.4-0.6,0.9-0.7,1.4,0c0.1,0.2,0.3,0.3,0.4,0.4"/>
		<path class="st15" d="M85.3,18.8c0.1-0.1,0.2-0.2,0.3-0.3c0.8-0.3,1-0.2,1,0.9c-0.1,0.5-0.1,0.9-0.4,1.3c-0.7,0.1-0.9,0.9-1.3,1.4
			c-0.5,0.6-1.1,0.7-1.7,0.5c-0.4-0.2-0.7-0.5-0.8-0.9c-0.4-0.5-0.4-1.1-0.2-1.7c0.2,0.4,0.4,0.9,0.7,1.3c0.5,0.9,1.2,0.9,1.7,0.1
			c0.2-0.3,0.4-0.5,0.7-0.8C85.9,20,85.9,19.4,85.3,18.8z"/>
		<path class="st33" d="M82.1,20c0,0.6,0,1.2,0.3,1.7c-0.1,0.1-0.1,0.1-0.2,0c-0.5-0.7-0.3-1.6-0.3-2.4c0.1,0,0.1,0,0.2,0
			C82.1,19.6,82.1,19.8,82.1,20z"/>
		<path class="st41" d="M31.6,15.1c0.1-0.4,0.1-0.7,0.2-1.1c1,0.7,2,0.4,3,0c0.5,0.7,0.8,1.4,0.4,2.2c-0.3,0.6-0.2,1.3-0.8,1.7
			c-0.1,0-0.2,0-0.3,0c-0.5-0.4-0.5-1-0.4-1.6c0.1-0.4,0.1-0.7-0.3-0.9c-0.2-0.4-0.6-0.4-0.9-0.4C32.2,15.2,31.9,15.3,31.6,15.1z"/>
		<path class="st42" d="M34.1,17.8c0.1,0,0.1,0,0.2,0c0.3,0.8-0.5,1.3-0.6,2c0,0.1-0.1,0.1-0.1,0.2l0,0c-0.3,0.4-0.7,0.7-0.9,1.2
			c-0.5,0.7-1.2,1.1-2.1,1.3c-0.4-0.2-0.7-0.3-1.1-0.5c0.1-0.2,0.2-0.1,0.4,0c0.1,0,0.1,0,0.2,0c0.7,0,1.1-0.3,1.5-0.9
			c0.6-1,1.1-2,1.7-3C33.6,17.9,33.7,17.6,34.1,17.8z"/>
		<path class="st43" d="M46.3,14.7c0.2,0.2,0.6,0.4,0.3,0.8c-1.1,1.5-5.1,1.3-6.2-0.3c-0.3-0.5,0.2-0.4,0.5-0.5
			C42.8,14.5,44.5,14.5,46.3,14.7z"/>
		<path class="st44" d="M33.6,20.1c0-0.8,0.6-1.4,0.7-2.2c0.5-0.4,0.4-1.1,0.8-1.5C35,17.7,34.3,18.9,33.6,20.1z"/>
		<path class="st20" d="M38,11.7c0-0.4,0.3-0.6,0.7-0.5c0.3,0.1,0.7,0.1,1,0.2C39.2,11.8,38.6,11.7,38,11.7z"/>
		<path class="st45" d="M46.3,14.7c-1.8,0-3.5,0-5.3,0C42.8,14.4,44.5,14.1,46.3,14.7z"/>
		<path class="st44" d="M32.8,21.3c0-0.6,0.4-0.9,0.9-1.2C33.6,20.6,33.3,21,32.8,21.3z"/>
		<path class="st46" d="M86.6,16.9c0.1-0.6,0.5-1.2,0.5-1.8c0.1,0,0.3,0,0.4,0c0.1,0.7,0.2,1.4,0.2,2.1c-0.2,1.2-0.4,2.4-1.2,3.4
			c-0.5-0.5,0.1-0.9,0.1-1.3C86.6,18.5,86.7,17.7,86.6,16.9z"/>
		<path class="st0" d="M86.9,19.2c-0.1,0.5-0.4,0.9-0.3,1.4c-0.3,0.4-0.5,0.9-0.8,1.3c-0.4,0.6-0.8,1.1-1.6,1
			c-0.1-0.5,0.4-0.5,0.6-0.8c0.4-0.5,0.8-1.1,1.3-1.6c0.1-0.3,0.2-0.7,0.3-1C86.5,19.4,86.5,19,86.9,19.2z"/>
		<path class="st14" d="M87.7,17.2c-0.3-0.7-0.2-1.4-0.2-2.1c0.1,0,0.2,0,0.2,0C87.5,15.8,88.2,16.5,87.7,17.2z"/>
		<path class="st22" d="M78.4,23.3c0.4-0.1,0.7-0.9,1.2-0.2C79.2,23.4,78.8,23.4,78.4,23.3z"/>
		<path class="st33" d="M86,20.5c-0.2,1.1-1.1,1.7-1.9,2.4c0,0-0.1,0-0.1,0c-0.3-0.1-0.8,0-0.9-0.5c1.1,0.2,1.6-0.6,2.1-1.3
			C85.5,20.8,85.6,20.6,86,20.5z"/>
		<path class="st0" d="M83.1,22.4c0.3,0.2,0.6,0.4,0.9,0.5c-1,0.2-1.4-0.5-1.7-1.2c0.1,0,0.1,0,0.2,0C82.7,21.9,82.9,22.2,83.1,22.4
			z"/>
		<path class="st47" d="M87.1,25.5c0,0.2-0.1,0.3-0.3,0.3c-0.1,0-0.2-0.1-0.2-0.2c0-0.1,0.1-0.3,0.3-0.3
			C87.1,25.3,87.1,25.4,87.1,25.5z"/>
		<path class="st48" d="M30.1,22.1c-0.1,0-0.2,0-0.4,0c-0.9-0.4-1.4-1.4-1.3-2.6c0.2,0.1,0.5,0.2,0.5,0.4
			C28.8,20.9,29.6,21.4,30.1,22.1z"/>
		<path class="st48" d="M34.1,17.8c-0.8,0.8-0.8,1.9-1.6,2.7c-0.4,0.4-0.8,0.9-1.2,1.3c-0.3,0.3-0.7,0.5-1.1,0.2
			c0.7-0.3,1.3-0.6,1.2-1.5c0-0.2,0.2-0.4,0.4-0.5c0.4-0.5,0.8-1.1,0.9-1.8c0-0.2,0.2-0.5,0-0.6c-0.2-0.1-0.4,0.1-0.6,0.2
			c-0.3-0.2-0.2-0.4,0-0.7c0.5-0.6,1-1.2,1.4-1.9c0.1-0.2,0.3-0.3,0.5-0.2C34.2,16,34,16.9,34.1,17.8z"/>
		<path class="st49" d="M86.9,19.2c-0.2,0.1-0.3,0.2-0.5,0.3c0-0.5-0.2-0.9-0.8-1c0.3-0.5,0.7-1,1-1.5
			C87.5,17.6,87.2,18.4,86.9,19.2z"/>
	</g>
</g>
</svg>
