<?xml version="1.0" encoding="utf-8"?>
<!-- Generator: Adobe Illustrator 20.0.0, SVG Export Plug-In . SVG Version: 6.00 Build 0)  -->
<svg version="1.1" id="Layer_1" xmlns="http://www.w3.org/2000/svg" xmlns:xlink="http://www.w3.org/1999/xlink" x="0px" y="0px"
	 viewBox="0 0 100 30" style="enable-background:new 0 0 100 30;" xml:space="preserve">
<style type="text/css">
	.st0{fill:#131313;}
	.st1{fill:#909090;}
	.st2{fill:#8D8D8D;}
	.st3{fill:#171717;}
	.st4{fill:#181818;}
	.st5{fill:#222222;}
	.st6{fill:#2B2B2B;}
	.st7{fill:#252525;}
	.st8{fill:#1D1D1D;}
	.st9{fill:#818181;}
	.st10{fill:#7E7E7E;}
	.st11{fill:#616161;}
	.st12{fill:#1A1A1A;}
	.st13{fill:#212121;}
	.st14{fill:#2A2A2A;}
	.st15{fill:#121212;}
	.st16{fill:#191919;}
	.st17{fill:#161616;}
	.st18{fill:#1B1B1B;}
	.st19{fill:#7F7F7F;}
	.st20{fill:#939393;}
	.st21{fill:#848484;}
	.st22{fill:#262626;}
	.st23{fill:#888888;}
	.st24{fill:#555555;}
	.st25{fill:#7D7D7D;}
	.st26{fill:#878787;}
	.st27{fill:#747474;}
	.st28{fill:#242424;}
	.st29{fill:#202020;}
	.st30{fill:#8B8B8B;}
	.st31{fill:#9A9A9A;}
	.st32{fill:#737373;}
	.st33{fill:#A1A1A1;}
	.st34{fill:#353535;}
	.st35{fill:#272727;}
	.st36{fill:#4E4E4E;}
	.st37{fill:#4C4C4C;}
	.st38{fill:#494949;}
	.st39{fill:#5D5D5D;}
	.st40{fill:#7B7B7B;}
	.st41{fill:#6C6C6C;}
	.st42{fill:#434343;}
	.st43{fill:#717171;}
	.st44{fill:#575757;}
	.st45{fill:#5C5C5C;}
	.st46{fill:#656565;}
	.st47{fill:#323232;}
	.st48{fill:#3B3B3B;}
	.st49{fill:#1C1C1C;}
	.st50{fill:#282828;}
	.st51{fill:#8E8E8E;}
	.st52{fill:#8C8C8C;}
	.st53{fill:#8F8F8F;}
	.st54{fill:#404040;}
	.st55{fill:#151515;}
</style>
<g id="_x34_63uID.tif">
	<g>
		<path class="st0" d="M17,7.5c0.1,0.2,0.2,0.5,0.3,0.7c0,0,0,0.1,0,0.1c0.1,0.6,0.2,1.2,0.2,1.8c0,0.5-0.2,0.9-0.6,1
			c-0.4,0.1-0.8,0-1.1-0.3c-0.4-0.5-0.8-1-1.3-1.5c-0.1-0.2-0.2-0.3-0.2-0.6c0-0.5-0.1-0.9-0.2-1.3C14,7.1,13.8,7,13.5,7.3
			c-0.8,0.8-1.9,0.9-2.9,1.1c-0.4,0-0.6,0.3-0.8,0.5C9.7,9,9.7,9.2,9.8,9.3c0.3,0.4,0.5,0.8,0.9,1.2c0.4,0.3,0.7,0.8,1.1,1.1
			c0.3,0.5,0.7,0.9,1.2,1.2c1,0.8,1.4,1.8,1.9,2.9c0.2,0.4,0.5,0.7,0.5,1.2c0.1,0.4,0.3,0.8,0.4,1.2c0.6,1.8,1,3.5-0.2,5.2
			c-0.7,0.9-1.6,1.7-2.8,1.9c-0.7,0.1-1.4,0.1-2.1-0.2c-0.2-0.1-0.4-0.2-0.7-0.2c-0.5-0.1-0.9-0.5-1.3-0.8c-0.2-0.1-0.5-0.1-0.6-0.4
			c0-0.3-0.1-0.5-0.3-0.7c-0.4-0.4-0.7-0.9-1.1-1.2c-0.1-0.1-0.1-0.3-0.2-0.4c-0.2-0.4-0.5-0.8-1-1c-0.3-0.2-0.4-0.6-0.6-0.9
			c-0.2-0.4-0.4-0.9-0.7-1.3c-0.2-0.3,0-0.5,0.3-0.5c0.1,0,0.3,0,0.4,0.1c0.5,0.2,1.1,0.3,1.7,0.4c1.2,0.6,2.3,1.2,3.5,1.7
			c0.9,0.3,1.7,0.4,2.6,0.1c0.4-0.1,0.5-0.3,0.3-0.7c-0.4-0.9-1-1.7-1.7-2.3c-1-0.9-2-1.9-2.9-2.8c-0.6-0.6-1.1-1.3-1.7-1.8
			C6.5,12,6.3,11.5,6,11.1c-0.2-0.2-0.3-0.4-0.5-0.5C5.1,10,5.2,9.4,5.3,8.8c0.2-0.4,0.5-0.7,0.8-1c0.5-0.6,0.9-1.3,0.9-2.1
			c0-0.2,0.2-0.3,0.3-0.4c0.8-0.1,1.5-0.6,2.2-0.9c1-0.5,2-0.8,3.2-0.8c0.1,0,0.3,0,0.4-0.1c0,0,0.1,0,0.1,0
			c0.2,0.1,0.4,0.3,0.4,0.5c0.1,0.4,0.4,0.7,0.8,0.9"/>
		<path class="st1" d="M35.8,6.9"/>
		<path class="st1" d="M15.5,5.4c0.1-0.5-0.2-0.9-0.3-1.3"/>
		<path class="st2" d="M14.8,5.2C14.7,5.1,14.6,5,14.5,5c-0.6-0.2-1-0.6-1.1-1.2c0-0.1-0.1-0.2-0.1-0.4"/>
		<path class="st2" d="M16.4,5.8c0.2,0.1,0.3,0.1,0.2,0.3c0,0.1,0,0.2,0.1,0.2c0.1,0,0.2,0,0.2-0.1c0.1-0.2,0.2-0.3,0.4-0.4
			c0,0.2-0.3,0.2-0.1,0.4c0.2,0,0.2-0.2,0.4-0.2c0.3,0.5-0.3,0.5-0.5,0.6c-0.3,0.2-0.4,0.3-0.1,0.5c0.1,0.1,0.1,0.1,0.1,0.2
			c-0.1,0.3,0,0.4,0.3,0.2c0.1,0,0.1,0,0.2,0.1c0,0.1,0,0.2-0.1,0.2c-0.2,0.1-0.3,0.3-0.4,0.5"/>
		<path class="st2" d="M15.5,4.2"/>
		<path class="st0" d="M69,20.9C69,20.9,69,20.8,69,20.9c-0.5-0.8-0.6-1.7-0.7-2.6c-0.2-0.3-0.4-0.6-0.4-1c0-0.3-0.2-0.4-0.3-0.6
			c-0.2-0.2-0.4-0.5-0.5-0.8c0-0.2-0.2,1.5-0.3,1.3c0.1-0.6,0.1-2.3,0.5-2.2c0.9,0.3,0.9,0.3,1.4-0.6c0.3-0.6,0.6-1.2,1-1.8
			c0.2-0.2,0.3-0.4,0.6-0.6c0.2-0.2,0.3-0.5,0.4-0.7c0.3-0.3,0.6-0.5,1-0.7c0,0,0.1-0.1,0.1-0.1c0.3,0.2,0.7,0.3,1,0.5
			c0.1,0.3,0.3,0.6,0.2,1c-0.1,0.5-0.2,0.9-0.6,1.3c0.1,0,0.2-0.1,0.3-0.1c0.3,0,0.9,0.5,0.9,0.8c0,0.3-0.2,0.5-0.3,0.8
			c-0.1,0.2-0.2,0.4-0.2,0.7c-0.3,0.5-0.8,0.9-1.3,1.2c-0.6,0.3-0.9,0.8-0.9,1.5c0,0.3,0,0.6,0,1c0,0.5,0.2,0.8,0.7,0.7
			c0.2,0,0.5-0.1,0.7-0.2c1.2-0.8,2.4-1.5,3.6-2.4c0.3-0.2,0.4-0.5,0.7-0.6c0.1,0,0.2-0.1,0.2,0c0.2,0.1,0.4,0.3,0.2,0.5
			c-0.1,0.2-0.1,0.4-0.1,0.6c-0.2,0.6-0.6,1.1-0.9,1.6c-0.4,0.7-0.8,1.5-0.8,2.3c-0.1,0.7-0.4,1.2-1.1,1.5c-0.2,0.1-0.5,0-0.7,0.1
			c-0.4,0-0.9,0.2-1.3,0.2c-0.2,0-0.4,0-0.6-0.1c-0.9-0.1-1.5-0.8-2.1-1.4C69.2,21.5,69,21.2,69,20.9z"/>
		<path class="st3" d="M50.7,8.5c-0.9,0.7-2,1.2-3.1,1.7c-0.4,0-0.6-0.3-0.4-0.6c0.2-0.3,0.1-0.7,0.6-0.7C47.6,9,47.2,9,47,9.3
			c0,0-0.1,0.1-0.2,0c-0.5-0.2-1,0-1.5,0c-0.5,0-1,0.1-1.2,0.7c0,0.1-0.1,0.2-0.2,0.2c-0.2,0.1-0.2,0.2,0,0.4
			c0.2,0.3,0.1,0.7-0.3,0.9c-0.2,0.1-0.4,0.2-0.3,0.5c0,0.1,0,0.2-0.1,0.3c-0.6,0.2-0.5,0.9-0.8,1.3c-0.1,0.2-0.1,0.4,0,0.7
			c0.1,0.2,0.1,0.4-0.1,0.6c-0.3,0.3-0.4,0.6-0.4,1c0,0.6,0,1.2-0.1,1.7c-0.1,0.3,0,0.6,0.1,0.9c0.1,0.7,0.1,0.7-0.5,0.6
			c-0.4-0.4-0.4-0.9-0.5-1.4c-0.1-0.3,0-0.5,0.2-0.7c0.1-0.1,0.1-0.2,0-0.3c-0.2-0.1-0.1-0.3-0.2-0.5c0,0,0-0.1,0-0.1
			c0-0.1,0-0.2,0.1-0.2c0.4-0.2,0.4-0.5,0.3-0.9c0.1-0.5,0-1.1,0.3-1.6c0-0.3,0.1-0.5,0.2-0.8c0.1-0.4,0.2-0.8,0.4-1.2
			c0.2-0.1,0.3,0.1,0.4,0.1c-0.1-0.1-0.3-0.1-0.4-0.3c0-0.2,0.1-0.3,0.1-0.5c0-0.1,0.2-0.3,0.2-0.4c0-0.1,0-0.2,0-0.2
			C42.8,9.6,43,9.3,43,8.8c0-0.4,0.3-0.2,0.5-0.2c0.3,0,0.6,0,0.9-0.1c1.2-0.6,2.4-1.1,3.6-1.7c0.1-0.1,0.3-0.2,0.4-0.3
			C49,6.4,49.6,6.1,50.2,6c0.2,0.1,0.3,0.1,0.6,0.2c0.6,0,0.7,0.4,0.5,0.9c-0.2,0.3,0,0.6-0.2,0.9C51,8.1,50.9,8.3,50.7,8.5z"/>
		<path class="st4" d="M54.4,8.3C55.3,8,56.2,7.7,57,7.4c1.5-0.5,3.2-0.7,4.7-1.1c0.3-0.1,0.6-0.1,0.9-0.1c0.5,0.1,0.9,0.4,1.3,0.7
			c0.2,0.2,0.3,0.5,0.2,0.8c-0.1,0.2,0.2,0.5,0,0.7c-0.4,0.4-0.9,0.8-1.5,0.9c-0.2,0-0.4,0.1-0.5,0.2c-0.6,0.1-1.2,0.2-1.9,0.4
			c-0.1-0.6,0-0.9,0.8-1.1c-0.2-0.2-0.5-0.3-0.8-0.4c-0.5-0.1-0.9,0.3-1.3,0.1c-0.1-0.1-0.3,0.1-0.5,0.1c-0.3,0.1-0.5,0.3-0.9,0.1
			c-0.1-0.1-0.3,0-0.4,0.1c-0.2,0.2-0.4,0.2-0.7,0.1c-0.3-0.1-0.7-0.1-1,0.1c-0.3,0.1-0.6,0-0.8-0.1C54.4,8.8,54.4,8.5,54.4,8.3z"/>
		<path class="st5" d="M50.7,8.5c0.1-0.4,0.2-0.8,0.2-1.3c0-0.2,0.1-0.4,0.2-0.5c0.1-0.1,0.2-0.2,0.1-0.3c-0.1-0.1-0.3-0.2-0.4-0.1
			c-0.4,0.5-0.4-0.1-0.5-0.2c0,0,0-0.1,0-0.1c0.3-0.1,0.5,0,0.8,0c0.4,0.3,0.8,0.6,0.6,1.1C51.5,7.7,51.4,8.3,50.7,8.5z"/>
		<path class="st6" d="M95.1,15.8c0.1,0,0.1-0.3,0.2-0.1c0.1,0.1,0.1,0.2,0.1,0.4c-0.1,0.7-0.2,1.5-0.8,2.1
			c-0.3,0.1-0.3-0.1-0.3-0.3c0-0.1,0-0.3-0.1-0.4c0,0,0-0.1,0.1-0.1c0.2-0.2,0.3-0.5,0.5-0.8C95,16.3,95.1,16.1,95.1,15.8z"/>
		<path class="st2" d="M73.2,10.9c0,0.1,0,0.1,0,0.2c-0.1,0.2-0.3,0.1-0.4,0c-0.4-0.1-0.7-0.3-1.1-0.5c0-0.2,0.2-0.1,0.3-0.3
			c0-0.1,0.2,0,0.2,0.1c0.2,0.3,0.4,0.5,0.7,0.2c0.1-0.1,0.2-0.1,0.2,0.1C73.1,10.7,73.2,10.8,73.2,10.9z"/>
		<path class="st7" d="M64.1,8.4c-0.1-0.2-0.3-0.3-0.4-0.5c-0.1-0.3-0.1-0.3,0.2-0.4c0.3-0.1,0-0.3,0-0.5
			C64.4,7.4,64.4,7.9,64.1,8.4z"/>
		<path class="st2" d="M72.6,10.3c-0.1,0-0.2,0-0.2-0.1c0-0.1,0.1-0.2,0.2-0.2c0.1-0.1,0.1,0.1,0.1,0.2
			C72.8,10.2,72.7,10.3,72.6,10.3z"/>
		<path class="st8" d="M7.4,22.7c-0.1-0.1-0.2-0.2-0.3-0.4c-0.3-0.2-0.3-0.7-0.7-0.8c0,0,0,0,0,0c-0.3-0.3-0.3-0.7-0.4-1.1
			c0-0.1,0-0.2-0.1-0.3c0.4,0.4,1,0.7,1.1,1.3c0,0.1,0.1,0.1,0.1,0.2c0.6,0.3,0.8,1,1.2,1.4c0.1,0.1,0.1,0.3,0,0.4
			c-0.1,0.1-0.2,0.1-0.3,0C7.9,23.3,7.5,23.1,7.4,22.7z"/>
		<path class="st9" d="M7.4,22.7c0.4,0.2,0.6,0.6,1,0.8c0.4,0.2,0.8,0.4,1.1,0.7c0.2,0.2,0.4,0.2,0.7,0.3c-0.2,0.1-0.4,0.1-0.5,0.4
			c-0.1-0.1-0.2-0.2-0.3-0.4c0-0.1,0-0.2-0.1-0.2c-0.5,0.1-0.8-0.6-1.3-0.3c-0.1,0.1-0.3,0-0.4-0.1c-0.1-0.1-0.2-0.3,0-0.4
			c0.1-0.1,0.1-0.2,0-0.3C7.4,23.2,7.4,23,7.4,22.7z"/>
		<path class="st10" d="M11.7,11.7c0.3,0,0.5,0.1,0.7,0.3c0.1,0.1,0.2,0.3,0.3,0.3c0.3,0.1,0.3,0.3,0.2,0.5
			C12.5,12.5,12.1,12.1,11.7,11.7z"/>
		<path class="st11" d="M5.7,10.4c-0.4-0.2-0.5-0.5-0.4-1C5.5,9.3,5.4,9,5.6,8.8c0,0.1,0,0.3,0,0.4C5.4,9.7,5.4,10.1,5.7,10.4z"/>
		<path class="st12" d="M21.4,11c0,0.1,0,0.1,0,0.2c-0.2,0.2-0.5,0.1-0.7,0c-0.7-0.3-0.7-0.3-1.2,0.3c-0.2,0.2-0.3,0.3-0.4,0.6
			c-0.1,0.3-0.2,0.5-0.1,0.8c0.1,0.2-0.1,0.3-0.3,0.4c-0.2,0.2-0.4,0.3-0.4,0.6c0,0.2-0.1,0.5-0.3,0.6c-0.2,0.1-0.3,0.3-0.2,0.6
			c0.1,0.2,0,0.5,0.1,0.7c0,0.1-0.1,0.3-0.2,0.4c-0.2,0.2-0.3,0.5-0.2,0.7c0.1,0.1,0.1,0.2,0,0.3c-0.3,0.5-0.2,0.9-0.1,1.4
			c0.1,0.3-0.2,0.5-0.5,0.4c-0.1-0.4,0-0.8-0.1-1.2c0.1-1.4,0.3-2.7,0.5-4.1c0.2-0.9,0.6-1.7,0.7-2.7c0.1-0.1,0-0.3,0.1-0.4
			c0.2-0.2,0.1-0.5,0.1-0.8c0,0,0-0.1,0-0.1c-0.1-0.3-0.1-0.5,0.3-0.4c0.1,0.1,0.3,0.1,0.4,0.2c0.5,0.2,1,0.5,1.6,0.7
			C20.8,10.4,21.2,10.6,21.4,11z"/>
		<path class="st13" d="M29.6,10.3C29.6,10.3,29.6,10.3,29.6,10.3c0.2,0.3,0.4,0.5,0.6,0.7c0.5,0.4,0.6,1,0.9,1.5
			c-0.5,0.1-1,0.1-1.2-0.5c0-0.1-0.1-0.2-0.2-0.2c-0.4,0-0.5-0.3-0.7-0.6c-0.3-0.4-1-0.7-1.4-0.6c-0.1,0-0.1,0-0.2,0
			c-0.3-0.1-0.2-0.4-0.3-0.6c0.2-0.3,0.2-0.7,0.7-0.7c0.3,0.4,0.8,0.3,1.1,0.5c0.1,0,0.1,0.1,0.2,0.1C29.1,9.9,29.3,10.2,29.6,10.3z
			"/>
		<path class="st14" d="M20.5,10.1c-0.1,0.2-0.2,0.1-0.3,0.1c-0.4-0.2-0.9-0.5-1.2-0.8c0.1,0,0.1,0,0.2,0
			C19.6,9.6,20.2,9.7,20.5,10.1z"/>
		<path class="st15" d="M32.7,18.9c0-0.8,0-1.7,0-2.5c0-0.1,0.1-0.2,0.2-0.3c0.3-0.2,0.5-0.4,0.3-0.8c-0.1-0.1-0.1-0.3,0-0.4
			c0.3-0.5,0.4-1,0.5-1.5c0.1-0.4,0.3-0.7,0.6-1c0.3-0.3,0.5-0.7,0.6-1c0.1-0.2,0-0.3-0.1-0.5c-0.2-0.4-0.1-0.6,0.2-0.8
			c0.5-0.5,1.1-0.3,1.4,0.3c0.4,0.8,0.5,1.7,0.7,2.6c0,0.2-0.1,0.4-0.2,0.5c-0.1,0.2,0,0.3,0.3,0.3c0.3,0.2,0.5,0.4,0.8,0
			c0.1-0.1,0.2-0.1,0.4,0c0.1,0,0.2,0.2,0.1,0.2c-0.3,0.6,0.1,1,0.2,1.5c0.1,0.3,0.1,0.6,0,0.8c-0.5,0.6-1.1,1.3-2,1.4
			c-0.3,0-0.5,0.2-0.5,0.6c-0.1,0.7,0,1.3,0.1,2c0.1,0.4,0.3,0.4,0.6,0.2c0.2-0.1,0.3-0.3,0.5-0.5c0.1-0.1,0.2-0.3,0.4-0.2
			c0.4,0.2,0.5,0.5,0.2,0.9c-0.1,0.1-0.1,0.1,0,0.2c0.3,0.5,0.1,1.1-0.5,1.3c-0.2,0.1-0.3,0.2-0.4,0.3c-0.4,0.6-0.7,0.7-1.4,0.3
			c-0.3-0.2-0.6-0.3-0.9-0.5c-0.3,0-0.4-0.4-0.7-0.3C33.5,21.1,32.8,20.1,32.7,18.9z"/>
		<path class="st16" d="M27.3,10.5c0,0,0.1-0.1,0.1-0.1c0.3-0.2,0.5-0.3,0.5-0.2c0,0.3,0.5,0.1,0.5,0.2c0,0.4,0.4,0.2,0.5,0.3
			c0.1,0.1,0.4,0,0.2,0.3c-0.1,0.1,0.1,0.3,0.3,0.4c0.2,0,0.5,0.2,0.5,0.4c0.1,0.4,0.4,0.6,0.8,0.6c0.1,0,0.1,0.1,0.2,0.1
			c0,0,0,0.1,0,0.1c0,0.4,0.2,0.7,0.1,1.1c0,1.5,0.3,3,0.2,4.5C31,18.3,31.1,18.7,31,19c-0.1,0.4-0.2,0.8-0.1,1.3
			c-0.4,1.3-1.2,2.5-2.2,3.4c-0.2,0.1-0.3,0.3-0.5,0.3c-0.1,0-0.2,0.1-0.3,0.1c-0.5,0-0.6-0.2-0.4-0.6c0.1-0.2,0.2-0.5,0.1-0.7
			c-0.1-0.4,0-0.5,0.4-0.5c0.1,0,0.2,0.1,0.3,0.1c-0.1,0-0.2,0-0.2,0c-0.3-0.2-0.3-0.3-0.1-0.5c0.1-0.1,0.2-0.1,0.2-0.2
			c0.2-0.4,0.5-0.6,0.9-0.4c0.2,0.1,0.4-0.2,0.4-0.4c0-0.4,0-0.8,0.4-1.1c0.1-0.1,0.1-0.3,0-0.4c-0.2-0.2-0.2-0.5,0-0.7
			c0.3-0.3,0.1-0.6,0.2-0.9c0,0,0,0.1-0.1,0.1c-0.4,0-0.9,0.2-1.3,0.1c-0.1,0-0.2-0.1-0.3-0.2c0-0.2,0-0.3,0.2-0.4
			c0.5-0.1,0.6-0.7,1.2-0.8c0.1,0,0.1-0.2,0.1-0.3c-0.2-0.4-0.1-0.6,0.3-0.6c0.2,0,0.4-0.1,0.5-0.3c-0.3,0-0.6,0.2-0.8,0.4
			c-0.2,0.2-0.9,0.1-1.3-0.2c-0.2-0.3-0.2-0.4,0.2-0.5c0.3-0.1,0.3-0.1,0.3-0.4c0.1,0.3-0.1,0.4-0.3,0.4c-0.3,0.1-0.4,0.2-0.1,0.5
			c0.2,0.2,0.3,0.5,0.4,0.8c0.1,0.3-0.3,0.7-0.6,0.6c-0.2,0-0.5,0-0.7,0.1c-0.1,0.1-0.3,0.1-0.4-0.1c0-0.8,0.2-1.6,0.3-2.5
			c0-0.2,0-0.4,0-0.5c0-0.2,0-0.3,0.1-0.5c0.1-0.6,0-1.1-0.2-1.7C27.3,11.5,27.2,11,27.3,10.5z"/>
		<path class="st17" d="M36.8,13c-0.1-0.4-0.1-0.7-0.1-1.1c0-0.6-0.4-1-0.6-1.6C36,10,35.7,10,35.4,10.1c-0.2,0.1-0.6,0.2-0.3,0.6
			c0.1,0.1,0.1,0.3,0,0.5c-0.2,0.5-0.2,1.2-0.8,1.5c-0.2,0.1-0.3,0.4-0.3,0.6c-0.1,0.6-0.2,1.2-0.6,1.8c-0.1,0.1,0,0.2,0.1,0.3
			c0.3,0.2,0.2,0.3,0,0.5c-0.2,0.1-0.4,0.3-0.5,0.4c-0.2-0.2-0.2-0.5-0.2-0.8c0-0.2,0-0.3-0.2-0.4c-0.1-0.1-0.1-0.2,0-0.4
			c0.2-0.3,0.3-0.6,0.4-0.9c0-0.4,0.1-0.7,0.5-0.9c0.2-0.1,0.3-0.3,0.3-0.5c0-0.2,0.1-0.4,0.2-0.5c0.3-0.3,0.4-0.6,0.3-1.1
			c-0.1-0.4-0.3-0.6-0.7-0.8c0,0,0-0.1-0.1-0.1c0-0.2-0.1-0.3-0.1-0.5c0.1-0.3,0.4-0.2,0.6-0.3c0.1,0,0.1,0,0.2,0.1
			c0.5,0.4,1.1,0.5,1.6,0.1C36.2,9,36.7,8.9,37,8.6c0.2-0.2,0.5-0.2,0.8-0.2c0.1,0,0.3,0.1,0.4,0C38.7,8,39,8.1,39.4,8.2
			c0.2,0.1,0.4,0.1,0.4,0.3c0.1,0.2,0.2,0.5,0,0.6c-0.3,0.2-0.3,0.5-0.4,0.8c-0.4,0.3-0.9,0.5-1.4,0.7c-0.2,0.1-0.4,0.1-0.5,0.2
			c-0.3,0.1-0.4,0.4-0.4,0.7c0.1,0.4,0.1,0.7,0.1,1.1C37.1,12.8,37.1,13,36.8,13z"/>
		<path class="st18" d="M32.6,13.2c0.1,0.2,0.1,0.4,0.2,0.7c0.1-0.4,0.1-0.7,0.2-0.9c0.2-0.2,0.3-0.5,0.3-0.7c0-0.4,0.2-0.8,0.3-1.2
			c0-0.3,0-0.6,0.1-0.8c0-0.1,0-0.2,0-0.3c0.5,0.1,0.8,0.5,0.9,0.9c0,0.1,0,0.3,0.1,0.4c0.4,0.2,0.2,0.3,0,0.4
			c-0.4,0.2-0.6,0.5-0.6,0.9c0,0.2-0.2,0.4-0.4,0.5c-0.4,0.2-0.5,0.6-0.5,1c0,0.4-0.1,0.6-0.6,0.7C32.6,14.2,32.6,13.7,32.6,13.2z"
			/>
		<path class="st19" d="M31.3,18.4c-0.1,0.3-0.1,0.6-0.4,0.8c-0.1,0.1-0.1,0.2,0,0.3c0.2,0.3,0,0.5-0.2,0.7
			c-0.1-0.8,0.2-1.4,0.3-2.2c0-0.1,0-0.2,0.1-0.1c0.1,0,0.1,0.1,0.2,0.2C31.3,18.2,31.3,18.3,31.3,18.4z"/>
		<path class="st18" d="M32.6,15.1c0.2,0,0.3,0,0.3,0.2c-0.1,0.3,0.1,0.6,0.1,0.9c-0.1,0-0.2,0.1-0.2,0.1
			C32.7,15.9,32.7,15.5,32.6,15.1z"/>
		<path class="st13" d="M31.1,13.6c-0.1-0.3,0-0.7-0.5-0.7c-0.1,0-0.1-0.2-0.1-0.3c0-0.1,0.1-0.1,0.2-0.1c0.1,0,0.2,0,0.3,0
			c0,0.1,0.1,0.2,0.1,0.3C31.1,13.1,31.1,13.3,31.1,13.6z"/>
		<path class="st20" d="M96.9,16.9c-0.2-0.1-0.4-0.2-0.5-0.1c-0.2,0.1-0.2,0-0.2-0.1c-0.1-0.1,0-0.3,0.1-0.3c0.2-0.1,0.1,0,0.2,0.1
			c0.3-0.1,0.3,0.2,0.5,0.3C96.9,16.8,96.9,16.9,96.9,16.9z"/>
		<path class="st21" d="M14.4,26c0-0.2,0-0.3,0.3-0.3c0.2,0,0.3,0.2,0.3,0.3C14.8,26,14.6,26,14.4,26z"/>
		<path class="st21" d="M7.7,24.7c0,0.1-0.1,0.2-0.2,0.2c-0.1,0-0.2-0.1-0.2-0.2c0-0.1,0.1-0.2,0.2-0.2C7.6,24.6,7.7,24.6,7.7,24.7z
			"/>
		<path class="st18" d="M34,9.3c0.9-0.6,1.9-0.9,2.9-1.4c0.6-0.3,1.1-0.5,1.7-0.8C39,7,39.3,6.8,39.7,6.9C40,7,40.2,7.1,40.5,7
			c0.1-0.1,0.8,0.3,0.8,0.5C41.4,7.7,41.2,7.8,41,8c-0.3,0.3-0.5,0.7-0.4,1.1c-0.1,0.2-0.3,0.3-0.5,0.5c-0.2,0.1-0.4,0.1-0.6,0.3
			c-0.1,0.1-0.2,0.1-0.4,0c0-0.2,0.2-0.4,0.1-0.6c0-0.1,0-0.2,0.2-0.2c0.2,0,0.2-0.2,0.2-0.3c0-0.2-0.2-0.2-0.3-0.1
			c-0.2,0.1-0.3,0.1-0.4-0.1c-0.1-0.2-0.2,0-0.3,0c-0.2,0.2-0.4,0.3-0.8,0.2c-0.3-0.1-0.6,0-0.8,0.3c0,0.1-0.1,0.1-0.2,0.1
			c-0.5,0-0.8,0.4-1.2,0.6C35.1,9.9,34.4,9.8,34,9.3z"/>
		<path class="st22" d="M40,6.8c0.3,0.1,0.5,0.1,0.8,0.2c0.7,0.3,0.8,1,0.3,1.6c-0.2,0.2-0.4,0.3-0.6,0.4c-0.1-0.5,0.1-1.1,0.6-1.3
			c0.1,0,0.2-0.2,0.1-0.2c-0.3,0-0.3-0.5-0.7-0.4c-0.3,0.1-0.6,0-0.7-0.3C39.8,6.8,39.9,6.8,40,6.8z"/>
		<path class="st4" d="M42.4,9.7c0.2-0.3,0.2-0.7,0.1-1.1c0.2-0.1,0.2-0.4,0.5-0.3c0.1,0.1,0.2,0.1,0.3,0.1c0.1,0.1,0.2,0,0.2,0.2
			c-0.2-0.1-0.3,0-0.3,0.3c0.1,0.5-0.1,0.8-0.6,1c-0.1,0.2-0.2,0.3-0.4,0.1C42.2,9.9,42.3,9.8,42.4,9.7z"/>
		<path class="st23" d="M43.5,8.7c-0.1-0.1-0.1-0.1-0.2-0.2c0.3-0.1,0.2-0.3,0.2-0.5c0,0,0.1,0,0.1,0c0.3,0,0.4,0.5,0.8,0.5
			C44.1,8.8,43.8,8.9,43.5,8.7z"/>
		<path class="st20" d="M43.6,8C43.6,8,43.5,8,43.6,8"/>
		<path class="st24" d="M43,8.4c-0.2,0-0.3,0.3-0.5,0.3"/>
		<path class="st9" d="M5.9,20.5c0.3,0.3,0.4,0.7,0.4,1.1c-0.3,0-0.4,0.2-0.6,0.4c-0.1,0.1-0.2,0.3-0.4,0.2c-0.1,0-0.1-0.1-0.2-0.2
			c0.1-0.1,0.2-0.3,0.4-0.4c0.1,0,0.2,0,0.3-0.1c0.1,0,0.2-0.2,0.1-0.3C5.8,21,5.9,20.7,5.9,20.5z"/>
		<path class="st0" d="M47.5,22.4c-1,0.7-2.1,0.6-3.1-0.1c-0.8-0.5-1.4-1.2-1.8-2c-0.3-0.5-0.8-0.9-1-1.4c0.1,0,0.4,0.2,0.2-0.2
			c-0.2-0.4-0.2-0.8-0.1-1.2c0.1-0.5,0.1-1,0.1-1.5c0-0.6,0.1-1.1,0.5-1.5c0.1-0.1,0.1-0.2,0-0.3c-0.2-0.2-0.1-0.5,0-0.7
			c0.2-0.4,0.4-0.8,0.4-1.3c0-0.4,0.3-0.2,0.5,0c0-0.3-0.1-0.6,0.1-0.8c0.1-0.1,0.1-0.5,0.4-0.1c0.1,0.1,0.1,0,0.2-0.1
			c0.1-0.1,0.1-0.3,0-0.4c-0.1-0.1-0.3-0.3-0.4-0.4c-0.1-0.1-0.1-0.1-0.1-0.2c0.1-0.1,0.1,0,0.2,0c0.3,0.1,0.4,0,0.4-0.3
			c0-0.2,0.1-0.3,0.3-0.4C45,9,45.9,9,46.8,9.1c0.1,0,0.1,0,0.2,0c0.2-0.4,0.6-0.2,0.9-0.4c0.2-0.1,0.3,0,0.5,0.1
			c0.1,0.1,0.1,0.2,0.1,0.3c-0.1,0.2-0.2,0-0.2,0c-0.2-0.1-0.4,0-0.5,0.3c0,0.1-0.1,0.2-0.1,0.2c-0.2,0.3-0.2,0.5,0.1,0.7
			c0,0,0,0-0.1,0c-0.1,0.3-0.3,0.5-0.6,0.6c-0.4,0.2-0.6,0.5-0.6,0.9c-0.1,0.3-0.2,0.6-0.2,0.8c-0.1,0.3,0,0.3,0.3,0.2
			c0.4-0.2,0.7-0.4,1-0.5c0.3-0.1,0.5-0.3,0.8-0.2c0.3,0.1,0.4,0.3,0.5,0.6c0.1,0.3,0.2,0.6,0.4,0.8c0.1,0.2,0.1,0.4,0,0.6
			c-0.1,0.2-0.2,0.4-0.3,0.6c-0.1,0.3-0.4,0.5-0.6,0.6c-0.6,0.4-1.1,0.8-1.7,1.1c-0.5,0.3-1,0.5-1.5,0.3c-0.2,0-0.3-0.1-0.3,0.2
			c0,1-0.3,1.9,0,2.9c0.2,0.7,0.4,0.7,0.9,0.4c1.1-0.7,2-1.7,2.8-2.8c0.1-0.1,0.3-0.3,0.4-0.4c0.3-0.1,0.4,0,0.3,0.3
			c-0.1,0.8-0.1,1.6-0.3,2.3c-0.2,0.8-0.3,1.6-1,2.2C47.8,21.9,47.6,22.2,47.5,22.4z"/>
		<path class="st0" d="M54.4,8.3c0.3,0.4,0.5,0.4,0.9,0.1c0,0,0.1,0,0.1,0c0.3,0.3,0.7,0,1.1,0.2c0.2,0.1,0.4,0,0.6-0.2
			c0.2-0.2,0.4-0.2,0.6,0c0.2,0.2,0.4,0.1,0.6,0c0.3-0.1,0.6-0.4,1-0.2c0,0,0,0,0,0c0.3-0.6,0.8,0,1.1-0.2c0.2-0.1,1.1,0.4,1.2,0.6
			c0.1,0.1,0,0.2-0.1,0.2C61.2,9,61,9,60.9,9c-0.2,0-0.4,0.1-0.3,0.4c0.1,0.3-0.2,0.3-0.3,0.4c-0.4,0.2-0.8,0.2-1.2,0.3
			c-0.2,0.1-0.4,0.2-0.4,0.5c-0.1,1.1-0.2,2.3-0.4,3.4c-0.3,1.3-0.4,2.6-0.5,3.8c-0.1,1.5-0.1,3,0.1,4.5c0.1,0.6-0.1,1.1-0.4,1.3
			c-0.4,0.2-0.9,0-1.4-0.4c-0.1-0.3-0.3-0.7-0.5-1c-0.1-0.6-0.6-1-1-1.4c-0.1-0.2-0.2-0.3-0.2-0.5c0-0.7,0-1.4-0.1-2
			c-0.1-0.7,0.1-1.4,0.1-2.1c0-0.5,0-1,0.1-1.5c0.2-0.3,0-0.7,0.1-1.1c0.1-0.5,0.1-1,0.3-1.5c0-0.2,0-0.3,0.1-0.5
			c-0.6,0.1-1.2,0.4-1.8,0c-0.3-0.4-0.8-0.5-0.8-1c0-0.1,0-0.3,0-0.4c0.2-0.3,0.4-0.6,0.5-1c0-0.2,0.2-0.2,0.4-0.2
			c0.3-0.1,0.5-0.2,0.5-0.5C54,8.4,54.2,8.3,54.4,8.3z"/>
		<path class="st16" d="M63.7,19.4c0.4,0.4,0.4,1,0.4,1.5c0.1,0.6-0.1,1.1-0.4,1.3c0,0,0,0,0,0c-0.1,0.1-0.2,0.1-0.3,0.2
			c-1,1-2,0.6-2.5-0.4c-0.5-1.2-0.5-2.4,0.2-3.5c0.3-0.4,0.7-0.4,1.1-0.2C62.9,18.5,63.5,18.7,63.7,19.4c-0.2,0.2-0.3,0.3-0.6,0.2
			c-0.3,0-0.5,0.2-0.7,0.3c-0.2,0.2-0.5,0.4-0.7,0.5c-0.2,0.1-0.3,0.3-0.1,0.5c0.1,0.1,0.2,0.2,0.3,0.4c0.2,0.2,0.4,0.2,0.5,0.1
			c0.3-0.3,0.6-0.4,0.9-0.7c0.3-0.2,0.4-0.5,0.3-0.8C63.6,19.7,63.5,19.5,63.7,19.4z"/>
		<path class="st12" d="M49.5,11.8c0.2,0,0.4,0,0.6-0.1c0.1,0.1,0.2,0.1,0.2,0.3c-0.3,0.6-0.4,1.4-0.8,2c-0.2,0.2-0.4,0.4-0.5,0.6
			c0-0.1-0.1-0.2,0-0.3c0.3-0.7-0.2-1.2-0.5-1.7c-0.1-0.1,0-0.3-0.2-0.4c0.3-0.3,0.7-0.3,1.1-0.4C49.3,11.8,49.4,11.8,49.5,11.8z"/>
		<path class="st16" d="M53.8,8.6C54,8.6,54.1,8.7,54,8.9c-0.1,0.1-0.1,0.2-0.1,0.3c0,0.3-0.1,0.3-0.3,0.2c-0.4-0.2-0.5,0-0.5,0.3
			c0,0.1,0,0.3-0.1,0.4c-0.4,0.5-0.3,0.7,0.1,1.1c0.1,0.1,0.2,0.3,0.2,0.5c-0.6-0.3-1.2-0.6-1.4-1.4c-0.1-0.3-0.3-0.5-0.5-0.6
			c-0.1-0.1-0.2-0.1-0.2-0.3c0-0.1,0.2-0.1,0.3-0.1c0.4,0,0.7-0.1,1.1-0.2c0.3,0.1,0.5-0.1,0.7-0.4C53.4,8.7,53.6,8.6,53.8,8.6z"/>
		<path class="st8" d="M47.5,22.4c0-0.3,0.1-0.5,0.3-0.8c0.3-0.2,0.4-0.6,0.7-1c0,0,0-0.1,0-0.1c-0.2-0.6,0.3-1,0.4-1.5
			c0.1-0.6,0.2-1.3,0.2-1.9c0-0.1-0.1-0.2-0.2-0.2c0.1-0.2,0.2-0.4,0.4-0.6c0.2,0.3,0.1,0.6,0.2,0.9c-0.2,0.3-0.2,0.6-0.1,0.9
			c0,0.9,0,1.7-0.3,2.6c0,0,0,0,0,0.1c0,0,0,0,0,0c-0.1,0.2-0.2,0.4-0.3,0.5c0,0.3-0.1,0.4-0.3,0.4C48,21.8,47.8,22.2,47.5,22.4z"/>
		<path class="st20" d="M54.4,6.2c0.4,0,0.6,0.2,0.8,0.4c0.1,0.1,0,0.2-0.1,0.3c-0.1,0.2-0.1,0.3,0.2,0.3c0,0,0.1,0,0.1,0
			c0,0.1,0,0.1,0,0.2c-0.2,0.1-0.2,0.3-0.5,0.4c-0.1,0-0.1-0.1-0.1-0.2c0.1-0.2-0.1-0.3-0.2-0.4c-0.1-0.1-0.2-0.2-0.1-0.3
			C55.1,6.5,54.6,6.4,54.4,6.2z"/>
		<path class="st25" d="M54.9,12.3c0,0.9-0.3,1.7-0.4,2.5c-0.1,0.2-0.1,0.4-0.1,0.5c0,0.1,0,0.3-0.2,0.2c0,0-0.1-0.1,0-0.1
			c0.2-0.7,0.1-1.5,0.3-2.2C54.6,12.9,54.6,12.6,54.9,12.3z"/>
		<path class="st26" d="M63.7,13.6c0,0.1,0,0.1-0.1,0.2c-0.2,0.1-0.3,0.2-0.4,0.4c0,0.1-0.1,0.2-0.2,0.1c-0.1,0-0.1-0.1,0-0.2
			c0.1-0.2,0.2-0.4,0.3-0.6c0.1-0.1,0.2-0.2,0.3-0.1C63.5,13.4,63.6,13.5,63.7,13.6z"/>
		<path class="st27" d="M54.3,15.6c0.2-0.2,0-0.6,0.3-0.8c0,0.5,0,1-0.2,1.5C54.3,16.1,54.2,15.9,54.3,15.6z"/>
		<path class="st0" d="M53.2,8.9c0.1,0.4-0.3,0.4-0.4,0.5c-0.1,0.1-0.3,0-0.2-0.2C52.7,9.1,53,8.9,53.2,8.9z"/>
		<path class="st28" d="M55.6,22.4c0.4,0.2,0.6,0.5,0.5,1C55.8,23.1,55.7,22.7,55.6,22.4z"/>
		<path class="st23" d="M68.7,22.9c-0.2,0.2-0.3,0.2-0.5,0.1c0,0,0-0.1,0-0.1C68.3,22.8,68.5,22.9,68.7,22.9z"/>
		<path class="st12" d="M72.8,11c0.1,0,0.3,0,0.4,0c0.1,0.1,0.3,0.1,0.4,0.2c0.5,0.1,0.7,0.4,0.6,0.9c0,0.1,0,0.3,0.1,0.5
			c0.2,1-0.4,2.2-1.4,2.7c0.3-0.4,0.3-0.9,0.6-1.2c0,0,0.1-0.1,0-0.1c-0.2-0.2-0.3-0.6-0.7-0.6c-0.2-0.2,0-0.3,0.1-0.5
			c0.3-0.4,0.3-0.6,0-0.9C72.9,11.7,72.7,11.4,72.8,11z"/>
		<path class="st26" d="M72.4,13.7c-0.1,0.1-0.2,0.2-0.3,0.1c-0.1-0.1,0-0.3,0.1-0.4c0.4-0.4,0.6-0.9,0.7-1.4c0.4-0.1,0.5,0,0.5,0.4
			"/>
		<path class="st29" d="M77.7,15.8c-0.2,0.4-0.4,0.7-0.5,1.1c-0.1,0.2-0.2,0.4-0.4,0.6c0-0.2,0-0.3,0.1-0.5c0.1-0.2,0.1-0.3,0-0.4
			c0.3-0.4,0.6-0.7,0.8-1.1C77.9,15.5,77.8,15.6,77.7,15.8z"/>
		<path class="st26" d="M67,15.4c-0.6-0.6,0.3-0.4,0.3-0.7c0.2,0.2,0.1,0.3,0.1,0.4C67,14.9,67,15.1,67,15.4z"/>
		<path class="st30" d="M63.1,16.4c-0.1,0.3-0.3,0.5-0.5,0.6c-0.1,0-0.2-0.3-0.1-0.4C62.6,16.2,62.9,16.5,63.1,16.4z"/>
		<path class="st30" d="M63.7,22.2c0.3-0.4,0.5-0.8,0.4-1.3c0.2,0.4,0,0.8-0.1,1.3C64.1,22.3,63.9,22.2,63.7,22.2z"/>
		<path class="st0" d="M77.7,15.8c0-0.1,0-0.3-0.1-0.4c0-0.5,0.2-1.1,0-1.6c-0.2-0.7-0.1-1.4-0.1-2.1c0-0.3,0.3-0.4,0.4-0.6
			c0.2-0.1,0.3,0,0.4,0.1c0.5,0.4,1.1,0.7,1.7,0.9c0.3,0.4,0.7,0.8,1,1.1c0,0.1,0.1,0.1,0.1,0.2c0.2,0.1,0.4,0.1,0.4,0.3
			c0,0.1,0,0.1,0,0.2c0.2,0.1,0.3,0.3,0.3,0.5c0,0.2,0,0.5,0.1,0.7c0.1,0,0.2-0.1,0.3-0.1c0.3,0.2,0.4,0.8,0,1.2
			c-0.3,0.3-0.4,0.5-0.5,0.9c-0.3,0.4-0.1,0.8-0.2,1.2c0,0.4-0.1,0.9-0.1,1.3c0,0.2-0.1,0.4,0.3,0.3c0.1-0.3,0.3-0.4,0.6-0.5
			c0.7-0.3,1.3-0.8,1.9-1.2c0.2-0.2,0.5-0.3,0.7-0.3c0.2-0.1,0.4-0.2,0.4-0.5c-0.1-1.6,0.3-3.1,1.1-4.5c0.1-0.2,0.2-0.4,0.2-0.6
			c0-0.2,0.1-0.4,0.4-0.3c0.1,0.3,0.4,0.4,0.6,0.5c0.2,0.1,0.3,0.3,0.4,0.5c0.2,0.7,0.5,1.4,0.6,2.2c0.1,0.4,0.1,0.8-0.1,1.2
			c-0.1,0.1-0.1,0.3-0.1,0.5c-0.7,0.7-0.9,1.6-0.9,2.6c0,0.5,0.2,0.7,0.7,0.7c0.6,0,1.1-0.1,1.6-0.4c0.1-0.1,0.3-0.2,0.5-0.1
			c0.2,0.2,0.3,0.5,0.6,0.5c0.2,0.1,0.3,0.4,0.2,0.7c-0.2,0.4-0.4,0.7-0.8,0.9c-0.1,0.1-0.4,0.2-0.5,0.1c-0.6-0.3-1.1,0.1-1.7,0.3
			c-0.1,0-0.1,0-0.2,0c-0.1,0-0.1,0-0.2,0c-0.9-0.4-1.6-1-2.1-1.8c-0.2,0-0.3,0.1-0.4,0.3c-0.1,0.3-0.4,0.5-0.6,0.7
			c-0.5,0.2-0.6,0.7-0.9,0.9c-0.1,0.1-0.2,0.2-0.3,0.3c-0.2,0.3-0.6,0.3-0.8,0.4c-0.6,0-1.1,0-1.7-0.2c-0.4-0.2-0.8-0.4-1.1-0.7
			c-0.5-0.5-0.7-1.1-0.9-1.8c-0.1-0.2-0.1-0.2-0.3-0.1c-0.2,0.2-0.4,0.4-0.6,0.5c-0.5,0.4-0.7,0.9-1.2,1.2c-0.3,0.2-0.5,0.4-0.9,0.3
			c-0.1,0-0.2-0.1-0.2-0.2c0-0.1,0.1-0.2,0.1-0.2c0.4-0.1,0.5-0.4,0.7-0.7c0.5-0.6,1-1.1,1.5-1.6c0.2-0.2,0.2-0.3,0.1-0.6
			c-0.4-0.8-0.5-1.8-0.5-2.7C77.6,16.2,77.7,16,77.7,15.8z"/>
		<path class="st17" d="M81.5,17.1c0.1-0.4,0.3-0.7,0.5-1c0.1-0.3,0.4-0.6,0-0.9c-0.2-0.3,0.2-0.3,0.3-0.4c0.5-0.4,0.8-1,1.2-1.5
			c0.3-0.5,0.8-1,1.3-1.3c0.2-0.2,0.4-0.3,0.5,0.1c0,0,0.1,0.1,0.1,0.1c0.1,0.2-0.1,0.3-0.2,0.3C85,12.6,85,12.8,85.1,13
			c-0.2,0.5-0.5,1-0.9,1.4c-0.3,0.4-0.6,0.7-0.9,1.1c0,0.2-0.1,0.3-0.3,0.3c-0.4,0.3-0.8,0.6-1.1,1.1C81.8,17,81.8,17.2,81.5,17.1z"
			/>
		<path class="st22" d="M88.9,15.2c0,0.7-0.3,1.3-0.9,1.7c0.6-0.9,0.3-1.7,0-2.6c-0.2-0.7-0.4-1.5-1.1-2c-0.1,0-0.1-0.2-0.1-0.2
			c0.1,0.1,0.2,0.3,0.3,0.3c0.5,0.1,1,0,1.2,0.6c-0.2,0.4,0,0.8,0.1,1.2C88.7,14.4,88.8,14.8,88.9,15.2z"/>
		<path class="st20" d="M93.2,16.2c-0.1,0.5-0.5,0.5-0.9,0.4c-0.2-0.1-0.4-0.1-0.7-0.2"/>
		<path class="st20" d="M81.7,15.4c-0.1,0.1-0.1,0.2-0.3,0.3c0.2-0.6,0.4-1.2,0-1.8c0.1,0,0.1-0.1,0.2-0.1c0.2,0.1,0.3,0.3,0.3,0.6
			c0,0.1,0,0.1,0,0.2C82.2,15,81.8,15.2,81.7,15.4z"/>
		<path class="st7" d="M85.1,13c-0.1-0.1-0.4,0-0.4-0.2c0-0.2,0.2-0.2,0.3-0.3c0.1-0.1,0.3-0.2,0.4-0.4C85.5,12.5,85.2,12.7,85.1,13
			z"/>
		<path class="st31" d="M81.5,17.1c0.1-0.1,0.2-0.2,0.3-0.3c0.1,0,0.1,0.2,0.1,0.2c-0.5,0.3-0.3,0.9-0.4,1.3
			C81.3,17.9,81.3,17.5,81.5,17.1z"/>
		<path class="st20" d="M82.4,13.5c-0.1,0-0.3,0-0.2-0.1c0.1-0.2,0-0.4,0.2-0.5c0.2,0,0.2,0.2,0.2,0.4
			C82.6,13.4,82.6,13.5,82.4,13.5z"/>
		<path class="st32" d="M88.5,12.9c-0.3-0.4-0.8-0.5-1.2-0.6C87.9,12.2,88.3,12.4,88.5,12.9z"/>
		<path class="st20" d="M88.9,12.7c-0.1-0.1-0.3-0.2-0.3-0.4c0-0.1,0.1-0.1,0.1-0.1"/>
		<path class="st26" d="M81.9,14.5c-0.1-0.2-0.2-0.4-0.3-0.6C82.1,13.9,82.1,14.1,81.9,14.5z"/>
		<path class="st26" d="M81.7,15.4c0-0.3,0.3-0.5,0.2-0.8c0.1,0,0.3,0.1,0.4,0.1c-0.1,0.1-0.2,0.3-0.3,0.4
			C81.9,15.3,81.8,15.4,81.7,15.4z"/>
		<path class="st20" d="M84.9,11.3c0,0.1,0,0.2-0.1,0.3c-0.1,0-0.1-0.1-0.1-0.2c0-0.1,0-0.2,0.2-0.3C84.9,11.1,84.9,11.2,84.9,11.3z
			"/>
		<path class="st26" d="M81.4,13.8c-0.1-0.1-0.3-0.2-0.4-0.3c0.2,0,0.3-0.1,0.5,0.1C81.6,13.7,81.5,13.7,81.4,13.8z"/>
		<path class="st20" d="M88.4,11.5c0,0.1-0.1,0.1-0.1,0.1c-0.2,0.1-0.1-0.1-0.2-0.2c0-0.1,0-0.1,0.1-0.1
			C88.2,11.4,88.3,11.4,88.4,11.5z"/>
		<path class="st33" d="M82.9,15.8c0.1-0.1,0.2-0.2,0.3-0.3C83.3,15.8,83.3,15.8,82.9,15.8z"/>
		<path class="st18" d="M91.9,18.1c0.8-0.8,1.6,0.1,2.4-0.7c0.2,0,0.4,0.1,0.2,0.4c-0.1,0.1-0.1,0.2,0,0.3c-0.1,0.1-0.2,0.3-0.3,0.4
			c-0.1,0.3-0.3,0.5-0.4,0.8c-0.2,0.3-0.5-1.1-0.7-0.8c-0.3,0.6-0.8,1.1-1,1.8c0,0,0,0.1,0,0.1c-0.1,0.1-0.2,0.2-0.3,0.2
			c-0.3-0.1-0.4-0.4-0.2-0.6C91.9,19.4,91.9,18.8,91.9,18.1z"/>
		<path class="st7" d="M92.2,20.4c0-0.4,0.2-0.7,0.4-1c0.2-0.2,0.4-0.5,0.6-0.7C93.1,19.3,92.5,19.8,92.2,20.4
			C92.2,20.4,92.2,20.4,92.2,20.4z"/>
		<path class="st34" d="M93.9,19.4c-0.3-0.2,0-0.3,0.1-0.5c0.1-0.1,0.2-0.2,0.3-0.3C94.3,18.9,94.2,19.2,93.9,19.4z"/>
		<path class="st35" d="M77.9,11.1c-0.2,0.3-0.1,0.5-0.1,0.8c0,0.6-0.1,1.2-0.1,1.9c0,0,0,0-0.1,0c-0.1-0.4-0.2-0.7-0.3-1.1
			C77,12,77.3,11.5,77.9,11.1z"/>
		<path class="st20" d="M79.5,11.2c0.2,0,0.2,0.2,0.3,0.3c0,0.1,0,0.2-0.1,0.1c-0.1-0.1-0.3-0.2-0.3-0.3
			C79.3,11.2,79.4,11.2,79.5,11.2z"/>
		<path class="st6" d="M74.3,12.6c-0.3-0.1-0.4-0.2-0.1-0.5C74.3,12.3,74.4,12.5,74.3,12.6z"/>
		<path class="st36" d="M42.4,10c0.1,0,0.2,0,0.3-0.1c0,0.1,0,0.2,0,0.3c0.1,0.2-0.1,0.3-0.2,0.4c-0.1,0.1-0.1,0.3-0.2,0.4
			c-0.1,0.1,0,0.2-0.1,0.3c-0.1,0.5-0.3,0.9-0.3,1.3c-0.1,0-0.1,0.1-0.2,0.1c-0.1,0-0.1,0-0.1-0.1c-0.1-0.3-0.1-0.5,0-0.8
			c0.3-0.5,0.3-1.2,0.5-1.7C42.1,10.1,42.2,10,42.4,10z"/>
		<path class="st37" d="M41.6,12.6c0,0,0.1,0,0.1,0c0,0.2,0.1,0.5,0,0.7c-0.3,0.5-0.2,1-0.3,1.6c-0.1,0.2,0,0.5-0.3,0.5
			c0-0.6,0.2-1.2,0.3-1.8c0-0.2,0-0.4,0.1-0.6C41.4,12.8,41.4,12.7,41.6,12.6z"/>
		<path class="st4" d="M41.1,17.6c-0.1-0.5-0.2-1-0.1-1.5c0,0.1,0,0.3,0.2,0.4c0.1,0,0.2,0.2,0.1,0.3C41.2,17,41.3,17.3,41.1,17.6z"
			/>
		<path class="st4" d="M42.2,11.3c0-0.1,0.1-0.2,0.1-0.3c0.1,0.1,0.2,0.2,0.3,0c0.1-0.1,0.2-0.2,0.3-0.1c0.1,0,0,0.1,0,0.2
			c-0.1,0.1-0.1,0.4-0.3,0.4C42.4,11.5,42.3,11.4,42.2,11.3z"/>
		<path class="st4" d="M41.1,15.4c0.1-0.2,0.2-0.4,0.3-0.5c0.1,0.4,0,0.8-0.4,1.2C41,15.9,41.1,15.7,41.1,15.4z"/>
		<path class="st4" d="M41.7,13.3c0-0.2,0-0.5,0-0.7c0.1,0,0.1,0,0.2,0c-0.1,0.1-0.1,0.3,0,0.4C42.2,13.4,41.9,13.3,41.7,13.3z"/>
		<path class="st4" d="M42.4,10.6c0.1-0.1,0.1-0.3,0.2-0.4c0.1,0,0.2-0.1,0.3,0.1c0,0.1-0.1,0.1-0.1,0.2
			C42.6,10.5,42.5,10.6,42.4,10.6z"/>
		<path class="st38" d="M18.3,11c0,0.6-0.3,1.1-0.6,1.6c-0.1,0.3-0.1,0.7-0.4,1c0.1-0.8,0.3-1.5,0.5-2.3C18,11.2,18,10.9,18.3,11z"
			/>
		<path class="st39" d="M18.3,11c-0.1,0.2-0.2,0.3-0.4,0.3c0.1-0.5,0.1-1,0.4-1.4c0.2,0.1,0,0.4,0.1,0.5
			C18.3,10.6,18.3,10.8,18.3,11z"/>
		<path class="st28" d="M18.5,9.2c-0.2,0.1-0.2,0.2-0.3,0.4c-0.1-0.1-0.3-0.2-0.2-0.4C18.2,9,18.4,9.1,18.5,9.2z"/>
		<path class="st28" d="M18.3,10.4c-0.3-0.1-0.1-0.3-0.1-0.5c0-0.1,0.1-0.1,0.1-0.2C18.3,10,18.5,10.2,18.3,10.4z"/>
		<path class="st0" d="M28.6,15.5c0.3,0,0.5-0.1,0.8,0c0.2,0.1,0.4,0,0.5-0.2c0-0.1,0.1-0.2,0.2-0.2c0.3,0,0.7-0.1,0.8-0.5
			c0.2,0.6-0.1,1-0.2,1.4c0,0.2-0.1,0.1-0.2,0c-0.1-0.1-0.1-0.2-0.3-0.2c-0.1,0-0.2,0-0.2,0.1c0,0.1,0,0.1,0.1,0.2
			c0.2,0.1,0.3,0.3,0.2,0.5c-0.1,0.2-0.3,0.2-0.4,0.2c-0.1,0-0.2,0-0.3,0.1c-0.1,0.4-0.4,0.5-0.7,0.6c-0.1,0-0.1,0.1-0.2,0.1
			c0.2,0.1,0.4,0.2,0.6,0c0.1,0,0.1-0.1,0.2,0c0.4,0.2,0.7,0.2,0.4-0.4c0-0.1,0-0.1,0.1-0.1c0.1,0,0.1,0,0.1,0.1
			c0.1,0.5,0.2,0.9,0.3,1.4c0,0.1-0.1,0.1-0.2,0.2c-0.3,0.1-0.3,0.3,0,0.5c0.3,0.2,0.5,0.3,0,0.6c-0.2,0.1-0.6,0.4-0.4,0.9
			c0.1,0.5-0.3,0.8-0.8,0.7c-0.1,0-0.2-0.1-0.3-0.1c-0.1,0.2,0.1,0.2,0.1,0.4c-0.3-0.1-0.4,0.2-0.7,0.2c-0.2,0.1-0.1,0.2,0,0.3l0,0
			c-0.2,0.1-0.4,0.2-0.2,0.5c0.1,0.2,0.1,0.4-0.1,0.6c-0.2,0.3-0.3,0.6,0.1,0.8c-0.3,0.3-0.4,0.8-0.9,0.7c-0.4,0-0.8-0.2-1.2-0.4
			c-0.4-0.2-0.7-0.5-0.9-0.9c-0.2-0.5-0.5-0.9-1-1.1c-0.3-0.1-0.4-0.6-0.5-0.9c-0.1-0.1-0.2-0.1-0.3-0.1c-0.3-0.2-0.4-0.6-0.5-0.9
			c0-0.1-0.1-0.2-0.2-0.2c-0.1,0-0.2,0.1-0.2,0.2c-0.1,0.3-0.2,0.6-0.3,0.9c-0.1,0.2-0.3,0.4-0.5,0.6c-0.3,0.2-0.5,0.4-0.6,0.7
			c-0.1,0.4-0.4,0.7-0.6,1.1c-0.1,0.2-0.3,0.2-0.5,0c-0.2-0.2-0.4-0.2-0.6-0.2c-0.4,0-0.6-0.3-0.8-0.5c0,0,0-0.1-0.1-0.1
			c-0.9-0.5-0.9-1.4-1-2.2c-0.1-0.6-0.3-1.2-0.2-1.8c0.2-0.1,0.5-0.2,0.1-0.5c-0.1-0.1,0-1,0.1-1.1c0.1-0.1,0.1-0.2,0.1-0.3
			c-0.1-0.7-0.1-0.7,0.3-1.3c-0.2-0.2,0.1-0.5,0-0.8c-0.3-0.4,0-0.6,0.2-0.7c0.2-0.1,0.4-0.3,0.2-0.6c-0.1-0.2,0.1-0.4,0.2-0.4
			c0.4-0.2,0.6-0.4,0.4-0.8c-0.1-0.1,0-0.2,0.1-0.3c0.2-0.1,0.2-0.3,0.3-0.4c0.3-0.3,0.5-0.6,0.8-0.9c0.2-0.2,0.5-0.3,0.8,0
			c0.3,0.2,0.6,0.2,0.9,0.4c0.6,0.8,0.3,1.6,0,2.5c-0.6,2-0.9,4.1-1.1,6.2c0,0.2-0.1,0.4,0.1,0.7c0.4-0.6,0.7-1.2,1.1-1.8
			c0.1-0.4,0.4-0.7,0.5-1.1c0.1-0.2,0.2-0.5,0.4-0.7c0.6-0.2,0.6-0.8,0.7-1.2c0.1-0.4,0.3-0.7,0.7-0.6c0.3,0,0.5-0.1,0.6-0.4
			c0.2-0.3,0.5-0.5,0.9-0.7c0.6-0.2,0.9,0.1,1.3,0.3c0.3,0.5,0.4,1,0.3,1.6c-0.1,0.4-0.1,0.8-0.2,1.2c-0.1,0.4-0.1,0.8-0.1,1.2
			c0.1,0.2,0,0.5,0,0.7c0-0.2,0-0.3,0.2-0.5c0.3-0.2,0.2-0.6,0.3-0.8c0.2-0.2,0-0.6,0.3-0.7c0.3-0.2,0.5-0.6,0.9-0.3
			c0.1,0.1,0.2,0,0.3-0.1c0.1-0.1,0.1-0.3,0-0.3C28.5,16.1,28.5,15.8,28.6,15.5L28.6,15.5z"/>
		<path class="st12" d="M18.2,23.2c0.2,0,0.4,0.1,0.6,0.2c0.2,0.1,0.5,0.2,0.7,0.1c0.3-0.1,0.5-0.1,0.3,0.4c0.3-0.4,0.7-0.7,0.7-1.1
			c0-0.4,0.2-0.6,0.5-0.8c0.7-0.3,0.7-0.9,0.9-1.4C22,20.3,22,20,22.4,20c0.3,0,0.4,0.2,0.4,0.5c0.1,0.3,0.3,0.6,0.4,0.9
			c-0.5,0.6-0.9,1.3-1.5,1.8c-0.5,0.4-0.7,0.9-0.8,1.5c-0.9,0.5-1.9,0.1-2.4-1C18.4,23.5,18.3,23.3,18.2,23.2z"/>
		<path class="st35" d="M20.9,24.7c-0.2-0.7,0-1.1,0.6-1.5c0.1-0.1,0.2-0.1,0.1-0.2c0,0,0-0.1,0-0.1c0.7-0.3,0.8-1.2,1.6-1.4
			c0.1,0.1,0.1,0.1,0.2,0.2c-0.3,0.4-0.6,0.7-0.9,1.1c-0.2,0.3-0.4,0.5-0.7,0.7C21.3,23.7,21.1,24.2,20.9,24.7z"/>
		<path class="st12" d="M26.8,14.4c-0.1,0-0.2,0.1-0.3,0c-0.4-0.3-0.8-0.1-1.1,0c-0.2,0.1-0.6,0.3-0.6,0.6c-0.1,0.4-0.3,0.4-0.6,0.4
			c-0.5-0.1-0.6-0.1-0.6,0.5c0,0.3-0.2,0.5-0.3,0.8c0,0-0.1,0.1-0.1,0.1C23,17,22.8,17.1,22.6,17c0,0-0.1-0.1-0.1-0.1
			c0.1-0.5,0.4-1,0.5-1.5c0.1-0.7,0.3-1.4,0.2-2.1c0.2-0.3,0.4-0.1,0.6-0.1c0.4,0.2,0.8,0.2,1.2,0.3C25.7,13.5,26.4,13.6,26.8,14.4z
			"/>
		<path class="st40" d="M27.6,17c-0.1,0.3-0.1,0.5-0.2,0.8c-0.2,0-0.1-0.1-0.1-0.2c0-0.3,0.2-0.6,0.1-0.9c0-0.3-0.1-0.7,0.1-1
			c0,0,0.1,0,0.1,0.1c0-0.1,0-0.1-0.1-0.1c0-0.1,0-0.2,0.1-0.4c0.2-0.3,0-0.7,0.1-1c0-0.3,0-0.5,0.1-0.8c0.1,0,0.1-0.1,0.2-0.1
			c0.2,1.1-0.1,2.1-0.2,3.2C27.6,16.8,27.6,16.9,27.6,17z"/>
		<path class="st41" d="M27.3,10.5c0.1,0.5,0.2,0.9,0.3,1.4c-0.3,0.2,0,0.5-0.1,0.7c-0.3-0.5-0.2-1.1-0.5-1.7
			C26.9,10.7,27.2,10.7,27.3,10.5C27.2,10.5,27.3,10.5,27.3,10.5z"/>
		<path class="st32" d="M23.1,15.4c-0.1,0.6-0.3,1.1-0.5,1.6c-0.2,0-0.1-0.2-0.2-0.3c0.1-0.5,0.3-1,0.5-1.5
			C23.1,15.1,23,15.3,23.1,15.4z"/>
		<path class="st42" d="M23.1,15.4c-0.1-0.1-0.1-0.1-0.2-0.2c0.1-0.4,0.2-0.9,0.1-1.3c0-0.2,0-0.4,0.1-0.6c0.2,0.1,0.3,0.2,0.2,0.4
			C23.3,14.2,23.2,14.8,23.1,15.4z"/>
		<path class="st11" d="M27.3,16.8c0.2,0.1,0.1,0.3,0.1,0.5c0,0.2-0.1,0.4,0,0.6c-0.1,0.3,0,0.7-0.4,0.8c0,0-0.1-0.1,0-0.1
			C27.1,17.9,27.2,17.3,27.3,16.8z"/>
		<path class="st43" d="M22.2,17.7c-0.2,0.3-0.2,0.8-0.6,1c-0.1-0.5,0.3-0.9,0.5-1.3C22.3,17.5,22.3,17.6,22.2,17.7z"/>
		<path class="st1" d="M23.2,10.7c0,0.3-0.5,0.6,0.1,0.7c0.1,0,0.1,0.3,0.1,0.4c0,0-0.1,0.1-0.1,0.1c-0.1-0.3-0.4-0.3-0.5-0.5
			C22.8,11.1,22.9,10.8,23.2,10.7z"/>
		<path class="st32" d="M26.9,18.5c0,0,0,0.1,0,0.1c0,0.3-0.1,0.6-0.3,0.8c-0.1-0.4,0-0.7,0.1-1.1C26.8,18.4,26.9,18.4,26.9,18.5z"
			/>
		<path class="st44" d="M22.2,17.7c0-0.1-0.1-0.2-0.1-0.4c0.1-0.2,0.2-0.5,0.3-0.7c0.1,0.1,0.1,0.2,0.2,0.3c0,0,0,0.1,0,0.1
			C22.5,17.3,22.3,17.5,22.2,17.7z"/>
		<path class="st40" d="M27.5,14.9c-0.1-0.1-0.2-0.1-0.2-0.1c0.2-0.3,0.1-0.7,0.1-1.1c0,0,0.1-0.1,0.1-0.1c0.2,0.2,0,0.5,0.1,0.8
			C27.5,14.6,27.7,14.8,27.5,14.9z"/>
		<path class="st45" d="M27.6,14.4c0-0.3,0-0.5,0-0.8c-0.1-0.2-0.1-0.4,0-0.6c0.1,0.2,0.1,0.4,0.1,0.6
			C27.7,13.9,27.6,14.1,27.6,14.4C27.6,14.5,27.6,14.5,27.6,14.4z"/>
		<path class="st46" d="M27.6,14.4C27.6,14.4,27.6,14.4,27.6,14.4c0.1,0.3,0.1,0.6,0.1,0.9c0,0.1,0,0.2-0.2,0.1c0-0.1,0-0.3,0-0.4
			C27.6,14.8,27.6,14.6,27.6,14.4z"/>
		<path class="st46" d="M27.4,15.7c0.4,0.2,0.1,0.4,0,0.7C27.4,16.2,27.4,16,27.4,15.7C27.4,15.8,27.4,15.7,27.4,15.7z"/>
		<path class="st1" d="M24.5,11c0-0.2,0-0.4,0.2-0.4c0,0,0.1,0,0.1,0.1C24.7,10.8,24.6,10.8,24.5,11z"/>
		<path class="st47" d="M30.1,11c-0.1-0.1-0.2-0.2-0.3-0.2c-0.4,0-0.4-0.2-0.2-0.5C29.9,10.4,30,10.7,30.1,11z"/>
		<path class="st48" d="M29.6,10.3c-0.3,0-0.5-0.2-0.7-0.4C29.2,9.8,29.4,10.1,29.6,10.3z"/>
		<path class="st49" d="M40.2,17.6c0.1-0.2,0.3-0.2,0.5-0.3c0,0.2-0.1,0.3-0.2,0.5c-0.6,0.8-0.6,1.7-0.6,2.7c0,0.2,0,0.5-0.2,0.6
			c-0.2,0.5-0.5,1-0.7,1.4c-0.1,0.2-0.4,0.2-0.5,0.5c-0.3,0.2-0.5,0.4-0.8,0.6c-0.4,0.2-0.9,0.1-1.3,0c-0.6-0.1-1.1-0.5-1.4-1
			c0.2-0.3,0.5-0.2,0.7-0.1c0.8,0.5,1.8,0.4,2.2-0.4c0.4-0.7,0.9-1.3,1-2.1c0-0.3,0.2-0.5,0.3-0.8c0.1-0.2,0.2-0.4,0.2-0.7
			c0-0.3,0.3-0.6,0.5-0.8C40.1,17.8,40.1,17.8,40.2,17.6z"/>
		<path class="st50" d="M38.5,23.1c-0.1-0.1-0.2-0.3,0-0.3c0.3-0.1,0.3-0.3,0.4-0.5c0.1-0.4,0.4-0.8,0.7-1.1c0.1,0.2,0.1,0.3,0,0.5
			C39.4,22.3,39.1,22.7,38.5,23.1z"/>
		<path class="st30" d="M50.4,19.6c0.6-0.1,0.9-0.1,0.7-0.7c0.2,0,0.5,0.1,0.5,0.2c0,0.2,0.2,0.5-0.1,0.6c-0.1,0-0.1,0.2-0.1,0.3
			c0,0.1,0.1,0.2,0,0.2c-0.1,0-0.3,0-0.3-0.1C51,19.8,50.6,19.8,50.4,19.6z"/>
		<path class="st30" d="M48.4,21.7c0.1-0.1,0.2-0.3,0.3-0.4c0.4-0.1,0.4,0.3,0.6,0.4c0.1,0.1-0.2,0.2-0.3,0.2
			C48.8,21.6,48.6,21.8,48.4,21.7z"/>
		<path class="st30" d="M47.6,23.1C47.6,23.1,47.5,23.1,47.6,23.1c0,0.6-0.4,0.4-0.6,0.5c-0.1,0-0.1-0.2,0-0.2
			c0.2-0.1,0.3-0.2,0.4-0.4C47.5,22.7,47.5,22.8,47.6,23.1L47.6,23.1z"/>
		<path class="st30" d="M49,20.7C49,20.7,49,20.6,49,20.7c0-0.1,0.1-0.1,0.1-0.1c0.1,0,0.2,0.2,0.4,0c0.1-0.1-0.1-0.2-0.1-0.4
			c0.4,0.1,0.5,0.3,0.3,0.6c-0.1,0.1-0.2,0.2-0.3,0C49.3,20.8,49.1,20.8,49,20.7z"/>
		<path class="st30" d="M50,19.2c0,0.1,0.1,0.2-0.1,0.2c-0.1,0-0.2,0-0.3-0.2c0-0.1,0.1-0.2,0.2-0.2C50,18.9,50,19.1,50,19.2z"/>
		<path class="st30" d="M47.5,24.2c-0.1,0.3-0.2,0.4-0.6,0.2C47.1,24.3,47.2,24.2,47.5,24.2z"/>
		<path class="st30" d="M49.9,21.9c-0.2-0.2-0.4-0.3-0.3-0.5c0,0,0.1,0,0.1,0C49.9,21.4,49.9,21.6,49.9,21.9z"/>
		<path class="st17" d="M40.2,17.6c0.1,0.2,0,0.3-0.1,0.4c-0.1,0.3-0.3,0.6-0.3,1c0,0.3-0.3,0.6-0.4,0.9c-0.2,0.5-0.3,1-0.5,1.5
			c0,0.1,0,0.2-0.1,0.2c-0.5,0.4-0.7,1.1-1.3,1.4c-0.5,0.3-1,0.4-1.5,0c-0.3-0.2-0.6-0.4-0.9-0.3c0,0,0-0.1-0.1-0.1
			c0-0.2-0.2-0.4,0.1-0.5c0.4,0.2,0.8,0.4,1.2,0.6c0.4,0.1,0.6,0,0.7-0.3c0.1-0.3,0.2-0.6,0.7-0.6c0.3,0,0.3-0.4,0.3-0.6
			c0-0.3-0.2-0.1-0.4-0.1c-0.1,0-0.1,0.1-0.2,0c-0.1-0.1,0-0.2,0-0.2c0.1-0.1,0.2-0.2,0.2-0.2c0.3-0.2,0.3-0.5,0.1-0.7
			C38.5,19.1,39.3,18.3,40.2,17.6z"/>
		<path class="st18" d="M37.2,14c0.5-0.2,1.1-0.2,1.6-0.3c0.2,0,0.3,0.1,0.3,0.3c-0.1,0.4,0,0.7,0,1.1c-0.1,0.5-0.3,0.8-0.5,1.2
			c-0.1-0.5-0.1-1-0.5-1.4c-0.2-0.2,0-0.6,0.1-1c-0.4,0.1-0.5,0.7-1.1,0.5C37.1,14.3,37.4,14.2,37.2,14z"/>
		<path class="st49" d="M35,22.1c0,0.2-0.1,0.4-0.1,0.5c-0.2-0.2-0.4-0.5-0.5-0.8C34.7,21.6,34.8,22.1,35,22.1z"/>
		<path class="st0" d="M28.6,15.5c-0.2,0-0.3-0.1-0.3-0.3c0-0.2,0.2-0.2,0.3-0.3c0.3,0,0.4-0.2,0.2-0.5c-0.1-0.1-0.2-0.2,0-0.3
			c0.1-0.1,0.3-0.1,0.4,0.1c0.1,0.2,0.2,0.4,0.2,0.6c0.1,0.2-0.1,0.4-0.3,0.3C28.8,15.2,28.6,15.3,28.6,15.5L28.6,15.5z"/>
		<path class="st0" d="M28.1,22.3c0.1-0.1,0.2-0.1,0.3-0.2c0.2-0.1,0.4-0.2,0.5,0c0.1,0.2-0.1,0.4-0.2,0.5c-0.1,0.1-0.2,0.1-0.3,0
			C28.3,22.5,28.2,22.4,28.1,22.3L28.1,22.3z"/>
		<path class="st0" d="M29.3,12.8c0.1,0,0.3,0,0.3,0.2c0,0.2-0.2,0.2-0.4,0.2c-0.1,0-0.2,0-0.2-0.2C29,12.8,29.1,12.8,29.3,12.8z"/>
		<path class="st51" d="M73.6,23.6c0-0.4,0.2-0.5,0.6-0.2C73.9,23.5,73.7,23.5,73.6,23.6C73.6,23.6,73.6,23.6,73.6,23.6z"/>
		<path class="st52" d="M84.7,21.5c0.1-0.4,0.5-0.6,0.7-1c0.1-0.1,0.2-0.1,0.2,0c-0.2,0.2-0.3,0.5-0.5,0.7
			C85,21.3,84.8,21.5,84.7,21.5z"/>
		<path class="st53" d="M82.6,23.1c0.3-0.1,0.5-0.3,0.8-0.4c0.1,0.2,0,0.3-0.1,0.3C83.1,23.1,82.8,23.2,82.6,23.1z"/>
		<path class="st17" d="M91.9,18.1c0.1,0.1,0.3,0.2,0.3,0.3c-0.1,0.5,0,1-0.3,1.4c-0.1,0.2-0.3,0.4-0.2,0.7c0.1,0.4-0.2,0.6-0.3,0.8
			c-0.9,1.1-2.1,1.1-3.4,1.1c-0.1,0-0.2-0.1-0.2-0.1c0.5-0.4,0.9-0.8,1.6-0.6c0.4,0.1,0.7,0,0.9-0.3c0.1-0.2,0.3-0.3,0.4-0.5
			c0.1-0.1,0.1-0.3,0-0.4c-0.1-0.1-0.2-0.1-0.3,0c-0.1,0.1-0.3,0.2-0.4,0.1c-0.1-0.1,0-0.3,0.1-0.4c0-0.1,0-0.2,0-0.3
			C90.7,19.2,91.3,18.7,91.9,18.1z"/>
		<path class="st7" d="M91.4,21.3c0.1-0.3,0.2-0.5,0.3-0.8c0.1,0,0.2-0.1,0.3-0.1C92,20.8,91.8,21.1,91.4,21.3z"/>
		<path class="st18" d="M33.6,9.9c-0.2-0.1-0.3-0.2-0.5-0.3c0.1-0.2,0.3-0.2,0.4-0.2C33.6,9.6,33.6,9.8,33.6,9.9z"/>
		<path class="st54" d="M33.6,10.2c0.2,0.5,0.2,1-0.1,1.6c-0.1,0.1,0,0.3,0,0.4c0,0.3-0.1,0.6-0.5,0.7C33.1,12,33.4,11.1,33.6,10.2z
			"/>
		<path class="st55" d="M63.7,19.4c0.2,1.2,0.2,1.2-0.8,1.8c-0.3,0.2-0.5,0.5-0.7,0.7c-0.2,0.2-0.3,0.2-0.3,0
			c-0.1-0.3-0.3-0.5-0.5-0.7c-0.3-0.3-0.1-0.6-0.1-0.9c0-0.1,0.2-0.1,0.3,0c0.3,0.1,0.5,0,0.6-0.3c0.1-0.1,0.2-0.2,0.3-0.3
			C62.8,19.4,63.3,19.3,63.7,19.4C63.7,19.4,63.7,19.4,63.7,19.4z"/>
		<path class="st30" d="M49.5,11.8c-0.1,0-0.1,0-0.2,0c-0.1-0.1-0.1-0.2,0-0.3c0.1-0.1,0.2-0.1,0.2,0C49.6,11.7,49.6,11.7,49.5,11.8
			z"/>
	</g>
</g>
</svg>
