<?xml version="1.0" encoding="utf-8"?>
<!-- Generator: Adobe Illustrator 20.0.0, SVG Export Plug-In . SVG Version: 6.00 Build 0)  -->
<svg version="1.1" id="Layer_1" xmlns="http://www.w3.org/2000/svg" xmlns:xlink="http://www.w3.org/1999/xlink" x="0px" y="0px"
	 viewBox="0 0 100 30" style="enable-background:new 0 0 100 30;" xml:space="preserve">
<style type="text/css">
	.st0{fill:#101010;}
	.st1{fill:#181818;}
	.st2{fill:#1E1E1E;}
	.st3{fill:#161616;}
	.st4{fill:#2F2F2F;}
	.st5{fill:#7F7F7F;}
	.st6{fill:#888888;}
	.st7{fill:#8B8B8B;}
	.st8{fill:#0F0F0F;}
	.st9{fill:#1D1D1D;}
	.st10{fill:#171717;}
	.st11{fill:#686868;}
	.st12{fill:#141414;}
	.st13{fill:#1A1A1A;}
	.st14{fill:#212121;}
	.st15{fill:#282828;}
	.st16{fill:#272727;}
	.st17{fill:#313131;}
	.st18{fill:#2A2A2A;}
	.st19{fill:#333333;}
	.st20{fill:#999999;}
	.st21{fill:#C2C2C2;}
	.st22{fill:#737373;}
	.st23{fill:#6A6A6A;}
	.st24{fill:#656565;}
	.st25{fill:#808080;}
	.st26{fill:#232323;}
	.st27{fill:#343434;}
	.st28{fill:#858585;}
	.st29{fill:#838383;}
	.st30{fill:#252525;}
	.st31{fill:#222222;}
	.st32{fill:#8D8D8D;}
	.st33{fill:#BABABA;}
	.st34{fill:#2B2B2B;}
	.st35{fill:#8A8A8A;}
	.st36{fill:#191919;}
	.st37{fill:#1B1B1B;}
	.st38{fill:#292929;}
	.st39{fill:#262626;}
	.st40{fill:#787878;}
	.st41{fill:#8F8F8F;}
	.st42{fill:#868686;}
	.st43{fill:#7E7E7E;}
	.st44{fill:#717171;}
	.st45{fill:#1C1C1C;}
	.st46{fill:#373737;}
	.st47{fill:#818181;}
	.st48{fill:#2E2E2E;}
	.st49{fill:#878787;}
	.st50{fill:#848484;}
	.st51{fill:#777777;}
	.st52{fill:#2D2D2D;}
	.st53{fill:#6D6D6D;}
	.st54{fill:#323232;}
	.st55{fill:#1F1F1F;}
	.st56{fill:#959595;}
	.st57{fill:#595959;}
	.st58{fill:#383838;}
	.st59{fill:#939393;}
	.st60{fill:#989898;}
	.st61{fill:#151515;}
	.st62{fill:#434343;}
	.st63{fill:#202020;}
	.st64{fill:#2C2C2C;}
	.st65{fill:#242424;}
	.st66{fill:#3B3B3B;}
	.st67{fill:#494949;}
	.st68{fill:#898989;}
	.st69{fill:#9B9B9B;}
</style>
<g id="A5O4qO.tif">
	<g>
		<path class="st0" d="M75.6,22.4c-0.4-0.3-0.7-0.7-1.1-1c0,0,0,0,0,0c-0.5-0.8-0.9-1.5-1-2.4c-0.1-0.5-0.2-1.1-0.4-1.6
			c-0.2-0.7-0.3-1.4-0.3-2.2c0-0.3,0-0.6-0.1-0.9c-0.1,0-0.1-0.1-0.1-0.2c0-0.5,0-1,0.2-1.4c0.1-0.2,0-0.4,0-0.6
			c0-0.5,0.1-0.9,0.4-1.3c0.1-0.1,0.1-0.2,0.1-0.2c0.1-0.1-0.2-0.3,0-0.4c0.3-0.4,0.4-1,0.5-1.4c0.1-0.2,0.1-0.4,0.4-0.5
			c0,0,0,0,0-0.1c-0.1-0.6,0.2-1.1,0.5-1.7c0.1-0.2,0.3-0.1,0.4,0c0.1,0.1,0.1,0.2,0,0.4C75,7,74.9,7.2,74.7,7.4
			C75.1,7,75.6,6.5,75.9,6c0.1-0.1,0.2-0.2,0.2-0.4c0.3-0.5,0.7-0.5,1,0c0.2,0.4,0.6,0.7,0.9,1c0.3,0.5,0.4,1.1,0.6,1.7
			c0.1,0.3,0,0.6-0.1,0.9c-0.1,0.3-0.2,0.6-0.3,0.9c0,0.1,0,0.3-0.2,0.4c-0.3,0.4-0.3,0.8-0.5,1.2c0.2,0.2,0.2,0.3,0.1,0.5
			c-0.1,0.2-0.2,0.3-0.2,0.5c0,0.6-0.3,1.2-0.5,1.7c-0.1,0.2-0.1,0.3-0.1,0.5c0,0.4-0.1,0.8-0.2,1.2c-0.1,0.3-0.1,0.5-0.1,0.8
			c0,0.5,0,1,0,1.6c0.6-0.4,1.1-0.8,1.4-1.4c0.1-0.1,0.3-0.1,0.3-0.3c0,0,0-0.1,0-0.1c0.3-0.3,0.5-0.6,0.7-0.9
			c0.1-0.1,0.1-0.2,0.2-0.2c0.2,0,0.3,0.1,0.3,0.3c0.1,0.4,0.2,0.8,0.1,1.1c-0.2,0.6-0.2,1.1-0.3,1.7c0,0.2-0.1,0.4-0.2,0.6
			c0,0.5-0.2,1-0.5,1.5c0,0.1-0.1,0.2-0.1,0.3c0,0.7-0.5,1.1-1,1.5c-0.1,0-0.1,0.1-0.1,0.2c-0.5,0.3-0.9,0-1.3-0.1
			C76,22.6,75.8,22.5,75.6,22.4z"/>
		<path class="st1" d="M61,9c0.4,0.5,0.8,1.1,1,1.7c0,0.1,0,0.2,0,0.2c-0.2,0.3-0.4,0.1-0.6,0c-0.1-0.1-0.2-0.2-0.3-0.4
			c-0.3-0.5-0.9-0.6-1.3-0.3c-0.5,0.5-1.1,0.8-1.5,1.3c-0.2,0.3-0.4,0.5-0.7,0.6c-0.5,0.2-0.4,0.3-0.7-0.2c0.2-0.4,0.3-0.9,0.5-1.3
			c0.4-0.7,0.9-1.4,1.5-2c0.2-0.2,0.3-0.4,0.5-0.6c0.2-0.1,0.3-0.1,0.4,0c0.2,0.2,0.4,0.4,0.6,0.5C60.7,8.7,60.8,9,61,9z"/>
		<path class="st2" d="M47.1,11.3c0.2-0.6,0.4-1.1,0.5-1.7c0,0,0,0,0.1,0c0.1,0,0.1-0.2,0.2-0.2c0.2,0,0.2-0.2,0.3-0.3
			c0.1-0.5,0.2-0.7,0.7-0.6c0.3,0,0.7,0,0.9,0.3c-0.1,0.2-0.3,0.4-0.3,0.7c0,0.1-0.1,0.1-0.1,0.1c-0.1,0.1-0.2-0.1-0.3,0
			c-0.1,0-0.2,0-0.2,0.1c0,0.3-0.1,0.6-0.2,0.9c-0.1,0.3,0,0.6,0.2,0.9c0.1,0.1,0.1,0.1,0.1,0.2c0,1.2-0.6,2.3-0.9,3.4
			c-0.2,0.4,0,0.8-0.1,1.2c-0.1,0.2-0.1,0.4-0.2,0.5c-0.1,0.1-0.1,0.2-0.3,0.2c-0.2,0.1-0.4-0.1-0.5-0.2c-0.2-0.4,0-0.8,0.1-1.2
			c0.2-0.6,0.3-1.2,0.4-1.7c0.1-0.4,0.1-0.8,0.1-1.2c0-0.1,0.1-0.3,0-0.3c-0.1-0.1-0.2,0.1-0.3,0.1c-0.1,0.1-0.3,0.3-0.5,0.1
			c-0.1-0.1-0.4-0.2-0.2-0.5C46.8,11.9,46.7,11.5,47.1,11.3z"/>
		<path class="st3" d="M78,6.6c-0.4-0.2-0.9-0.4-1.1-0.9c-0.1-0.1-0.2-0.2-0.3-0.2c-0.2,0-0.2,0.1-0.3,0.3c-0.3,0.6-0.7,1.1-1.2,1.5
			c-0.2,0.1-0.2,0.3-0.3,0.5c0,0.1-0.1,0.3-0.2,0.2c-0.2,0-0.1-0.2-0.1-0.3c0.1-0.2,0.2-0.5,0.3-0.7c0-0.1,0.2-0.2,0-0.3
			c-0.1,0-0.2-0.1-0.1-0.2c0.1-0.3,0.2-0.7,0.6-0.9c0.2-0.3,0.4-0.7,0.4-1.1c0-0.3-0.2-0.6,0.2-0.7c0.3-0.1,0.3,0.3,0.5,0.4
			c0.4,0.3,0.9,0.5,1,1.1c0,0.1,0.1,0.2,0.1,0.2C77.6,5.7,77.8,6.2,78,6.6z"/>
		<path class="st1" d="M65.4,13c0-0.1,0.1-0.3,0.1-0.4c0.2-0.5,0.5-0.9,0.7-1.4c0.1-0.2,0-0.4,0-0.6c0.1-0.1,0.2-0.3,0.2-0.5
			c0-0.3,0.1-0.4,0.4-0.5c0.1,0.2,0.2,0.3,0.3,0.5c0.6,0.1,0.8,0.7,1.1,1.2c0,0.1,0.1,0.2,0.1,0.2c0.1,0.2,0.1,0.5,0.1,0.7
			c-0.2,0.3-0.3,0.2-0.5,0c-0.4-0.3-0.6-0.3-0.9,0.2c-0.2,0.5-0.6,0.8-0.9,1.2C66,13.8,65.8,14,65.6,14c-0.3,0-0.4-0.1-0.3-0.3
			C65.3,13.4,65.5,13.2,65.4,13z"/>
		<path class="st4" d="M49.7,8.8c-0.4-0.3-0.7-0.2-1.1,0c-0.1,0-0.2,0.1-0.2,0.2c0.1,0.5-0.3,0.6-0.5,0.9c-0.1-0.1-0.1-0.3-0.3-0.2
			c0.1-0.2,0.1-0.5,0.2-0.7c0.2-0.5,0.5-0.7,1-0.5c0.3,0.1,0.7,0.1,1,0.3c0.1,0.1,0.1,0.1,0,0.2C49.7,8.9,49.7,8.9,49.7,8.8z"/>
		<path class="st5" d="M49.8,8.9c0-0.1,0-0.1,0-0.2c0.6,0.3,1.1,0.7,1.6,1.1c0.1,0.1,0.1,0.2,0.2,0.3c-0.1,0.1-0.2,0.1-0.4,0
			c-0.5-0.3-0.9-0.7-1.4-1C49.7,9.1,49.7,9,49.8,8.9z"/>
		<path class="st4" d="M66.8,9.7c-0.2,0.3-0.2,0.7-0.4,1c-0.3,0-0.2-0.2-0.2-0.4c0-0.1,0-0.2,0.1-0.3c0-0.2,0.1-0.3,0.3-0.4
			C66.6,9.6,66.7,9.6,66.8,9.7z"/>
		<path class="st6" d="M36.8,6c-0.1-0.1-0.2-0.2-0.2-0.2c0,0,0,0,0-0.1c0.2-0.4,0.2-0.4,0.6-0.2c0.1,0,0.2,0,0.2,0
			c0.1,0.3-0.1,0.3-0.3,0.3C37,5.8,36.8,5.7,36.8,6z"/>
		<path class="st7" d="M66.2,10.1c0,0.2,0,0.5,0.2,0.6c0,0.2,0,0.3-0.1,0.5c-0.1-0.2-0.2-0.3-0.2-0.5C65.9,10.5,66,10.2,66.2,10.1z"
			/>
		<path class="st8" d="M9.4,14c0-0.2,0.2-0.4,0.2-0.6c0-0.1,0.1-0.2,0.2-0.1c0.6,0.1,0.8-0.4,0.9-0.8c0.1-0.3,0.3-0.5,0.2-0.8
			c0-0.1,0.1-0.2,0.2-0.2c0.4,0.2,0.9,0.2,1.4,0.4c0.4,0.2,1,0.3,1.3,0.6c0.5,0.3,0.9,0.8,1.3,1.2c0.3,0.2,0.3,0,0.4-0.2
			c0.2-0.5,0.3-1.1,0.6-1.6c0-0.1,0.1-0.2,0.1-0.3c0,0,0-0.1,0.1-0.1c0.3-0.1,0.7,0,0.9-0.3c0.1-0.1,0.2,0,0.3,0
			c0.2,0.1,0.3,0.3,0.3,0.5c0,0.1-0.1,0.3-0.1,0.4c-0.1,0.2-0.1,0.5,0.1,0.6c0.2,0.2,0.1,0.5,0.1,0.7c0,0.5,0,1.1-0.1,1.6
			c0,0.1,0,0.2,0,0.2c-0.4,0.9-0.3,2-0.7,2.9C17,18.8,17,19.5,17,20.1c0,0.3,0.1,0.6,0.1,0.9c0,0.1,0,0.2-0.1,0.2
			c-0.2,0.6-0.5,1.2-0.6,1.7c-0.1,0.6-0.5,0.7-0.9,0.8c-0.3,0.1-0.6,0.1-0.9,0c-1.1-0.4-1.7-1.4-2.2-2.3c-0.2-0.3-0.3-0.6-0.6-0.7
			c-0.2-0.2-0.4-0.4-0.5-0.7c-0.2-0.5-0.4-1.1-0.5-1.7c0-0.1-0.1-0.3-0.2-0.3c-0.2,0-0.2,0.2-0.2,0.3c0,0.6-0.2,1.2-0.2,1.9
			c0,0.4,0,0.9-0.3,1.3c-0.1,0.3-0.1,0.6-0.2,0.9c-0.3,0.9-0.5,1.2-1.5,1.2c-1-0.3-1.7-0.9-2.2-1.8c-0.1-0.1-0.2-0.2-0.2-0.3
			c-0.3-0.3-0.5-0.7-1-0.9c-0.2-0.1-0.2-0.3-0.3-0.5c0.1-0.1,0.3-0.2,0.2-0.5c-0.3-0.8-0.1-1.5,0.2-2.2c0.1-0.3,0.2-0.6,0.1-1
			c-0.1-0.5,0-1,0-1.5c0-0.2,0-0.4-0.1-0.5c-0.3-0.3-0.2-0.7-0.1-1.1C5.1,13,5,12.6,5.1,12.2c0-0.1,0-0.2-0.1-0.2
			c-0.2,0-0.2-0.2-0.2-0.3c0-0.3,0.3-0.5,0.1-0.8c0.4-0.5,0.3-1.1,0.4-1.6c0-0.2,0.1-0.3,0.3-0.3c0.2,0,0.3,0.1,0.3,0.3
			c0-0.1-0.2-0.3-0.1-0.5C6,8.6,6.2,8.6,6.4,8.7C6.6,8.7,6.8,8.7,7,8.5c0-0.1,0.1-0.1,0.1-0.1c0.4-0.1,0.7,0.2,1.1,0.1
			C8.7,8.4,8.7,8.7,8.9,9C8.9,9.2,9,9.3,9,9.3c0.4,0.3,0.5,0.7,0.6,1.1c0,0.1,0,0.2,0.1,0.2"/>
		<path class="st8" d="M30.8,17.7c-0.1,0.1-0.2,0.3-0.2,0.4c-0.3,0.6-0.5,1.3-1.3,1.6c-0.2,0.1-0.3,0.2-0.5,0.3
			c-0.3,0.2-0.4,0.1-0.6-0.2c-0.1-0.2-0.3-0.4-0.4-0.6c-0.3-0.6-0.5-1.2-0.9-1.8c-0.3-0.4-0.4-0.9-0.4-1.4c0-0.2,0-0.3-0.1-0.5
			c0,0-0.1,0-0.1,0c-0.4,0.9-0.9,1.8-0.9,2.8c0,0.2-0.1,0.4-0.2,0.6c-0.1,0.5-0.3,1-0.7,1.3c-0.4,0.3-0.9,0.5-1.4,0.6
			c-0.3,0.1-0.6-0.2-0.8-0.5c-0.4-0.4-0.6-0.8-0.7-1.3c0-0.2-0.1-0.4-0.3-0.5c-0.5-0.5-0.7-1.2-0.7-1.9c-0.1-1.2,0.1-2.3,0.3-3.4
			c-0.3-0.5,0-1,0.2-1.5c0.4-1.1,1.1-2,1.7-2.9c0.3-0.4,0.7-0.7,0.9-1.1c0.1-0.2,0.3-0.4,0.6-0.5c0.3,0,0.5,0.2,0.8,0.3
			c0.6,0.3,1.2,0.6,1.9,0.9c0.2,0.1,0.3,0.5,0.7,0.5c0.1,0,0.1,0.1,0.2,0c0.6-0.3,1.1,0.2,1.6,0.4c0.5,0.2,0.7,0.7,1.1,1.1
			c0.5,0.4,0.9,0.9,1.3,1.4c0.3,0.4,0.6,0.8,0.5,1.3c-0.1,0.2,0,0.4-0.1,0.6c0,0-0.1,0,0,0c0,0,0,0,0,0c0.1-0.2,0.2-0.3,0.3-0.4
			c0.1-0.1,0.2-0.2,0.3-0.1c0.1,0.1,0.2,0.1,0.2,0.2c0,0.6,0,1.2-0.1,1.8c-0.4,0.6-0.8,1.2-1.2,1.8C31.5,17.4,31.1,17.6,30.8,17.7z"
			/>
		<path class="st3" d="M17.1,21.2c-0.1-0.5-0.4-1-0.4-1.6c0-0.1,0-0.2,0-0.2c0.4-0.3,0.2-0.7,0.2-1c0-0.1,0.1-0.2,0.1-0.3
			c0.3-0.6,0.4-1.2,0.4-1.8c0-0.1,0-0.3,0-0.4c0.5-0.9,0.3-1.9,0.4-2.8c0-0.1,0-0.2-0.1-0.3c-0.3-0.3-0.2-0.6-0.1-1
			c0-0.1,0.1-0.3,0-0.4c-0.1-0.1-0.2-0.3-0.3-0.1c-0.2,0.4-0.4,0.3-0.7,0.2c-0.1,0-0.1,0-0.2,0c-0.3-0.1-0.2-0.3-0.1-0.4
			c0.2-0.6,0.3-1.2,0.7-1.7c0-0.1,0-0.1,0-0.1c-0.1-0.6,0.1-1.1,0.7-1.3c0.2-0.1,0.5,0.1,0.7,0.1c0.4,0,0.8,0,1.1,0.3
			c0.1,0.1,0.1,0.2,0.2,0.2c0,0.3,0,0.5-0.3,0.8c-0.1,0.2-0.1,0.5-0.1,0.7c0,0.3-0.1,0.7,0.3,0.9c0.2,0.1,0.2,0.7,0.1,0.9
			c-0.1,0.1-0.2,0.1-0.4,0.1c-0.6,0-0.7,0-0.7,0.6c-0.1,0.7-0.2,1.4-0.1,2.1c0,0.2-0.1,0.4-0.2,0.7c-0.1,0.4,0,0.7-0.1,1.1
			c-0.1,0.2-0.2,0.5-0.1,0.7c0.1,0.7-0.1,1.4-0.4,2c0,0-0.1,0.1-0.1,0.1C17.9,20.3,17.2,20.7,17.1,21.2z"/>
		<path class="st9" d="M20.7,11.1c-0.1,0.1-0.2,0.2-0.2,0.3c-0.1,0.2-0.3,0.5-0.4,0.7c0,0,0,0,0,0.1c-0.2,0.2-0.5,0.4-0.8,0.2
			c-0.1,0-0.1,0-0.1,0.1c-0.1,0.6-0.3,1.1-0.3,1.8c0,0.5-0.2,0.9-0.2,1.4c0,0.6-0.2,1.2-0.4,1.7c-0.2,0-0.3,0-0.2-0.3
			c0.2-0.4,0.3-0.8,0.1-1.3c-0.1-0.1,0.1-0.2,0.1-0.2c0.2-0.3,0.3-0.6,0.2-1c-0.1-0.5-0.1-1,0-1.5c0-0.2,0.1-0.3,0-0.5
			c0-0.5,0.2-0.7,0.7-0.7c0.4,0,0.6-0.2,0.4-0.6c-0.4-0.5-0.2-1.1-0.2-1.7c0-0.2,0.3-0.4,0.3-0.8c0.1-0.1,0.2-0.1,0.3,0
			c0.1,0.1,0.1,0.2,0,0.3c-0.1,0.2-0.3,0.3-0.4,0.5c-0.1,0.3-0.1,0.6-0.1,0.9c0,0.3,0.1,0.2,0.3,0.1C20.2,10.5,20.4,10.5,20.7,11.1z
			"/>
		<path class="st1" d="M27.8,19.2c0.1,0.1,0.3,0.1,0.3,0.2c0.3,0.4,0.6,0.4,1,0.1c0.3-0.2,0.6-0.3,0.8-0.7c0.1-0.3,0.6-0.4,0.7-0.7
			c-0.2,0.8,0.1,1.5,0,2.3c-0.1,0.2-0.3,0.3-0.5,0.4c-0.2,0.2-0.6,0.2-0.8,0.1C28.7,20.5,28,20.1,27.8,19.2z"/>
		<path class="st10" d="M22.3,20.5c0.5,0.3,0.9,0.4,1.3-0.1c0,0,0.1-0.1,0.1-0.1c0.7-0.1,1.1-0.7,1.4-1.3c-0.1,0.5-0.1,1.1-0.1,1.6
			c0,0.7-0.5,1.1-1.2,1C23.2,21.6,22.7,21.1,22.3,20.5z"/>
		<path class="st11" d="M19.2,12.4c0.3,0,0.5-0.1,0.8-0.2c0,0.2-0.2,0.2-0.3,0.3C19.5,12.6,19.4,12.5,19.2,12.4z"/>
		<path class="st0" d="M80.7,19c-0.1-0.7-0.3-1.3-0.6-1.9C80,16.9,80,16.7,80,16.6c-0.4-0.1-0.4-0.5-0.3-0.8c0-0.2,0-0.3-0.1-0.5
			c0-0.2-0.1-0.3,0-0.5c0,0,0.1-0.1,0.1-0.1c0.3,0,0.2-0.3,0.3-0.5c0.3-0.4,0.3-0.9,0.6-1.3c0.2-0.2,0.2-0.4,0.4-0.6
			c0.4-0.1,0.3,0.2,0.4,0.5c0.2-0.5,0.9-0.5,1-1c0,0,0.1-0.1,0.1-0.1c0.4-0.1,0.6-0.5,0.9-0.7c0.4-0.4,0.6-0.4,1,0
			c0.2,0.2,0.5,0.5,0.7,0.7c0.2,0.4,0.3,0.7,0.5,1.1c0.3,0.6,0,1-0.3,1.5c-0.1,0.2-0.2,0.4-0.3,0.6c-0.2,0.2-0.2,0.4-0.4,0.6
			c-0.4,0.7-0.8,1.4-1.1,2.2c-0.1,0.2,0,0.4,0,0.5c0,0.2-0.2,0.3,0,0.5c0.4,0,0.6-0.3,0.8-0.6c0.2-0.2,0.4-0.5,0.6-0.7
			c0.1,0,0.2-0.1,0.2,0.1c0,0.3,0.2,0.6,0.1,0.9c-0.1,0.2,0,0.3,0,0.5c0.4,0.8,0.1,1.4-0.4,1.9c-0.2,0.3-0.4,0.5-0.5,0.8
			c-0.1,0.5-0.3,0.6-0.8,0.6c-0.5-0.1-0.9-0.2-1.2-0.7c-0.1-0.3-0.3-0.5-0.5-0.8c-0.3-0.4-0.6-0.9-0.7-1.4
			C80.8,19.2,80.8,19.1,80.7,19z"/>
		<path class="st12" d="M80.7,19c0.3,0.1,0.4,0.3,0.5,0.6c0.2,0.5,0.4,0.9,0.8,1.2c0.1,0.1,0.1,0.2,0.2,0.3c0.1,0.3,0.3,0.6,0.7,0.7
			c0.7,0.2,0.9,0.2,1.1-0.5c0.1-0.3,0.2-0.5,0.4-0.7c0.6-0.5,0.7-1.2,0.3-1.8c-0.1-0.1-0.1-0.2-0.1-0.3c0.2-0.4,0-0.8,0-1.2
			c0.4-0.6,0.7-1.2,1.1-1.8c0.1-0.1,0.2-0.1,0.3,0.1c0.1,0.2,0.2,0.3,0.2,0.5c0.1,0.3,0,0.4-0.4,0.5c-0.1,0-0.1,0.1-0.2,0.1
			c0,0,0.1-0.1,0.1,0c0,0,0,0,0,0c0.1-0.1,0.3-0.1,0.3,0c0.1,0.3,0.3,0.5,0.1,0.8c0,0.1-0.1,0.2,0,0.3c0.2,0.4,0,0.6-0.2,0.9
			c-0.1,0.1-0.1,0.2,0,0.4c0.1,0.2,0,0.4-0.1,0.6c-0.4,0.4-0.3,0.9-0.7,1.3c-0.1,0.1-0.2,0.4,0,0.6c0,0.1-0.1,0.1-0.1,0.2
			c-0.1,0.2-0.4,0.2-0.4,0.5c0,0,0,0.1-0.1,0.1c-0.2,0.2-0.5,0-0.6,0.2c-0.3,0.3-0.7,0.3-1.1,0.2c0,0-0.1-0.1-0.1-0.1
			C81.4,21.8,80.9,20.5,80.7,19z"/>
		<path class="st1" d="M85,11.6c-0.3,0-0.6-0.2-0.8-0.4c-0.4-0.5-0.7-0.5-1,0c-0.1,0.2-0.3,0.4-0.6,0.5c-0.1,0-0.2,0.1-0.2,0.2
			c-0.1,0.3-0.3,0.5-0.6,0.6c-0.1,0-0.1,0.1-0.2,0.1c-0.3,0.4-0.3,0.4-0.6,0.5c-0.1,0-0.1,0.1-0.2,0c-0.1-0.1,0-0.1,0-0.2
			c0.1-0.2,0.1-0.4,0.1-0.5c-0.1-0.3,0.1-0.4,0.2-0.6c0.1-0.4,0.2-0.7,0.6-1c0.3-0.2,0.4-0.6,0.6-0.9c0.1-0.2,0.2-0.3,0.2-0.5
			c0.1-0.2,0.2-0.2,0.3-0.2c0.3,0,0.3,0.3,0.4,0.5c0,0,0,0,0,0c0.4,0.2,0.7,0.6,1.1,0.9C84.7,10.9,84.9,11.2,85,11.6z"/>
		<path class="st13" d="M85.7,19.6c0.1-0.2,0.1-0.3,0.1-0.5c-0.1-0.3-0.2-0.6,0.2-0.8c0.2-0.1,0-0.3,0-0.4c-0.1-0.2-0.2-0.4,0-0.6
			c0.1-0.1,0-0.4-0.1-0.5c-0.1-0.2-0.2,0.2-0.3,0.1c-0.1-0.2-0.1-0.3,0.1-0.4c0.5-0.2,0.4-0.5,0.2-0.8c0-0.1-0.1-0.2-0.1-0.3
			c0.3-0.6,0.6-1.2,0.9-1.8c0.2-0.1,0.7,0.1,0.7,0.3c0,0.3,0.1,0.6,0,0.9c-0.1,0.2-0.1,0.5-0.2,0.7c-0.2,0.4-0.4,0.8-0.2,1.3
			c0.1,0.3,0.1,0.6,0,0.9c-0.1,0.2-0.1,0.4-0.2,0.6c0,0-0.1,0-0.1,0.1c-0.2,0.2-0.3,0.4-0.3,0.7c0,0.2,0,0.4-0.2,0.5
			C85.9,19.7,85.8,19.7,85.7,19.6z"/>
		<path class="st14" d="M87.8,11.8c0.2-0.1,0.3-0.2,0.5-0.3c0.4-0.1,0.6-0.4,0.8-0.7c0.3-0.4,0.6-0.6,1-0.6c0.1,0,0.1,0.2,0.2,0.1
			c0.2-0.1,0.4,0,0.5,0c0.2,0,0.4,0.1,0.5,0.3c0.1,0.2-0.1,0.3-0.2,0.4c-0.1,0.1-0.2,0-0.3,0c-0.3,0-0.6,0.1-0.8,0.4
			c-0.1,0.2-0.3,0.4-0.4,0.6c-0.2,0.2-0.3,0.4-0.5,0.6c-0.1,0.1-0.2,0.2-0.4,0.1c-0.2-0.1-0.4,0-0.4,0.2c0,0.3-0.2,0.3-0.5,0.3
			c0,0-0.1,0-0.1,0c0,0-0.1,0-0.1,0c-0.1-0.2-0.2-1.2-0.1-1.3C87.6,11.8,87.7,11.8,87.8,11.8z"/>
		<path class="st13" d="M87.6,11.9c0.2,0.4,0.3,0.8,0.1,1.2c0.1,0.3-0.2,0.4-0.3,0.5c-0.2,0.1-0.4,0.1-0.6-0.1
			c-0.2-0.2-0.4-0.3-0.7-0.5c-0.2-0.1-0.3-0.2-0.3-0.4c-0.1-0.2-0.1-0.3-0.1-0.5c0.1-0.4,0.4-0.4,0.7-0.1c0,0,0.1,0,0.1,0
			c0.1,0,0.1,0,0.2,0c0.2,0,0.3-0.1,0.3-0.2c0.1-0.1,0.1-0.3,0.4-0.3C87.6,11.5,87.7,11.7,87.6,11.9z"/>
		<path class="st14" d="M86.7,12.3c-0.1,0-0.2,0-0.2,0C86,12,85.9,12,85.8,12.6c-0.4-0.3-0.4-0.8-0.4-1.3c0.1-0.2,0.2-0.3,0.2-0.5
			c0-0.2,0.2-0.1,0.3-0.2c0.4-0.1,0.7,0,1,0.2c0.4,0.4,0.4,0.4,0,0.8c-0.1,0.1-0.2,0.2-0.3,0.3C86.6,12,86.6,12.1,86.7,12.3z"/>
		<path class="st15" d="M90,10.2c-0.3,0.2-0.6,0.4-0.8,0.8c-0.1,0.3-0.5,0.4-0.7,0.7c-0.1,0.2-0.2-0.1-0.3-0.3
			c0.6-0.9,1.2-1.7,2.1-2.4c0.2,0,0.3-0.1,0.5-0.1c0.2,0.3,0.1,0.8-0.3,1.1C90.4,10.1,90.2,10.2,90,10.2z"/>
		<path class="st16" d="M86.1,13c0.2-0.1,0.3,0,0.4,0.1c0.5,0.4,0.7,0.4,1.2-0.1c0,0,0.1,0,0.1,0c0.1,0.1,0.2,0.3,0.1,0.5
			c-0.1,0.7-0.4,1.3-0.4,1.9c-0.2,0.3-0.4,0.6-0.6,0.9c0,0.1-0.1,0.1-0.2,0.1c-0.1,0-0.1-0.1-0.1-0.2c0-0.2,0.1-0.5,0.2-0.7
			c0.3-0.4,0.3-0.9,0.2-1.3c0-0.2-0.3-0.3-0.5-0.5c0.1-0.2,0-0.3-0.2-0.4C86.3,13.2,86.2,13.1,86.1,13z"/>
		<path class="st17" d="M86.5,11.8c0-0.2,0.2-0.4,0.3-0.5c0.2-0.2,0.3-0.3,0.1-0.6c0.4,0.2,0.5,0.7,0.8,1.1c-0.1,0-0.1,0-0.2,0.1
			c-0.1-0.2-0.3-0.4-0.5,0c-0.1,0.1-0.3,0.2-0.4,0.3C86.6,12.1,86.7,11.9,86.5,11.8z"/>
		<path class="st18" d="M84.4,10.6c-0.2,0-0.3-0.1-0.4-0.2c-0.2-0.3-0.5-0.4-0.7-0.7c0,0,0.1,0,0.1,0C83.7,10,84.2,10.2,84.4,10.6z"
			/>
		<path class="st19" d="M86,10.6c-0.2,0.2-0.1,0.7-0.5,0.7C85.4,11,85.5,10.6,86,10.6z"/>
		<path class="st20" d="M84.4,15.4C84.4,15.4,84.4,15.3,84.4,15.4c0.1-0.3,0.2-0.5,0.3-0.6c0.1,0,0.1-0.3,0.3-0.1
			C84.9,15,84.7,15.2,84.4,15.4z"/>
		<path class="st21" d="M83.2,18.1c0-0.1,0.1-0.2,0.1-0.3c0,0.3,0,0.5,0,0.6c0,0.1,0,0.1-0.1,0.2C83,18.5,83.1,18.3,83.2,18.1z"/>
		<path class="st3" d="M5,11.7c0.5,0.5,0.3,1,0.2,1.6c0,0.4-0.2,0.8,0.2,1.1c0.1,0.1,0.1,0.2,0.1,0.3c-0.1,0.2,0,0.5,0,0.7
			c-0.2,0.8,0.2,1.6-0.3,2.4c-0.3,0.5-0.4,1.1-0.2,1.8c0.1,0.2,0,0.4-0.2,0.6c-0.3,0.1-0.2-0.2-0.2-0.2c0-0.1,0-0.3,0-0.4
			c-0.1-1.2-0.2-2.5-0.2-3.7c0.1-1,0-2.1,0.3-3.1c0-0.2,0-0.3-0.1-0.4c0-0.1,0.1-0.3,0.1-0.4C4.8,11.7,4.9,11.6,5,11.7z"/>
		<path class="st22" d="M4.3,14.2c0.1-0.5,0.2-1.1,0.3-1.6c0-0.2,0.1-0.2,0.2-0.3c-0.2,1.1-0.3,2.3-0.5,3.4c-0.1-0.3,0-0.6,0-0.9
			C4.4,14.6,4.4,14.4,4.3,14.2z"/>
		<path class="st23" d="M4.5,19.5c0.1,0.2,0.2,0.4,0.2,0.7c0.1,0.3,0.2,0.4,0.4,0.5c0.3,0.2,0.5,0.5,0.7,0.8
			c-0.4-0.3-0.7-0.6-1.1-0.8C4.3,20.4,4.4,19.9,4.5,19.5z"/>
		<path class="st24" d="M2.2,14.8c-0.1,0-0.2,0.1-0.3,0.1c-0.1,0-0.2-0.1-0.3-0.1c-0.1-0.1-0.2-0.3-0.2-0.5c0,0,0-0.1,0.1-0.1
			C1.7,14.2,2.1,14.6,2.2,14.8z"/>
		<path class="st25" d="M2.8,15.8c0.2,0,0.3,0,0.4,0.2C2.8,16.1,2.7,16.1,2.8,15.8C2.8,15.8,2.8,15.8,2.8,15.8z"/>
		<path class="st0" d="M38.6,9.5c-0.3,1.2-0.6,2.4-0.8,3.6c0,0.2,0,0.3,0,0.5c0.1,0.3,0,0.6,0,1c0,0.3,0,0.5,0,0.7
			c0,0.4,0,0.8,0,1.2c0,0.1,0,0.2,0,0.3c0,0.1,0,0.2,0.1,0.2c0.1,0,0.2,0,0.2-0.1c0.6-0.4,1.2-0.8,1.8-1.3c0.1-0.1,0.2-0.2,0.2-0.4
			c-0.1-0.5,0.3-0.6,0.6-0.8c0.4-0.3,0.6-0.8,0.7-1.2c0-0.2,0-0.3,0.2-0.4c0.2-0.1,0.4-0.1,0.5,0.1c0.3,0.3,0.6,0.5,0.9,0.8
			c0.2,0.1,0.3,0.2,0.5,0.4c0.1,0.1,0.2,0.2,0.3,0.4c0.2,0.4,0.5,0.7,0.6,1.1c0,0.3,0.1,0.5,0.1,0.8c0.2-0.5,0.7-0.8,0.7-1.4
			c0.3-0.4,0.6-0.8,0.8-1.2c0.1-0.1,0.1-0.3,0.3-0.2c0.1,0,0.2,0.1,0.2,0.2c0.1,0.4,0.2,0.7,0.4,1.1c0.3,0.7,0.2,1.3,0,1.9
			c0,0.1-0.1,0.2-0.1,0.2c0.2,0.3,0,0.6-0.1,0.9c-0.2,0.5-0.3,1-0.4,1.5c-0.1,0.3,0.1,0.5,0.1,0.8c0,0.3,0,0.5-0.2,0.7
			c-0.1,0.1-0.1,0.3,0,0.4c-0.1,0.1-0.1,0.4-0.3,0.4c-0.2,0.2-0.3,0.4-0.5,0.4c-0.1,0-0.1,0.1-0.2,0.3c-0.2,0.7-0.7,1-1.4,0.8
			c-0.8-0.2-1.4-0.8-1.8-1.5c-0.5-1-0.8-2.1-1.1-3.1c-0.1-0.3-0.2-0.5-0.5-0.2c-0.1,0.1-0.1,0.2-0.3,0.3c-0.4,0.2-0.5,0.6-0.7,0.9
			c-0.3-0.1-0.5,0.1-0.6,0.3c-0.2,0.5-0.6,0.8-0.7,1.4c-0.2,0.7-0.6,0.8-1.3,0.5c-0.6-0.3-1-0.6-1.3-1.1c-0.1-0.2-0.3-0.5-0.4-0.7
			c0,0-0.1,0-0.1,0c0-0.1-0.1-0.2-0.1-0.2c-0.1-0.1-0.1-0.2-0.2-0.3c0-0.4,0-0.9-0.3-1.2c0,0-0.1-0.1-0.1-0.1c0-0.4-0.2-0.8-0.4-1.2
			c-0.3-1.2-0.4-2.4-0.4-3.6c0-0.5,0-1,0.1-1.5c0-0.4,0-0.7,0-1.1c0,0,0-0.1,0-0.1c-0.1-0.3,0.2-0.5,0.2-0.7c0-0.1,0-0.2-0.1-0.2
			c-0.2-0.3-0.2-0.5,0.1-0.8c0.2-0.1,0.1-0.5,0.4-0.5c0.1,0,0,0,0,0c0.2-0.1,1-1.1,1.1-1.2c0.1-0.4,0.2-0.5,0.6-0.4c0.1,0,0,0,0,0
			c1.2-0.1,1.7,0.8,2.2,1.6c0.1,0.1,0.1,0.2,0.1,0.3c0,0.2,0.2,0.3,0.4,0.2c0.3-0.1,0.5,0,0.8,0c0.2,0,0.4-0.1,0.4,0.2
			c0,0.2-0.2,0.3-0.4,0.3c-0.2,0-0.4,0-0.6,0.1C38.8,9.3,38.6,9.4,38.6,9.5z"/>
		<path class="st10" d="M47.1,19.9c-0.1,0.3-0.2,0.6-0.4,0.9c0,0.1,0,0.2-0.2,0.2c-0.3-0.2-0.2-0.5-0.1-0.8c0-0.2,0.1-0.3,0-0.5
			c-0.1-0.3,0-0.6,0.1-0.9c0.1-0.2,0.1-0.5,0.1-0.7c0-0.3,0.1-0.4,0.3-0.5c0,0,0.1,0,0.1,0c0.2,0.1,0.3,0.3,0.3,0.5
			c-0.1,0.2,0,0.4,0.2,0.6c0.1,0.2,0.1,0.4-0.2,0.6C47.2,19.4,47.2,19.7,47.1,19.9z"/>
		<path class="st26" d="M39.4,19.4c0.2-0.5,0.6-0.8,1-1.1c0,0.1,0,0.2-0.1,0.3c-0.5,0.5-0.7,1.2-1,1.9c-0.1,0.2-0.2,0.4-0.4,0.5
			c-0.2,0.1-0.2,0.3-0.3,0.5c0,0-0.1,0.1-0.1,0.1c-0.2,0-0.2-0.2-0.2-0.3c0-0.3,0-0.6,0.2-0.9c0.2-0.2,0.4-0.4,0.5-0.7
			C39.1,19.5,39.3,19.5,39.4,19.4z"/>
		<path class="st7" d="M46.5,20.8c0.1,0,0.1-0.1,0.2-0.1c0.1,0.1,0.1,0.1,0.1,0.2c0,0.2-0.7,0.7-0.9,0.7c0.1-0.1,0.2-0.2,0.2-0.4
			C46.2,21.1,46.2,20.8,46.5,20.8z"/>
		<path class="st27" d="M47.1,19.9c0-0.4,0.3-0.7,0.2-1.1c0-0.1,0-0.2,0.1-0.2c0.3,0.4,0.3,0.6,0,0.7c-0.1,0.1-0.2,0.3-0.2,0.5
			C47.2,19.8,47.2,19.9,47.1,19.9z"/>
		<path class="st28" d="M11.2,11.4c-0.3,0.3-0.7,0.3-1-0.1"/>
		<path class="st28" d="M11.9,11.3c-0.1,0.1-0.1,0.3-0.3,0.3c-0.1,0-0.2-0.1-0.3-0.1"/>
		<path class="st29" d="M11.4,11.3c0.1,0.1,0.2,0,0.3-0.1"/>
		<path class="st29" d="M10.4,11.2"/>
		<path class="st30" d="M20.7,11.1c-0.2,0-0.4,0-0.5-0.2c-0.1-0.2-0.3-0.1-0.4-0.2c0.4-0.4,0.8-0.8,1.2-1.2c0.2-0.4,0.5-0.7,0.9-0.9
			c0.3,0.1,0.1,0.3,0.1,0.5c-0.4,0.6-0.8,1.1-1.1,1.8C20.9,11,20.8,11,20.7,11.1z"/>
		<path class="st31" d="M17.2,9.6c0-0.3,0-0.5-0.1-0.7c-0.1-0.4,0.1-0.6,0.5-0.6c0.4,0,0.7,0,1.1,0c0.5,0,0.8,0.2,1.2,0.5
			c0.2,0.2,0.1,0.4,0,0.7c-0.1,0.1-0.2,0.2-0.3,0.3c0,0,0,0-0.1,0c0-0.1,0.1-0.3,0.2-0.4c0.2-0.2,0.2-0.3-0.1-0.4
			c-0.5-0.5-1.1-0.3-1.7-0.4c-0.2,0-0.6,0.5-0.6,0.8C17.2,9.3,17.2,9.4,17.2,9.6z"/>
		<path class="st32" d="M21.1,9c-0.1,0-0.2,0.1-0.3,0c-0.1-0.1,0-0.2,0.1-0.3c0.2-0.2,0-0.6,0.3-0.7c0.1,0.2,0.1,0.5,0.3,0.6
			C21.5,8.9,21.4,9.1,21.1,9z"/>
		<path class="st6" d="M21.1,9c0.2-0.1,0.3-0.2,0.5-0.3c0.1-0.2,0.1-0.4,0.1-0.6c0,0,0.1,0,0.1,0C21.9,8,22.1,8,22.2,7.8
			c0.1-0.1,0.2,0,0.2,0.1c-0.2,0.3-0.3,0.7-0.7,0.8c-0.3,0.3-0.6,0.6-0.9,0.8C21,9.3,21,9.2,21.1,9z"/>
		<path class="st16" d="M77.4,5.3c-0.2,0-0.4,0-0.3-0.4c0-0.2-0.2-0.3-0.4-0.5c-0.1-0.1-0.3-0.3-0.4-0.4C77.1,4.2,77.4,4.5,77.4,5.3
			z"/>
		<path class="st33" d="M78,10.5c0-0.1,0.1-0.3,0.2-0.4c0.1,0.1,0.1,0.3,0.1,0.4c0,0.1,0,0.2-0.1,0.2C78,10.7,78.1,10.6,78,10.5z"/>
		<path class="st34" d="M34.6,4.8c0.3-0.1,0.4,0.1,0.6,0.3c-0.3,0.7-0.2,1.4-0.4,2.1c0,0.1,0,0.3-0.2,0.3c-0.1-0.4,0-0.8-0.1-1.2
			c0,0,0-0.1,0-0.1c0.2-0.3,0.3-0.6,0.1-0.9C34.4,5.2,34.4,5,34.6,4.8C34.5,4.8,34.5,4.8,34.6,4.8z"/>
		<path class="st35" d="M30.7,10c0.1,0.1,0.2,0.2,0.1,0.4c-0.2,0.2-0.3,0-0.4-0.1C30.5,10.2,30.6,10.1,30.7,10z"/>
		<path class="st12" d="M9.8,9.9c0,0.4,0.1,0.8-0.1,1.1c-0.1-0.2-0.1-0.5-0.5-0.4c-0.2,0-0.3-0.2-0.2-0.4c0.2-0.2,0.2-0.3,0-0.5
			C8.8,9.5,8.7,9.2,8.6,8.9C8.5,8.8,8.4,8.6,8.2,8.8C8.2,9,8.1,8.9,8,8.8C7.8,8.6,7.6,8.8,7.4,8.6c-0.1,0-0.1,0-0.2,0.1
			C7,9.2,6.7,9,6.4,8.9c-0.1,0-0.2-0.1-0.2,0C6,9,6.1,9,6.1,9.1c0,0,0.1,0.1,0.1,0.1c0.1,0.1,0.2,0.2,0,0.3C6.1,9.6,6,9.6,5.9,9.5
			C5.5,9.2,5.5,9.2,5.4,9.7c0,0.2-0.1,0.4,0,0.6c0.1,0.3,0,0.4-0.2,0.5C5,10.8,5,10.9,4.9,11c-0.5,0.8-1.2,1.5-1.7,2.3
			c-0.2,0.3-0.3,0.6-0.4,0.9c-0.1,0.3-0.3,0.5-0.6,0.6c-0.3-0.1-0.6-0.3-0.8-0.5c-0.1-0.1-0.2-0.2-0.2-0.3c-0.1-0.2-0.4-0.3-0.2-0.6
			C1,13.2,1.1,13,1.2,12.8c0-0.2,0.1-0.4,0.3-0.5c0.7-0.9,1.5-1.8,2.3-2.7c0.4-0.5,0.9-1,1.4-1.4C5.4,8,5.6,7.9,5.7,7.6
			C5.9,7.4,6,7.4,6.2,7.4c0.3,0.1,0.7,0.2,1,0.2c0.8,0,1.4,0.4,1.9,1.1c0.2,0.2,0.4,0.4,0.4,0.7l0,0C9.8,9.5,9.8,9.7,9.8,9.9z"/>
		<path class="st25" d="M1.8,9.2C2.2,9.5,2.2,9.5,1.7,10C1.6,9.8,1.5,9.7,1.7,9.6C1.9,9.5,1.8,9.3,1.8,9.2L1.8,9.2z"/>
		<path class="st6" d="M8.2,7.6c0.1-0.1,0.1-0.3,0.2-0.4c0,0,0.1,0,0.1,0.1C8.5,7.5,8.4,7.5,8.2,7.6C8.2,7.6,8.2,7.6,8.2,7.6z"/>
		<path class="st0" d="M53.3,22c-1,0.2-1.8-0.2-2.3-1.1c-0.3-0.6-0.6-1.2-0.7-1.8c-0.1,0-0.1,0-0.1-0.1c0-0.1,0-0.3-0.2-0.4
			c-0.2-0.1-0.2-0.3-0.1-0.5c0.1-0.4,0-0.8-0.2-1.1c0,0,0-0.1,0-0.2c-0.4-1.6-0.4-3.2-0.2-4.8c0-0.3,0-0.7,0.2-1
			c0.3-0.1,0.5-0.3,0.5-0.6c0-0.2,0.1-0.4,0.3-0.5c0.2-0.1,0.3,0.1,0.4,0.2c0.1,0.1,0.2,0.2,0.4,0.3c0.5,0.2,0.9,0.5,1.2,0.9
			c0.2,0.2,0.5,0.3,0.6,0.6c0.3,0.8,0.6,1.7,0.4,2.6c-0.1,0.4-0.1,0.8,0,1.2c0.3-0.4,0.7-0.7,1-1.1c0.6-0.7,1.3-1.3,2.1-1.9
			c0.3-0.2,0.6-0.4,0.7-0.8c0.2,0.1,0.9-0.1,1-0.3c0.3-0.4,0.7-0.8,1.2-1.1c0.3-0.2,0.6-0.5,0.9-0.8c0.1-0.1,0.1-0.2,0.2-0.1
			c0.3,0.4,0.9,0.1,1.1,0.7c0.1,0.3,0.4,0.5,0.7,0.6c0,0,0,0.1,0.1,0.1c0,0.1,0.1,0.2,0.1,0.2c0.2,0.2,0.1,0.4,0.1,0.6
			c0,0.3-0.1,0.5-0.2,0.8c-0.7,0.3-1,1-1.5,1.5c0,0.1-0.1,0.1-0.1,0.2c-0.1,0.3-0.2,0.6-0.3,0.8c-0.2,0.4-0.3,0.7-0.2,1.1
			c0,0,0,0,0,0c-0.2,0.4-0.3,0.9-0.5,1.3c0,0.1-0.1,0.1-0.1,0.2c0,0.1,0,0.2,0,0.3c0.1,0.1,0.2,0,0.3,0c0.3-0.2,0.6-0.4,0.9-0.7
			c0.4-0.4,1-0.6,1.5-0.8c0.3-0.2,0.6,0,0.8,0.2c0.2,0.2,0.2,0.5,0.1,0.7c-0.1,0.3-0.1,0.6-0.4,0.8c-0.2,0.2-0.1,0.5-0.2,0.7
			c-0.3,0.6-0.7,1.1-0.9,1.8c-0.1,0.2-0.1,0.5-0.2,0.7c-0.1,0.3-0.3,0.4-0.5,0.6c-0.2,0.1-0.2,0.3-0.4,0.4c-1.6,0.7-3-0.3-3.5-1.8
			c-0.2-0.6-0.3-1.3-0.3-2c0-0.4-0.1-0.8-0.2-1.2c-0.2-0.5-0.3-1.1-0.2-1.6c0-0.1,0-0.3,0-0.4c-0.2,0-0.1,0.2-0.2,0.2l0,0
			c-0.3,0.5-0.4,1-0.6,1.6c-0.2,0.5-0.2,1.1-0.5,1.5c-0.1,0.1-0.1,0.2-0.1,0.3c0.1,0.3,0,0.6-0.1,0.9c-0.1,0.2,0.1,0.3,0,0.5
			c0,0.1-0.1,0.1-0.2,0.2c-0.1,0.2-0.3,0.4-0.4,0.7C53.9,21.6,53.7,21.8,53.3,22z"/>
		<path class="st8" d="M65.4,13c0.1,0.1,0,0.3,0,0.4c0,0.1-0.1,0.2,0,0.3c0.1,0.1,0.2,0,0.3-0.1c0.4-0.3,0.6-0.6,0.9-1
			c0.2-0.2,0.3-0.5,0.5-0.8c0.2-0.4,0.4-0.4,0.7-0.1c0.2,0.2,0.3,0.4,0.6,0.4c0.1,0.4,0.3,0.7,0.4,1.1c0.3,0.6,0.2,1.3-0.1,1.9
			c-0.2,0.6-0.5,1.1-0.7,1.7c-0.1,0.5-0.3,0.9-0.4,1.4c0,0.1-0.3,0.4,0.1,0.4c0.5-0.3,0.8-0.8,0.9-1.4c0.1-0.5,0.2-1,0.3-1.5
			c0.3-0.1,0.8,0.1,0.9,0.4c0.2,0.6,0.5,1.2,0.8,1.8c0.1,0.2,0.1,0.4,0,0.6c-0.1,0.2-0.2,0.5-0.2,0.8c0,0.6-0.3,1.1-0.7,1.6
			c-0.1,0.2-0.3,0.4-0.3,0.6c0,0.3-0.2,0.5-0.4,0.7c-0.8,0.6-1.6,1-2.6,0.8c-0.9-0.4-1.4-1.2-1.6-2.2c0-0.1-0.1-0.2-0.1-0.3
			c-0.2,0-0.2-0.2-0.2-0.3c-0.1-0.3-0.1-0.7-0.1-1c0-0.5-0.1-0.9-0.2-1.4c0-0.1-0.1-0.1-0.1-0.2c-0.1-0.1,0.1-0.2,0-0.3
			c-0.2-0.6-0.2-1.2,0.2-1.8c0,0,0.1-0.1,0.1-0.1c0.2-0.1,0.3-0.4,0.3-0.6C65,14.2,65.1,13.6,65.4,13z"/>
		<path class="st36" d="M66.5,23.1c0.7,0.2,1.4-0.2,1.9-0.5c0.4-0.2,0.9-0.5,0.9-1.1c0-0.4,0.4-0.7,0.6-1c0.2-0.3,0.3-0.5,0.3-0.8
			c0-0.4,0.1-0.8,0.3-1.1c0.1-0.2,0.1-0.5-0.1-0.6c-0.3-0.3-0.5-0.7-0.6-1.1c-0.1-0.5-0.5-0.7-0.9-0.9c0.1-0.8,0.4-1.6,0.5-2.3
			c0.3-0.2,0.4,0.1,0.6,0.3c0.1,0.1,0,0.2,0.1,0.2c0.6,0.3,0.5,0.8,0.5,1.3c0,0.2,0,0.4,0.1,0.5c0.2,0.2,0.1,0.6,0.4,0.8
			c0,0.1,0,0.1,0,0.2c-0.1,0.5-0.1,0.9,0,1.4c0,0.7,0,1.4-0.3,2.1c-0.3,0.6-0.5,1.2-0.9,1.7c-0.2,0.2-0.5,0.3-0.6,0.6
			c-0.3,0.1-0.6,0.3-1,0.4c-0.1,0.2-0.4,0.1-0.6,0.2C67.4,23.2,66.9,23.3,66.5,23.1z"/>
		<path class="st12" d="M64.4,15.6c0,0.6-0.1,1.2,0,1.8c-0.2,0.1-0.3,0.3-0.5,0.3c-0.2,0-0.3,0.2-0.4,0.3c-0.1,0.1-0.2,0.3-0.3,0.3
			c-0.2,0-0.2,0.2-0.2,0.3c-0.1,0.4-0.1,0.9-0.4,1.2c-0.3,0.3-0.4,0.8-0.6,1.2c-0.1,0.2-0.3,0.4-0.4,0.6c-0.3,0.3-0.7,0.5-1.1,0.6
			c0-0.1,0.1-0.2,0.1-0.3c0-0.2,0-0.4,0.3-0.3c0.2,0,0.5-0.4,0.4-0.7c0-0.2,0-0.3,0.2-0.5c0.3-0.4,0.6-0.8,0.7-1.4
			c0-0.1,0-0.1,0-0.1c0.4-0.5,0.5-1.1,0.7-1.6c0.1-0.5-0.2-0.9-0.7-1c0.3-0.2,0.7-0.3,1-0.4C63.5,16,64,15.9,64.4,15.6z"/>
		<path class="st37" d="M54.6,20.4c-0.3-0.7-0.1-1.3,0.1-2c0.1-0.1,0.2-0.3,0.2-0.4c0.1-0.7,0.4-1.3,0.6-2c0.1-0.2,0.2-0.3,0.4-0.4
			c0,0.4-0.3,0.7-0.4,1.1c-0.1,0.4-0.2,0.8-0.3,1.1c-0.1,0.2,0,0.4,0.1,0.6c-0.2,0.2-0.2,0.5-0.1,0.7c0.1,0.2-0.1,0.4-0.1,0.6
			C55,20.1,54.8,20.3,54.6,20.4z"/>
		<path class="st37" d="M61.5,21.8c-0.1-0.2,0-0.4,0.1-0.6c0.1-0.1,0.1-0.2,0.2-0.3c0-0.5,0.3-0.8,0.6-1.1c0.1-0.1,0.1-0.1,0.2-0.1
			c0.1,0.1,0.1,0.2,0.1,0.3c-0.2,0.4-0.1,0.8-0.3,1.1C62.1,21.4,61.9,21.7,61.5,21.8z"/>
		<path class="st38" d="M62.5,20.2c0-0.1,0-0.2,0-0.3c0.3-0.4,0.3-0.9,0.5-1.3c0.1-0.3,0.4-0.4,0.6-0.5c0.2-0.1,0.2,0.1,0.2,0.2
			c-0.2,0.5-0.5,0.9-0.7,1.3c-0.1,0.2-0.2,0.3-0.1,0.5c0,0,0,0-0.1,0c-0.1,0.1-0.1,0.2-0.2,0.2C62.6,20.4,62.5,20.4,62.5,20.2z"/>
		<path class="st15" d="M54.6,20.4c0.3-0.4,0.5-0.9,0.4-1.4c0-0.2,0.1-0.4,0.3-0.5c0,0.7-0.1,1.3-0.5,1.9c-0.1,0.1-0.1,0.2-0.2,0.2
			C54.6,20.5,54.6,20.5,54.6,20.4z"/>
		<path class="st39" d="M62.4,21.2c0-0.2,0-0.5,0-0.7c0-0.1,0-0.3,0.2-0.3"/>
		<path class="st37" d="M55.9,15.7c0-0.2,0-0.4,0.1-0.7c0.2,0.4,0.2,0.6,0.1,0.9C56,15.8,56.2,15.6,55.9,15.7z"/>
		<path class="st5" d="M53.2,23.4c0-0.1,0.1-0.2,0.2-0.2c0.2,0,0.1,0.2,0.1,0.3"/>
		<path class="st8" d="M95.8,22.3c-0.8,0.8-1.8,0.3-2.4-0.6c-0.3-0.5-0.5-1-0.6-1.5c-0.1,0-0.1-0.1-0.1-0.2c0-0.2,0-0.4-0.2-0.5
			c0,0,0-0.1,0-0.1c-0.3-0.1-0.5-0.3-0.5-0.7c0-0.4-0.2-0.8-0.3-1.2c-0.1-0.7-0.2-1.3-0.4-1.9c-0.1-0.2,0.1-0.4,0.1-0.6
			c0.1-0.6,0.1-1.2,0.3-1.8c0.1-0.4,0-0.7,0.1-1.1c0-0.3,0.2-0.3,0.4-0.3c0.4-0.1,0.5-0.2,0.4-0.6c-0.1-0.5,0-0.7,0.6-0.6
			c0.6,0.1,1.1,0.4,1.5,0.8c0.4,0.3,0.7,0.6,1,1c0,0.1,0.1,0.2,0.1,0.3c0.1,0.2,0.1,0.5,0.3,0.6c0.3-0.3,0.7-0.5,0.8-0.9
			c0.7-0.2,0.8-0.1,1.1,0.4c0.1,0.1,0.2,0.2,0.2,0.3c-0.1,0.5-0.1,1,0,1.4c0,0.1,0,0.3-0.1,0.3c-0.2,0.1-0.2,0.3-0.2,0.5
			c-0.1,0.4-0.2,0.8-0.2,1.2c0,0.6-0.4,1.1-0.6,1.6c-0.2,0.4-0.3,0.7-0.4,1.1c0,0,0,0.1,0,0.1c0.1,0.3,0,0.6-0.2,0.8
			c-0.2,0.3-0.2,0.7-0.1,1c0,0,0,0.1,0,0.1c-0.2,0.2-0.4,0.5-0.5,0.7C95.9,22.3,95.8,22.3,95.8,22.3z"/>
		<path class="st12" d="M95.7,12.4c-0.6-0.3-1.1-0.8-1.6-1.2c-0.3-0.2-0.7-0.3-1-0.4c-0.2-0.1-0.4,0-0.3,0.3
			c0.1,0.2,0.1,0.3,0.1,0.5c-0.1,0.4-0.2,0.5-0.6,0.4C92.1,12,92,12,92,12c-0.2,0-0.2-0.1-0.2-0.2c0-0.1,0-0.3,0-0.4
			c0-0.2,0-0.4-0.2-0.6c-0.3-0.2-0.3-0.6-0.3-0.9c0-0.6,0.4-0.8,1-0.5c0.7,0.2,1.4,0.6,2,1.1C94.9,11.1,95.4,11.7,95.7,12.4z"/>
		<path class="st37" d="M92.3,9.5c-0.3,0.1-0.6,0-0.7,0.3c-0.1,0.4,0,0.7,0.2,1c0.1,0.2,0.4,0.3,0.2,0.6c-0.3,0-0.5-0.1-0.8-0.2
			c-0.1-0.1-0.3-0.2-0.2-0.4c0-0.3-0.1-0.5-0.5-0.4c-0.1,0-0.1,0-0.1,0.1c-0.1,0.1-0.3,0.2-0.4,0.1c-0.2-0.1,0-0.3,0-0.4
			C90,10,89.9,9.9,90.2,9.9c0.5-0.1,0.5-0.5,0.6-0.9c0.2,0,0.5,0.1,0.7,0.1C91.9,9,92.1,9.3,92.3,9.5z"/>
		<path class="st40" d="M97,12.5c0,0.1,0.1,0.2,0,0.2c-0.3,0.3-0.5,0.7-0.9,1C96,13.5,96,13.3,96,13.1c0.3,0,0.6-0.2,0.8-0.4
			C96.9,12.6,96.9,12.6,97,12.5z"/>
		<path class="st41" d="M96,13.1c0,0.2,0.1,0.4,0.1,0.7c0,0.1-0.1,0.1-0.1,0.2c-0.1,0-0.1-0.1-0.1-0.2c0.1-0.3-0.1-0.6-0.1-1
			C95.9,12.9,96,13,96,13.1z"/>
		<path class="st42" d="M4.8,8.3C4.8,8.4,4.8,8.5,4.7,8.5C4.6,8.6,4.5,8.7,4.4,8.6c-0.1-0.1-0.1-0.2,0-0.3c0-0.2,0.2-0.2,0.3-0.1
			C4.7,8.2,4.8,8.3,4.8,8.3C4.8,8.3,4.8,8.3,4.8,8.3z"/>
		<path class="st43" d="M1.7,16c0,0.3-0.1,0.5-0.5,0.5C1,16,1.4,16,1.7,16C1.7,16,1.7,16,1.7,16z"/>
		<path class="st42" d="M3.5,8.7c0.2,0,0.3,0,0.3,0.2c0,0.1-0.1,0.2-0.3,0.2C3.3,9.1,3.4,9,3.5,8.9C3.5,8.8,3.5,8.8,3.5,8.7
			C3.5,8.7,3.5,8.7,3.5,8.7z"/>
		<path class="st44" d="M1.6,12.4c-0.1,0.2-0.1,0.4-0.3,0.5C1,12.5,1,12.5,1.6,12.4z"/>
		<path class="st24" d="M0.9,13.4c0,0.3,0.2,0.4,0.2,0.6C0.9,13.9,0.7,13.7,0.9,13.4z"/>
		<path class="st45" d="M79.6,15.2c0.2,0.1,0.2,0.3,0.2,0.5c0,0.3,0,0.5,0.1,0.8c-0.2,0.2-0.2,0.5-0.3,0.8c-0.1,0.6-0.2,1.2-0.4,1.9
			c0,0.1-0.1,0.1-0.1,0.2c-0.1,0-0.1,0.1-0.2,0c0.3-0.8,0.1-1.6,0.4-2.4c0.2-0.4-0.1-0.8-0.2-1.2C79.1,15.5,79.3,15.3,79.6,15.2z"/>
		<path class="st26" d="M79,19.4c0.1,0,0.1,0,0.2,0c0.1,0.3-0.2,0.7,0,1C79,20.6,79,20.8,78.9,21c0.1,0.8-0.5,1.1-1.1,1.5
			c-0.1,0.1-0.3,0.2-0.4,0.3c0-0.2,0.2-0.4,0.3-0.5c0.5-0.7,0.6-1.5,1.1-2.2C79,19.9,79,19.6,79,19.4z"/>
		<path class="st46" d="M78.9,21c-0.2-0.3,0-0.4,0.2-0.6C79.2,20.7,79.1,20.8,78.9,21z"/>
		<path class="st31" d="M86,19.6c0.1-0.4,0.1-0.9,0.5-1.2c0.1,0.1,0.4,0.1,0.2,0.4c-0.1,0.2-0.1,0.3-0.2,0.5c0.1,0.1,0,0.2-0.1,0.2
			c-0.1,0.4-0.2,0.9-0.4,1.3c-0.2,0.3-0.1,0.6-0.4,0.9c0,0,0,0.1,0,0.1c0.1,0.4-0.3,0.4-0.5,0.6l0,0c-0.2,0.3-0.6,0.4-0.9,0.4
			c-0.1,0-0.2,0.2-0.4,0.1c-0.2-0.1-0.1-0.2,0-0.3c0.1-0.1,0.3-0.2,0.4-0.2c0.2,0,0.2-0.1,0.3-0.2v0c0.2-0.1,0.1-0.4,0.3-0.6
			c0-0.1,0.1-0.1,0.1-0.2c0.1-0.3,0.2-0.6,0.4-0.8c0,0,0.1,0,0.1,0C85.3,20.1,85.8,19.9,86,19.6z"/>
		<path class="st47" d="M85.2,22.4c0.1-0.2,0.4-0.3,0.5-0.6c0.1,0,0.3,0.1,0.4,0.2c-0.2,0.1-0.5,0.2-0.3,0.5c0,0,0,0.1-0.1,0.1
			c-0.1,0-0.2,0-0.2-0.1C85.5,22.2,85.3,22.3,85.2,22.4z"/>
		<path class="st19" d="M86.7,18.8c-0.3,0-0.3-0.2-0.2-0.4c0,0,0,0,0.1,0c0.2-0.3,0.4-0.6,0.3-0.9c0-0.1,0-0.2,0.2-0.1
			c0,0.3,0,0.5,0,0.8C86.9,18.3,86.8,18.6,86.7,18.8z"/>
		<path class="st19" d="M85.6,21.6c0.2-0.3-0.1-0.7,0.4-0.9C86,21.1,85.9,21.4,85.6,21.6z"/>
		<path class="st47" d="M83.9,22.8c0.4-0.1,0.9-0.1,1.3-0.4c-0.2,0.5-0.7,0.4-1,0.5c-0.1,0-0.1,0.1-0.2,0.1
			C83.9,22.9,83.9,22.8,83.9,22.8z"/>
		<path class="st32" d="M86.4,19.5c0-0.1,0-0.2,0.1-0.2c0.1-0.1,0.2-0.1,0.3,0.1c0,0.1,0,0.3-0.1,0.3C86.5,19.7,86.5,19.6,86.4,19.5
			z"/>
		<path class="st9" d="M10.2,20.1C10,19.9,10,19.6,10,19.3c0.1-0.5,0-1.1,0.2-1.6c0-0.1,0-0.2,0.1-0.2c0.1,0,0.2,0.1,0.2,0.2
			c0.1,0.2,0.2,0.4,0.2,0.6c-0.3,0-0.2,0.2-0.2,0.4C10.6,19.2,10.4,19.6,10.2,20.1z"/>
		<path class="st26" d="M71,12c0.7-0.3,1.3-0.7,1.8-1.2c0.1,0,0.2-0.1,0.2-0.2c0.1-0.1,0.2-0.1,0.3,0c-0.4,0.6-0.3,1.3-0.4,2
			c-0.3,0-0.4,0.2-0.6,0.3C72.2,13,72,13.1,71.8,13c-0.7,0.2-0.7,0.2-0.5,1c0,0.2-0.2,0.3-0.3,0.5c-0.3,0-0.5-0.2-0.5-0.5
			c0-0.2,0-0.4,0-0.5c0.4-0.4,0.5-0.9,0.4-1.5C70.9,12,71,12,71,12z"/>
		<path class="st39" d="M69.4,22.5c0-0.2,0.2-0.2,0.3-0.3c0.2-0.2,0.4-0.4,0.5-0.7c0.1-0.4,0.3-0.8,0.5-1.1c0.3-0.5,0.1-1.1,0.5-1.6
			c0.1-0.1,0-0.4,0-0.5c0-0.1,0-0.3,0.2-0.3c0.1,0,0.1,0.1,0.1,0.2c-0.1,0.7,0,1.5-0.2,2.2c-0.1,0.7-0.5,1.2-1.1,1.7
			c-0.1,0.1-0.2,0.3-0.3,0.4c0,0,0,0,0,0C69.7,22.5,69.6,22.5,69.4,22.5z"/>
		<path class="st48" d="M71.5,18.1C71.5,18.1,71.4,18.1,71.5,18.1c-0.4-0.3-0.2-0.6-0.2-0.8c0-0.1-0.1-0.3,0-0.5c0-0.1,0-0.1,0-0.2
			c-0.2-0.5-0.3-1-0.4-1.4c-0.1-0.3-0.1-0.6,0.1-0.9c0.1-0.1,0.2-0.2,0.3-0.3C71.3,15.4,71.6,16.7,71.5,18.1z"/>
		<path class="st49" d="M74.5,21.4c0,0.1,0,0.2,0,0.4c0,0.1-0.1,0.2-0.2,0.2c-0.1,0-0.2,0-0.2-0.1c-0.1-0.1,0-0.2,0.1-0.2
			C74.3,21.5,74.4,21.5,74.5,21.4L74.5,21.4z"/>
		<path class="st50" d="M92.6,20.1c0,0.1,0,0.1,0.1,0.2c0,0.1,0,0.3-0.2,0.4C92.4,20.5,92.6,20.3,92.6,20.1z"/>
		<path class="st3" d="M39.4,19.4c-0.2,0.4-0.3,0.8-0.6,1.1c-0.3,0.3-0.2,0.7-0.2,1c0,0.6-0.4,0.7-0.9,0.9c-0.4,0.1-0.8,0.1-1.1-0.3
			c-0.3-0.4-0.8-0.7-0.9-1.2c0-0.1-0.1-0.2-0.1-0.4c0.1,0,0.3,0,0.4,0.1c0.2,0.5,0.8,0.6,1.2,0.8c0.5,0.3,0.8,0.1,0.9-0.4
			c0.1-0.6,0.5-1,0.8-1.5C38.9,19.4,39.1,19.3,39.4,19.4z"/>
		<path class="st47" d="M34.9,23.8c0.1-0.1,0.2-0.1,0.3-0.2c0.1-0.1,0.1-0.3,0.3-0.2c0.2,0.1,0.1,0.3,0.1,0.4c0,0.1,0,0.2,0.1,0.3
			c0,0.1,0,0.3-0.1,0.3c-0.1,0-0.3,0-0.2-0.2C35.4,23.9,35.2,23.8,34.9,23.8z"/>
		<path class="st38" d="M22.6,7.7c0.6-0.6,1.2-0.3,1.8-0.2C24.2,7.6,24,7.8,24,8c-0.3-0.6-0.9-0.7-1.3-0.2c-0.3,0.4-0.6,0.7-0.7,1.2
			c-0.1-0.1-0.1-0.3-0.2-0.4c0.2-0.3,0.4-0.5,0.6-0.8C22.3,7.8,22.4,7.8,22.6,7.7C22.5,7.7,22.6,7.7,22.6,7.7z"/>
		<path class="st41" d="M39.5,4c-0.1,0.2-0.3,0.2-0.4,0.2c0,0,0-0.1,0-0.1C39.2,4,39.3,4,39.5,4z"/>
		<path class="st28" d="M69.8,22.4c0.2,0,0.4,0,0.5,0.3C70.1,22.7,69.8,22.7,69.8,22.4C69.8,22.4,69.8,22.4,69.8,22.4z"/>
		<path class="st6" d="M15.6,3.8c-0.1,0.3-0.3,0.3-0.5,0.3C15.3,3.9,15.4,3.8,15.6,3.8z"/>
		<path class="st51" d="M97.3,19.4c0-0.2,0-0.4,0.2-0.5c0,0.2,0.3,0.4,0,0.5c0.1,0.1,0.1,0.1,0.2,0.2c-0.2,0.1-0.3,0-0.5-0.1
			C97.2,19.5,97.3,19.4,97.3,19.4z"/>
		<path class="st52" d="M97.3,19.4c0,0.1-0.1,0.1-0.1,0.2c-0.1,0.1-0.2,0.3-0.3,0.4C96.8,19.5,96.9,19.4,97.3,19.4z"/>
		<path class="st53" d="M100.5,23.9c-0.2-0.1-0.3-0.2-0.5-0.3C100.3,23.6,100.4,23.6,100.5,23.9z"/>
		<path class="st35" d="M96.1,21.4c0.2,0.2,0,0.4,0,0.6c-0.1,0.1-0.1,0.3-0.3,0.3C96,22.1,96,21.7,96.1,21.4z"/>
		<path class="st54" d="M73.4,10.6c-0.2,0-0.3,0.3-0.6,0.2c0.2-0.2,0.4-0.4,0.6-0.6C73.5,10.3,73.4,10.5,73.4,10.6z"/>
		<path class="st22" d="M78.1,17.3c0.1-0.2-0.2-0.6,0.3-0.4C78.3,17.1,78.2,17.2,78.1,17.3z"/>
		<path class="st16" d="M71,12C71,12,71,12,71,12c-0.4,0.4-0.8,0.5-1.2,0.6c-0.2,0-0.4-0.3-0.7,0c-0.4-0.3-0.4-0.7-0.4-1.2
			c0-0.2,0.2-0.3,0.4-0.4c0.6-0.2,1.3,0.1,1.7,0.7C70.9,11.8,71,11.9,71,12z"/>
		<path class="st55" d="M70.9,14.4c0.2,0.1,0.3,0.3,0,0.4c-0.1,0-0.1,0.1,0,0.2c0.2,0.3,0.3,0.6,0.3,0.9c0,0.2,0,0.5,0,0.8
			c-0.2-0.1-0.4-0.1-0.4-0.3c0,0,0-0.1-0.1-0.1c-0.6-0.2-0.3-0.6-0.2-0.9c0.2-0.6,0-0.9-0.5-1c-0.2,0-0.5,0-0.2-0.4
			c0.2-0.2-0.2-0.2-0.2-0.4c0-0.2,0-0.4-0.1-0.5c0.1-0.2,0.2-0.2,0.4-0.1c0.2,0.2,0.4,0.3,0.7,0.4c0,0,0,0.1,0,0.1
			c0.1,0.2,0.2,0.3,0.1,0.5C70.7,14.2,70.8,14.3,70.9,14.4z"/>
		<path class="st36" d="M70.6,13.5c-0.2,0.1-0.4,0.2-0.6-0.1C70,13.2,69.8,13,69.6,13c0,0,0-0.1-0.1-0.1c0-0.1,0-0.1-0.1-0.2
			c0-0.1-0.2-0.2-0.1-0.3c0.1-0.1,0.3-0.2,0.4-0.1c0.4,0,0.8-0.3,1.2-0.3C71.4,12.7,71.3,13.2,70.6,13.5z"/>
		<path class="st15" d="M68.3,11.5c-0.3-0.3-0.7-0.5-0.7-0.9c0-0.2-0.3-0.3-0.5-0.5C67.9,10.2,68.2,10.8,68.3,11.5z"/>
		<path class="st56" d="M67.8,18.7c-0.3,0.2-0.3,0-0.2-0.2c0.2-0.5,0.3-1.1,0.6-1.6c0.1,0.5-0.3,0.8-0.3,1.3
			C67.8,18.4,67.7,18.5,67.8,18.7z"/>
		<path class="st55" d="M69.7,12.4c-0.3,0.1-0.2,0.4-0.3,0.6c-0.2-0.1-0.3-0.2-0.4-0.4C69.2,12.1,69.2,12.1,69.7,12.4z"/>
		<path class="st3" d="M39.9,16c0.3-0.2,0.4-0.5,0.3-0.8c0-0.3,0-0.5,0-0.8c0.1,0,0.1-0.1,0-0.2c0-0.6,0.2-1.2,0.2-1.8
			c0,0,0-0.1,0-0.1c0-0.3,0-0.7,0.2-1c0,0,0,0,0.1,0c0.1-0.1,0.2-0.1,0.4,0c0.4,0.3,0.7,0.2,0.8-0.3c0.1-0.4,0.5-0.6,1-0.6
			c0.1,0,0.2,0,0.3,0.1c0.2,0.2,0.2,0.5,0.4,0.7c0.1,0.1,0.1,0.3,0,0.4c-0.2,0.2-0.3,0.5-0.3,0.8c0,0.5-0.1,1,0,1.5
			c0,0.1,0,0.2-0.1,0.3c-0.3-0.2-0.5-0.4-0.8-0.4c-0.1,0-0.2-0.1-0.2-0.2c0-0.2-0.2-0.3-0.3-0.4c-0.1-0.1-0.2-0.2-0.4-0.1
			c-0.1,0.1-0.1,0.2-0.1,0.3c0,0,0,0.1,0,0.1c-0.3,0.3-0.4,0.9-0.8,1.1c-0.3,0.2-0.4,0.4-0.4,0.7C40.3,15.7,40.3,16,39.9,16z"/>
		<path class="st10" d="M38.6,9.5c0.1-0.4,0.3-0.6,0.7-0.6c0.1,0,0.3,0.1,0.3-0.1c0-0.2-0.2-0.1-0.3-0.1c-0.2,0-0.3,0-0.5,0
			c-0.2,0-0.4,0-0.5-0.3c0-0.1,0-0.1,0.1,0c0.1,0.1,0.2,0.2,0.3,0.2c0.6,0,1.2,0,1.9-0.1c1.2,0,2.4-0.1,3.5-0.1c0.6,0,1.3,0,1.9,0.3
			C43.5,8.8,41.1,9.5,38.6,9.5z"/>
		<path class="st14" d="M43,10.7c-0.3,0.2-0.6,0.3-0.8,0.7c-0.2,0.5-0.7,0.6-1.1,0.2c-0.1-0.1-0.1-0.1-0.2-0.2
			c0.1-0.4,0.4-0.6,0.6-0.9c0.1-0.1,0.1-0.2,0.2-0.2c0.4,0.2,0.8,0.2,1.2,0.2C42.9,10.5,43,10.6,43,10.7z"/>
		<path class="st57" d="M43,10.7c-0.5-0.1-1-0.3-1.5-0.2c0.1-0.2,0.2-0.2,0.4-0.2c0.4,0.1,0.7,0.2,1.1,0.2c0.6,0.2,1,0.7,1.2,1.2
			c0.1,0.3,0.1,0.5-0.1,0.8c-0.1,0-0.2-0.1-0.2-0.2c0-0.6-0.3-1.1-0.6-1.5C43.2,10.7,43.1,10.7,43,10.7z"/>
		<path class="st42" d="M40.8,11.4c-0.1,0.3-0.2,0.7-0.2,1c-0.2-0.1-0.3-0.3-0.1-0.5c0.1-0.2,0.1-0.4,0-0.6
			C40.7,11.2,40.7,11.4,40.8,11.4z"/>
		<path class="st10" d="M52.9,12c-0.4-0.2-0.8-0.4-1-0.8c-0.2-0.2-0.5-0.4-0.8-0.5c-0.2,0-0.4-0.2-0.5-0.3c0-0.1-0.1-0.2-0.2-0.1
			c-0.1,0-0.1,0.1-0.1,0.2c0,0.1,0,0.2,0,0.2c0,0.5,0,0.5-0.5,0.4c-0.2,0-0.2-0.1-0.2-0.3c0-0.3,0-0.5-0.2-0.7
			c-0.2-0.2-0.2-0.4-0.1-0.6c0-0.1,0-0.2,0-0.2c-0.1-0.3,0.1-0.5,0.4-0.5c0.1,0,0.1,0.1,0.2,0.1c0.6,0.4,1.2,0.9,1.8,1.3
			C52.1,10.7,52.6,11.3,52.9,12z"/>
		<path class="st41" d="M61.9,6.9c0.1,0,0.1,0.1,0.1,0.1c0,0.1-0.1,0.1-0.1,0.1C61.9,7.1,61.8,7,61.9,6.9
			C61.8,6.9,61.9,6.9,61.9,6.9z"/>
		<path class="st58" d="M61,9c-0.3,0-0.4-0.2-0.5-0.4C60.7,8.6,60.9,8.8,61,9z"/>
		<path class="st59" d="M60.6,14.1c0.4-0.6,0.7-1.2,1.3-1.6c0,0.2-0.2,0.3-0.2,0.5"/>
		<path class="st60" d="M59.5,17.5"/>
		<path class="st20" d="M60.5,14.3c0.1,0.3,0,0.6-0.3,0.8"/>
		<path class="st61" d="M46.1,21.3c0-0.1-0.1-0.2,0-0.3c0.3-0.4,0.2-0.8,0.2-1.2c-0.1-0.7,0.2-1.3,0.3-1.9c0.1-0.3,0.1-0.5,0.1-0.8
			c-0.1-0.3,0-0.7,0.1-1c0.1-0.5-0.1-1-0.3-1.4c-0.2-0.3-0.3-0.6-0.3-0.9c0.3-0.5,0.4-1,0.6-1.5c0.1,0.2,0.2,0.3,0.4,0.1
			c0,0,0.1-0.1,0.1-0.1c0.2-0.1,0.3-0.3,0.5-0.2c0.1,0.1,0.1,0.7,0,0.9c0,0-0.1,0.1-0.1,0.1c0.2,0.3-0.1,0.6-0.1,1
			c0,0.1,0,0.2,0,0.3c-0.2,0.7-0.3,1.3-0.5,2c0,0.2-0.1,0.3-0.2,0.5c0,0.2,0.1,0.5,0,0.7c0,0.1,0,0.2-0.1,0.2
			c-0.1,0.1-0.2,0.2-0.2,0.3c-0.1,0.4-0.1,0.8-0.2,1.2c0,0.2,0,0.4,0.2,0.4c0.2,0.1,0.2,0.3,0,0.3c-0.4,0.2-0.4,0.5-0.4,0.8"/>
		<path class="st34" d="M49.6,10c-0.1-0.1-0.1-0.1-0.2-0.2C49.1,9.6,49,9.7,49,10c-0.1,0.5-0.2,0.9-0.1,1.4c0,0.1-0.1,0.3-0.1,0.4
			c-0.4-0.5-0.5-1-0.1-1.5c0.1-0.1,0.2-0.4,0-0.5c-0.1-0.1,0-0.2,0-0.3c0.1-0.1,0.1-0.2,0.3-0.2c0.1,0,0.3,0.1,0.4,0.1
			C49.4,9.6,49.5,9.8,49.6,10z"/>
		<path class="st10" d="M47,17.7c0-0.3-0.2-0.7,0.1-1c0.1,0.1,0.2,0.2,0.4,0.2c0,0,0,0.1,0,0.1c0,0.2-0.1,0.3-0.1,0.5
			C47.3,17.8,47.2,17.8,47,17.7L47,17.7z"/>
		<path class="st62" d="M47.8,15.2c-0.1,0.4,0.1,0.8-0.1,1.1C47.6,15.9,47.7,15.5,47.8,15.2z"/>
		<path class="st10" d="M38.4,8.5C38.4,8.5,38.4,8.5,38.4,8.5c-0.4-0.5-0.8-0.9-1.2-1.4C37,6.8,36,6.7,35.7,6.8
			c-0.1,0.1-0.2,0.1-0.2,0.3c0,0.4-0.2,0.6-0.6,0.7c-0.1,0-0.2,0.1-0.2,0.3c-0.1,0.2-0.3,0.3-0.5,0.4c0-0.3,0.1-0.6,0.2-0.9
			c0-0.7,0.3-1.4,0.3-2.1c0-0.2,0.2-0.3,0.4-0.3c0.1,0,0.1,0,0.2,0C36,5.4,36.5,5.9,37,6.4c0.4,0.5,1,1,1.3,1.6
			C38.3,8.2,38.4,8.3,38.4,8.5z"/>
		<path class="st63" d="M9.8,13.6c0.3-0.6,0.6-1.3,1-1.8c0.1-0.1,0.2-0.3,0.4-0.2C11,11.8,11,11.9,11,12.1c0,0.5-0.2,0.9-0.4,1.3
			c0,0.1-0.1,0.3-0.3,0.2C10.1,13.4,10,13.6,9.8,13.6z"/>
		<path class="st3" d="M16.3,12.1c0.1-0.1,0.1-0.3,0.2-0.4C16.6,12,16.6,12.1,16.3,12.1z"/>
		<path class="st2" d="M32.7,13.5c0.3-0.4,0.5-0.9,0.9-1.2c0,0.1,0,0.3,0,0.4c-0.3,0.6-0.3,1.2-0.5,1.7c-0.1,0.3-0.2,0.6-0.5,0.9
			C32.8,14.7,32.7,14.1,32.7,13.5z"/>
		<path class="st48" d="M20,12.1c0-0.3,0.2-0.5,0.4-0.7C20.4,11.7,20.3,11.9,20,12.1z"/>
		<path class="st22" d="M79.8,14.9c-0.1-0.3,0.1-0.4,0.3-0.6C80.1,14.5,80,14.7,79.8,14.9z"/>
		<path class="st37" d="M86,19.6c0,0.2-0.1,0.3-0.2,0.4c-0.1,0.2-0.3,0.3-0.2,0.6c0.1,0.2-0.4,0.8-0.6,0.9c-0.1-0.2-0.1-0.4,0-0.6
			c0.3-0.4,0.4-0.9,0.7-1.3C85.8,19.6,85.9,19.6,86,19.6z"/>
		<path class="st37" d="M83.9,22.8C83.8,22.9,83.8,22.9,83.9,22.8c-0.4,0-0.7,0-1-0.2c0.6,0,1.2-0.3,1.8-0.5c0.1,0.2,0,0.4-0.3,0.4
			C84.2,22.6,84,22.6,83.9,22.8C83.9,22.8,83.9,22.8,83.9,22.8z"/>
		<path class="st37" d="M84.9,21.6c-0.1,0.2-0.1,0.5-0.3,0.6C84.6,22,84.7,21.8,84.9,21.6z"/>
		<path class="st64" d="M82.5,10.1c0-0.1-0.1-0.3-0.1-0.4c-0.1-0.1,0-0.3,0.1-0.4c0.1-0.1,0.3-0.2,0.4,0
			C82.6,9.5,82.6,9.9,82.5,10.1z"/>
		<path class="st65" d="M87,17.3c-0.2,0.3-0.1,0.8-0.5,1c0-0.2,0.1-0.3,0.2-0.5c0.1-0.2,0.2-0.5,0-0.6c-0.5-0.6,0-1,0.1-1.5
			c0,0,0.1-0.1,0.1-0.1c0.1,0.2-0.1,0.4-0.1,0.7c0.3-0.3,0.4-0.6,0.6-0.9c0.3,0.2,0.1,0.3,0,0.5c-0.2,0.3-0.2,0.7-0.3,1
			C87.1,17.1,87,17.2,87,17.3z"/>
		<path class="st66" d="M89.1,12.4c-0.3,0.3-0.8,0.6-1.2,0.7C88.2,12.7,88.5,12.3,89.1,12.4z"/>
		<path class="st67" d="M89.9,11.2c-0.1,0.3-0.3,0.5-0.5,0.6C89.5,11.6,89.7,11.4,89.9,11.2z"/>
		<path class="st68" d="M86.5,11.8c0.2,0,0.2,0,0.2,0.4c0,0-0.1,0-0.1,0.1C86.5,12.2,86.5,12,86.5,11.8z"/>
		<path class="st31" d="M43.3,10.8c0.7,0.4,1,1.1,0.8,1.7c-0.3,0.7-0.5,1.5-0.6,2.2c-0.1-0.1-0.1-0.3-0.2-0.4
			c-0.3-0.7,0-1.4-0.1-2.2c0,0,0,0,0,0C43.3,11.8,43.4,11,43.3,10.8z"/>
		<path class="st1" d="M34,9.7c-0.9,0-1.7-0.1-2.6,0.2c-0.3,0.1-0.5-0.2-0.6-0.4c-0.1-0.1,0.1-0.2,0.2-0.2c0.6-0.1,1.1-0.3,1.7-0.3
			C33.1,9.1,33.6,9,34,9c-0.2,0.1-0.3,0.2-0.1,0.4C34,9.5,34,9.6,34,9.7z"/>
		<path class="st47" d="M33.9,18.8c-0.1,0-0.2,0-0.2-0.1c-0.1,0-0.2,0.2-0.3,0.1c-0.1-0.1,0-0.2,0.1-0.4c0.1-0.3,0.1-0.4-0.3-0.6
			c0.3-0.1,0.4-0.3,0.4-0.5c0-0.1,0.1-0.3,0.3-0.2c0.2,0,0.2-0.1,0.3-0.3c0.1,0.4,0.3,0.8,0.4,1.1c-0.2,0-0.3,0.2-0.4,0.4
			C34.2,18.5,34.1,18.7,33.9,18.8z"/>
		<path class="st28" d="M33.9,18.8c0-0.1,0-0.3,0-0.4c0-0.4,0.2-0.6,0.6-0.4c0,0,0,0,0,0.1c0,0.1-0.1,0.3-0.2,0.4
			C34.3,18.6,34.2,18.9,33.9,18.8z"/>
		<path class="st47" d="M34.4,18.4c0-0.2,0.1-0.3,0.2-0.4c0.3,0.4,0.2,0.9,0.4,1.3c-0.3-0.2-0.5-0.4-0.4-0.7
			C34.6,18.5,34.5,18.4,34.4,18.4z"/>
		<path class="st28" d="M35.1,19.8c-0.2,0-0.3-0.1-0.5-0.2c0.2-0.1,0.3,0,0.5-0.1C35.1,19.6,35.1,19.7,35.1,19.8z"/>
		<path class="st69" d="M37.5,15.4c0.1,0.4,0.1,0.8,0,1.2C37.5,16.2,37.4,15.8,37.5,15.4z"/>
		<path class="st30" d="M47,17.7c0.3-0.1,0.3-0.4,0.5-0.6c0,0.5,0.2,1,0,1.5c0,0.1-0.1,0.1-0.1,0.2c-0.2-0.1-0.4-0.2-0.2-0.5
			C47.2,18.1,47.2,17.9,47,17.7z"/>
		<path class="st6" d="M12.2,11.3"/>
		<path class="st29" d="M12.8,11.3c-0.1,0.1-0.2,0-0.2,0"/>
		<path class="st5" d="M9.8,9.9C9.7,9.7,9.6,9.5,9.5,9.3"/>
		<path class="st35" d="M31.4,10.6c0.2-0.1,0.4-0.1,0.6,0C31.7,10.8,31.6,10.9,31.4,10.6z"/>
		<path class="st35" d="M32.4,10.3c-0.2-0.1-0.2-0.3-0.1-0.4C32.4,10,32.4,10.1,32.4,10.3z"/>
		<path class="st55" d="M71.3,16.8c0.3,0.4,0,0.8,0.1,1.2c-0.1,0.1-0.2,0.2-0.2,0.2c-0.1-0.1-0.2-0.1-0.1-0.3c0.1-0.2,0-0.5,0-0.7
			C71.1,17.1,71.1,16.9,71.3,16.8z"/>
		<path class="st0" d="M40.3,14.3c0.1-0.1,0-0.3,0.2-0.2c0.1,0,0.1,0.1,0.1,0.1c0,0.2-0.1,0.2-0.2,0.2c0,0-0.1,0-0.1,0.1
			C40.3,14.4,40.3,14.3,40.3,14.3z"/>
	</g>
</g>
</svg>
