<?xml version="1.0" encoding="utf-8"?>
<!-- Generator: Adobe Illustrator 20.0.0, SVG Export Plug-In . SVG Version: 6.00 Build 0)  -->
<svg version="1.1" id="Layer_1" shape-rendering="crispEdges"
	 xmlns="http://www.w3.org/2000/svg" xmlns:xlink="http://www.w3.org/1999/xlink" x="0px" y="0px" viewBox="0 0 19 19"
	 style="enable-background:new 0 0 19 19;" xml:space="preserve">
<style type="text/css">
	.st0{fill:#0099D8;}
</style>
<g id="Layer_1_1_">
	<path class="st0" d="M9.8,7.8L10,6.7H3l0.3-1.8h7l0.2-0.8c0.4-2.5,2.1-3.9,4.6-3.9h1.4l-0.3,1.7h-1.3c-1.4,0-2.2,0.7-2.5,2.2
		l-0.1,0.7H15l-0.3,1.8H12l-1.5,8.5c-0.4,2.4-2.1,3.8-4.7,3.8H5.7L6,17.1h0.1c1.4,0,2.2-0.6,2.5-2.1l0.9-5.5h-7l0.3-1.8h2.4
		C5.3,7.8,9.8,7.8,9.8,7.8z"/>
</g>
</svg>
