<?xml version="1.0" encoding="utf-8"?>
<!-- Generator: Adobe Illustrator 20.0.0, SVG Export Plug-In . SVG Version: 6.00 Build 0)  -->
<svg version="1.1" id="Layer_1" xmlns="http://www.w3.org/2000/svg" xmlns:xlink="http://www.w3.org/1999/xlink" x="0px" y="0px"
	 viewBox="0 0 50 50" style="enable-background:new 0 0 50 50;" xml:space="preserve">
<style type="text/css">
	.st0{fill:#3C4841;}
	.st1{fill:#2C332B;}
</style>
<path class="st0" d="M91.6-39.9"/>
<path class="st1" d="M92-34.9"/>
<g id="KQcRT4.tif">
	<g>
		<path d="M6.9,31.7c0.7-1,1.5-2,2.2-3.1c0.2-0.2,0.3-0.6,0.3-0.8c-0.9-5.2,0.7-7.2,6-7.5c0.1,0,0.2-0.1,0.5-0.2
			c-0.1-1.3-0.3-2.6-0.2-4c0.2-3.9,0.2-7.8,0.9-11.6c0.3-2,1.7-3.8,4-4.4c1.9-0.5,3.4,0,4,1.9c0.6,1.8,1.1,3.7,1.2,5.6
			c0.3,4.2,0.2,8.4,0.4,12.7c0,0.9,0,2.2,1.4,2c0.4-3.8,0.7-7.4,1.1-11c0.2-2.3,0.3-4.6,0.9-6.8c0.8-2.9,3.2-4.4,6.1-4.3
			c0.3,0,0.7,0.1,0.9,0.3c1.1,1.4,2.3,2.8,2.3,4.7c0.1,4.7,0.1,9.5,0.3,14.2c0.2,4.2,0.2,8.4,1.7,12.4c0.6,1.7,1.4,3.3,1.9,5
			c1.2,4-1.1,10.3-6.1,11.6c-0.1,0-0.2,0-0.3,0c-3.5,2.7-7.6,1.5-11.4,1.9c-0.9,0.1-1.8,0-2.7,0c-5.8,0.1-7.9-2.4-10.2-6.8
			c-0.9-1.7-2-3.4-3-5.1c-0.7-1.2-1.5-2.5-2.2-3.8C6.9,33.8,6.9,32.8,6.9,31.7z M37.5,30c-0.1-6.5-0.2-13.1-0.4-19.8
			c0-2-0.1-4.1-0.4-6.1C36.5,2.5,34.9,2,33.6,3c-0.8,0.6-1.6,1.5-1.9,2.4c-0.6,2-1,4.1-1.4,6.2c-0.6,3.2-0.9,6.5-0.4,9.8
			c0.1,0.4,0.4,0.8,0.6,1.2c0.2,0.4,0.6,0.8,0.5,1c-0.1,0.3-0.6,0.6-0.9,0.6c-1.4,0-2.7,0-4.1-0.2c-2.5-0.3-2.3-0.4-2.3-2.8
			c0-5.3-0.1-10.5-0.4-15.8c-0.1-1.1-1.1-2.1-1.8-3.1c-0.1-0.2-0.8-0.2-1.2-0.1c-1.6,0.4-1.8,1.7-1.8,3C18.3,9.5,18,13.7,17.9,18
			c-0.1,2.5,0,5,1.9,7.1c0.8,0.9,1.4,2,2.1,3c0.3,0.4,0.7,0.8,1.1,0.8c2.7,0.3,5.5,0.4,8.2,0.6C33.5,29.7,35.6,29.8,37.5,30z
			 M14.4,43.2c0,0.2-0.1,0.4-0.1,0.5c-0.1,2.4,2.6,4.9,5.4,5c1.9,0.1,3.9,0.4,5.8,0.1c3.1-0.4,6.1-1.1,9.2-1.6
			c2.9-0.5,4.6-2.3,5.9-4.8c1.6-3.2,0.6-6-1-8.8c-1.4-2.4-3.5-2.4-5.8-2.4c-4.6,0.1-9.1,0.2-13.6-1.1c-1.1,3.2-0.5,4.4,2.6,5.2
			c1.9,0.5,3.9,0.9,5.8,1.3c1.3,0.2,1.4,1,1.1,2.1c-0.5,1.7-0.8,3.4-1.3,5c-0.1,0.3-0.5,0.8-0.8,0.8c-0.3,0-0.8-0.4-0.9-0.7
			c-0.2-0.3-0.2-0.8-0.1-1.3c0.3-1.4,0.6-2.8,0.9-4.3c-0.8-0.2-1.7-1.2-2.6-0.1c-1.2,1.5-2.4,2.9-4.6,1.7
			C19.4,44,17.2,43.9,14.4,43.2z M23.2,37.4c-0.4-0.1-0.5-0.2-0.6-0.2c-4.2-0.4-6-3.8-3.3-8c0.3-0.4,0.2-1.3,0-1.7
			c-1-1.5-2-3-3.2-4.3c-0.9-1.1-2.5-1.3-3.6-0.7c-1.2,0.7-1.8,1.8-1.3,3.2c0.3,1.2,0.7,2.4,1.4,3.3c2.5,3,5.1,5.8,7.8,8.6
			C21.1,38.4,22.1,38.3,23.2,37.4z M10,29.7c-0.3,1-0.8,1.8-0.8,2.5c-0.1,3.1,4,8.4,7,9.1c0.5,0.1,1.3-0.3,1.5-0.6
			c0.3-0.5,0.5-1.5,0.2-1.8C15.5,35.9,12.9,33,10,29.7z"/>
	</g>
</g>
</svg>
