<?xml version="1.0" encoding="utf-8"?>
<!-- Generator: Adobe Illustrator 20.0.0, SVG Export Plug-In . SVG Version: 6.00 Build 0)  -->
<svg version="1.1" id="Layer_1" xmlns="http://www.w3.org/2000/svg" xmlns:xlink="http://www.w3.org/1999/xlink" x="0px" y="0px"
	 viewBox="0 0 50 50" style="enable-background:new 0 0 50 50;" xml:space="preserve">
<style type="text/css">
	.st0{fill:#00A79D;}
</style>
<g id="g0CsBT.tif">
	<g>
		<path class="st0" d="M14.5,6c1.6,1.7,3.3,3.4,4.9,5.2c0.5,0.5,0.5,0.9-0.1,1.5C17.7,14,16,15.3,14.9,17c-0.8,1.2-0.8,2.9-0.8,4.6
			c0.4-0.6,0.8-1.3,1.4-1.8c0.5-0.5,1.2-0.8,1.8-1.3c0.3-0.2,0.4-0.6,0.6-0.9c0.4-0.6,0.9-1.9,1.1-1.8c1,0.2,2.1,0.7,2.8,1.4
			c0.5,0.4,0.6,1.4,0.7,2.2c0.1,1.4,0,2.8,0.2,4.2c1.8-4.1,1.4-8.2,0.2-12.3c2.2-1,4.3-1.8,6.3-2.8C31,7.4,32.5,7.3,34,8.6
			c-1.3,2.5-1.3,2.5-6.3,4c0.3,1.8,0.6,3.7,0.8,5.5c0.2,2.1,0.4,4.1,0.5,6.2c0,0.5-0.3,1.1-0.6,1.5c-1.1,1.5-2.2,2.9-3.4,4.3
			c-0.7,0.8-1.5,1.6-2.4,2.5c-1.5-1.9-2.8-3.5-4.1-5.2c-0.3-0.4-0.2-1.2-0.2-1.8c0-0.9,0.2-1.7,0.3-2.6c-0.2-0.1-0.3-0.1-0.5-0.2
			c-0.4,1-1,1.9-1.3,2.9c-0.6,1.9-1.3,3.8-1.6,5.8c-0.3,1.5-1.5,1.5-2.4,1.9c-2,0.9-2.1,0.8-3.1-1.1c-0.6-1.1-1.2-2.3-1.8-3.5
			c-0.1-0.2-0.2-0.6-0.1-0.8c0.6-2.2,1.1-4.4,1.7-6.6c0.2-0.6,0.4-1.2,0.5-1.8c0.3-1,0.2-2.2,1.2-3c0.3-0.2,0.2-0.9,0.3-1.6
			c-0.6,0.3-0.9,0.4-1.1,0.6c-2.3,3.1-5.2,5.7-6.9,9.3c-0.3,0.6-0.8,1.1-1.2,1.6c-0.1,0-0.3,0-0.4-0.1c-0.3-2.2-0.5-4.4-0.8-6.7
			c-0.1-0.6-0.2-1.3-0.3-1.9c0-0.7,0-1.3,0-2c0.7-0.4,1.5-0.7,2.2-1.1c1.8-1,3.8-1.7,5.4-3c2-1.7,3.7-3.8,5.5-5.8
			C14.1,6,14.3,6,14.5,6z"/>
		<path class="st0" d="M22.6,44.5c-1.3-1.9-2.6-3.7-3.7-5.3c2.9-1.4,6-2.8,9-4.3c1.4-0.7,2.8-1.5,4.2-2.2c1.1-0.6,1.5,0.2,2,0.9
			c1.6,2.6,3.2,5.2,4.8,8c1.9-1.8,3.9-3.6,5.7-5.4c0.2-0.2,0.2-0.8,0.1-1.2c-1.1-3.5-2.2-6.9-3.3-10.1c-0.7,2-3.5,1.9-5.2,3.4
			c-0.6,0.5-1.5,0.8-2.1,1.4c-0.7,0.7-1.1,0.6-1.4-0.3c-1.1-3.2-2.3-6.4-2.3-9.9c0-1.2,0.3-2.1,1.1-2.9c2.7-2.9,5.4-5.7,8.1-8.6
			c0.1-0.1,0.3-0.2,0.5-0.4c1,0.9,2,1.8,3,2.7c-1.1,2.9-1.8,3.1-4.2,1.1c-0.3,0.5-0.5,1-0.8,1.5c-0.8,1.5-1.6,2.9-2.5,4.4
			c-0.7,1.2-1.2,2.4-0.8,3.9c0.5,1.5,0.6,3.1,0.9,4.6c0.1,0,0.3,0,0.4,0.1c1-1.9,2-3.8,3-5.7c0.6-1.1,1.1-2.2,1.7-3.3
			c0.1-0.2,0.5-0.6,0.7-0.5c1.7,0.4,1.8-0.9,2.2-2c0.3-0.9,0.7-1.9,1-2.8c0.2,0,0.3-0.1,0.5-0.1c0.7,1,1.3,1.9,2,2.9
			c0.9,1.2,0.9,2.3,0.2,3.6c-0.7,1.3-1.2,2.8-1.7,4.2c-0.7,1.9-0.3,3.8,0.3,5.7c0.8,2.5,1.7,4.9,2.6,7.4c0.3,0.8,0.4,1.4-0.4,2.1
			c-1.6,1.4-3.1,3-4.6,4.5c-2.1,2.2-4.1,4.4-6.2,6.6c-0.8,0.9-1.2,0.5-1.6-0.3c-1-2-2.1-4.1-3.3-5.9c-0.6-0.9-1.7-1.6-2.7-2.1
			c-1-0.5-2-0.3-2.8,0.6C25.6,41.8,24.1,43.1,22.6,44.5z"/>
	</g>
</g>
</svg>
