<?xml version="1.0" encoding="utf-8"?>
<!-- Generator: Adobe Illustrator 20.0.0, SVG Export Plug-In . SVG Version: 6.00 Build 0)  -->
<svg version="1.1" id="Layer_1" shape-rendering="crispEdges"
	 xmlns="http://www.w3.org/2000/svg" xmlns:xlink="http://www.w3.org/1999/xlink" x="0px" y="0px" viewBox="0 0 17 17"
	 style="enable-background:new 0 0 17 17;" xml:space="preserve">
<style type="text/css">
	.st0{stroke:#000000;}
	.st1{stroke:#000000;stroke-miterlimit:10;}
</style>
<path class="st0" d="M1,2.5h1 M6,2.5h1 M1,3.5h2 M6,3.5h2 M1,4.5h8 M0,5.5h10 M0,6.5h2 M3,6.5h3 M7,6.5h3 M0,7.5h4 M5,7.5h5 M0,8.5
	h3 M4,8.5h1 M6,8.5h4 M1,9.5h8 M10,9.5h5 M16,9.5h1 M2,10.5h12 M15,10.5h1 M2,11.5h12 M2,12.5h12 M2,13.5h12 M2,14.5h1 M5,14.5h1
	 M10,14.5h1 M13,14.5h1"/>
<path class="st1" d="M0,5.5L0,5.5"/>
</svg>
