<?xml version="1.0" encoding="utf-8"?>
<!-- Generator: Adobe Illustrator 20.0.0, SVG Export Plug-In . SVG Version: 6.00 Build 0)  -->
<svg version="1.1" id="Layer_1" xmlns="http://www.w3.org/2000/svg" xmlns:xlink="http://www.w3.org/1999/xlink" x="0px" y="0px"
	 viewBox="0 0 50 50" style="enable-background:new 0 0 50 50;" xml:space="preserve">
<style type="text/css">
	.st0{display:none;}
	.st1{display:inline;fill:#0099D8;}
	.st2{fill:#84C15C;}
</style>
<g id="Layer_1_1_" class="st0">
	<path class="st1" d="M25.9,20.1l0.5-2.9H7.8l0.8-4.7h18.6l0.4-2.2C28.6,3.7,33.1,0,39.8,0h3.7l-0.7,4.6h-3.5
		c-3.8,0-5.9,1.8-6.6,5.9l-0.3,2h7.2l-0.8,4.7h-7.2l-3.9,22.6c-1,6.5-5.6,10.2-12.4,10.2h-0.4l0.8-4.9H16c3.8,0,5.9-1.6,6.6-5.6
		l2.5-14.7H6.5l0.8-4.7h6.5C13.8,20.1,25.9,20.1,25.9,20.1z"/>
</g>
<g id="Layer_2">
	<g id="vIKa24.tif">
		<g>
			<path class="st2" d="M5.9,21.3c0,1.4,0.2,2.8,0.8,4.2c1.8,4.5,4.5,8.5,8.1,11.8c0.1,0.1,0.3,0.2,0.4,0.3c1.1,0.9,1.7,0.7,2.3-0.6
				c1.3-3.3,2.6-6.6,3.9-9.9c1.6-4,3.2-8,5.8-11.5c3.9-5.2,9.1-7.3,15.5-6.5c3.8,0.5,6.2,3,7,7.1c0.6,3.3,0.1,6.5-1,9.7
				C46,33.1,42,39.6,37.5,45.7c-0.4,0.5-0.8,1.1-1.2,1.5c-0.7,0.8-1.4,0.9-2.1,0.2c-2.7-2.7-5.3-5.4-7.3-8.6c-0.6-0.9-0.5-1.9,0-2.8
				c0.4-0.6,0.8-1.2,1.3-1.8c0.9-1.1,1.6-1.1,2.5,0.1c0.9,1.2,1.7,2.3,2.7,3.4c1.6,1.8,2.1,1.8,3.3-0.2c2.3-3.8,4.8-7.6,6.7-11.7
				c0.9-2,1.5-4.1,1.6-6.3c0.1-4.3-2.9-6.7-7.1-5.6c-2.4,0.6-4.2,2.1-5.6,4c-3,3.8-5,8.2-6.9,12.7c-2,4.9-3.5,10-5.1,15
				c-0.2,0.5-0.3,1-0.5,1.4c-0.4,0.9-1,1.1-1.9,0.7c-0.7-0.3-1.2-0.9-1.8-1.4C11.9,42.6,7.9,38.7,4.7,34c-2.9-4.3-4.5-9-4.4-14.2
				c0.1-3.5,1.2-6.6,3.5-9.2c2.9-3.2,7.5-4,11-1.1c0.5,0.4,1.1,0.7,1.7,1c1,0.5,1.4,0.4,1.9-0.6c0.8-1.5,1.5-3.1,2.2-4.6
				c0.4-0.8,0.8-1.6,1.3-2.4c0.4-0.8,1.1-1.1,2-0.9c0.8,0.2,1.7,0.5,2.5,0.8c1.3,0.5,1.6,1.2,1,2.5c-1,2.2-2.1,4.3-3.1,6.5
				s-1.9,4.4-2.9,6.7c-0.1,0.2-0.2,0.4-0.3,0.7c-0.5,1.1-1.1,1.2-2.1,0.5c-0.7-0.5-1.3-1.1-1.9-1.7c-1.6-1.5-3.3-2.8-5.2-3.9
				c-1.6-1-2.5-0.8-3.7,0.7C6.6,16.5,5.8,18.7,5.9,21.3z"/>
		</g>
	</g>
</g>
</svg>
