<?xml version="1.0" encoding="utf-8"?>
<!-- Generator: Adobe Illustrator 20.0.0, SVG Export Plug-In . SVG Version: 6.00 Build 0)  -->
<svg version="1.1" id="Layer_1" shape-rendering="crispEdges"
	 xmlns="http://www.w3.org/2000/svg" xmlns:xlink="http://www.w3.org/1999/xlink" x="0px" y="0px" viewBox="0 0 19 19"
	 style="enable-background:new 0 0 19 19;" xml:space="preserve">
<style type="text/css">
	.st0{fill:#C6399E;}
</style>
<path class="st0" d="M16.8,3.8c0,0.9-0.2,1.6-0.7,2.3C16,6.2,15.9,6.5,16,6.7c0.3,0.5,0.2,1.1,0.2,1.7c0,0.5,0.1,0.9,0.2,1.4
	c0.2,1,0.2,2-0.2,2.9c-0.4,0.8-1.4,1.2-2.3,0.8c-0.3-0.1-0.4-0.2-0.6,0.2c-0.4,1-1.4,1.1-2.2,0.3c-0.9-1-2.6-0.8-3.3,0.4
	c-0.8,1.5-2,2.7-3.3,3.6c-0.6,0.5-1.3,0.7-2.1,0.7c-1.1,0-1.8-1.1-1.4-2.2c0.3-0.7,0.7-1.3,1.4-1.6c1-0.4,1.5-1.2,2.1-2
	c0.4-0.7,0.5-1.5-0.4-2.1c-0.7-0.5-1-1.2-0.8-2C3.4,8,3.8,7.3,4.6,7c0.6-0.3,1.3-0.5,2-0.6s1.1-0.6,1.6-1.1c0.9-0.8,2-1.3,3.2-0.7
	c1.1,0.5,1.4,0.3,1.9-0.7c0.3-0.5,0.6-0.9,1.1-1.2C15,2.3,16,2.8,16.5,3.6v0.1C16.6,3.9,16.6,4,16.8,3.8L16.8,3.8z"/>
<path class="st0" d="M0,2.9C0,2,0.6,1.4,1.5,1.4C2.3,1.4,3,2,3,2.8S2.3,4.3,1.5,4.3C0.6,4.3,0,3.7,0,2.9z"/>
<path class="st0" d="M18.2,11.3c-0.5,0-0.8-0.3-0.9-0.8c0-0.4,0.4-0.9,0.8-0.9s0.9,0.4,0.8,0.8C18.9,11,18.6,11.3,18.2,11.3z"/>
<path class="st0" d="M17.6,8.4c-0.2,0-0.4-0.1-0.4-0.4c0-0.2,0.1-0.3,0.3-0.3c0.2,0,0.4,0.1,0.4,0.3S17.8,8.3,17.6,8.4z"/>
<path class="st0" d="M1.5,13.8c0,0.3-0.1,0.4-0.3,0.4s-0.4-0.1-0.4-0.3s0.1-0.4,0.4-0.4C1.4,13.5,1.5,13.6,1.5,13.8z"/>
<path class="st0" d="M16.5,3.7C16.5,3.7,16.5,3.6,16.5,3.7c0.1-0.1,0.1-0.1,0.1-0.1c0.1-0.2,0.2-0.4,0.5-0.3c0.2,0,0.2,0.2,0.2,0.4
	C17.2,4,17,4,16.8,3.9l0,0C16.8,3.7,16.7,3.5,16.5,3.7z"/>
<path class="st0" d="M16.5,3.7c0.2-0.2,0.3,0,0.3,0.2C16.6,4,16.6,3.9,16.5,3.7z"/>
</svg>
