<?xml version="1.0" encoding="utf-8"?>
<!-- Generator: Adobe Illustrator 20.0.0, SVG Export Plug-In . SVG Version: 6.00 Build 0)  -->
<svg version="1.1" id="Layer_1" shape-rendering="crispEdges"
	 xmlns="http://www.w3.org/2000/svg" xmlns:xlink="http://www.w3.org/1999/xlink" x="0px" y="0px" viewBox="0 0 19 19"
	 style="enable-background:new 0 0 19 19;" xml:space="preserve">
<style type="text/css">
	.st0{stroke:#FFFFFF;}
	.st1{fill:#A07457;stroke:#000000;}
	.st2{stroke:#FBFBFB;}
	.st3{stroke:#FDFDFD;}
</style>
<path class="st0" d="M6,3.5 M14,3.5 M4,4.5 M15,4.5 M3,5.5 M16,5.5 M2,6.5 M16,6.5 M2,7.5 M18,7.5 M16,7.5 M2,8.5 M19,8.5 M18,8.5
	 M1,9.5 M13,9.5 M10,9.5 M16,9.5 M15,9.5 M19,9.5 M17,9.5 M1,10.5 M11,10.5 M8,10.5 M13,10.5 M12,10.5 M18,10.5 M17,10.5 M1,11.5
	 M6,11.5 M4,11.5 M11,11.5 M7,11.5 M14,11.5 M12,11.5 M19,11.5 M18,11.5 M1,12.5 M14,12.5 M4,12.5 M19,12.5 M17,12.5 M0,13.5h1
	 M3,13.5 M2,13.5 M13,13.5 M5,13.5 M19,13.5 M16,13.5 M4,14.5 M1,14.5 M12,14.5 M6,14.5 M19,14.5 M6,15.5 M0,15.5 M12,15.5 M19,15.5
	"/>
<path class="st1" d="M6,3.5h8 M4,4.5h11 M3,5.5h13 M2,6.5h14 M2,7.5h9 M14,7.5h2 M18,7.5h1 M2,8.5h9 M13,8.5h1 M15,8.5h3 M1,9.5h9
	 M13,9.5h2 M16,9.5h1 M1,10.5h7 M11,10.5h1 M13,10.5h1 M16,10.5h1 M18,10.5h1 M1,11.5h3 M6,11.5h1 M11,11.5h1 M14,11.5h4 M1,12.5h3
	 M14,12.5h3 M1,13.5h1 M3,13.5h2 M14,13.5h2 M0,14.5h1 M4,14.5h2 M13,14.5h1 M6,15.5h4"/>
<path class="st1" d="M11,7.5h2 M13,13.5h1 M11,15.5h1"/>
<path class="st1" d="M13,7.5h1"/>
<path class="st2" d="M13,8.5"/>
<path class="st1" d="M14,8.5h1"/>
<path class="st1" d="M14,10.5h1"/>
<path class="st1" d="M15,10.5h1"/>
<path class="st1" d="M12,14.5h1"/>
<path class="st3" d="M14,14.5"/>
<path class="st1" d="M10,15.5h1"/>
</svg>
