<svg width="14" height="14" viewBox="0 0 14 14" fill="none" xmlns="http://www.w3.org/2000/svg">
<path fill-rule="evenodd" clip-rule="evenodd" d="M0 1C0 0.447715 0.447715 0 1 0H1.00749C1.55977 0 2.00749 0.447715 2.00749 1C2.00749 1.27804 1.89402 1.52957 1.71086 1.71082C1.52961 1.894 1.27806 2.00749 1 2.00749C0.447715 2.00749 0 1.55978 0 1.00749V1ZM11.9925 1C11.9925 0.447715 12.4402 0 12.9925 0H13C13.5523 0 14 0.447715 14 1V1.00749C14 1.55977 13.5523 2.00749 13 2.00749C12.722 2.00749 12.4704 1.89402 12.2892 1.71087C12.106 1.52962 11.9925 1.27806 11.9925 1ZM13 11.9925C13.5523 11.9925 14 12.4402 14 12.9925V13C14 13.5523 13.5523 14 13 14H12.9925C12.4402 14 11.9925 13.5523 11.9925 13C11.9925 12.722 12.106 12.4704 12.2891 12.2892C12.4704 12.106 12.7219 11.9925 13 11.9925ZM1.71082 12.2891C1.52957 12.106 1.27804 11.9925 1 11.9925C0.447715 11.9925 0 12.4402 0 12.9925V13C0 13.5523 0.447715 14 1 14H1.00749C1.55978 14 2.00749 13.5523 2.00749 13C2.00749 12.7219 1.894 12.4704 1.71082 12.2891Z" fill="black"/>
</svg>
